<?xml version="1.0" encoding="utf-8"?>
<!-- Generator: Adobe Illustrator 24.0.1, SVG Export Plug-In . SVG Version: 6.00 Build 0)  -->
<svg version="1.1" id="Capa_1" xmlns="http://www.w3.org/2000/svg" xmlns:xlink="http://www.w3.org/1999/xlink" x="0px" y="0px"
	 viewBox="0 0 512 512" style="enable-background:new 0 0 512 512;" xml:space="preserve">
<style type="text/css">
	.st0{fill:#CEC3FC;fill-opacity:0.65;}
	.st1{fill:#1BBB9A;}
	.st2{fill:#9A58B4;}
	.st3{fill:#2FD1AA;}
	.st4{fill:#6583FE;}
	.st5{fill:#6C02AA;}
	.st6{fill:none;}
</style>
<path class="st0" d="M411.8,155.1c-30,0-54.3-24.3-54.3-54.3C357.4,45.1,312.3-0.1,256.6-0.1S155.8,45.1,155.8,100.7
	c0,30-24.3,54.3-54.3,54.3C45.8,155.1,0.6,200.2,0.6,255.9s45.2,100.8,100.8,100.8c30,0,54.3,24.3,54.3,54.3
	c0,55.7,45.2,100.8,100.8,100.8S357.3,466.6,357.3,411c0-30,24.3-54.3,54.3-54.3c55.7,0,100.8-45.2,100.8-100.8
	S467.4,155.1,411.8,155.1L411.8,155.1z"/>
<path class="st1" d="M724.1,1059.1c-3.7,0-7.5-1.4-10.3-4.3c-5.7-5.7-5.7-15,0-20.7s15-5.7,20.7,0s5.7,15,0,20.6
	C731.6,1057.6,727.8,1059.1,724.1,1059.1L724.1,1059.1z M724.1,1039.9c-1.2,0-2.4,0.4-3.3,1.3c-1.8,1.8-1.8,4.7,0,6.5s4.7,1.8,6.5,0
	s1.8-4.7,0-6.5C726.5,1040.3,725.3,1039.9,724.1,1039.9L724.1,1039.9z"/>
<g>
	<g>
		<g>
			<path class="st2" d="M438.4,305.4l-72.9,72.9c-9.8,9.8-26.7,2.9-26.7-11v-21.2H178.8c-8.6,0-15.6-7-15.6-15.6v-72.2
				c0-8.6,7-15.6,15.6-15.6h160.1v-21.2c0-13.9,16.8-20.9,26.7-11l72.9,72.9C444.5,289.4,444.5,299.3,438.4,305.4L438.4,305.4z"/>
			<path class="st3" d="M338.9,242.6v39.1c0,8.6-7,15.6-15.6,15.6H163.1v-39.1c0-8.6,7-15.6,15.6-15.6H338.9z"/>
		</g>
		<path class="st4" d="M63.5,230.1l72.9,72.9c9.8,9.8,26.7,2.9,26.7-11v-21.2h160.1c8.6,0,15.6-7,15.6-15.6V183
			c0-8.6-7-15.6-15.6-15.6H163.1v-21.2c0-13.9-16.8-20.9-26.7-11l-72.9,72.9C57.4,214.1,57.4,224,63.5,230.1L63.5,230.1z"/>
	</g>
	<path class="st5" d="M443.9,277.7c-1.5-1.5-2.9-2.9-4.4-4.4c-2.8-2.8-5.7-5.7-8.5-8.5c-1.2-1.2-2.4-2.4-3.6-3.6
		c-10.4-10.4-20.8-20.8-31.1-31.1c-2.5-2.5-5-5-7.5-7.5c-2.4-2.4-4.8-4.8-7.3-7.3c-2-2-4-4-6-6c-1.2-1.2-2.5-2.5-3.7-3.7
		c-0.3-0.3-0.5-0.5-0.8-0.8c-6.5-6.5-15.8-8.6-24.4-5.5v-16.4c0-12.9-10.5-23.4-23.4-23.4H170.9v-13.4c0-9.7-5.5-18-14.5-21.7
		c-8.9-3.7-18.7-1.8-25.5,5.1L58,202.4c-4.4,4.4-6.9,10.3-6.9,16.6s2.4,12.1,6.9,16.6c2.2,2.2,4.3,4.3,6.5,6.5
		c0.2,0.2,0.5,0.5,0.7,0.7c-0.1-0.1-0.1-0.2-0.2-0.2c4.5,4.7,9.1,9.4,13.8,14c2.2,2.1,4.3,4.2,6.5,6.4c1.8,1.8,3.5,3.5,5.3,5.3
		c2.3,2.3,4.5,4.5,6.8,6.8c2.5,2.5,5.1,5.1,7.6,7.6c2.6,2.6,5.1,5.1,7.7,7.7c2.4,2.4,4.8,4.8,7.1,7.1c2,2,3.9,3.9,5.9,5.9
		c1.3,1.3,2.6,2.6,3.9,3.9c0.2,0.2,1,1.2,1.2,1.2c4.5,4.5,10.4,6.9,16.4,6.9c3,0,6.1-0.6,9.1-1.8c3.3-1.4,6.2-3.4,8.6-6
		c2.2-2.5,4.1-5.7,5-8.9c0.4-1.5,0.5-3,0.6-4.5c0.2-2.6,0.4-5.2,0.5-7.8c0.1-2.6-0.1-5.2-0.1-7.8h152.3c12.9,0,23.4-10.5,23.4-23.4
		v-33.7c0-4.8,3.7-6.7,4.8-7.2c1.1-0.5,5.1-1.7,8.5,1.7l72.9,72.9c3,3,3,8,0,11l-72.9,72.9c-3.4,3.4-7.4,2.2-8.5,1.7
		s-4.8-2.4-4.8-7.2v-21.2c0-4.3-3.5-7.8-7.8-7.8h-81.2c-4.3,0-7.8,3.5-7.8,7.8s3.5,7.8,7.8,7.8c23.2,0,46.4,0.1,69.6,0
		c0.8,0,3.3-0.4,3.9,0.2c0.2,0.2,0,1.1,0,1.4c0,1.5,0,3.1,0,4.6c0,2.4,0,4.8,0,7.2c0,9.7,5.5,18,14.5,21.7c3,1.2,6.1,1.8,9.1,1.8
		c6,0,11.9-2.4,16.4-6.9L444,311C453.1,301.7,453.1,286.9,443.9,277.7z"/>
	<path class="st1" d="M331,255.1c0,4.3-3.5,7.8-7.8,7.8H163.1c-4.3,0-7.8,3.5-7.8,7.8v21.2c0,4.8-3.7,6.8-4.8,7.2
		c-1.1,0.5-5.1,1.7-8.5-1.7l-72.9-72.9c-3-3-3-8,0-11l72.9-72.9c1.8-1.8,3.8-2.3,5.4-2.3c1.4,0,2.6,0.4,3.1,0.6
		c1.1,0.5,4.8,2.4,4.8,7.2v21.2c0,4.3,3.5,7.8,7.8,7.8h160.1c4.3,0,7.8,3.5,7.8,7.8V255.1z"/>
	<path class="st2" d="M77.1,117.7h-3v-3c0-2.8-2.2-5-5-5s-5,2.2-5,5v3h-3c-2.8,0-5,2.2-5,5s2.2,5,5,5h3v3c0,2.8,2.2,5,5,5s5-2.2,5-5
		v-3h3c2.8,0,5-2.2,5-5S79.8,117.7,77.1,117.7z"/>
	<path class="st1" d="M412.8,442.7c-3.9,0-7.6-1.5-10.3-4.3c-5.7-5.7-5.7-15,0-20.7s15-5.7,20.7,0s5.7,15,0,20.7
		C420.4,441.2,416.6,442.7,412.8,442.7z M412.8,423.5c-1.2,0-2.4,0.4-3.3,1.3c-1.8,1.8-1.8,4.7,0,6.5c0.9,0.9,2,1.3,3.3,1.3
		s2.4-0.5,3.3-1.3c1.8-1.8,1.8-4.7,0-6.5C415.1,423.9,413.9,423.5,412.8,423.5z"/>
	<path class="st1" d="M390.1,130.8c-3.9,0-7.6-1.5-10.3-4.3c-5.7-5.7-5.7-15,0-20.7s15-5.7,20.7,0s5.7,15,0,20.7
		C397.7,129.3,394,130.8,390.1,130.8z M390.1,111.6c-1.2,0-2.4,0.4-3.3,1.3c-1.8,1.8-1.8,4.7,0,6.5c0.9,0.9,2,1.3,3.3,1.3
		s2.4-0.5,3.3-1.3c1.8-1.8,1.8-4.7,0-6.5C392.5,112,391.3,111.6,390.1,111.6z"/>
	<path class="st2" d="M92,385.6h-3.2v-3.2c0-2.8-2.2-5-5-5s-5,2.2-5,5v3.2h-3.2c-2.8,0-5,2.2-5,5s2.2,5,5,5h3.2v3.2c0,2.8,2.2,5,5,5
		s5-2.2,5-5v-3.2H92c2.8,0,5-2.2,5-5S94.8,385.6,92,385.6z"/>
	<path class="st1" d="M103.4,84.6c-3.9,0-7.6-1.5-10.3-4.3c-5.7-5.7-5.7-15,0-20.7c5.7-5.7,15-5.7,20.7,0c5.7,5.7,5.7,15,0,20.7
		C111,83.1,107.3,84.6,103.4,84.6z M103.4,65.4c-1.2,0-2.4,0.4-3.3,1.3c-1.8,1.8-1.8,4.7,0,6.5c0.9,0.9,2,1.3,3.3,1.3
		c1.3,0,2.4-0.5,3.3-1.3c1.8-1.8,1.8-4.7,0-6.5C105.8,65.8,104.6,65.4,103.4,65.4z"/>
	<path class="st2" d="M455.9,382.8h-3.2v-3.2c0-2.8-2.2-5-5-5s-5,2.2-5,5v3.2h-3.2c-2.8,0-5,2.2-5,5s2.2,5,5,5h3.2v3.2
		c0,2.8,2.2,5,5,5s5-2.2,5-5v-3.2h3.2c2.8,0,5-2.2,5-5S458.6,382.8,455.9,382.8z"/>
</g>
<path class="st2" d="M686.1,1008.5h-3.2v-3.2c0-2.8-2.2-5-5-5s-5,2.2-5,5v3.2h-3.2c-2.8,0-5,2.2-5,5s2.2,5,5,5h3.2v3.2
	c0,2.8,2.2,5,5,5s5-2.2,5-5v-3.2h3.2c2.8,0,5-2.2,5-5S688.9,1008.5,686.1,1008.5z"/>
<path class="st2" d="M467.3,1008.5h-3.2v-3.2c0-2.8-2.2-5-5-5s-5,2.2-5,5v3.2h-3.2c-2.8,0-5,2.2-5,5s2.2,5,5,5h3.2v3.2
	c0,2.8,2.2,5,5,5s5-2.2,5-5v-3.2h3.2c2.8,0,5-2.2,5-5S470,1008.5,467.3,1008.5z"/>
<path class="st5" d="M797,905.7c-2.8,0-5,2.2-5,5v52.7c0,8.3-6.7,15-15,15H533.3c-2.8,0-5,2.2-5,5s2.2,5,5,5H777
	c13.8,0,25-11.2,25-25v-52.7C802,908,799.7,905.7,797,905.7z"/>
<rect x="418.8" y="770.1" class="st6" width="378.2" height="117.1"/>
<rect x="418.3" y="901.3" class="st6" width="375.2" height="52.6"/>
</svg>
