<?xml version="1.0" encoding="utf-8"?>
<!-- Generator: Adobe Illustrator 24.0.1, SVG Export Plug-In . SVG Version: 6.00 Build 0)  -->
<svg version="1.1" id="Capa_1" xmlns="http://www.w3.org/2000/svg" xmlns:xlink="http://www.w3.org/1999/xlink" x="0px" y="0px"
	 viewBox="0 0 512 512" style="enable-background:new 0 0 512 512;" xml:space="preserve">
<style type="text/css">
	.st0{fill:#CEC3FC;fill-opacity:0.65;}
	.st1{fill:#6C02AA;}
	.st2{fill:#32B196;}
	.st3{fill:#8F599F;}
</style>
<g>
	<path class="st0" d="M301.2,41.8c-24.9,24.9-65.2,24.9-90.1,0C164.8-4.3,89.9-4.4,43.8,41.8s-46.1,121.1,0,167.2
		c24.9,24.9,24.9,65.2,0,90.1c-46.1,46.3-46.2,121.2,0,167.4s121.1,46.1,167.2,0c24.9-24.9,65.2-24.9,90.1,0
		c46.2,46.2,121.1,46.1,167.2,0s46.1-121.1,0-167.2c-24.9-24.9-24.9-65.2,0-90.1c46.2-46.2,46.1-121.1,0-167.2S347.3-4.3,301.2,41.8
		L301.2,41.8z"/>
	<g>
		<g>
			<path class="st1" d="M244.1,323.1c-2,2-2,5.2,0,7.3c2,2,5.3,2,7.3,0s2-5.3,0-7.3C249.3,321.1,246.1,321.1,244.1,323.1z"/>
			<path class="st1" d="M375.8,314.2l-39-33.2c-0.2-0.1-0.4-0.3-0.6-0.4c-10.2-6.5-23.4-5.1-31.9,3.5L283,305.4
				c-1.5,1.5-3.7,1.9-5.6,1.1c-24-9.9-43.7-24.9-58.6-44.4c-11.4-14.9-15.4-26.8-16-28.4c-0.1-0.4-0.2-0.7-0.3-1.1
				c-0.8-1.9-0.4-4.1,1.1-5.6l21.2-21.3c8.6-8.6,10-21.7,3.5-32c0-0.1-0.1-0.2-0.2-0.2L200,134.4c-8.9-13.7-28.2-15.8-39.7-4.2
				l-4.3,4.3l0,0l-15.2,15.2c-18.1,18.1-21.1,45.4-8.6,78.8c10.7,28.6,32.2,59.9,60.4,88.2c28.9,28.9,61.1,50.8,90.6,61.6
				c29.2,10.7,60.2,12,82.2-10l14.3-14.3C391.4,342.3,389.3,323.1,375.8,314.2z M330.4,289.1l38.9,33.1c0.2,0.1,0.4,0.3,0.6,0.4
				c8.3,5.3,9.6,16.9,2.6,23.9l-1.1,1.1L305,297.9l6.5-6.5C316.6,286.3,324.3,285.4,330.4,289.1z M191.5,140
				c0.1,0.1,0.1,0.2,0.2,0.2l28.2,39.1c3.8,6.1,2.9,13.9-2.2,19.1l-6.3,6.3l-45-66.1l1.2-1.2C174.6,130.4,186.2,131.7,191.5,140z
				 M286.8,368.5c-28.1-10.3-58.9-31.3-86.8-59.2c-27.2-27.2-47.9-57.2-58.1-84.5c-7.7-20.5-12.8-48.9,6.2-67.9L159,146l45,66.1
				l-7.6,7.6c-4.3,4.3-5.7,10.7-3.5,16.4c1.6,6.6,9.1,20.5,16.6,30.6c11.1,15,31.2,35.7,64,49.3c5.8,2.4,12.4,1.1,16.8-3.3l7.4-7.4
				l66.4,49.7l-5.9,5.9C337.8,381.3,308.1,376.3,286.8,368.5z"/>
			<path class="st1" d="M234.4,310.8c-5.4-4.8-14.8-12.9-19.8-18c-12.1-12.5-24.8-27.5-32.4-38.5c-1.6-2.3-4.8-2.9-7.1-1.3
				c-2.3,1.6-2.9,4.8-1.3,7.1c9.5,13.8,23.5,29.6,33.5,39.8c5.2,5.4,14.7,13.6,20.3,18.6c2.1,1.9,5.4,1.7,7.3-0.5
				C236.8,315.9,236.6,312.7,234.4,310.8z"/>
		</g>
	</g>
	<path class="st2" d="M137.2,80c-3.3,0-6.5-1.3-8.8-3.7c-4.9-4.9-4.9-12.8,0-17.7c4.9-4.9,12.8-4.9,17.7,0s4.9,12.8,0,17.7
		C143.7,78.7,140.5,80,137.2,80z M137.2,63.6c-1,0-2,0.3-2.8,1.1c-1.5,1.5-1.5,4,0,5.6c0.8,0.8,1.7,1.1,2.8,1.1s2-0.4,2.8-1.1
		c1.5-1.5,1.5-4,0-5.6C139.2,63.9,138.2,63.6,137.2,63.6z"/>
	<path class="st2" d="M273,504.9c-3.3,0-6.5-1.3-8.8-3.7c-4.9-4.9-4.9-12.8,0-17.7c4.9-4.9,12.8-4.9,17.7,0s4.9,12.8,0,17.7
		C279.5,503.6,276.3,504.9,273,504.9z M273,488.5c-1,0-2,0.3-2.8,1.1c-1.5,1.5-1.5,4,0,5.6c0.8,0.8,1.7,1.1,2.8,1.1s2-0.4,2.8-1.1
		c1.5-1.5,1.5-4,0-5.6C275,488.8,274,488.5,273,488.5z"/>
	<path class="st3" d="M227.8,105.3H225v-2.8c0-2.4-1.9-4.3-4.3-4.3c-2.4,0-4.3,1.9-4.3,4.3v2.8h-2.8c-2.4,0-4.3,1.9-4.3,4.3
		s1.9,4.3,4.3,4.3h2.8v2.8c0,2.4,1.9,4.3,4.3,4.3c2.4,0,4.3-1.9,4.3-4.3v-2.8h2.8c2.4,0,4.3-1.9,4.3-4.3
		C232.1,107.2,230.2,105.3,227.8,105.3z"/>
	<path class="st3" d="M407.3,414.3h-3.4v-3.4c0-3-2.4-5.3-5.3-5.3c-3,0-5.3,2.4-5.3,5.3v3.4h-3.4c-3,0-5.3,2.4-5.3,5.3
		s2.4,5.3,5.3,5.3h3.4v3.4c0,3,2.4,5.3,5.3,5.3c3,0,5.3-2.4,5.3-5.3V425h3.4c3,0,5.3-2.4,5.3-5.3S410.3,414.3,407.3,414.3z"/>
</g>
</svg>
