<?xml version="1.0" encoding="utf-8"?>
<!-- Generator: Adobe Illustrator 24.0.1, SVG Export Plug-In . SVG Version: 6.00 Build 0)  -->
<svg version="1.1" id="Capa_1" xmlns="http://www.w3.org/2000/svg" xmlns:xlink="http://www.w3.org/1999/xlink" x="0px" y="0px"
	 viewBox="0 0 512 512" style="enable-background:new 0 0 512 512;" xml:space="preserve">
<style type="text/css">
	.st0{fill:#CEC3FC;fill-opacity:0.65;}
	.st1{fill:#6C02AA;}
	.st2{fill:#32B196;}
	.st3{fill:#1BBB9A;}
	.st4{fill:#8F599F;}
</style>
<g>
	<path class="st0" d="M407.1,158c-29.2,0-52.8-23.6-52.8-52.8C354.2,51,310.3,7,256.1,7S158,51,158,105.1
		c0,29.2-23.6,52.8-52.8,52.8C51,158,7,201.9,7,256s44,98.1,98.1,98.1c29.2,0,52.8,23.6,52.8,52.8c0,54.2,44,98.1,98.1,98.1
		s98.1-44,98.1-98.1c0-29.2,23.6-52.8,52.8-52.8c54.2,0,98.1-44,98.1-98.1S461.2,158,407.1,158L407.1,158z"/>
	<g>
		<g>
			<path class="st1" d="M370.1,127.1H184.5c-2.3,0-4.2,1.9-4.2,4.2s1.9,4.2,4.2,4.2h185.6c10.2,0,18.5,8.3,18.5,18.4v149
				c0,10.2-8.3,18.4-18.5,18.4H141.9c-10.2,0-18.4-8.3-18.4-18.4v-149c0-10.2,8.3-18.4,18.4-18.4h25.9c2.3,0,4.2-1.9,4.2-4.2
				s-1.9-4.2-4.2-4.2h-25.9c-14.8,0-26.8,12-26.8,26.8v149c0,14.8,12,26.8,26.8,26.8h67.3l-8.2,26.8h-15.4
				c-7.8,0-14.2,6.4-14.2,14.2c0,7.9,6.4,14.2,14.2,14.2h140.8c7.8,0,14.2-6.4,14.2-14.2c0-7.8-6.4-14.2-14.2-14.2H311l-8.2-26.8
				h67.3c14.8,0,26.8-12,26.8-26.8v-149C396.9,139.1,384.9,127.1,370.1,127.1z M332.3,370.7c0,3.2-2.6,5.9-5.9,5.9H185.6
				c-3.2,0-5.9-2.6-5.9-5.9c0-3.2,2.6-5.9,5.9-5.9h140.8C329.6,364.9,332.3,367.5,332.3,370.7z M302.3,356.5h-92.5l8.2-26.8h76.1
				L302.3,356.5z"/>
			<path class="st1" d="M370.4,263.3c2.3,0,4.2-1.9,4.2-4.2V153.9c0-2.5-2-4.5-4.5-4.5H141.9c-2.5,0-4.5,2-4.5,4.5v136.5
				c0,2.3,1.9,4.2,4.2,4.2h228.9c2.3,0,4.2-1.9,4.2-4.2V276c0-2.3-1.9-4.2-4.2-4.2s-4.2,1.9-4.2,4.2v10.2H145.7V157.7h220.5v101.4
				C366.3,261.5,368.1,263.3,370.4,263.3z"/>
			<path class="st2" d="M261.5,303.6c-1.3-2-3.7-3-6-2.5c-2.5,0.5-4.4,2.6-4.7,5.2c-0.5,5.3,6.1,8.5,9.9,4.8
				C262.8,309.1,263.1,305.9,261.5,303.6z"/>
		</g>
	</g>
	<path class="st3" d="M400.4,65.9c3.6,0,7,1.4,9.5,4c5.3,5.3,5.3,13.9,0,19.1c-5.3,5.3-13.9,5.3-19.1,0c-5.3-5.3-5.3-13.9,0-19.1
		C393.4,67.2,396.8,65.9,400.4,65.9z M400.4,83.6c1.1,0,2.2-0.4,3-1.2c1.7-1.7,1.7-4.3,0-6c-0.8-0.8-1.8-1.2-3-1.2s-2.2,0.5-3,1.2
		c-1.7,1.7-1.7,4.3,0,6C398.2,83.2,399.3,83.6,400.4,83.6z"/>
	<path class="st3" d="M110.9,396.5c-3.6,0-7-1.4-9.5-4c-5.3-5.3-5.3-13.9,0-19.1s13.9-5.3,19.1,0c5.3,5.3,5.3,13.9,0,19.1
		C118,395.1,114.5,396.5,110.9,396.5z M110.9,378.8c-1.1,0-2.2,0.4-3,1.2c-1.7,1.7-1.7,4.3,0,6c0.8,0.8,1.8,1.2,3,1.2s2.2-0.5,3-1.2
		c1.7-1.7,1.7-4.3,0-6C113.2,379.2,112.1,378.8,110.9,378.8z"/>
	<path class="st4" d="M432.4,129.2h3v3c0,2.6,2,4.6,4.6,4.6s4.6-2,4.6-4.6v-3h3c2.6,0,4.6-2,4.6-4.6s-2-4.6-4.6-4.6h-3v-3
		c0-2.6-2-4.6-4.6-4.6s-4.6,2-4.6,4.6v3h-3c-2.6,0-4.6,2-4.6,4.6S429.8,129.2,432.4,129.2z"/>
	<path class="st4" d="M77.1,394.1h-3v-3c0-2.6-2-4.6-4.6-4.6s-4.6,2-4.6,4.6v3h-3c-2.6,0-4.6,2-4.6,4.6s2,4.6,4.6,4.6h3v3
		c0,2.6,2,4.6,4.6,4.6s4.6-2,4.6-4.6v-3h3c2.6,0,4.6-2,4.6-4.6S79.7,394.1,77.1,394.1z"/>
	<path class="st4" d="M320.4,87.8h-3v-3c0-2.6-2-4.6-4.6-4.6s-4.6,2-4.6,4.6v3h-3c-2.6,0-4.6,2-4.6,4.6s2,4.6,4.6,4.6h3v3
		c0,2.6,2,4.6,4.6,4.6s4.6-2,4.6-4.6v-3h3c2.6,0,4.6-2,4.6-4.6C325,89.9,322.9,87.8,320.4,87.8z"/>
</g>
</svg>
