<?xml version="1.0" encoding="utf-8"?>
<!-- Generator: Adobe Illustrator 24.0.1, SVG Export Plug-In . SVG Version: 6.00 Build 0)  -->
<svg version="1.1" id="Capa_1" xmlns="http://www.w3.org/2000/svg" xmlns:xlink="http://www.w3.org/1999/xlink" x="0px" y="0px"
	 viewBox="0 0 512 512" style="enable-background:new 0 0 512 512;" xml:space="preserve">
<style type="text/css">
	.st0{fill:#CEC3FC;fill-opacity:0.65;}
	.st1{fill:#6C02AA;}
	.st2{fill:#1BBB9A;}
	.st3{fill:#8F599F;}
</style>
<g>
	<path class="st0" d="M211,466.4c24.9-24.9,65.2-24.9,90.1,0c46.3,46.1,121.2,46.2,167.4,0s46.1-121.1,0-167.2
		c-24.9-24.9-24.9-65.2,0-90.1c46.1-46.3,46.2-121.2,0-167.4s-121.1-46.1-167.2,0c-24.9,24.9-65.2,24.9-90.1,0
		C165-4.4,90.1-4.4,44,41.8S-2.1,162.9,44,209c24.9,24.9,24.9,65.2,0,90.1c-46.2,46.2-46.1,121.1,0,167.2S164.9,512.5,211,466.4
		L211,466.4z"/>
	<g>
		<g>
			<g>
				<path class="st1" d="M418.3,254.1h-6V128c0-16.6-13.4-30-30-30H130.2c-16.6,0-30,13.4-30,30v90h-6c-10,0-18,8-18,18v156.1
					c0,10,8,18,18,18h228.1c3.3,0,6-2.7,6-6c0-16.6-13.4-30-30-30h-18v-36h72v54c0,10,8,18,18,18h48c10,0,18-8,18-18v-120
					C436.3,262.1,428.3,254.1,418.3,254.1z M208.2,392.2c0,3.3-2.7,6-6,6h-108c-3.3,0-6-2.7-6-6v-6h120.1L208.2,392.2L208.2,392.2z
					 M208.2,374.1h-120v-138c0-3.3,2.7-6,6-6h108c3.3,0,6,2.7,6,6V374.1z M298.3,386.1c7.7,0,14.4,4.8,17,12h-96.1
					c0.7-2,1.1-4,1.1-6v-6H298.3z M220.2,374.1v-36h12v36H220.2z M244.2,374.1v-36h24v36H244.2z M352.3,326.1H220.2v-36h132.1V326.1
					z M352.3,272.1v6H220.2v-42c0-2.9-0.8-5.6-2-8.2c0.1-0.1,0.2-0.1,0.3-0.2l59.4-59.4c2.3-2.4,2.3-6.2-0.2-8.5
					c-2.3-2.3-6-2.3-8.3,0L210,219.2c-0.2,0.2-0.2,0.4-0.3,0.5c-2.3-1.1-4.9-1.7-7.4-1.7h-90.1v-90c0-10,8-18,18-18h252.1
					c10,0,18,8,18,18v126.1h-30C360.3,254.1,352.3,262.1,352.3,272.1z M424.3,392.2c0,3.3-2.7,6-6,6h-48c-3.3,0-6-2.7-6-6v-6h60
					V392.2z M424.3,374.1h-60v-102c0-3.3,2.7-6,6-6h48c3.3,0,6,2.7,6,6V374.1z"/>
			</g>
		</g>
		<g>
			<g>
				<path class="st1" d="M148.9,291.2c-2.3-2.3-6.2-2.3-8.5,0L115,316.6c-2.4,2.3-2.5,6.1-0.2,8.5s6.1,2.5,8.5,0.2
					c0.1-0.1,0.1-0.1,0.2-0.2l25.4-25.4C149.9,297.8,147.8,294.2,148.9,291.2z"/>
			</g>
		</g>
		<g>
			<g>
				<path class="st1" d="M184.8,291.2c-2.3-2.3-6-2.3-8.3,0L151,316.6c-2.4,2.3-2.5,6.1-0.2,8.5s6.1,2.5,8.5,0.2
					c0.1-0.1,0.1-0.1,0.2-0.2l25.4-25.4C187.2,297.2,187.2,293.4,184.8,291.2z"/>
			</g>
		</g>
		<g>
			<g>
				<path class="st1" d="M314.4,159.8c-2.3-2.3-6-2.3-8.3,0l-59.4,59.4c-2.4,2.3-2.5,6.1-0.2,8.5s6.1,2.5,8.5,0.2
					c0.1-0.1,0.1-0.1,0.2-0.2l59.4-59.4C316.8,165.9,316.7,162.1,314.4,159.8z"/>
			</g>
		</g>
		<g>
			<g>
				<path class="st1" d="M406.9,307.4c-2.3-2.3-6-2.3-8.3,0l-17,17c-2.4,2.3-2.5,6.1-0.2,8.5s6.1,2.5,8.5,0.2
					c0.1-0.1,0.1-0.1,0.2-0.2l17-17C409.3,313.5,409.3,309.7,406.9,307.4z"/>
			</g>
		</g>
		<g>
			<g>
				<path class="st1" d="M256.4,302.1L256.4,302.1c-3.4,0-6.1,2.7-6,6s2.7,6,6,6c3.3,0,6-2.7,6-6S259.7,302.1,256.4,302.1z"/>
			</g>
		</g>
		<g>
			<g>
				<path class="st1" d="M268.3,122h-24c-3.3,0-6,2.7-6,6s2.7,6,6,6h24c3.3,0,6-2.7,6-6S271.6,122,268.3,122z"/>
			</g>
		</g>
	</g>
	<path class="st2" d="M427.6,69.7c-3.3,0-6.5-1.3-8.8-3.7c-4.9-4.9-4.9-12.8,0-17.7s12.8-4.9,17.7,0s4.9,12.8,0,17.7
		C434.1,68.4,431,69.7,427.6,69.7z M427.6,53.3c-1,0-2,0.3-2.8,1.1c-1.5,1.5-1.5,4,0,5.6c0.8,0.8,1.7,1.1,2.8,1.1s2-0.4,2.8-1.1
		c1.5-1.5,1.5-4,0-5.6C429.7,53.7,428.6,53.3,427.6,53.3z"/>
	<path class="st2" d="M85.2,468c-4.4,0-8.5-1.7-11.6-4.8c-6.4-6.4-6.4-16.8,0-23.2c6.4-6.4,16.8-6.4,23.2,0c6.4,6.4,6.4,16.8,0,23.2
		C93.8,466.3,89.6,468,85.2,468z M85.2,446.5c-1.3,0-2.7,0.4-3.7,1.5c-2,2-2,5.3,0,7.3c1,1,2.2,1.5,3.7,1.5s2.7-0.6,3.7-1.5
		c2-2,2-5.3,0-7.3C87.9,446.9,86.6,446.5,85.2,446.5z"/>
	<path class="st3" d="M39.1,254.3h-3.6v-3.6c0-3.1-2.5-5.6-5.6-5.6s-5.6,2.5-5.6,5.6v3.6h-3.6c-3.1,0-5.6,2.5-5.6,5.6
		s2.5,5.6,5.6,5.6h3.6v3.6c0,3.1,2.5,5.6,5.6,5.6s5.6-2.5,5.6-5.6v-3.6h3.6c3.1,0,5.6-2.5,5.6-5.6C44.7,256.7,42.2,254.3,39.1,254.3
		z"/>
	<path class="st3" d="M485.8,103.4h-3.4V100c0-3-2.4-5.3-5.3-5.3s-5.3,2.4-5.3,5.3v3.4h-3.4c-3,0-5.3,2.4-5.3,5.3s2.4,5.3,5.3,5.3
		h3.4v3.4c0,3,2.4,5.3,5.3,5.3s5.3-2.4,5.3-5.3V114h3.4c3,0,5.3-2.4,5.3-5.3S488.8,103.4,485.8,103.4z"/>
</g>
</svg>
