<?xml version="1.0" encoding="utf-8"?>
<!-- Generator: Adobe Illustrator 24.0.3, SVG Export Plug-In . SVG Version: 6.00 Build 0)  -->
<svg version="1.1" id="Capa_1" xmlns="http://www.w3.org/2000/svg" xmlns:xlink="http://www.w3.org/1999/xlink" x="0px" y="0px"
	 viewBox="0 0 512 512" style="enable-background:new 0 0 512 512;" xml:space="preserve">
<style type="text/css">
	.st0{opacity:0.5;}
	.st1{fill:#1BBB9A;}
	.st2{opacity:0.1;fill:#2626BC;enable-background:new    ;}
	.st3{fill:#F2F2F2;}
	.st4{fill:#169F85;}
	.st5{fill:#FFFFFF;}
	.st6{fill:#B7C5FF;}
	.st7{fill:#2A80B8;}
	.st8{fill:#F29B11;}
	.st9{fill:#8E44AC;}
</style>
<g id="Capa_1_1_">
	<g class="st0">
		<path class="st1" d="M46.6,187.7c22.5,72.7,92.2,76.1,155.8,80.1c209.5,12.8-53.9,186.7,125.5,203.9c66,6.3,135-48.8,124.6-120
			c-9.5-65-103.6-103.6-103.7-164.4c0-47.8,88.9-82.5,31.1-134C328.3,7.5,0.9,39.8,46.6,187.7L46.6,187.7z"/>
	</g>
	<g>
		<g>
			<path class="st2" d="M346.7,109.6c0-12.4-10-22.4-22.4-22.4H174.2c-12.4,0-22.4,10-22.4,22.4v178.5
				c-10.5,8.6-17.2,21.7-17.2,36.4V431c0,4.7,3.9,8.6,8.6,8.6h161.1c4.7,0,8.6-3.9,8.6-8.6v-9.4H339c8.2,0,15-6.7,15-15v-6.8
				c0-5.5-2.9-10.2-7.3-12.8V109.6L346.7,109.6z"/>
			<g>
				<path class="st3" d="M227.2,376.1h85.6v42.8h-85.6L227.2,376.1L227.2,376.1z"/>
				<g>
					<g>
						<path class="st4" d="M346.7,89v282.3c0,12.4-10,22.4-22.4,22.4H174.2c-12.4,0-22.4-10-22.4-22.4V89.1
							c0-12.4,10-22.4,22.4-22.4h150.2C336.7,66.7,346.7,76.7,346.7,89z"/>
						<path class="st4" d="M290.4,83.8l5.3-17.1H202l5.3,17.1c0.9,3.1,3.9,5.2,7.1,5.2h68.8C286.5,89,289.4,86.9,290.4,83.8z"/>
					</g>
				</g>
				<g>
					<path class="st5" d="M134.6,418.9v-115c0-26,21-47.1,47.1-47.1H231c12.7,0,23.2,10.4,23.2,23.2s-10.4,23.2-23.2,23.2h-39.9
						c0,0,66,5.2,66,115.8"/>
					<g>
						<path class="st5" d="M345.1,286.3h-39.4c-10.8,0-19.5-8.7-19.5-19.5s8.7-19.5,19.5-19.5h39.4c8.2,0,15,6.7,15,15v9.2
							C360,279.6,353.3,286.3,345.1,286.3L345.1,286.3z"/>
						<path class="st5" d="M345.1,325.4h-48.3c-10.8,0-19.5-8.7-19.5-19.5s8.7-19.5,19.5-19.5h48.3c8.2,0,15,6.7,15,15v9.1
							C360,318.6,353.3,325.4,345.1,325.4L345.1,325.4z"/>
						<path class="st5" d="M345.1,364.4h-39.4c-10.8,0-19.5-8.7-19.5-19.5s8.7-19.5,19.5-19.5h39.4c8.2,0,15,6.7,15,15v9.2
							C360,357.7,353.3,364.4,345.1,364.4L345.1,364.4z"/>
						<path class="st5" d="M339.1,401h-35.4c-10.1,0-18.3-8.2-18.3-18.3c0-10.1,8.2-18.3,18.3-18.3h35.4c8.2,0,15,6.7,15,15v6.8
							C354,394.3,347.3,401,339.1,401z"/>
					</g>
				</g>
			</g>
			<g>
				<path class="st6" d="M189.7,90.2H176c-2.4,0-4.3-1.9-4.3-4.3v-4.3c0-2.4,1.9-4.3,4.3-4.3h13.7c2.4,0,4.3,1.9,4.3,4.3v4.3
					C193.9,88.2,192,90.2,189.7,90.2z"/>
				<g>
					<g>
						<path class="st6" d="M309.8,89.5c-2.4,0-4.3-1.9-4.3-4.3v-3c0-2.4,1.9-4.3,4.3-4.3s4.3,1.9,4.3,4.3v3
							C314.1,87.6,312.1,89.5,309.8,89.5z"/>
					</g>
					<g>
						<path class="st6" d="M322.8,89.5c-2.4,0-4.3-1.9-4.3-4.3v-3c0-2.4,1.9-4.3,4.3-4.3s4.3,1.9,4.3,4.3v3
							C327.1,87.6,325.2,89.5,322.8,89.5z"/>
					</g>
				</g>
			</g>
			<path class="st7" d="M108.2,254.6c-2.4,0-4.3-1.9-4.3-4.3c0-2.8-2.3-5.1-5.1-5.1c-2.4,0-4.3-1.9-4.3-4.3s1.9-4.3,4.3-4.3
				c2.8,0,5.1-2.3,5.1-5.1c0-2.4,1.9-4.3,4.3-4.3s4.3,1.9,4.3,4.3c0,2.8,2.3,5.1,5.1,5.1c2.4,0,4.3,1.9,4.3,4.3s-1.9,4.3-4.3,4.3
				c-2.8,0-5.1,2.3-5.1,5.1C112.5,252.7,110.6,254.6,108.2,254.6z"/>
			<path class="st8" d="M448.3,290.7c-2.4,0-4.3-1.9-4.3-4.3c0-2.8-2.3-5.1-5.1-5.1c-2.4,0-4.3-1.9-4.3-4.3s1.9-4.3,4.3-4.3
				c2.8,0,5.1-2.3,5.1-5.1c0-2.4,1.9-4.3,4.3-4.3s4.3,1.9,4.3,4.3c0,2.8,2.3,5.1,5.1,5.1c2.4,0,4.3,1.9,4.3,4.3s-1.9,4.3-4.3,4.3
				c-2.8,0-5.1,2.3-5.1,5.1C452.6,288.8,450.7,290.7,448.3,290.7z"/>
			<path class="st7" d="M393.4,387.5c-1.1,0-2.2-0.4-3-1.3l-9.4-9.4c-1.7-1.7-1.7-4.4,0-6.1l9.4-9.4c1.7-1.7,4.4-1.7,6.1,0l9.4,9.4
				c1.7,1.7,1.7,4.4,0,6.1l-9.4,9.4C395.6,387,394.5,387.5,393.4,387.5z M390,373.8l3.3,3.3l3.3-3.3l-3.3-3.3L390,373.8z"/>
			<path class="st8" d="M102.5,303.7c-1.1,0-2.2-0.4-3-1.3l-9.4-9.4c-1.7-1.7-1.7-4.4,0-6.1l9.4-9.4c1.7-1.7,4.4-1.7,6.1,0l9.4,9.4
				c1.7,1.7,1.7,4.4,0,6.1l-9.4,9.4C104.6,303.3,103.5,303.7,102.5,303.7z M99,290l3.3,3.3l3.3-3.3l-3.3-3.3L99,290z"/>
		</g>
		<g>
			<path class="st6" d="M278.9,238.9H226c-2.4,0-4.3-1.9-4.3-4.3s1.9-4.3,4.3-4.3h52.9c2.4,0,4.3,1.9,4.3,4.3
				S281.2,238.9,278.9,238.9z"/>
		</g>
	</g>
	<path class="st9" d="M364.3,271.4v-9.2c0-10.6-8.6-19.3-19.3-19.3h-39.4c-13.1,0-23.8,10.7-23.8,23.8c0,6.5,2.6,12.3,6.8,16.7
		c-9.2,3.3-15.7,12.1-15.7,22.4c0,10.4,6.6,19.1,15.7,22.4c-4.2,4.3-6.8,10.2-6.8,16.7c0,7.7,3.7,14.6,9.4,19
		c-6.2,4-10.2,11-10.2,18.8c0,2.4,0.3,4.6,1,6.8h-22.7c-3.3-26.4-12.1-54.3-32.6-73.1c-4.1-3.8-8.1-6.7-12-9h16
		c15.1,0,27.5-12.3,27.5-27.5s-12.3-27.5-27.5-27.5h-49.3c-9.3,0-18.1,2.5-25.6,6.8V89.1c0-10,8.1-18.1,18.1-18.1h150.2
		c10,0,18.1,8.1,18.1,18.1v129.4c0,2.4,1.9,4.3,4.3,4.3s4.3-1.9,4.3-4.3V89.1c0-14.7-12-26.7-26.7-26.7H174.2
		c-14.7,0-26.7,12-26.7,26.7v176.5c-10.5,9.4-17.2,23.1-17.2,38.2V419c0,2.4,1.9,4.3,4.3,4.3s4.3-1.9,4.3-4.3V303.9
		c0-23.6,19.2-42.8,42.8-42.8H231c10.4,0,18.9,8.5,18.9,18.9s-8.5,18.9-18.9,18.9h-40h-17.7c-2.4,0-4.3,1.9-4.3,4.3s1.9,4.3,4.3,4.3
		h17.5c1.5,0.2,16.3,2.1,30.7,15.7c20.4,19,31.1,52.1,31.1,95.8c0,2.4,1.9,4.3,4.3,4.3c2.4,0,4.3-1.9,4.3-4.3
		c0-6.6-0.3-13.6-0.9-20.9h26.8c4.1,4.4,10,7.2,16.5,7.2h4.8V419c0,2.4,1.9,4.3,4.3,4.3s4.3-1.9,4.3-4.3v-13.7h22
		c10.6,0,19.3-8.6,19.3-19.3v-6.8c0-4.9-1.8-9.2-4.8-12.7c6.3-3.2,10.7-9.7,10.7-17.2v-9.2c0-6-2.8-11.4-7.2-15
		c4.4-3.5,7.2-8.9,7.2-15v-9.2c0-6-2.8-11.4-7.2-15C361.5,282.8,364.3,277.4,364.3,271.4L364.3,271.4z M349.7,386
		c0,5.9-4.8,10.7-10.7,10.7h-35.4c-7.7,0-14-6.3-14-14s6.3-14,14-14h2H339c5.9,0,10.7,4.8,10.7,10.7V386L349.7,386z M355.7,301.2
		v9.2c0,5.9-4.8,10.7-10.7,10.7h-6.3c-2.4,0-4.3,1.9-4.3,4.3s1.9,4.3,4.3,4.3h6.3c5.9,0,10.7,4.8,10.7,10.7v9.2
		c0,5.9-4.8,10.7-10.7,10.7h-6h-33.4c-8.4,0-15.2-6.8-15.2-15.2c0-8.4,6.8-15.2,15.2-15.2h4.3c2.4,0,4.3-1.9,4.3-4.3
		s-1.9-4.3-4.3-4.3h-4.3h-9c-8.4,0-15.2-6.8-15.2-15.2s6.8-15.2,15.2-15.2h9H345C350.9,290.5,355.7,295.3,355.7,301.2L355.7,301.2z
		 M305.8,282c-8.4,0-15.2-6.8-15.2-15.2c0-8.4,6.8-15.2,15.2-15.2h39.4c5.9,0,10.7,4.8,10.7,10.7v9.2c0,5.9-4.8,10.7-10.7,10.7
		L305.8,282z"/>
</g>
</svg>
