<?xml version="1.0" encoding="utf-8"?>
<!-- Generator: Adobe Illustrator 24.0.3, SVG Export Plug-In . SVG Version: 6.00 Build 0)  -->
<svg version="1.1" id="Capa_1" xmlns="http://www.w3.org/2000/svg" xmlns:xlink="http://www.w3.org/1999/xlink" x="0px" y="0px"
	 viewBox="0 0 1920 400" style="enable-background:new 0 0 1920 400;" xml:space="preserve">
<style type="text/css">
	.st0{fill:#FFFFFF;}
	.st1{fill:#CEC3FC;fill-opacity:0.21;}
	.st2{fill:#CEC3FC;fill-opacity:0.31;}
	.st3{fill:#1BBB9A;}
	.st4{fill:#32B196;}
	.st5{fill:#8F599F;}
	.st6{opacity:0.2;fill:#1BBB9A;enable-background:new    ;}
	.st7{opacity:0.4;fill:#1BBB9A;enable-background:new    ;}
</style>
<title>bannerVerde</title>
<g id="Capa_2_1_">
	<g id="Capa_1-2">
		<rect class="st0" width="1920" height="400"/>
	</g>
</g>
<path class="st1" d="M739.8,293.2c-279.9-91.3-573.9-60.8-739.8-30V400h1961.6C1783.5,233.6,1144.9,425.4,739.8,293.2z"/>
<path class="st2" d="M558.1,300.6C318.4,231.2,130.9,216,0,219.3V400h1565.8C1233.9,301.3,978.4,422.4,558.1,300.6z"/>
<g>
	<g>
		<g>
			<path class="st0" d="M151.9,353.5c1.3,0,2.4,1.1,2.4,2.4s-1.1,2.4-2.4,2.4c-1.3,0-2.4-1.1-2.4-2.4S150.6,353.5,151.9,353.5z"/>
			<path class="st0" d="M131.9,353.5c1.3,0,2.4,1.1,2.4,2.4s-1.1,2.4-2.4,2.4c-1.3,0-2.4-1.1-2.4-2.4S130.6,353.5,131.9,353.5z"/>
			<path class="st0" d="M112,353.5c1.3,0,2.4,1.1,2.4,2.4s-1.1,2.4-2.4,2.4s-2.4-1.1-2.4-2.4S110.6,353.5,112,353.5z"/>
			<path class="st0" d="M92,353.5c1.3,0,2.4,1.1,2.4,2.4s-1.1,2.4-2.4,2.4s-2.4-1.1-2.4-2.4S90.7,353.5,92,353.5z"/>
			<path class="st0" d="M72,353.5c1.3,0,2.4,1.1,2.4,2.4s-1.1,2.4-2.4,2.4s-2.4-1.1-2.4-2.4S70.7,353.5,72,353.5z"/>
			<path class="st0" d="M52.1,353.5c1.3,0,2.4,1.1,2.4,2.4s-1.1,2.4-2.4,2.4c-1.3,0-2.4-1.1-2.4-2.4
				C49.7,354.6,50.8,353.5,52.1,353.5z"/>
			<path class="st0" d="M32.1,353.5c1.3,0,2.4,1.1,2.4,2.4s-1.1,2.4-2.4,2.4c-1.3,0-2.4-1.1-2.4-2.4
				C29.7,354.6,30.8,353.5,32.1,353.5z"/>
			<path class="st0" d="M12.2,353.5c1.3,0,2.4,1.1,2.4,2.4s-1.1,2.4-2.4,2.4s-2.4-1.1-2.4-2.4C9.7,354.6,10.8,353.5,12.2,353.5z"/>
		</g>
		<g>
			<path class="st0" d="M151.9,332.7c1.3,0,2.4,1.1,2.4,2.4s-1.1,2.4-2.4,2.4c-1.3,0-2.4-1.1-2.4-2.4
				C149.5,333.8,150.6,332.7,151.9,332.7z"/>
			<path class="st0" d="M131.9,332.7c1.3,0,2.4,1.1,2.4,2.4s-1.1,2.4-2.4,2.4c-1.3,0-2.4-1.1-2.4-2.4
				C129.5,333.8,130.6,332.7,131.9,332.7z"/>
			<path class="st0" d="M112,332.7c1.3,0,2.4,1.1,2.4,2.4s-1.1,2.4-2.4,2.4s-2.4-1.1-2.4-2.4C109.6,333.8,110.6,332.7,112,332.7z"/>
			<path class="st0" d="M92,332.7c1.3,0,2.4,1.1,2.4,2.4s-1.1,2.4-2.4,2.4s-2.4-1.1-2.4-2.4C89.6,333.8,90.7,332.7,92,332.7z"/>
			<circle class="st0" cx="72" cy="335.1" r="2.4"/>
			<circle class="st0" cx="52.1" cy="335.1" r="2.4"/>
			<circle class="st0" cx="32.1" cy="335.1" r="2.4"/>
			<circle class="st0" cx="12.2" cy="335.1" r="2.4"/>
		</g>
		<g>
			<path class="st0" d="M151.9,311.9c1.3,0,2.4,1.1,2.4,2.4s-1.1,2.4-2.4,2.4c-1.3,0-2.4-1.1-2.4-2.4S150.6,311.9,151.9,311.9z"/>
			<path class="st0" d="M131.9,311.9c1.3,0,2.4,1.1,2.4,2.4s-1.1,2.4-2.4,2.4c-1.3,0-2.4-1.1-2.4-2.4S130.6,311.9,131.9,311.9z"/>
			<path class="st0" d="M112,311.9c1.3,0,2.4,1.1,2.4,2.4s-1.1,2.4-2.4,2.4s-2.4-1.1-2.4-2.4S110.6,311.9,112,311.9z"/>
			<path class="st0" d="M92,311.9c1.3,0,2.4,1.1,2.4,2.4s-1.1,2.4-2.4,2.4s-2.4-1.1-2.4-2.4S90.7,311.9,92,311.9z"/>
			<circle class="st0" cx="72" cy="314.4" r="2.4"/>
			<circle class="st0" cx="52.1" cy="314.4" r="2.4"/>
			<circle class="st0" cx="32.1" cy="314.4" r="2.4"/>
			<circle class="st0" cx="12.2" cy="314.4" r="2.4"/>
		</g>
		<g>
			<path class="st0" d="M151.9,291.2c1.3,0,2.4,1.1,2.4,2.4s-1.1,2.4-2.4,2.4c-1.3,0-2.4-1.1-2.4-2.4S150.6,291.2,151.9,291.2z"/>
			<path class="st0" d="M131.9,291.2c1.3,0,2.4,1.1,2.4,2.4s-1.1,2.4-2.4,2.4c-1.3,0-2.4-1.1-2.4-2.4S130.6,291.2,131.9,291.2z"/>
			<path class="st0" d="M112,291.2c1.3,0,2.4,1.1,2.4,2.4s-1.1,2.4-2.4,2.4s-2.4-1.1-2.4-2.4S110.6,291.2,112,291.2z"/>
			<path class="st0" d="M92,291.2c1.3,0,2.4,1.1,2.4,2.4S93.3,296,92,296s-2.4-1.1-2.4-2.4S90.7,291.2,92,291.2z"/>
			<circle class="st0" cx="72" cy="293.6" r="2.4"/>
			<circle class="st0" cx="52.1" cy="293.6" r="2.4"/>
			<circle class="st0" cx="32.1" cy="293.6" r="2.4"/>
			<circle class="st0" cx="12.2" cy="293.6" r="2.4"/>
		</g>
	</g>
</g>
<g>
	<path class="st3" d="M1846.7,330.1c-8.5,0-12.7-7.6-16.3-14.5c-3.3-6.3-6.6-12.1-12.4-12.1s-9,5.8-12.4,12.1
		c-3.6,6.7-7.8,14.5-16.3,14.5c-8.5,0-12.6-7.6-16.3-14.5c-3.3-6.3-6.6-12.1-12.4-12.1s-9,5.8-12.4,12.1
		c-3.6,6.7-7.8,14.5-16.3,14.5c-8.5,0-12.6-7.6-16.3-14.5c-3.3-6.3-6.6-12.1-12.4-12.1c-1.2,0-2.2-1-2.2-2.2c0-1.2,1-2.2,2.2-2.2
		c8.5,0,12.6,7.6,16.3,14.5c3.3,6.3,6.6,12.1,12.4,12.1s9-5.8,12.4-12.1c3.6-6.7,7.8-14.5,16.3-14.5c8.5,0,12.6,7.6,16.3,14.5
		c3.3,6.3,6.6,12.1,12.4,12.1s9-5.8,12.4-12.1c3.6-6.7,7.8-14.5,16.3-14.5c8.5,0,12.7,7.6,16.3,14.5c3.3,6.3,6.6,12.1,12.4,12.1
		c5.8,0,9-5.8,12.4-12.1c3.6-6.7,7.8-14.5,16.3-14.5c1.2,0,2.2,1,2.2,2.2c0,1.2-1,2.2-2.2,2.2c-5.8,0-9,5.8-12.4,12.1
		C1859.3,322.3,1855.3,330.1,1846.7,330.1z"/>
</g>
<path class="st4" d="M1804.3,132.6c-3.8,0-7.5-1.5-10.1-4.2c-5.6-5.6-5.6-14.7,0-20.3c5.6-5.6,14.7-5.6,20.3,0s5.6,14.7,0,20.3
	C1811.8,131.3,1808.2,132.6,1804.3,132.6z M1804.3,113.8c-1.2,0-2.4,0.5-3.3,1.2c-1.8,1.8-1.8,4.7,0,6.3c0.9,0.9,2,1.2,3.3,1.2
	c1.4,0,2.4-0.5,3.3-1.2c1.8-1.8,1.8-4.7,0-6.3C1806.7,114.3,1805.5,113.8,1804.3,113.8z"/>
<path class="st5" d="M1752.9,36.7h-5.2v-5.2c0-4.4-3.4-8.1-8.1-8.1s-8.1,3.4-8.1,8.1v5.2h-5.2c-4.4,0-8.1,3.4-8.1,8.1
	s3.4,8.1,8.1,8.1h5.2v5.2c0,4.4,3.4,8.1,8.1,8.1s8.1-3.4,8.1-8.1v-5.2h5.2c4.4,0,8.1-3.4,8.1-8.1S1757.3,36.7,1752.9,36.7z"/>
<path class="st5" d="M974.1,322.3H972v-2.1c0-1.8-1.4-3.3-3.3-3.3c-1.8,0-3.3,1.4-3.3,3.3v2.1h-2.1c-1.8,0-3.3,1.4-3.3,3.3
	c0,1.8,1.4,3.3,3.3,3.3h2.1v2.1c0,1.8,1.4,3.3,3.3,3.3c1.8,0,3.3-1.4,3.3-3.3v-2.1h2.1c1.8,0,3.3-1.4,3.3-3.3
	C977.3,323.7,975.8,322.3,974.1,322.3z"/>
<path class="st4" d="M1426.7,358.3c-2,0-4-0.7-5.4-2.3c-3-3-3-7.9,0-10.9s7.9-3,10.9,0s3,7.9,0,10.9
	C1430.7,357.5,1428.7,358.3,1426.7,358.3L1426.7,358.3z M1426.7,348.1c-0.6,0-1.3,0.2-1.7,0.7c-1,1-1,2.5,0,3.4c1,1,2.5,1,3.4,0
	c1-1,1-2.5,0-3.4C1428,348.3,1427.4,348.1,1426.7,348.1L1426.7,348.1z"/>
<path class="st4" d="M882.4,74.6c-2.2,0-4.2-0.8-5.7-2.4c-3.1-3.1-3.1-8.3,0-11.4s8.3-3.1,11.4,0s3.1,8.3,0,11.4
	C886.7,73.8,884.6,74.6,882.4,74.6z M882.4,63.9c-0.6,0-1.4,0.2-1.8,0.7c-1,1-1,2.6,0,3.6c0.5,0.5,1.2,0.7,1.8,0.7
	c0.6,0,1.4-0.3,1.8-0.7c1-1,1-2.6,0-3.6C883.8,64.1,883.1,63.9,882.4,63.9z"/>
<path class="st5" d="M968.2,39.8H965v-3.2c0-2.9-2.3-5-5-5s-5,2.3-5,5v3.2h-3.2c-2.9,0-5,2.3-5,5c0,2.9,2.3,5,5,5h3.2V53
	c0,2.9,2.3,5,5,5s5-2.3,5-5v-3.2h3.2c2.9,0,5-2.3,5-5C973.2,41.9,970.9,39.8,968.2,39.8z"/>
<path class="st5" d="M1406.6,331.5h-1.7v-1.7c0-1.5-1.2-2.6-2.6-2.6s-2.6,1.2-2.6,2.6v1.7h-1.7c-1.5,0-2.6,1.2-2.6,2.6
	c0,1.5,1.2,2.6,2.6,2.6h1.7v1.7c0,1.5,1.2,2.6,2.6,2.6s2.6-1.2,2.6-2.6v-1.7h1.7c1.5,0,2.6-1.2,2.6-2.6
	C1409.3,332.7,1408.1,331.5,1406.6,331.5z"/>
<path class="st5" d="M258.5,338.2l-4.6-4l4.1-4.6c3.6-4.1,3-10-0.8-13.3c-4.1-3.6-9.9-2.9-13.3,0.9l-4.1,4.6l-4.6-4
	c-4.1-3.6-9.9-2.9-13.3,0.9c-3.6,4.1-3,10,0.8,13.3l4.6,4l-4.1,4.6c-3.6,4.1-3,10,0.8,13.3c4.1,3.6,9.9,2.9,13.3-0.9l4.1-4.6l4.6,4
	c4.1,3.6,9.9,2.9,13.3-0.9C262.9,347.9,262.5,341.7,258.5,338.2z"/>
<path class="st6" d="M-304.5-34.7v463.5h505.3c0,0,513.9-136.3,627.2-457.2L-304.5-34.7z"/>
<path class="st7" d="M-379.4-17.1v463.5h505.3c0,0,513.9-136.3,627.2-457.2L-379.4-17.1z"/>
</svg>
