<?xml version="1.0" encoding="utf-8"?>
<!-- Generator: Adobe Illustrator 24.0.3, SVG Export Plug-In . SVG Version: 6.00 Build 0)  -->
<svg version="1.1" id="Capa_1" xmlns="http://www.w3.org/2000/svg" xmlns:xlink="http://www.w3.org/1999/xlink" x="0px" y="0px"
	 viewBox="0 0 1920 400" style="enable-background:new 0 0 1920 400;" xml:space="preserve">
<style type="text/css">
	.st0{fill:#FFFFFF;}
	.st1{opacity:0.21;fill:#9A58B4;enable-background:new    ;}
	.st2{opacity:0.25;fill:#8B3EAF;enable-background:new    ;}
	.st3{fill:#CEC3FC;fill-opacity:0.21;}
	.st4{fill:#CEC3FC;fill-opacity:0.31;}
	.st5{fill:#1BBB9A;}
	.st6{fill:#E1D7FF;}
	.st7{fill:#6C02AA;}
	.st8{font-family:'CoolveticaRg-Regular';}
	.st9{font-size:74.8344px;}
	.st10{font-family:'CoolveticaRg-Bold';}
	.st11{font-size:98.3003px;}
	.st12{fill:#32B196;}
	.st13{fill:#8F599F;}
</style>
<title>bannerVerde</title>
<g id="Capa_2_1_">
	<g id="Capa_1-2">
		<rect class="st0" width="1920" height="400"/>
	</g>
</g>
<path class="st1" d="M1564.5,168.7c198.5,150,303.6,63.4,355.5-22.5V0h-850.3C1187.8,259.7,1406.3,49.1,1564.5,168.7z"/>
<path class="st2" d="M1920,0v309.4c-154.8-40.5-155.6-239.4-406.1-217c-167.9,15.1-257-42.8-288.3-92.4H1920z"/>
<path class="st3" d="M252.9,293.2c-95.7-91.3-196.2-60.8-252.9-30V400h670.6C609.7,233.6,391.4,425.4,252.9,293.2z"/>
<path class="st4" d="M169.3,300.6C96.6,231.2,39.7,216,0,219.3V400h475C374.3,301.3,296.8,422.4,169.3,300.6z"/>
<g>
	<g>
		<g>
			<path class="st0" d="M1892.9,22.2c0-1.3,1.1-2.4,2.4-2.4s2.4,1.1,2.4,2.4s-1.1,2.4-2.4,2.4S1892.9,23.5,1892.9,22.2z"/>
			<path class="st0" d="M1892.9,42.1c0-1.3,1.1-2.4,2.4-2.4s2.4,1.1,2.4,2.4c0,1.3-1.1,2.4-2.4,2.4S1892.9,43.5,1892.9,42.1z"/>
			<path class="st0" d="M1892.9,62.1c0-1.3,1.1-2.4,2.4-2.4s2.4,1.1,2.4,2.4c0,1.3-1.1,2.4-2.4,2.4S1892.9,63.4,1892.9,62.1z"/>
			<path class="st0" d="M1892.9,82.1c0-1.3,1.1-2.4,2.4-2.4s2.4,1.1,2.4,2.4s-1.1,2.4-2.4,2.4S1892.9,83.4,1892.9,82.1z"/>
			<path class="st0" d="M1892.9,102c0-1.3,1.1-2.4,2.4-2.4s2.4,1.1,2.4,2.4s-1.1,2.4-2.4,2.4S1892.9,103.4,1892.9,102z"/>
			<path class="st0" d="M1892.9,122c0-1.3,1.1-2.4,2.4-2.4s2.4,1.1,2.4,2.4s-1.1,2.4-2.4,2.4S1892.9,123.3,1892.9,122z"/>
			<path class="st0" d="M1892.9,142c0-1.3,1.1-2.4,2.4-2.4s2.4,1.1,2.4,2.4c0,1.3-1.1,2.4-2.4,2.4S1892.9,143.3,1892.9,142z"/>
			<path class="st0" d="M1892.9,161.9c0-1.3,1.1-2.4,2.4-2.4s2.4,1.1,2.4,2.4s-1.1,2.4-2.4,2.4S1892.9,163.3,1892.9,161.9z"/>
		</g>
		<g>
			<path class="st0" d="M1872.2,22.2c0-1.3,1.1-2.4,2.4-2.4s2.4,1.1,2.4,2.4s-1.1,2.4-2.4,2.4S1872.2,23.5,1872.2,22.2z"/>
			<path class="st0" d="M1872.2,42.1c0-1.3,1.1-2.4,2.4-2.4s2.4,1.1,2.4,2.4c0,1.3-1.1,2.4-2.4,2.4S1872.2,43.5,1872.2,42.1z"/>
			<path class="st0" d="M1872.2,62.1c0-1.3,1.1-2.4,2.4-2.4s2.4,1.1,2.4,2.4c0,1.3-1.1,2.4-2.4,2.4S1872.2,63.4,1872.2,62.1z"/>
			<path class="st0" d="M1872.2,82.1c0-1.3,1.1-2.4,2.4-2.4s2.4,1.1,2.4,2.4s-1.1,2.4-2.4,2.4S1872.2,83.4,1872.2,82.1z"/>
			<circle class="st0" cx="1874.6" cy="102" r="2.4"/>
			<circle class="st0" cx="1874.6" cy="122" r="2.4"/>
			<circle class="st0" cx="1874.6" cy="142" r="2.4"/>
			<circle class="st0" cx="1874.6" cy="161.9" r="2.4"/>
		</g>
		<g>
			<path class="st0" d="M1851.4,22.2c0-1.3,1.1-2.4,2.4-2.4s2.4,1.1,2.4,2.4s-1.1,2.4-2.4,2.4S1851.4,23.5,1851.4,22.2z"/>
			<path class="st0" d="M1851.4,42.1c0-1.3,1.1-2.4,2.4-2.4s2.4,1.1,2.4,2.4c0,1.3-1.1,2.4-2.4,2.4S1851.4,43.5,1851.4,42.1z"/>
			<path class="st0" d="M1851.4,62.1c0-1.3,1.1-2.4,2.4-2.4s2.4,1.1,2.4,2.4c0,1.3-1.1,2.4-2.4,2.4S1851.4,63.4,1851.4,62.1z"/>
			<path class="st0" d="M1851.4,82.1c0-1.3,1.1-2.4,2.4-2.4s2.4,1.1,2.4,2.4s-1.1,2.4-2.4,2.4S1851.4,83.4,1851.4,82.1z"/>
			<circle class="st0" cx="1853.8" cy="102" r="2.4"/>
			<circle class="st0" cx="1853.8" cy="122" r="2.4"/>
			<circle class="st0" cx="1853.8" cy="142" r="2.4"/>
			<circle class="st0" cx="1853.8" cy="161.9" r="2.4"/>
		</g>
		<g>
			<path class="st0" d="M1830.6,22.2c0-1.3,1.1-2.4,2.4-2.4s2.4,1.1,2.4,2.4s-1.1,2.4-2.4,2.4S1830.6,23.5,1830.6,22.2z"/>
			<path class="st0" d="M1830.6,42.1c0-1.3,1.1-2.4,2.4-2.4s2.4,1.1,2.4,2.4c0,1.3-1.1,2.4-2.4,2.4S1830.6,43.5,1830.6,42.1z"/>
			<path class="st0" d="M1830.6,62.1c0-1.3,1.1-2.4,2.4-2.4s2.4,1.1,2.4,2.4c0,1.3-1.1,2.4-2.4,2.4S1830.6,63.4,1830.6,62.1z"/>
			<path class="st0" d="M1830.6,82.1c0-1.3,1.1-2.4,2.4-2.4s2.4,1.1,2.4,2.4s-1.1,2.4-2.4,2.4S1830.6,83.4,1830.6,82.1z"/>
			<circle class="st0" cx="1833" cy="102" r="2.4"/>
			<circle class="st0" cx="1833" cy="122" r="2.4"/>
			<circle class="st0" cx="1833" cy="142" r="2.4"/>
			<circle class="st0" cx="1833" cy="161.9" r="2.4"/>
		</g>
	</g>
</g>
<g>
	<g>
		<g>
			<path class="st0" d="M151.9,353.5c1.3,0,2.4,1.1,2.4,2.4s-1.1,2.4-2.4,2.4c-1.3,0-2.4-1.1-2.4-2.4S150.6,353.5,151.9,353.5z"/>
			<path class="st0" d="M131.9,353.5c1.3,0,2.4,1.1,2.4,2.4s-1.1,2.4-2.4,2.4c-1.3,0-2.4-1.1-2.4-2.4S130.6,353.5,131.9,353.5z"/>
			<path class="st0" d="M112,353.5c1.3,0,2.4,1.1,2.4,2.4s-1.1,2.4-2.4,2.4s-2.4-1.1-2.4-2.4S110.6,353.5,112,353.5z"/>
			<path class="st0" d="M92,353.5c1.3,0,2.4,1.1,2.4,2.4s-1.1,2.4-2.4,2.4s-2.4-1.1-2.4-2.4S90.7,353.5,92,353.5z"/>
			<path class="st0" d="M72,353.5c1.3,0,2.4,1.1,2.4,2.4s-1.1,2.4-2.4,2.4s-2.4-1.1-2.4-2.4S70.7,353.5,72,353.5z"/>
			<path class="st0" d="M52.1,353.5c1.3,0,2.4,1.1,2.4,2.4s-1.1,2.4-2.4,2.4c-1.3,0-2.4-1.1-2.4-2.4
				C49.7,354.6,50.8,353.5,52.1,353.5z"/>
			<path class="st0" d="M32.1,353.5c1.3,0,2.4,1.1,2.4,2.4s-1.1,2.4-2.4,2.4c-1.3,0-2.4-1.1-2.4-2.4
				C29.7,354.6,30.8,353.5,32.1,353.5z"/>
			<path class="st0" d="M12.2,353.5c1.3,0,2.4,1.1,2.4,2.4s-1.1,2.4-2.4,2.4s-2.4-1.1-2.4-2.4C9.7,354.6,10.8,353.5,12.2,353.5z"/>
		</g>
		<g>
			<path class="st0" d="M151.9,332.7c1.3,0,2.4,1.1,2.4,2.4s-1.1,2.4-2.4,2.4c-1.3,0-2.4-1.1-2.4-2.4
				C149.5,333.8,150.6,332.7,151.9,332.7z"/>
			<path class="st0" d="M131.9,332.7c1.3,0,2.4,1.1,2.4,2.4s-1.1,2.4-2.4,2.4c-1.3,0-2.4-1.1-2.4-2.4
				C129.5,333.8,130.6,332.7,131.9,332.7z"/>
			<path class="st0" d="M112,332.7c1.3,0,2.4,1.1,2.4,2.4s-1.1,2.4-2.4,2.4s-2.4-1.1-2.4-2.4C109.6,333.8,110.6,332.7,112,332.7z"/>
			<path class="st0" d="M92,332.7c1.3,0,2.4,1.1,2.4,2.4s-1.1,2.4-2.4,2.4s-2.4-1.1-2.4-2.4C89.6,333.8,90.7,332.7,92,332.7z"/>
			<circle class="st0" cx="72" cy="335.1" r="2.4"/>
			<circle class="st0" cx="52.1" cy="335.1" r="2.4"/>
			<circle class="st0" cx="32.1" cy="335.1" r="2.4"/>
			<circle class="st0" cx="12.2" cy="335.1" r="2.4"/>
		</g>
		<g>
			<path class="st0" d="M151.9,311.9c1.3,0,2.4,1.1,2.4,2.4s-1.1,2.4-2.4,2.4c-1.3,0-2.4-1.1-2.4-2.4S150.6,311.9,151.9,311.9z"/>
			<path class="st0" d="M131.9,311.9c1.3,0,2.4,1.1,2.4,2.4s-1.1,2.4-2.4,2.4c-1.3,0-2.4-1.1-2.4-2.4S130.6,311.9,131.9,311.9z"/>
			<path class="st0" d="M112,311.9c1.3,0,2.4,1.1,2.4,2.4s-1.1,2.4-2.4,2.4s-2.4-1.1-2.4-2.4S110.6,311.9,112,311.9z"/>
			<path class="st0" d="M92,311.9c1.3,0,2.4,1.1,2.4,2.4s-1.1,2.4-2.4,2.4s-2.4-1.1-2.4-2.4S90.7,311.9,92,311.9z"/>
			<circle class="st0" cx="72" cy="314.4" r="2.4"/>
			<circle class="st0" cx="52.1" cy="314.4" r="2.4"/>
			<circle class="st0" cx="32.1" cy="314.4" r="2.4"/>
			<circle class="st0" cx="12.2" cy="314.4" r="2.4"/>
		</g>
		<g>
			<path class="st0" d="M151.9,291.2c1.3,0,2.4,1.1,2.4,2.4s-1.1,2.4-2.4,2.4c-1.3,0-2.4-1.1-2.4-2.4S150.6,291.2,151.9,291.2z"/>
			<path class="st0" d="M131.9,291.2c1.3,0,2.4,1.1,2.4,2.4s-1.1,2.4-2.4,2.4c-1.3,0-2.4-1.1-2.4-2.4S130.6,291.2,131.9,291.2z"/>
			<path class="st0" d="M112,291.2c1.3,0,2.4,1.1,2.4,2.4s-1.1,2.4-2.4,2.4s-2.4-1.1-2.4-2.4S110.6,291.2,112,291.2z"/>
			<path class="st0" d="M92,291.2c1.3,0,2.4,1.1,2.4,2.4S93.3,296,92,296s-2.4-1.1-2.4-2.4S90.7,291.2,92,291.2z"/>
			<circle class="st0" cx="72" cy="293.6" r="2.4"/>
			<circle class="st0" cx="52.1" cy="293.6" r="2.4"/>
			<circle class="st0" cx="32.1" cy="293.6" r="2.4"/>
			<circle class="st0" cx="12.2" cy="293.6" r="2.4"/>
		</g>
	</g>
</g>
<g>
	<path class="st5" d="M1772.9,363.9c-5.7,0-8.5-5.1-10.9-9.7c-2.2-4.2-4.4-8.1-8.3-8.1s-6,3.9-8.3,8.1c-2.4,4.5-5.2,9.7-10.9,9.7
		c-5.7,0-8.4-5.1-10.9-9.7c-2.2-4.2-4.4-8.1-8.3-8.1s-6,3.9-8.3,8.1c-2.4,4.5-5.2,9.7-10.9,9.7c-5.7,0-8.4-5.1-10.9-9.7
		c-2.2-4.2-4.4-8.1-8.3-8.1c-0.8,0-1.5-0.7-1.5-1.5s0.7-1.5,1.5-1.5c5.7,0,8.4,5.1,10.9,9.7c2.2,4.2,4.4,8.1,8.3,8.1s6-3.9,8.3-8.1
		c2.4-4.5,5.2-9.7,10.9-9.7c5.7,0,8.4,5.1,10.9,9.7c2.2,4.2,4.4,8.1,8.3,8.1s6-3.9,8.3-8.1c2.4-4.5,5.2-9.7,10.9-9.7
		c5.7,0,8.5,5.1,10.9,9.7c2.2,4.2,4.4,8.1,8.3,8.1s6-3.9,8.3-8.1c2.4-4.5,5.2-9.7,10.9-9.7c0.8,0,1.5,0.7,1.5,1.5s-0.7,1.5-1.5,1.5
		c-3.9,0-6,3.9-8.3,8.1C1781.3,358.7,1778.6,363.9,1772.9,363.9z"/>
</g>
<path class="st5" d="M1152.9,440l-19.1,2.7c-8.2,1.1-15.7-4.6-16.8-12.7l0,0c-1.1-8.2,4.6-15.7,12.7-16.8l59.7-8.3
	c10.3-1.4,17.4-10.9,16-21.2l0,0c-1.4-10.3-10.9-17.4-21.2-16l-49.3,6.9c-6.9,1-13.2-3.8-14.2-10.7h0c-1-6.9,3.8-13.2,10.7-14.2
	l22-3.1c8.8-1.2,14.9-9.3,13.7-18.1l0,0c-1.3-9.2,5.1-17.7,14.4-19l87.1-12.1c10.4-1.4,17.7-11.1,16.2-21.4l0,0
	c-1.4-10.4-11.1-17.7-21.4-16.2l-42.9,6c-3.7,0.5-7-2-7.5-5.7l0,0c-0.5-3.7,2-7,5.7-7.5l8.4-1.2c10.5-1.5,17.9-11.2,16.4-21.7h0
	c-1.5-10.5-11.2-17.9-21.7-16.4l-10.9,1.5c-9.9,1.4-19.1-5.5-20.5-15.5l0,0c-1.4-9.9,5.5-19.1,15.5-20.5l8.6-1.2
	c17.8-2.5,30.2-18.9,27.7-36.7l0,0c-2.5-17.8-18.9-30.2-36.7-27.7l-78.5,10.9c-5.2,0.7-10.1-2.9-10.8-8.2l0,0
	c-0.7-5.2,2.9-10.1,8.2-10.8l18.2-2.5c10.7-1.5,18.1-11.3,16.6-22l0,0c-1.5-10.7-11.3-18.1-22-16.6l-40.7,5.7
	c-11.4,1.6-22-6.4-23.6-17.8l0,0c-1.6-11.4-12.9-20.2-24.4-18.6l-63.9,9.8c-9.2,1.3-17.7-5.1-18.9-14.3h0
	c-1.3-9.2,5.1-17.7,14.3-18.9l20.6-2.9c12.3-1.7,20.9-13.1,19.2-25.4l0,0c-1.7-12.1-12.8-20.7-24.9-19.3L795.2-9.8
	c-12,1.4-20.4,12.6-18.4,24.5l0,0.1c1.9,11.3-5.4,17.1-16.8,18.7l0,0c-11,1.5-18.7,11.7-17.2,22.8l0,0c1.6,11.7-8,20-19.7,21.7
	l-15,2.1c-13.1,1.8-20.8,16.4-18.9,29.5l0,0c1.8,13.1,13.9,22.2,27,20.4l37.6-5.2c4.5-0.6,8.7,2.5,9.3,7l0,0c0.6,4.5-2.5,8.7-7,9.3
	l-117.4,16.3c-13.5,1.9-22.9,14.3-21,27.8l0,0c1.9,13.5,14.3,22.9,27.8,21l142.7-19.9c6.5-0.9,12.6,3.7,13.5,10.2l0,0
	c0.9,6.5-3.7,12.6-10.2,13.5l-80.9,11.3c-9.9,1.4-16.8,10.5-15.4,20.4l0,0c1.4,9.9,10.5,16.8,20.4,15.4l58.9-8.2
	c7.9-1.1,15.2,4.4,16.3,12.3l0,0c1.1,7.9-4.4,15.2-12.3,16.3l0,0c-11.7,1.6-19.8,12.4-18.2,24.1l1,7c1.2,8.7-5.8,15.4-14.4,16.6
	l-37,5.2c-12,1.7-20.4,12.8-18.7,24.8l-0.1,0.3c1.7,12,12.9,20.1,24.9,18.4l69.9-9.3c15.6-2.1,29.8,2.9,32.3,18.4h0
	c2.6,15.9-8.3,30.8-24.2,33.3l-0.9,0.1c-15.9,2.4-26.9,17.2-24.7,33.2l0,0c2.2,16.1,17.1,27.3,33.2,25.1l30.2-4.2
	c11.9-1.7,22.9,6.6,24.5,18.6l0,0c2,14.1,15,24,29.2,22l272.4-37.9c9.1-1.3,15.5-9.7,14.2-18.8l0,0
	C1170.5,445.1,1162.1,438.7,1152.9,440z"/>
<g>
	
		<image style="overflow:visible;opacity:0.66;" width="502" height="231" xlink:href="218874AB5AD3EC.png"  transform="matrix(1 0 0 1 662 54)">
	</image>
	<g>
		<polygon class="st6" points="1157.5,199.1 681.5,266 682.9,126.4 1158.9,59.5 		"/>
	</g>
</g>
<polygon class="st7" points="1214.7,314 790.6,373.6 792.2,251.5 1216.2,192 "/>
<text transform="matrix(0.9889 -0.1486 0.1486 0.9889 784.5293 200)" class="st7 st8 st9">Negocio</text>
<text transform="matrix(0.9898 -0.1426 0.1426 0.9898 870.3171 340.597)" class="st0 st10 st11">MÓVIL</text>
<path class="st12" d="M685.2,389.3c-2.4,0-4.9-0.9-6.7-2.8c-3.7-3.7-3.7-9.8,0-13.5c3.7-3.7,9.8-3.7,13.5,0c3.7,3.7,3.7,9.8,0,13.4
	C690.1,388.4,687.6,389.3,685.2,389.3L685.2,389.3z M685.2,376.8c-0.8,0-1.6,0.3-2.2,0.8c-1.2,1.2-1.2,3.1,0,4.2
	c1.2,1.2,3.1,1.2,4.2,0c1.2-1.2,1.2-3.1,0-4.2C686.8,377.1,686,376.8,685.2,376.8L685.2,376.8z"/>
<path class="st12" d="M571.1,144.2c-2.5,0-5-1-6.7-2.8c-3.7-3.7-3.7-9.8,0-13.5c3.7-3.7,9.8-3.7,13.5,0c3.7,3.7,3.7,9.8,0,13.5
	C576.1,143.3,573.7,144.2,571.1,144.2z M571.1,131.7c-0.8,0-1.6,0.3-2.2,0.8c-1.2,1.2-1.2,3.1,0,4.2c0.6,0.6,1.3,0.8,2.2,0.8
	s1.6-0.3,2.2-0.8c1.2-1.2,1.2-3.1,0-4.2C572.7,132,571.9,131.7,571.1,131.7z"/>
<path class="st13" d="M606.3,84.3h-2.1v-2.1c0-1.8-1.4-3.3-3.3-3.3s-3.3,1.4-3.3,3.3v2.1h-2.1c-1.8,0-3.3,1.4-3.3,3.3
	s1.4,3.3,3.3,3.3h2.1v2.1c0,1.8,1.4,3.3,3.3,3.3s3.3-1.4,3.3-3.3v-2.1h2.1c1.8,0,3.3-1.4,3.3-3.3S608.1,84.3,606.3,84.3z"/>
<path class="st13" d="M660.4,322.8h-2.1v-2.1c0-1.8-1.4-3.3-3.3-3.3c-1.8,0-3.3,1.4-3.3,3.3v2.1h-2.1c-1.8,0-3.3,1.4-3.3,3.3
	s1.4,3.3,3.3,3.3h2.1v2.1c0,1.8,1.4,3.3,3.3,3.3c1.8,0,3.3-1.4,3.3-3.3v-2.1h2.1c1.8,0,3.3-1.4,3.3-3.3S662.3,322.8,660.4,322.8z"/>
<path class="st13" d="M517.8,356.4h-2.1v-2.1c0-1.8-1.4-3.3-3.3-3.3c-1.8,0-3.3,1.4-3.3,3.3v2.1h-2.1c-1.8,0-3.3,1.4-3.3,3.3
	c0,1.8,1.4,3.3,3.3,3.3h2.1v2.1c0,1.8,1.4,3.3,3.3,3.3c1.8,0,3.3-1.4,3.3-3.3v-2.1h2.1c1.8,0,3.3-1.4,3.3-3.3
	C521,357.8,519.5,356.4,517.8,356.4z"/>
<path class="st12" d="M1426.7,358.3c-2,0-4-0.7-5.4-2.3c-3-3-3-7.9,0-10.9c3-3,7.9-3,10.9,0c3,3,3,7.9,0,10.9
	C1430.7,357.5,1428.7,358.3,1426.7,358.3L1426.7,358.3z M1426.7,348.1c-0.6,0-1.3,0.2-1.7,0.7c-1,1-1,2.5,0,3.4c1,1,2.5,1,3.4,0
	c1-1,1-2.5,0-3.4C1428,348.3,1427.4,348.1,1426.7,348.1L1426.7,348.1z"/>
<path class="st12" d="M1322.8,152c-2.1,0-4-0.8-5.4-2.3c-3-3-3-7.9,0-10.9s7.9-3,10.9,0s3,7.9,0,10.9
	C1326.9,151.2,1324.9,152,1322.8,152z M1322.8,141.8c-0.6,0-1.3,0.2-1.7,0.7c-1,1-1,2.5,0,3.4c0.5,0.5,1.1,0.7,1.7,0.7
	s1.3-0.3,1.7-0.7c1-1,1-2.5,0-3.4C1324.1,142,1323.5,141.8,1322.8,141.8z"/>
<path class="st13" d="M1362.8,110.9h-1.7v-1.7c0-1.5-1.2-2.6-2.6-2.6s-2.6,1.2-2.6,2.6v1.7h-1.7c-1.5,0-2.6,1.2-2.6,2.6
	c0,1.5,1.2,2.6,2.6,2.6h1.7v1.7c0,1.5,1.2,2.6,2.6,2.6s2.6-1.2,2.6-2.6v-1.7h1.7c1.5,0,2.6-1.2,2.6-2.6
	C1365.4,112,1364.2,110.9,1362.8,110.9z"/>
<path class="st13" d="M1406.6,331.5h-1.7v-1.7c0-1.5-1.2-2.6-2.6-2.6s-2.6,1.2-2.6,2.6v1.7h-1.7c-1.5,0-2.6,1.2-2.6,2.6
	c0,1.5,1.2,2.6,2.6,2.6h1.7v1.7c0,1.5,1.2,2.6,2.6,2.6s2.6-1.2,2.6-2.6v-1.7h1.7c1.5,0,2.6-1.2,2.6-2.6
	C1409.3,332.7,1408.1,331.5,1406.6,331.5z"/>
<path class="st13" d="M1290.9,331.5h-1.7v-1.7c0-1.5-1.2-2.6-2.6-2.6c-1.5,0-2.6,1.2-2.6,2.6v1.7h-1.7c-1.5,0-2.6,1.2-2.6,2.6
	c0,1.5,1.2,2.6,2.6,2.6h1.7v1.7c0,1.5,1.2,2.6,2.6,2.6c1.5,0,2.6-1.2,2.6-2.6v-1.7h1.7c1.5,0,2.6-1.2,2.6-2.6
	C1293.6,332.7,1292.4,331.5,1290.9,331.5z"/>
<g>
	<g>
		<path class="st6" d="M163,51c-5,5-9.3,10.4-12.9,16.1l29-29L163,51z"/>
		<path class="st6" d="M223.5,23.3l-88.2,88.2l0.3-3.5L220,23.6C221.2,23.5,222.3,23.4,223.5,23.3z"/>
		<polygon class="st6" points="248.5,24.7 136.7,136.5 137.3,139.1 251.1,25.3 		"/>
		<polygon class="st6" points="271,32 144,159 145,161.1 273.1,33 		"/>
		<polygon class="st6" points="289.3,43.3 155.3,177.3 156.7,179.1 291.1,44.7 		"/>
		<polygon class="st6" points="304.3,57.9 169.9,192.3 171.7,193.7 305.7,59.7 		"/>
		<polygon class="st6" points="316,75.9 187.9,204 190,205 317,78 		"/>
		<polygon class="st6" points="323.7,97.9 209.9,211.7 212.4,212.3 324.3,100.4 		"/>
		<polygon class="st6" points="325.7,125.5 237.5,213.7 241,213.4 325.4,129 		"/>
		<polygon class="st6" points="298,186 282,199 311,170 		"/>
	</g>
</g>
</svg>
