<?xml version="1.0" encoding="utf-8"?>
<!-- Generator: Adobe Illustrator 24.0.3, SVG Export Plug-In . SVG Version: 6.00 Build 0)  -->
<svg version="1.1" id="Capa_1" xmlns="http://www.w3.org/2000/svg" xmlns:xlink="http://www.w3.org/1999/xlink" x="0px" y="0px"
	 viewBox="0 0 1920 400" style="enable-background:new 0 0 1920 400;" xml:space="preserve">
<style type="text/css">
	.st0{fill:#FFFFFF;}
	.st1{opacity:0.21;fill:#9A58B4;enable-background:new    ;}
	.st2{opacity:0.25;fill:#8B3EAF;enable-background:new    ;}
	.st3{fill:#CEC3FC;fill-opacity:0.21;}
	.st4{fill:#CEC3FC;fill-opacity:0.31;}
	.st5{fill:#1BBB9A;}
	.st6{fill:#32B196;}
	.st7{fill:#8F599F;}
	.st8{fill:#E1D7FF;}
	.st9{opacity:0.2;fill:#1BBB9A;}
	.st10{opacity:0.4;fill:#1BBB9A;}
</style>
<title>bannerVerde</title>
<g id="Capa_2_1_">
	<g id="Capa_1-2">
		<rect class="st0" width="1920" height="400"/>
	</g>
</g>
<path class="st1" d="M1627.5,168.7c198.5,150,303.6,63.4,355.5-22.5V0h-850.3C1250.8,259.7,1469.3,49.1,1627.5,168.7z"/>
<path class="st2" d="M1920,0v309.4c-154.8-40.5-155.6-239.4-406.1-217c-167.9,15.1-257-42.8-288.3-92.4C1225.6,0,1920,0,1920,0z"/>
<path class="st3" d="M739.8,293.2c-279.9-91.3-573.9-60.8-739.8-30V400h1961.6C1783.5,233.6,1144.9,425.4,739.8,293.2z"/>
<path class="st4" d="M558.1,300.6C318.4,231.2,130.9,216,0,219.3V400h1565.8C1233.9,301.3,978.4,422.4,558.1,300.6z"/>
<g>
	<g>
		<g>
			<path class="st0" d="M1892.9,22.2c0-1.3,1.1-2.4,2.4-2.4s2.4,1.1,2.4,2.4s-1.1,2.4-2.4,2.4S1892.9,23.5,1892.9,22.2z"/>
			<path class="st0" d="M1892.9,42.1c0-1.3,1.1-2.4,2.4-2.4s2.4,1.1,2.4,2.4c0,1.3-1.1,2.4-2.4,2.4S1892.9,43.5,1892.9,42.1z"/>
			<path class="st0" d="M1892.9,62.1c0-1.3,1.1-2.4,2.4-2.4s2.4,1.1,2.4,2.4c0,1.3-1.1,2.4-2.4,2.4S1892.9,63.4,1892.9,62.1z"/>
			<path class="st0" d="M1892.9,82.1c0-1.3,1.1-2.4,2.4-2.4s2.4,1.1,2.4,2.4s-1.1,2.4-2.4,2.4S1892.9,83.4,1892.9,82.1z"/>
			<path class="st0" d="M1892.9,102c0-1.3,1.1-2.4,2.4-2.4s2.4,1.1,2.4,2.4s-1.1,2.4-2.4,2.4S1892.9,103.4,1892.9,102z"/>
			<path class="st0" d="M1892.9,122c0-1.3,1.1-2.4,2.4-2.4s2.4,1.1,2.4,2.4s-1.1,2.4-2.4,2.4S1892.9,123.3,1892.9,122z"/>
			<path class="st0" d="M1892.9,142c0-1.3,1.1-2.4,2.4-2.4s2.4,1.1,2.4,2.4c0,1.3-1.1,2.4-2.4,2.4S1892.9,143.3,1892.9,142z"/>
			<path class="st0" d="M1892.9,161.9c0-1.3,1.1-2.4,2.4-2.4s2.4,1.1,2.4,2.4s-1.1,2.4-2.4,2.4S1892.9,163.3,1892.9,161.9z"/>
		</g>
		<g>
			<path class="st0" d="M1872.2,22.2c0-1.3,1.1-2.4,2.4-2.4s2.4,1.1,2.4,2.4s-1.1,2.4-2.4,2.4S1872.2,23.5,1872.2,22.2z"/>
			<path class="st0" d="M1872.2,42.1c0-1.3,1.1-2.4,2.4-2.4s2.4,1.1,2.4,2.4c0,1.3-1.1,2.4-2.4,2.4S1872.2,43.5,1872.2,42.1z"/>
			<path class="st0" d="M1872.2,62.1c0-1.3,1.1-2.4,2.4-2.4s2.4,1.1,2.4,2.4c0,1.3-1.1,2.4-2.4,2.4S1872.2,63.4,1872.2,62.1z"/>
			<path class="st0" d="M1872.2,82.1c0-1.3,1.1-2.4,2.4-2.4s2.4,1.1,2.4,2.4s-1.1,2.4-2.4,2.4S1872.2,83.4,1872.2,82.1z"/>
			<circle class="st0" cx="1874.6" cy="102" r="2.4"/>
			<circle class="st0" cx="1874.6" cy="122" r="2.4"/>
			<circle class="st0" cx="1874.6" cy="142" r="2.4"/>
			<circle class="st0" cx="1874.6" cy="161.9" r="2.4"/>
		</g>
		<g>
			<path class="st0" d="M1851.4,22.2c0-1.3,1.1-2.4,2.4-2.4s2.4,1.1,2.4,2.4s-1.1,2.4-2.4,2.4S1851.4,23.5,1851.4,22.2z"/>
			<path class="st0" d="M1851.4,42.1c0-1.3,1.1-2.4,2.4-2.4s2.4,1.1,2.4,2.4c0,1.3-1.1,2.4-2.4,2.4S1851.4,43.5,1851.4,42.1z"/>
			<path class="st0" d="M1851.4,62.1c0-1.3,1.1-2.4,2.4-2.4s2.4,1.1,2.4,2.4c0,1.3-1.1,2.4-2.4,2.4S1851.4,63.4,1851.4,62.1z"/>
			<path class="st0" d="M1851.4,82.1c0-1.3,1.1-2.4,2.4-2.4s2.4,1.1,2.4,2.4s-1.1,2.4-2.4,2.4S1851.4,83.4,1851.4,82.1z"/>
			<circle class="st0" cx="1853.8" cy="102" r="2.4"/>
			<circle class="st0" cx="1853.8" cy="122" r="2.4"/>
			<circle class="st0" cx="1853.8" cy="142" r="2.4"/>
			<circle class="st0" cx="1853.8" cy="161.9" r="2.4"/>
		</g>
		<g>
			<path class="st0" d="M1830.6,22.2c0-1.3,1.1-2.4,2.4-2.4s2.4,1.1,2.4,2.4s-1.1,2.4-2.4,2.4S1830.6,23.5,1830.6,22.2z"/>
			<path class="st0" d="M1830.6,42.1c0-1.3,1.1-2.4,2.4-2.4s2.4,1.1,2.4,2.4c0,1.3-1.1,2.4-2.4,2.4S1830.6,43.5,1830.6,42.1z"/>
			<path class="st0" d="M1830.6,62.1c0-1.3,1.1-2.4,2.4-2.4s2.4,1.1,2.4,2.4c0,1.3-1.1,2.4-2.4,2.4S1830.6,63.4,1830.6,62.1z"/>
			<path class="st0" d="M1830.6,82.1c0-1.3,1.1-2.4,2.4-2.4s2.4,1.1,2.4,2.4s-1.1,2.4-2.4,2.4S1830.6,83.4,1830.6,82.1z"/>
			<circle class="st0" cx="1833" cy="102" r="2.4"/>
			<circle class="st0" cx="1833" cy="122" r="2.4"/>
			<circle class="st0" cx="1833" cy="142" r="2.4"/>
			<circle class="st0" cx="1833" cy="161.9" r="2.4"/>
		</g>
	</g>
</g>
<g>
	<g>
		<g>
			<path class="st0" d="M151.9,353.5c1.3,0,2.4,1.1,2.4,2.4s-1.1,2.4-2.4,2.4c-1.3,0-2.4-1.1-2.4-2.4S150.6,353.5,151.9,353.5z"/>
			<path class="st0" d="M131.9,353.5c1.3,0,2.4,1.1,2.4,2.4s-1.1,2.4-2.4,2.4c-1.3,0-2.4-1.1-2.4-2.4S130.6,353.5,131.9,353.5z"/>
			<path class="st0" d="M112,353.5c1.3,0,2.4,1.1,2.4,2.4s-1.1,2.4-2.4,2.4s-2.4-1.1-2.4-2.4S110.6,353.5,112,353.5z"/>
			<path class="st0" d="M92,353.5c1.3,0,2.4,1.1,2.4,2.4s-1.1,2.4-2.4,2.4s-2.4-1.1-2.4-2.4S90.7,353.5,92,353.5z"/>
			<path class="st0" d="M72,353.5c1.3,0,2.4,1.1,2.4,2.4s-1.1,2.4-2.4,2.4s-2.4-1.1-2.4-2.4S70.7,353.5,72,353.5z"/>
			<path class="st0" d="M52.1,353.5c1.3,0,2.4,1.1,2.4,2.4s-1.1,2.4-2.4,2.4c-1.3,0-2.4-1.1-2.4-2.4
				C49.7,354.6,50.8,353.5,52.1,353.5z"/>
			<path class="st0" d="M32.1,353.5c1.3,0,2.4,1.1,2.4,2.4s-1.1,2.4-2.4,2.4c-1.3,0-2.4-1.1-2.4-2.4
				C29.7,354.6,30.8,353.5,32.1,353.5z"/>
			<path class="st0" d="M12.2,353.5c1.3,0,2.4,1.1,2.4,2.4s-1.1,2.4-2.4,2.4s-2.4-1.1-2.4-2.4C9.7,354.6,10.8,353.5,12.2,353.5z"/>
		</g>
		<g>
			<path class="st0" d="M151.9,332.7c1.3,0,2.4,1.1,2.4,2.4s-1.1,2.4-2.4,2.4c-1.3,0-2.4-1.1-2.4-2.4
				C149.5,333.8,150.6,332.7,151.9,332.7z"/>
			<path class="st0" d="M131.9,332.7c1.3,0,2.4,1.1,2.4,2.4s-1.1,2.4-2.4,2.4c-1.3,0-2.4-1.1-2.4-2.4
				C129.5,333.8,130.6,332.7,131.9,332.7z"/>
			<path class="st0" d="M112,332.7c1.3,0,2.4,1.1,2.4,2.4s-1.1,2.4-2.4,2.4s-2.4-1.1-2.4-2.4C109.6,333.8,110.6,332.7,112,332.7z"/>
			<path class="st0" d="M92,332.7c1.3,0,2.4,1.1,2.4,2.4s-1.1,2.4-2.4,2.4s-2.4-1.1-2.4-2.4C89.6,333.8,90.7,332.7,92,332.7z"/>
			<circle class="st0" cx="72" cy="335.1" r="2.4"/>
			<circle class="st0" cx="52.1" cy="335.1" r="2.4"/>
			<circle class="st0" cx="32.1" cy="335.1" r="2.4"/>
			<circle class="st0" cx="12.2" cy="335.1" r="2.4"/>
		</g>
		<g>
			<path class="st0" d="M151.9,311.9c1.3,0,2.4,1.1,2.4,2.4s-1.1,2.4-2.4,2.4c-1.3,0-2.4-1.1-2.4-2.4S150.6,311.9,151.9,311.9z"/>
			<path class="st0" d="M131.9,311.9c1.3,0,2.4,1.1,2.4,2.4s-1.1,2.4-2.4,2.4c-1.3,0-2.4-1.1-2.4-2.4S130.6,311.9,131.9,311.9z"/>
			<path class="st0" d="M112,311.9c1.3,0,2.4,1.1,2.4,2.4s-1.1,2.4-2.4,2.4s-2.4-1.1-2.4-2.4S110.6,311.9,112,311.9z"/>
			<path class="st0" d="M92,311.9c1.3,0,2.4,1.1,2.4,2.4s-1.1,2.4-2.4,2.4s-2.4-1.1-2.4-2.4S90.7,311.9,92,311.9z"/>
			<circle class="st0" cx="72" cy="314.4" r="2.4"/>
			<circle class="st0" cx="52.1" cy="314.4" r="2.4"/>
			<circle class="st0" cx="32.1" cy="314.4" r="2.4"/>
			<circle class="st0" cx="12.2" cy="314.4" r="2.4"/>
		</g>
		<g>
			<path class="st0" d="M151.9,291.2c1.3,0,2.4,1.1,2.4,2.4s-1.1,2.4-2.4,2.4c-1.3,0-2.4-1.1-2.4-2.4S150.6,291.2,151.9,291.2z"/>
			<path class="st0" d="M131.9,291.2c1.3,0,2.4,1.1,2.4,2.4s-1.1,2.4-2.4,2.4c-1.3,0-2.4-1.1-2.4-2.4S130.6,291.2,131.9,291.2z"/>
			<path class="st0" d="M112,291.2c1.3,0,2.4,1.1,2.4,2.4s-1.1,2.4-2.4,2.4s-2.4-1.1-2.4-2.4S110.6,291.2,112,291.2z"/>
			<path class="st0" d="M92,291.2c1.3,0,2.4,1.1,2.4,2.4S93.3,296,92,296s-2.4-1.1-2.4-2.4S90.7,291.2,92,291.2z"/>
			<circle class="st0" cx="72" cy="293.6" r="2.4"/>
			<circle class="st0" cx="52.1" cy="293.6" r="2.4"/>
			<circle class="st0" cx="32.1" cy="293.6" r="2.4"/>
			<circle class="st0" cx="12.2" cy="293.6" r="2.4"/>
		</g>
	</g>
</g>
<g>
	<path class="st5" d="M1536.3,319.7c-5.7,0-8.5-5.1-10.9-9.7c-2.2-4.2-4.4-8.1-8.3-8.1s-6,3.9-8.3,8.1c-2.4,4.5-5.2,9.7-10.9,9.7
		c-5.7,0-8.4-5.1-10.9-9.7c-2.2-4.2-4.4-8.1-8.3-8.1s-6,3.9-8.3,8.1c-2.4,4.5-5.2,9.7-10.9,9.7c-5.7,0-8.4-5.1-10.9-9.7
		c-2.2-4.2-4.4-8.1-8.3-8.1c-0.8,0-1.5-0.7-1.5-1.5s0.7-1.5,1.5-1.5c5.7,0,8.4,5.1,10.9,9.7c2.2,4.2,4.4,8.1,8.3,8.1s6-3.9,8.3-8.1
		c2.4-4.5,5.2-9.7,10.9-9.7c5.7,0,8.4,5.1,10.9,9.7c2.2,4.2,4.4,8.1,8.3,8.1s6-3.9,8.3-8.1c2.4-4.5,5.2-9.7,10.9-9.7
		c5.7,0,8.5,5.1,10.9,9.7c2.2,4.2,4.4,8.1,8.3,8.1s6-3.9,8.3-8.1c2.4-4.5,5.2-9.7,10.9-9.7c0.8,0,1.5,0.7,1.5,1.5s-0.7,1.5-1.5,1.5
		c-3.9,0-6,3.9-8.3,8.1C1544.7,314.5,1542,319.7,1536.3,319.7z"/>
</g>
<path class="st6" d="M1027.4,110.1c-2.5,0-5-1-6.7-2.8c-3.7-3.7-3.7-9.8,0-13.5c3.7-3.7,9.8-3.7,13.5,0s3.7,9.8,0,13.5
	C1032.4,109.2,1030,110.1,1027.4,110.1z M1027.4,97.6c-0.8,0-1.6,0.3-2.2,0.8c-1.2,1.2-1.2,3.1,0,4.2c0.6,0.6,1.3,0.8,2.2,0.8
	c0.9,0,1.6-0.3,2.2-0.8c1.2-1.2,1.2-3.1,0-4.2C1029,97.9,1028.2,97.6,1027.4,97.6z"/>
<path class="st7" d="M1062.6,50.2h-2.1v-2.1c0-1.8-1.4-3.3-3.3-3.3c-1.9,0-3.3,1.4-3.3,3.3v2.1h-2.1c-1.8,0-3.3,1.4-3.3,3.3
	s1.4,3.3,3.3,3.3h2.1v2.1c0,1.8,1.4,3.3,3.3,3.3c1.9,0,3.3-1.4,3.3-3.3v-2.1h2.1c1.8,0,3.3-1.4,3.3-3.3S1064.4,50.2,1062.6,50.2z"/>
<path class="st7" d="M974.1,322.3H972v-2.1c0-1.8-1.4-3.3-3.3-3.3c-1.8,0-3.3,1.4-3.3,3.3v2.1h-2.1c-1.8,0-3.3,1.4-3.3,3.3
	c0,1.8,1.4,3.3,3.3,3.3h2.1v2.1c0,1.8,1.4,3.3,3.3,3.3c1.8,0,3.3-1.4,3.3-3.3v-2.1h2.1c1.8,0,3.3-1.4,3.3-3.3
	C977.3,323.7,975.8,322.3,974.1,322.3z"/>
<path class="st6" d="M1426.7,358.3c-2,0-4-0.7-5.4-2.3c-3-3-3-7.9,0-10.9s7.9-3,10.9,0s3,7.9,0,10.9
	C1430.7,357.5,1428.7,358.3,1426.7,358.3L1426.7,358.3z M1426.7,348.1c-0.6,0-1.3,0.2-1.7,0.7c-1,1-1,2.5,0,3.4c1,1,2.5,1,3.4,0
	c1-1,1-2.5,0-3.4C1428,348.3,1427.4,348.1,1426.7,348.1L1426.7,348.1z"/>
<path class="st6" d="M1322.8,152c-2.1,0-4-0.8-5.4-2.3c-3-3-3-7.9,0-10.9s7.9-3,10.9,0s3,7.9,0,10.9
	C1326.9,151.2,1324.9,152,1322.8,152z M1322.8,141.8c-0.6,0-1.3,0.2-1.7,0.7c-1,1-1,2.5,0,3.4c0.5,0.5,1.1,0.7,1.7,0.7
	s1.3-0.3,1.7-0.7c1-1,1-2.5,0-3.4C1324.1,142,1323.5,141.8,1322.8,141.8z"/>
<path class="st7" d="M1362.8,110.9h-1.7v-1.7c0-1.5-1.2-2.6-2.6-2.6s-2.6,1.2-2.6,2.6v1.7h-1.7c-1.5,0-2.6,1.2-2.6,2.6
	c0,1.5,1.2,2.6,2.6,2.6h1.7v1.7c0,1.5,1.2,2.6,2.6,2.6s2.6-1.2,2.6-2.6v-1.7h1.7c1.5,0,2.6-1.2,2.6-2.6
	C1365.4,112,1364.2,110.9,1362.8,110.9z"/>
<path class="st7" d="M1406.6,331.5h-1.7v-1.7c0-1.5-1.2-2.6-2.6-2.6s-2.6,1.2-2.6,2.6v1.7h-1.7c-1.5,0-2.6,1.2-2.6,2.6
	c0,1.5,1.2,2.6,2.6,2.6h1.7v1.7c0,1.5,1.2,2.6,2.6,2.6s2.6-1.2,2.6-2.6v-1.7h1.7c1.5,0,2.6-1.2,2.6-2.6
	C1409.3,332.7,1408.1,331.5,1406.6,331.5z"/>
<path class="st7" d="M1200.4,291h-1.7v-1.7c0-1.5-1.2-2.6-2.6-2.6c-1.5,0-2.6,1.2-2.6,2.6v1.7h-1.7c-1.5,0-2.6,1.2-2.6,2.6
	c0,1.5,1.2,2.6,2.6,2.6h1.7v1.7c0,1.5,1.2,2.6,2.6,2.6c1.5,0,2.6-1.2,2.6-2.6v-1.7h1.7c1.5,0,2.6-1.2,2.6-2.6
	C1203.1,292.2,1201.9,291,1200.4,291z"/>
<g>
	<g>
		<path class="st8" d="M1423.1,88.1c-5,5-9.3,10.4-12.9,16.1l29-29L1423.1,88.1z"/>
		<path class="st8" d="M1483.6,60.4l-88.2,88.2l0.3-3.5l84.4-84.4C1481.3,60.6,1482.4,60.5,1483.6,60.4z"/>
		<polygon class="st8" points="1508.6,61.8 1396.8,173.6 1397.4,176.2 1511.2,62.4 		"/>
		<polygon class="st8" points="1531.1,69.1 1404.1,196.1 1405.1,198.2 1533.2,70.1 		"/>
		<polygon class="st8" points="1549.4,80.4 1415.4,214.4 1416.8,216.2 1551.2,81.8 		"/>
		<polygon class="st8" points="1564.4,95 1430,229.4 1431.8,230.8 1565.8,96.8 		"/>
		<polygon class="st8" points="1576.1,113 1448,241.1 1450.1,242.1 1577.1,115.1 		"/>
		<polygon class="st8" points="1583.8,135 1470,248.8 1472.5,249.4 1584.4,137.5 		"/>
		<polygon class="st8" points="1585.8,162.6 1497.6,250.8 1501.1,250.5 1585.5,166.1 		"/>
		<polygon class="st8" points="1558.1,223.1 1542.1,236.1 1571.1,207.1 		"/>
	</g>
</g>
<path class="st9" d="M-28.5-34.7v463.5h505.3c0,0,513.9-136.3,627.2-457.2L-28.5-34.7z"/>
<path class="st10" d="M-103.4-17.1v463.5h505.3c0,0,513.9-136.3,627.2-457.2L-103.4-17.1z"/>
<g>
	<g>
		<path class="st8" d="M1059.7,124.5c-2.4,2.4-4.4,4.9-6.1,7.6l13.7-13.7L1059.7,124.5z"/>
		<path class="st8" d="M1088.2,111.5l-41.6,41.6l0.1-1.6l39.8-39.8C1087.1,111.6,1087.6,111.5,1088.2,111.5z"/>
		<polygon class="st8" points="1100,112.1 1047.3,164.8 1047.6,166.1 1101.2,112.4 		"/>
		<polygon class="st8" points="1110.6,115.6 1050.7,175.4 1051.2,176.4 1111.6,116 		"/>
		<polygon class="st8" points="1119.2,120.9 1056.1,184.1 1056.7,184.9 1120.1,121.6 		"/>
		<polygon class="st8" points="1126.3,127.8 1062.9,191.1 1063.8,191.8 1127,128.6 		"/>
		<polygon class="st8" points="1131.8,136.3 1071.4,196.6 1072.4,197.1 1132.3,137.2 		"/>
		<polygon class="st8" points="1135.5,146.6 1081.8,200.3 1083,200.6 1135.7,147.8 		"/>
		<polygon class="st8" points="1136.4,159.6 1094.8,201.2 1096.5,201.1 1136.3,161.3 		"/>
		<polygon class="st8" points="1123.3,188.2 1115.8,194.3 1129.5,180.6 		"/>
	</g>
</g>
</svg>
