<svg id="Capa_1" enable-background="new 0 0 512 512" height="512" viewBox="0 0 512 512" width="512" xmlns="http://www.w3.org/2000/svg" xmlns:xlink="http://www.w3.org/1999/xlink"><linearGradient id="SVGID_1_" gradientUnits="userSpaceOnUse" x1="503.472" x2="20.423" y1="540.362" y2="-14.694"><stop offset="0" stop-color="#ffa052"/><stop offset="1" stop-color="#fff" stop-opacity="0"/></linearGradient><g><path d="m500.574 200.6c7.18-16.204 11.241-34.098 11.419-52.921.684-71.971-56.211-132.099-128.121-135.166-23.591-1.006-45.905 4.091-65.495 13.843-39.321 19.575-85.436 19.575-124.757 0-19.589-9.752-41.903-14.849-65.494-13.843-71.908 3.068-128.803 63.194-128.12 135.166.179 18.823 4.239 36.717 11.419 52.921 15.628 35.269 15.628 75.53 0 110.8-7.18 16.204-11.241 34.099-11.419 52.922-.683 71.972 56.212 132.098 128.122 135.165 23.591 1.006 45.905-4.091 65.494-13.843 39.321-19.575 85.435-19.575 124.755 0 19.589 9.752 41.904 14.849 65.495 13.843 71.909-3.067 128.804-63.194 128.121-135.165-.179-18.823-4.239-36.717-11.419-52.921-15.628-35.271-15.628-75.532 0-110.801z" fill="url(#SVGID_1_)"/><g><path d="m437.044 123.242h-362.088c-8.284 0-15 6.716-15 15v209.944c0 8.284 6.716 15 15 15h111.481v11.179c0 5.523 4.477 10 10 10h20.883v56h-39.353c-5.631 0-10.196 4.565-10.196 10.196s4.565 10.197 10.196 10.197h156.065c5.631 0 10.196-4.565 10.196-10.197s-4.565-10.196-10.196-10.196h-39.352v-56h20.883c5.523 0 10-4.477 10-10v-11.179h111.481c8.284 0 15-6.716 15-15v-209.944c0-8.284-6.716-15-15-15z" fill="#590bb2" opacity=".1"/><path d="m116.005 388.352h-3v-3c0-2.761-2.238-5-5-5s-5 2.239-5 5v3h-3c-2.762 0-5 2.239-5 5s2.238 5 5 5h3v3c0 2.761 2.238 5 5 5s5-2.239 5-5v-3h3c2.762 0 5-2.239 5-5s-2.238-5-5-5z" fill="#ffa052"/><path d="m100.005 48.2h-3v-3c0-2.761-2.238-5-5-5s-5 2.239-5 5v3h-3c-2.762 0-5 2.239-5 5s2.238 5 5 5h3v3c0 2.761 2.238 5 5 5s5-2.239 5-5v-3h3c2.762 0 5-2.239 5-5s-2.238-5-5-5z" fill="#fdd250"/><path d="m152.218 56.2h-3v-3c0-2.761-2.238-5-5-5s-5 2.239-5 5v3h-3c-2.762 0-5 2.239-5 5s2.238 5 5 5h3v3c0 2.761 2.238 5 5 5s5-2.239 5-5v-3h3c2.762 0 5-2.239 5-5s-2.239-5-5-5z" fill="#fdd250"/><path d="m144.218 374.684c-1.279 0-2.56-.488-3.535-1.464l-4.465-4.464-4.465 4.464c-1.951 1.952-5.119 1.952-7.07 0-1.953-1.953-1.953-5.119 0-7.071l8-8c1.951-1.952 5.119-1.952 7.07 0l8 8c1.953 1.953 1.953 5.119 0 7.071-.976.975-2.256 1.464-3.535 1.464z" fill="#c182f9"/><path d="m421.54 402.352c-1.279 0-2.56-.488-3.535-1.464l-4.465-4.464-4.465 4.464c-1.951 1.952-5.119 1.952-7.07 0-1.953-1.953-1.953-5.119 0-7.071l8-8c1.951-1.952 5.119-1.952 7.07 0l8 8c1.953 1.953 1.953 5.119 0 7.071-.975.975-2.256 1.464-3.535 1.464z" fill="#c182f9"/><g><path d="m217.32 327.635h77.36v99.06h-77.36z" fill="#efebff"/><path d="m217.32 327.635h77.36v46.05h-77.36z" fill="#e2ccff"/><path d="m315.563 357.365h-119.126c-5.523 0-10-4.477-10-10v-22.648h139.125v22.648c.001 5.523-4.477 10-9.999 10z" fill="#ffa052"/><g><path d="m437.044 336.186h-362.088c-8.284 0-15-6.716-15-15v-209.944c0-8.284 6.716-15 15-15h362.088c8.284 0 15 6.716 15 15v209.944c0 8.284-6.716 15-15 15z" fill="#c182f9"/><g><path d="m452.042 295.79h-392.086v-184.548c0-8.284 6.716-15 15-15h362.086c8.284 0 15 6.716 15 15z" fill="#fff"/><g><path d="m148.392 176.482-13.312-9.069-13.312 9.069c-3.319 2.261-7.815-.116-7.815-4.132v-61.617h42.255v61.617c-.001 4.016-4.497 6.393-7.816 4.132z" fill="#f7f3ff"/><path d="m148.392 161.991-13.312-9.069-13.312 9.069c-3.319 2.261-7.815-.116-7.815-4.132v-61.617h42.255v61.617c-.001 4.016-4.497 6.394-7.816 4.132z" fill="#ffa052"/></g><g><path d="m313.951 110.568c0-3.811 3.301-7.702 9.903-11.661 1.713-.987 3.494-1.872 5.331-2.665h-32.623c-13.192 11.026-19.794 23.061-19.794 36.105 0 7.782 2.45 14.156 7.373 19.148 4.912 4.98 11.037 7.475 18.365 7.475 6.897 0 12.466-2.087 16.72-6.273 4.254-4.174 6.386-9.562 6.386-16.164 0-4.549-2.133-9.755-6.386-15.62-3.516-4.696-5.275-8.144-5.275-10.345zm132.002 153.349c-3.233-4.696-4.844-12.024-4.844-22.006v-112.638c0-12.557-4.367-23.56-13.101-33.031h-46.87c3.539 1.758 6.806 3.97 9.812 6.624 8.95 7.929 13.419 17.457 13.419 28.608v31.239c-41.8 4.696-75.274 14.122-100.433 28.267-25.148 14.156-37.728 31.943-37.728 53.359 0 14.224 5.501 25.885 16.504 34.971 10.992 9.097 27.054 13.646 48.175 13.646 14.814 0 27.507-2.461 38.068-7.373s22.8-14.701 36.741-29.368c5.127 13.635 11.105 23.174 17.922 28.596 6.829 5.433 15.223 8.144 25.193 8.144 1.089 0 2.167-.034 3.233-.125v-23.174c-2.314-1.201-4.344-3.118-6.091-5.739zm-41.585-57.203c0 19.805-6.341 36.264-19.023 49.388-12.693 13.135-27.689 19.692-44.999 19.692-9.676 0-17.525-3.187-23.537-9.574-6.012-6.375-9.018-15.211-9.018-26.509 0-16.13 5.785-28.596 17.378-37.399 15.54-11.581 41.947-19.941 79.198-25.08v29.482z" fill="#ffeadc"/></g></g></g><g><g><g><g><path d="m400.54 172.557h-175.52c-2.762 0-5-2.239-5-5s2.238-5 5-5h175.52c2.762 0 5 2.239 5 5s-2.238 5-5 5z" fill="#ffa052"/></g><g><path d="m400.54 192.06h-175.52c-2.762 0-5-2.239-5-5s2.238-5 5-5h175.52c2.762 0 5 2.239 5 5s-2.238 5-5 5z" fill="#ffa052"/></g><g><path d="m400.54 211.563h-175.52c-2.762 0-5-2.239-5-5s2.238-5 5-5h175.52c2.762 0 5 2.239 5 5s-2.238 5-5 5z" fill="#ffa052"/></g><g><path d="m400.54 231.065h-175.52c-2.762 0-5-2.239-5-5s2.238-5 5-5h175.52c2.762 0 5 2.239 5 5s-2.238 5-5 5z" fill="#ffa052"/></g><g><path d="m400.54 250.568h-175.52c-2.762 0-5-2.239-5-5s2.238-5 5-5h175.52c2.762 0 5 2.239 5 5s-2.238 5-5 5z" fill="#ffa052"/></g><g><path d="m400.54 260.071c2.762 0 5 2.239 5 5s-2.238 5-5 5h-175.52c-2.762 0-5-2.239-5-5s2.238-5 5-5z" fill="#ffa052"/></g></g><g><g><g><path d="m160.978 217.563h-49.52c-2.762 0-5-2.239-5-5s2.238-5 5-5h49.52c2.762 0 5 2.239 5 5s-2.239 5-5 5z" fill="#c182f9"/></g><g><path d="m187.978 235.065h-76.52c-2.762 0-5-2.239-5-5s2.238-5 5-5h76.52c2.762 0 5 2.239 5 5s-2.239 5-5 5z" fill="#c182f9"/></g></g><g><g><path d="m187.978 252.568h-76.52c-2.762 0-5-2.239-5-5s2.238-5 5-5h76.52c2.762 0 5 2.239 5 5s-2.239 5-5 5z" fill="#c182f9"/></g><g><path d="m187.978 270.071h-76.52c-2.762 0-5-2.239-5-5s2.238-5 5-5h76.52c2.762 0 5 2.239 5 5s-2.239 5-5 5z" fill="#c182f9"/></g></g><g fill="#c182f9"><circle cx="113.005" cy="194.512" r="5"/><circle cx="129.255" cy="194.512" r="5"/></g></g></g><g><path d="m235.999 141.063c-1.279 0-2.559-.488-3.535-1.464l-2.299-2.298-2.297 2.297c-1.953 1.953-5.118 1.953-7.071 0s-1.953-5.118-.001-7.071l5.833-5.833c.938-.938 2.21-1.465 3.536-1.465s2.598.527 3.535 1.464l5.834 5.833c1.953 1.953 1.953 5.118.001 7.071-.976.978-2.257 1.466-3.536 1.466z" fill="#ffc136"/></g></g><path d="m334.033 433.758h-156.066c-5.631 0-10.196-4.565-10.196-10.196 0-5.631 4.565-10.196 10.196-10.196h156.065c5.631 0 10.196 4.565 10.196 10.196.001 5.631-4.564 10.196-10.195 10.196z" fill="#b557ff"/><g fill="#590bb2"><path d="m437.044 91.242h-362.088c-11.028 0-20 8.972-20 20v209.944c0 11.028 8.972 20 20 20h80.881c2.762 0 5-2.239 5-5s-2.238-5-5-5h-80.881c-5.514 0-10-4.486-10-10v-209.944c0-5.514 4.486-10 10-10h362.088c5.514 0 10 4.486 10 10v41.458c0 2.761 2.238 5 5 5s5-2.239 5-5v-41.458c0-11.028-8.972-20-20-20z"/><path d="m452.044 178.3c-2.762 0-5 2.239-5 5v137.886c0 5.514-4.486 10-10 10h-250.607c-2.762 0-5 2.239-5 5v11.179c0 8.271 6.729 15 15 15h15.883v46h-34.353c-8.38 0-15.197 6.817-15.197 15.196s6.817 15.196 15.197 15.196h156.064c8.38 0 15.197-6.817 15.197-15.196s-6.817-15.196-15.197-15.196h-34.351v-46h15.883c8.271 0 15-6.729 15-15v-6.179h106.481c11.028 0 20-8.972 20-20v-137.886c0-2.761-2.238-5-5-5zm-112.815 245.261c0 2.865-2.331 5.196-5.197 5.196h-156.064c-2.866 0-5.197-2.331-5.197-5.196s2.331-5.196 5.197-5.196h156.064c2.866 0 5.197 2.331 5.197 5.196zm-49.549-15.196h-67.36v-46h67.359v46zm30.882-61c0 2.757-2.243 5-5 5h-119.125c-2.757 0-5-2.243-5-5v-6.179h129.125z"/></g></g></g></g></svg>