<?xml version="1.0" encoding="utf-8"?>
<!-- Generator: Adobe Illustrator 24.0.2, SVG Export Plug-In . SVG Version: 6.00 Build 0)  -->
<svg version="1.1" id="Capa_1" xmlns="http://www.w3.org/2000/svg" xmlns:xlink="http://www.w3.org/1999/xlink" x="0px" y="0px"
	 viewBox="0 0 512 512" style="enable-background:new 0 0 512 512;" xml:space="preserve">
<style type="text/css">
	.st0{fill:url(#SVGID_1_);}
	.st1{opacity:0.1;fill:#2626BC;enable-background:new    ;}
	.st2{fill:#FF7EB8;}
	.st3{fill:#FFFFFF;}
	.st4{fill:#97FFD2;}
	.st5{fill:#B7C5FF;}
	.st6{fill:#9FB0FE;}
	.st7{fill:#6583FE;}
	.st8{fill:#FFA8CF;}
	.st9{fill:#01ECA5;}
	.st10{fill:#2626BC;}
</style>
<g>
	<g>
		<g>
			
				<linearGradient id="SVGID_1_" gradientUnits="userSpaceOnUse" x1="15.6295" y1="258.0003" x2="496.3707" y2="258.0003" gradientTransform="matrix(1 0 0 -1 0 514)">
				<stop  offset="4.850001e-02" style="stop-color:#D2DEFF"/>
				<stop  offset="0.9993" style="stop-color:#DCFDEE"/>
			</linearGradient>
			<path class="st0" d="M20.7,179.6c26.3,85,107.8,89,182.1,93.6c244.9,15-63,218.2,146.7,238.3c77.1,7.4,157.8-57,145.6-140.3
				C484,295.2,374,250.1,373.9,179.1c0-55.9,103.9-96.4,36.3-156.6C350-31-32.7,6.7,20.7,179.6L20.7,179.6z"/>
		</g>
		<g>
			<g>
				<path class="st1" d="M371.5,88.3c0-14.5-11.7-26.2-26.2-26.2H169.8c-14.5,0-26.2,11.7-26.2,26.2v208.6
					c-12.3,10.1-20.1,25.4-20.1,42.5v124.5c0,5.5,4.5,10,10,10h188.3c5.5,0,10-4.5,10-10v-11h30.7c9.6,0,17.5-7.8,17.5-17.5v-7.9
					c0-6.4-3.4-11.9-8.5-15L371.5,88.3L371.5,88.3z"/>
				<g>
					<path class="st2" d="M231.8,399.8h100.1v50H231.8V399.8z"/>
					<g>
						<g>
							<path class="st3" d="M371.5,64.3v329.9c0,14.5-11.7,26.2-26.2,26.2H169.8c-14.5,0-26.2-11.7-26.2-26.2V64.4
								c0-14.5,11.7-26.2,26.2-26.2h175.5C359.8,38.2,371.5,49.9,371.5,64.3z"/>
							<path class="st4" d="M143.6,233.8v160.4c0,14.5,11.7,26.2,26.2,26.2h175.5c14.5,0,26.2-11.7,26.2-26.2V233.8L143.6,233.8z"/>
							<path class="st5" d="M143.6,305.8v88.4c0,14.5,11.7,26.2,26.2,26.2h175.5c14.5,0,26.2-11.7,26.2-26.2v-88.4L143.6,305.8z"/>
							<path class="st6" d="M143.6,334.8v59.4c0,14.5,11.7,26.2,26.2,26.2h175.5c14.5,0,26.2-11.7,26.2-26.2v-59.4L143.6,334.8z"/>
							<path class="st7" d="M305.6,58.2l6.2-20H202.3l6.2,20c1.1,3.6,4.5,6.1,8.3,6.1h80.4C301.1,64.3,304.5,61.8,305.6,58.2z"/>
						</g>
					</g>
					<g>
						<path class="st8" d="M123.6,449.8V315.4c0-30.4,24.6-55,55-55h57.6c14.9,0,27.1,12.1,27.1,27.1s-12.1,27.1-27.1,27.1h-46.6
							c0,0,77.1,6.1,77.1,135.3"/>
						<g>
							<path class="st8" d="M369.6,294.8h-46c-12.6,0-22.8-10.2-22.8-22.8c0-12.6,10.2-22.8,22.8-22.8h46c9.6,0,17.5,7.8,17.5,17.5
								v10.7C387,287,379.2,294.8,369.6,294.8L369.6,294.8z"/>
							<path class="st8" d="M369.6,340.5h-56.5c-12.6,0-22.8-10.2-22.8-22.8c0-12.6,10.2-22.8,22.8-22.8h56.5
								c9.6,0,17.5,7.8,17.5,17.5V323C387,332.6,379.2,340.5,369.6,340.5L369.6,340.5z"/>
							<path class="st8" d="M369.6,386.1h-46c-12.6,0-22.8-10.2-22.8-22.8c0-12.6,10.2-22.8,22.8-22.8h46c9.6,0,17.5,7.8,17.5,17.5
								v10.7C387,378.3,379.2,386.1,369.6,386.1L369.6,386.1z"/>
							<path class="st8" d="M362.6,428.9h-41.4c-11.8,0-21.4-9.6-21.4-21.4s9.6-21.4,21.4-21.4h41.4c9.6,0,17.5,7.8,17.5,17.5v7.9
								C380,421.1,372.2,428.9,362.6,428.9z"/>
						</g>
					</g>
				</g>
				<g>
					<path class="st5" d="M187.9,65.6h-16c-2.8,0-5-2.2-5-5v-5c0-2.8,2.2-5,5-5h16c2.8,0,5,2.2,5,5v5
						C192.9,63.3,190.7,65.6,187.9,65.6z"/>
					<g>
						<g>
							<path class="st5" d="M328.3,64.8c-2.8,0-5-2.2-5-5v-3.5c0-2.8,2.2-5,5-5s5,2.2,5,5v3.5C333.3,62.6,331,64.8,328.3,64.8z"/>
						</g>
						<g>
							<path class="st5" d="M343.5,64.8c-2.8,0-5-2.2-5-5v-3.5c0-2.8,2.2-5,5-5s5,2.2,5,5v3.5C348.5,62.6,346.3,64.8,343.5,64.8z"/>
						</g>
					</g>
				</g>
				<path class="st7" d="M92.7,257.8c-2.8,0-5-2.2-5-5c0-3.3-2.7-6-6-6c-2.8,0-5-2.2-5-5s2.2-5,5-5c3.3,0,6-2.7,6-6c0-2.8,2.2-5,5-5
					s5,2.2,5,5c0,3.3,2.7,6,6,6c2.8,0,5,2.2,5,5s-2.2,5-5,5c-3.3,0-6,2.7-6,6C97.7,255.6,95.5,257.8,92.7,257.8z"/>
				<path class="st7" d="M410,224.7c-2.8,0-5-2.2-5-5c0-3.3-2.7-6-6-6c-2.8,0-5-2.2-5-5s2.2-5,5-5c3.3,0,6-2.7,6-6c0-2.8,2.2-5,5-5
					s5,2.2,5,5c0,3.3,2.7,6,6,6c2.8,0,5,2.2,5,5s-2.2,5-5,5c-3.3,0-6,2.7-6,6C415,222.5,412.8,224.7,410,224.7z"/>
				<path class="st9" d="M414.6,162.7c-1.3,0-2.6-0.5-3.5-1.5l-11-11c-2-2-2-5.1,0-7.1l11-11c2-2,5.1-2,7.1,0l11,11c2,2,2,5.1,0,7.1
					l-11,11C417.2,162.3,415.9,162.7,414.6,162.7z M410.7,146.7l3.9,3.9l3.9-3.9l-3.9-3.9L410.7,146.7z"/>
				<path class="st9" d="M426,413.1c-1.3,0-2.6-0.5-3.5-1.5l-11-11c-2-2-2-5.1,0-7.1l11-11c2-2,5.1-2,7.1,0l11,11c2,2,2,5.1,0,7.1
					l-11,11C428.6,412.6,427.3,413.1,426,413.1z M422.1,397.1l3.9,3.9l3.9-3.9l-3.9-3.9L422.1,397.1z"/>
				<path class="st2" d="M86,315.2c-1.3,0-2.6-0.5-3.5-1.5l-11-11c-2-2-2-5.1,0-7.1l11-11c2-2,5.1-2,7.1,0l11,11c2,2,2,5.1,0,7.1
					l-11,11C88.5,314.7,87.2,315.2,86,315.2z M82,299.2l3.9,3.9l3.9-3.9l-3.9-3.9L82,299.2z"/>
			</g>
			<g>
				<path class="st5" d="M292.2,239.4h-61.8c-2.8,0-5-2.2-5-5s2.2-5,5-5h61.8c2.8,0,5,2.2,5,5S294.9,239.4,292.2,239.4z"/>
			</g>
		</g>
	</g>
	<path class="st10" d="M392,277.4v-10.7c0-12.4-10.1-22.5-22.5-22.5h-46c-15.3,0-27.8,12.5-27.8,27.8c0,7.6,3,14.4,8,19.5
		c-10.7,3.9-18.4,14.1-18.4,26.2s7.7,22.3,18.4,26.2c-4.9,5-8,11.9-8,19.5c0,9,4.3,17.1,11,22.2c-7.2,4.7-11.9,12.8-11.9,22
		c0,2.8,0.4,5.4,1.2,8h-26.5c-3.9-30.8-14.2-63.5-38.1-85.4c-4.8-4.4-9.5-7.8-14-10.5h18.7c17.7,0,32.1-14.4,32.1-32.1
		c0-17.7-14.4-32.1-32.1-32.1h-57.6c-10.9,0-21.1,2.9-29.9,8V64.4c0-11.7,9.5-21.2,21.2-21.2h175.5c11.7,0,21.2,9.5,21.2,21.2v151.2
		c0,2.8,2.2,5,5,5s5-2.2,5-5V64.4c0-17.2-14-31.2-31.2-31.2H169.8c-17.2,0-31.2,14-31.2,31.2v206.3c-12.3,11-20.1,27-20.1,44.7
		v134.5c0,2.8,2.2,5,5,5s5-2.2,5-5V315.4c0-27.6,22.4-50,50-50h57.6c12.2,0,22.1,9.9,22.1,22.1s-9.9,22.1-22.1,22.1h-46.6h-20.7
		c-2.8,0-5,2.2-5,5s2.2,5,5,5h20.4c1.8,0.2,19,2.5,35.9,18.4c23.8,22.2,36.4,60.9,36.4,112c0,2.8,2.2,5,5,5s5-2.2,5-5
		c0-7.7-0.3-15.9-1-24.4h31.3c4.8,5.2,11.7,8.4,19.3,8.4h5.6v16c0,2.8,2.2,5,5,5s5-2.2,5-5v-16h25.7c12.4,0,22.5-10.1,22.5-22.5
		v-7.9c0-5.7-2.1-10.8-5.6-14.8c7.4-3.7,12.5-11.3,12.5-20.1v-10.7c0-7-3.3-13.3-8.4-17.5c5.1-4.1,8.4-10.4,8.4-17.5v-10.7
		c0-7-3.3-13.3-8.4-17.5C388.8,290.7,392,284.4,392,277.4L392,277.4z M375,411.4c0,6.9-5.6,12.5-12.5,12.5h-41.4
		c-9,0-16.4-7.4-16.4-16.4s7.4-16.4,16.4-16.4h2.3h39c6.9,0,12.5,5.6,12.5,12.5V411.4z M382,312.3V323c0,6.9-5.6,12.5-12.5,12.5
		h-7.4c-2.8,0-5,2.2-5,5s2.2,5,5,5h7.4c6.9,0,12.5,5.6,12.5,12.5v10.7c0,6.9-5.6,12.5-12.5,12.5h-7h-39c-9.8,0-17.8-8-17.8-17.8
		s8-17.8,17.8-17.8h5c2.8,0,5-2.2,5-5s-2.2-5-5-5h-5h-10.5c-9.8,0-17.8-8-17.8-17.8s8-17.8,17.8-17.8h10.5h46
		C376.4,299.8,382,305.4,382,312.3L382,312.3z M323.6,289.8c-9.8,0-17.8-8-17.8-17.8s8-17.8,17.8-17.8h46c6.9,0,12.5,5.6,12.5,12.5
		v10.7c0,6.9-5.6,12.5-12.5,12.5L323.6,289.8z"/>
</g>
</svg>
