<?xml version="1.0" encoding="utf-8"?>
<!-- Generator: Adobe Illustrator 24.0.3, SVG Export Plug-In . SVG Version: 6.00 Build 0)  -->
<svg version="1.1" id="Capa_1" xmlns="http://www.w3.org/2000/svg" xmlns:xlink="http://www.w3.org/1999/xlink" x="0px" y="0px"
	 viewBox="0 0 512 512" style="enable-background:new 0 0 512 512;" xml:space="preserve">
<style type="text/css">
	.st0{opacity:0.5;}
	.st1{fill:#169F85;}
	.st2{opacity:0.1;fill:#590BB2;enable-background:new    ;}
	.st3{fill:#F29B11;}
	.st4{fill:#9A58B4;}
	.st5{fill:#F0C30F;}
	.st6{fill:#EFEBFF;}
	.st7{fill:#E2CCFF;}
	.st8{fill:#FFA052;}
	.st9{fill:#C182F9;}
	.st10{fill:#FFFFFF;}
	.st11{fill:#B557FF;}
	.st12{fill:#CCA1FF;}
	.st13{fill:#590BB2;}
</style>
<g>
	<g class="st0">
		<path class="st1" d="M180.3,0C79.6,0.5,29.1,173.6,10.2,262.6c-18.9,89,0.8,271.5,147.1,247.2c23.6-3.9,29.2-4.7,48.6-14.5
			c34.7-17.4,75.7-29.7,112.8-33.4c15.2-1.5,34.4-6.5,44.6-8.4c81.6-14.7,164.9-93.8,139.7-176.6c-18.9-62.2-74.4-87.3-130-83.8
			c-30.5,1.9-63-16-69.5-35.8C282.4,92.9,258-0.4,180.3,0L180.3,0z"/>
	</g>
	<g>
		<path class="st2" d="M437,150.2H75c-8.3,0-15,6.7-15,15v209.9c0,8.3,6.7,15,15,15h111.5v11.2c0,5.5,4.5,10,10,10h20.9v56H178
			c-5.6,0-10.2,4.6-10.2,10.2s4.6,10.2,10.2,10.2H334c5.6,0,10.2-4.6,10.2-10.2s-4.6-10.2-10.2-10.2h-39.4v-56h20.9
			c5.5,0,10-4.5,10-10v-11.2H437c8.3,0,15-6.7,15-15V165.2C452,157,445.3,150.2,437,150.2z"/>
		<path class="st3" d="M381.7,415.4h-3v-3c0-2.8-2.2-5-5-5s-5,2.2-5,5v3h-3c-2.8,0-5,2.2-5,5s2.2,5,5,5h3v3c0,2.8,2.2,5,5,5
			s5-2.2,5-5v-3h3c2.8,0,5-2.2,5-5S384.4,415.4,381.7,415.4z"/>
		<path class="st3" d="M126,406.7h-3v-3c0-2.8-2.2-5-5-5s-5,2.2-5,5v3h-3c-2.8,0-5,2.2-5,5s2.2,5,5,5h3v3c0,2.8,2.2,5,5,5s5-2.2,5-5
			v-3h3c2.8,0,5-2.2,5-5S128.8,406.7,126,406.7z"/>
		<path class="st4" d="M465,79.2h-3v-3c0-2.8-2.2-5-5-5s-5,2.2-5,5v3h-3c-2.8,0-5,2.2-5,5s2.2,5,5,5h3v3c0,2.8,2.2,5,5,5s5-2.2,5-5
			v-3h3c2.8,0,5-2.2,5-5S467.8,79.2,465,79.2z"/>
		<path class="st5" d="M76,71.2h-3v-3c0-2.8-2.2-5-5-5s-5,2.2-5,5v3h-3c-2.8,0-5,2.2-5,5s2.2,5,5,5h3v3c0,2.8,2.2,5,5,5s5-2.2,5-5
			v-3h3c2.8,0,5-2.2,5-5S78.7,71.2,76,71.2z"/>
		<path class="st4" d="M428.3,437.4c-1.3,0-2.6-0.5-3.5-1.5l-4.5-4.5l-4.5,4.5c-2,2-5.1,2-7.1,0c-2-2-2-5.1,0-7.1l8-8
			c2-2,5.1-2,7.1,0l8,8c2,2,2,5.1,0,7.1C430.9,436.9,429.6,437.4,428.3,437.4z"/>
		<g>
			<path class="st6" d="M217.3,354.6h77.4v99.1h-77.4L217.3,354.6z"/>
			<path class="st7" d="M217.3,354.6h77.4v46h-77.4L217.3,354.6z"/>
			<path class="st8" d="M315.6,384.4H196.4c-5.5,0-10-4.5-10-10v-22.6h139.1v22.6C325.6,379.9,321.1,384.4,315.6,384.4z"/>
			<g>
				<path class="st9" d="M437,363.2H75c-8.3,0-15-6.7-15-15V138.2c0-8.3,6.7-15,15-15H437c8.3,0,15,6.7,15,15v209.9
					C452,356.5,445.3,363.2,437,363.2z"/>
				<g>
					<path class="st10" d="M452,138.2v184.6H60V138.2c0-8.3,6.7-15,15-15H437C445.3,123.2,452,130,452,138.2z"/>
				</g>
				<g>
					<path class="st6" d="M237.9,123.2v140c0,3.8-3.1,7-7,7h-23.4v26.6c0,3.9-3.1,7-7,7H93.4c-3.8,0-7-3.1-7-7V136.5
						c0-3.8,3.1-7,7-7h23.3v-6.3L237.9,123.2z"/>
					<path class="st6" d="M425.6,123.2v140c0,3.8-3.1,7-7,7h-23.4v26.6c0,3.9-3.1,7-7,7H281.1c-3.8,0-7-3.1-7-7V136.5
						c0-3.8,3.1-7,7-7h23.4v-6.3L425.6,123.2z"/>
				</g>
			</g>
			<path class="st11" d="M334,460.8H178c-5.6,0-10.2-4.6-10.2-10.2s4.6-10.2,10.2-10.2H334c5.6,0,10.2,4.6,10.2,10.2
				C344.2,456.2,339.7,460.8,334,460.8z"/>
		</g>
		<g>
			<g>
				<path class="st5" d="M230.9,76.2H123.7c-3.8,0-7,3.1-7,7v160.3c0,3.8,3.1,7,7,7h107.2c3.8,0,7-3.1,7-7V83.1
					C237.9,79.3,234.8,76.2,230.9,76.2z"/>
				<g>
					<path class="st7" d="M207.6,153.9V277c0,3.8-3.1,7-7,7H93.4c-3.8,0-7-3.1-7-7V116.7c0-3.8,3.1-7,7-7h70.1L207.6,153.9z"/>
					<path class="st12" d="M163.5,146.9v-37.1l44.1,44.1h-37.1C166.6,153.9,163.5,150.7,163.5,146.9z"/>
				</g>
				<g>
					<path class="st10" d="M153,181h-40.1c-2.8,0-5-2.2-5-5s2.2-5,5-5H153c2.8,0,5,2.2,5,5S155.8,181,153,181z"/>
				</g>
				<g>
					<path class="st10" d="M183,212.9h-70.1c-2.8,0-5-2.2-5-5s2.2-5,5-5H183c2.8,0,5,2.2,5,5S185.8,212.9,183,212.9z"/>
				</g>
				<g>
					<path class="st10" d="M183,232.7h-70.1c-2.8,0-5-2.2-5-5s2.2-5,5-5H183c2.8,0,5,2.2,5,5S185.8,232.7,183,232.7z"/>
				</g>
				<g>
					<path class="st10" d="M183,252.6h-70.1c-2.8,0-5-2.2-5-5s2.2-5,5-5H183c2.8,0,5,2.2,5,5S185.8,252.6,183,252.6z"/>
				</g>
			</g>
			<g>
				<path class="st3" d="M418.6,76.2H311.4c-3.8,0-7,3.1-7,7v160.3c0,3.8,3.1,7,7,7h107.2c3.8,0,7-3.1,7-7V83.1
					C425.6,79.3,422.5,76.2,418.6,76.2z"/>
				<g>
					<path class="st7" d="M395.3,153.9V277c0,3.8-3.1,7-7,7H281.1c-3.8,0-7-3.1-7-7V116.7c0-3.8,3.1-7,7-7h70.1L395.3,153.9z"/>
					<path class="st12" d="M351.2,146.9v-37.1l44.1,44.1h-37.1C354.3,153.9,351.2,150.7,351.2,146.9z"/>
					<path class="st13" d="M437,118.2h-6.5V83.1c0-6.6-5.4-12-12-12H311.4c-6.6,0-12,5.4-12,12v21.6h-18.4c-6.6,0-12,5.4-12,12v1.5
						h-26.2V83.1c0-6.6-5.4-12-12-12H123.7c-6.6,0-12,5.4-12,12v21.6H93.4c-6.6,0-12,5.4-12,12v1.5H75c-11,0-20,9-20,20v209.9
						c0,11,9,20,20,20h106.5v6.2c0,8.3,6.7,15,15,15h15.9v46H178c-8.4,0-15.2,6.8-15.2,15.2s6.8,15.2,15.2,15.2H334
						c8.4,0,15.2-6.8,15.2-15.2s-6.8-15.2-15.2-15.2h-34.4v-46h15.9c8.3,0,15-6.7,15-15v-6.2h21.1c2.8,0,5-2.2,5-5s-2.2-5-5-5H75
						c-5.5,0-10-4.5-10-10V138.2c0-5.5,4.5-10,10-10h6.5V277c0,6.6,5.4,12,12,12h107.2c6.6,0,12-5.4,12-12v-21.6h18.4
						c6.6,0,12-5.4,12-12V183c0-2.8-2.2-5-5-5s-5,2.2-5,5v60.4c0,1.1-0.9,2-2,2h-18.4v-91.5c0-1.3-0.5-2.6-1.5-3.5L167,106.2
						c-0.9-0.9-2.2-1.5-3.5-1.5h-41.8V83.1c0-1.1,0.9-2,2-2h107.2c1.1,0,2,0.9,2,2v69.2c0,2.8,2.2,5,5,5s5-2.2,5-5v-24.1h26.2V277
						c0,6.6,5.4,12,12,12h107.2c6.6,0,12-5.4,12-12v-21.6h18.4c6.6,0,12-5.4,12-12V128.2h6.5c5.5,0,10,4.5,10,10v209.9
						c0,5.5-4.5,10-10,10h-54.7c-2.8,0-5,2.2-5,5s2.2,5,5,5H437c11,0,20-9,20-20V138.2C457,127.2,448.1,118.2,437,118.2L437,118.2z
						 M339.2,450.6c0,2.9-2.3,5.2-5.2,5.2H178c-2.9,0-5.2-2.3-5.2-5.2s2.3-5.2,5.2-5.2H334C336.9,445.4,339.2,447.7,339.2,450.6z
						 M289.7,435.4h-67.4v-46h67.4L289.7,435.4L289.7,435.4z M320.6,374.4c0,2.8-2.2,5-5,5H196.4c-2.8,0-5-2.2-5-5v-6.2h129.1V374.4
						z M202.6,155.9V277c0,1.1-0.9,2-2,2H93.4c-1.1,0-2-0.9-2-2V116.7c0-1.1,0.9-2,2-2h68L202.6,155.9z M390.3,277c0,1.1-0.9,2-2,2
						H281.1c-1.1,0-2-0.9-2-2V116.7c0-1.1,0.9-2,2-2h68l41.2,41.2L390.3,277L390.3,277z M420.6,243.4c0,1.1-0.9,2-2,2h-18.4v-91.5
						c0-1.3-0.5-2.6-1.5-3.5l-44.1-44.1c-0.9-0.9-2.2-1.5-3.5-1.5h-41.8V83.1c0-1.1,0.9-2,2-2h107.2c1.1,0,2,0.9,2,2L420.6,243.4
						L420.6,243.4z"/>
				</g>
				<g>
					<path class="st10" d="M340.7,181h-40.1c-2.8,0-5-2.2-5-5s2.2-5,5-5h40.1c2.8,0,5,2.2,5,5S343.5,181,340.7,181z"/>
				</g>
				<g>
					<path class="st10" d="M370.7,212.9h-70.1c-2.8,0-5-2.2-5-5s2.2-5,5-5h70.1c2.8,0,5,2.2,5,5S373.5,212.9,370.7,212.9z"/>
				</g>
				<g>
					<path class="st10" d="M370.7,232.7h-70.1c-2.8,0-5-2.2-5-5s2.2-5,5-5h70.1c2.8,0,5,2.2,5,5S373.5,232.7,370.7,232.7z"/>
				</g>
				<g>
					<path class="st10" d="M370.7,252.6h-70.1c-2.8,0-5-2.2-5-5s2.2-5,5-5h70.1c2.8,0,5,2.2,5,5S373.5,252.6,370.7,252.6z"/>
				</g>
			</g>
		</g>
	</g>
</g>
</svg>
