<?xml version="1.0" encoding="utf-8"?>
<!-- Generator: Adobe Illustrator 24.0.3, SVG Export Plug-In . SVG Version: 6.00 Build 0)  -->
<svg version="1.1" id="Capa_1" xmlns="http://www.w3.org/2000/svg" xmlns:xlink="http://www.w3.org/1999/xlink" x="0px" y="0px"
	 viewBox="0 0 512 512" style="enable-background:new 0 0 512 512;" xml:space="preserve">
<style type="text/css">
	.st0{opacity:0.5;fill:#1BBB9A;enable-background:new    ;}
	.st1{opacity:0.1;fill:#590BB2;enable-background:new    ;}
	.st2{fill:#C182F9;}
	.st3{fill:#FFFFFF;}
	.st4{fill:#FFF4C5;}
	.st5{fill:#FFD5B8;}
	.st6{fill:#FDD250;}
	.st7{fill:#CCA1FF;}
	.st8{fill:#F29B11;}
	.st9{fill:#590BB2;}
	.st10{fill:#F7F3FF;}
	.st11{fill:#9526DD;}
	.st12{fill:#FFEADC;}
	.st13{fill:#9A58B4;}
	.st14{fill:#F0C30F;}
	.st15{fill:#FFA052;}
	.st16{fill:#B557FF;}
</style>
<path class="st0" d="M411.2,155.2c-30,0-54.3-24.3-54.3-54.3C356.8,45.2,311.7,0,256,0S155.2,45.2,155.2,100.8
	c0,30-24.3,54.3-54.3,54.3C45.2,155.2,0,200.3,0,256s45.2,100.8,100.8,100.8c30,0,54.3,24.3,54.3,54.3
	c0,55.7,45.2,100.8,100.8,100.8s100.8-45.2,100.8-100.8c0-30,24.3-54.3,54.3-54.3c55.7,0,100.8-45.2,100.8-100.8
	S466.8,155.2,411.2,155.2L411.2,155.2z"/>
<g>
	<g>
		<g>
			<path class="st1" d="M143.2,464.8V99.5c0-9.1,7.4-16.5,16.5-16.5h202.2c9.1,0,16.5,7.4,16.5,16.5v365.3c0,9.1-7.4,16.5-16.5,16.5
				H159.7C150.6,481.3,143.2,473.9,143.2,464.8L143.2,464.8z"/>
			<path class="st2" d="M143.2,435.2V69.8c0-9.1,7.4-16.5,16.5-16.5h202.2c9.1,0,16.5,7.4,16.5,16.5v365.3c0,9.1-7.4,16.5-16.5,16.5
				H159.7C150.6,451.6,143.2,444.3,143.2,435.2L143.2,435.2z"/>
			<g>
				<path class="st3" d="M143.2,86.3h235.2v332.3H143.2V86.3z"/>
			</g>
			<path class="st4" d="M242.1,275.6h-61.5c-2.9,0-5.2-2.3-5.2-5.2v-61.5c0-2.9,2.3-5.2,5.2-5.2h61.5c2.9,0,5.2,2.3,5.2,5.2v61.5
				C247.4,273.3,245,275.6,242.1,275.6z"/>
			<path class="st5" d="M378.4,418.7H231.3V262.9c0-1.7,0.4-3.3,1.2-4.8l67.7-131.4c2-3.8,7.4-3.8,9.3,0l67.7,131.4
				c0.8,1.5,1.2,3.1,1.2,4.8L378.4,418.7L378.4,418.7z"/>
			<g>
				<path class="st6" d="M231.3,418.7h49V284.9c0-13.5-11-24.5-24.5-24.5s-24.5,11-24.5,24.5L231.3,418.7L231.3,418.7z"/>
				<path class="st7" d="M280.3,418.7h49V284.9c0-13.5-11-24.5-24.5-24.5s-24.5,11-24.5,24.5V418.7L280.3,418.7z"/>
				<path class="st8" d="M329.4,418.7h49V284.9c0-13.5-11-24.5-24.5-24.5s-24.5,11-24.5,24.5V418.7L329.4,418.7z"/>
			</g>
			<g>
				<path class="st9" d="M361.9,456.6H233.3c-2.8,0-5-2.2-5-5s2.2-5,5-5h128.6c6.3,0,11.5-5.2,11.5-11.5V135.3c0-2.8,2.2-5,5-5
					s5,2.2,5,5v299.9C383.4,447,373.7,456.6,361.9,456.6z"/>
				<path class="st9" d="M202.7,456.6h-43c-11.9,0-21.5-9.6-21.5-21.5V69.8c0-11.9,9.6-21.5,21.5-21.5h202.2
					c11.9,0,21.5,9.6,21.5,21.5v34.9c0,2.8-2.2,5-5,5s-5-2.2-5-5V69.8c0-6.3-5.2-11.5-11.5-11.5H159.7c-6.3,0-11.5,5.2-11.5,11.5
					v365.3c0,6.3,5.2,11.5,11.5,11.5h43c2.8,0,5,2.2,5,5S205.5,456.6,202.7,456.6L202.7,456.6z"/>
			</g>
		</g>
		<g>
			<path class="st10" d="M207.9,174.6l-14.6-10l-14.6,10c-3.6,2.5-8.6-0.1-8.6-4.5v-67.7h46.5V170
				C216.5,174.4,211.6,177,207.9,174.6z"/>
			<path class="st8" d="M207.9,158.6l-14.6-10l-14.6,10c-3.6,2.5-8.6-0.1-8.6-4.5V86.3h46.5V154
				C216.5,158.5,211.6,161.1,207.9,158.6"/>
		</g>
		<circle class="st11" cx="315.1" cy="72.1" r="4.8"/>
		<circle class="st11" cx="331.4" cy="72.1" r="4.8"/>
		<path class="st12" d="M341.9,189.6c-9.9,6.7-22.8,10.7-37,10.7s-27.2-4-37-10.7l32.4-62.8c2-3.8,7.4-3.8,9.3,0L341.9,189.6z"/>
		<path class="st8" d="M341.9,189.6c-9.9,6.7-22.8,10.7-37,10.7s-27.2-4-37-10.7l32.4-62.8c2-3.8,7.4-3.8,9.3,0L341.9,189.6z"/>
	</g>
	<path class="st13" d="M107.1,109.1h-3.4v-3.4c0-2.8-2.2-5-5-5s-5,2.2-5,5v3.4h-3.4c-2.8,0-5,2.2-5,5s2.2,5,5,5h3.4v3.4
		c0,2.8,2.2,5,5,5s5-2.2,5-5v-3.4h3.4c2.8,0,5-2.2,5-5S109.8,109.1,107.1,109.1z"/>
	<path class="st14" d="M95.4,179H92v-3.4c0-2.8-2.2-5-5-5s-5,2.2-5,5v3.4h-3.4c-2.8,0-5,2.2-5,5s2.2,5,5,5H82v3.4c0,2.8,2.2,5,5,5
		s5-2.2,5-5V189h3.4c2.8,0,5-2.2,5-5S98.2,179,95.4,179z"/>
	<path class="st14" d="M423.7,228.4h-3.4V225c0-2.8-2.2-5-5-5s-5,2.2-5,5v3.4h-3.4c-2.8,0-5,2.2-5,5s2.2,5,5,5h3.4v3.4
		c0,2.8,2.2,5,5,5s5-2.2,5-5v-3.4h3.4c2.8,0,5-2.2,5-5S426.4,228.4,423.7,228.4z"/>
	<path class="st15" d="M423.7,189c-1.3,0-2.6-0.5-3.5-1.5l-4.8-4.8l-4.9,4.8c-2,2-5.1,2-7.1,0s-2-5.1,0-7.1l8.4-8.4
		c0.9-0.9,2.2-1.5,3.5-1.5s2.6,0.5,3.5,1.5l8.4,8.4c2,2,2,5.1,0,7.1C426.2,188.5,424.9,189,423.7,189z"/>
	<path class="st13" d="M115.4,395.7c-1.3,0-2.6-0.5-3.5-1.5l-4.8-4.8l-4.8,4.8c-2,2-5.1,2-7.1,0s-2-5.1,0-7.1l8.4-8.4
		c2-2,5.1-2,7.1,0l8.4,8.4c2,2,2,5.1,0,7.1C118,395.2,116.7,395.7,115.4,395.7z"/>
	<path class="st16" d="M288.3,390.7h-104c-2.8,0-5-2.2-5-5v-21.9c0-2.8,2.2-5,5-5h104c2.8,0,5,2.2,5,5v21.9
		C293.3,388.5,291.1,390.7,288.3,390.7z"/>
	<g>
		<g>
			<g>
				<path class="st2" d="M233.9,317.5h-49.5c-2.8,0-5-2.2-5-5s2.2-5,5-5h49.5c2.8,0,5,2.2,5,5S236.6,317.5,233.9,317.5z"/>
			</g>
			<g>
				<path class="st2" d="M260.9,335h-76.5c-2.8,0-5-2.2-5-5s2.2-5,5-5h76.5c2.8,0,5,2.2,5,5S263.6,335,260.9,335z"/>
			</g>
		</g>
		<g>
			<circle class="st2" cx="185.9" cy="294.5" r="5"/>
			<circle class="st2" cx="202.1" cy="294.5" r="5"/>
		</g>
	</g>
</g>
</svg>
