<svg id="Capa_1" data-name="Capa 1" xmlns="http://www.w3.org/2000/svg" width="792" height="612" viewBox="0 0 792 612"><defs><style>.cls-1,.cls-5{fill:#fff;}.cls-1{stroke:#fff;stroke-width:2.81px;}.cls-1,.cls-4{stroke-miterlimit:10;}.cls-2{fill:#0faee8;}.cls-3{fill:#07c9dc;}.cls-4{fill:#f2b52a;stroke:#023b51;stroke-width:2.47px;}.cls-6{fill:#1f3059;}</style></defs><title>FAN VISUAL 2019_6_2</title><path class="cls-1" d="M542.94,278.07a12.58,12.58,0,0,1-3.3-8.18V72.13c0-24.57-18-46.5-43-49.62-30.17-3.77-56,19.19-56,47.94V172.6a12.52,12.52,0,0,1-14.92,12.27,47.93,47.93,0,0,0-9.81-1,49.43,49.43,0,0,0-43.58,25.76,13,13,0,0,1-15.5,6,49.62,49.62,0,0,0-56.17,19.27,12.69,12.69,0,0,1-15.09,4.45A50,50,0,0,0,264,236.11c-26.21,1.85-45.86,24.44-45.86,50.12V439.52c0,34.28,26.19,62.66,60,67.11v81.46a12.23,12.23,0,0,0,12.36,12.08h210.6a12.22,12.22,0,0,0,12.36-12.08V543.32a11.66,11.66,0,0,1,2.09-6.6A221.48,221.48,0,0,0,554.69,410.8V309.22A47.32,47.32,0,0,0,542.94,278.07Z"/><path class="cls-2" d="M537.61,404.32c0,40-13.41,103-36.6,135.52a12.31,12.31,0,0,0-2.29,6.5L497,579.89a12.4,12.4,0,0,1-12.35,11.81H322.29a12.4,12.4,0,0,1-12.35-11.81l-3-71.11a12.14,12.14,0,0,0-11.83-12.18v0A45.31,45.31,0,0,1,250,451.18V419.4l.52-15.42a12.67,12.67,0,0,1,15.11-12.57,45.49,45.49,0,0,0,8.72,1h.94c15.3,0,22.15-7.32,30.16-12.37a12.49,12.49,0,0,1,13.45,0c8.07,5.15,15.71,12.7,30.54,12.7h.47a49.24,49.24,0,0,0,41.15-23.25,8.38,8.38,0,0,1,8.84-3.65,43.11,43.11,0,0,0,8.71.93h11.68a8.77,8.77,0,0,1,3.42.72h40.54a8.55,8.55,0,0,1,3.46-.72h11c6.44,0,10.23-3.84,10.23-8.57v-7.76a8.54,8.54,0,0,0-8.52-8.56H409.59c-12,0-22.95-8.11-25.24-19.92a24.89,24.89,0,0,1,24.25-29.86H512.88A24.81,24.81,0,0,1,537.61,317Z"/><path class="cls-3" d="M292.52,496.45c-4.79-9.36-28.09-13.28-49.86-13.18-.14,2-.28,4-.4,6.08a44.64,44.64,0,0,0,24.34,7.23v0a12.14,12.14,0,0,1,11.83,12.18l3,71.11a12.4,12.4,0,0,0,12.35,11.81h8.79C315.68,561.85,306.75,521.49,292.52,496.45Z"/><path class="cls-2" d="M305.88,333.82a23.78,23.78,0,0,1-7.4,17.26c-4.79,4.57-11.22,6.66-17.79,6.9-13.38-.23-24.27-11.07-24.27-24.16V284c0-13.33,11.09-24.17,24.73-24.17s24.73,10.84,24.73,24.17Z"/><path class="cls-2" d="M380.08,274.33a47.17,47.17,0,0,0-1.59,67.52,24.55,24.55,0,0,1-22.92,16.48,25.36,25.36,0,0,1-17.63-7,23.72,23.72,0,0,1-7.33-17.18V261.3c0-13.32,11.1-24.17,24.73-24.17S380.08,248,380.08,261.3Z"/><path class="cls-2" d="M454.27,252.34a8.37,8.37,0,0,1-8.37,8.32c-9,.09-23.18.25-32.36.48a8.41,8.41,0,0,1-8.73-8.31v-20c0-11.69,8.05-22.43,19.79-24.67,15.79-3,29.67,8.8,29.67,23.71Z"/><path class="cls-2" d="M528.46,248.57a12.62,12.62,0,0,1-13,12.48c-7.4-.15-16.58-.27-23.88-.35A12.58,12.58,0,0,1,479,248.22V71.12c0-11.69,8.06-22.43,19.8-24.66,15.78-3,29.66,8.79,29.66,23.7Z"/><path class="cls-4" d="M426.42,444.12a9.83,9.83,0,0,0,7-12.08,10.13,10.13,0,0,0-12.37-6.86l-2.16.59-.42-7.18a10.89,10.89,0,0,0-21.75,1.2l.68,11.78-10.88,2.93-.41-7.18a10.9,10.9,0,0,0-21.76,1.21l.68,11.77-6.4,1.72a9.83,9.83,0,0,0-7,12.08A10.11,10.11,0,0,0,364,461l2.21-.6.77,13.32-5.8,1.56a9.83,9.83,0,0,0-7,12.08h0a10.11,10.11,0,0,0,12.36,6.86l1.61-.44.43,7.28a10.83,10.83,0,0,0,11.49,10h0a10.77,10.77,0,0,0,10.26-11.23l-.69-11.88L400.51,485l.42,7.28a10.89,10.89,0,0,0,21.75-1.21L422,479.21l6.95-1.87a9.83,9.83,0,0,0,7-12.08h0a10.11,10.11,0,0,0-12.36-6.86l-2.76.75-.77-13.32ZM399.35,465l-10.88,2.93-.77-13.31,10.88-2.94Z"/><path class="cls-5" d="M426.42,444.12a9.83,9.83,0,0,0,7-12.08,10.13,10.13,0,0,0-12.37-6.86l-2.16.59-.42-7.18a10.89,10.89,0,0,0-21.75,1.2l.68,11.78-10.88,2.93-.41-7.18a10.9,10.9,0,0,0-21.76,1.21l.68,11.77-6.4,1.72a9.83,9.83,0,0,0-7,12.08A10.11,10.11,0,0,0,364,461l2.21-.6.77,13.32-5.8,1.56a9.83,9.83,0,0,0-7,12.08h0a10.11,10.11,0,0,0,12.36,6.86l1.61-.44.43,7.28a10.83,10.83,0,0,0,11.49,10h0a10.77,10.77,0,0,0,10.26-11.23l-.69-11.88L400.51,485l.42,7.28a10.89,10.89,0,0,0,21.75-1.21L422,479.21l6.95-1.87a9.83,9.83,0,0,0,7-12.08h0a10.11,10.11,0,0,0-12.36-6.86l-2.76.75-.77-13.32ZM399.35,465l-10.88,2.93-.77-13.31,10.88-2.94Z"/><polygon class="cls-2" points="250.51 400.77 249.99 373.39 305.88 357.98 342.98 371.75 380.08 349.48 454.27 349.48 491.37 332.17 496.31 349.48 485.34 371.75 367.71 397.31 250.51 400.77"/><polygon class="cls-2" points="294.57 477.29 286.03 502.64 294.57 573.45 296.47 591.7 330.64 591.7 311.65 485.02 294.57 477.29"/><path class="cls-2" d="M278.16,498h22.11a0,0,0,0,1,0,0V591.7a0,0,0,0,1,0,0H279.92a1.76,1.76,0,0,1-1.76-1.76V498A0,0,0,0,1,278.16,498Z"/><path class="cls-6" d="M544.13,278.89a12.54,12.54,0,0,1-3.3-8.18V73c0-24.57-18-46.49-43-49.61-30.17-3.78-56,19.18-56,47.94V173.43A12.51,12.51,0,0,1,427,185.69a47.93,47.93,0,0,0-9.81-1,49.47,49.47,0,0,0-43.58,25.75,13,13,0,0,1-15.5,6A49,49,0,0,0,343,214.08a49.48,49.48,0,0,0-41.06,21.65,12.68,12.68,0,0,1-15.09,4.44,50,50,0,0,0-21.65-3.23c-26.21,1.84-45.86,24.44-45.86,50.12V440.35c0,36.9,30.35,67,67.93,67.72.37,0,.74.06,1.12.06a11.83,11.83,0,1,0,.28-23.66v0c-24.88,0-45.12-19.78-45.12-44.09V409.48l.52-15a12.56,12.56,0,0,1,15.1-12.21,47.34,47.34,0,0,0,8.73,1h.94c15.3,0,22.14-7.11,30.16-12a12.78,12.78,0,0,1,13.44,0c8.08,5,15.71,12.33,30.54,12.33h.48A49.55,49.55,0,0,0,384.58,361a8.49,8.49,0,0,1,8.85-3.54,44.59,44.59,0,0,0,8.71.89h11.68a8.79,8.79,0,0,1,3.42.71h40.54a8.71,8.71,0,0,1,3.45-.71h11c6.45,0,10.23-3.72,10.23-8.32v-7.53a8.42,8.42,0,0,0-8.51-8.32H403.13c-12,0-23-7.87-25.24-19.35-3.08-15.43,9-29,24.25-29H506.41c13.66,0,24.74,10.82,24.74,24.17v84.78c0,38.87-13.42,100.05-36.6,131.63a11.75,11.75,0,0,0-2.29,6.31l-1.71,32.59a12.25,12.25,0,0,1-12.36,11.47H393.84a12.09,12.09,0,1,0,0,24.17H502.31a12.22,12.22,0,0,0,12.36-12.08V544.15a11.72,11.72,0,0,1,2.09-6.61,221.43,221.43,0,0,0,39.12-125.92V310.05A47.36,47.36,0,0,0,544.13,278.89ZM293.51,334.94a23.78,23.78,0,0,1-7.4,17.26c-4.78,4.56-11.22,6.65-17.79,6.9-13.38-.24-24.27-11.07-24.27-24.16V285.16c0-13.33,11.1-24.18,24.73-24.18s24.73,10.85,24.73,24.18Zm74.2-59.49A47.19,47.19,0,0,0,366.12,343a24.51,24.51,0,0,1-22.91,16.47,25.27,25.27,0,0,1-17.63-7,23.68,23.68,0,0,1-7.33-17.17V262.42c0-13.32,11.09-24.17,24.73-24.17s24.73,10.85,24.73,24.17Zm74.19-22a8.37,8.37,0,0,1-8.37,8.32c-9,.09-23.18.25-32.36.48a8.42,8.42,0,0,1-8.73-8.32V234c0-11.69,8.06-22.44,19.8-24.67,15.79-3,29.66,8.8,29.66,23.7Zm74.2-3.77a12.62,12.62,0,0,1-13,12.48c-7.39-.15-16.57-.27-23.87-.35a12.58,12.58,0,0,1-12.58-12.48V72.24c0-11.69,8.05-22.43,19.79-24.66,15.79-3,29.67,8.79,29.67,23.7Z"/></svg>