<?xml version="1.0" encoding="utf-8"?>
<!-- Generator: Adobe Illustrator 24.0.3, SVG Export Plug-In . SVG Version: 6.00 Build 0)  -->
<svg version="1.1" id="Capa_1" xmlns="http://www.w3.org/2000/svg" xmlns:xlink="http://www.w3.org/1999/xlink" x="0px" y="0px"
	 viewBox="0 0 512 512" style="enable-background:new 0 0 512 512;" xml:space="preserve">
<style type="text/css">
	.st0{fill:url(#SVGID_1_);}
	.st1{opacity:0.1;fill:#0000CC;enable-background:new    ;}
	.st2{fill:#1BBB9A;}
	.st3{fill:#E1D7FF;}
	.st4{fill:#8B3EAF;}
	.st5{fill:#FFFFFF;}
	.st6{fill:#6C6CFF;}
	.st7{fill:#FF8B00;}
	.st8{fill:#FF9D33;}
	.st9{fill:#FF6C6C;}
</style>
<g>
	
		<linearGradient id="SVGID_1_" gradientUnits="userSpaceOnUse" x1="522.928" y1="557.2179" x2="-114.267" y2="-79.9781" gradientTransform="matrix(1 0 0 -1 0 514)">
		<stop  offset="2.300000e-03" style="stop-color:#FFC599"/>
		<stop  offset="0.992" style="stop-color:#FFE8DC;stop-opacity:0"/>
	</linearGradient>
	<path class="st0" d="M436.6,171.9c-8.4-8.4-18-14.9-28.7-19.8c-28-12.7-50.1-35.4-62.4-63.6C322.5,36.4,270.4,0,209.9,0
		C130.5-0.1,64.7,63.2,61.7,142.4c-1.3,33.9,8.9,65.4,26.9,91c22.9,32.4,28.8,73.8,17,111.7c-16.8,53.9-10.9,104.9,21,136.8
		c55.9,55.9,170.6,31.8,256.2-53.8C468.4,342.5,492.4,227.8,436.6,171.9L436.6,171.9z"/>
	<g>
		<g>
			<g>
				<g>
					<g>
						<path class="st1" d="M140.2,465.7c0,11.5,9.3,20.8,20.8,20.8h206.1c11.5,0,20.8-9.3,20.8-20.8V73.3c0-11.5-9.3-20.8-20.8-20.8
							H161.1c-11.5,0-20.8,9.3-20.8,20.8V465.7z"/>
						<path class="st2" d="M388,46.3v392.3c0,11.5-9.3,20.8-20.8,20.8H161.1c-11.5,0-20.8-9.3-20.8-20.8V46.3
							c0-11.5,9.3-20.8,20.8-20.8h206.1C378.7,25.5,388,34.8,388,46.3L388,46.3z"/>
						<path class="st3" d="M331.7,53.5l8.5-28h-152l8.5,28c1.3,4.2,5.2,7.1,9.6,7.1h115.9C326.5,60.6,330.4,57.7,331.7,53.5z"/>
						<g>
							<path class="st4" d="M367.2,20.5H161.1c-14.2,0-25.8,11.6-25.8,25.8v301c0,2.8,2.2,5,5,5s5-2.2,5-5v-301
								c0-8.7,7.1-15.8,15.8-15.8h23.3l7.4,24.5c1.9,6.4,7.7,10.7,14.4,10.7h115.9c6.7,0,12.4-4.3,14.4-10.7l7.4-24.5h23.3
								c8.7,0,15.8,7.1,15.8,15.8v80.3c0,2.8,2.2,5,5,5s5-2.2,5-5V46.3C393,32.1,381.5,20.5,367.2,20.5L367.2,20.5z M326.9,52.1
								c-0.6,2.1-2.6,3.6-4.8,3.6H206.2c-2.2,0-4.1-1.4-4.8-3.6l-6.5-21.6h138.5L326.9,52.1z"/>
							<path class="st4" d="M388,155.7c-2.8,0-5,2.2-5,5v278c0,8.7-7.1,15.8-15.8,15.8H161.1c-8.7,0-15.8-7.1-15.8-15.8v-57.3
								c0-2.8-2.2-5-5-5s-5,2.2-5,5v57.3c0,14.2,11.6,25.8,25.8,25.8h206.1c14.2,0,25.8-11.6,25.8-25.8v-278
								C393,157.9,390.8,155.7,388,155.7L388,155.7z"/>
						</g>
						<g>
							<g>
								<path class="st5" d="M352.1,202.1c-0.9-0.9-1.9-1.3-3-1.2c-1.5,0-3.1,1.1-4.9,3c-1.4,1.7-2.6,3.5-3.3,5.3
									c-0.4,1-1,2.4-1.6,4.5l-2.1,4.8c-0.5,1.1-1,2.8-1.4,5.3l-1.4,5.2v0.8l-0.1,0.6l-1.6,3.2l-1.4,1.9l-3.6,3.5l-1.8,1.1
									c-0.4,0-0.8,0.3-1.3,0.6c-0.4,0.4-0.8,0.5-1.2,0.6c-1,0.1-1.8-1.2-2-3.9l-0.3-1.1l-1.1-1.3c-1.1-1.2-2.1-1.6-3-1.5
									c-0.9,0.2-1.7,0.8-2.4,1.8l-3,5.1c-0.8,0.9-1.6,1.2-2.5,1.2c1.2-3.6,2.2-6.1,3.2-7.7c0.7-1.1,1.5-1.9,2.2-2.5l2.9-0.1
									l1.3,1.9c0.5,0.7,1.1,1,1.9,0.8c0.5-0.1,1-0.4,1.2-0.8c0.3-0.4,0.5-0.9,0.5-1.4c-0.1-1-0.7-2.1-1.7-3.1
									c-1.2-1.2-2.4-1.9-3.8-2.1c-1.6-0.2-3.2-0.1-4.6,0.5c-0.8,0.3-1.6,0.5-2.1,1.1c-0.4,0.2-0.5,0.4-0.8,0.7l-0.7,0.9
									c-0.6,0.3-1.1,0.7-1.6,1.6l-3.7,9.3c-0.3,0.9-0.2,1.7,0.2,2.3l0.7,2c0.2,0.5,0.5,1,0.7,1.4c0.7,0.8,1.6,1.3,2.6,1.5
									c2.1,0.4,4.3-0.4,6.5-2.3l3.7-2.9c0.2-0.1,0.5,0.2,0.7,0.8l0.3,0.9l0.8,0.8l2.5,2c0.6,0.4,1.3,0.6,2.1,0.6
									c1.3,0.1,2.7-0.3,3.9-0.9l1.5-0.9l1.4-1.2c0.7-0.4,1.1-0.6,1.6-0.6c0.1,0,0.2,0,0.4,0.2l0.1,0.4l0.7,6.7l1.1,4.9
									c0.6,1.3,1.4,2.4,2.5,3.2c1.2,0.9,2.4,1.4,3.8,1.4c0.9-0.8,0.9-2.1-0.1-3.8c-0.8-1.3-1.2-2.6-1.3-3.8l-0.3-11
									c-0.2-2.2,0-3.9,0.5-5.1c0.4-1.2,1.1-2.5,2.2-4l2.8-4l2.4-4.7l6.1-14.6c0.5-1.6,0.6-3.1,0.4-4.4
									C353.4,204,352.8,203,352.1,202.1 M344,213.7c0.3-1.1,0.5-1.8,0.7-2.2c0.6-1.2,1.7-2.5,3.2-3.9h0.3v0.8l-0.4,1.3l-3.7,9.2
									l-2,3.8c-0.2,0.7-0.6,1.3-0.8,1.4l-0.3,0.1l-0.1-0.2l-0.1-0.5l1.2-5.3c0.3-0.8,0.5-1.5,0.8-2.2L344,213.7z"/>
							</g>
							<g>
								<path class="st5" d="M302.8,246.3l-1.4-1.7c-0.8-1.3-1.3-2.8-1.7-4.7l-0.6-5.4l-1.3-4.5c-0.5-0.9-1.4-1.6-2.6-2.1l-3.2-0.1
									l-1.7,1.1c-0.6,0.4-1.2,0.9-1.7,1.3c-0.4,0.5-0.7,1.1-1.1,2l-1,2c-0.4-0.3-0.7-0.7-0.7-1.4l0.1-0.8l-0.1-0.9l-1.6-4.3
									c-0.6-1.2-1.5-2.3-2.6-3.3c-1.2-0.9-2.5-1.6-3.8-1.9c-0.6-0.2-1.4-0.2-2.5,0l-2.1,0.2c-1,0.3-2,0.8-2.7,1.6l-1.9,2.8
									c-0.7,1.3-1.3,2.1-2,2.7c-0.4,0.4-0.9,1-1.3,1.7l-2,4.4l-1.1,1.9c-0.5,0.8-0.6,2.2-0.6,4.1c0,1.5,0.2,2.7,0.9,3.8
									c0.8,1.3,1.9,2.2,3.3,2.8c2,0.7,3.5,1,4.6,0.7c0.5-0.1,1.1-0.4,1.9-0.9l1.5-0.8c0.8-0.5,1.3-1.2,1.6-2.3
									c0.5-1.6,0.5-3.8,0.1-6.6c-0.4-1.8-0.7-3.1-0.8-4c-0.1-1.6,0.3-2.9,1.1-3.8l0.5-0.7c0.2-0.3,0.2-0.6,0-0.9l-0.4-0.7
									c-0.1-0.3,0.1-0.4,0.5-0.4c1-0.1,1.9,0.3,2.4,1.2c0.5,0.7,0.9,1.8,1.1,3.1l0.9,11.1c0.1,0.9,0.2,1.6,0.5,2.2
									c0.5,1.1,1.4,1.8,2.7,2.2c1.2,0.4,2.3,0.3,3.4-0.2c1.1-0.5,1.9-1.4,2.3-2.7l0.9-3.7c0.3-1.6,0.6-2.7,1.2-3.5l0.6-0.8
									l0.3-0.1l0.4,0.5c0.4,0.4,0.8,0.9,1,1.4c0.3,0.6,0.7,1.8,1.2,3.7c0.4,1.6,1,2.8,1.5,3.7c0.9,1.3,2.1,2.1,3.3,2.7
									c1.4,0.5,2.8,0.7,4.1,0.4v-0.2L302.8,246.3z M269.6,233.4c1,0,1.3,1.1,1.2,3.2c-0.2,1.8-0.6,3.5-1.2,5.3
									c-0.4,0.7-0.6,1.3-0.9,1.4c-0.5,0.4-0.9,0.5-1.3,0.3c-0.4-0.1-0.6-0.4-0.6-1.1c-0.1-0.6,0-1.5,0.3-2.5l0.7-2.5
									C268.2,235.9,268.8,234.5,269.6,233.4"/>
							</g>
							<g>
								<path class="st5" d="M200.4,202.8c-1-0.8-2.3-1.9-4-2.9c-1-0.6-2.5-1.3-4.6-2.1c-1.2-0.4-2-0.6-2.5-0.8l-2.5-0.4
									c-0.8-0.3-1.7-0.5-2.6-0.5h-2.6l-6,0.9c-0.9,0.1-1.7,0.3-2.1,0.7c-0.4,0.5-0.7,1.2-1,1.8c-0.3,0.7-0.3,1.3-0.3,1.9
									c0.2,0.6,0.5,1.1,1.1,1.4c0.8,0.4,1.8,0.5,2.9,0.5l8.3-1l7.7,1c0.9,0.2,1.5,0.4,2.1,0.6c1.1,0.4,2.2,1.4,3.4,2.9
									c1.2,1.3,1.7,2.7,1.6,4c-0.2,1.3-0.8,2.5-2.2,3.6l-3.2,2.5c-1.6,1-2.8,1.4-3.7,1.4l0.6-1.5l0.4-1.5l0.2-3.5l0.6-1.5l0.2-1.5
									c0.1-0.7-0.1-1.5-0.5-2.4c-0.5-1.2-1.3-2.1-2.3-2.4l-1.7-0.1c-0.6,0.2-1.2,0.5-1.5,1c-0.7,0.7-1.1,1.9-1.3,3.3l-1.6,9.8
									c-0.4,1.3-0.8,2.1-1.5,2.4c-0.6,0.4-1.3-0.1-2.1-1.4l-0.9-1.3c-0.4-0.5-0.8-0.6-1.3-0.8c-1.1-0.2-1.8,0.1-2.3,0.9
									c-0.5,1-0.6,2-0.1,3c0.3,1,1.1,1.8,2,2.5c0.4,0.2,1.1,0.5,2,0.9l2,1c0.8,0.4,1.1,1.3,0.9,2.6c0,0.5-0.2,1.7-0.7,3.4l-3,19.6
									l-0.6,1.8c-0.3,0.6-0.2,1.2,0.3,1.8c0.6,0.9,1.7,1.3,3,1.4c1.4,0.1,2.4-0.4,3-1.4c0.5-0.7,0.8-1.8,1-3.1l0.4-4.9
									c0.2-2.2,0.5-4,0.8-5.6l1.2-5.5c0.3-1.7,0.5-3.4,0.5-4.7c0.2-1.7,0.3-2.8,0.6-3.5c0.4-1,1.4-1.7,2.8-2.2l4.8-1.5
									c1.1-0.4,2.4-1.3,4.2-2.6c1.6-1.2,2.8-2.3,3.6-3.2c1.8-2.2,2.2-4.9,1.3-8C204.4,207.1,202.8,204.8,200.4,202.8"/>
							</g>
							<g>
								<path class="st5" d="M260.4,225c0.1-0.5-0.1-1.2-0.4-1.7c-0.4-0.5-0.8-1-1.4-1.2c-0.6-0.3-1.3-0.5-1.9-0.5
									c-0.6,0.1-1.2,0.3-2.1,0.6l-1.3,0.4c-0.5,0.3-0.7,0.4-0.8,0.4l-0.5,0.6l-0.7,0.3l-1.3,2.2l-0.4,0.4
									c-0.2,0.2-0.2,0.4-0.2,0.4l-0.4,1c-0.5,0.8-1,1.4-1,1.8c-0.1,0.5-0.1,1.2,0,2c0.2,1.4,0.6,2.9,1.5,4.3l2.5,3.9
									c1.1,1.5,1.5,2.9,1.3,4.1c-0.1,0.8-0.9,1.5-2.3,2.1l-3.2,0.2l-2-0.6c-0.8-0.2-1.3,0-1.9,0.4c-0.1,0.5-0.1,1.1,0,1.6l1.8,3
									c0.5,0.6,1.3,1,2.9,1.2c2.6,0.3,4.8,0,6.7-0.6c1.2-0.5,2.2-1,3-1.9c0.9-0.9,1.4-1.9,1.6-3.1c0.4-1.9-0.3-4-2.1-6.2l-1.9-2.9
									c-0.7-1.1-1.2-2-1.2-3.1c-0.2-1.5,0.1-2.8,1-3.9c0.5-0.7,1.4-1.5,2.9-2.5C259.6,226.7,260.4,225.9,260.4,225"/>
							</g>
							<g>
								<path class="st5" d="M247.4,228.1c0.2-0.3,0.3-0.8,0-1.4c-0.2-0.9-0.5-1.4-0.7-1.5c-2-0.7-3.6-1-4.9-0.7
									c-1.1,0.1-2.2,0.7-3.4,1.8l-2.9,2.7l-2.4,3c-0.9,1.3-2,2.2-2.9,2.6l-0.6-1.6c-0.1-0.3-0.3-0.9-0.3-1.7
									c-0.1-1.1-0.5-2-1.3-2.6c-0.8-0.7-1.6-1.1-2.7-1.2c-1.1-0.2-2,0-2.7,0.4l-1.3,1.2l-1,1.3l-2.2,2.4c-0.9,0.9-2.3,2.7-4.6,5.4
									l-3.1,4c-1.2,1.4-2.2,2-3.2,1.7c-1.1-0.3-1.7-1.1-2-2.4c-0.2-1.3,0.1-2.2,0.9-3l6.9-3.5l3.1-2.2l1.5-1.4
									c0.2-1.4-0.1-2.8-1-4.2c-0.7-1.2-1.7-2.3-3-3.2c-1.3-0.9-2.7-1.3-4.1-1.5c-1.6-0.1-3,0.3-4.4,1.1c-2.6,1.6-4.5,4.1-5.5,7.3
									l-0.4,1.3l-0.3,0.4l-0.4,0.2h-2l-1.1,0.3c-0.3,0.1-0.4,0.4-0.4,0.8c-0.1,0.6,0.1,1.3,0.4,1.9l1.4,1.6l1.2,1.1
									c0.4,0.4,0.5,1,0.7,2.1l0.9,2c1.3,2.9,2.8,4.9,4.6,5.8c2.2,1.2,4.5,1.4,6.5,0.7c1.5-0.4,3.1-1.5,4.7-3.2l4-4.8
									c1.6-1.9,3.1-3.3,4.7-4.1l0.6,3.6l0.2,2.6l-0.2,2.4c0,1,0.2,1.8,0.4,2.4c0.6,1.2,1.5,1.9,2.7,2.1c1.2,0.2,2.2-0.3,3.1-1.6
									l1.8-4.1l2.7-3.6l2.2-4.5c0.9-1.7,1.8-3.2,2.9-4.2c0.9-1,1.9-1.7,3.1-2.4l2.9-1.2L247.4,228.1z M212.6,228.2
									c0.2,0.5,0.1,1-0.1,1.4c-0.1,0.7-0.6,1.3-1.6,2l-3.9,2.5c-0.7,0.4-1.3,0.5-1.9,0.6l-0.4-0.1c-0.1-0.1-0.2-0.1-0.2-0.4
									l0.2-0.7c0.1-0.4,0.3-0.8,0.6-1.2l1.8-2.5c0.8-1.3,1.4-2.1,2.1-2.6c1-0.9,2-1,2.8-0.3C212.2,227.3,212.4,227.7,212.6,228.2"
									/>
							</g>
						</g>
					</g>
				</g>
				<g>
					<circle class="st6" cx="220.2" cy="43.1" r="4.9"/>
				</g>
				<g>
					<circle class="st6" cx="236.5" cy="43.1" r="4.9"/>
				</g>
				<g>
					<path class="st7" d="M304.7,47.9h-37.2c-2.6,0-4.7-2.1-4.7-4.7s2.1-4.7,4.7-4.7h37.2c2.6,0,4.7,2.1,4.7,4.7
						S307.3,47.9,304.7,47.9z"/>
				</g>
			</g>
		</g>
		<g>
			<path class="st6" d="M61.6,283.6c-1.3,0-2.6-0.5-3.5-1.5l-11.3-11.3c-2-2-2-5.1,0-7.1l11.3-11.3c0.9-0.9,2.2-1.5,3.5-1.5
				s2.6,0.5,3.5,1.5l11.3,11.3c0.9,0.9,1.5,2.2,1.5,3.5s-0.5,2.6-1.5,3.5l-11.3,11.3C64.2,283.1,62.9,283.6,61.6,283.6L61.6,283.6z
				 M57.4,267.3l4.2,4.2l4.2-4.2l-4.2-4.2L57.4,267.3z"/>
		</g>
		<g>
			<path class="st8" d="M426.7,459.3c-1.3,0-2.6-0.5-3.5-1.5l-11.3-11.3c-2-2-2-5.1,0-7.1l11.3-11.3c2-2,5.1-2,7.1,0l11.3,11.3
				c2,2,2,5.1,0,7.1l-11.3,11.3C429.3,458.8,428,459.3,426.7,459.3z M422.5,443l4.2,4.2l4.2-4.2l-4.2-4.2L422.5,443z"/>
		</g>
		<g>
			<path class="st6" d="M426.7,122.2c-1.3,0-2.6-0.5-3.5-1.5l-11.3-11.3c-2-2-2-5.1,0-7.1l11.3-11.3c2-2,5.1-2,7.1,0l11.3,11.3
				c2,2,2,5.1,0,7.1l-11.3,11.3C429.3,121.7,428,122.2,426.7,122.2z M422.5,105.9l4.2,4.2l4.2-4.2l-4.2-4.2L422.5,105.9z"/>
		</g>
		<g>
			<path class="st9" d="M103.1,344c-7.2,0-13-5.8-13-13s5.8-13,13-13s13,5.8,13,13S110.3,344,103.1,344z M103.1,328
				c-1.7,0-3,1.4-3,3s1.4,3,3,3s3-1.4,3-3S104.8,328,103.1,328z"/>
		</g>
		<g>
			<path class="st8" d="M103.1,146.4c-7.2,0-13-5.8-13-13s5.8-13,13-13s13,5.8,13,13S110.3,146.4,103.1,146.4z M103.1,130.4
				c-1.7,0-3,1.4-3,3s1.4,3,3,3s3-1.4,3-3S104.8,130.4,103.1,130.4z"/>
		</g>
	</g>
</g>
</svg>
