<svg id="Capa_1" enable-background="new 0 0 512 512" height="512" viewBox="0 0 512 512" width="512" xmlns="http://www.w3.org/2000/svg" xmlns:xlink="http://www.w3.org/1999/xlink"><linearGradient id="SVGID_1_" gradientUnits="userSpaceOnUse" x1="522.928" x2="-114.267" y1="-43.218" y2="593.978"><stop offset=".0023" stop-color="#ffc599"/><stop offset=".992" stop-color="#ffe8dc" stop-opacity="0"/></linearGradient><g><path d="m436.556 171.888c-8.356-8.356-18.026-14.923-28.717-19.765-28.021-12.69-50.051-35.407-62.434-63.565-22.917-52.113-74.975-88.512-135.545-88.558-79.312-.06-145.163 63.163-148.148 142.418-1.277 33.922 8.857 65.421 26.87 90.969 22.877 32.448 28.821 73.782 17.021 111.69-16.764 53.857-10.919 104.898 20.973 136.791 55.888 55.888 170.586 31.804 256.185-53.795 85.598-85.599 109.683-200.296 53.795-256.185z" fill="url(#SVGID_1_)"/><g><g><g><g><g><path d="m140.246 465.671c0 11.5 9.33 20.83 20.84 20.83h206.12c11.51 0 20.84-9.33 20.84-20.83v-392.34c0-11.5-9.33-20.83-20.84-20.83h-206.12c-11.51 0-20.84 9.33-20.84 20.83z" fill="#00c" opacity=".1"/><path d="m388.046 46.33v392.34c0 11.5-9.33 20.83-20.84 20.83h-206.12c-11.51 0-20.84-9.33-20.84-20.83v-392.34c0-11.5 9.33-20.83 20.84-20.83h206.12c11.51 0 20.84 9.33 20.84 20.83z" fill="#ff6c6c"/><path d="m140.246 271v167.67c0 11.5 9.33 20.83 20.84 20.83h206.12c11.51 0 20.84-9.33 20.84-20.83v-167.67z" fill="#ff9d33"/><path d="m331.693 53.506 8.453-28.007h-152l8.453 28.007c1.274 4.222 5.164 7.11 9.573 7.11h115.946c4.411 0 8.3-2.889 9.575-7.11z" fill="#ffab66"/><g fill="#00c"><path d="m367.209 20.499h-206.126c-14.246 0-25.836 11.59-25.836 25.835v300.999c0 2.761 2.239 5 5 5s5-2.239 5-5v-300.999c0-8.732 7.104-15.835 15.836-15.835h23.349l7.38 24.451c1.925 6.38 7.696 10.666 14.36 10.666h115.946c6.664 0 12.435-4.286 14.36-10.666l7.38-24.452h23.349c8.732 0 15.836 7.104 15.836 15.835v80.332c0 2.761 2.239 5 5 5s5-2.239 5-5v-80.331c.002-14.245-11.588-25.835-25.834-25.835zm-40.303 31.563c-.642 2.126-2.565 3.555-4.787 3.555h-115.946c-2.221 0-4.145-1.429-4.787-3.555l-6.508-21.562h138.536z"/><path d="m388.045 155.667c-2.761 0-5 2.239-5 5v278c0 8.731-7.104 15.835-15.836 15.835h-206.126c-8.732 0-15.836-7.104-15.836-15.835v-57.334c0-2.761-2.239-5-5-5s-5 2.239-5 5v57.334c0 14.246 11.59 25.835 25.836 25.835h206.126c14.246 0 25.836-11.59 25.836-25.835v-278c0-2.761-2.239-5-5-5z"/></g></g></g><g><circle cx="220.154" cy="43.058" fill="#6c6cff" r="4.854"/></g><g><circle cx="236.479" cy="43.058" fill="#6c6cff" r="4.854"/></g><g><path d="m304.747 47.911h-37.202c-2.573 0-4.659-2.086-4.659-4.659s2.086-4.659 4.659-4.659h37.202c2.573 0 4.659 2.086 4.659 4.659s-2.086 4.659-4.659 4.659z" fill="#ff8b00"/></g></g></g><g><circle cx="264.146" cy="271" fill="#8383ff" r="87.865"/><g><g><g><path d="m232.508 302.091h-17.244c-2.761 0-5-2.239-5-5s2.239-5 5-5h17.244c4.85 0 8.795-3.946 8.795-8.795s-3.946-8.795-8.795-8.795h-14.244c-4.411 0-8-3.589-8-8v-18.591c0-4.411 3.589-8 8-8h28.04c2.761 0 5 2.239 5 5s-2.239 5-5 5h-26.04v14.59h12.244c10.364 0 18.795 8.432 18.795 18.795s-8.431 18.796-18.795 18.796z" fill="#fff"/></g></g><g><path d="m286.938 302.091c-17.143 0-31.09-13.947-31.09-31.091s13.947-31.091 31.09-31.091c2.761 0 5 2.239 5 5s-2.239 5-5 5c-11.629 0-21.09 9.461-21.09 21.091s9.461 21.091 21.09 21.091c9.908 0 18.241-6.867 20.492-16.091h-16.916c-2.761 0-5-2.239-5-5s2.239-5 5-5h22.515c2.761 0 5 2.239 5 5-.001 17.144-13.948 31.091-31.091 31.091z" fill="#fff"/></g></g></g><g><g><path d="m288.579 138.428c-.883 0-1.778-.234-2.588-.726-6.579-3.991-14.133-6.101-21.845-6.101s-15.266 2.109-21.845 6.101c-2.362 1.434-5.437.68-6.868-1.682-1.432-2.361-.679-5.436 1.682-6.868 8.143-4.94 17.49-7.551 27.031-7.551s18.888 2.611 27.031 7.551c2.361 1.432 3.114 4.507 1.682 6.868-.94 1.55-2.59 2.408-4.28 2.408z" fill="#fff"/></g><g><path d="m274.538 154.665c-.883 0-1.778-.234-2.588-.726-4.699-2.851-10.907-2.851-15.606 0-2.361 1.433-5.436.68-6.868-1.682s-.679-5.436 1.682-6.868c3.914-2.374 8.406-3.629 12.99-3.629s9.076 1.255 12.99 3.629c2.361 1.432 3.114 4.507 1.682 6.868-.943 1.55-2.592 2.408-4.282 2.408z" fill="#fff"/></g><g><path d="m301.57 121.344c-.883 0-1.778-.234-2.588-.726-10.492-6.364-22.538-9.729-34.835-9.729s-24.344 3.364-34.835 9.729c-2.361 1.433-5.436.68-6.868-1.682-1.432-2.361-.679-5.436 1.682-6.868 12.055-7.313 25.895-11.179 40.021-11.179s27.966 3.866 40.022 11.179c2.361 1.432 3.114 4.507 1.682 6.868-.942 1.55-2.591 2.408-4.281 2.408z" fill="#fff"/></g></g><g><g><path d="m209.4 400.682h109.202c2.573 0 4.659 2.086 4.659 4.659s-2.086 4.659-4.659 4.659h-109.202c-2.573 0-4.659-2.086-4.659-4.659s2.085-4.659 4.659-4.659z" fill="#ffd6bb"/></g><g><path d="m228.352 382.795h71.297c2.573 0 4.659 2.086 4.659 4.659s-2.086 4.659-4.659 4.659h-71.297c-2.573 0-4.659-2.086-4.659-4.659s2.086-4.659 4.659-4.659z" fill="#ffd6bb"/></g></g><g><g><g><path d="m323.294 159.885c-2.761 0-5-2.239-5-5v-3.5c0-2.761 2.239-5 5-5s5 2.239 5 5v3.5c0 2.761-2.239 5-5 5z" fill="#ffd6bb"/></g><g><path d="m340.627 159.885c-2.761 0-5-2.239-5-5v-3.5c0-2.761 2.239-5 5-5s5 2.239 5 5v3.5c0 2.761-2.239 5-5 5z" fill="#ffd6bb"/></g></g><g><g><path d="m187.665 159.885c-2.761 0-5-2.239-5-5v-3.5c0-2.761 2.239-5 5-5s5 2.239 5 5v3.5c0 2.761-2.239 5-5 5z" fill="#ffd6bb"/></g><g><path d="m204.999 159.885c-2.761 0-5-2.239-5-5v-3.5c0-2.761 2.239-5 5-5s5 2.239 5 5v3.5c0 2.761-2.239 5-5 5z" fill="#ffd6bb"/></g></g></g><g><path d="m61.604 283.584c-1.28 0-2.559-.488-3.536-1.464l-11.292-11.292c-1.953-1.953-1.953-5.119 0-7.071l11.292-11.292c.938-.938 2.209-1.464 3.536-1.464s2.598.527 3.536 1.464l11.292 11.292c.938.938 1.464 2.209 1.464 3.536s-.527 2.598-1.464 3.536l-11.292 11.291c-.977.976-2.257 1.464-3.536 1.464zm-4.221-16.292 4.221 4.221 4.221-4.221-4.221-4.221z" fill="#6c6cff"/></g><g><path d="m426.72 459.292c-1.28 0-2.559-.488-3.536-1.464l-11.292-11.292c-1.953-1.953-1.953-5.119 0-7.071l11.292-11.292c1.953-1.952 5.118-1.952 7.071 0l11.292 11.292c1.953 1.953 1.953 5.119 0 7.071l-11.292 11.292c-.976.976-2.255 1.464-3.535 1.464zm-4.221-16.292 4.221 4.221 4.221-4.221-4.221-4.221z" fill="#ff9d33"/></g><g><path d="m426.72 122.182c-1.28 0-2.559-.488-3.536-1.464l-11.292-11.292c-1.953-1.953-1.953-5.119 0-7.071l11.292-11.292c1.953-1.952 5.118-1.952 7.071 0l11.292 11.292c1.953 1.953 1.953 5.119 0 7.071l-11.292 11.292c-.976.975-2.255 1.464-3.535 1.464zm-4.221-16.293 4.221 4.221 4.221-4.221-4.221-4.221z" fill="#6c6cff"/></g><g><path d="m103.134 344.012c-7.175 0-13.012-5.837-13.012-13.012s5.837-13.012 13.012-13.012 13.012 5.837 13.012 13.012-5.837 13.012-13.012 13.012zm0-16.024c-1.661 0-3.012 1.351-3.012 3.012s1.351 3.012 3.012 3.012 3.012-1.351 3.012-3.012-1.351-3.012-3.012-3.012z" fill="#ff6c6c"/></g><g><path d="m103.134 146.438c-7.175 0-13.012-5.837-13.012-13.012s5.837-13.012 13.012-13.012 13.012 5.837 13.012 13.012-5.837 13.012-13.012 13.012zm0-16.023c-1.661 0-3.012 1.351-3.012 3.012s1.351 3.012 3.012 3.012 3.012-1.351 3.012-3.012-1.351-3.012-3.012-3.012z" fill="#ff9d33"/></g></g></g></svg>