<?xml version="1.0" encoding="utf-8"?>
<!-- Generator: Adobe Illustrator 16.2.0, SVG Export Plug-In . SVG Version: 6.00 Build 0)  -->
<!DOCTYPE svg PUBLIC "-//W3C//DTD SVG 1.1//EN" "http://www.w3.org/Graphics/SVG/1.1/DTD/svg11.dtd">
<svg version="1.1" id="Capa_1" xmlns="http://www.w3.org/2000/svg" xmlns:xlink="http://www.w3.org/1999/xlink" x="0px" y="0px"
	 width="150px" height="199px" viewBox="0 0 150 199" enable-background="new 0 0 150 199" xml:space="preserve">
<g>
	<g>
		<g>
			<path fill="#1BBB9A" d="M147.271,87.689c-1.726-1.726-4.125-2.688-6.564-2.688h-16.418h-16.828H41.827H24.998H15.92h-4.936H9.822
				c-2.439,0-5.104,0.964-6.832,2.688C1.268,89.416,0,91.78,0,94.219v8.995v1.772V189.8c0,2.438,1.268,4.792,2.99,6.519
				C4.717,198.044,7.382,199,9.822,199h1.161h4.936h9.627h16.837h65.766h16.836h15.721c2.441,0,4.842-0.956,6.564-2.684
				c1.727-1.726,2.729-4.077,2.729-6.518v-84.813v-1.772v-8.995C150,91.78,148.996,89.415,147.271,87.689z"/>
		</g>
		<g enable-background="new    ">
			<path fill="#FFFFFF" d="M26.788,127.234c0-4.971,3.816-8.528,8.953-8.528c2.851,0,5.23,1.036,6.785,2.921l-2.45,2.262
				c-1.107-1.271-2.498-1.932-4.146-1.932c-3.086,0-5.277,2.168-5.277,5.277c0,3.11,2.191,5.277,5.277,5.277
				c1.649,0,3.039-0.659,4.146-1.955l2.45,2.262c-1.555,1.908-3.935,2.945-6.809,2.945
				C30.604,135.764,26.788,132.206,26.788,127.234z"/>
			<path fill="#FFFFFF" d="M55.955,128.248v7.232h-3.44v-1.578c-0.683,1.154-2.002,1.767-3.863,1.767
				c-2.969,0-4.736-1.649-4.736-3.84c0-2.238,1.579-3.794,5.442-3.794h2.921c0-1.578-0.942-2.497-2.921-2.497
				c-1.343,0-2.733,0.448-3.652,1.179l-1.319-2.568c1.39-0.989,3.44-1.531,5.466-1.531
				C53.717,122.617,55.955,124.407,55.955,128.248z M52.28,131.476v-1.296h-2.521c-1.72,0-2.262,0.636-2.262,1.484
				c0,0.919,0.778,1.531,2.073,1.531C50.795,133.195,51.856,132.63,52.28,131.476z"/>
			<path fill="#FFFFFF" d="M80.693,128.225v7.256h-3.676v-6.691c0-2.049-0.918-2.991-2.403-2.991c-1.649,0-2.804,1.06-2.804,3.321
				v6.361h-3.675v-6.691c0-2.049-0.872-2.991-2.403-2.991c-1.626,0-2.78,1.06-2.78,3.321v6.361h-3.675v-12.675h3.51v1.46
				c0.942-1.083,2.356-1.648,3.981-1.648c1.767,0,3.275,0.683,4.17,2.073c1.013-1.296,2.662-2.073,4.57-2.073
				C78.525,122.617,80.693,124.36,80.693,128.225z"/>
			<path fill="#FFFFFF" d="M97.799,129.143c0,3.982-2.757,6.526-6.314,6.526c-1.695,0-3.063-0.542-3.981-1.649v1.461h-3.511v-17.481
				h3.676v6.149c0.942-1.037,2.238-1.531,3.816-1.531C95.042,122.617,97.799,125.161,97.799,129.143z M94.076,129.143
				c0-2.19-1.391-3.51-3.228-3.51c-1.838,0-3.228,1.319-3.228,3.51c0,2.191,1.39,3.511,3.228,3.511
				C92.686,132.653,94.076,131.334,94.076,129.143z"/>
			<path fill="#FFFFFF" d="M99.802,118.988c0-1.154,0.919-2.049,2.286-2.049c1.365,0,2.285,0.848,2.285,1.979
				c0,1.226-0.92,2.12-2.285,2.12C100.721,121.038,99.802,120.144,99.802,118.988z M100.25,122.806h3.676v12.675h-3.676V122.806z"/>
			<path fill="#FFFFFF" d="M106.398,129.143c0-3.816,2.945-6.525,6.975-6.525c4.027,0,6.949,2.709,6.949,6.525
				c0,3.817-2.922,6.526-6.949,6.526C109.344,135.669,106.398,132.96,106.398,129.143z M116.6,129.143c0-2.19-1.389-3.51-3.227-3.51
				s-3.252,1.319-3.252,3.51c0,2.191,1.414,3.511,3.252,3.511S116.6,131.334,116.6,129.143z"/>
		</g>
		<g enable-background="new    ">
			<path fill="#FFFFFF" d="M44.539,146.271v17.481h-3.51v-1.461c-0.919,1.107-2.262,1.649-3.958,1.649
				c-3.581,0-6.338-2.544-6.338-6.526c0-3.981,2.757-6.525,6.338-6.525c1.555,0,2.874,0.494,3.793,1.531v-6.149H44.539z
				 M40.935,157.415c0-2.19-1.414-3.51-3.228-3.51c-1.837,0-3.251,1.319-3.251,3.51c0,2.191,1.414,3.511,3.251,3.511
				C39.521,160.926,40.935,159.606,40.935,157.415z"/>
			<path fill="#FFFFFF" d="M60.277,158.452h-9.589c0.354,1.578,1.696,2.544,3.628,2.544c1.343,0,2.309-0.4,3.181-1.225l1.955,2.12
				c-1.178,1.343-2.945,2.05-5.23,2.05c-4.382,0-7.233-2.757-7.233-6.526c0-3.793,2.898-6.525,6.762-6.525
				c3.722,0,6.597,2.497,6.597,6.573C60.348,157.745,60.301,158.146,60.277,158.452z M50.642,156.308h6.243
				c-0.259-1.602-1.46-2.639-3.11-2.639C52.102,153.669,50.901,154.683,50.642,156.308z"/>
			<path fill="#FFFFFF" d="M68.242,162.575l1.225-2.639c1.131,0.73,2.851,1.225,4.406,1.225c1.696,0,2.333-0.447,2.333-1.154
				c0-2.073-7.657,0.047-7.657-5.018c0-2.403,2.167-4.1,5.867-4.1c1.744,0,3.675,0.4,4.876,1.107l-1.225,2.615
				c-1.249-0.707-2.498-0.943-3.652-0.943c-1.649,0-2.356,0.519-2.356,1.179c0,2.167,7.657,0.07,7.657,5.065
				c0,2.355-2.191,4.028-5.984,4.028C71.587,163.941,69.419,163.353,68.242,162.575z"/>
			<path fill="#FFFFFF" d="M87.42,158.782l-1.768,1.743v3.228h-3.675v-17.481h3.675v9.896l5.372-5.089h4.382l-5.277,5.371
				l5.748,7.304h-4.452L87.42,158.782z"/>
			<path fill="#FFFFFF" d="M96.985,147.261c0-1.154,0.919-2.049,2.286-2.049c1.365,0,2.285,0.848,2.285,1.979
				c0,1.226-0.92,2.12-2.285,2.12C97.904,149.311,96.985,148.416,96.985,147.261z M97.434,151.078h3.675v12.675h-3.675V151.078z"/>
			<path fill="#FFFFFF" d="M104.525,146.271h3.674v17.481h-3.674V146.271z"/>
			<path fill="#FFFFFF" d="M111.617,146.271h3.674v17.481h-3.674V146.271z"/>
		</g>
	</g>
	<g>
		<g>
			<g>
				<g>
					<path fill="#2C3E50" d="M93.158,82.43c0.432,0.434,0.994,0.65,1.568,0.65c0.547,0,1.108-0.203,1.53-0.624l8.841-8.65
						c0.42-0.407,0.649-0.969,0.649-1.569c0-0.6-0.242-1.147-0.649-1.567l-8.841-8.649c-0.868-0.842-2.245-0.829-3.1,0.026
						c-0.845,0.867-0.83,2.245,0.022,3.1l5,4.897h-5.549c-3.379,0-6.557-1.491-8.738-4.081L64.631,39.746
						c-2.947-4.171-7.756-6.672-12.859-6.672h-6.328c-1.211,0-2.18,0.981-2.18,2.193s0.981,2.183,2.18,2.183h6.328
						c3.688,0,7.17,1.798,9.313,4.848l19.34,26.316c0.025,0.039,0.052,0.064,0.076,0.103c3.011,3.636,7.424,5.729,12.146,5.729
						h5.549l-5.002,4.898C92.314,80.186,92.303,81.563,93.158,82.43z"/>
					<path fill="#2C3E50" d="M105.086,33.697l-8.893-8.713c-0.867-0.842-2.246-0.829-3.101,0.026
						c-0.842,0.868-0.829,2.245,0.025,3.1l5.063,4.962h-5.55c-4.707,0-9.135,2.08-12.146,5.716
						c-0.024,0.025-0.051,0.063-0.075,0.103l-3.623,4.938c-0.716,0.969-0.513,2.348,0.471,3.062c0.396,0.28,0.843,0.421,1.289,0.421
						c0.677,0,1.341-0.306,1.761-0.893l3.586-4.873c2.168-2.604,5.344-4.083,8.737-4.083h5.55l-5.064,4.963
						c-0.867,0.842-0.881,2.232-0.025,3.1c0.434,0.434,0.996,0.65,1.57,0.65c0.549,0,1.107-0.205,1.529-0.625l8.893-8.713
						c0.422-0.408,0.65-0.97,0.65-1.569S105.506,34.106,105.086,33.697z"/>
					<path fill="#2C3E50" d="M64.621,67.771l3.177-4.312c0.714-0.969,0.51-2.348-0.472-3.063c-0.97-0.714-2.349-0.51-3.062,0.473
						l-3.189,4.352c-0.014,0.024-0.025,0.037-0.038,0.063c-2.13,2.985-5.601,4.771-9.274,4.771h-6.328
						c-1.211,0-2.181,0.983-2.181,2.194c0,1.212,0.981,2.181,2.181,2.181h6.328C56.864,74.431,61.673,71.944,64.621,67.771z"/>
				</g>
			</g>
		</g>
	</g>
</g>
</svg>
