<?xml version="1.0" encoding="utf-8"?>
<!-- Generator: Adobe Illustrator 16.2.0, SVG Export Plug-In . SVG Version: 6.00 Build 0)  -->
<!DOCTYPE svg PUBLIC "-//W3C//DTD SVG 1.1//EN" "http://www.w3.org/Graphics/SVG/1.1/DTD/svg11.dtd">
<svg version="1.1" id="Capa_1" xmlns="http://www.w3.org/2000/svg" xmlns:xlink="http://www.w3.org/1999/xlink" x="0px" y="0px"
	 width="133px" height="133px" viewBox="0 0 133 133" enable-background="new 0 0 133 133" xml:space="preserve">
<g>
	
		<circle fill="#FFFFFF" stroke="#4F4F4F" stroke-width="3" stroke-miterlimit="10" stroke-dasharray="6" cx="66.5" cy="66.5" r="64.602"/>
	<g>
		<g>
			<path fill="#1BBB9A" d="M57.288,96.502l-0.014-6.029l-2.958,4.967h-1.049l-2.943-4.838v5.9h-2.183V86.451h1.925l3.762,6.246
				l3.704-6.246h1.91l0.028,10.051H57.288z"/>
			<path fill="#1BBB9A" d="M61.119,92.641c0-2.326,1.795-3.979,4.251-3.979c2.455,0,4.235,1.652,4.235,3.979
				s-1.78,3.977-4.235,3.977C62.914,96.617,61.119,94.967,61.119,92.641z M67.337,92.641c0-1.336-0.848-2.141-1.967-2.141
				c-1.12,0-1.981,0.805-1.981,2.141c0,1.334,0.861,2.139,1.981,2.139C66.489,94.779,67.337,93.975,67.337,92.641z M65.973,85.719
				h2.412l-2.599,2.068h-1.752L65.973,85.719z"/>
			<path fill="#1BBB9A" d="M78.549,88.777l-3.26,7.725h-2.312l-3.245-7.725h2.313l2.139,5.256l2.212-5.256H78.549z"/>
			<path fill="#1BBB9A" d="M79.193,86.451c0-0.703,0.561-1.248,1.393-1.248c0.833,0,1.394,0.516,1.394,1.205
				c0,0.748-0.561,1.293-1.394,1.293C79.754,87.701,79.193,87.156,79.193,86.451z M79.467,88.777h2.239v7.725h-2.239V88.777z"/>
			<path fill="#1BBB9A" d="M83.787,85.85h2.239v10.652h-2.239V85.85z"/>
		</g>
	</g>
	<g>
		<g>
			<g>
				<g>
					<path fill="#1BBB9A" d="M70.706,22.19h-8.71c-0.482,0-0.871,0.443-0.871,0.986c0,0.545,0.389,0.989,0.871,0.989h8.71
						c0.479,0,0.87-0.444,0.87-0.989C71.576,22.633,71.186,22.19,70.706,22.19z"/>
				</g>
			</g>
			<g>
				<g>
					<path fill="#1BBB9A" d="M76.801,22.19h-0.872c-0.479,0-0.87,0.443-0.87,0.986c0,0.545,0.392,0.989,0.87,0.989h0.872
						c0.481,0,0.87-0.444,0.87-0.989C77.671,22.633,77.282,22.19,76.801,22.19z"/>
				</g>
			</g>
			<g>
				<g>
					<path fill="#1BBB9A" d="M67.432,69.594h-2.164c-1.323,0-2.401,1.225-2.401,2.727v0.477c0,1.502,1.078,2.725,2.401,2.725h2.164
						c1.324,0,2.401-1.223,2.401-2.725V72.32C69.833,70.818,68.756,69.594,67.432,69.594z M68.091,72.797
						c0,0.416-0.296,0.748-0.659,0.748h-2.164c-0.363,0-0.658-0.332-0.658-0.748V72.32c0-0.412,0.294-0.748,0.658-0.748h2.164
						c0.363,0,0.659,0.334,0.659,0.748V72.797z"/>
				</g>
			</g>
			<g>
				<g>
					<path fill="#1BBB9A" d="M78.008,19.227H54.692c-1.735,0-3.147,1.602-3.147,3.571v52.116c0,1.967,1.412,3.57,3.147,3.57h23.313
						c1.737,0,3.149-1.604,3.149-3.568V22.798C81.155,20.829,79.743,19.227,78.008,19.227z M79.414,74.914
						c0,0.879-0.632,1.596-1.406,1.596H54.692c-0.775,0-1.406-0.717-1.406-1.594V22.798c0-0.88,0.631-1.595,1.406-1.595h23.313
						c0.776,0,1.408,0.715,1.408,1.595V74.914L79.414,74.914z"/>
				</g>
			</g>
			<g>
				<g>
					<path fill="#1BBB9A" d="M80.284,25.154H52.415c-0.479,0-0.87,0.441-0.87,0.986v41.479c0,0.545,0.391,0.988,0.87,0.988h27.869
						c0.48,0,0.871-0.443,0.871-0.988V26.14C81.155,25.595,80.765,25.154,80.284,25.154z M79.414,66.633H53.286V27.126h26.128
						V66.633z"/>
				</g>
			</g>
		</g>
	</g>
</g>
</svg>
