<?xml version="1.0" encoding="utf-8"?>
<!-- Generator: Adobe Illustrator 16.2.0, SVG Export Plug-In . SVG Version: 6.00 Build 0)  -->
<!DOCTYPE svg PUBLIC "-//W3C//DTD SVG 1.1//EN" "http://www.w3.org/Graphics/SVG/1.1/DTD/svg11.dtd">
<svg version="1.1" id="Capa_1" xmlns="http://www.w3.org/2000/svg" xmlns:xlink="http://www.w3.org/1999/xlink" x="0px" y="0px"
	 width="150px" height="199px" viewBox="0 0 150 199" enable-background="new 0 0 150 199" xml:space="preserve">
<g>
	<g>
		<g>
			<path fill="#1BBB9A" d="M147.88,87.689c-1.726-1.726-4.017-2.688-6.454-2.688h-16.418h-16.83H42.544H25.715h-9.078h-4.934h-1.16
				c-2.443,0-5.215,0.964-6.943,2.688c-1.723,1.727-3.1,4.091-3.1,6.529v8.995v1.771V189.8c0,2.438,1.377,4.792,3.1,6.519
				C5.329,198.044,8.1,199,10.543,199h1.16h4.934h9.628h16.839h65.767h16.835h15.722c2.438,0,4.729-0.956,6.454-2.684
				c1.724-1.726,2.62-4.077,2.62-6.518v-84.813v-1.772v-8.995C150.5,91.78,149.604,89.415,147.88,87.689z"/>
		</g>
		<g enable-background="new    ">
			<path fill="#FFFFFF" d="M28.445,135.48l-0.023-9.895l-4.854,8.151h-1.72l-4.83-7.939v9.683h-3.581v-16.492h3.157l6.173,10.249
				l6.078-10.249h3.134l0.047,16.492H28.445z"/>
			<path fill="#FFFFFF" d="M46.893,128.248v7.232h-3.439v-1.578c-0.684,1.154-2.003,1.767-3.864,1.767
				c-2.968,0-4.735-1.649-4.735-3.84c0-2.238,1.579-3.794,5.442-3.794h2.921c0-1.578-0.942-2.497-2.921-2.497
				c-1.343,0-2.733,0.448-3.652,1.179l-1.319-2.568c1.39-0.989,3.44-1.531,5.466-1.531
				C44.655,122.617,46.893,124.407,46.893,128.248z M43.218,131.476v-1.296h-2.521c-1.72,0-2.262,0.636-2.262,1.484
				c0,0.919,0.777,1.531,2.073,1.531C41.733,133.195,42.793,132.63,43.218,131.476z"/>
			<path fill="#FFFFFF" d="M63.173,128.225v7.256h-3.676v-6.691c0-2.049-0.942-2.991-2.568-2.991c-1.767,0-3.039,1.083-3.039,3.416
				v6.267h-3.675v-12.675h3.51v1.484c0.99-1.084,2.474-1.673,4.194-1.673C60.912,122.617,63.173,124.36,63.173,128.225z"/>
			<path fill="#FFFFFF" d="M74.671,134.868c-0.754,0.542-1.861,0.801-2.992,0.801c-2.992,0-4.735-1.531-4.735-4.547v-5.207h-1.956
				v-2.827h1.956v-3.086h3.675v3.086h3.157v2.827h-3.157v5.16c0,1.083,0.589,1.673,1.579,1.673c0.542,0,1.083-0.165,1.484-0.472
				L74.671,134.868z"/>
			<path fill="#FFFFFF" d="M88.689,130.18h-9.588c0.354,1.578,1.695,2.544,3.628,2.544c1.343,0,2.309-0.4,3.181-1.225l1.955,2.12
				c-1.178,1.343-2.945,2.05-5.23,2.05c-4.382,0-7.232-2.757-7.232-6.526c0-3.793,2.898-6.525,6.762-6.525
				c3.723,0,6.596,2.497,6.596,6.573C88.76,129.473,88.713,129.873,88.689,130.18z M79.055,128.035h6.242
				c-0.259-1.602-1.461-2.639-3.109-2.639C80.515,125.396,79.313,126.41,79.055,128.035z"/>
			<path fill="#FFFFFF" d="M104.17,128.225v7.256h-3.676v-6.691c0-2.049-0.943-2.991-2.568-2.991c-1.768,0-3.039,1.083-3.039,3.416
				v6.267h-3.676v-12.675h3.512v1.484c0.988-1.084,2.473-1.673,4.193-1.673C101.908,122.617,104.17,124.36,104.17,128.225z"/>
			<path fill="#FFFFFF" d="M120.709,122.806v10.555c0,4.712-2.545,6.879-7.115,6.879c-2.402,0-4.734-0.589-6.219-1.743l1.459-2.639
				c1.084,0.872,2.852,1.438,4.477,1.438c2.592,0,3.723-1.179,3.723-3.464v-0.542c-0.965,1.061-2.355,1.579-4.004,1.579
				c-3.512,0-6.338-2.427-6.338-6.126c0-3.698,2.826-6.125,6.338-6.125c1.766,0,3.227,0.589,4.193,1.813v-1.625H120.709z
				 M117.08,128.742c0-1.861-1.389-3.109-3.32-3.109c-1.934,0-3.346,1.248-3.346,3.109s1.412,3.11,3.346,3.11
				C115.691,131.853,117.08,130.604,117.08,128.742z"/>
			<path fill="#FFFFFF" d="M123.184,129.143c0-3.816,2.945-6.525,6.973-6.525c4.029,0,6.951,2.709,6.951,6.525
				c0,3.817-2.922,6.526-6.951,6.526C126.129,135.669,123.184,132.96,123.184,129.143z M133.385,129.143
				c0-2.19-1.391-3.51-3.229-3.51s-3.25,1.319-3.25,3.51c0,2.191,1.412,3.511,3.25,3.511S133.385,131.334,133.385,129.143z"/>
		</g>
		<g enable-background="new    ">
			<path fill="#FFFFFF" d="M49.863,158.452h-9.589c0.354,1.578,1.696,2.544,3.628,2.544c1.343,0,2.309-0.4,3.181-1.225l1.955,2.12
				c-1.178,1.343-2.945,2.05-5.23,2.05c-4.382,0-7.233-2.757-7.233-6.526c0-3.793,2.898-6.525,6.762-6.525
				c3.722,0,6.597,2.497,6.597,6.573C49.934,157.745,49.887,158.146,49.863,158.452z M40.228,156.308h6.243
				c-0.259-1.602-1.46-2.639-3.11-2.639C41.688,153.669,40.487,154.683,40.228,156.308z"/>
			<path fill="#FFFFFF" d="M52.385,146.271h3.675v17.481h-3.675V146.271z"/>
			<path fill="#FFFFFF" d="M64.919,162.575l1.225-2.639c1.131,0.73,2.851,1.225,4.406,1.225c1.696,0,2.333-0.447,2.333-1.154
				c0-2.073-7.657,0.047-7.657-5.018c0-2.403,2.167-4.1,5.866-4.1c1.744,0,3.676,0.4,4.877,1.107l-1.226,2.615
				c-1.249-0.707-2.497-0.943-3.652-0.943c-1.649,0-2.355,0.519-2.355,1.179c0,2.167,7.657,0.07,7.657,5.065
				c0,2.355-2.191,4.028-5.984,4.028C68.264,163.941,66.097,163.353,64.919,162.575z"/>
			<path fill="#FFFFFF" d="M84.098,158.782l-1.768,1.743v3.228h-3.676v-17.481h3.676v9.896l5.371-5.089h4.383l-5.277,5.371
				l5.748,7.304h-4.453L84.098,158.782z"/>
			<path fill="#FFFFFF" d="M93.663,147.261c0-1.154,0.919-2.049,2.286-2.049c1.365,0,2.285,0.848,2.285,1.979
				c0,1.226-0.92,2.12-2.285,2.12C94.582,149.311,93.663,148.416,93.663,147.261z M94.111,151.078h3.675v12.675h-3.675V151.078z"/>
			<path fill="#FFFFFF" d="M101.203,146.271h3.675v17.481h-3.675V146.271z"/>
			<path fill="#FFFFFF" d="M108.294,146.271h3.675v17.481h-3.675V146.271z"/>
		</g>
	</g>
	<g>
		<g>
			<g>
				<path fill="#2C3E50" d="M30.23,62.331c-1.891,1.265-3.136,3.421-3.136,5.862v9.533c0,3.888,3.159,7.052,7.042,7.052h7.296
					c0.898,3.13,3.782,5.427,7.195,5.427c4.128,0,7.485-3.361,7.485-7.491V63.21c0-4.131-3.357-7.493-7.485-7.493
					c-3.413,0-6.297,2.296-7.195,5.425h-7.218v-8.984c1.038,0.533,2.214,0.84,3.464,0.84c4.188,0,7.597-3.412,7.597-7.604
					c0-16.605,13.493-30.115,30.078-30.115c16.588,0,30.083,13.51,30.083,30.115c0,4.193,3.408,7.604,7.604,7.604
					c1.246,0,2.422-0.307,3.463-0.84v8.984h-7.227c-0.897-3.128-3.779-5.425-7.188-5.425c-4.128,0-7.484,3.362-7.484,7.493v19.504
					c0,4.13,3.356,7.491,7.484,7.491c1.202,0,2.339-0.288,3.348-0.794v1.28c0,3.181-2.578,5.769-5.752,5.769H87.186
					c-0.895-3.063-3.724-5.312-7.064-5.312h-8.646c-4.059,0-7.361,3.311-7.361,7.376s3.304,7.371,7.361,7.371h8.646
					c3.343,0,6.17-2.242,7.064-5.303h12.498c5.45,0,9.887-4.442,9.887-9.901v-5.913h7.004c3.887,0,7.047-3.164,7.047-7.052v-9.533
					c0-2.44-1.245-4.594-3.135-5.861c0.098-0.237,0.148-0.498,0.148-0.771v-16.17c0-10.351-3.611-20.489-10.176-28.552
					C103.99,8.894,94.977,3.313,85.076,1.126c-1.113-0.247-2.219,0.457-2.465,1.57c-0.244,1.114,0.457,2.219,1.574,2.464
					C102.912,9.3,116.5,26.22,116.5,45.39c0,1.913-1.555,3.47-3.463,3.47c-1.913,0-3.471-1.557-3.471-3.47
					c0-9.113-3.567-17.703-10.045-24.188c-6.479-6.489-15.063-10.063-24.171-10.063c-9.102,0-17.684,3.573-24.164,10.063
					c-6.479,6.484-10.049,15.076-10.049,24.188c0,1.913-1.554,3.47-3.462,3.47c-1.912,0-3.464-1.557-3.464-3.47
					c0-19.171,13.591-36.091,32.316-40.23c1.113-0.247,1.816-1.35,1.57-2.464c-0.246-1.113-1.349-1.817-2.465-1.57
					c-9.896,2.188-18.914,7.769-25.381,15.713C33.689,24.9,30.073,35.04,30.073,45.391v16.171
					C30.08,61.833,30.136,62.092,30.23,62.331L30.23,62.331z M83.35,98.524c0,1.787-1.449,3.236-3.229,3.236h-8.646
					c-1.78,0-3.229-1.449-3.229-3.236c0-1.787,1.449-3.239,3.229-3.239h8.646C81.898,95.284,83.35,96.737,83.35,98.524z
					 M116.572,80.646h-7.004V65.273h7.004c1.607,0,2.914,1.313,2.914,2.92v9.533C119.486,79.335,118.182,80.646,116.572,80.646z
					 M105.438,63.209v19.504c0,1.851-1.502,3.357-3.348,3.357c-1.85,0-3.352-1.508-3.352-3.357V63.209
					c0-1.854,1.502-3.358,3.352-3.358C103.936,59.851,105.438,61.356,105.438,63.209z M45.275,82.713V63.209
					c0-1.854,1.504-3.358,3.354-3.358c1.847,0,3.353,1.505,3.353,3.358v19.504c0,1.851-1.506,3.357-3.353,3.357
					C46.779,86.071,45.275,84.563,45.275,82.713z M31.23,68.193c0-1.607,1.305-2.92,2.906-2.92h7.004v15.373h-7.004
					c-1.603,0-2.906-1.312-2.906-2.92V68.193z"/>
				<path fill="#2C3E50" d="M77.43,2.135c0-1.141-0.922-2.066-2.062-2.066h-0.014c-1.142,0-2.066,0.926-2.066,2.066
					c0,1.14,0.926,2.067,2.066,2.067C76.499,4.202,77.43,3.275,77.43,2.135z"/>
			</g>
		</g>
	</g>
</g>
</svg>
