<?xml version="1.0" encoding="utf-8"?>
<!-- Generator: Adobe Illustrator 16.2.0, SVG Export Plug-In . SVG Version: 6.00 Build 0)  -->
<!DOCTYPE svg PUBLIC "-//W3C//DTD SVG 1.1//EN" "http://www.w3.org/Graphics/SVG/1.1/DTD/svg11.dtd">
<svg version="1.1" id="Capa_1" xmlns="http://www.w3.org/2000/svg" xmlns:xlink="http://www.w3.org/1999/xlink" x="0px" y="0px"
	 width="166px" height="139px" viewBox="0 0 166 139" enable-background="new 0 0 166 139" xml:space="preserve">
<g>
	<g>
		<g>
			<path fill="#169F85" d="M17.196,12.156h-5.473h-1.287c-2.705,0-5.354,1.093-7.271,3.006c-1.908,1.914-3.008,4.56-3.008,7.265
				v11.938h165.684V22.426c0-2.705-1.102-5.351-3.014-7.265s-4.559-3.006-7.266-3.006h-17.43v13.449c0,2.51-2.034,4.545-4.546,4.545
				h-9.58c-2.511,0-4.543-2.035-4.543-4.545V12.156H46.542v13.449c0,2.51-2.037,4.545-4.545,4.545h-9.584
				c-2.512,0-4.541-2.035-4.541-4.545V12.156H17.196z"/>
			<polygon fill="#2A80B8" points="32.412,25.604 41.996,25.604 41.996,12.156 41.996,0.321 32.412,0.321 32.412,12.156 			"/>
			<polygon fill="#2A80B8" points="124.007,25.604 133.587,25.604 133.587,12.156 133.587,0.321 124.007,0.321 124.007,12.156 			
				"/>
			<path fill="#1BBB9A" d="M17.196,138.68h-5.473h-1.287c-2.705,0-5.354-1.096-7.271-3.01c-1.908-1.914-3.008-4.561-3.008-7.264
				V39.863h165.684v88.543c0,2.703-1.102,5.35-3.014,7.264s-4.559,3.01-7.266,3.01h-17.43h-18.67H46.541H27.872H17.196z"/>
		</g>
	</g>
	<g>
		<path fill="#FFFFFF" d="M53.413,79.646l-0.026-10.972l-5.381,9.039h-1.907l-5.354-8.804v10.735h-3.972V61.359h3.502l6.844,11.363
			l6.74-11.363h3.475l0.052,18.286L53.413,79.646L53.413,79.646z"/>
		<path fill="#FFFFFF" d="M73.869,71.628v8.02h-3.814v-1.75c-0.757,1.28-2.22,1.959-4.283,1.959c-3.292,0-5.251-1.829-5.251-4.258
			c0-2.48,1.75-4.206,6.034-4.206h3.239c0-1.75-1.045-2.769-3.239-2.769c-1.489,0-3.03,0.497-4.049,1.306l-1.463-2.848
			c1.541-1.098,3.813-1.698,6.061-1.698C71.388,65.384,73.869,67.37,73.869,71.628z M69.794,75.207v-1.438h-2.795
			c-1.907,0-2.508,0.705-2.508,1.646c0,1.019,0.861,1.696,2.299,1.696C68.149,77.112,69.324,76.485,69.794,75.207z M68.331,63.791
			h-3.188l3.526-3.763h4.389L68.331,63.791z"/>
		<path fill="#FFFFFF" d="M76.194,78.342l1.357-2.926c1.254,0.81,3.161,1.356,4.885,1.356c1.881,0,2.586-0.496,2.586-1.278
			c0-2.3-8.488,0.052-8.488-5.564c0-2.665,2.402-4.545,6.505-4.545c1.933,0,4.074,0.444,5.407,1.228l-1.358,2.899
			c-1.385-0.784-2.771-1.045-4.049-1.045c-1.829,0-2.613,0.575-2.613,1.306c0,2.403,8.49,0.079,8.49,5.617
			c0,2.612-2.43,4.467-6.635,4.467C79.904,79.855,77.5,79.203,76.194,78.342z"/>
		<path fill="#FFFFFF" d="M113.134,60.264v19.383h-3.893v-1.62c-1.02,1.229-2.508,1.829-4.39,1.829c-3.971,0-7.025-2.82-7.025-7.235
			s3.056-7.236,7.025-7.236c1.726,0,3.188,0.548,4.206,1.698v-6.818H113.134z M109.137,72.62c0-2.43-1.566-3.893-3.578-3.893
			c-2.038,0-3.604,1.463-3.604,3.893s1.566,3.893,3.604,3.893C107.569,76.513,109.137,75.05,109.137,72.62z"/>
		<path fill="#FFFFFF" d="M130.585,73.77h-10.632c0.392,1.75,1.881,2.821,4.021,2.821c1.489,0,2.562-0.444,3.526-1.358l2.169,2.353
			c-1.307,1.487-3.266,2.271-5.8,2.271c-4.858,0-8.021-3.057-8.021-7.235c0-4.206,3.213-7.236,7.497-7.236
			c4.128,0,7.314,2.769,7.314,7.289C130.663,72.985,130.611,73.43,130.585,73.77z M119.899,71.393h6.924
			c-0.287-1.775-1.62-2.926-3.448-2.926C121.521,68.467,120.188,69.59,119.899,71.393z"/>
		<path fill="#FFFFFF" d="M42.52,101.462c0,6.322-3.788,9.849-9.325,9.849c-1.935,0-3.788-0.443-5.068-1.254l1.567-3.107
			c0.992,0.679,2.169,0.913,3.423,0.913c3.028,0,5.016-1.803,5.146-5.328c-1.07,1.07-2.638,1.646-4.545,1.646
			c-3.525,0-6.296-2.246-6.296-5.694c0-3.735,3.057-6.087,6.923-6.087C39.41,92.396,42.52,95.559,42.52,101.462z M37.791,98.274
			c0-1.566-1.176-2.717-3.188-2.717c-1.803,0-3.057,1.045-3.057,2.717s1.229,2.742,3.109,2.742
			C36.511,101.018,37.791,99.869,37.791,98.274z"/>
		<path fill="#FFFFFF" d="M76.559,102.951v8.046h-4.074v-7.419c0-2.272-1.02-3.317-2.665-3.317c-1.828,0-3.108,1.175-3.108,3.683
			v7.055h-4.075v-7.419c0-2.272-0.967-3.317-2.664-3.317c-1.803,0-3.083,1.175-3.083,3.683v7.055h-4.075V96.944h3.894v1.619
			c1.045-1.201,2.612-1.828,4.414-1.828c1.96,0,3.632,0.758,4.624,2.3c1.124-1.438,2.952-2.3,5.068-2.3
			C74.155,96.733,76.559,98.667,76.559,102.951z"/>
		<path fill="#FFFFFF" d="M94.063,105.119H83.431c0.393,1.75,1.881,2.82,4.022,2.82c1.489,0,2.561-0.443,3.526-1.357l2.168,2.352
			c-1.307,1.488-3.266,2.272-5.8,2.272c-4.857,0-8.02-3.058-8.02-7.236c0-4.206,3.213-7.235,7.497-7.235
			c4.128,0,7.313,2.77,7.313,7.288C94.141,104.336,94.089,104.778,94.063,105.119z M83.378,102.742h6.923
			c-0.287-1.776-1.619-2.927-3.448-2.927C84.998,99.815,83.666,100.938,83.378,102.742z"/>
		<path fill="#FFFFFF" d="M95.501,109.69l1.357-2.926c1.255,0.811,3.161,1.357,4.886,1.357c1.881,0,2.586-0.496,2.586-1.279
			c0-2.299-8.489,0.052-8.489-5.564c0-2.663,2.403-4.545,6.505-4.545c1.934,0,4.074,0.443,5.407,1.229l-1.358,2.898
			c-1.385-0.782-2.77-1.045-4.049-1.045c-1.829,0-2.612,0.574-2.612,1.308c0,2.401,8.489,0.078,8.489,5.615
			c0,2.612-2.43,4.468-6.635,4.468C99.211,111.206,96.807,110.553,95.501,109.69z"/>
		<path fill="#FFFFFF" d="M124.42,105.119h-10.632c0.392,1.75,1.881,2.82,4.021,2.82c1.489,0,2.562-0.443,3.527-1.357l2.168,2.352
			c-1.307,1.488-3.266,2.272-5.8,2.272c-4.858,0-8.021-3.058-8.021-7.236c0-4.206,3.213-7.235,7.497-7.235
			c4.128,0,7.314,2.77,7.314,7.288C124.498,104.336,124.446,104.778,124.42,105.119z M113.735,102.742h6.923
			c-0.287-1.776-1.619-2.927-3.448-2.927C115.356,99.815,114.024,100.938,113.735,102.742z"/>
		<path fill="#FFFFFF" d="M125.856,109.69l1.358-2.926c1.254,0.811,3.161,1.357,4.885,1.357c1.881,0,2.587-0.496,2.587-1.279
			c0-2.299-8.489,0.052-8.489-5.564c0-2.663,2.402-4.545,6.504-4.545c1.934,0,4.076,0.443,5.408,1.229l-1.358,2.898
			c-1.385-0.782-2.77-1.045-4.05-1.045c-1.828,0-2.611,0.574-2.611,1.308c0,2.401,8.489,0.078,8.489,5.615
			c0,2.612-2.429,4.468-6.635,4.468C129.565,111.206,127.164,110.553,125.856,109.69z"/>
	</g>
</g>
</svg>
