<?xml version="1.0" encoding="utf-8"?>
<!-- Generator: Adobe Illustrator 16.2.0, SVG Export Plug-In . SVG Version: 6.00 Build 0)  -->
<!DOCTYPE svg PUBLIC "-//W3C//DTD SVG 1.1//EN" "http://www.w3.org/Graphics/SVG/1.1/DTD/svg11.dtd">
<svg version="1.1" id="Capa_1" xmlns="http://www.w3.org/2000/svg" xmlns:xlink="http://www.w3.org/1999/xlink" x="0px" y="0px"
	 width="133px" height="133px" viewBox="0 0 133 133" enable-background="new 0 0 133 133" xml:space="preserve">
<g>
	
		<circle fill="#FFFFFF" stroke="#4F4F4F" stroke-width="3" stroke-miterlimit="10" stroke-dasharray="6" cx="66.5" cy="66.5" r="64.601"/>
	<g>
		<g>
			<path fill="#1BBB9A" d="M19.071,89.682c0-3.029,2.326-5.197,5.457-5.197c1.737,0,3.188,0.631,4.135,1.781l-1.493,1.377
				c-0.675-0.775-1.522-1.178-2.527-1.178c-1.881,0-3.216,1.322-3.216,3.217c0,1.896,1.335,3.217,3.216,3.217
				c1.005,0,1.853-0.402,2.527-1.191l1.493,1.379c-0.947,1.162-2.397,1.793-4.149,1.793C21.397,94.879,19.071,92.711,19.071,89.682z
				"/>
			<path fill="#1BBB9A" d="M29.221,90.846c0-2.326,1.794-3.979,4.25-3.979c2.455,0,4.235,1.652,4.235,3.979s-1.78,3.977-4.235,3.977
				C31.015,94.822,29.221,93.172,29.221,90.846z M35.438,90.846c0-1.336-0.848-2.141-1.967-2.141c-1.12,0-1.981,0.805-1.981,2.141
				c0,1.334,0.861,2.139,1.981,2.139C34.59,92.984,35.438,92.18,35.438,90.846z"/>
			<path fill="#1BBB9A" d="M47.095,90.285v4.422h-2.239v-4.078c0-1.248-0.574-1.822-1.565-1.822c-1.077,0-1.853,0.66-1.853,2.082
				v3.818h-2.239v-7.725h2.139v0.904c0.604-0.66,1.508-1.02,2.557-1.02C45.717,86.867,47.095,87.93,47.095,90.285z"/>
			<path fill="#1BBB9A" d="M56.642,86.982l-3.26,7.725h-2.312l-3.245-7.725h2.313l2.139,5.256l2.212-5.256H56.642z"/>
			<path fill="#1BBB9A" d="M64.868,91.477h-5.844c0.215,0.963,1.034,1.551,2.211,1.551c0.818,0,1.407-0.244,1.938-0.746l1.191,1.291
				c-0.718,0.82-1.794,1.25-3.188,1.25c-2.67,0-4.407-1.68-4.407-3.977c0-2.313,1.766-3.979,4.12-3.979
				c2.269,0,4.021,1.523,4.021,4.006C64.911,91.047,64.882,91.291,64.868,91.477z M58.995,90.17H62.8
				c-0.158-0.977-0.891-1.607-1.896-1.607C59.885,88.563,59.153,89.18,58.995,90.17z"/>
			<path fill="#1BBB9A" d="M71.197,86.867v2.068c-0.186-0.014-0.33-0.029-0.502-0.029c-1.234,0-2.053,0.676-2.053,2.154v3.646h-2.24
				v-7.725h2.138v1.02C69.088,87.256,70.006,86.867,71.197,86.867z"/>
			<path fill="#1BBB9A" d="M80.43,86.982v6.434c0,2.871-1.551,4.191-4.336,4.191c-1.465,0-2.887-0.359-3.791-1.063l0.889-1.607
				c0.662,0.531,1.738,0.875,2.729,0.875c1.58,0,2.27-0.717,2.27-2.109v-0.33c-0.59,0.645-1.436,0.961-2.441,0.961
				c-2.139,0-3.863-1.479-3.863-3.732s1.725-3.734,3.863-3.734c1.076,0,1.967,0.359,2.557,1.105v-0.99H80.43z M78.219,90.602
				c0-1.135-0.848-1.896-2.025-1.896s-2.039,0.762-2.039,1.896c0,1.133,0.861,1.895,2.039,1.895S78.219,91.734,78.219,90.602z"/>
			<path fill="#1BBB9A" d="M90.033,91.477h-5.844c0.215,0.963,1.033,1.551,2.211,1.551c0.818,0,1.406-0.244,1.938-0.746l1.191,1.291
				c-0.717,0.82-1.793,1.25-3.188,1.25c-2.67,0-4.408-1.68-4.408-3.977c0-2.313,1.768-3.979,4.121-3.979
				c2.27,0,4.021,1.523,4.021,4.006C90.076,91.047,90.047,91.291,90.033,91.477z M84.16,90.17h3.805
				c-0.158-0.977-0.891-1.607-1.895-1.607C85.051,88.563,84.318,89.18,84.16,90.17z"/>
			<path fill="#1BBB9A" d="M99.465,90.285v4.422h-2.24v-4.078c0-1.248-0.574-1.822-1.564-1.822c-1.078,0-1.854,0.66-1.854,2.082
				v3.818h-2.238v-7.725h2.139v0.904c0.604-0.66,1.508-1.02,2.557-1.02C98.086,86.867,99.465,87.93,99.465,90.285z"/>
			<path fill="#1BBB9A" d="M106.471,94.334c-0.461,0.33-1.135,0.488-1.824,0.488c-1.824,0-2.887-0.934-2.887-2.771v-3.172h-1.191
				v-1.725h1.191v-1.881H104v1.881h1.924v1.725H104v3.145c0,0.66,0.359,1.018,0.963,1.018c0.33,0,0.66-0.1,0.904-0.287
				L106.471,94.334z"/>
			<path fill="#1BBB9A" d="M115.012,91.477h-5.844c0.215,0.963,1.035,1.551,2.211,1.551c0.818,0,1.408-0.244,1.939-0.746
				l1.191,1.291c-0.719,0.82-1.795,1.25-3.188,1.25c-2.67,0-4.408-1.68-4.408-3.977c0-2.313,1.766-3.979,4.121-3.979
				c2.268,0,4.02,1.523,4.02,4.006C115.055,91.047,115.027,91.291,115.012,91.477z M109.139,90.17h3.807
				c-0.158-0.977-0.891-1.607-1.896-1.607C110.029,88.563,109.297,89.18,109.139,90.17z"/>
		</g>
	</g>
	<g>
		<g>
			<g>
				<g>
					<g>
						<path fill="#1BBB9A" d="M99.082,39.208l-5.693-0.683c-0.314-0.039-0.604,0.222-0.648,0.578
							c-0.039,0.357,0.18,0.675,0.492,0.714l5.695,0.681c0.313,0.036,0.602-0.223,0.646-0.578
							C99.617,39.566,99.396,39.245,99.082,39.208z"/>
					</g>
				</g>
				<g>
					<g>
						<path fill="#1BBB9A" d="M103.064,39.685l-0.568-0.07c-0.313-0.035-0.604,0.222-0.648,0.578
							c-0.041,0.354,0.18,0.675,0.492,0.713l0.57,0.068c0.314,0.039,0.605-0.221,0.646-0.578
							C103.598,40.042,103.381,39.721,103.064,39.685z"/>
					</g>
				</g>
				<g>
					<g>
						<path fill="#1BBB9A" d="M93.232,69.934l-1.414-0.168c-0.865-0.104-1.666,0.611-1.783,1.596l-0.039,0.309
							c-0.117,0.982,0.494,1.865,1.357,1.969l1.414,0.17c0.865,0.104,1.666-0.615,1.781-1.594l0.039-0.311
							C94.705,70.924,94.096,70.039,93.232,69.934z M93.412,72.08c-0.035,0.27-0.252,0.467-0.488,0.436l-1.416-0.166
							c-0.238-0.031-0.406-0.271-0.373-0.543l0.037-0.313c0.033-0.268,0.252-0.465,0.49-0.438l1.414,0.17
							c0.238,0.029,0.404,0.271,0.373,0.541L93.412,72.08z"/>
					</g>
				</g>
				<g>
					<g>
						<path fill="#1BBB9A" d="M104.086,37.841l-15.238-1.826c-1.135-0.138-2.184,0.803-2.338,2.088l-4.078,34.065
							c-0.154,1.285,0.643,2.443,1.777,2.578l15.238,1.826c1.135,0.137,2.184-0.803,2.336-2.084l4.082-34.064
							C106.02,39.136,105.219,37.978,104.086,37.841z M100.646,74.352c-0.068,0.574-0.537,0.992-1.045,0.932l-15.238-1.826
							c-0.508-0.059-0.863-0.578-0.795-1.152l4.08-34.065c0.07-0.573,0.537-0.99,1.043-0.932l15.24,1.823
							c0.508,0.063,0.863,0.578,0.793,1.156L100.646,74.352L100.646,74.352z"/>
					</g>
				</g>
				<g>
					<g>
						<path fill="#1BBB9A" d="M105.111,41.893l-18.217-2.181c-0.313-0.038-0.605,0.221-0.645,0.579L83,67.4
							c-0.039,0.355,0.18,0.676,0.494,0.715l18.215,2.182c0.313,0.037,0.604-0.221,0.646-0.58l3.246-27.113
							C105.645,42.254,105.424,41.931,105.111,41.893z M101.295,68.936l-17.076-2.042l3.092-25.824l17.074,2.047L101.295,68.936z"/>
					</g>
				</g>
			</g>
		</g>
		<g>
			<g>
				<path fill="#1BBB9A" d="M34.373,69.096c-0.231,0.23-0.231,0.607,0,0.846c0.235,0.229,0.612,0.229,0.844,0
					c0.232-0.238,0.232-0.615,0-0.846C34.985,68.865,34.608,68.865,34.373,69.096z"/>
				<path fill="#1BBB9A" d="M49.659,68.059l-4.524-3.846c-0.022-0.018-0.044-0.032-0.068-0.047c-1.186-0.757-2.709-0.59-3.706,0.405
					l-2.467,2.468c-0.171,0.17-0.428,0.221-0.648,0.127c-2.787-1.15-5.073-2.885-6.804-5.154c-1.317-1.729-1.792-3.107-1.854-3.298
					c-0.01-0.044-0.021-0.087-0.039-0.124c-0.09-0.224-0.041-0.48,0.132-0.648l2.467-2.47c0.994-0.997,1.164-2.519,0.407-3.706
					c-0.005-0.009-0.013-0.02-0.018-0.028l-3.271-4.541c-1.026-1.595-3.268-1.838-4.612-0.492l-0.493,0.494l0,0l-1.766,1.767
					c-2.101,2.103-2.446,5.261-0.996,9.141c1.247,3.319,3.737,6.954,7.016,10.23c3.354,3.357,7.089,5.896,10.512,7.146
					c3.385,1.234,6.99,1.391,9.54-1.16l1.662-1.664C51.467,71.318,51.233,69.096,49.659,68.059z M44.395,65.151l4.521,3.845
					c0.021,0.018,0.042,0.031,0.066,0.045c0.966,0.617,1.111,1.965,0.303,2.771l-0.122,0.125l-7.713-5.77l0.752-0.754
					C42.792,64.827,43.687,64.723,44.395,65.151z M28.271,47.851c0.005,0.013,0.011,0.018,0.02,0.029l3.267,4.539
					c0.443,0.713,0.34,1.617-0.254,2.214l-0.729,0.725l-5.218-7.67l0.142-0.139C26.308,46.736,27.658,46.891,28.271,47.851z
					 M39.336,74.365c-3.265-1.195-6.843-3.633-10.08-6.869c-3.162-3.162-5.554-6.644-6.738-9.81c-0.891-2.374-1.49-5.673,0.72-7.879
					l1.262-1.263l5.217,7.674l-0.882,0.88c-0.498,0.5-0.654,1.236-0.405,1.897c0.188,0.772,1.054,2.377,1.929,3.555
					c1.283,1.738,3.615,4.141,7.431,5.721c0.67,0.275,1.436,0.123,1.947-0.391l0.863-0.863l7.713,5.775l-0.691,0.688
					C45.253,75.848,41.806,75.268,39.336,74.365z"/>
				<path fill="#1BBB9A" d="M33.256,67.674c-0.629-0.553-1.717-1.503-2.292-2.092c-1.406-1.443-2.883-3.195-3.759-4.463
					c-0.189-0.271-0.559-0.337-0.831-0.153c-0.271,0.189-0.336,0.561-0.148,0.831c1.106,1.599,2.73,3.432,3.886,4.616
					c0.604,0.623,1.701,1.582,2.359,2.156c0.247,0.217,0.622,0.193,0.84-0.055S33.503,67.891,33.256,67.674z"/>
			</g>
		</g>
		<g>
			<g>
				<path fill="#1BBB9A" d="M79.789,36.106H53.82c-0.324,0-0.588,0.264-0.588,0.589c0,0.321,0.264,0.582,0.588,0.582h25.969
					c1.42,0,2.58,1.16,2.58,2.581v20.849c0,1.425-1.16,2.579-2.58,2.579H47.845c-1.422,0-2.58-1.154-2.58-2.579V39.858
					c0-1.421,1.158-2.581,2.58-2.581h3.63c0.326,0,0.585-0.261,0.585-0.582c0-0.325-0.259-0.589-0.585-0.589h-3.63
					c-2.067,0-3.752,1.683-3.752,3.752v20.849c0,2.071,1.685,3.75,3.752,3.75h9.422l-1.146,3.754h-2.152
					c-1.097,0-1.992,0.895-1.992,1.99c0,1.098,0.896,1.994,1.992,1.994h19.698c1.098,0,1.992-0.896,1.992-1.994
					c0-1.096-0.895-1.99-1.992-1.99h-2.152l-1.146-3.754h9.422c2.068,0,3.752-1.679,3.752-3.75V39.858
					C83.541,37.789,81.857,36.106,79.789,36.106z M74.486,70.201c0,0.451-0.369,0.82-0.82,0.82H53.968
					c-0.453,0-0.821-0.369-0.821-0.82c0-0.453,0.368-0.82,0.821-0.82h19.698C74.117,69.381,74.486,69.748,74.486,70.201z
					 M70.289,68.211H57.345l1.146-3.754h10.65L70.289,68.211z"/>
				<path fill="#1BBB9A" d="M79.83,55.175c0.324,0,0.584-0.259,0.584-0.585V39.858c0-0.347-0.277-0.629-0.625-0.629H47.845
					c-0.345,0-0.627,0.282-0.627,0.629v19.096c0,0.321,0.263,0.586,0.585,0.586H79.83c0.324,0,0.584-0.265,0.584-0.586v-2.019
					c0-0.326-0.26-0.588-0.584-0.588s-0.584,0.262-0.584,0.588v1.432H48.39V40.4h30.856v14.19
					C79.246,54.917,79.506,55.175,79.83,55.175z"/>
				<path fill="#1BBB9A" d="M64.304,60.984c-0.128-0.196-0.375-0.295-0.602-0.249c-0.251,0.049-0.444,0.263-0.468,0.519
					c-0.051,0.528,0.604,0.847,0.989,0.479C64.425,61.538,64.458,61.22,64.304,60.984z"/>
			</g>
		</g>
	</g>
</g>
</svg>
