<?xml version="1.0" encoding="utf-8"?>
<!-- Generator: Adobe Illustrator 16.2.0, SVG Export Plug-In . SVG Version: 6.00 Build 0)  -->
<!DOCTYPE svg PUBLIC "-//W3C//DTD SVG 1.1//EN" "http://www.w3.org/Graphics/SVG/1.1/DTD/svg11.dtd">
<svg version="1.1" id="Capa_1" xmlns="http://www.w3.org/2000/svg" xmlns:xlink="http://www.w3.org/1999/xlink" x="0px" y="0px"
	 width="166px" height="139px" viewBox="0 0 166 139" enable-background="new 0 0 166 139" xml:space="preserve">
<g>
	<g>
		<path fill="#169F85" d="M17.196,12.156h-5.473h-1.287c-2.705,0-5.354,1.093-7.271,3.006c-1.908,1.914-3.008,4.56-3.008,7.265
			v11.938h165.684V22.426c0-2.705-1.102-5.351-3.014-7.265s-4.559-3.006-7.266-3.006h-17.43v13.449c0,2.51-2.034,4.545-4.546,4.545
			h-9.58c-2.511,0-4.543-2.035-4.543-4.545V12.156H46.542v13.449c0,2.51-2.037,4.545-4.545,4.545h-9.584
			c-2.512,0-4.541-2.035-4.541-4.545V12.156H17.196z"/>
		<polygon fill="#2A80B8" points="32.412,25.604 41.996,25.604 41.996,12.156 41.996,0.321 32.412,0.321 32.412,12.156 		"/>
		<polygon fill="#2A80B8" points="124.007,25.604 133.587,25.604 133.587,12.156 133.587,0.321 124.007,0.321 124.007,12.156 		"/>
		<path fill="#1BBB9A" d="M17.196,138.68h-5.473h-1.287c-2.705,0-5.354-1.096-7.271-3.01c-1.908-1.914-3.008-4.561-3.008-7.264
			V39.863h165.684v88.543c0,2.703-1.102,5.35-3.014,7.264s-4.559,3.01-7.266,3.01h-17.43h-18.67H46.541H27.872H17.196z"/>
	</g>
	<g>
		<path fill="#FFFFFF" d="M37.314,79.373l-0.026-10.971l-5.381,9.04H30l-5.354-8.804v10.736h-3.971V61.086h3.501l6.844,11.363
			l6.74-11.363h3.474l0.052,18.287H37.314L37.314,79.373z"/>
		<path fill="#FFFFFF" d="M59.023,73.496H48.392c0.392,1.75,1.881,2.822,4.022,2.822c1.489,0,2.561-0.445,3.526-1.359l2.168,2.354
			c-1.306,1.486-3.265,2.271-5.799,2.271c-4.859,0-8.021-3.057-8.021-7.236c0-4.206,3.214-7.236,7.498-7.236
			c4.127,0,7.314,2.769,7.314,7.289C59.103,72.713,59.05,73.156,59.023,73.496z M48.34,71.119h6.922
			c-0.288-1.775-1.62-2.925-3.448-2.925C49.958,68.194,48.627,69.317,48.34,71.119z"/>
		<path fill="#FFFFFF" d="M76.188,71.328v8.047h-4.075v-7.42c0-2.271-1.045-3.316-2.847-3.316c-1.959,0-3.37,1.2-3.37,3.789v6.947
			H61.82V65.321h3.894v1.646c1.097-1.201,2.742-1.854,4.648-1.854C73.68,65.111,76.188,67.043,76.188,71.328z"/>
		<path fill="#FFFFFF" d="M78.984,72.348c0-4.232,3.266-7.237,7.732-7.237c4.466,0,7.706,3.004,7.706,7.237
			c0,4.23-3.239,7.234-7.706,7.234C82.249,79.582,78.984,76.58,78.984,72.348z M90.296,72.348c0-2.43-1.542-3.893-3.579-3.893
			s-3.605,1.463-3.605,3.893c0,2.43,1.567,3.893,3.605,3.893S90.296,74.777,90.296,72.348z"/>
		<path fill="#FFFFFF" d="M95.783,78.068l1.357-2.926c1.254,0.811,3.161,1.357,4.885,1.357c1.881,0,2.586-0.496,2.586-1.279
			c0-2.299-8.49,0.053-8.49-5.564c0-2.665,2.403-4.545,6.506-4.545c1.933,0,4.074,0.444,5.406,1.228l-1.357,2.899
			c-1.385-0.784-2.77-1.045-4.049-1.045c-1.829,0-2.612,0.575-2.612,1.306c0,2.403,8.49,0.079,8.49,5.618
			c0,2.611-2.431,4.467-6.636,4.467C99.492,79.582,97.089,78.93,95.783,78.068z"/>
		<path fill="#FFFFFF" d="M132.722,59.991v19.382h-3.894v-1.619c-1.019,1.229-2.508,1.828-4.389,1.828
			c-3.971,0-7.027-2.82-7.027-7.234c0-4.416,3.057-7.237,7.027-7.237c1.725,0,3.188,0.548,4.206,1.698v-6.818H132.722z
			 M128.725,72.348c0-2.43-1.566-3.893-3.579-3.893c-2.038,0-3.604,1.463-3.604,3.893c0,2.43,1.566,3.893,3.604,3.893
			C127.158,76.24,128.725,74.777,128.725,72.348z"/>
		<path fill="#FFFFFF" d="M150.173,73.496h-10.632c0.392,1.75,1.881,2.822,4.021,2.822c1.489,0,2.561-0.445,3.527-1.359l2.168,2.354
			c-1.307,1.486-3.266,2.271-5.801,2.271c-4.857,0-8.02-3.057-8.02-7.236c0-4.206,3.213-7.236,7.497-7.236
			c4.128,0,7.313,2.769,7.313,7.289C150.25,72.713,150.199,73.156,150.173,73.496z M139.488,71.119h6.924
			c-0.287-1.775-1.621-2.925-3.448-2.925C141.109,68.194,139.775,69.317,139.488,71.119z"/>
		<path fill="#FFFFFF" d="M43.755,105.133c0,3.082-2.377,5.904-7.576,5.904c-2.561,0-5.198-0.705-6.976-1.959l1.646-3.24
			c1.385,1.045,3.316,1.646,5.225,1.646c2.116,0,3.422-0.861,3.422-2.352c0-1.385-1.019-2.246-3.422-2.246h-1.933v-2.795
			l3.762-4.258h-7.785v-3.396h12.801v2.744l-4.128,4.701C42.082,100.406,43.755,102.443,43.755,105.133z"/>
		<path fill="#FFFFFF" d="M77.716,102.678v8.047h-4.075v-7.42c0-2.271-1.02-3.316-2.665-3.316c-1.828,0-3.108,1.174-3.108,3.682
			v7.055h-4.075v-7.418c0-2.273-0.967-3.318-2.664-3.318c-1.803,0-3.083,1.176-3.083,3.684v7.055H53.97V96.672h3.893v1.619
			c1.045-1.201,2.612-1.828,4.415-1.828c1.959,0,3.631,0.758,4.624,2.299c1.124-1.438,2.952-2.299,5.068-2.299
			C75.313,96.461,77.716,98.395,77.716,102.678z"/>
		<path fill="#FFFFFF" d="M95.22,104.846H84.588c0.392,1.75,1.881,2.82,4.021,2.82c1.489,0,2.562-0.443,3.527-1.357l2.168,2.352
			c-1.307,1.488-3.266,2.273-5.8,2.273c-4.858,0-8.021-3.059-8.021-7.236c0-4.207,3.213-7.236,7.497-7.236
			c4.128,0,7.314,2.77,7.314,7.289C95.298,104.063,95.246,104.506,95.22,104.846z M84.535,102.469h6.922
			c-0.286-1.775-1.619-2.926-3.447-2.926C86.156,99.543,84.822,100.666,84.535,102.469z"/>
		<path fill="#FFFFFF" d="M96.658,109.418l1.357-2.926c1.254,0.811,3.161,1.357,4.885,1.357c1.881,0,2.586-0.496,2.586-1.279
			c0-2.299-8.49,0.051-8.49-5.564c0-2.664,2.403-4.545,6.506-4.545c1.933,0,4.074,0.443,5.406,1.229l-1.357,2.898
			c-1.385-0.783-2.77-1.045-4.049-1.045c-1.829,0-2.612,0.574-2.612,1.307c0,2.402,8.49,0.078,8.49,5.615
			c0,2.613-2.431,4.469-6.636,4.469C100.367,110.934,97.964,110.279,96.658,109.418z"/>
		<path fill="#FFFFFF" d="M125.576,104.846h-10.631c0.392,1.75,1.881,2.82,4.022,2.82c1.489,0,2.56-0.443,3.526-1.357l2.168,2.352
			c-1.307,1.488-3.266,2.273-5.799,2.273c-4.859,0-8.021-3.059-8.021-7.236c0-4.207,3.213-7.236,7.498-7.236
			c4.127,0,7.313,2.77,7.313,7.289C125.656,104.063,125.603,104.506,125.576,104.846z M114.893,102.469h6.922
			c-0.287-1.775-1.619-2.926-3.447-2.926C116.512,99.543,115.18,100.666,114.893,102.469z"/>
		<path fill="#FFFFFF" d="M127.015,109.418l1.358-2.926c1.254,0.811,3.16,1.357,4.885,1.357c1.881,0,2.586-0.496,2.586-1.279
			c0-2.299-8.49,0.051-8.49-5.564c0-2.664,2.403-4.545,6.504-4.545c1.934,0,4.075,0.443,5.408,1.229l-1.357,2.898
			c-1.386-0.783-2.771-1.045-4.049-1.045c-1.83,0-2.613,0.574-2.613,1.307c0,2.402,8.49,0.078,8.49,5.615
			c0,2.613-2.429,4.469-6.635,4.469C130.724,110.934,128.32,110.279,127.015,109.418z"/>
	</g>
</g>
</svg>
