<?xml version="1.0" encoding="utf-8"?>
<!-- Generator: Adobe Illustrator 16.2.0, SVG Export Plug-In . SVG Version: 6.00 Build 0)  -->
<!DOCTYPE svg PUBLIC "-//W3C//DTD SVG 1.1//EN" "http://www.w3.org/Graphics/SVG/1.1/DTD/svg11.dtd">
<svg version="1.1" id="Capa_1" xmlns="http://www.w3.org/2000/svg" xmlns:xlink="http://www.w3.org/1999/xlink" x="0px" y="0px"
	 width="133px" height="133px" viewBox="0 0 133 133" enable-background="new 0 0 133 133" xml:space="preserve">
<circle fill="#FFFFFF" stroke="#4F4F4F" stroke-width="3" stroke-miterlimit="10" stroke-dasharray="6" cx="66.746" cy="66.738" r="64.601"/>
<g>
	<g>
		<path fill="#1BBB9A" d="M45.317,97.098c0-3.029,2.326-5.198,5.456-5.198c1.737,0,3.188,0.632,4.135,1.781l-1.493,1.378
			c-0.675-0.775-1.522-1.178-2.527-1.178c-1.881,0-3.216,1.321-3.216,3.217s1.335,3.216,3.216,3.216
			c1.005,0,1.853-0.401,2.527-1.191l1.493,1.379c-0.948,1.162-2.398,1.794-4.149,1.794C47.643,102.295,45.317,100.127,45.317,97.098
			z"/>
		<path fill="#1BBB9A" d="M63.091,97.715v4.408h-2.097v-0.962c-0.416,0.703-1.22,1.077-2.354,1.077c-1.81,0-2.886-1.006-2.886-2.341
			c0-1.364,0.962-2.312,3.317-2.312h1.78c0-0.962-0.574-1.522-1.78-1.522c-0.818,0-1.666,0.273-2.226,0.718l-0.804-1.564
			c0.847-0.604,2.096-0.934,3.331-0.934C61.727,94.283,63.091,95.375,63.091,97.715z M60.851,99.682v-0.789h-1.536
			c-1.048,0-1.378,0.388-1.378,0.904c0,0.561,0.474,0.934,1.264,0.934C59.946,100.73,60.592,100.386,60.851,99.682z"/>
		<path fill="#1BBB9A" d="M73.527,98.261c0,2.427-1.68,3.978-3.848,3.978c-1.034,0-1.867-0.331-2.427-1.006v0.891h-2.14V91.469h2.24
			v3.748c0.574-0.632,1.363-0.934,2.326-0.934C71.848,94.283,73.527,95.834,73.527,98.261z M71.259,98.261
			c0-1.336-0.847-2.14-1.968-2.14c-1.119,0-1.967,0.804-1.967,2.14c0,1.335,0.848,2.14,1.967,2.14
			C70.412,100.4,71.259,99.596,71.259,98.261z"/>
		<path fill="#1BBB9A" d="M75.019,91.469h2.24v10.654h-2.24V91.469z"/>
		<path fill="#1BBB9A" d="M86.863,98.893H81.02c0.215,0.962,1.033,1.551,2.211,1.551c0.818,0,1.407-0.244,1.938-0.747l1.192,1.292
			c-0.719,0.819-1.795,1.25-3.188,1.25c-2.672,0-4.408-1.681-4.408-3.978c0-2.312,1.766-3.978,4.121-3.978
			c2.268,0,4.02,1.522,4.02,4.006C86.906,98.462,86.878,98.706,86.863,98.893z M80.99,97.586h3.806
			c-0.158-0.977-0.891-1.608-1.896-1.608C81.881,95.978,81.148,96.595,80.99,97.586z"/>
	</g>
</g>
<g>
	<g>
		<path fill="#1BBB9A" d="M90.447,29.056H50.998c-0.492,0-0.888,0.399-0.888,0.894c0,0.488,0.396,0.888,0.888,0.888h39.449
			c2.162,0,3.922,1.758,3.922,3.921v31.67c0,2.162-1.76,3.92-3.922,3.92H41.926c-2.162,0-3.921-1.758-3.921-3.92v-31.67
			c0-2.163,1.759-3.921,3.921-3.921h5.514c0.49,0,0.89-0.399,0.89-0.888c0-0.494-0.399-0.894-0.89-0.894h-5.514
			c-3.144,0-5.7,2.557-5.7,5.702v31.67c0,3.144,2.557,5.699,5.7,5.699h14.311l-1.743,5.699h-3.269c-1.668,0-3.024,1.355-3.024,3.023
			c0,1.669,1.356,3.025,3.024,3.025h29.924c1.667,0,3.025-1.356,3.025-3.025c0-1.668-1.358-3.023-3.025-3.023h-3.268l-1.744-5.699
			h14.311c3.144,0,5.7-2.556,5.7-5.699v-31.67C96.147,31.612,93.591,29.056,90.447,29.056z M82.395,80.85
			c0,0.688-0.559,1.248-1.246,1.248H51.225c-0.686,0-1.244-0.561-1.244-1.248c0-0.686,0.559-1.247,1.244-1.247h29.924
			C81.836,79.603,82.395,80.164,82.395,80.85z M76.018,77.826H56.355l1.742-5.697h16.179L76.018,77.826z"/>
		<path fill="#1BBB9A" d="M90.514,58.026c0.491,0,0.889-0.397,0.889-0.89V34.758c0-0.527-0.428-0.956-0.955-0.956H41.926
			c-0.525,0-0.954,0.429-0.954,0.956v29.007c0,0.49,0.397,0.89,0.888,0.89h48.654c0.491,0,0.889-0.399,0.889-0.89v-3.067
			c0-0.494-0.397-0.892-0.889-0.892c-0.492,0-0.89,0.397-0.89,0.892v2.176H42.751V35.58h46.873v21.557
			C89.624,57.631,90.021,58.026,90.514,58.026z"/>
		<path fill="#1BBB9A" d="M66.926,66.851c-0.194-0.3-0.567-0.45-0.913-0.38c-0.38,0.073-0.675,0.398-0.713,0.785
			c-0.077,0.805,0.92,1.289,1.504,0.729C67.111,67.688,67.161,67.205,66.926,66.851z"/>
	</g>
</g>
</svg>
