<?xml version="1.0" encoding="utf-8"?>
<!-- Generator: Adobe Illustrator 16.2.0, SVG Export Plug-In . SVG Version: 6.00 Build 0)  -->
<!DOCTYPE svg PUBLIC "-//W3C//DTD SVG 1.1//EN" "http://www.w3.org/Graphics/SVG/1.1/DTD/svg11.dtd">
<svg version="1.1" id="Capa_1" xmlns="http://www.w3.org/2000/svg" xmlns:xlink="http://www.w3.org/1999/xlink" x="0px" y="0px"
	 width="133px" height="133px" viewBox="0 0 133 133" enable-background="new 0 0 133 133" xml:space="preserve">
<g>
	
		<circle fill="#FFFFFF" stroke="#4F4F4F" stroke-width="3" stroke-miterlimit="10" stroke-dasharray="6" cx="66.5" cy="66.5" r="64.601"/>
	<g>
		<g>
			<path fill="#1BBB9A" d="M57.82,88.318v2.656h4.651v1.867H57.82v3.66h-2.326V86.451h7.596v1.867H57.82z"/>
			<path fill="#1BBB9A" d="M64.092,86.451c0-0.703,0.561-1.248,1.393-1.248c0.833,0,1.393,0.516,1.393,1.205
				c0,0.748-0.56,1.293-1.393,1.293C64.653,87.701,64.092,87.156,64.092,86.451z M64.366,88.777h2.24v7.725h-2.24V88.777z"/>
			<path fill="#1BBB9A" d="M66.317,98.973l0.604-1.623c0.244,0.172,0.574,0.273,0.947,0.273c0.561,0,0.92-0.359,0.92-1.121v-7.725
				h2.238v7.711c0,1.781-1.047,2.914-2.914,2.914C67.422,99.402,66.748,99.273,66.317,98.973z M68.514,86.451
				c0-0.703,0.561-1.248,1.393-1.248s1.393,0.516,1.393,1.205c0,0.748-0.561,1.293-1.393,1.293S68.514,87.156,68.514,86.451z"/>
			<path fill="#1BBB9A" d="M79.928,92.094v4.408h-2.096v-0.961c-0.416,0.703-1.221,1.076-2.355,1.076
				c-1.809,0-2.887-1.004-2.887-2.34c0-1.365,0.963-2.313,3.318-2.313h1.779c0-0.961-0.574-1.521-1.779-1.521
				c-0.818,0-1.666,0.273-2.227,0.719l-0.805-1.566c0.848-0.602,2.098-0.934,3.332-0.934C78.564,88.662,79.928,89.754,79.928,92.094
				z M77.688,94.063v-0.791h-1.535c-1.049,0-1.379,0.389-1.379,0.904c0,0.561,0.473,0.934,1.264,0.934
				C76.783,95.109,77.43,94.766,77.688,94.063z"/>
		</g>
	</g>
	<g>
		<g>
			<path fill="#1BBB9A" d="M64.509,66.141c-0.353,0.35-0.353,0.925,0,1.279c0.354,0.352,0.927,0.352,1.28,0
				c0.354-0.354,0.354-0.929,0-1.279C65.436,65.787,64.863,65.787,64.509,66.141z"/>
			<path fill="#1BBB9A" d="M87.727,64.567l-6.873-5.846c-0.031-0.026-0.066-0.051-0.102-0.074c-1.801-1.147-4.119-0.894-5.631,0.617
				l-3.748,3.75c-0.26,0.26-0.646,0.337-0.984,0.196c-4.234-1.75-7.711-4.386-10.336-7.833c-2.001-2.629-2.723-4.718-2.817-5.012
				c-0.011-0.063-0.028-0.126-0.055-0.187c-0.14-0.34-0.063-0.727,0.198-0.984l3.746-3.75c1.513-1.513,1.767-3.827,0.617-5.633
				c-0.007-0.014-0.018-0.027-0.028-0.042l-4.962-6.897c-1.563-2.424-4.967-2.789-7.007-0.746l-0.752,0.75c0,0,0,0-0.001,0
				l-2.678,2.681c-3.197,3.195-3.719,7.996-1.515,13.887c1.893,5.043,5.675,10.567,10.655,15.546
				c5.099,5.098,10.771,8.954,15.967,10.852c5.145,1.879,10.619,2.111,14.492-1.764l2.527-2.525
				C90.475,69.52,90.121,66.139,87.727,64.567z M79.732,60.144l6.865,5.841c0.033,0.026,0.066,0.051,0.102,0.073
				c1.467,0.935,1.689,2.985,0.463,4.213l-0.189,0.188L75.26,61.69l1.143-1.143C77.297,59.653,78.656,59.492,79.732,60.144z
				 M55.237,33.868c0.011,0.015,0.02,0.028,0.028,0.043l4.963,6.896c0.674,1.079,0.519,2.457-0.383,3.359l-1.107,1.107
				l-7.926-11.655l0.212-0.212C52.257,32.172,54.306,32.407,55.237,33.868z M72.043,74.141c-4.957-1.811-10.392-5.516-15.308-10.432
				c-4.802-4.8-8.438-10.092-10.239-14.9c-1.353-3.609-2.259-8.617,1.097-11.971l1.916-1.918l7.926,11.657l-1.337,1.336
				c-0.761,0.76-1.001,1.882-0.62,2.884c0.286,1.171,1.6,3.606,2.929,5.401c1.951,2.639,5.495,6.288,11.288,8.685
				c1.021,0.423,2.182,0.191,2.961-0.589l1.313-1.311l11.713,8.769l-1.047,1.047C81.035,76.396,75.801,75.514,72.043,74.141z"/>
			<path fill="#1BBB9A" d="M62.811,63.979c-0.957-0.84-2.611-2.282-3.484-3.178c-2.134-2.195-4.377-4.856-5.709-6.78
				c-0.284-0.41-0.849-0.512-1.26-0.228c-0.41,0.284-0.514,0.849-0.229,1.26c1.681,2.425,4.15,5.21,5.9,7.012
				c0.921,0.944,2.589,2.4,3.586,3.273c0.375,0.329,0.946,0.294,1.279-0.084C63.224,64.879,63.186,64.308,62.811,63.979z"/>
		</g>
	</g>
</g>
</svg>
