<?xml version="1.0" encoding="utf-8"?>
<!-- Generator: Adobe Illustrator 16.2.0, SVG Export Plug-In . SVG Version: 6.00 Build 0)  -->
<!DOCTYPE svg PUBLIC "-//W3C//DTD SVG 1.1//EN" "http://www.w3.org/Graphics/SVG/1.1/DTD/svg11.dtd">
<svg version="1.1" id="Capa_1" xmlns="http://www.w3.org/2000/svg" xmlns:xlink="http://www.w3.org/1999/xlink" x="0px" y="0px"
	 width="166px" height="139px" viewBox="0 0 166 139" enable-background="new 0 0 166 139" xml:space="preserve">
<g>
	<g>
		<path fill="#169F85" d="M17.196,12.156h-5.473h-1.287c-2.705,0-5.354,1.093-7.271,3.006c-1.908,1.914-3.008,4.56-3.008,7.265
			v11.938h165.684V22.426c0-2.705-1.102-5.351-3.014-7.265s-4.559-3.006-7.266-3.006h-17.43v13.449c0,2.51-2.034,4.545-4.546,4.545
			h-9.58c-2.511,0-4.543-2.035-4.543-4.545V12.156H46.542v13.449c0,2.51-2.037,4.545-4.545,4.545h-9.584
			c-2.512,0-4.541-2.035-4.541-4.545V12.156H17.196z"/>
		<polygon fill="#2A80B8" points="32.412,25.604 41.996,25.604 41.996,12.156 41.996,0.321 32.412,0.321 32.412,12.156 		"/>
		<polygon fill="#2A80B8" points="124.007,25.604 133.587,25.604 133.587,12.156 133.587,0.321 124.007,0.321 124.007,12.156 		"/>
		<path fill="#1BBB9A" d="M17.196,138.68h-5.473h-1.287c-2.705,0-5.354-1.096-7.271-3.01c-1.908-1.914-3.008-4.561-3.008-7.264
			V39.863h165.684v88.543c0,2.703-1.102,5.35-3.014,7.264s-4.559,3.01-7.266,3.01h-17.43h-18.67H46.541H27.872H17.196z"/>
	</g>
	<g>
		<path fill="#FFFFFF" d="M51.07,76.252v3.396H36.911V61.361H50.73v3.396h-9.613v3.971h8.49v3.292h-8.49v4.232L51.07,76.252
			L51.07,76.252z"/>
		<path fill="#FFFFFF" d="M68.521,71.602v8.046h-4.075v-7.419c0-2.271-1.045-3.316-2.847-3.316c-1.959,0-3.37,1.2-3.37,3.788v6.947
			h-4.075V65.594h3.893v1.646c1.097-1.201,2.743-1.854,4.649-1.854C66.013,65.384,68.521,67.316,68.521,71.602z"/>
		<path fill="#FFFFFF" d="M81.271,78.969c-0.836,0.601-2.064,0.888-3.318,0.888c-3.318,0-5.25-1.697-5.25-5.042v-5.772h-2.168
			v-3.135h2.168v-3.423h4.075v3.423h3.5v3.135h-3.5v5.721c0,1.201,0.653,1.854,1.75,1.854c0.601,0,1.202-0.184,1.646-0.522
			L81.271,78.969z"/>
		<path fill="#FFFFFF" d="M92.295,65.384v3.762c-0.34-0.025-0.602-0.052-0.914-0.052c-2.247,0-3.734,1.228-3.734,3.918v6.636H83.57
			V65.594h3.892v1.854C88.455,66.09,90.127,65.384,92.295,65.384z"/>
		<path fill="#FFFFFF" d="M108.283,73.77H97.65c0.393,1.75,1.882,2.821,4.022,2.821c1.489,0,2.562-0.444,3.526-1.358l2.169,2.353
			c-1.308,1.487-3.267,2.271-5.8,2.271c-4.858,0-8.021-3.057-8.021-7.235c0-4.206,3.214-7.236,7.497-7.236
			c4.128,0,7.314,2.769,7.314,7.289C108.361,72.985,108.31,73.43,108.283,73.77z M97.6,71.393h6.922
			c-0.286-1.775-1.619-2.926-3.447-2.926C99.219,68.467,97.886,69.59,97.6,71.393z"/>
		<path fill="#FFFFFF" d="M131.116,74.057c0,3.083-2.377,5.904-7.576,5.904c-2.56,0-5.198-0.705-6.975-1.959l1.646-3.239
			c1.384,1.045,3.317,1.646,5.225,1.646c2.115,0,3.423-0.862,3.423-2.353c0-1.384-1.021-2.246-3.423-2.246h-1.934v-2.795
			l3.762-4.258h-7.785v-3.396h12.802v2.743l-4.127,4.702C129.444,69.329,131.116,71.366,131.116,74.057z"/>
		<path fill="#FFFFFF" d="M31.568,96.942l-6.348,14.916c-1.358,3.396-3.292,4.414-5.826,4.414c-1.437,0-3.004-0.47-3.918-1.278
			l1.489-2.9c0.627,0.549,1.489,0.889,2.299,0.889c1.123,0,1.75-0.496,2.299-1.75l0.052-0.131l-6.086-14.158h4.206l3.945,9.534
			l3.971-9.534L31.568,96.942L31.568,96.942z"/>
		<path fill="#FFFFFF" d="M54.375,101.462c0,6.322-3.788,9.849-9.326,9.849c-1.933,0-3.788-0.443-5.067-1.254l1.567-3.107
			c0.992,0.679,2.168,0.913,3.422,0.913c3.03,0,5.016-1.803,5.146-5.328c-1.071,1.07-2.639,1.646-4.546,1.646
			c-3.526,0-6.295-2.246-6.295-5.694c0-3.735,3.056-6.087,6.922-6.087C51.267,92.396,54.375,95.559,54.375,101.462z M49.646,98.274
			c0-1.566-1.175-2.717-3.187-2.717c-1.803,0-3.057,1.045-3.057,2.717s1.228,2.742,3.108,2.742
			C48.367,101.018,49.646,99.869,49.646,98.274z"/>
		<path fill="#FFFFFF" d="M88.414,102.951v8.046h-4.075v-7.419c0-2.272-1.019-3.317-2.664-3.317c-1.829,0-3.109,1.175-3.109,3.683
			v7.055h-4.075v-7.419c0-2.272-0.966-3.317-2.665-3.317c-1.803,0-3.083,1.175-3.083,3.683v7.055h-4.075V96.944h3.892v1.619
			c1.045-1.201,2.612-1.828,4.415-1.828c1.959,0,3.631,0.758,4.624,2.3c1.123-1.438,2.952-2.3,5.067-2.3
			C86.011,96.733,88.414,98.667,88.414,102.951z"/>
		<path fill="#FFFFFF" d="M105.919,105.119H95.287c0.393,1.75,1.881,2.82,4.021,2.82c1.489,0,2.562-0.443,3.527-1.357l2.168,2.352
			c-1.307,1.488-3.266,2.272-5.8,2.272c-4.858,0-8.021-3.058-8.021-7.236c0-4.206,3.213-7.235,7.497-7.235
			c4.128,0,7.314,2.77,7.314,7.288C105.997,104.336,105.945,104.778,105.919,105.119z M95.234,102.742h6.923
			c-0.287-1.776-1.619-2.927-3.448-2.927C96.854,99.815,95.521,100.938,95.234,102.742z"/>
		<path fill="#FFFFFF" d="M107.355,109.69l1.358-2.926c1.254,0.811,3.161,1.357,4.885,1.357c1.882,0,2.587-0.496,2.587-1.279
			c0-2.299-8.489,0.052-8.489-5.564c0-2.663,2.402-4.545,6.504-4.545c1.934,0,4.076,0.443,5.408,1.229l-1.358,2.898
			c-1.385-0.782-2.77-1.045-4.05-1.045c-1.828,0-2.611,0.574-2.611,1.308c0,2.401,8.489,0.078,8.489,5.615
			c0,2.612-2.429,4.468-6.635,4.468C111.065,111.206,108.663,110.553,107.355,109.69z"/>
		<path fill="#FFFFFF" d="M136.275,105.119h-10.633c0.393,1.75,1.882,2.82,4.022,2.82c1.489,0,2.561-0.443,3.526-1.357l2.169,2.352
			c-1.308,1.488-3.267,2.272-5.8,2.272c-4.858,0-8.021-3.058-8.021-7.236c0-4.206,3.213-7.235,7.497-7.235
			c4.128,0,7.314,2.77,7.314,7.288C136.354,104.336,136.302,104.778,136.275,105.119z M125.591,102.742h6.923
			c-0.287-1.776-1.619-2.927-3.447-2.927C127.211,99.815,125.878,100.938,125.591,102.742z"/>
		<path fill="#FFFFFF" d="M137.713,109.69l1.358-2.926c1.254,0.811,3.161,1.357,4.885,1.357c1.881,0,2.586-0.496,2.586-1.279
			c0-2.299-8.489,0.052-8.489-5.564c0-2.663,2.403-4.545,6.505-4.545c1.934,0,4.074,0.443,5.407,1.229l-1.357,2.898
			c-1.386-0.782-2.771-1.045-4.05-1.045c-1.829,0-2.612,0.574-2.612,1.308c0,2.401,8.489,0.078,8.489,5.615
			c0,2.612-2.43,4.468-6.635,4.468C141.423,111.206,139.02,110.553,137.713,109.69z"/>
	</g>
</g>
</svg>
