<?xml version="1.0" encoding="utf-8"?>
<!-- Generator: Adobe Illustrator 16.2.0, SVG Export Plug-In . SVG Version: 6.00 Build 0)  -->
<!DOCTYPE svg PUBLIC "-//W3C//DTD SVG 1.1//EN" "http://www.w3.org/Graphics/SVG/1.1/DTD/svg11.dtd">
<svg version="1.1" id="Capa_1" xmlns="http://www.w3.org/2000/svg" xmlns:xlink="http://www.w3.org/1999/xlink" x="0px" y="0px"
	 width="810px" height="489px" viewBox="0 0 810 489" enable-background="new 0 0 810 489" xml:space="preserve">
<g id="Capa_2">
	<g>
		<g>
			<g opacity="0.34">
				<path fill="#E1D7FF" d="M51.771,443.588C31.46,422.949,22.25,391.975,27.988,363.59c5.738-28.382,26.261-53.349,52.99-64.479
					c11.563-4.813,24.076-7.158,35.432-12.457c39.604-18.496,54.356-65.792,76.753-103.333
					c32.547-54.563,90.332-94.7,153.568-100.833c63.244-6.132,129.955,24.213,162.625,78.707
					c17.633,29.407,25.479,64.438,46.688,91.375c14.867,18.889,35.941,32.804,59.147,39.057c20.397,5.5,41.957,5.169,62.585,9.734
					c31.896,7.065,62.018,27.523,74.629,57.664c12.613,30.138,3.764,69.55-23.956,86.847L51.771,443.588z"/>
			</g>
			<g opacity="0.34">
				<path fill="#E1D7FF" d="M111.923,443.763c-15.429-15.674-22.424-39.2-18.067-60.76c4.36-21.56,19.944-40.521,40.251-48.974
					c8.783-3.654,18.285-5.438,26.907-9.463c30.083-14.045,41.289-49.965,58.296-78.482c24.718-41.443,68.61-71.926,116.642-76.585
					c48.032-4.656,98.708,18.393,123.521,59.779c13.392,22.333,19.351,48.943,35.459,69.406
					c11.295,14.342,27.303,24.912,44.925,29.664c15.497,4.178,31.868,3.926,47.541,7.396c24.229,5.361,47.096,20.902,56.678,43.794
					c9.583,22.896,2.854,52.824-18.19,65.965L111.923,443.763z"/>
			</g>
		</g>
		<g>
			<path opacity="0.34" fill="#E1D7FF" enable-background="new    " d="M629.084,261.421c0,6.83-5.263,12.372-11.754,12.372
				c-6.488,0-11.75-5.542-11.75-12.372c0-6.833,5.262-12.371,11.75-12.371C623.823,249.05,629.084,254.588,629.084,261.421z"/>
			<path opacity="0.34" fill="#E1D7FF" enable-background="new    " d="M588.264,251.525c0,3.416-2.77,6.186-6.188,6.186
				c-3.414,0-6.188-2.771-6.188-6.186c0-3.416,2.771-6.188,6.188-6.188C585.494,245.338,588.264,248.109,588.264,251.525z"/>
		</g>
		<g>
			<ellipse opacity="0.34" fill="#E1D7FF" enable-background="new    " cx="109.529" cy="257.711" rx="11.751" ry="12.373"/>
			<path opacity="0.34" fill="#E1D7FF" enable-background="new    " d="M129.322,226.785c0,3.414-2.771,6.184-6.186,6.184
				c-3.417,0-6.185-2.77-6.185-6.184c0-3.418,2.768-6.186,6.185-6.186C126.552,220.6,129.322,223.367,129.322,226.785z"/>
			<circle opacity="0.34" fill="#E1D7FF" enable-background="new    " cx="136.744" cy="250.287" r="6.185"/>
		</g>
		
			<line fill="none" stroke="#4F4F4F" stroke-width="0.7955" stroke-miterlimit="10" x1="9.65" y1="444.551" x2="802.361" y2="444.551"/>
		<path opacity="0.2" fill="#9A58B4" enable-background="new    " d="M191.59,149.291c2.254-2.254,4.953-4.073,7.957-5.318
			c2.89-1.197,6.052-1.857,9.362-1.857c3.31,0,6.472,0.66,9.358,1.857c3.004,1.245,5.704,3.063,7.957,5.318
			c2.252,2.252,4.072,4.95,5.315,7.957c1.194,2.888,1.854,6.05,1.854,9.36s-0.659,6.474-1.854,9.361
			c-1.245,3.003-3.063,5.704-5.315,7.955c-2.252,2.254-4.951,4.068-7.954,5.314c-2.887,1.2-6.053,1.859-9.362,1.859
			c-3.313,0-6.476-0.659-9.361-1.859c-3.004-1.24-5.704-3.062-7.958-5.314c-2.251-2.251-4.071-4.951-5.316-7.955
			c-1.193-2.888-1.854-6.052-1.854-9.361c0-3.311,0.661-6.473,1.854-9.36C187.52,154.241,189.339,151.544,191.59,149.291
			L191.59,149.291z M200.406,146.064c-2.71,1.123-5.153,2.776-7.21,4.83c-2.054,2.052-3.707,4.501-4.827,7.213
			c-1.083,2.611-1.683,5.483-1.683,8.501c0,3.015,0.6,5.889,1.683,8.503c1.125,2.71,2.773,5.155,4.827,7.209
			c2.056,2.053,4.5,3.705,7.214,4.829c2.61,1.082,5.483,1.681,8.502,1.681c3.014,0,5.884-0.599,8.493-1.681
			c2.719-1.125,5.164-2.776,7.22-4.829c2.053-2.054,3.706-4.5,4.829-7.209c1.083-2.614,1.68-5.488,1.68-8.503
			c0-3.018-0.598-5.89-1.68-8.501c-1.123-2.712-2.775-5.161-4.829-7.213c-2.056-2.054-4.5-3.707-7.212-4.83
			c-2.613-1.084-5.483-1.68-8.501-1.68C205.893,144.385,203.02,144.98,200.406,146.064L200.406,146.064z M197.7,128.044
			c-1.534,0.442-3.04,0.981-4.516,1.608c-1.497,0.637-2.942,1.358-4.335,2.165c-1.415,0.816-2.774,1.722-4.084,2.706
			c-1.313,0.99-2.559,2.052-3.729,3.187c-0.417,0.396-0.938,0.634-1.47,0.695c-0.543,0.069-1.104-0.044-1.596-0.328
			c-3.596-2.075-7.378-4.133-10.899-6.294c-0.173-0.087-0.353-0.144-0.528-0.164c-0.204-0.021-0.406-0.005-0.604,0.048
			c-0.196,0.055-0.388,0.144-0.552,0.27c-0.154,0.119-0.292,0.271-0.396,0.451c-2.621,3.967-5.255,9.093-7.683,13.301
			c-0.104,0.18-0.168,0.372-0.19,0.564c-0.025,0.199-0.011,0.414,0.047,0.618c0.054,0.199,0.143,0.386,0.267,0.55
			c0.12,0.159,0.272,0.293,0.453,0.398c3.236,2.138,7.403,4.279,10.835,6.261c0.501,0.29,0.869,0.72,1.08,1.214
			c0.073,0.169,0.128,0.35,0.161,0.533l0.223,0.073l-0.25,1.013c-0.193,0.794-0.368,1.588-0.514,2.38
			c-0.141,0.769-0.265,1.575-0.366,2.416c-0.099,0.819-0.175,1.635-0.222,2.437c-0.048,0.785-0.072,1.607-0.072,2.463
			s0.024,1.677,0.072,2.458c0.047,0.806,0.124,1.618,0.222,2.438c0.104,0.842,0.229,1.646,0.366,2.417
			c0.146,0.793,0.318,1.587,0.516,2.384c0.146,0.589,0.074,1.177-0.163,1.688c-0.231,0.51-0.638,0.936-1.156,1.203l-9.596,5.538
			l0.002,0.007l-1.137,0.654c-0.181,0.104-0.333,0.241-0.453,0.397c-0.123,0.162-0.213,0.35-0.267,0.55
			c-0.058,0.206-0.073,0.419-0.047,0.62c0.022,0.19,0.088,0.386,0.19,0.563l7.104,12.311l0.004-0.004l0.574,0.993
			c0.104,0.181,0.239,0.333,0.396,0.454c0.165,0.124,0.354,0.216,0.552,0.269c0.203,0.055,0.415,0.071,0.615,0.045
			c0.191-0.025,0.383-0.087,0.563-0.191c3.438-2.158,7.313-4.22,10.856-6.267c0.507-0.288,1.063-0.386,1.586-0.323
			c0.544,0.063,1.063,0.305,1.468,0.691l0.007,0.005c1.171,1.13,2.419,2.196,3.73,3.184c1.307,0.981,2.667,1.889,4.081,2.704
			c1.4,0.811,2.858,1.538,4.363,2.18c1.479,0.628,3.015,1.172,4.594,1.625c0.559,0.158,1.021,0.491,1.344,0.923
			c0.33,0.436,0.52,0.977,0.521,1.548l0.005,12.517c0,0.21,0.041,0.412,0.117,0.589c0.076,0.186,0.191,0.358,0.341,0.504
			c0.142,0.148,0.314,0.264,0.504,0.346c0.179,0.072,0.378,0.117,0.588,0.117h15.364c0.209,0,0.409-0.045,0.589-0.117
			c0.19-0.082,0.363-0.197,0.506-0.341c0.146-0.15,0.266-0.323,0.341-0.509c0.075-0.178,0.116-0.379,0.116-0.589v-12.521
			c0-0.595,0.207-1.148,0.559-1.584c0.354-0.448,0.853-0.78,1.42-0.913c1.529-0.444,3.04-0.981,4.513-1.61
			c1.495-0.634,2.943-1.358,4.335-2.165c1.414-0.815,2.778-1.722,4.082-2.706c1.313-0.985,2.56-2.052,3.733-3.184
			c0.434-0.416,0.979-0.652,1.542-0.703c0.567-0.053,1.152,0.086,1.646,0.414l10.719,6.188c0.18,0.104,0.371,0.165,0.566,0.188
			c0.202,0.026,0.413,0.01,0.619-0.045c0.198-0.053,0.386-0.146,0.549-0.269c0.158-0.121,0.293-0.271,0.396-0.454
			c2.549-4.439,5.135-8.859,7.685-13.302c0.103-0.178,0.166-0.37,0.188-0.563c0.024-0.203,0.012-0.412-0.046-0.616
			c-0.054-0.2-0.145-0.39-0.268-0.552c-0.117-0.16-0.27-0.295-0.443-0.396l-10.844-6.262c-0.503-0.288-0.87-0.717-1.081-1.211
			c-0.057-0.133-0.101-0.271-0.136-0.412l-0.283-0.061l0.283-1.146c0.2-0.797,0.371-1.591,0.515-2.382
			c0.145-0.77,0.267-1.576,0.366-2.418c0.1-0.82,0.176-1.633,0.223-2.438c0.048-0.785,0.073-1.604,0.073-2.458
			c0-0.855-0.025-1.677-0.073-2.46c-0.047-0.802-0.122-1.618-0.222-2.437c-0.104-0.852-0.228-1.658-0.367-2.424
			c-0.145-0.789-0.313-1.584-0.515-2.376c-0.146-0.592-0.073-1.188,0.165-1.695c0.235-0.505,0.639-0.934,1.15-1.198l10.738-6.199
			c0.177-0.1,0.328-0.236,0.448-0.396c0.123-0.157,0.213-0.346,0.268-0.552c0.058-0.205,0.07-0.414,0.046-0.615
			c-0.022-0.196-0.089-0.389-0.188-0.568c-2.623-3.897-5.249-9.106-7.685-13.301c-0.104-0.179-0.237-0.332-0.396-0.451
			c-0.16-0.124-0.352-0.215-0.549-0.27c-0.206-0.056-0.417-0.071-0.618-0.047c-0.189,0.024-0.384,0.089-0.566,0.194l-10.85,6.265
			c-0.511,0.298-1.083,0.396-1.626,0.324c-0.546-0.074-1.064-0.324-1.467-0.724c-1.18-1.135-2.42-2.196-3.712-3.169
			c-1.29-0.971-2.648-1.872-4.07-2.692c-1.399-0.809-2.856-1.538-4.364-2.178c-1.479-0.627-3.012-1.173-4.592-1.627
			c-0.557-0.158-1.021-0.488-1.346-0.92c-0.329-0.438-0.521-0.981-0.521-1.549l-0.004-12.521c0-0.211-0.042-0.411-0.116-0.588
			c-0.078-0.184-0.193-0.356-0.342-0.505c-0.142-0.146-0.313-0.26-0.505-0.342c-0.18-0.073-0.379-0.115-0.589-0.115H201.22
			c-0.21,0-0.409,0.042-0.588,0.115c-0.188,0.078-0.362,0.195-0.507,0.34c-0.28,0.285-0.455,0.673-0.455,1.095v12.521
			c0,0.598-0.208,1.149-0.553,1.589C198.765,127.582,198.268,127.913,197.7,128.044L197.7,128.044z M192.299,127.568
			c-1.579,0.672-3.109,1.439-4.582,2.292c-1.501,0.866-2.943,1.823-4.315,2.856c-1.375,1.037-2.688,2.16-3.935,3.359
			c-0.047,0.048-0.106,0.073-0.171,0.08c-0.065,0.008-0.133-0.003-0.188-0.037c-3.646-2.105-7.302-4.201-10.94-6.317
			c-0.437-0.235-0.899-0.377-1.37-0.433c-0.486-0.055-0.977-0.016-1.439,0.107c-0.479,0.129-0.937,0.353-1.339,0.658
			c-0.387,0.297-0.726,0.673-0.979,1.119c-2.646,4.278-5.153,8.92-7.685,13.297c-0.258,0.445-0.414,0.928-0.477,1.416
			c-0.063,0.506-0.029,1.011,0.1,1.487c0.127,0.479,0.353,0.937,0.659,1.341c0.296,0.386,0.671,0.724,1.118,0.981
			c3.487,2.152,7.271,4.197,10.841,6.258c0.056,0.033,0.098,0.082,0.123,0.141c0.025,0.062,0.033,0.131,0.018,0.19l-0.249,1.014
			l0.017,0.004c-0.109,0.492-0.21,0.993-0.303,1.5c-0.16,0.868-0.29,1.72-0.395,2.557c-0.101,0.831-0.178,1.687-0.229,2.569
			c-0.056,0.886-0.08,1.751-0.08,2.597c0,0.844,0.024,1.709,0.08,2.592c0.054,0.883,0.13,1.742,0.229,2.573
			c0.104,0.837,0.234,1.689,0.396,2.555c0.155,0.863,0.34,1.702,0.539,2.518c0.018,0.066,0.01,0.136-0.021,0.197
			c-0.03,0.066-0.077,0.117-0.133,0.144c-3.984,2.13-8.03,4.632-11.969,6.908l0.142,0.177l-0.121,0.149
			c-0.309,0.403-0.532,0.857-0.659,1.341c-0.129,0.474-0.164,0.981-0.1,1.487c0.063,0.485,0.219,0.969,0.478,1.413l8.254,14.295
			l0.153-0.091c0.081,0.074,0.166,0.146,0.255,0.21c0.402,0.311,0.86,0.532,1.339,0.661c0.478,0.126,0.982,0.163,1.484,0.098
			c0.476-0.059,0.944-0.209,1.378-0.453c3.611-1.914,7.329-4.23,10.895-6.287c0.056-0.031,0.117-0.038,0.183-0.035
			c0.066,0.01,0.132,0.039,0.18,0.085c1.243,1.199,2.561,2.323,3.933,3.355c1.371,1.031,2.813,1.986,4.313,2.856
			c1.482,0.858,3.024,1.626,4.612,2.301c1.58,0.67,3.204,1.25,4.856,1.724c0.067,0.021,0.122,0.059,0.16,0.106
			c0.041,0.056,0.064,0.119,0.063,0.186v12.517c0,0.512,0.104,1.007,0.292,1.458c0.193,0.47,0.479,0.889,0.834,1.239
			c0.35,0.354,0.771,0.636,1.234,0.829c0.452,0.19,0.944,0.294,1.456,0.294h15.364c0.51,0,1.004-0.104,1.456-0.294
			c0.465-0.193,0.886-0.479,1.242-0.829c0.348-0.351,0.633-0.77,0.828-1.239c0.188-0.452,0.292-0.946,0.292-1.458v-12.521
			c0-0.073,0.021-0.14,0.06-0.188c0.04-0.049,0.102-0.088,0.171-0.102l0.048-0.021c1.669-0.479,3.279-1.053,4.828-1.713
			c1.579-0.673,3.109-1.44,4.583-2.29c1.502-0.87,2.942-1.825,4.313-2.858c1.375-1.034,2.688-2.161,3.937-3.357
			c0.051-0.053,0.114-0.081,0.178-0.084c0.065-0.008,0.139,0.007,0.194,0.047l10.843,6.258c0.445,0.257,0.928,0.416,1.408,0.474
			c0.503,0.067,1.01,0.029,1.487-0.098c0.479-0.128,0.937-0.351,1.339-0.661c0.378-0.285,0.709-0.654,0.965-1.084
			c2.849-4.58,5.539-9.599,8.256-14.3l-0.146-0.088c0.025-0.12,0.049-0.242,0.063-0.361c0.064-0.502,0.03-1.009-0.097-1.484
			c-0.129-0.481-0.354-0.938-0.662-1.339c-0.296-0.391-0.67-0.728-1.113-0.984l-10.845-6.258c-0.055-0.033-0.098-0.083-0.123-0.143
			c-0.026-0.059-0.034-0.128-0.017-0.192l0.279-1.148l-0.017-0.003c0.097-0.444,0.188-0.899,0.272-1.358
			c0.156-0.866,0.292-1.723,0.393-2.56c0.102-0.831,0.179-1.69,0.233-2.573c0.053-0.882,0.08-1.748,0.08-2.592
			c0-0.845-0.027-1.709-0.08-2.593c-0.057-0.884-0.136-1.742-0.233-2.578c-0.101-0.83-0.23-1.681-0.393-2.557
			c-0.159-0.86-0.342-1.696-0.54-2.51c-0.019-0.064-0.011-0.135,0.021-0.199c0.029-0.061,0.078-0.113,0.139-0.144l10.831-6.254
			c0.447-0.257,0.821-0.591,1.113-0.981c0.311-0.403,0.53-0.862,0.659-1.335c0.126-0.475,0.161-0.981,0.097-1.484
			c-0.059-0.476-0.212-0.944-0.457-1.381c-2.582-4.781-5.541-9.604-8.271-14.333l-0.155,0.093c-0.082-0.077-0.168-0.146-0.256-0.215
			c-0.402-0.307-0.86-0.528-1.339-0.658c-0.479-0.128-0.982-0.162-1.485-0.101c-0.49,0.063-0.968,0.217-1.409,0.471l-0.803,0.459
			l0.002,0.009l-10.056,5.804c-0.063,0.037-0.129,0.048-0.193,0.037c-0.063-0.007-0.127-0.037-0.173-0.084l-0.025-0.024
			c-1.229-1.186-2.544-2.304-3.927-3.347c-1.375-1.034-2.809-1.985-4.291-2.841c-1.481-0.859-3.021-1.629-4.612-2.305
			c-1.578-0.668-3.199-1.246-4.855-1.72c-0.066-0.019-0.121-0.059-0.158-0.107c-0.043-0.057-0.066-0.119-0.063-0.185v-12.521
			c0-0.512-0.105-1.006-0.292-1.458c-0.195-0.47-0.48-0.892-0.833-1.239c-0.354-0.35-0.773-0.634-1.238-0.828
			c-0.452-0.189-0.946-0.294-1.456-0.294h-15.364c-0.512,0-1.003,0.104-1.456,0.294c-0.465,0.194-0.887,0.479-1.24,0.828
			c-0.689,0.693-1.122,1.647-1.122,2.697v12.521c0,0.072-0.024,0.139-0.063,0.19c-0.041,0.047-0.1,0.085-0.169,0.104l-0.048,0.017
			C195.459,126.337,193.847,126.91,192.299,127.568z"/>
		<path opacity="0.2" fill="#9A58B4" enable-background="new    " d="M473.031,271.152L473.031,271.152L473.031,271.152z
			 M482.339,235.746c3.237-3.238,7.708-5.238,12.646-5.238c4.941,0,9.414,2,12.653,5.238c3.237,3.236,5.237,7.71,5.237,12.65
			c0,4.938-2,9.412-5.237,12.646c-3.239,3.233-7.712,5.24-12.653,5.24c-4.938,0-9.406-2.007-12.646-5.24
			c-3.24-3.233-5.242-7.708-5.242-12.646C477.097,243.456,479.099,238.982,482.339,235.746L482.339,235.746z M486.199,218.015
			c-2.479,0.714-4.829,1.722-7.017,2.985c-2.234,1.293-4.298,2.854-6.146,4.635c-0.361,0.349-0.897,0.397-1.313,0.161l-8.312-4.8
			l-0.048-0.029c-0.475-0.253-1.018-0.303-1.514-0.17c-0.514,0.133-0.97,0.465-1.254,0.955l-0.035,0.057l-5.847,10.128
			c-0.28,0.488-0.341,1.054-0.2,1.566c0.135,0.511,0.467,0.971,0.954,1.251l0.06,0.036l8.244,4.76
			c0.434,0.248,0.63,0.748,0.518,1.21v0.002c-0.303,1.223-0.532,2.485-0.69,3.779c-0.151,1.258-0.231,2.543-0.231,3.854
			s0.08,2.599,0.231,3.854c0.158,1.293,0.392,2.554,0.697,3.779c0.127,0.513-0.135,1.021-0.583,1.248l-8.241,4.761l0,0
			c-0.487,0.282-0.819,0.741-0.954,1.255c-0.139,0.51-0.081,1.074,0.2,1.563l5.882,10.188l0,0c0.284,0.485,0.74,0.817,1.255,0.958
			c0.511,0.135,1.07,0.078,1.561-0.202l0.064-0.034l8.253-4.769c0.429-0.245,0.961-0.169,1.308,0.159
			c1.851,1.781,3.91,3.345,6.146,4.64c2.196,1.271,4.563,2.28,7.059,3.001c0.489,0.139,0.805,0.577,0.805,1.057v9.59
			c0,0.563,0.229,1.078,0.604,1.451c0.369,0.373,0.885,0.604,1.454,0.604h11.765c0.564,0,1.075-0.23,1.446-0.604
			c0.38-0.373,0.607-0.889,0.607-1.451v-9.59c0-0.521,0.362-0.953,0.848-1.068c2.479-0.717,4.831-1.727,7.009-2.986
			c2.236-1.295,4.311-2.854,6.154-4.639c0.377-0.359,0.943-0.399,1.363-0.125l8.252,4.77c0.485,0.279,1.057,0.336,1.563,0.201
			c0.518-0.141,0.973-0.471,1.254-0.958l0.032-0.06l5.854-10.133l-0.01-0.002c0.284-0.486,0.345-1.049,0.204-1.56
			c-0.135-0.517-0.467-0.978-0.954-1.255l-8.304-4.792c-0.435-0.248-0.631-0.75-0.518-1.215h-0.005
			c0.303-1.229,0.539-2.485,0.69-3.777c0.156-1.258,0.236-2.544,0.236-3.854s-0.08-2.599-0.236-3.854
			c-0.151-1.292-0.392-2.556-0.69-3.777c-0.127-0.512,0.132-1.026,0.584-1.247l8.237-4.761c0.488-0.279,0.82-0.738,0.955-1.251
			c0.141-0.51,0.08-1.074-0.205-1.563l-0.025-0.063l-5.853-10.128v0.002c-0.282-0.49-0.736-0.822-1.254-0.955
			c-0.511-0.136-1.069-0.082-1.561,0.197V221l-8.316,4.8c-0.435,0.257-0.987,0.167-1.327-0.183
			c-1.844-1.773-3.896-3.324-6.133-4.613c-2.194-1.27-4.562-2.286-7.058-2.998c-0.48-0.142-0.8-0.577-0.8-1.055v-9.593
			c0-0.563-0.229-1.075-0.607-1.449c-0.37-0.375-0.882-0.606-1.445-0.606H489.1c-0.568,0-1.084,0.231-1.453,0.606
			c-0.377,0.374-0.605,0.887-0.605,1.449v9.593C487.047,217.467,486.688,217.898,486.199,218.015z"/>
		<path opacity="0.2" fill="#9A58B4" enable-background="new    " d="M560.666,163.21c0-1.691-1.371-3.067-3.069-3.067
			c-1.69,0-3.063,1.376-3.063,3.067v7.214h-7.213c-1.691,0-3.072,1.374-3.072,3.068c0,1.697,1.381,3.069,3.072,3.069h7.213v7.216
			c0,1.693,1.373,3.065,3.063,3.065c1.698,0,3.069-1.373,3.069-3.065v-7.216h7.217c1.695,0,3.065-1.372,3.065-3.069
			c0-1.694-1.37-3.068-3.065-3.068h-7.217V163.21z"/>
	</g>
</g>
<g>
	<path opacity="0.83" fill="#DEDFE0" enable-background="new    " d="M527.505,432.246H243.774c-5.971,0-10.812-4.841-10.812-10.813
		l0,0c0-5.971,4.841-10.811,10.812-10.811h283.733c5.971,0,10.811,4.84,10.811,10.811l0,0
		C538.318,427.405,533.478,432.246,527.505,432.246z"/>
	<g>
		<g>
			<g>
				<g>
					<g>
						<rect x="315.781" y="163.019" fill="#FDFDFD" width="183.684" height="122.27"/>
					</g>
				</g>
				<g>
					<g>
						<path fill="#BDC2C6" d="M502.396,288.221h-189.54V160.095h189.54V288.221z M318.712,282.363h177.827V165.95H318.712V282.363z"
							/>
					</g>
				</g>
			</g>
		</g>
		<g>
			<g>
				<g>
					<path fill="#1BBB9A" d="M407.621,266.241c-0.169-0.004-0.301-0.145-0.296-0.313s0.139-0.301,0.313-0.295
						c0.391,0.012,0.781,0.016,1.191,0.018l0.012,0.303v-0.303c0.169,0,0.289,0.135,0.289,0.303c0,0.166-0.149,0.303-0.319,0.303
						C408.413,266.257,408.017,266.251,407.621,266.241z M411.561,265.86c-0.012-0.168,0.113-0.313,0.281-0.326
						c0.397-0.031,0.795-0.066,1.192-0.107c0.173-0.02,0.316,0.104,0.332,0.27c0.019,0.168-0.103,0.316-0.27,0.334
						c-0.402,0.043-0.807,0.078-1.211,0.109c-0.01,0.002-0.016,0.002-0.023,0.002C411.705,266.142,411.573,266.019,411.561,265.86z
						 M404.579,266.036c-0.406-0.043-0.811-0.092-1.213-0.145c-0.168-0.023-0.283-0.174-0.26-0.342
						c0.021-0.166,0.178-0.283,0.34-0.26c0.397,0.053,0.794,0.102,1.195,0.143c0.166,0.018,0.288,0.166,0.271,0.334
						c-0.017,0.154-0.147,0.271-0.302,0.271C404.601,266.038,404.591,266.038,404.579,266.036z M415.758,265.354
						c-0.029-0.166,0.079-0.324,0.245-0.354c0.394-0.072,0.786-0.148,1.177-0.232c0.16-0.031,0.325,0.07,0.36,0.234
						c0.034,0.162-0.07,0.324-0.234,0.359c-0.396,0.084-0.793,0.164-1.194,0.236c-0.017,0.004-0.036,0.004-0.055,0.004
						C415.912,265.603,415.784,265.501,415.758,265.354z M400.364,265.372c-0.396-0.084-0.796-0.176-1.19-0.273
						c-0.162-0.039-0.262-0.203-0.222-0.365s0.202-0.264,0.367-0.223c0.39,0.096,0.779,0.184,1.171,0.268
						c0.165,0.033,0.27,0.195,0.235,0.359c-0.031,0.143-0.157,0.24-0.298,0.24C400.406,265.378,400.386,265.376,400.364,265.372z
						 M419.883,264.411c-0.047-0.162,0.045-0.33,0.206-0.377c0.383-0.113,0.767-0.232,1.146-0.354
						c0.159-0.053,0.331,0.035,0.383,0.195c0.052,0.158-0.036,0.33-0.195,0.381c-0.385,0.125-0.772,0.244-1.163,0.359
						c-0.029,0.008-0.058,0.014-0.086,0.014C420.042,264.63,419.921,264.542,419.883,264.411z M396.24,264.271
						c-0.387-0.125-0.772-0.256-1.155-0.395c-0.157-0.057-0.239-0.23-0.184-0.387c0.057-0.158,0.23-0.24,0.389-0.186
						c0.378,0.137,0.758,0.266,1.137,0.389c0.16,0.053,0.248,0.223,0.197,0.383c-0.042,0.129-0.161,0.209-0.289,0.209
						C396.306,264.284,396.273,264.28,396.24,264.271z M423.885,263.04c-0.063-0.154,0.012-0.332,0.166-0.396
						c0.37-0.15,0.738-0.309,1.104-0.473c0.152-0.068,0.335,0,0.402,0.154c0.067,0.152,0,0.332-0.154,0.4
						c-0.37,0.166-0.744,0.326-1.119,0.48c-0.038,0.016-0.077,0.023-0.115,0.023C424.047,263.229,423.935,263.157,423.885,263.04z
						 M392.261,262.743c-0.372-0.166-0.741-0.336-1.108-0.512c-0.151-0.074-0.216-0.252-0.143-0.404
						c0.074-0.152,0.255-0.215,0.406-0.143c0.359,0.174,0.724,0.342,1.089,0.504c0.153,0.068,0.223,0.248,0.154,0.4
						c-0.05,0.113-0.16,0.182-0.276,0.182C392.34,262.771,392.299,262.761,392.261,262.743z M427.725,261.259
						c-0.079-0.146-0.023-0.33,0.122-0.41c0.354-0.189,0.702-0.385,1.051-0.586c0.142-0.082,0.329-0.033,0.413,0.111
						c0.085,0.145,0.034,0.33-0.111,0.414c-0.351,0.203-0.707,0.402-1.063,0.596c-0.046,0.023-0.096,0.035-0.144,0.035
						C427.884,261.419,427.78,261.36,427.725,261.259z M388.456,260.81c-0.352-0.203-0.699-0.41-1.047-0.625
						c-0.142-0.088-0.188-0.273-0.099-0.418c0.089-0.141,0.274-0.186,0.417-0.098c0.342,0.209,0.686,0.414,1.032,0.615
						c0.146,0.084,0.196,0.268,0.112,0.414c-0.057,0.098-0.158,0.15-0.264,0.15C388.557,260.849,388.505,260.837,388.456,260.81z
						 M431.358,259.089c-0.095-0.139-0.06-0.328,0.079-0.422c0.33-0.227,0.657-0.457,0.981-0.692
						c0.137-0.099,0.327-0.069,0.426,0.066c0.098,0.137,0.068,0.327-0.067,0.425c-0.33,0.238-0.661,0.473-0.997,0.701
						c-0.053,0.035-0.11,0.053-0.171,0.053C431.513,259.22,431.416,259.175,431.358,259.089z M384.882,258.493
						c-0.33-0.24-0.654-0.482-0.977-0.73c-0.133-0.104-0.157-0.294-0.055-0.427s0.293-0.158,0.426-0.056
						c0.318,0.244,0.638,0.483,0.961,0.719c0.135,0.098,0.164,0.289,0.067,0.424c-0.061,0.082-0.153,0.125-0.247,0.125
						C384.995,258.548,384.935,258.528,384.882,258.493z M434.745,256.549c-0.108-0.127-0.092-0.319,0.036-0.429
						c0.303-0.259,0.605-0.522,0.902-0.791c0.126-0.111,0.316-0.102,0.431,0.021c0.112,0.127,0.102,0.318-0.022,0.43
						c-0.304,0.271-0.608,0.539-0.919,0.803c-0.056,0.048-0.127,0.072-0.196,0.072C434.891,256.655,434.806,256.618,434.745,256.549
						z M381.566,255.809c-0.303-0.27-0.6-0.546-0.895-0.827c-0.122-0.115-0.126-0.309-0.01-0.429
						c0.115-0.123,0.309-0.127,0.429-0.011c0.291,0.277,0.583,0.548,0.88,0.815c0.126,0.112,0.136,0.305,0.023,0.43
						c-0.059,0.066-0.142,0.1-0.227,0.1C381.697,255.887,381.622,255.861,381.566,255.809z M437.849,253.667
						c-0.123-0.117-0.127-0.31-0.01-0.431c0.275-0.289,0.549-0.582,0.816-0.88c0.112-0.125,0.307-0.135,0.429-0.022
						c0.125,0.112,0.137,0.304,0.023,0.429c-0.271,0.305-0.549,0.602-0.83,0.896c-0.061,0.062-0.14,0.093-0.22,0.093
						C437.983,253.751,437.906,253.724,437.849,253.667z M378.546,252.798c-0.271-0.301-0.537-0.605-0.803-0.915
						c-0.108-0.128-0.092-0.319,0.036-0.428c0.129-0.108,0.319-0.094,0.428,0.034c0.26,0.305,0.523,0.605,0.79,0.902
						c0.114,0.126,0.103,0.316-0.021,0.43c-0.06,0.052-0.131,0.077-0.203,0.077C378.692,252.898,378.61,252.864,378.546,252.798z
						 M440.635,250.476c-0.132-0.102-0.157-0.293-0.055-0.427c0.244-0.316,0.484-0.636,0.72-0.963
						c0.099-0.134,0.289-0.165,0.424-0.065c0.137,0.098,0.166,0.288,0.068,0.424c-0.239,0.331-0.484,0.655-0.732,0.979
						c-0.06,0.077-0.149,0.117-0.24,0.117C440.754,250.54,440.689,250.52,440.635,250.476z M375.861,249.487
						c-0.238-0.328-0.472-0.66-0.699-0.994c-0.095-0.14-0.061-0.328,0.079-0.423c0.139-0.093,0.327-0.059,0.423,0.079
						c0.225,0.332,0.455,0.658,0.69,0.98c0.099,0.137,0.069,0.326-0.066,0.426c-0.054,0.039-0.116,0.057-0.179,0.057
						C376.015,249.612,375.923,249.57,375.861,249.487z M443.069,247.01c-0.143-0.089-0.187-0.273-0.099-0.417
						c0.207-0.335,0.409-0.674,0.604-1.012c0.002-0.002,0.013-0.02,0.014-0.022c0.082-0.144,0.265-0.185,0.408-0.102
						c0.146,0.084,0.19,0.277,0.106,0.423c-0.201,0.348-0.404,0.691-0.615,1.033c-0.058,0.094-0.156,0.144-0.258,0.144
						C443.174,247.057,443.119,247.042,443.069,247.01z M372.947,244.853c-0.08-0.148-0.024-0.332,0.123-0.412
						c0.146-0.08,0.33-0.023,0.41,0.123c0.183,0.34,0.369,0.678,0.566,1.016l-0.244,0.184l-0.283,0.117
						C373.322,245.54,373.13,245.196,372.947,244.853z M373.796,245.765h0.007H373.796z M445.132,243.311
						c-0.152-0.073-0.217-0.255-0.144-0.405c0.175-0.361,0.342-0.725,0.504-1.09c0.069-0.153,0.249-0.221,0.402-0.154
						c0.153,0.07,0.221,0.248,0.154,0.4c-0.165,0.373-0.336,0.741-0.513,1.107c-0.052,0.108-0.16,0.172-0.273,0.172
						C445.219,243.341,445.174,243.333,445.132,243.311z M371.597,242.118c-0.166-0.372-0.325-0.746-0.479-1.121
						c-0.064-0.156,0.009-0.333,0.164-0.397c0.154-0.063,0.332,0.011,0.396,0.166c0.152,0.37,0.31,0.737,0.475,1.104
						c0.069,0.152,0,0.333-0.153,0.401c-0.04,0.018-0.082,0.026-0.124,0.026C371.761,242.298,371.65,242.23,371.597,242.118z
						 M370.067,238.138c-0.126-0.386-0.246-0.774-0.361-1.164c-0.047-0.161,0.045-0.33,0.206-0.377
						c0.162-0.048,0.33,0.044,0.376,0.206c0.113,0.383,0.231,0.767,0.356,1.148c0.052,0.159-0.037,0.33-0.195,0.381
						c-0.031,0.011-0.063,0.014-0.094,0.014C370.226,238.346,370.107,238.267,370.067,238.138z M368.958,234.019
						c-0.085-0.397-0.163-0.796-0.237-1.196c-0.03-0.164,0.079-0.322,0.245-0.354c0.168-0.032,0.322,0.079,0.353,0.245
						c0.072,0.394,0.15,0.787,0.233,1.179c0.035,0.163-0.07,0.325-0.233,0.36c-0.022,0.005-0.044,0.007-0.063,0.007
						C369.114,234.259,368.988,234.163,368.958,234.019z M368.287,229.808c-0.045-0.404-0.081-0.809-0.112-1.214
						c-0.013-0.168,0.113-0.313,0.28-0.326c0.168-0.017,0.313,0.112,0.325,0.28c0.031,0.398,0.068,0.797,0.109,1.195
						c0.017,0.166-0.103,0.316-0.271,0.334c-0.01,0.001-0.021,0.001-0.032,0.001C368.434,230.079,368.302,229.963,368.287,229.808z
						 M368.058,225.504c0-0.392,0.004-0.783,0.017-1.174c0.005-0.167,0.138-0.303,0.312-0.295c0.168,0.005,0.301,0.144,0.296,0.313
						c-0.012,0.385-0.017,0.771-0.017,1.157v0.044c0,0.167-0.135,0.281-0.304,0.281
						C368.194,225.829,368.058,225.671,368.058,225.504z M368.548,221.623c-0.168-0.018-0.288-0.167-0.271-0.333
						c0.041-0.404,0.09-0.808,0.144-1.212c0.022-0.167,0.178-0.282,0.341-0.26c0.167,0.022,0.283,0.175,0.261,0.341
						c-0.054,0.397-0.102,0.794-0.143,1.192c-0.015,0.157-0.146,0.273-0.301,0.273C368.568,221.625,368.557,221.623,368.548,221.623
						z M448.311,218.324c-0.072-0.393-0.149-0.787-0.232-1.179c-0.035-0.164,0.07-0.325,0.233-0.36
						c0.164-0.035,0.325,0.07,0.36,0.234c0.084,0.398,0.163,0.796,0.235,1.196c0.031,0.165-0.079,0.323-0.243,0.354
						c-0.019,0.003-0.038,0.005-0.056,0.005C448.466,218.573,448.337,218.471,448.311,218.324z M369.174,217.436
						c-0.165-0.034-0.271-0.195-0.234-0.359c0.083-0.398,0.173-0.794,0.269-1.19c0.039-0.161,0.201-0.264,0.366-0.223
						c0.162,0.04,0.263,0.203,0.223,0.367c-0.094,0.389-0.183,0.779-0.266,1.171c-0.03,0.143-0.156,0.241-0.296,0.241
						C369.215,217.443,369.194,217.44,369.174,217.436z M447.343,214.234c-0.11-0.384-0.23-0.767-0.353-1.147
						c-0.052-0.16,0.035-0.331,0.194-0.383c0.161-0.05,0.331,0.036,0.384,0.195c0.125,0.387,0.244,0.775,0.358,1.166
						c0.047,0.161-0.045,0.329-0.206,0.377c-0.029,0.008-0.058,0.013-0.086,0.013C447.504,214.455,447.382,214.368,447.343,214.234z
						 M370.234,213.337c-0.16-0.051-0.247-0.222-0.195-0.382c0.123-0.385,0.254-0.771,0.394-1.154
						c0.056-0.158,0.227-0.24,0.388-0.184c0.158,0.057,0.24,0.23,0.183,0.389c-0.136,0.377-0.265,0.756-0.386,1.137
						c-0.042,0.128-0.161,0.21-0.29,0.21C370.295,213.354,370.264,213.349,370.234,213.337z M445.955,210.27
						c-0.152-0.371-0.31-0.738-0.473-1.104c-0.069-0.153,0-0.333,0.153-0.401c0.154-0.068,0.334,0,0.4,0.153
						c0.168,0.373,0.327,0.746,0.481,1.121c0.063,0.156-0.012,0.333-0.167,0.397c-0.038,0.015-0.077,0.022-0.115,0.022
						C446.115,210.457,446.003,210.387,445.955,210.27z M371.716,209.374c-0.153-0.067-0.223-0.248-0.153-0.4
						c0.163-0.37,0.334-0.739,0.51-1.106c0.073-0.153,0.253-0.214,0.405-0.143c0.152,0.073,0.214,0.254,0.142,0.405
						c-0.173,0.362-0.341,0.725-0.504,1.09c-0.05,0.114-0.16,0.181-0.275,0.181C371.797,209.4,371.755,209.391,371.716,209.374z
						 M444.159,206.471c-0.188-0.349-0.381-0.695-0.573-1.029c-0.002-0.002-0.009-0.014-0.011-0.017l0.528-0.298
						c0.202,0.35,0.397,0.702,0.59,1.056c0.079,0.147,0.024,0.332-0.124,0.411c-0.047,0.024-0.096,0.037-0.144,0.037
						C444.318,206.631,444.214,206.573,444.159,206.471z M373.757,205.324l-0.238-0.196c0.193-0.339,0.395-0.673,0.6-1.005
						c0.088-0.144,0.274-0.187,0.417-0.1c0.142,0.088,0.188,0.275,0.099,0.417c-0.2,0.327-0.397,0.658-0.589,0.99l-0.025,0.044
						L373.757,205.324z M441.978,202.881c-0.227-0.331-0.456-0.657-0.689-0.979c-0.101-0.136-0.07-0.326,0.065-0.424
						c0.136-0.1,0.326-0.07,0.424,0.066c0.239,0.327,0.472,0.659,0.7,0.994c0.095,0.14,0.059,0.329-0.08,0.423
						c-0.052,0.036-0.11,0.053-0.169,0.053C442.13,203.013,442.034,202.967,441.978,202.881z M375.879,202.013
						c-0.134-0.098-0.165-0.288-0.066-0.424c0.238-0.331,0.482-0.656,0.731-0.979c0.103-0.132,0.294-0.157,0.426-0.055
						c0.133,0.102,0.157,0.293,0.054,0.426c-0.242,0.317-0.483,0.638-0.72,0.964c-0.059,0.082-0.151,0.125-0.245,0.125
						C375.998,202.07,375.935,202.052,375.879,202.013z M388.283,190.649c-0.085-0.145-0.034-0.331,0.111-0.415
						c0.351-0.204,0.706-0.402,1.063-0.594c0.146-0.08,0.33-0.026,0.41,0.122s0.024,0.332-0.122,0.412
						c-0.353,0.19-0.701,0.385-1.048,0.586c-0.048,0.027-0.101,0.04-0.152,0.04C388.442,190.8,388.34,190.747,388.283,190.649z
						 M392.039,188.694c-0.069-0.153,0-0.333,0.152-0.401c0.372-0.166,0.745-0.325,1.12-0.48c0.155-0.062,0.333,0.011,0.396,0.166
						c0.064,0.155-0.01,0.332-0.165,0.396c-0.37,0.153-0.738,0.31-1.103,0.474c-0.041,0.018-0.083,0.026-0.125,0.026
						C392.201,188.874,392.089,188.808,392.039,188.694z M422.361,187.713c-0.377-0.135-0.756-0.265-1.137-0.388
						c-0.16-0.052-0.248-0.223-0.196-0.382c0.051-0.16,0.224-0.248,0.382-0.195c0.387,0.125,0.773,0.257,1.154,0.395
						c0.158,0.057,0.24,0.23,0.184,0.388c-0.044,0.124-0.161,0.201-0.285,0.201C422.427,187.73,422.393,187.725,422.361,187.713z
						 M395.974,187.144c-0.052-0.159,0.035-0.331,0.194-0.382c0.386-0.126,0.773-0.246,1.163-0.36
						c0.16-0.049,0.332,0.044,0.377,0.205c0.048,0.161-0.043,0.33-0.206,0.377c-0.383,0.113-0.766,0.231-1.145,0.355
						c-0.031,0.01-0.063,0.015-0.095,0.015C396.136,187.353,396.018,187.272,395.974,187.144z M418.334,186.503
						c-0.388-0.096-0.778-0.185-1.171-0.268c-0.164-0.034-0.27-0.196-0.233-0.36c0.033-0.164,0.194-0.268,0.359-0.234
						c0.398,0.086,0.795,0.176,1.189,0.272c0.162,0.041,0.262,0.204,0.222,0.367c-0.033,0.139-0.157,0.232-0.295,0.232
						C418.383,186.513,418.359,186.509,418.334,186.503z M400.053,186.012c-0.034-0.164,0.069-0.325,0.233-0.36
						c0.396-0.085,0.793-0.164,1.194-0.236c0.163-0.032,0.322,0.078,0.354,0.244c0.03,0.165-0.079,0.323-0.244,0.353
						c-0.395,0.072-0.786,0.149-1.176,0.233c-0.022,0.005-0.044,0.007-0.065,0.007C400.209,186.253,400.083,186.155,400.053,186.012
						z M414.205,185.722c-0.396-0.054-0.794-0.102-1.193-0.144c-0.168-0.017-0.288-0.167-0.271-0.333
						c0.018-0.167,0.163-0.291,0.334-0.27c0.406,0.042,0.81,0.091,1.214,0.146c0.166,0.022,0.28,0.175,0.259,0.341
						c-0.021,0.153-0.151,0.263-0.301,0.263C414.234,185.725,414.219,185.724,414.205,185.722z M404.223,185.313
						c-0.018-0.166,0.102-0.316,0.27-0.333c0.403-0.044,0.807-0.08,1.212-0.111c0.153-0.012,0.313,0.112,0.326,0.28
						c0.013,0.167-0.112,0.312-0.279,0.325c-0.397,0.031-0.796,0.067-1.193,0.109c-0.01,0.001-0.021,0.002-0.032,0.002
						C404.372,185.586,404.24,185.471,404.223,185.313z M410.026,185.376l-0.01,0c-0.401-0.012-0.801-0.019-1.205-0.019h-0.061
						c-0.168,0-0.304-0.135-0.304-0.303s0.135-0.303,0.304-0.303h0.061c0.408,0,0.815,0.005,1.223,0.018
						c0.168,0.005,0.3,0.145,0.295,0.313C410.323,185.247,410.19,185.376,410.026,185.376L410.026,185.376z"/>
				</g>
			</g>
			<g>
				<g>
					<g>
						<g>
							<path fill="#1BBB9A" d="M430.617,184.393c0,0.191,0.137,0.346,0.305,0.346h3.045c0.167,0,0.304-0.155,0.304-0.346
								c0-0.19-0.135-0.345-0.304-0.345h-3.045C430.755,184.048,430.617,184.203,430.617,184.393z"/>
						</g>
					</g>
					<g>
						<g>
							<path fill="#1BBB9A" d="M428.489,184.393c0,0.191,0.135,0.346,0.305,0.346h0.303c0.168,0,0.305-0.155,0.305-0.346
								c0-0.19-0.136-0.345-0.305-0.345h-0.303C428.623,184.048,428.488,184.203,428.489,184.393z"/>
						</g>
					</g>
					<g>
						<g>
							<path fill="#1BBB9A" d="M431.227,201.571v0.167c0,0.525,0.377,0.953,0.84,0.953h0.756c0.462,0,0.84-0.428,0.84-0.953v-0.167
								c0-0.525-0.378-0.953-0.84-0.953h-0.756C431.604,200.619,431.227,201.046,431.227,201.571z M431.836,201.571
								c0-0.145,0.104-0.262,0.23-0.262h0.756c0.128,0,0.23,0.118,0.23,0.262v0.167c0,0.145-0.104,0.261-0.23,0.261h-0.756
								c-0.127,0-0.23-0.117-0.23-0.261V201.571z"/>
						</g>
					</g>
					<g>
						<g>
							<path fill="#1BBB9A" d="M427.269,184.26v18.218c0,0.687,0.494,1.248,1.102,1.248h8.149c0.606,0,1.101-0.56,1.101-1.249
								V184.26c0-0.688-0.494-1.248-1.101-1.248h-8.15C427.763,183.012,427.269,183.572,427.269,184.26z M427.879,202.478V184.26
								c0-0.308,0.22-0.557,0.491-0.557h8.149c0.271,0,0.491,0.25,0.491,0.557v18.218c0,0.307-0.219,0.558-0.491,0.558h-8.15
								C428.1,203.036,427.879,202.785,427.879,202.478L427.879,202.478z"/>
						</g>
					</g>
					<g>
						<g>
							<path fill="#1BBB9A" d="M427.269,185.429v14.499c0,0.191,0.137,0.346,0.305,0.346h9.742c0.166,0,0.303-0.155,0.303-0.346
								v-14.499c0-0.191-0.135-0.345-0.303-0.345h-9.742C427.407,185.083,427.269,185.238,427.269,185.429z M427.879,185.773h9.133
								v13.81h-9.133V185.773z"/>
						</g>
					</g>
				</g>
			</g>
			<g>
				<g>
					<path fill="#1BBB9A" d="M383.388,196.723c0.124,0.122,0.124,0.324,0,0.447c-0.122,0.123-0.324,0.123-0.447,0
						c-0.122-0.124-0.122-0.325,0-0.447C383.064,196.6,383.266,196.6,383.388,196.723z"/>
					<path fill="#1BBB9A" d="M391.059,196.174l-2.402-2.044c-0.013-0.009-0.023-0.018-0.036-0.025
						c-0.631-0.401-1.44-0.313-1.969,0.215l-1.311,1.311c-0.091,0.09-0.227,0.117-0.345,0.069c-1.48-0.612-2.695-1.533-3.612-2.738
						c-0.7-0.919-0.952-1.649-0.985-1.752c-0.004-0.023-0.009-0.044-0.019-0.065c-0.049-0.119-0.023-0.254,0.069-0.344l1.31-1.311
						c0.528-0.529,0.618-1.338,0.215-1.969c-0.002-0.005-0.006-0.01-0.01-0.015l-1.735-2.411c-0.546-0.848-1.735-0.976-2.448-0.261
						l-0.263,0.262c0,0,0,0-0.001,0l-0.936,0.938c-1.117,1.116-1.3,2.795-0.528,4.854c0.66,1.763,1.984,3.694,3.724,5.434
						c1.781,1.782,3.765,3.13,5.582,3.794c1.798,0.657,3.712,0.738,5.065-0.616l0.882-0.883
						C392.018,197.904,391.893,196.723,391.059,196.174z M388.261,194.627l2.399,2.042c0.012,0.009,0.023,0.017,0.036,0.025
						c0.514,0.327,0.592,1.043,0.161,1.473l-0.064,0.066l-4.095-3.066l0.399-0.4C387.41,194.456,387.886,194.399,388.261,194.627z
						 M379.698,185.442c0.003,0.004,0.006,0.009,0.011,0.014l1.734,2.411c0.236,0.377,0.182,0.859-0.134,1.174l-0.387,0.387
						l-2.771-4.074l0.074-0.074C378.657,184.849,379.374,184.931,379.698,185.442z M385.576,199.519
						c-1.731-0.632-3.633-1.928-5.351-3.646c-1.679-1.678-2.949-3.528-3.579-5.209c-0.473-1.261-0.79-3.012,0.383-4.185l0.67-0.67
						l2.771,4.075l-0.468,0.466c-0.266,0.266-0.351,0.658-0.217,1.008c0.099,0.41,0.56,1.261,1.023,1.888
						c0.683,0.923,1.921,2.198,3.946,3.036c0.355,0.147,0.761,0.067,1.033-0.206l0.459-0.458l4.094,3.065l-0.366,0.366
						C388.718,200.308,386.888,200,385.576,199.519z"/>
					<path fill="#1BBB9A" d="M382.377,196.413c-0.117,0.132-0.315,0.145-0.447,0.029c-0.35-0.305-0.932-0.814-1.253-1.144
						c-0.612-0.629-1.476-1.603-2.063-2.451c-0.1-0.144-0.064-0.341,0.079-0.44s0.342-0.064,0.44,0.08
						c0.466,0.672,1.25,1.602,1.996,2.37c0.305,0.313,0.884,0.817,1.218,1.111C382.479,196.083,382.491,196.282,382.377,196.413z"/>
				</g>
			</g>
			<g>
				<g>
					<path fill="#1BBB9A" d="M436.867,222.603v11.071c0,1.099,0.893,1.992,1.992,1.992h5.002l-0.609,1.992h-1.142
						c-0.583,0-1.059,0.474-1.059,1.058s0.476,1.058,1.059,1.058h10.459c0.583,0,1.059-0.474,1.059-1.058s-0.476-1.058-1.059-1.058
						h-1.142l-0.609-1.992h5.003c1.099,0,1.993-0.893,1.993-1.992v-11.071c0-1.099-0.895-1.993-1.993-1.993h-1.928
						c-0.171,0-0.311,0.14-0.311,0.313c0,0.171,0.14,0.31,0.311,0.31h1.928c0.756,0,1.371,0.615,1.371,1.371v11.071
						c0,0.756-0.616,1.371-1.371,1.371h-16.961c-0.758,0-1.372-0.615-1.372-1.371v-11.071c0-0.757,0.616-1.371,1.372-1.371h13.789
						c0.171,0,0.311-0.139,0.311-0.31c0-0.173-0.14-0.313-0.311-0.313h-13.789C437.761,220.61,436.869,221.504,436.867,222.603z
						 M442.112,238.279h10.46c0.238,0,0.436,0.196,0.436,0.437c0,0.239-0.196,0.436-0.436,0.436h-10.46
						c-0.239,0-0.435-0.196-0.435-0.436C441.677,238.475,441.871,238.279,442.112,238.279z M444.512,235.667h5.655l0.61,1.991
						h-6.873L444.512,235.667z"/>
					<path fill="#1BBB9A" d="M439.149,230.426v-7.535h16.385v9.54h-16.385v-0.761c0-0.173-0.139-0.311-0.311-0.311
						c-0.173,0-0.311,0.138-0.311,0.311v1.072c0,0.171,0.138,0.311,0.311,0.311h17.005c0.172,0,0.312-0.14,0.312-0.311v-10.14
						c0-0.184-0.148-0.334-0.333-0.334h-16.961c-0.184,0-0.333,0.151-0.333,0.334v7.823c0,0.173,0.138,0.311,0.311,0.311
						S439.149,230.599,439.149,230.426z"/>
					<path fill="#1BBB9A" d="M447.126,234.218c0.204,0.196,0.552,0.027,0.524-0.254c-0.014-0.136-0.115-0.25-0.248-0.275
						c-0.122-0.024-0.252,0.028-0.32,0.133C447,233.946,447.018,234.115,447.126,234.218z"/>
				</g>
			</g>
		</g>
		<g>
			<g>
				<g>
					<g>
						<path fill="#F7CEB3" d="M388.703,209.9c-1.267,0.58-2.765,0.925-4.146,0.807c-1.38-0.115-5.984,2.879-5.984,2.879l3.339,1.037
							c0,0,1.495-0.575,2.761-0.462c1.267,0.115,1.667,1.873,1.383,1.5c-0.346-0.462-4.488,1.264-4.488,1.264s-2.19-0.115-4.031,0
							c-1.843,0.118-2.187,0.805-4.029,0.692c-1.842-0.118-2.303,0.802-2.303,0.802s0,2.91-0.048,6.651l-4.64-1.504
							c0.364-1.782,0.581-3.417,0.581-4.835c0-3.38-0.116-2.362,1.538-4.914c2.455-3.798,2.223-1.034,9.363-4.49
							c2.47-1.194,4.371-2.532,4.371-2.532s4.26-0.807,4.951-1.264c0.692-0.462,1.037,0.689,0,1.609
							c-1.036,0.922-3.797,1.267-3.797,1.267l-0.808,0.575l2.647-0.112c0,0,1.266,0.23,2.531,0.112
							C389.162,208.868,389.969,209.325,388.703,209.9z"/>
					</g>
					<g>
						<path fill="#169F85" d="M374.081,226.018c0,0-0.691,3.686-1.612,7.369c-0.92,3.681-1.84,8.519-1.84,8.519
							s-2.477,9.517-3.514,9.632c-1.037,0.117-0.077,0.326-9.403-2.32c-9.322-2.648-28.564-16.557-25.611-26.502
							c0,0,2.458-2.761,7.063-0.303c4.605,2.456,5.525,4.606,7.673,6.753c2.148,2.147,8.595,7.062,12.587,8.595
							c1.747,0.671,2.492,0.99,2.779,1.136l-0.012,0.084l-0.006,0.013c0,0,0.383,0.094,0.024-0.097c0,0,0,0-0.007,0l3.358-15.64
							l0.954,0.308l4.64,1.504L374.081,226.018z"/>
					</g>
					<g>
						<path fill="#D9F6FF" d="M362.186,238.993l0.006-0.013l0.012-0.084c0.007,0,0.007,0,0.007,0
							C362.569,239.087,362.186,238.993,362.186,238.993z"/>
					</g>
					<g>
						<path fill="#F7CEB3" d="M335.74,211.396c-0.352,0.789-2.871,2.137-8.674,1.962c-0.116,0.029-0.265,0-0.41,0
							c-3.694-0.146-9.027-0.324-13.54-1.875c-2.96-0.967-5.568-2.521-7.18-5.04c-4.043-6.33-1.055-13.683-1.055-13.683
							s1.113-3.49,7.268-5.951c6.125-2.461,9.904-2.578,13.13,0.175c3.224,2.785,5.979,6.212,5.859,6.915
							c-0.116,0.703-1.141,3.344-0.468,3.459c0.703,0.12,3.106,2.168,4.161,1.964c1.024-0.232,1.144,1.142,0.468,1.609
							c-0.704,0.441-1.522,2.053-1.522,2.053l0.704,1.379c0,0-0.909,1.612-1.496,1.962c-0.059,0.029-0.059,0.057-0.089,0.057
							c0.146-0.028,1.437-0.585,1.819,0.06c0.468,0.818-0.822,1.729-0.588,2.432C334.365,209.55,336.091,210.605,335.74,211.396z"/>
					</g>
					<g>
						<path fill="#F5E6DF" d="M341.344,301.922c-1.165,10.747-5.516,49.658-5.516,49.658s-11.831,19.109-14.509,25.813
							c-3.196,7.98-4.354,29.321-4.354,29.321l1.972,9.183l0.931,4.323c0,0,2.029,0.611,1.739,2.764
							c-0.287,2.15-8.993,2.453-9.864,2.15c-0.868-0.309-4.063-1.539-4.063-1.539s-1.45-3.067-0.872-6.139
							c0.584-3.07,0.339-2.114,0-4.298c-0.862-5.593-2.094-4.59-1.449-6.753c0.801-2.698,1.449-3.378,2.611-5.217
							c1.162-1.844,2.321-32.113,5.804-38.558c3.479-6.447,11.316-15.348,11.316-15.348s-9.43-49.351-6.748-55.798
							c2.688-6.447,22.419-6.142,22.419-6.142S342.5,291.18,341.344,301.922z"/>
					</g>
					<g>
						<path fill="#F5E6DF" d="M343.371,420.22c-4.966,0.097-5.51-0.92-6.672-2.764c-1.165-1.842-2.321-1.842-5.516-4.298
							c-2.627-2.02,0.052-4.041,1.724-7.427c0.364-0.731,0.682-1.523,0.887-2.398c1.163-4.908,1.453-23.819,1.453-31.8
							c0-7.983,3.192-10.744,3.483-14.12c0.287-3.375-3.483-47.202-3.483-47.202s-1.453-16.884,2.614-22.105
							c4.062-5.217,14.216-7.466,14.216-7.466s2.633,5.013,4.663,14.532c2.033,9.514-1.469,45.05-3.792,52.417
							c-2.321,7.369-3.192,12.586-4.354,17.5c-1.16,4.911-7.545,40.856-7.545,40.856s3.074,4.48,6.41,7.579
							c1.443,1.351,2.941,2.429,4.257,2.782C354.233,416.973,354.982,419.989,343.371,420.22z"/>
					</g>
					<g>
						<path fill="#2A80B8" d="M333.867,287.262c0,0,6.312-6.444,11.101-8.977c4.788-2.533,6.035-2.555,6.035-2.555
							s5.97,15.374,6.248,23.969c0.373,11.646-0.7,32.037-2.68,43.782c-1.461,8.684-3.944,15.312-3.944,15.312l-9.36,45.538
							c0,0-0.867,1.845-5.005,0.692c-4.134-1.152-5.222-3.224-5.222-3.224s2.155-31.996,2.61-34.718
							c2.37-14.164,3.049-7.6,3.484-15.656C337.171,350.739,333.867,287.497,333.867,287.262z"/>
					</g>
					<g>
						<path fill="#394C60" d="M321.607,422.983c-0.287,2.15-8.993,2.453-9.864,2.15c-0.868-0.309-4.063-1.539-4.063-1.539
							s-1.45-3.067-0.872-6.139c0.584-3.07,0.339-2.114,0-4.298c-0.862-5.593-2.094-4.59-1.449-6.753
							c0.801-2.698,1.449-3.378,2.611-5.217c0,0,0.434,7.288,1.961,9.82c1.521,2.533,0.65,6.217,4.788,6.68
							c2.235,0.248,3.517-0.583,4.219-1.792l0.931,4.323C319.867,420.22,321.897,420.831,321.607,422.983z"/>
					</g>
					<g>
						<path fill="#394C60" d="M343.371,420.22c-4.966,0.097-5.51-0.92-6.672-2.764c-1.165-1.842-2.321-1.842-5.516-4.298
							c-2.627-2.02,0.052-4.041,1.724-7.427c0.967,0.883,2.624,2.432,3.792,3.668c1.74,1.839,1.957,4.833,6.963,5.524
							c5.006,0.69,3.699-1.382,3.699-1.382s0.037-0.005,0.099-0.018c1.443,1.351,2.941,2.429,4.257,2.782
							C354.233,416.973,354.982,419.989,343.371,420.22z"/>
					</g>
					<g>
						<path fill="#3597DA" d="M317.546,283.581c0,0-2.178,10.82-0.654,22.563c1.525,11.742,6.53,41.14,6.53,41.14
							s-8.054,6.904-11.099,16.575c-3.048,9.673-4.788,36.33-4.788,36.33s3.479,5.987,6.745,6.444
							c3.266,0.462,5.005-0.688,5.005-0.688s0.871-12.435,2.395-15.658s15.236-37.712,15.236-37.712s4.569-47.351,4.569-54.49
							c0-7.138-2.392-15.424-2.392-15.424S319.069,282.199,317.546,283.581z"/>
					</g>
					<g>
						<g>
							<path fill="#F6C8A9" d="M325.716,225.783c-3.192,1.087-10.519-3.075-13.684-5.039c2.168-2.257,1.261-7.563,1.083-9.261
								c4.513,1.552,9.846,1.729,13.54,1.875c0.146,0,0.294,0.029,0.41,0c-1.114,1.669-1.435,3.723-0.909,5.685l0.031,0.058
								c0.232,0.883,0.965,1.528,1.874,1.643C329.936,225.783,325.716,225.783,325.716,225.783z"/>
						</g>
						<g>
							<path fill="#1BBB9A" d="M346.222,264.774c-3.459-3.158-1.817-10.172-1.817-12.017c0-1.839,0.511-6.622,1.22-8.913
								c2.077-6.714-0.345-8.461-4.029-13.064s-6.73-9.29-6.73-9.29l-6.767-0.75c-0.009-0.002-0.021-0.005-0.031-0.005
								c1.869,5.049-2.335,5.052-2.335,5.052c-3.208,1.068-10.541-3.096-13.702-5.04c-0.149,0.162-0.314,0.306-0.499,0.437
								c-3.069,2.147-7.06,3.069-9.515,7.364c-2.456,4.3,2.455,15.044,7.369,20.88c4.91,5.831,8.595,6.444,10.131,15.039
								c1.534,8.598-1.756,8.195-3.915,18.192c-1.844,8.519-0.461,15.424-0.461,15.424s11.974,2.764,31.543-5.528
								c7.966-3.372,9.238-3.806,9.238-3.806S352.438,270.456,346.222,264.774z"/>
						</g>
					</g>
					<g>
						<path fill="#5D5D5D" d="M324.811,185.265c0,0-1.843,3.227-4.146,4.603c-2.303,1.385-2.07,1.385-2.07,5.53
							c0,4.144,0,4.144,0,4.144s-2.303,2.764-2.535,3.683c-0.229,0.922-0.92,8.519-0.92,8.519s-7.832,3.263-12.437-6.406
							c-4.605-9.671-0.663-16.622,3.482-19.616C310.329,182.733,318.363,180.429,324.811,185.265z"/>
					</g>
					<g>
						<path fill="#F7CEB3" d="M317.442,202.306c0,0-2.186-4.375-4.144-3.339c-1.956,1.037-3.339,2.069-3.223,3.339
							c0.114,1.267,0.688,5.755,7.366,5.525V202.306z"/>
					</g>
					<g>
						<path fill="#FDD1AD" d="M315.883,275.185c-1.227,0.429-2.182,0.653-2.701,0.567
							C313.182,275.752,314.258,275.563,315.883,275.185z"/>
					</g>
					<g>
						<path fill="#F7CEB3" d="M349.242,259.035c-0.511,1.196-3.881,4.783-5.041,5.07c-1.156,0.293-6.238-2.973-6.238-2.973
							s-0.361,0.353-0.988,0.917c-0.227-0.702-1.112-1.956-1.406-2.659c-0.267-0.643-0.755-2.069-0.826-3.213
							c0.637-0.481,1.043-0.811,1.043-0.811s1.165,0.034,3.192-1.123c2.033-1.162,8.995-0.582,8.995-0.582
							S351.147,254.57,349.242,259.035z"/>
					</g>
					<g>
						<path fill="#30C4A1" d="M337.473,263.317c0,0-7.598,6.677-12.662,8.98c-3.008,1.366-6.543,2.33-8.92,2.885
							c-0.005,0-0.005,0-0.008,0.002c-1.625,0.379-2.701,0.567-2.701,0.567c-1.84-0.309-9.613-11.884-11.166-16.197
							c-2.321-6.452-3.376-20.562-2.456-27.319c0.924-6.756,5.525-3.686,5.525-3.686c3.99,0.616,6.14,10.444,6.449,16.889
							c0.293,6.243,1.349,19.443,4.767,19.422c2.713-1.17,12.481-5.386,14.265-6.379c2.073-1.149,4.376-2.994,4.376-2.994
							s0,0.515,0.046,1.202c0.073,1.215,1.135,2.832,1.724,3.273c0.692,0.517,0.398,2.202,0.637,2.946c0,0,0,0,0,0.003
							C337.427,263.16,337.473,263.317,337.473,263.317z"/>
					</g>
				</g>
				<g>
					<ellipse fill="#5D5D5D" cx="298.362" cy="197.789" rx="5.474" ry="6.416"/>
				</g>
			</g>
			<g>
				<path fill="#F7CEB3" d="M337.47,255.229l5.192-4.156c0,0,3.348-0.865,4.733-1.56c1.385-0.69,2.075-1.729,2.251-1.21
					c0.171,0.52,0.171,1.729-1.04,2.597c-1.211,0.864-4.731,3.114-4.731,3.114l-2.25,2.943L337.47,255.229z"/>
			</g>
			<g>
				<path fill="#F7CEB3" d="M347.683,253.727l3.981-0.577c0,0,1.676-3.057,2.887-3.576s1.269,0.29,1.269,0.29l-3.058,5.596
					c0,0,0,1.729-0.691,2.424c-0.693,0.692-1.098,0.692-1.098,0.692s0.578,1.037-0.462,1.904c-1.04,0.865-1.152,0.692-1.152,0.692
					s0.229,1.27-1.155,1.614c-1.387,0.348-4.002,1.319-4.002,1.319L347.683,253.727z"/>
			</g>
		</g>
	</g>
</g>
<g>
	<path fill="#34495E" d="M188.091,31.818c0-5.124,3.899-8.897,9.173-8.897c2.549,0,4.849,0.85,6.398,2.549l-1.175,1.175
		c-1.425-1.449-3.174-2.074-5.174-2.074c-4.224,0-7.398,3.1-7.398,7.248c0,4.149,3.174,7.248,7.398,7.248
		c2,0,3.749-0.624,5.174-2.099l1.175,1.174c-1.55,1.7-3.849,2.575-6.424,2.575C191.99,40.716,188.091,36.942,188.091,31.818z"/>
	<path fill="#34495E" d="M205.341,33.993c0-3.899,2.849-6.674,6.698-6.674s6.673,2.774,6.673,6.674c0,3.898-2.824,6.698-6.673,6.698
		S205.341,37.891,205.341,33.993z M216.912,33.993c0-3.074-2.074-5.124-4.874-5.124s-4.899,2.05-4.899,5.124s2.1,5.124,4.899,5.124
		S216.912,37.067,216.912,33.993z"/>
	<path fill="#34495E" d="M234.437,32.943v7.623h-1.774v-7.448c0-2.774-1.45-4.199-3.949-4.199c-2.824,0-4.599,1.75-4.599,4.749
		v6.898h-1.774V27.419h1.699v2.424c0.95-1.6,2.725-2.524,4.999-2.524C232.238,27.319,234.437,29.168,234.437,32.943z"/>
	<path fill="#34495E" d="M237.44,39.066l0.8-1.399c1.05,0.825,2.824,1.475,4.674,1.475c2.5,0,3.524-0.85,3.524-2.149
		c0-3.424-8.523-0.725-8.523-5.924c0-2.149,1.85-3.749,5.199-3.749c1.7,0,3.549,0.476,4.649,1.225l-0.774,1.425
		c-1.15-0.8-2.524-1.124-3.875-1.124c-2.374,0-3.424,0.924-3.424,2.174c0,3.549,8.523,0.875,8.523,5.924
		c0,2.274-2,3.749-5.424,3.749C240.615,40.691,238.515,39.991,237.44,39.066z"/>
	<path fill="#34495E" d="M263.337,27.419v13.146h-1.699v-2.399c-0.925,1.6-2.625,2.524-4.724,2.524
		c-3.349,0-5.548-1.875-5.548-5.648v-7.623h1.774v7.448c0,2.799,1.45,4.224,3.949,4.224c2.749,0,4.474-1.774,4.474-4.773v-6.898
		H263.337z"/>
	<path fill="#34495E" d="M268.315,22.02h1.774v18.546h-1.774V22.02z"/>
	<path fill="#34495E" d="M282.012,39.766c-0.7,0.625-1.75,0.925-2.774,0.925c-2.475,0-3.849-1.399-3.849-3.824v-7.948h-2.35v-1.499
		h2.35v-2.875h1.774v2.875h3.999v1.499h-3.999v7.849c0,1.55,0.8,2.399,2.274,2.399c0.725,0,1.45-0.226,1.95-0.675L282.012,39.766z"
		/>
	<path fill="#34495E" d="M295.162,32.417v8.148h-1.7v-2.05c-0.8,1.35-2.349,2.175-4.524,2.175c-2.974,0-4.799-1.55-4.799-3.824
		c0-2.024,1.3-3.724,5.074-3.724h4.174v-0.8c0-2.25-1.275-3.475-3.724-3.475c-1.7,0-3.299,0.6-4.374,1.55l-0.8-1.325
		c1.325-1.124,3.274-1.774,5.349-1.774C293.238,27.319,295.162,29.019,295.162,32.417z M293.387,36.617v-2.149h-4.124
		c-2.549,0-3.375,1-3.375,2.35c0,1.524,1.225,2.475,3.324,2.475C291.213,39.292,292.687,38.341,293.387,36.617z M290.013,25.395
		h-1.75l3.424-3.1h2.375L290.013,25.395z"/>
	<path fill="#34495E" d="M305.215,33.993c0-3.924,2.849-6.674,6.773-6.674c2.225,0,4.099,0.875,5.149,2.6l-1.325,0.899
		c-0.9-1.324-2.299-1.949-3.824-1.949c-2.874,0-4.974,2.05-4.974,5.124c0,3.099,2.1,5.124,4.974,5.124
		c1.525,0,2.924-0.601,3.824-1.925l1.325,0.899c-1.05,1.7-2.924,2.6-5.149,2.6C308.064,40.691,305.215,37.917,305.215,33.993z"/>
	<path fill="#34495E" d="M319.064,33.993c0-3.899,2.849-6.674,6.698-6.674s6.673,2.774,6.673,6.674c0,3.898-2.824,6.698-6.673,6.698
		S319.064,37.891,319.064,33.993z M330.636,33.993c0-3.074-2.074-5.124-4.874-5.124s-4.899,2.05-4.899,5.124s2.1,5.124,4.899,5.124
		S330.636,37.067,330.636,33.993z"/>
	<path fill="#34495E" d="M348.161,32.943v7.623h-1.774v-7.448c0-2.774-1.45-4.199-3.949-4.199c-2.824,0-4.599,1.75-4.599,4.749
		v6.898h-1.774V27.419h1.699v2.424c0.95-1.6,2.725-2.524,4.999-2.524C345.962,27.319,348.161,29.168,348.161,32.943z"/>
	<path fill="#34495E" d="M366.462,39.766c-0.7,0.625-1.75,0.925-2.774,0.925c-2.475,0-3.849-1.399-3.849-3.824v-7.948h-2.35v-1.499
		h2.35v-2.875h1.774v2.875h3.999v1.499h-3.999v7.849c0,1.55,0.8,2.399,2.274,2.399c0.725,0,1.45-0.226,1.95-0.675L366.462,39.766z"
		/>
	<path fill="#34495E" d="M381.535,27.419v13.146h-1.699v-2.399c-0.925,1.6-2.625,2.524-4.724,2.524
		c-3.349,0-5.548-1.875-5.548-5.648v-7.623h1.774v7.448c0,2.799,1.45,4.224,3.949,4.224c2.749,0,4.474-1.774,4.474-4.773v-6.898
		H381.535z"/>
	<path fill="#34495E" d="M393.063,22.02h1.774v18.546h-1.774V22.02z"/>
	<path fill="#34495E" d="M402.487,22.295h2.375l-4.049,3.1h-1.75L402.487,22.295z M399.788,27.419h1.774v13.146h-1.774V27.419z"/>
	<path fill="#34495E" d="M418.509,22.02v18.546h-1.699v-2.6c-1.075,1.774-2.899,2.725-5.074,2.725c-3.749,0-6.547-2.725-6.547-6.698
		c0-3.975,2.798-6.674,6.547-6.674c2.1,0,3.899,0.9,4.999,2.6V22.02H418.509z M416.76,33.993c0-3.074-2.1-5.124-4.874-5.124
		c-2.8,0-4.898,2.05-4.898,5.124s2.099,5.124,4.898,5.124C414.66,39.117,416.76,37.067,416.76,33.993z"/>
	<path fill="#34495E" d="M434.909,34.542h-10.998c0.2,2.749,2.3,4.574,5.174,4.574c1.6,0,3.024-0.575,4.024-1.725l1,1.149
		c-1.175,1.399-3,2.149-5.074,2.149c-4.099,0-6.898-2.8-6.898-6.698c0-3.899,2.725-6.674,6.424-6.674s6.373,2.725,6.373,6.674
		C434.934,34.142,434.909,34.342,434.909,34.542z M423.911,33.217h9.323c-0.225-2.574-2.1-4.373-4.674-4.373
		C426.011,28.844,424.137,30.643,423.911,33.217z"/>
	<path fill="#34495E" d="M445.185,27.319v1.725c-0.149,0-0.3-0.024-0.425-0.024c-2.749,0-4.424,1.749-4.424,4.849v6.698h-1.774
		V27.419h1.699v2.574C441.086,28.244,442.761,27.319,445.185,27.319z"/>
	<path fill="#34495E" d="M455.136,22.02h1.774v18.546h-1.774V22.02z"/>
	<path fill="#34495E" d="M471.784,32.417v8.148h-1.7v-2.05c-0.8,1.35-2.35,2.175-4.523,2.175c-2.975,0-4.799-1.55-4.799-3.824
		c0-2.024,1.3-3.724,5.073-3.724h4.174v-0.8c0-2.25-1.274-3.475-3.724-3.475c-1.7,0-3.3,0.6-4.374,1.55l-0.8-1.325
		c1.324-1.124,3.274-1.774,5.349-1.774C469.86,27.319,471.784,29.019,471.784,32.417z M470.009,36.617v-2.149h-4.124
		c-2.549,0-3.374,1-3.374,2.35c0,1.524,1.225,2.475,3.324,2.475C467.835,39.292,469.31,38.341,470.009,36.617z"/>
	<path fill="#34495E" d="M493.083,32.417v8.148h-1.699v-2.05c-0.8,1.35-2.35,2.175-4.523,2.175c-2.975,0-4.799-1.55-4.799-3.824
		c0-2.024,1.3-3.724,5.073-3.724h4.174v-0.8c0-2.25-1.274-3.475-3.724-3.475c-1.699,0-3.299,0.6-4.374,1.55l-0.8-1.325
		c1.324-1.124,3.274-1.774,5.349-1.774C491.159,27.319,493.083,29.019,493.083,32.417z M491.309,36.617v-2.149h-4.124
		c-2.549,0-3.374,1-3.374,2.35c0,1.524,1.225,2.475,3.324,2.475C489.135,39.292,490.61,38.341,491.309,36.617z"/>
	<path fill="#34495E" d="M496.086,39.066l0.8-1.399c1.05,0.825,2.825,1.475,4.674,1.475c2.5,0,3.524-0.85,3.524-2.149
		c0-3.424-8.522-0.725-8.522-5.924c0-2.149,1.85-3.749,5.198-3.749c1.7,0,3.55,0.476,4.649,1.225l-0.775,1.425
		c-1.149-0.8-2.524-1.124-3.874-1.124c-2.374,0-3.424,0.924-3.424,2.174c0,3.549,8.522,0.875,8.522,5.924
		c0,2.274-1.999,3.749-5.424,3.749C499.261,40.691,497.161,39.991,496.086,39.066z"/>
	<path fill="#34495E" d="M509.736,23.27c0-0.675,0.575-1.25,1.3-1.25s1.3,0.551,1.3,1.226c0,0.725-0.55,1.299-1.3,1.299
		C510.311,24.544,509.736,23.97,509.736,23.27z M510.136,27.419h1.774v13.146h-1.774V27.419z"/>
	<path fill="#34495E" d="M529.032,27.419v11.547c0,4.523-2.225,6.573-6.573,6.573c-2.399,0-4.749-0.725-6.124-2.024l0.9-1.35
		c1.249,1.125,3.148,1.8,5.174,1.8c3.324,0,4.849-1.524,4.849-4.774v-1.674c-1.1,1.674-2.975,2.549-5.124,2.549
		c-3.749,0-6.599-2.624-6.599-6.398s2.85-6.349,6.599-6.349c2.199,0,4.099,0.9,5.199,2.625v-2.524H529.032z M527.308,33.667
		c0-2.85-2.1-4.799-4.999-4.799s-4.974,1.949-4.974,4.799s2.074,4.824,4.974,4.824S527.308,36.517,527.308,33.667z"/>
	<path fill="#34495E" d="M546.108,32.943v7.623h-1.774v-7.448c0-2.774-1.449-4.199-3.949-4.199c-2.824,0-4.599,1.75-4.599,4.749
		v6.898h-1.774V27.419h1.699v2.424c0.95-1.6,2.725-2.524,4.999-2.524C543.908,27.319,546.108,29.168,546.108,32.943z"/>
	<path fill="#34495E" d="M560.857,32.417v8.148h-1.699v-2.05c-0.8,1.35-2.35,2.175-4.523,2.175c-2.975,0-4.799-1.55-4.799-3.824
		c0-2.024,1.3-3.724,5.073-3.724h4.174v-0.8c0-2.25-1.274-3.475-3.724-3.475c-1.699,0-3.299,0.6-4.374,1.55l-0.8-1.325
		c1.324-1.124,3.274-1.774,5.349-1.774C558.933,27.319,560.857,29.019,560.857,32.417z M559.082,36.617v-2.149h-4.124
		c-2.549,0-3.374,1-3.374,2.35c0,1.524,1.225,2.475,3.324,2.475C556.908,39.292,558.383,38.341,559.082,36.617z"/>
	<path fill="#34495E" d="M564.409,33.993c0-3.924,2.85-6.674,6.773-6.674c2.225,0,4.1,0.875,5.149,2.6l-1.325,0.899
		c-0.899-1.324-2.3-1.949-3.824-1.949c-2.874,0-4.974,2.05-4.974,5.124c0,3.099,2.1,5.124,4.974,5.124
		c1.524,0,2.925-0.601,3.824-1.925l1.325,0.899c-1.05,1.7-2.925,2.6-5.149,2.6C567.259,40.691,564.409,37.917,564.409,33.993z"/>
	<path fill="#34495E" d="M579.409,23.27c0-0.675,0.575-1.25,1.3-1.25s1.3,0.551,1.3,1.226c0,0.725-0.55,1.299-1.3,1.299
		C579.985,24.544,579.409,23.97,579.409,23.27z M579.81,27.419h1.774v13.146h-1.774V27.419z"/>
	<path fill="#34495E" d="M585.209,33.993c0-3.899,2.85-6.674,6.698-6.674c3.85,0,6.674,2.774,6.674,6.674
		c0,3.898-2.824,6.698-6.674,6.698C588.059,40.691,585.209,37.891,585.209,33.993z M596.781,33.993c0-3.074-2.074-5.124-4.874-5.124
		c-2.799,0-4.898,2.05-4.898,5.124s2.1,5.124,4.898,5.124C594.707,39.117,596.781,37.067,596.781,33.993z M593.683,22.295h2.374
		l-4.049,3.1h-1.75L593.683,22.295z"/>
	<path fill="#34495E" d="M614.306,32.943v7.623h-1.774v-7.448c0-2.774-1.449-4.199-3.949-4.199c-2.824,0-4.599,1.75-4.599,4.749
		v6.898h-1.774V27.419h1.699v2.424c0.95-1.6,2.725-2.524,4.999-2.524C612.107,27.319,614.306,29.168,614.306,32.943z"/>
	<path fill="#34495E" d="M217.712,52.02v18.546h-1.7v-2.6c-1.075,1.774-2.899,2.725-5.074,2.725c-3.749,0-6.548-2.725-6.548-6.698
		c0-3.975,2.799-6.674,6.548-6.674c2.099,0,3.899,0.9,4.999,2.6V52.02H217.712z M215.962,63.993c0-3.074-2.099-5.124-4.874-5.124
		c-2.799,0-4.899,2.05-4.899,5.124s2.1,5.124,4.899,5.124C213.863,69.117,215.962,67.067,215.962,63.993z"/>
	<path fill="#34495E" d="M234.112,64.542h-10.997c0.2,2.749,2.299,4.574,5.174,4.574c1.6,0,3.024-0.575,4.024-1.725l1,1.149
		c-1.174,1.399-2.999,2.149-5.074,2.149c-4.099,0-6.898-2.8-6.898-6.698c0-3.899,2.724-6.674,6.423-6.674s6.374,2.725,6.374,6.674
		C234.137,64.142,234.112,64.342,234.112,64.542z M223.115,63.217h9.323c-0.225-2.574-2.1-4.373-4.674-4.373
		C225.214,58.844,223.34,60.643,223.115,63.217z"/>
	<path fill="#34495E" d="M256.161,57.419v13.146h-1.699v-2.399c-0.925,1.6-2.625,2.524-4.724,2.524
		c-3.349,0-5.548-1.875-5.548-5.648v-7.623h1.774v7.448c0,2.799,1.45,4.224,3.949,4.224c2.749,0,4.474-1.774,4.474-4.773v-6.898
		H256.161z"/>
	<path fill="#34495E" d="M273.236,62.943v7.623h-1.774v-7.448c0-2.774-1.45-4.199-3.949-4.199c-2.824,0-4.599,1.75-4.599,4.749
		v6.898h-1.774V57.419h1.699v2.424c0.95-1.6,2.725-2.524,4.999-2.524C271.037,57.319,273.236,59.168,273.236,62.943z"/>
	<path fill="#34495E" d="M287.986,62.417v8.148h-1.7v-2.05c-0.8,1.35-2.349,2.175-4.524,2.175c-2.974,0-4.799-1.55-4.799-3.824
		c0-2.024,1.3-3.724,5.074-3.724h4.174v-0.8c0-2.25-1.275-3.475-3.724-3.475c-1.7,0-3.299,0.6-4.374,1.55l-0.8-1.325
		c1.325-1.124,3.274-1.774,5.349-1.774C286.062,57.319,287.986,59.019,287.986,62.417z M286.212,66.617v-2.149h-4.124
		c-2.549,0-3.375,1-3.375,2.35c0,1.524,1.225,2.475,3.324,2.475C284.037,69.292,285.511,68.341,286.212,66.617z"/>
	<path fill="#34495E" d="M297.689,63.842c0-4.049,3.124-6.923,7.498-6.923c2.824,0,5.049,1.225,6.023,3.424l-3.024,1.625
		c-0.725-1.275-1.8-1.85-3.024-1.85c-1.975,0-3.524,1.374-3.524,3.724s1.549,3.725,3.524,3.725c1.225,0,2.299-0.55,3.024-1.85
		l3.024,1.649c-0.975,2.149-3.199,3.399-6.023,3.399C300.813,70.766,297.689,67.891,297.689,63.842z"/>
	<path fill="#34495E" d="M325.361,62.893v7.673h-3.649v-1.675c-0.725,1.225-2.125,1.875-4.099,1.875
		c-3.149,0-5.024-1.75-5.024-4.074c0-2.374,1.675-4.024,5.773-4.024h3.1c0-1.674-1-2.649-3.1-2.649c-1.424,0-2.899,0.476-3.874,1.25
		l-1.399-2.725c1.475-1.05,3.649-1.624,5.798-1.624C322.986,56.919,325.361,58.819,325.361,62.893z M321.462,66.317v-1.375h-2.675
		c-1.824,0-2.399,0.675-2.399,1.575c0,0.975,0.825,1.624,2.2,1.624C319.887,68.141,321.011,67.542,321.462,66.317z"/>
	<path fill="#34495E" d="M343.534,63.842c0,4.225-2.924,6.924-6.698,6.924c-1.674,0-3.049-0.525-4.049-1.625v6.273h-3.899V57.12
		h3.724v1.549c0.975-1.175,2.425-1.749,4.224-1.749C340.61,56.919,343.534,59.619,343.534,63.842z M339.586,63.842
		c0-2.324-1.475-3.724-3.424-3.724s-3.424,1.399-3.424,3.724s1.475,3.725,3.424,3.725S339.586,66.167,339.586,63.842z"/>
	<path fill="#34495E" d="M357.81,62.893v7.673h-3.649v-1.675c-0.725,1.225-2.125,1.875-4.099,1.875c-3.149,0-5.024-1.75-5.024-4.074
		c0-2.374,1.674-4.024,5.773-4.024h3.099c0-1.674-1-2.649-3.099-2.649c-1.424,0-2.899,0.476-3.874,1.25l-1.399-2.725
		c1.475-1.05,3.649-1.624,5.798-1.624C355.436,56.919,357.81,58.819,357.81,62.893z M353.911,66.317v-1.375h-2.674
		c-1.824,0-2.399,0.675-2.399,1.575c0,0.975,0.825,1.624,2.2,1.624C352.337,68.141,353.461,67.542,353.911,66.317z"/>
	<path fill="#34495E" d="M360.488,63.842c0-4.049,3.124-6.923,7.498-6.923c2.824,0,5.049,1.225,6.023,3.424l-3.024,1.625
		c-0.725-1.275-1.8-1.85-3.024-1.85c-1.975,0-3.524,1.374-3.524,3.724s1.549,3.725,3.524,3.725c1.225,0,2.299-0.55,3.024-1.85
		l3.024,1.649c-0.975,2.149-3.199,3.399-6.023,3.399C363.612,70.766,360.488,67.891,360.488,63.842z"/>
	<path fill="#34495E" d="M375.787,53.07c0-1.225,0.975-2.174,2.424-2.174s2.424,0.899,2.424,2.1c0,1.299-0.975,2.249-2.424,2.249
		S375.787,54.294,375.787,53.07z M376.262,57.12h3.899v13.446h-3.899V57.12z"/>
	<path fill="#34495E" d="M392.46,69.917c-0.8,0.574-1.975,0.85-3.174,0.85c-3.174,0-5.024-1.625-5.024-4.824v-5.523h-2.075v-2.999
		h2.075v-3.274h3.899v3.274h3.349v2.999h-3.349v5.474c0,1.149,0.625,1.774,1.675,1.774c0.575,0,1.149-0.175,1.575-0.5L392.46,69.917
		z"/>
	<path fill="#34495E" d="M406.559,62.893v7.673h-3.649v-1.675c-0.725,1.225-2.125,1.875-4.099,1.875
		c-3.149,0-5.024-1.75-5.024-4.074c0-2.374,1.674-4.024,5.773-4.024h3.099c0-1.674-1-2.649-3.099-2.649
		c-1.424,0-2.899,0.476-3.874,1.25l-1.399-2.725c1.475-1.05,3.649-1.624,5.798-1.624C404.185,56.919,406.559,58.819,406.559,62.893z
		 M402.66,66.317v-1.375h-2.674c-1.824,0-2.399,0.675-2.399,1.575c0,0.975,0.825,1.624,2.2,1.624
		C401.086,68.141,402.21,67.542,402.66,66.317z"/>
	<path fill="#34495E" d="M409.237,63.842c0-4.049,3.124-6.923,7.498-6.923c2.824,0,5.049,1.225,6.023,3.424l-3.024,1.625
		c-0.725-1.275-1.799-1.85-3.023-1.85c-1.975,0-3.524,1.374-3.524,3.724s1.55,3.725,3.524,3.725c1.225,0,2.299-0.55,3.023-1.85
		l3.024,1.649c-0.975,2.149-3.199,3.399-6.023,3.399C412.361,70.766,409.237,67.891,409.237,63.842z"/>
	<path fill="#34495E" d="M424.535,53.07c0-1.225,0.976-2.174,2.425-2.174s2.425,0.899,2.425,2.1c0,1.299-0.976,2.249-2.425,2.249
		S424.535,54.294,424.535,53.07z M425.011,57.12h3.898v13.446h-3.898V57.12z"/>
	<path fill="#34495E" d="M431.536,63.842c0-4.049,3.124-6.923,7.398-6.923c4.273,0,7.373,2.874,7.373,6.923s-3.1,6.924-7.373,6.924
		C434.66,70.766,431.536,67.891,431.536,63.842z M442.359,63.842c0-2.324-1.475-3.724-3.424-3.724c-1.95,0-3.449,1.399-3.449,3.724
		s1.499,3.725,3.449,3.725C440.884,67.567,442.359,66.167,442.359,63.842z M439.985,51.795h4.198l-4.523,3.6h-3.049L439.985,51.795z
		"/>
	<path fill="#34495E" d="M462.657,62.868v7.698h-3.898v-7.099c0-2.174-1-3.174-2.725-3.174c-1.875,0-3.225,1.149-3.225,3.624v6.648
		h-3.898V57.12h3.724v1.574c1.05-1.149,2.625-1.774,4.449-1.774C460.258,56.919,462.657,58.769,462.657,62.868z"/>
	<path fill="#34495E" d="M487.907,63.842c0,4.225-2.925,6.924-6.698,6.924c-1.675,0-3.05-0.525-4.05-1.625v6.273h-3.898V57.12h3.724
		v1.549c0.975-1.175,2.425-1.749,4.225-1.749C484.983,56.919,487.907,59.619,487.907,63.842z M483.958,63.842
		c0-2.324-1.475-3.724-3.424-3.724c-1.95,0-3.425,1.399-3.425,3.724s1.475,3.725,3.425,3.725
		C482.484,67.567,483.958,66.167,483.958,63.842z"/>
	<path fill="#34495E" d="M498.858,56.919v3.599c-0.325-0.024-0.575-0.05-0.875-0.05c-2.149,0-3.574,1.175-3.574,3.749v6.349h-3.898
		V57.12h3.724v1.774C495.184,57.594,496.783,56.919,498.858,56.919z"/>
	<path fill="#34495E" d="M514.157,64.942h-10.173c0.375,1.675,1.8,2.7,3.85,2.7c1.425,0,2.449-0.426,3.374-1.3l2.074,2.249
		c-1.25,1.425-3.124,2.175-5.549,2.175c-4.648,0-7.673-2.925-7.673-6.924c0-4.023,3.074-6.923,7.173-6.923
		c3.949,0,6.999,2.649,6.999,6.973C514.233,64.193,514.182,64.618,514.157,64.942z M503.935,62.667h6.623
		c-0.274-1.699-1.549-2.799-3.299-2.799C505.485,59.869,504.21,60.943,503.935,62.667z"/>
	<path fill="#34495E" d="M515.535,69.316l1.3-2.799c1.199,0.774,3.024,1.3,4.674,1.3c1.8,0,2.475-0.476,2.475-1.225
		c0-2.2-8.123,0.05-8.123-5.324c0-2.549,2.299-4.349,6.223-4.349c1.85,0,3.899,0.425,5.174,1.175l-1.3,2.774
		c-1.324-0.75-2.648-1-3.874-1c-1.749,0-2.499,0.55-2.499,1.25c0,2.299,8.123,0.074,8.123,5.373c0,2.5-2.324,4.274-6.349,4.274
		C519.084,70.766,516.785,70.141,515.535,69.316z"/>
	<path fill="#34495E" d="M543.207,64.942h-10.173c0.375,1.675,1.8,2.7,3.85,2.7c1.424,0,2.449-0.426,3.374-1.3l2.074,2.249
		c-1.25,1.425-3.124,2.175-5.549,2.175c-4.648,0-7.673-2.925-7.673-6.924c0-4.023,3.074-6.923,7.173-6.923
		c3.949,0,6.999,2.649,6.999,6.973C543.282,64.193,543.232,64.618,543.207,64.942z M532.985,62.667h6.623
		c-0.274-1.699-1.549-2.799-3.299-2.799C534.534,59.869,533.26,60.943,532.985,62.667z"/>
	<path fill="#34495E" d="M559.631,62.868v7.698h-3.898v-7.099c0-2.174-1-3.174-2.725-3.174c-1.875,0-3.225,1.149-3.225,3.624v6.648
		h-3.898V57.12h3.724v1.574c1.05-1.149,2.625-1.774,4.449-1.774C557.232,56.919,559.631,58.769,559.631,62.868z"/>
	<path fill="#34495E" d="M562.31,63.842c0-4.049,3.124-6.923,7.498-6.923c2.824,0,5.049,1.225,6.023,3.424l-3.024,1.625
		c-0.725-1.275-1.799-1.85-3.023-1.85c-1.975,0-3.524,1.374-3.524,3.724s1.55,3.725,3.524,3.725c1.225,0,2.299-0.55,3.023-1.85
		l3.024,1.649c-0.975,2.149-3.199,3.399-6.023,3.399C565.434,70.766,562.31,67.891,562.31,63.842z"/>
	<path fill="#34495E" d="M577.61,53.07c0-1.225,0.976-2.174,2.425-2.174s2.425,0.899,2.425,2.1c0,1.299-0.976,2.249-2.425,2.249
		S577.61,54.294,577.61,53.07z M578.085,57.12h3.898v13.446h-3.898V57.12z"/>
	<path fill="#34495E" d="M597.506,62.893v7.673h-3.648v-1.675c-0.726,1.225-2.125,1.875-4.1,1.875c-3.149,0-5.023-1.75-5.023-4.074
		c0-2.374,1.675-4.024,5.773-4.024h3.1c0-1.674-1-2.649-3.1-2.649c-1.425,0-2.899,0.476-3.874,1.25l-1.399-2.725
		c1.475-1.05,3.649-1.624,5.799-1.624C595.132,56.919,597.506,58.819,597.506,62.893z M593.608,66.317v-1.375h-2.675
		c-1.824,0-2.399,0.675-2.399,1.575c0,0.975,0.825,1.624,2.199,1.624C592.032,68.141,593.157,67.542,593.608,66.317z"/>
	<path fill="#34495E" d="M601.034,52.02h3.898v18.546h-3.898V52.02z"/>
</g>
</svg>
