<?xml version="1.0" encoding="utf-8"?>
<!-- Generator: Adobe Illustrator 16.2.0, SVG Export Plug-In . SVG Version: 6.00 Build 0)  -->
<!DOCTYPE svg PUBLIC "-//W3C//DTD SVG 1.1//EN" "http://www.w3.org/Graphics/SVG/1.1/DTD/svg11.dtd">
<svg version="1.1" id="Capa_1" xmlns="http://www.w3.org/2000/svg" xmlns:xlink="http://www.w3.org/1999/xlink" x="0px" y="0px"
	 width="810px" height="489px" viewBox="0 0 810 489" enable-background="new 0 0 810 489" xml:space="preserve">
<g id="Capa_2">
	<g>
		<g>
			<g opacity="0.34">
				<path fill="#E1D7FF" d="M51.771,443.588C31.46,422.949,22.25,391.975,27.988,363.59c5.738-28.382,26.26-53.349,52.99-64.479
					c11.563-4.813,24.076-7.158,35.431-12.457c39.605-18.496,54.357-65.792,76.753-103.333
					c32.547-54.563,90.332-94.7,153.569-100.833c63.244-6.132,129.955,24.213,162.625,78.707
					c17.633,29.407,25.479,64.438,46.688,91.375c14.868,18.889,35.942,32.804,59.148,39.057c20.397,5.5,41.957,5.169,62.585,9.734
					c31.896,7.066,62.017,27.524,74.629,57.664c12.613,30.138,3.763,69.55-23.956,86.847L51.771,443.588z"/>
			</g>
			<g opacity="0.34">
				<path fill="#E1D7FF" d="M111.923,443.763c-15.429-15.674-22.424-39.2-18.067-60.76c4.36-21.56,19.944-40.521,40.251-48.974
					c8.783-3.654,18.285-5.437,26.907-9.463c30.083-14.045,41.289-49.965,58.296-78.482c24.718-41.443,68.61-71.926,116.642-76.585
					c48.032-4.656,98.708,18.393,123.521,59.779c13.392,22.333,19.351,48.943,35.459,69.406
					c11.295,14.342,27.303,24.912,44.925,29.664c15.497,4.178,31.868,3.926,47.541,7.396c24.228,5.362,47.096,20.903,56.678,43.794
					c9.583,22.895,2.854,52.824-18.191,65.965L111.923,443.763z"/>
			</g>
		</g>
		<g>
			<path opacity="0.34" fill="#E1D7FF" enable-background="new    " d="M629.084,261.421c0,6.83-5.262,12.372-11.753,12.372
				c-6.489,0-11.75-5.542-11.75-12.372c0-6.833,5.261-12.371,11.75-12.371C623.823,249.05,629.084,254.588,629.084,261.421z"/>
			<path opacity="0.34" fill="#E1D7FF" enable-background="new    " d="M588.264,251.525c0,3.416-2.769,6.186-6.188,6.186
				c-3.414,0-6.188-2.771-6.188-6.186c0-3.416,2.772-6.188,6.188-6.188C585.495,245.338,588.264,248.109,588.264,251.525z"/>
		</g>
		<g>
			<ellipse opacity="0.34" fill="#E1D7FF" enable-background="new    " cx="109.529" cy="257.711" rx="11.751" ry="12.373"/>
			<path opacity="0.34" fill="#E1D7FF" enable-background="new    " d="M129.322,226.785c0,3.414-2.771,6.184-6.186,6.184
				c-3.417,0-6.185-2.77-6.185-6.184c0-3.418,2.768-6.186,6.185-6.186C126.552,220.6,129.322,223.367,129.322,226.785z"/>
			<circle opacity="0.34" fill="#E1D7FF" enable-background="new    " cx="136.744" cy="250.287" r="6.185"/>
		</g>
		
			<line fill="none" stroke="#4F4F4F" stroke-width="0.7955" stroke-miterlimit="10" x1="9.65" y1="444.551" x2="802.361" y2="444.551"/>
		<path opacity="0.2" fill="#9A58B4" enable-background="new    " d="M191.59,149.291c2.254-2.254,4.953-4.073,7.957-5.318
			c2.89-1.197,6.052-1.857,9.362-1.857c3.31,0,6.472,0.66,9.359,1.857c3.004,1.245,5.704,3.063,7.957,5.318
			c2.252,2.252,4.072,4.95,5.315,7.957c1.195,2.888,1.854,6.05,1.854,9.36s-0.659,6.474-1.854,9.361
			c-1.245,3.003-3.063,5.704-5.315,7.955c-2.252,2.254-4.951,4.068-7.954,5.314c-2.887,1.2-6.053,1.859-9.363,1.859
			c-3.312,0-6.475-0.659-9.361-1.859c-3.004-1.24-5.704-3.062-7.958-5.314c-2.251-2.251-4.071-4.951-5.316-7.955
			c-1.194-2.888-1.855-6.052-1.855-9.361c0-3.311,0.661-6.473,1.855-9.36C187.52,154.241,189.339,151.544,191.59,149.291
			L191.59,149.291z M200.406,146.064c-2.71,1.123-5.154,2.776-7.21,4.83c-2.054,2.052-3.707,4.501-4.828,7.213
			c-1.083,2.611-1.682,5.483-1.682,8.501c0,3.015,0.599,5.889,1.682,8.503c1.125,2.71,2.774,5.155,4.828,7.209
			c2.055,2.053,4.5,3.705,7.213,4.829c2.611,1.082,5.484,1.681,8.502,1.681c3.014,0,5.884-0.599,8.494-1.681
			c2.718-1.125,5.164-2.776,7.219-4.829c2.053-2.054,3.706-4.5,4.829-7.209c1.083-2.614,1.68-5.488,1.68-8.503
			c0-3.018-0.598-5.89-1.68-8.501c-1.123-2.712-2.775-5.161-4.829-7.213c-2.055-2.054-4.5-3.707-7.212-4.83
			c-2.613-1.084-5.483-1.68-8.501-1.68C205.893,144.385,203.02,144.98,200.406,146.064L200.406,146.064z M197.7,128.044
			c-1.534,0.442-3.04,0.981-4.515,1.608c-1.497,0.637-2.943,1.358-4.335,2.165c-1.415,0.816-2.775,1.722-4.084,2.706
			c-1.313,0.99-2.559,2.052-3.729,3.187c-0.417,0.396-0.937,0.634-1.469,0.695c-0.543,0.069-1.104-0.044-1.596-0.328
			c-3.596-2.075-7.378-4.133-10.899-6.294c-0.173-0.087-0.353-0.144-0.529-0.164c-0.204-0.021-0.406-0.005-0.604,0.048
			c-0.197,0.055-0.388,0.144-0.552,0.27c-0.154,0.119-0.292,0.271-0.396,0.451c-2.621,3.967-5.254,9.093-7.682,13.301
			c-0.104,0.18-0.168,0.372-0.191,0.564c-0.025,0.199-0.01,0.414,0.047,0.618c0.054,0.199,0.143,0.386,0.267,0.55
			c0.12,0.159,0.272,0.293,0.453,0.398c3.236,2.138,7.403,4.279,10.835,6.261c0.501,0.29,0.869,0.72,1.08,1.214
			c0.073,0.169,0.128,0.35,0.161,0.533l0.223,0.073l-0.25,1.013c-0.194,0.794-0.368,1.588-0.514,2.38
			c-0.14,0.769-0.264,1.575-0.366,2.416c-0.099,0.819-0.175,1.635-0.222,2.437c-0.048,0.785-0.072,1.607-0.072,2.463
			s0.024,1.677,0.072,2.458c0.047,0.806,0.124,1.618,0.222,2.438c0.104,0.842,0.228,1.646,0.366,2.417
			c0.146,0.793,0.319,1.587,0.516,2.384c0.146,0.589,0.074,1.177-0.163,1.688c-0.232,0.51-0.638,0.936-1.157,1.203l-9.595,5.538
			l0.002,0.007l-1.137,0.654c-0.181,0.104-0.333,0.241-0.453,0.397c-0.123,0.162-0.213,0.35-0.267,0.55
			c-0.057,0.206-0.073,0.419-0.047,0.62c0.023,0.19,0.088,0.386,0.191,0.563l7.104,12.311l0.004-0.004l0.574,0.993
			c0.104,0.181,0.24,0.333,0.396,0.454c0.165,0.124,0.354,0.216,0.552,0.269c0.203,0.055,0.415,0.071,0.615,0.045
			c0.191-0.025,0.383-0.087,0.563-0.191c3.438-2.158,7.313-4.22,10.857-6.267c0.507-0.288,1.062-0.386,1.586-0.323
			c0.544,0.063,1.063,0.305,1.468,0.691l0.006,0.005c1.171,1.13,2.419,2.196,3.731,3.184c1.306,0.981,2.667,1.889,4.081,2.704
			c1.4,0.811,2.858,1.538,4.363,2.18c1.479,0.628,3.015,1.172,4.594,1.625c0.559,0.158,1.021,0.491,1.344,0.923
			c0.33,0.436,0.519,0.977,0.52,1.548l0.005,12.517c0,0.21,0.041,0.412,0.117,0.589c0.076,0.186,0.192,0.358,0.341,0.504
			c0.142,0.148,0.315,0.264,0.504,0.346c0.179,0.072,0.378,0.117,0.588,0.117h15.364c0.209,0,0.409-0.045,0.589-0.117
			c0.19-0.082,0.363-0.197,0.506-0.341c0.146-0.15,0.265-0.323,0.341-0.509c0.075-0.178,0.116-0.379,0.116-0.589v-12.521
			c0-0.595,0.207-1.148,0.558-1.584c0.354-0.448,0.853-0.78,1.42-0.913c1.53-0.444,3.04-0.981,4.513-1.61
			c1.495-0.634,2.943-1.358,4.335-2.165c1.414-0.815,2.778-1.722,4.082-2.706c1.313-0.985,2.56-2.052,3.733-3.184
			c0.434-0.416,0.98-0.652,1.542-0.703c0.568-0.053,1.153,0.086,1.646,0.414l10.719,6.188c0.179,0.104,0.371,0.165,0.566,0.188
			c0.202,0.026,0.413,0.01,0.619-0.045c0.199-0.053,0.386-0.146,0.549-0.269c0.158-0.121,0.293-0.271,0.396-0.454
			c2.548-4.439,5.134-8.859,7.684-13.302c0.103-0.178,0.166-0.37,0.189-0.563c0.024-0.203,0.011-0.412-0.046-0.616
			c-0.054-0.2-0.145-0.39-0.268-0.552c-0.117-0.16-0.269-0.295-0.443-0.396l-10.844-6.262c-0.503-0.288-0.87-0.717-1.081-1.211
			c-0.057-0.133-0.101-0.271-0.136-0.412l-0.283-0.061l0.283-1.146c0.2-0.797,0.371-1.591,0.515-2.382
			c0.144-0.77,0.267-1.576,0.366-2.418c0.1-0.82,0.176-1.633,0.223-2.438c0.048-0.785,0.073-1.604,0.073-2.458
			c0-0.855-0.025-1.677-0.073-2.46c-0.047-0.802-0.122-1.618-0.222-2.437c-0.104-0.852-0.227-1.658-0.367-2.424
			c-0.145-0.789-0.313-1.584-0.515-2.376c-0.146-0.592-0.073-1.188,0.165-1.695c0.236-0.505,0.639-0.934,1.151-1.198l10.738-6.199
			c0.177-0.1,0.328-0.236,0.448-0.396c0.123-0.157,0.213-0.346,0.268-0.552c0.057-0.205,0.07-0.414,0.046-0.615
			c-0.023-0.196-0.089-0.389-0.189-0.568c-2.623-3.897-5.249-9.106-7.684-13.301c-0.104-0.179-0.238-0.332-0.396-0.451
			c-0.16-0.124-0.351-0.215-0.549-0.27c-0.206-0.056-0.417-0.071-0.618-0.047c-0.189,0.024-0.384,0.089-0.566,0.194l-10.85,6.265
			c-0.511,0.298-1.083,0.396-1.626,0.324c-0.546-0.074-1.064-0.324-1.467-0.724c-1.179-1.135-2.42-2.196-3.712-3.169
			c-1.29-0.971-2.648-1.872-4.07-2.692c-1.399-0.809-2.856-1.538-4.364-2.178c-1.479-0.627-3.012-1.173-4.592-1.627
			c-0.557-0.158-1.021-0.488-1.346-0.92c-0.329-0.438-0.52-0.981-0.52-1.549l-0.004-12.521c0-0.211-0.042-0.411-0.116-0.588
			c-0.078-0.184-0.194-0.356-0.342-0.505c-0.142-0.146-0.313-0.26-0.505-0.342c-0.18-0.073-0.379-0.115-0.589-0.115h-15.364
			c-0.21,0-0.409,0.042-0.588,0.115c-0.188,0.078-0.362,0.195-0.507,0.34c-0.28,0.285-0.455,0.673-0.455,1.095v12.521
			c0,0.598-0.208,1.149-0.553,1.589C198.765,127.582,198.268,127.913,197.7,128.044L197.7,128.044z M192.299,127.568
			c-1.579,0.672-3.109,1.439-4.582,2.292c-1.501,0.866-2.943,1.823-4.315,2.856c-1.375,1.037-2.688,2.16-3.935,3.359
			c-0.047,0.048-0.106,0.073-0.171,0.08c-0.065,0.008-0.133-0.003-0.188-0.037c-3.646-2.105-7.302-4.201-10.941-6.317
			c-0.436-0.235-0.899-0.377-1.37-0.433c-0.486-0.055-0.976-0.016-1.439,0.107c-0.479,0.129-0.937,0.353-1.339,0.658
			c-0.387,0.297-0.726,0.673-0.98,1.119c-2.646,4.278-5.153,8.92-7.684,13.297c-0.258,0.445-0.414,0.928-0.477,1.416
			c-0.063,0.506-0.029,1.011,0.1,1.487c0.127,0.479,0.352,0.937,0.659,1.341c0.296,0.386,0.671,0.724,1.118,0.981
			c3.487,2.152,7.271,4.197,10.841,6.258c0.056,0.033,0.098,0.082,0.123,0.141c0.025,0.062,0.033,0.131,0.018,0.19l-0.249,1.014
			l0.016,0.004c-0.109,0.492-0.21,0.993-0.303,1.5c-0.16,0.868-0.29,1.72-0.394,2.557c-0.101,0.831-0.178,1.687-0.229,2.569
			c-0.055,0.886-0.08,1.751-0.08,2.597c0,0.844,0.025,1.709,0.08,2.592c0.054,0.883,0.13,1.742,0.229,2.573
			c0.104,0.837,0.234,1.689,0.395,2.555c0.156,0.863,0.34,1.702,0.539,2.518c0.018,0.066,0.01,0.136-0.021,0.197
			c-0.03,0.066-0.077,0.117-0.133,0.144c-3.984,2.13-8.03,4.632-11.969,6.908l0.142,0.177l-0.121,0.149
			c-0.309,0.403-0.532,0.857-0.659,1.341c-0.129,0.474-0.164,0.981-0.1,1.487c0.063,0.485,0.219,0.969,0.478,1.413l8.254,14.295
			l0.153-0.091c0.081,0.074,0.166,0.146,0.255,0.21c0.402,0.311,0.86,0.532,1.339,0.661c0.477,0.126,0.982,0.163,1.484,0.098
			c0.476-0.059,0.944-0.209,1.378-0.453c3.611-1.914,7.329-4.23,10.894-6.287c0.056-0.031,0.118-0.038,0.183-0.035
			c0.066,0.01,0.132,0.039,0.18,0.085c1.243,1.199,2.56,2.323,3.932,3.355c1.371,1.031,2.813,1.986,4.313,2.856
			c1.482,0.858,3.024,1.626,4.612,2.301c1.58,0.67,3.204,1.25,4.857,1.724c0.067,0.021,0.122,0.059,0.16,0.106
			c0.041,0.056,0.064,0.119,0.062,0.186v12.517c0,0.512,0.104,1.007,0.292,1.458c0.194,0.47,0.48,0.889,0.834,1.239
			c0.35,0.354,0.771,0.636,1.235,0.829c0.452,0.19,0.944,0.294,1.456,0.294h15.364c0.51,0,1.004-0.104,1.456-0.294
			c0.465-0.193,0.886-0.479,1.242-0.829c0.348-0.351,0.633-0.77,0.828-1.239c0.188-0.452,0.292-0.946,0.292-1.458v-12.521
			c0-0.073,0.021-0.14,0.06-0.188c0.04-0.049,0.101-0.088,0.171-0.102l0.048-0.021c1.669-0.479,3.279-1.053,4.828-1.713
			c1.579-0.673,3.109-1.44,4.583-2.29c1.502-0.87,2.942-1.825,4.313-2.858c1.375-1.034,2.688-2.161,3.937-3.357
			c0.051-0.053,0.114-0.081,0.177-0.084c0.066-0.008,0.139,0.007,0.195,0.047l10.843,6.258c0.445,0.257,0.927,0.416,1.408,0.474
			c0.503,0.067,1.01,0.029,1.487-0.098c0.479-0.128,0.937-0.351,1.339-0.661c0.378-0.285,0.709-0.654,0.965-1.084
			c2.848-4.58,5.539-9.599,8.256-14.3l-0.146-0.088c0.026-0.12,0.049-0.242,0.063-0.361c0.064-0.502,0.03-1.009-0.097-1.484
			c-0.129-0.481-0.354-0.938-0.662-1.339c-0.296-0.391-0.67-0.728-1.113-0.984l-10.845-6.258c-0.055-0.033-0.098-0.083-0.123-0.143
			c-0.027-0.059-0.034-0.128-0.017-0.192l0.279-1.148l-0.016-0.003c0.097-0.444,0.188-0.899,0.272-1.358
			c0.157-0.866,0.292-1.723,0.393-2.56c0.101-0.831,0.179-1.69,0.233-2.573c0.053-0.882,0.08-1.748,0.08-2.592
			c0-0.845-0.027-1.709-0.08-2.593c-0.056-0.884-0.135-1.742-0.233-2.578c-0.101-0.83-0.231-1.681-0.393-2.557
			c-0.159-0.86-0.341-1.696-0.54-2.51c-0.018-0.064-0.01-0.135,0.021-0.199c0.029-0.061,0.078-0.113,0.138-0.144l10.832-6.254
			c0.447-0.257,0.821-0.591,1.113-0.981c0.31-0.403,0.53-0.862,0.659-1.335c0.126-0.475,0.161-0.981,0.097-1.484
			c-0.059-0.476-0.212-0.944-0.457-1.381c-2.582-4.781-5.541-9.604-8.271-14.333l-0.155,0.093c-0.082-0.077-0.168-0.146-0.256-0.215
			c-0.402-0.307-0.86-0.528-1.339-0.658c-0.478-0.128-0.982-0.162-1.485-0.101c-0.49,0.063-0.968,0.217-1.409,0.471l-0.803,0.459
			l0.002,0.009l-10.056,5.804c-0.063,0.037-0.129,0.048-0.193,0.037c-0.063-0.007-0.127-0.037-0.173-0.084l-0.025-0.024
			c-1.23-1.186-2.544-2.304-3.927-3.347c-1.375-1.034-2.809-1.985-4.291-2.841c-1.482-0.859-3.021-1.629-4.613-2.305
			c-1.578-0.668-3.199-1.246-4.855-1.72c-0.066-0.019-0.121-0.059-0.158-0.107c-0.043-0.057-0.067-0.119-0.063-0.185v-12.521
			c0-0.512-0.105-1.006-0.292-1.458c-0.195-0.47-0.48-0.892-0.833-1.239c-0.354-0.35-0.773-0.634-1.238-0.828
			c-0.452-0.189-0.946-0.294-1.456-0.294h-15.364c-0.512,0-1.003,0.104-1.456,0.294c-0.465,0.194-0.887,0.479-1.241,0.828
			c-0.689,0.693-1.122,1.647-1.122,2.697v12.521c0,0.072-0.024,0.139-0.062,0.19c-0.041,0.047-0.1,0.085-0.169,0.104l-0.048,0.017
			C195.459,126.337,193.847,126.91,192.299,127.568z"/>
		<path opacity="0.2" fill="#9A58B4" enable-background="new    " d="M473.031,271.152L473.031,271.152L473.031,271.152z
			 M482.339,235.746c3.238-3.238,7.708-5.238,12.646-5.238c4.941,0,9.414,2,12.653,5.238c3.237,3.236,5.237,7.71,5.237,12.65
			c0,4.938-2,9.412-5.237,12.646c-3.239,3.234-7.712,5.24-12.653,5.24c-4.938,0-9.406-2.006-12.646-5.24
			c-3.24-3.234-5.242-7.708-5.242-12.646C477.097,243.456,479.099,238.982,482.339,235.746L482.339,235.746z M486.2,218.015
			c-2.479,0.714-4.829,1.722-7.017,2.985c-2.234,1.293-4.298,2.854-6.146,4.635c-0.362,0.349-0.898,0.397-1.314,0.161l-8.311-4.8
			l-0.048-0.029c-0.475-0.253-1.018-0.303-1.514-0.17c-0.514,0.133-0.97,0.465-1.254,0.955l-0.035,0.057l-5.847,10.128
			c-0.28,0.488-0.34,1.054-0.2,1.566c0.135,0.511,0.467,0.971,0.954,1.251l0.06,0.036l8.244,4.76c0.434,0.248,0.63,0.748,0.518,1.21
			v0.002c-0.303,1.223-0.533,2.485-0.691,3.779c-0.151,1.258-0.231,2.543-0.231,3.854c0,1.31,0.08,2.598,0.231,3.853
			c0.158,1.293,0.392,2.554,0.697,3.78c0.127,0.512-0.134,1.021-0.583,1.248l-8.241,4.76l0,0c-0.487,0.283-0.819,0.742-0.954,1.255
			c-0.139,0.51-0.081,1.074,0.2,1.563l5.882,10.188l0,0c0.284,0.486,0.74,0.818,1.255,0.958c0.511,0.135,1.07,0.078,1.561-0.202
			l0.064-0.035l8.253-4.768c0.429-0.245,0.961-0.169,1.308,0.16c1.85,1.781,3.91,3.344,6.146,4.639
			c2.196,1.271,4.563,2.28,7.059,3.001c0.489,0.138,0.804,0.577,0.804,1.056v9.59c0,0.563,0.229,1.078,0.604,1.451
			c0.369,0.373,0.885,0.604,1.454,0.604h11.765c0.564,0,1.075-0.231,1.446-0.604c0.38-0.373,0.607-0.888,0.607-1.451v-9.59
			c0-0.52,0.363-0.953,0.848-1.068c2.479-0.717,4.831-1.727,7.009-2.986c2.236-1.295,4.31-2.854,6.154-4.639
			c0.377-0.359,0.943-0.399,1.363-0.125l8.252,4.769c0.486,0.28,1.057,0.337,1.564,0.202c0.517-0.141,0.972-0.471,1.254-0.958
			l0.032-0.06l5.854-10.133l-0.009-0.002c0.284-0.486,0.344-1.048,0.204-1.559c-0.135-0.516-0.467-0.977-0.954-1.255l-8.304-4.792
			c-0.435-0.248-0.631-0.75-0.518-1.215h-0.005c0.303-1.229,0.54-2.485,0.691-3.777c0.156-1.258,0.236-2.544,0.236-3.854
			c0-1.311-0.08-2.599-0.236-3.854c-0.151-1.292-0.392-2.556-0.691-3.777c-0.127-0.512,0.132-1.026,0.584-1.247l8.238-4.761
			c0.488-0.279,0.82-0.738,0.955-1.251c0.14-0.51,0.08-1.074-0.205-1.563l-0.026-0.063l-5.852-10.128v0.002
			c-0.282-0.49-0.737-0.822-1.254-0.955c-0.511-0.136-1.069-0.082-1.561,0.197V221l-8.316,4.8c-0.435,0.257-0.987,0.167-1.327-0.183
			c-1.844-1.773-3.897-3.324-6.133-4.613c-2.194-1.27-4.562-2.286-7.058-2.998c-0.48-0.142-0.799-0.577-0.799-1.055v-9.593
			c0-0.563-0.229-1.075-0.608-1.449c-0.37-0.375-0.882-0.606-1.445-0.606H489.1c-0.568,0-1.084,0.231-1.453,0.606
			c-0.377,0.374-0.605,0.887-0.605,1.449v9.593C487.047,217.467,486.688,217.898,486.2,218.015z"/>
		<path opacity="0.2" fill="#9A58B4" enable-background="new    " d="M560.666,163.21c0-1.691-1.371-3.067-3.069-3.067
			c-1.69,0-3.063,1.376-3.063,3.067v7.214h-7.213c-1.692,0-3.072,1.374-3.072,3.068c0,1.697,1.38,3.069,3.072,3.069h7.213v7.216
			c0,1.693,1.373,3.065,3.063,3.065c1.698,0,3.069-1.373,3.069-3.065v-7.216h7.217c1.696,0,3.066-1.372,3.066-3.069
			c0-1.694-1.37-3.068-3.066-3.068h-7.217V163.21z"/>
	</g>
</g>
<g enable-background="new    ">
	<path fill="#34495E" d="M148.237,22.738l-7.748,17.496h-1.824l-7.748-17.496h2l6.698,15.196l6.748-15.196H148.237z"/>
	<path fill="#34495E" d="M160.838,34.211h-10.997c0.2,2.749,2.299,4.574,5.174,4.574c1.6,0,3.024-0.575,4.024-1.725l1,1.149
		c-1.174,1.399-2.999,2.149-5.074,2.149c-4.099,0-6.898-2.8-6.898-6.698c0-3.899,2.724-6.674,6.423-6.674s6.374,2.725,6.374,6.674
		C160.864,33.811,160.838,34.011,160.838,34.211z M149.841,32.886h9.323c-0.225-2.574-2.1-4.373-4.674-4.373
		C151.941,28.513,150.066,30.312,149.841,32.886z"/>
	<path fill="#34495E" d="M171.114,26.987v1.725c-0.15,0-0.3-0.024-0.425-0.024c-2.75,0-4.424,1.749-4.424,4.849v6.698h-1.774V27.088
		h1.699v2.574C167.015,27.912,168.69,26.987,171.114,26.987z"/>
	<path fill="#34495E" d="M173.916,22.938c0-0.675,0.575-1.25,1.299-1.25c0.725,0,1.3,0.55,1.3,1.226c0,0.725-0.55,1.299-1.3,1.299
		C174.49,24.213,173.916,23.639,173.916,22.938z M174.316,27.088h1.774v13.146h-1.774V27.088z"/>
	<path fill="#34495E" d="M185.315,21.563c0.975,0,1.974,0.275,2.624,0.825l-0.6,1.325c-0.5-0.426-1.2-0.65-1.95-0.65
		c-1.524,0-2.324,0.85-2.324,2.475v1.55h4.049v1.499h-3.999v11.647h-1.774V28.587h-2.35v-1.499h2.35v-1.625
		C181.341,23.113,182.74,21.563,185.315,21.563z M193.713,22.914c0,0.725-0.55,1.299-1.3,1.299c-0.725,0-1.3-0.574-1.3-1.274
		c0-0.675,0.575-1.25,1.3-1.25C193.137,21.688,193.713,22.238,193.713,22.914z M191.513,27.088h1.774v13.146h-1.774V27.088z"/>
	<path fill="#34495E" d="M196.916,33.661c0-3.924,2.849-6.674,6.773-6.674c2.225,0,4.099,0.875,5.149,2.6l-1.325,0.899
		c-0.9-1.324-2.299-1.949-3.824-1.949c-2.874,0-4.974,2.05-4.974,5.124c0,3.099,2.1,5.124,4.974,5.124
		c1.525,0,2.924-0.601,3.824-1.925l1.325,0.899c-1.05,1.7-2.924,2.6-5.149,2.6C199.765,40.359,196.916,37.585,196.916,33.661z"/>
	<path fill="#34495E" d="M222.238,32.086v8.148h-1.7v-2.05c-0.8,1.35-2.349,2.175-4.524,2.175c-2.974,0-4.799-1.55-4.799-3.824
		c0-2.024,1.3-3.724,5.074-3.724h4.174v-0.8c0-2.25-1.275-3.475-3.724-3.475c-1.7,0-3.299,0.6-4.374,1.55l-0.8-1.325
		c1.325-1.124,3.274-1.774,5.349-1.774C220.313,26.987,222.238,28.688,222.238,32.086z M220.463,36.285v-2.149h-4.124
		c-2.549,0-3.375,1-3.375,2.35c0,1.524,1.225,2.475,3.324,2.475C218.288,38.96,219.763,38.01,220.463,36.285z M217.089,25.063h-1.75
		l3.424-3.1h2.375L217.089,25.063z"/>
	<path fill="#34495E" d="M233.615,21.688h1.774v18.546h-1.774V21.688z"/>
	<path fill="#34495E" d="M239.015,33.661c0-3.899,2.849-6.674,6.698-6.674s6.673,2.774,6.673,6.674c0,3.898-2.824,6.698-6.673,6.698
		S239.015,37.56,239.015,33.661z M250.587,33.661c0-3.074-2.074-5.124-4.874-5.124s-4.899,2.05-4.899,5.124s2.1,5.124,4.899,5.124
		S250.587,36.735,250.587,33.661z"/>
	<path fill="#34495E" d="M254.19,38.734l0.8-1.399c1.05,0.825,2.824,1.475,4.674,1.475c2.499,0,3.524-0.85,3.524-2.149
		c0-3.424-8.523-0.725-8.523-5.924c0-2.149,1.85-3.749,5.199-3.749c1.699,0,3.549,0.476,4.648,1.225l-0.774,1.425
		c-1.15-0.8-2.524-1.124-3.874-1.124c-2.375,0-3.424,0.925-3.424,2.174c0,3.55,8.523,0.875,8.523,5.924c0,2.274-2,3.749-5.424,3.749
		C257.365,40.359,255.265,39.659,254.19,38.734z"/>
	<path fill="#34495E" d="M273.465,33.661c0-3.924,2.85-6.674,6.773-6.674c2.225,0,4.1,0.875,5.149,2.6l-1.325,0.899
		c-0.899-1.324-2.3-1.949-3.824-1.949c-2.874,0-4.974,2.05-4.974,5.124c0,3.099,2.1,5.124,4.974,5.124
		c1.524,0,2.925-0.601,3.824-1.925l1.325,0.899c-1.05,1.7-2.925,2.6-5.149,2.6C276.314,40.359,273.465,37.585,273.465,33.661z"/>
	<path fill="#34495E" d="M300.711,27.088v13.146h-1.699v-2.399c-0.925,1.6-2.625,2.524-4.724,2.524c-3.35,0-5.549-1.875-5.549-5.648
		v-7.623h1.774v7.448c0,2.799,1.449,4.224,3.949,4.224c2.749,0,4.474-1.774,4.474-4.773v-6.898H300.711z"/>
	<path fill="#34495E" d="M312.312,26.987v1.725c-0.149,0-0.3-0.024-0.425-0.024c-2.749,0-4.424,1.749-4.424,4.849v6.698h-1.774
		V27.088h1.699v2.574C308.214,27.912,309.888,26.987,312.312,26.987z"/>
	<path fill="#34495E" d="M313.789,38.734l0.8-1.399c1.05,0.825,2.825,1.475,4.674,1.475c2.5,0,3.524-0.85,3.524-2.149
		c0-3.424-8.522-0.725-8.522-5.924c0-2.149,1.85-3.749,5.198-3.749c1.7,0,3.55,0.476,4.649,1.225l-0.775,1.425
		c-1.149-0.8-2.524-1.124-3.874-1.124c-2.374,0-3.424,0.925-3.424,2.174c0,3.55,8.522,0.875,8.522,5.924
		c0,2.274-1.999,3.749-5.423,3.749C316.964,40.359,314.864,39.659,313.789,38.734z"/>
	<path fill="#34495E" d="M326.513,33.661c0-3.899,2.85-6.674,6.698-6.674c3.85,0,6.674,2.774,6.674,6.674
		c0,3.898-2.824,6.698-6.674,6.698C329.363,40.359,326.513,37.56,326.513,33.661z M338.086,33.661c0-3.074-2.074-5.124-4.874-5.124
		c-2.799,0-4.898,2.05-4.898,5.124s2.1,5.124,4.898,5.124C336.011,38.785,338.086,36.735,338.086,33.661z"/>
	<path fill="#34495E" d="M341.688,38.734l0.8-1.399c1.05,0.825,2.825,1.475,4.674,1.475c2.5,0,3.524-0.85,3.524-2.149
		c0-3.424-8.522-0.725-8.522-5.924c0-2.149,1.85-3.749,5.198-3.749c1.7,0,3.55,0.476,4.649,1.225l-0.775,1.425
		c-1.149-0.8-2.524-1.124-3.874-1.124c-2.374,0-3.424,0.925-3.424,2.174c0,3.55,8.522,0.875,8.522,5.924
		c0,2.274-1.999,3.749-5.424,3.749C344.863,40.359,342.763,39.659,341.688,38.734z"/>
	<path fill="#34495E" d="M374.286,21.688v18.546h-1.7v-2.6c-1.074,1.774-2.898,2.725-5.073,2.725c-3.749,0-6.549-2.725-6.549-6.698
		c0-3.975,2.8-6.674,6.549-6.674c2.1,0,3.899,0.9,4.999,2.6v-7.898H374.286z M372.536,33.661c0-3.074-2.1-5.124-4.874-5.124
		c-2.799,0-4.898,2.05-4.898,5.124s2.1,5.124,4.898,5.124C370.436,38.785,372.536,36.735,372.536,33.661z"/>
	<path fill="#34495E" d="M378.838,22.938c0-0.675,0.575-1.25,1.3-1.25s1.3,0.55,1.3,1.226c0,0.725-0.55,1.299-1.3,1.299
		C379.413,24.213,378.838,23.639,378.838,22.938z M379.238,27.088h1.774v13.146h-1.774V27.088z"/>
	<path fill="#34495E" d="M384.138,38.734l0.8-1.399c1.05,0.825,2.825,1.475,4.674,1.475c2.5,0,3.524-0.85,3.524-2.149
		c0-3.424-8.522-0.725-8.522-5.924c0-2.149,1.85-3.749,5.198-3.749c1.7,0,3.55,0.476,4.649,1.225l-0.775,1.425
		c-1.149-0.8-2.524-1.124-3.874-1.124c-2.374,0-3.424,0.925-3.424,2.174c0,3.55,8.522,0.875,8.522,5.924
		c0,2.274-1.999,3.749-5.423,3.749C387.313,40.359,385.214,39.659,384.138,38.734z"/>
	<path fill="#34495E" d="M411.51,33.661c0,3.999-2.799,6.698-6.548,6.698c-2.1,0-3.899-0.899-4.999-2.6v7.323h-1.774V27.088h1.699
		v2.599c1.075-1.749,2.899-2.699,5.074-2.699C408.711,26.987,411.51,29.687,411.51,33.661z M409.735,33.661
		c0-3.05-2.123-5.124-4.898-5.124c-2.8,0-4.899,2.074-4.899,5.124c0,3.074,2.1,5.124,4.899,5.124
		C407.612,38.785,409.735,36.735,409.735,33.661z"/>
	<path fill="#34495E" d="M413.813,33.661c0-3.899,2.85-6.674,6.699-6.674s6.674,2.774,6.674,6.674c0,3.898-2.824,6.698-6.674,6.698
		S413.813,37.56,413.813,33.661z M425.385,33.661c0-3.074-2.074-5.124-4.873-5.124s-4.898,2.05-4.898,5.124s2.1,5.124,4.898,5.124
		S425.385,36.735,425.385,33.661z"/>
	<path fill="#34495E" d="M442.91,32.611v7.623h-1.775v-7.448c0-2.774-1.449-4.199-3.949-4.199c-2.824,0-4.598,1.75-4.598,4.749
		v6.898h-1.775V27.088h1.699v2.424c0.951-1.6,2.725-2.524,5-2.524C440.711,26.987,442.91,28.837,442.91,32.611z"/>
	<path fill="#34495E" d="M447.338,22.938c0-0.675,0.574-1.25,1.299-1.25s1.301,0.55,1.301,1.226c0,0.725-0.551,1.299-1.301,1.299
		C447.912,24.213,447.338,23.639,447.338,22.938z M447.739,27.088h1.773v13.146h-1.773V27.088z"/>
	<path fill="#34495E" d="M467.783,33.661c0,3.974-2.799,6.698-6.547,6.698c-2.176,0-4-0.95-5.074-2.725v2.6h-1.699V21.688h1.773
		v7.898c1.1-1.699,2.9-2.6,5-2.6C464.985,26.987,467.783,29.687,467.783,33.661z M466.01,33.661c0-3.074-2.125-5.124-4.898-5.124
		c-2.801,0-4.9,2.05-4.9,5.124s2.1,5.124,4.9,5.124C463.885,38.785,466.01,36.735,466.01,33.661z"/>
	<path fill="#34495E" d="M471.412,21.688h1.775v18.546h-1.775V21.688z"/>
	<path fill="#34495E" d="M489.584,34.211h-10.998c0.201,2.749,2.301,4.574,5.174,4.574c1.6,0,3.025-0.575,4.025-1.725l1,1.149
		c-1.176,1.399-3,2.149-5.074,2.149c-4.1,0-6.898-2.8-6.898-6.698c0-3.899,2.725-6.674,6.424-6.674s6.373,2.725,6.373,6.674
		C489.61,33.811,489.584,34.011,489.584,34.211z M478.586,32.886h9.324c-0.225-2.574-2.1-4.373-4.674-4.373
		C480.686,28.513,478.813,30.312,478.586,32.886z"/>
	<path fill="#34495E" d="M491.412,38.734l0.799-1.399c1.051,0.825,2.826,1.475,4.674,1.475c2.5,0,3.525-0.85,3.525-2.149
		c0-3.424-8.523-0.725-8.523-5.924c0-2.149,1.85-3.749,5.199-3.749c1.699,0,3.549,0.476,4.648,1.225l-0.775,1.425
		c-1.148-0.8-2.523-1.124-3.873-1.124c-2.375,0-3.424,0.925-3.424,2.174c0,3.55,8.521,0.875,8.521,5.924
		c0,2.274-1.998,3.749-5.422,3.749C494.586,40.359,492.487,39.659,491.412,38.734z"/>
	<path fill="#34495E" d="M523.459,34.211h-10.998c0.199,2.749,2.299,4.574,5.174,4.574c1.6,0,3.023-0.575,4.023-1.725l1,1.149
		c-1.174,1.399-3,2.149-5.074,2.149c-4.098,0-6.898-2.8-6.898-6.698c0-3.899,2.725-6.674,6.424-6.674s6.373,2.725,6.373,6.674
		C523.483,33.811,523.459,34.011,523.459,34.211z M512.461,32.886h9.322c-0.225-2.574-2.1-4.373-4.674-4.373
		C514.561,28.513,512.686,30.312,512.461,32.886z"/>
	<path fill="#34495E" d="M539.207,32.611v7.623h-1.773v-7.448c0-2.774-1.449-4.199-3.949-4.199c-2.824,0-4.6,1.75-4.6,4.749v6.898
		h-1.773V27.088h1.699v2.424c0.949-1.6,2.725-2.524,4.998-2.524C537.008,26.987,539.207,28.837,539.207,32.611z"/>
	<path fill="#34495E" d="M550.586,21.688h1.773v18.546h-1.773V21.688z"/>
	<path fill="#34495E" d="M567.235,32.086v8.148h-1.701v-2.05c-0.799,1.35-2.35,2.175-4.523,2.175c-2.975,0-4.799-1.55-4.799-3.824
		c0-2.024,1.301-3.724,5.074-3.724h4.174v-0.8c0-2.25-1.275-3.475-3.725-3.475c-1.699,0-3.299,0.6-4.373,1.55l-0.801-1.325
		c1.324-1.124,3.275-1.774,5.35-1.774C565.309,26.987,567.235,28.688,567.235,32.086z M565.459,36.285v-2.149h-4.125
		c-2.549,0-3.373,1-3.373,2.35c0,1.524,1.225,2.475,3.324,2.475C563.285,38.96,564.76,38.01,565.459,36.285z"/>
	<path fill="#34495E" d="M576.785,38.734l0.801-1.399c1.049,0.825,2.824,1.475,4.674,1.475c2.5,0,3.523-0.85,3.523-2.149
		c0-3.424-8.521-0.725-8.521-5.924c0-2.149,1.85-3.749,5.197-3.749c1.701,0,3.551,0.476,4.65,1.225l-0.775,1.425
		c-1.15-0.8-2.525-1.124-3.875-1.124c-2.373,0-3.424,0.925-3.424,2.174c0,3.55,8.523,0.875,8.523,5.924c0,2.274-2,3.749-5.424,3.749
		C579.961,40.359,577.862,39.659,576.785,38.734z"/>
	<path fill="#34495E" d="M602.283,34.211h-10.998c0.199,2.749,2.299,4.574,5.174,4.574c1.6,0,3.023-0.575,4.023-1.725l1,1.149
		c-1.174,1.399-3,2.149-5.074,2.149c-4.098,0-6.898-2.8-6.898-6.698c0-3.899,2.725-6.674,6.424-6.674s6.373,2.725,6.373,6.674
		C602.307,33.811,602.283,34.011,602.283,34.211z M591.285,32.886h9.322c-0.225-2.574-2.1-4.373-4.674-4.373
		C593.385,28.513,591.51,30.312,591.285,32.886z"/>
	<path fill="#34495E" d="M604.61,33.661c0-3.924,2.85-6.674,6.773-6.674c2.225,0,4.1,0.875,5.15,2.6l-1.326,0.899
		c-0.898-1.324-2.299-1.949-3.824-1.949c-2.873,0-4.973,2.05-4.973,5.124c0,3.099,2.1,5.124,4.973,5.124
		c1.525,0,2.926-0.601,3.824-1.925l1.326,0.899c-1.051,1.7-2.926,2.6-5.15,2.6C607.459,40.359,604.61,37.585,604.61,33.661z"/>
	<path fill="#34495E" d="M618.461,33.661c0-3.924,2.85-6.674,6.773-6.674c2.225,0,4.1,0.875,5.148,2.6l-1.324,0.899
		c-0.9-1.324-2.301-1.949-3.824-1.949c-2.875,0-4.975,2.05-4.975,5.124c0,3.099,2.1,5.124,4.975,5.124
		c1.523,0,2.924-0.601,3.824-1.925l1.324,0.899c-1.049,1.7-2.924,2.6-5.148,2.6C621.311,40.359,618.461,37.585,618.461,33.661z"/>
	<path fill="#34495E" d="M633.459,22.938c0-0.675,0.576-1.25,1.301-1.25s1.299,0.55,1.299,1.226c0,0.725-0.549,1.299-1.299,1.299
		C634.035,24.213,633.459,23.639,633.459,22.938z M633.86,27.088h1.775v13.146h-1.775V27.088z"/>
	<path fill="#34495E" d="M639.26,33.661c0-3.899,2.85-6.674,6.697-6.674c3.85,0,6.674,2.774,6.674,6.674
		c0,3.898-2.824,6.698-6.674,6.698C642.11,40.359,639.26,37.56,639.26,33.661z M650.832,33.661c0-3.074-2.074-5.124-4.875-5.124
		c-2.799,0-4.898,2.05-4.898,5.124s2.1,5.124,4.898,5.124C648.758,38.785,650.832,36.735,650.832,33.661z M647.733,21.964h2.375
		l-4.049,3.1h-1.75L647.733,21.964z"/>
	<path fill="#34495E" d="M668.358,32.611v7.623h-1.775v-7.448c0-2.774-1.449-4.199-3.949-4.199c-2.824,0-4.598,1.75-4.598,4.749
		v6.898h-1.775V27.088h1.699v2.424c0.951-1.6,2.725-2.524,5-2.524C666.158,26.987,668.358,28.837,668.358,32.611z"/>
</g>
<g enable-background="new    ">
	<path fill="#169F85" d="M218.972,52.738l-3.474,17.496h-3.799l2.049-10.397l-6.673,8.548h-1.799l-3.599-8.647l-2.1,10.497h-3.799
		l3.5-17.496h3.299l4.374,10.897l8.548-10.897H218.972z"/>
	<path fill="#169F85" d="M222.077,56.788h3.874l-2.674,13.446h-3.874L222.077,56.788z M222.402,52.889
		c0-1.3,1.025-2.324,2.574-2.324c1.375,0,2.3,0.85,2.3,1.949c0,1.425-1.05,2.399-2.6,2.399
		C223.302,54.913,222.402,54.014,222.402,52.889z"/>
	<path fill="#169F85" d="M226.053,69.035l1.5-2.825c1.15,0.775,2.975,1.275,4.674,1.275c1.825,0,2.625-0.5,2.625-1.3
		c0-1.899-7.123-0.325-7.123-4.874c0-3.024,2.824-4.724,6.748-4.724c1.875,0,3.75,0.425,4.974,1.125l-1.4,2.849
		c-1.25-0.774-2.724-1.024-3.974-1.024c-1.799,0-2.599,0.6-2.599,1.324c0,1.975,7.098,0.4,7.098,4.874
		c0,3.074-2.899,4.699-6.773,4.699C229.427,70.435,227.178,69.834,226.053,69.035z"/>
	<path fill="#169F85" d="M248.052,62.937c0-5.974,4.374-10.498,10.872-10.498c3.099,0,5.624,1.1,6.874,3.1l-2.924,2.399
		c-0.9-1.325-2.299-2.05-4.224-2.05c-3.949,0-6.499,3.024-6.499,6.799c0,2.649,1.75,4.398,4.899,4.398
		c1.774,0,3.349-0.625,4.649-2.024l2.399,2.449c-1.85,2.149-4.399,3.024-7.398,3.024C251.351,70.534,248.052,67.436,248.052,62.937z
		"/>
	<path fill="#169F85" d="M281.448,56.788l-2.674,13.446h-3.699l0.275-1.449c-1.199,1.124-2.749,1.649-4.374,1.649
		c-2.875,0-4.824-1.6-4.824-4.574c0-0.5,0.05-1.05,0.175-1.624l1.475-7.448h3.899l-1.425,7.198c-0.075,0.35-0.1,0.675-0.1,0.975
		c0,1.35,0.725,2.1,2.25,2.1c1.924,0,3.274-1.101,3.749-3.449l1.375-6.823H281.448z"/>
	<path fill="#169F85" d="M293.474,56.588l-0.7,3.599c-0.35-0.024-0.575-0.05-0.899-0.05c-2.3,0-3.774,1.075-4.274,3.6l-1.3,6.498
		h-3.899l2.674-13.446h3.699l-0.325,1.6C289.65,57.088,291.3,56.588,293.474,56.588z"/>
	<path fill="#169F85" d="M292.277,69.035l1.5-2.825c1.15,0.775,2.975,1.275,4.674,1.275c1.824,0,2.624-0.5,2.624-1.3
		c0-1.899-7.123-0.325-7.123-4.874c0-3.024,2.824-4.724,6.748-4.724c1.875,0,3.749,0.425,4.974,1.125l-1.4,2.849
		c-1.25-0.774-2.724-1.024-3.974-1.024c-1.799,0-2.599,0.6-2.599,1.324c0,1.975,7.098,0.4,7.098,4.874
		c0,3.074-2.899,4.699-6.773,4.699C295.651,70.435,293.402,69.834,292.277,69.035z"/>
	<path fill="#169F85" d="M306.652,64.411c0-4.475,3.399-7.823,8.123-7.823c4.124,0,6.773,2.374,6.773,6.023
		c0,4.474-3.374,7.823-8.123,7.823C309.326,70.435,306.652,68.035,306.652,64.411z M317.599,62.786c0-1.824-1.1-2.975-3.049-2.975
		c-2.3,0-3.949,1.8-3.949,4.425c0,1.824,1.125,2.974,3.074,2.974C315.949,67.21,317.599,65.41,317.599,62.786z"/>
	<path fill="#169F85" d="M321.902,69.035l1.5-2.825c1.149,0.775,2.974,1.275,4.674,1.275c1.824,0,2.624-0.5,2.624-1.3
		c0-1.899-7.123-0.325-7.123-4.874c0-3.024,2.824-4.724,6.748-4.724c1.875,0,3.749,0.425,4.974,1.125l-1.399,2.849
		c-1.25-0.774-2.725-1.024-3.974-1.024c-1.8,0-2.6,0.6-2.6,1.324c0,1.975,7.099,0.4,7.099,4.874c0,3.074-2.899,4.699-6.773,4.699
		C325.276,70.435,323.027,69.834,321.902,69.035z"/>
	<path fill="#169F85" d="M355.798,66.485h-8.148l-2.274,3.749h-4.323l11.322-17.496h3.999l4.299,17.496h-4.05L355.798,66.485z
		 M355.123,63.411l-1.475-6.748l-4.124,6.748H355.123z"/>
	<path fill="#169F85" d="M361.276,69.035l1.5-2.825c1.149,0.775,2.974,1.275,4.674,1.275c1.824,0,2.624-0.5,2.624-1.3
		c0-1.899-7.123-0.325-7.123-4.874c0-3.024,2.824-4.724,6.748-4.724c1.875,0,3.749,0.425,4.974,1.125l-1.399,2.849
		c-1.25-0.774-2.725-1.024-3.974-1.024c-1.8,0-2.6,0.6-2.6,1.324c0,1.975,7.099,0.4,7.099,4.874c0,3.074-2.899,4.699-6.773,4.699
		C364.65,70.435,362.401,69.834,361.276,69.035z"/>
	<path fill="#169F85" d="M378.075,56.788h3.874l-2.675,13.446H375.4L378.075,56.788z M378.4,52.889c0-1.3,1.024-2.324,2.574-2.324
		c1.374,0,2.299,0.85,2.299,1.949c0,1.425-1.05,2.399-2.599,2.399C379.3,54.913,378.4,54.014,378.4,52.889z"/>
	<path fill="#169F85" d="M399.446,56.788l-2.225,11.197c-1.024,5.173-3.948,7.298-8.598,7.298c-2.624,0-4.823-0.625-6.398-1.774
		l1.85-2.824c1.05,0.874,2.824,1.449,4.724,1.449c2.7,0,3.925-1.199,4.399-3.474l0.1-0.575c-1.05,0.975-2.449,1.5-4.099,1.5
		c-3.324,0-5.948-2.125-5.948-5.649c0-4.124,3.199-7.348,7.498-7.348c1.999,0,3.724,0.699,4.549,2.399l0.425-2.199H399.446z
		 M394.147,62.461c0-1.624-1.1-2.649-3.023-2.649c-2.3,0-3.949,1.625-3.949,3.925c0,1.624,1.149,2.649,3.074,2.649
		C392.523,66.386,394.147,64.761,394.147,62.461z"/>
	<path fill="#169F85" d="M415.797,61.161c0,0.5-0.051,1.05-0.176,1.625l-1.5,7.448h-3.898l1.449-7.198
		c0.076-0.325,0.1-0.649,0.1-0.925c0-1.375-0.748-2.149-2.299-2.149c-1.975,0-3.35,1.1-3.824,3.449l-1.349,6.823H400.4l2.675-13.446
		h3.699l-0.299,1.449c1.225-1.125,2.773-1.649,4.424-1.649C413.848,56.588,415.797,58.188,415.797,61.161z"/>
	<path fill="#169F85" d="M434.147,56.788l-2.676,13.446h-3.697l0.25-1.324c-1.076,0.975-2.475,1.524-4.125,1.524
		c-3.125,0-5.799-2.2-5.799-6.023c0-4.524,3.275-7.823,7.424-7.823c1.949,0,3.498,0.625,4.373,2.024l0.35-1.824H434.147z
		 M429.047,62.786c0-1.824-1.125-2.975-3.074-2.975c-2.299,0-3.949,1.8-3.949,4.425c0,1.824,1.125,2.974,3.074,2.974
		C427.399,67.21,429.047,65.41,429.047,62.786z"/>
	<path fill="#169F85" d="M452.446,51.688l-3.699,18.546h-3.699l0.275-1.35c-1.074,0.975-2.449,1.55-4.123,1.55
		c-3.125,0-5.799-2.2-5.799-6.023c0-4.524,3.273-7.823,7.422-7.823c1.951,0,3.475,0.649,4.35,1.975l1.375-6.874H452.446z
		 M446.348,62.786c0-1.824-1.125-2.975-3.074-2.975c-2.301,0-3.949,1.8-3.949,4.425c0,1.824,1.125,2.974,3.074,2.974
		C444.698,67.21,446.348,65.41,446.348,62.786z"/>
	<path fill="#169F85" d="M452.625,64.411c0-4.475,3.398-7.823,8.123-7.823c4.123,0,6.773,2.374,6.773,6.023
		c0,4.474-3.375,7.823-8.123,7.823C455.299,70.435,452.625,68.035,452.625,64.411z M463.573,62.786c0-1.824-1.1-2.975-3.049-2.975
		c-2.301,0-3.949,1.8-3.949,4.425c0,1.824,1.125,2.974,3.074,2.974C461.922,67.21,463.573,65.41,463.573,62.786z"/>
	<path fill="#169F85" d="M467.875,69.035l1.5-2.825c1.148,0.775,2.973,1.275,4.674,1.275c1.824,0,2.623-0.5,2.623-1.3
		c0-1.899-7.123-0.325-7.123-4.874c0-3.024,2.824-4.724,6.748-4.724c1.875,0,3.75,0.425,4.975,1.125l-1.4,2.849
		c-1.25-0.774-2.725-1.024-3.973-1.024c-1.801,0-2.6,0.6-2.6,1.324c0,1.975,7.098,0.4,7.098,4.874c0,3.074-2.898,4.699-6.773,4.699
		C471.248,70.435,469,69.834,467.875,69.035z"/>
</g>
<g enable-background="new    ">
	<path fill="#34495E" d="M502.92,51.688v18.546h-1.7v-2.6c-1.075,1.774-2.899,2.725-5.073,2.725c-3.75,0-6.549-2.725-6.549-6.698
		c0-3.975,2.799-6.674,6.549-6.674c2.1,0,3.898,0.9,4.998,2.6v-7.898H502.92z M501.17,63.661c0-3.074-2.1-5.124-4.874-5.124
		c-2.8,0-4.899,2.05-4.899,5.124s2.1,5.124,4.899,5.124C499.071,68.785,501.17,66.735,501.17,63.661z"/>
	<path fill="#34495E" d="M519.319,64.211h-10.996c0.199,2.749,2.299,4.574,5.174,4.574c1.6,0,3.023-0.575,4.023-1.725l1,1.149
		c-1.175,1.399-3,2.149-5.074,2.149c-4.099,0-6.898-2.8-6.898-6.698c0-3.899,2.725-6.674,6.424-6.674s6.373,2.725,6.373,6.674
		C519.344,63.811,519.319,64.011,519.319,64.211z M508.323,62.886h9.322c-0.225-2.574-2.1-4.373-4.674-4.373
		C510.422,58.513,508.547,60.312,508.323,62.886z"/>
	<path fill="#34495E" d="M533.296,54.338h-6.148v-1.6h14.146v1.6h-6.148v15.896h-1.85V54.338z"/>
	<path fill="#34495E" d="M550.145,56.987v1.725c-0.149,0-0.299-0.024-0.424-0.024c-2.75,0-4.424,1.749-4.424,4.849v6.698h-1.775
		V57.088h1.699v2.574C546.047,57.912,547.721,56.987,550.145,56.987z"/>
	<path fill="#34495E" d="M563.244,62.086v8.148h-1.699v-2.05c-0.801,1.35-2.35,2.175-4.524,2.175c-2.974,0-4.799-1.55-4.799-3.824
		c0-2.024,1.3-3.724,5.073-3.724h4.175v-0.8c0-2.25-1.274-3.475-3.724-3.475c-1.7,0-3.3,0.6-4.375,1.55l-0.799-1.325
		c1.324-1.124,3.273-1.774,5.348-1.774C561.321,56.987,563.244,58.688,563.244,62.086z M561.47,66.285v-2.149h-4.124
		c-2.549,0-3.375,1-3.375,2.35c0,1.524,1.226,2.475,3.324,2.475C559.295,68.96,560.77,68.01,561.47,66.285z"/>
	<path fill="#34495E" d="M567.672,52.938c0-0.675,0.574-1.25,1.299-1.25c0.726,0,1.301,0.55,1.301,1.226
		c0,0.725-0.551,1.299-1.301,1.299C568.246,54.213,567.672,53.639,567.672,52.938z M568.073,57.088h1.773v13.146h-1.773V57.088z"/>
	<path fill="#34495E" d="M586.893,62.611v7.623h-1.773v-7.448c0-2.774-1.45-4.199-3.949-4.199c-2.824,0-4.6,1.75-4.6,4.749v6.898
		h-1.773V57.088h1.699v2.424c0.949-1.6,2.725-2.524,4.998-2.524C584.694,56.987,586.893,58.837,586.893,62.611z"/>
	<path fill="#34495E" d="M603.218,64.211h-10.997c0.199,2.749,2.299,4.574,5.174,4.574c1.6,0,3.023-0.575,4.023-1.725l1,1.149
		c-1.174,1.399-2.999,2.149-5.074,2.149c-4.098,0-6.897-2.8-6.897-6.698c0-3.899,2.724-6.674,6.423-6.674s6.374,2.725,6.374,6.674
		C603.243,63.811,603.218,64.011,603.218,64.211z M592.221,62.886h9.322c-0.225-2.574-2.1-4.373-4.674-4.373
		C594.321,58.513,592.446,60.312,592.221,62.886z"/>
	<path fill="#34495E" d="M613.494,56.987v1.725c-0.15,0-0.299-0.024-0.424-0.024c-2.75,0-4.425,1.749-4.425,4.849v6.698h-1.774
		V57.088h1.699v2.574C609.395,57.912,611.071,56.987,613.494,56.987z"/>
</g>
<g>
	<g>
		<path opacity="0.83" fill="#DEDFE0" enable-background="new    " d="M549.997,432.246H266.265
			c-5.971,0-10.812-4.841-10.812-10.813l0,0c0-5.971,4.841-10.811,10.812-10.811h283.733c5.971,0,10.811,4.84,10.811,10.811l0,0
			C560.809,427.405,555.969,432.246,549.997,432.246z"/>
		<g>
			<g>
				<path fill="#1BBB9A" d="M353.1,280.684c-0.269,0-0.508-0.216-0.508-0.482c0-0.268,0.191-0.483,0.46-0.483v0.484l0.02-0.484
					c0.653-0.001,1.276-0.01,1.899-0.028c0.277-0.008,0.49,0.203,0.498,0.471s-0.203,0.49-0.471,0.498
					C354.366,280.675,353.734,280.684,353.1,280.684z M348.236,280.5c-0.013,0-0.023,0-0.037-0.001
					c-0.646-0.05-1.29-0.106-1.932-0.175c-0.266-0.027-0.458-0.266-0.43-0.532c0.027-0.267,0.255-0.462,0.531-0.431
					c0.633,0.065,1.266,0.123,1.901,0.172c0.267,0.021,0.467,0.252,0.447,0.519C348.698,280.307,348.487,280.5,348.236,280.5z
					 M359.796,280.336c-0.245,0-0.455-0.186-0.48-0.434c-0.028-0.266,0.166-0.504,0.432-0.531c0.638-0.066,1.271-0.143,1.904-0.229
					c0.26-0.035,0.509,0.15,0.543,0.416c0.036,0.267-0.148,0.508-0.415,0.545c-0.642,0.084-1.286,0.162-1.933,0.229
					C359.829,280.335,359.813,280.336,359.796,280.336z M341.549,279.643c-0.029,0-0.06-0.002-0.088-0.008
					c-0.639-0.115-1.271-0.242-1.903-0.376c-0.262-0.056-0.429-0.313-0.373-0.573c0.056-0.262,0.318-0.422,0.573-0.373
					c0.623,0.133,1.249,0.256,1.877,0.369c0.264,0.049,0.438,0.301,0.39,0.563C341.983,279.479,341.779,279.643,341.549,279.643z
					 M366.466,279.285c-0.224,0-0.425-0.156-0.474-0.385c-0.055-0.262,0.111-0.518,0.374-0.573c0.625-0.132,1.247-0.272,1.867-0.427
					c0.264-0.063,0.522,0.098,0.585,0.355c0.064,0.26-0.095,0.521-0.354,0.585c-0.629,0.155-1.264,0.3-1.897,0.433
					C366.532,279.281,366.5,279.285,366.466,279.285z M334.987,278.09c-0.045,0-0.091-0.007-0.137-0.021
					c-0.622-0.182-1.24-0.373-1.854-0.572c-0.254-0.082-0.394-0.355-0.311-0.609c0.082-0.254,0.356-0.393,0.609-0.311
					c0.605,0.195,1.216,0.385,1.827,0.564c0.257,0.074,0.403,0.344,0.328,0.601C335.389,277.952,335.196,278.09,334.987,278.09z
					 M372.989,277.541c-0.204,0-0.394-0.13-0.46-0.334c-0.082-0.255,0.058-0.527,0.313-0.609c0.606-0.197,1.211-0.402,1.813-0.619
					c0.252-0.09,0.529,0.041,0.619,0.293s-0.041,0.528-0.292,0.619c-0.61,0.219-1.225,0.428-1.842,0.627
					C373.088,277.534,373.037,277.541,372.989,277.541z M328.619,275.857c-0.062,0-0.124-0.012-0.185-0.037
					c-0.598-0.245-1.193-0.5-1.784-0.764c-0.245-0.109-0.354-0.396-0.246-0.639c0.108-0.245,0.399-0.355,0.641-0.246
					c0.583,0.26,1.169,0.512,1.76,0.753c0.246,0.103,0.364,0.386,0.264,0.632C328.99,275.744,328.811,275.857,328.619,275.857z
					 M379.29,275.126c-0.186,0-0.361-0.106-0.441-0.287c-0.108-0.245,0.002-0.53,0.246-0.64c0.583-0.26,1.163-0.526,1.737-0.805
					c0.241-0.112,0.529-0.015,0.646,0.228s0.015,0.528-0.227,0.646c-0.584,0.28-1.173,0.553-1.766,0.815
					C379.424,275.111,379.358,275.126,379.29,275.126z M322.522,272.973c-0.077,0-0.156-0.019-0.229-0.058
					c-0.569-0.308-1.137-0.623-1.696-0.947c-0.231-0.134-0.313-0.43-0.177-0.661c0.134-0.23,0.433-0.31,0.659-0.177
					c0.555,0.319,1.11,0.631,1.674,0.933c0.233,0.127,0.321,0.42,0.195,0.655C322.861,272.88,322.694,272.973,322.522,272.973z
					 M385.307,272.064c-0.168,0-0.33-0.086-0.42-0.241c-0.134-0.232-0.055-0.527,0.178-0.661c0.553-0.318,1.102-0.646,1.646-0.98
					c0.227-0.141,0.524-0.068,0.665,0.157c0.142,0.229,0.069,0.524-0.157,0.666c-0.554,0.341-1.108,0.672-1.669,0.996
					C385.472,272.044,385.389,272.064,385.307,272.064z M316.756,269.467c-0.095,0-0.188-0.027-0.272-0.085
					c-0.535-0.364-1.063-0.737-1.589-1.118c-0.217-0.156-0.264-0.459-0.107-0.677c0.157-0.217,0.461-0.264,0.677-0.106
					c0.518,0.375,1.039,0.744,1.565,1.104c0.222,0.15,0.277,0.451,0.127,0.672C317.063,269.395,316.909,269.467,316.756,269.467z
					 M390.967,268.395c-0.149,0-0.297-0.068-0.393-0.199c-0.155-0.215-0.108-0.52,0.107-0.676c0.516-0.375,1.025-0.756,1.532-1.146
					c0.212-0.164,0.516-0.123,0.678,0.088c0.164,0.213,0.125,0.516-0.086,0.68c-0.514,0.396-1.031,0.783-1.556,1.164
					C391.164,268.364,391.067,268.395,390.967,268.395z M311.387,265.377c-0.11,0-0.224-0.038-0.313-0.115
					c-0.494-0.419-0.981-0.846-1.465-1.279c-0.198-0.178-0.214-0.484-0.035-0.685c0.181-0.196,0.485-0.213,0.685-0.034
					c0.475,0.428,0.956,0.848,1.44,1.262c0.204,0.173,0.229,0.479,0.057,0.682C311.659,265.318,311.524,265.377,311.387,265.377z
					 M396.213,264.152c-0.134,0-0.266-0.053-0.36-0.159c-0.179-0.199-0.163-0.505,0.037-0.685c0.474-0.426,0.94-0.858,1.403-1.3
					c0.191-0.185,0.499-0.179,0.684,0.017c0.185,0.192,0.178,0.5-0.017,0.685c-0.469,0.447-0.943,0.888-1.425,1.317
					C396.444,264.111,396.327,264.152,396.213,264.152z M306.475,260.747c-0.128,0-0.254-0.049-0.35-0.147
					c-0.448-0.47-0.89-0.943-1.323-1.428c-0.18-0.199-0.163-0.505,0.036-0.684c0.196-0.18,0.505-0.164,0.684,0.035
					c0.428,0.476,0.862,0.943,1.303,1.404c0.186,0.193,0.179,0.5-0.016,0.687C306.716,260.704,306.595,260.747,306.475,260.747z
					 M400.986,259.389c-0.115,0-0.23-0.041-0.324-0.123c-0.197-0.181-0.214-0.485-0.033-0.685c0.425-0.474,0.845-0.953,1.259-1.438
					c0.173-0.205,0.478-0.229,0.683-0.056c0.203,0.173,0.229,0.479,0.056,0.683c-0.421,0.494-0.847,0.979-1.278,1.459
					C401.248,259.335,401.117,259.389,400.986,259.389z M302.073,255.629c-0.146,0-0.288-0.064-0.383-0.188
					c-0.396-0.514-0.786-1.032-1.168-1.56c-0.156-0.216-0.108-0.519,0.108-0.676c0.216-0.157,0.519-0.108,0.676,0.106
					c0.376,0.52,0.759,1.03,1.148,1.535c0.163,0.213,0.124,0.517-0.087,0.68C302.281,255.596,302.177,255.629,302.073,255.629z
					 M405.234,254.15c-0.1,0-0.198-0.029-0.284-0.092c-0.217-0.158-0.264-0.461-0.106-0.678c0.375-0.514,0.741-1.033,1.101-1.561
					c0.151-0.221,0.453-0.275,0.673-0.127c0.222,0.15,0.277,0.451,0.127,0.673c-0.364,0.534-0.736,1.063-1.116,1.585
					C405.531,254.083,405.383,254.15,405.234,254.15z M298.231,250.075c-0.162,0-0.32-0.08-0.412-0.229
					c-0.336-0.543-0.661-1.092-0.981-1.646c-0.134-0.232-0.063-0.541,0.17-0.675c0.229-0.133,0.52-0.066,0.651,0.162
					c0.002,0.004,0.019,0.032,0.021,0.035c0.312,0.539,0.635,1.08,0.965,1.613c0.14,0.229,0.069,0.525-0.158,0.666
					C298.406,250.053,298.319,250.075,298.231,250.075z M409.364,248.2l-0.452-0.187l-0.389-0.294
					c0.313-0.538,0.611-1.077,0.902-1.618c0.128-0.235,0.422-0.324,0.655-0.197c0.235,0.128,0.323,0.421,0.196,0.656
					C409.982,247.109,409.677,247.657,409.364,248.2z M408.91,248.016h0.011H408.91z M294.989,244.152
					c-0.18,0-0.354-0.101-0.437-0.274c-0.281-0.584-0.554-1.172-0.816-1.764c-0.107-0.244,0.001-0.529,0.246-0.639
					c0.244-0.107,0.53,0.002,0.64,0.246c0.259,0.582,0.525,1.161,0.804,1.736c0.116,0.241,0.015,0.53-0.228,0.646
					C295.13,244.138,295.059,244.152,294.989,244.152z M411.983,242.489c-0.066,0-0.134-0.014-0.198-0.042
					c-0.243-0.109-0.354-0.396-0.243-0.64c0.262-0.584,0.513-1.17,0.756-1.76c0.102-0.246,0.385-0.363,0.631-0.264
					c0.248,0.103,0.365,0.385,0.263,0.633c-0.246,0.598-0.501,1.193-0.766,1.786C412.343,242.382,412.165,242.489,411.983,242.489z
					 M414.407,236.19c-0.049,0-0.1-0.007-0.149-0.023c-0.253-0.083-0.394-0.355-0.311-0.609c0.198-0.607,0.387-1.219,0.567-1.83
					c0.074-0.257,0.341-0.404,0.601-0.328c0.256,0.076,0.402,0.346,0.327,0.602c-0.183,0.621-0.375,1.24-0.575,1.855
					C414.802,236.062,414.613,236.19,414.407,236.19z M416.161,229.674c-0.032,0-0.066-0.003-0.102-0.011
					c-0.261-0.055-0.429-0.313-0.372-0.574c0.133-0.625,0.257-1.251,0.372-1.879c0.049-0.264,0.295-0.44,0.563-0.389
					c0.264,0.049,0.438,0.301,0.389,0.563c-0.117,0.638-0.242,1.272-0.378,1.906C416.586,229.519,416.386,229.674,416.161,229.674z
					 M417.225,223.009c-0.018,0-0.035,0-0.052-0.002c-0.267-0.029-0.458-0.268-0.431-0.533c0.066-0.635,0.125-1.27,0.174-1.906
					c0.021-0.267,0.251-0.472,0.519-0.445c0.267,0.02,0.467,0.252,0.447,0.519c-0.05,0.646-0.107,1.292-0.178,1.936
					C417.679,222.825,417.469,223.009,417.225,223.009z M417.584,216.235c-0.269,0-0.484-0.182-0.484-0.449v-0.07
					c0-0.614-0.008-1.229-0.026-1.844c-0.007-0.268,0.204-0.49,0.471-0.498c0.278-0.012,0.49,0.203,0.497,0.47
					c0.02,0.624,0.027,1.248,0.027,1.872C418.069,215.983,417.852,216.235,417.584,216.235z M417.239,209.531
					c-0.245,0-0.455-0.185-0.479-0.435c-0.066-0.634-0.142-1.268-0.227-1.9c-0.036-0.265,0.149-0.508,0.415-0.544
					c0.26-0.036,0.508,0.149,0.543,0.415c0.087,0.643,0.164,1.286,0.229,1.931c0.027,0.266-0.165,0.503-0.432,0.531
					C417.273,209.53,417.255,209.531,417.239,209.531z M289.655,204.667c-0.028,0-0.059-0.002-0.088-0.008
					c-0.262-0.047-0.438-0.299-0.389-0.563c0.115-0.637,0.241-1.272,0.376-1.906c0.056-0.262,0.313-0.428,0.574-0.373
					c0.261,0.056,0.428,0.313,0.372,0.574c-0.133,0.625-0.256,1.251-0.371,1.879C290.087,204.504,289.883,204.667,289.655,204.667z
					 M416.192,202.865c-0.224,0-0.425-0.157-0.473-0.384c-0.132-0.625-0.273-1.246-0.424-1.867c-0.063-0.26,0.098-0.521,0.356-0.584
					c0.264-0.066,0.521,0.098,0.584,0.355c0.152,0.631,0.296,1.262,0.429,1.896c0.056,0.262-0.111,0.519-0.374,0.573
					C416.258,202.862,416.224,202.865,416.192,202.865z M291.207,198.101c-0.045,0-0.091-0.007-0.137-0.02
					c-0.257-0.076-0.403-0.345-0.328-0.601c0.182-0.622,0.372-1.241,0.572-1.858c0.083-0.254,0.354-0.391,0.61-0.311
					c0.254,0.084,0.393,0.356,0.311,0.611c-0.196,0.606-0.387,1.217-0.563,1.828C291.61,197.963,291.416,198.101,291.207,198.101z
					 M414.452,196.345c-0.205,0-0.395-0.13-0.461-0.334c-0.195-0.607-0.4-1.211-0.616-1.813c-0.091-0.252,0.04-0.528,0.291-0.619
					c0.256-0.089,0.529,0.041,0.619,0.293c0.221,0.611,0.43,1.225,0.627,1.84c0.082,0.255-0.057,0.527-0.312,0.609
					C414.552,196.338,414.502,196.345,414.452,196.345z M293.438,191.729c-0.061,0-0.123-0.011-0.184-0.036
					c-0.247-0.101-0.365-0.384-0.265-0.632c0.246-0.598,0.5-1.194,0.766-1.787c0.107-0.244,0.393-0.354,0.639-0.244
					c0.244,0.108,0.354,0.395,0.245,0.639c-0.26,0.584-0.512,1.17-0.754,1.761C293.809,191.617,293.629,191.729,293.438,191.729z
					 M412.04,190.044c-0.185,0-0.36-0.107-0.44-0.288c-0.26-0.582-0.527-1.161-0.804-1.738c-0.115-0.241-0.016-0.53,0.227-0.646
					c0.242-0.114,0.529-0.016,0.646,0.227c0.28,0.586,0.552,1.174,0.813,1.764c0.109,0.244-0.001,0.531-0.245,0.639
					C412.174,190.03,412.108,190.044,412.04,190.044z M296.323,185.629c-0.076,0-0.155-0.019-0.229-0.058
					c-0.236-0.127-0.324-0.421-0.197-0.656c0.306-0.564,0.617-1.125,0.939-1.683l0.843,0.476c-0.003,0.004-0.014,0.022-0.017,0.026
					c-0.306,0.531-0.613,1.084-0.914,1.64C296.661,185.536,296.495,185.629,296.323,185.629z M408.564,183.784l-0.04-0.07
					c-0.305-0.529-0.62-1.057-0.939-1.578c-0.141-0.227-0.069-0.525,0.158-0.665c0.226-0.14,0.524-0.07,0.665,0.158
					c0.326,0.53,0.646,1.063,0.956,1.604l-0.38,0.312L408.564,183.784z M299.827,179.862c-0.094,0-0.188-0.027-0.271-0.084
					c-0.221-0.15-0.278-0.452-0.127-0.674c0.364-0.534,0.735-1.063,1.116-1.585c0.156-0.217,0.459-0.264,0.676-0.106
					c0.217,0.156,0.265,0.459,0.105,0.676c-0.373,0.514-0.739,1.034-1.1,1.562C300.135,179.788,299.984,179.862,299.827,179.862z
					 M405.314,178.358c-0.149,0-0.298-0.069-0.392-0.199c-0.376-0.52-0.76-1.031-1.147-1.537c-0.164-0.211-0.125-0.516,0.087-0.679
					c0.209-0.163,0.514-0.124,0.678,0.087c0.397,0.515,0.786,1.034,1.167,1.561c0.157,0.217,0.107,0.52-0.107,0.676
					C405.512,178.329,405.411,178.358,405.314,178.358z M385.406,160.392c-0.082,0-0.166-0.021-0.242-0.064
					c-0.553-0.32-1.109-0.631-1.671-0.934c-0.234-0.128-0.322-0.421-0.194-0.656c0.127-0.236,0.422-0.322,0.653-0.195
					c0.57,0.307,1.137,0.623,1.696,0.947c0.231,0.134,0.312,0.43,0.177,0.661C385.735,160.306,385.573,160.392,385.406,160.392z
					 M379.397,157.321c-0.066,0-0.134-0.013-0.198-0.041c-0.582-0.261-1.169-0.512-1.759-0.755
					c-0.247-0.102-0.365-0.385-0.263-0.632c0.101-0.247,0.384-0.363,0.632-0.264c0.599,0.247,1.193,0.502,1.785,0.766
					c0.244,0.109,0.354,0.396,0.244,0.639C379.758,157.215,379.58,157.321,379.397,157.321z M331.338,155.498
					c-0.198,0-0.385-0.123-0.455-0.32c-0.09-0.251,0.041-0.528,0.292-0.619c0.608-0.219,1.224-0.429,1.841-0.629
					c0.253-0.083,0.527,0.057,0.609,0.311c0.082,0.254-0.058,0.527-0.313,0.61c-0.607,0.197-1.212,0.403-1.812,0.619
					C331.448,155.489,331.393,155.498,331.338,155.498z M373.104,154.896c-0.05,0-0.101-0.007-0.15-0.023
					c-0.605-0.197-1.215-0.386-1.826-0.566c-0.258-0.075-0.404-0.344-0.328-0.601c0.073-0.257,0.346-0.405,0.601-0.327
					c0.621,0.182,1.239,0.373,1.854,0.574c0.254,0.082,0.393,0.355,0.311,0.609C373.495,154.767,373.307,154.896,373.104,154.896z
					 M337.804,153.556c-0.219,0-0.416-0.148-0.47-0.369c-0.063-0.26,0.095-0.521,0.354-0.586c0.629-0.153,1.262-0.297,1.896-0.434
					c0.264-0.054,0.52,0.112,0.574,0.373c0.057,0.262-0.111,0.52-0.373,0.574c-0.625,0.133-1.248,0.275-1.867,0.428
					C337.88,153.551,337.841,153.556,337.804,153.556z M366.591,153.142c-0.034,0-0.068-0.003-0.104-0.011
					c-0.621-0.134-1.246-0.257-1.875-0.372c-0.263-0.048-0.438-0.3-0.389-0.563c0.049-0.264,0.304-0.439,0.563-0.389
					c0.64,0.116,1.272,0.242,1.904,0.377c0.262,0.056,0.428,0.313,0.372,0.574C367.014,152.986,366.814,153.142,366.591,153.142z
					 M344.435,152.3c-0.238,0-0.446-0.176-0.479-0.419c-0.035-0.265,0.148-0.509,0.413-0.544c0.644-0.087,1.287-0.164,1.935-0.232
					c0.273-0.034,0.504,0.164,0.532,0.43c0.027,0.266-0.165,0.504-0.432,0.532c-0.637,0.067-1.271,0.144-1.904,0.229
					C344.479,152.299,344.456,152.3,344.435,152.3z M359.932,152.079c-0.018,0-0.035-0.001-0.052-0.003
					c-0.633-0.067-1.268-0.125-1.902-0.174c-0.267-0.021-0.466-0.253-0.445-0.519c0.021-0.268,0.276-0.465,0.52-0.446
					c0.646,0.05,1.289,0.108,1.932,0.177c0.267,0.027,0.458,0.266,0.43,0.531C360.386,151.895,360.176,152.079,359.932,152.079z
					 M351.164,151.745c-0.261,0-0.475-0.207-0.482-0.469c-0.008-0.268,0.202-0.491,0.47-0.499c0.648-0.02,1.298-0.028,1.948-0.028
					h0.098c0.269,0,0.484,0.216,0.484,0.483s-0.217,0.483-0.484,0.483H353.1c-0.643,0-1.281,0.01-1.92,0.029L351.164,151.745
					L351.164,151.745z"/>
			</g>
			<g>
				<path fill="#63AFBF" d="M474.781,378.566c-0.034-0.061-0.07-0.119-0.105-0.181c0.028,0.076,0.063,0.146,0.092,0.224
					C474.774,378.596,474.778,378.581,474.781,378.566z"/>
				<path fill="#63CCBF" d="M525.338,349.07c-0.211-0.581-0.498-1.143-0.898-1.666c-2.012-2.631-5.969-3.125-9.064-1.94
					c-3.097,1.185-5.485,3.688-7.57,6.267c-4.652,5.75-8.283,12.179-11.071,18.998c2.733-2.332,4.913-4.897,7.457-7.11
					c-0.469,2.06-1.974,3.63-2.442,5.688c2.28-0.05,3.394-2.043,5.067-3.101C511.817,359.384,518.247,353.799,525.338,349.07z"/>
				<path fill="#63AFBF" d="M506.815,366.206c0.585-0.368,1.236-0.625,2.031-0.642c-0.981,2.069-2.486,3.641-3.468,5.711
					c2.563-0.057,5.082-2.16,7.634-2.729c-0.971,2.583-3.501,4.176-4.461,7.271c1.086-0.207,2.036-0.668,2.925-1.223
					c4.231-4.469,8.012-9.361,11.266-14.584c2.044-3.281,3.829-7.531,2.598-10.941C518.247,353.799,511.817,359.384,506.815,366.206
					z"/>
				<path fill="#008DA8" d="M461.009,411.006c7.647-0.604,15.572,0.898,21.374,5.398h21.69c5.641-1.649,11.443-2.737,17.299-3.199
					c0.927-1.033,1.845-2.434,2.771-3.398c-1.56-0.99-3.587,0.077-5.136-0.4c1.505-1.57,3.533-2.639,5.026-4.723
					c-0.467-0.221-1.137-0.229-1.688-0.266c-8.445,2.206-16.956,5.549-25.559,6.65c2.801-8.297,9.631-14.815,17.471-18.729
					c2.346-1.171,4.779-2.127,7.271-2.918c0.679-0.508,1.375-1.034,2.145-1.638c-2.019,1.581-4.078,1.113-6.13,1.158
					c1.507-1.569,3.021-2.627,5.051-3.696c-2.063-0.468-3.055,1.092-5.104,1.137c0.458-2.571,3.522-3.151,3.98-5.724
					c-1.607,0.035-3.066,0.486-4.533,0.847c-7.914,5.474-14.878,12.323-20.417,20.188c-1.106,1.57-3.194,3.353-4.618,2.063
					c-0.381-11.194,9.816-19.38,17.753-27.296c0.614-0.613,1.221-1.236,1.817-1.865c-0.89,0.555-1.839,1.016-2.925,1.223
					c0.96-3.096,3.489-4.688,4.461-7.271c-2.553,0.568-5.071,2.674-7.635,2.729c0.981-2.07,2.486-3.642,3.469-5.713
					c-3.075,0.068-4.023,3.676-7.1,3.744c0.469-2.061,1.975-3.631,2.442-5.689c-2.544,2.213-4.725,4.779-7.457,7.111
					c-4.363,10.678-6.651,22.321-7.5,33.862c-0.141,1.896-1.198,4.497-2.997,3.878c-0.779-0.27-1.206-1.089-1.532-1.845
					c-3.195-7.381-4.278-15.53-7.384-22.949c-0.735-1.756-1.585-3.462-2.537-5.108c-0.005,0.015-0.009,0.027-0.015,0.043
					c-0.027-0.077-0.063-0.146-0.093-0.224c-1.471-2.519-3.186-4.896-5.11-7.086c1.121,3.476,3.132,6.941,2.717,10.95
					c-2.595-1.48-4.188-4.008-6.793-6c1.101,3.563,3.217,6.591,3.304,10.688c-2.573-0.455-4.166-2.981-6.739-3.438
					c0.058,0.426,0.157,0.822,0.278,1.206c8.101,8.085,16.054,16.278,21.736,26.146c-5.867-3.504-12.15-6.309-18.672-8.354
					c0.05,0.13,0.104,0.256,0.146,0.395c-2.552,0.568-5.115,0.625-7.678,0.683c2.617,2.504,6.718,2.413,9.825,3.883
					c-3.588,0.079-7.132,2.206-11.232,2.297C458.045,410.17,459.531,410.588,461.009,411.006z"/>
				<path fill="#63CCBF" d="M547.631,405.965c-0.047-0.154-0.103-0.307-0.178-0.455c-0.593-1.156-1.936-1.693-3.188-2.043
					c-7.269-2.029-14.568-0.97-21.918,0.951c0.551,0.037,1.221,0.045,1.688,0.266c-1.344,1.873-3.115,2.93-4.555,4.265
					C528.666,407.423,538.212,406.034,547.631,405.965z"/>
				<path fill="#63AFBF" d="M519.481,408.947c-0.161,0.148-0.321,0.3-0.473,0.457c1.549,0.479,3.576-0.59,5.136,0.4
					c-0.927,0.967-1.845,2.366-2.771,3.399c3.303-0.261,6.618-0.33,9.928-0.2c5.172,0.204,11.042,0.646,14.796-2.917
					c1.118-1.063,1.954-2.696,1.535-4.123C538.212,406.034,528.666,407.423,519.481,408.947z"/>
				<path fill="#63CCBF" d="M450.988,363.408c-1.838,1.271-3.063,3.322-2.646,5.486c0.329,1.711,1.547,3.094,2.734,4.366
					c3.64,3.898,7.462,7.659,11.254,11.444c-0.119-0.385-0.221-0.78-0.276-1.206c2.573,0.456,4.166,2.983,6.739,3.438
					c-0.088-4.098-2.203-7.125-3.305-10.688c2.606,1.992,4.198,4.521,6.793,6c0.03-0.291,0.044-0.578,0.05-0.863
					C466.061,374.43,458.92,368.229,450.988,363.408z"/>
				<path fill="#63AFBF" d="M472.33,381.389c0.075-3.647-1.727-6.865-2.767-10.088c-1.626-1.851-3.398-3.57-5.306-5.13
					c-2.731-2.233-5.989-4.222-9.519-4.067c-1.324,0.059-2.648,0.541-3.754,1.306C458.92,368.229,466.061,374.43,472.33,381.389z"/>
				<path fill="#63AFBF" d="M521.851,385.159c0.234,0,0.481,0.024,0.746,0.086c-2.028,1.069-3.544,2.127-5.05,3.696
					c2.051-0.045,4.11,0.422,6.129-1.158c-0.771,0.603-1.465,1.13-2.145,1.638c5.833-1.849,11.987-2.771,18.104-3.28
					c3.121-0.26,6.635-0.609,8.598-3.051c1.279-1.591,1.42-3.619,0.803-5.523C539.77,379.311,530.689,381.861,521.851,385.159z"/>
				<path fill="#63CCBF" d="M543.811,372.096c-4.374-1.521-9.193-0.005-13.432,1.864c-4.708,2.077-9.207,4.617-13.438,7.545
					c1.467-0.36,2.926-0.812,4.533-0.847c-0.458,2.572-3.522,3.15-3.98,5.724c1.786-0.039,2.771-1.228,4.357-1.223
					c8.838-3.298,17.919-5.851,27.187-7.593C548.255,375.152,546.255,372.945,543.811,372.096z"/>
				<path fill="#63AFBF" d="M465.824,407.665c0.622-0.115,1.243-0.192,1.864-0.207c-3.106-1.469-7.208-1.379-9.825-3.883
					c2.563-0.058,5.126-0.113,7.678-0.683c-0.043-0.139-0.097-0.265-0.146-0.395c-2.725-0.854-5.489-1.578-8.285-2.161
					c-3.603-0.751-7.498-1.243-10.846,0.286c-3.021,1.381-5.196,4.997-4.278,8.051C449.948,407.939,457.905,407.479,465.824,407.665
					z"/>
				<path fill="#63CCBF" d="M465.824,407.665c-7.921-0.187-15.878,0.274-23.839,1.01c0.1,0.331,0.225,0.656,0.398,0.972
					c2.334,4.183,8.481,3.146,13.172,2.149c1.778-0.378,3.606-0.644,5.452-0.789c-1.478-0.419-2.964-0.837-4.551-1.253
					C459.848,409.68,462.857,408.216,465.824,407.665z"/>
			</g>
			<g>
				<polygon fill="#FFAB91" points="426.068,285.078 418.122,280.855 411.851,284.27 410.807,290.001 411.851,290.428 
					413.159,287.124 415.781,285.643 420.562,289.091 425.281,289.563 				"/>
				<g>
					<g>
						<path fill="#D3C0BE" d="M324.816,259.986c-0.851,1.158-1.224,2.673-0.848,4.216l8.499,34.909h31.473L324.816,259.986z"/>
						<path fill="#C5C4BB" d="M406.132,299.109h-39.966l2.87,2.869h39.966C409.002,300.395,407.717,299.109,406.132,299.109z"/>
						<path fill="#C0AFAE" d="M332.469,299.109c0,1.586,1.278,2.869,2.865,2.869h33.702l-2.87-2.869H332.469z"/>
						<path fill="#D3C0BE" d="M412.672,301.979h-20.36c-1.586,0-2.865-1.283-2.865-2.869h20.355
							C411.388,299.109,412.672,300.395,412.672,301.979z"/>
						<g>
							<path fill="#D6D5CA" d="M389.445,299.111l-9.086-37.319c-0.557-2.283-2.602-3.892-4.952-3.892H328.92
								c-1.715,0-3.188,0.836-4.104,2.086l39.124,39.125H389.445z"/>
						</g>
						<path fill="#4D4D4F" d="M391.846,299.111h-56.979l-8.962-36.807c-0.546-2.242,1.152-4.404,3.46-4.404h48.441
							c2.351,0,4.396,1.606,4.951,3.892L391.846,299.111z"/>
						<path fill="#1BBB9A" d="M330.878,259.479h46.438c1.495,0,2.853,0.65,3.756,1.729c0.456,0.543,0.807,1.188,0.983,1.929
							l1.454,5.975l1.034,4.264l1.527,6.305l2.071,8.535l2.611,10.742h-54.547l-0.234-0.896l-2.456-10.146l-0.065-0.271
							l-2.025-8.387l-1.822-7.503l-1.989-8.192C327.1,261.423,328.7,259.479,330.878,259.479z"/>
					</g>
					<g>
						
							<linearGradient id="SVGID_1_" gradientUnits="userSpaceOnUse" x1="1090.5745" y1="-56.5918" x2="1087.7904" y2="-70.9699" gradientTransform="matrix(-1 0 -0.2719 -1 1428.342 205.0098)">
							<stop  offset="0" style="stop-color:#CFD8DC"/>
							<stop  offset="1" style="stop-color:#ECEFF1"/>
						</linearGradient>
						<polygon fill="url(#SVGID_1_)" points="330.158,268.159 382.029,268.159 381.767,267.104 329.899,267.104 						"/>
						
							<linearGradient id="SVGID_2_" gradientUnits="userSpaceOnUse" x1="1090.6389" y1="-59.2402" x2="1087.8551" y2="-73.617" gradientTransform="matrix(-1 0 -0.2719 -1 1428.342 205.0098)">
							<stop  offset="0" style="stop-color:#CFD8DC"/>
							<stop  offset="1" style="stop-color:#ECEFF1"/>
						</linearGradient>
						<polygon fill="url(#SVGID_2_)" points="330.815,270.809 382.684,270.809 382.422,269.753 330.554,269.753 						"/>
						
							<linearGradient id="SVGID_3_" gradientUnits="userSpaceOnUse" x1="1090.7034" y1="-61.8877" x2="1087.9193" y2="-76.2651" gradientTransform="matrix(-1 0 -0.2719 -1 1428.342 205.0098)">
							<stop  offset="0" style="stop-color:#CFD8DC"/>
							<stop  offset="1" style="stop-color:#ECEFF1"/>
						</linearGradient>
						<polygon fill="url(#SVGID_3_)" points="331.47,273.456 383.339,273.456 383.077,272.4 331.209,272.4 						"/>
						
							<linearGradient id="SVGID_4_" gradientUnits="userSpaceOnUse" x1="1090.7668" y1="-64.5342" x2="1087.9827" y2="-78.913" gradientTransform="matrix(-1 0 -0.2719 -1 1428.342 205.0098)">
							<stop  offset="0" style="stop-color:#CFD8DC"/>
							<stop  offset="1" style="stop-color:#ECEFF1"/>
						</linearGradient>
						<polygon fill="url(#SVGID_4_)" points="332.125,276.104 383.993,276.104 383.733,275.049 331.865,275.049 						"/>
						
							<linearGradient id="SVGID_5_" gradientUnits="userSpaceOnUse" x1="1090.8323" y1="-67.1846" x2="1088.0486" y2="-81.5607" gradientTransform="matrix(-1 0 -0.2719 -1 1428.342 205.0098)">
							<stop  offset="0" style="stop-color:#CFD8DC"/>
							<stop  offset="1" style="stop-color:#ECEFF1"/>
						</linearGradient>
						<polygon fill="url(#SVGID_5_)" points="332.781,278.752 384.65,278.752 384.389,277.697 332.52,277.697 						"/>
						
							<linearGradient id="SVGID_6_" gradientUnits="userSpaceOnUse" x1="1090.8977" y1="-69.832" x2="1088.1138" y2="-84.2095" gradientTransform="matrix(-1 0 -0.2719 -1 1428.342 205.0098)">
							<stop  offset="0" style="stop-color:#CFD8DC"/>
							<stop  offset="1" style="stop-color:#ECEFF1"/>
						</linearGradient>
						<polygon fill="url(#SVGID_6_)" points="333.436,281.4 385.305,281.4 385.043,280.346 333.175,280.346 						"/>
						
							<linearGradient id="SVGID_7_" gradientUnits="userSpaceOnUse" x1="1090.9622" y1="-72.479" x2="1088.1777" y2="-86.859" gradientTransform="matrix(-1 0 -0.2719 -1 1428.342 205.0098)">
							<stop  offset="0" style="stop-color:#CFD8DC"/>
							<stop  offset="1" style="stop-color:#ECEFF1"/>
						</linearGradient>
						<polygon fill="url(#SVGID_7_)" points="334.091,284.049 385.96,284.049 385.698,282.993 333.829,282.993 						"/>
						
							<linearGradient id="SVGID_8_" gradientUnits="userSpaceOnUse" x1="1091.0266" y1="-75.1289" x2="1088.2429" y2="-89.505" gradientTransform="matrix(-1 0 -0.2719 -1 1428.342 205.0098)">
							<stop  offset="0" style="stop-color:#CFD8DC"/>
							<stop  offset="1" style="stop-color:#ECEFF1"/>
						</linearGradient>
						<polygon fill="url(#SVGID_8_)" points="334.745,286.695 386.615,286.695 386.355,285.643 334.486,285.643 						"/>
						
							<linearGradient id="SVGID_9_" gradientUnits="userSpaceOnUse" x1="1091.092" y1="-77.7764" x2="1088.3081" y2="-92.1539" gradientTransform="matrix(-1 0 -0.2719 -1 1428.342 205.0098)">
							<stop  offset="0" style="stop-color:#CFD8DC"/>
							<stop  offset="1" style="stop-color:#ECEFF1"/>
						</linearGradient>
						<polygon fill="url(#SVGID_9_)" points="335.402,289.346 387.271,289.346 387.01,288.29 335.141,288.29 						"/>
						
							<linearGradient id="SVGID_10_" gradientUnits="userSpaceOnUse" x1="1079.51" y1="-82.7808" x2="1077.8138" y2="-91.5407" gradientTransform="matrix(-1 0 -0.2719 -1 1428.342 205.0098)">
							<stop  offset="0" style="stop-color:#CFD8DC"/>
							<stop  offset="1" style="stop-color:#ECEFF1"/>
						</linearGradient>
						<polygon fill="url(#SVGID_10_)" points="358.44,291.993 387.926,291.993 387.663,290.938 358.179,290.938 						"/>
					</g>
				</g>
				<g>
					<path fill="#34495E" d="M463.129,229.94c-0.083-6.451-0.166-12.903-0.248-19.355c2.028-1.902,2.381-5.365,1.174-7.872
						c-1.207-2.507-4.133-4.064-6.886-3.665c0.322-2.709-1.258-5.791-3.571-7.235c-2.314-1.443-5.462-1.418-7.752,0.063
						c-0.907,0.586-1.695,1.383-2.706,1.766c-1.973,0.746-4.117-0.267-6.095-0.998c-2.274-0.842-4.843-1.314-7.098-0.423
						c-2.255,0.891-3.928,3.54-3.044,5.798c0.476,1.209,0.986,3.127,0.267,4.208c-0.721,1.081-1.812,1.876-2.529,2.959
						c-0.72,1.083-0.943,2.714,0.039,3.563c1.142,0.986,3.326,0.448,4.01,1.792c0.671,1.318-0.978,2.829-0.644,4.269
						c0.214,0.922,1.189,1.477,2.127,1.605c0.937,0.128,1.887-0.055,2.831-0.035c2.922,0.062,5.489,2.063,7.188,4.441
						c1.699,2.377,2.736,5.152,4.115,7.728c1.38,2.576,3.242,5.073,5.925,6.231C454.615,234.456,459.36,232.2,463.129,229.94z"/>
					<g>
						<g>
							<g>
								<path fill="#FFAB91" d="M425.359,285.045l30.836,1.928l-1.313-13.869l15.923,1.967l-0.936,19.644
									c-0.363,3.15-2.254,5.921-5.053,7.409l0,0c-2.367,1.26-5.149,1.479-7.685,0.602l-33.486-11.574L425.359,285.045z"/>
								<path fill="#FBC02D" d="M459.295,245.057l6.356-2.114c6.365-2.115,12.94,2.598,12.98,9.305l-0.234,24.479l-16.022,0.867
									L459.295,245.057z"/>
							</g>
						</g>
						<g>
							<g>
								<path fill="#7E8B8C" d="M476.678,416.404c1.136,0,2.057-0.854,2.057-1.903V304.584c0-1.051-0.921-1.902-2.057-1.902
									c-1.135,0-2.057,0.853-2.057,1.902v109.917C474.621,415.552,475.543,416.404,476.678,416.404z"/>
							</g>
							<g>
								<path fill="#7E8B8C" d="M440.281,416.404c1.136,0,2.057-0.854,2.057-1.903V304.584c0-1.051-0.921-1.902-2.057-1.902
									s-2.056,0.853-2.056,1.902v109.917C438.225,415.552,439.145,416.404,440.281,416.404z"/>
							</g>
						</g>
						<rect x="326.915" y="301.374" fill="#7E8B8C" width="147.906" height="3.362"/>
						<g>
							<g>
								<polygon fill="#FFCCBC" points="437.551,401.477 438.584,410.359 427.879,409.373 425.615,401.477 								"/>
								<path fill="#F5F5F5" d="M439.524,408.553c0,0,4.277,6.428,5.846,11.471c0.236,0.762-0.21,1.427-0.975,1.427H405.8
									c-0.609,0-1.14-0.642-0.979-1.187l0.477-1.625c0.672-2.295,2.476-3.933,4.888-4.436l5.584-1.165
									c2.895-0.604,6.231-1.563,7.53-4.052l2.428-4.758l3.997,2.732c1.086,0.743,2.315,1.178,3.521,1.244L439.524,408.553z"/>
							</g>
							<path fill="#2D383E" d="M421.28,334.486c1.122,4.05,2.696,8.045,4.915,11.968c9.863,17.44,14.136,38.147,12.854,56.067
								h-14.281c-5.55-20.293-11.124-39.898-19.646-59.658c-0.013-0.027-0.023-0.055-0.035-0.084
								c-1.763-4.088,0.896-8.293,5.201-8.293H421.28z"/>
						</g>
						<g>
							<g>
								<polygon fill="#FFCCBC" points="412.927,400.977 413.065,410.27 401.973,409.234 400.444,400.977 								"/>
								<path fill="#F5F5F5" d="M414.24,408.378c0,0,3.79,6.722,4.895,11.996c0.167,0.796-0.37,1.491-1.17,1.491H377.6
									c-0.638,0-1.124-0.671-0.898-1.241l0.669-1.697c0.947-2.401,3.009-4.112,5.584-4.64l5.964-1.219
									c3.092-0.631,6.683-1.635,8.307-4.236l3.044-4.977l3.89,2.858c1.059,0.776,2.299,1.231,3.551,1.302L414.24,408.378z"/>
							</g>
							<path fill="#3D4D54" d="M403.03,330.918c0.742,4.234,1.964,8.412,3.867,12.516c8.463,18.239,10.73,39.896,7.487,58.637
								h-14.938c-3.646-21.223-7.395-41.728-14.208-62.393c-0.01-0.027-0.019-0.058-0.027-0.087
								c-1.408-4.276,1.817-8.673,6.32-8.673H403.03z"/>
						</g>
						<g>
							<g>
								<g>
									<path fill="#FFCCBC" d="M460.132,253.449L460.132,253.449c-1.239,0.712-2.823,0.214-3.432-1.081l-8.346-17.779l14.33-6.727
										l5.685,12.109l0,0l0,0C468.102,245.574,464.995,250.654,460.132,253.449z"/>
									<path fill="#FFCCBC" d="M437.018,208.009l1.119,4.012l-0.972-0.319l0.972,0.319l0.412,1.479l-0.412-1.479l3.467,1.14
										l2.732,6.946l-0.466,0.098l0.466-0.098l0.364,0.927l-0.364-0.927l1.574-0.332l7.018,14.859l-5.56,2.377
										c-4.639,0.865-9.101-2.194-9.966-6.833l-4.008-21.494L437.018,208.009z"/>
								</g>
							</g>
							<path fill="#FFCCBC" d="M448.079,223.655L448.079,223.655c1.507-0.417,2.389-1.976,1.972-3.48l-0.444-1.602
								c-0.417-1.505-1.976-2.387-3.48-1.97l0,0c-1.506,0.417-2.388,1.976-1.971,3.481l0.444,1.601
								C445.017,223.19,446.574,224.073,448.079,223.655z"/>
						</g>
						<path fill="#3D4D54" d="M483.411,326.421c0,0,3.904,23.646-16.188,26.896c-20.092,3.254-73.402-6.75-73.402-6.75h-6.396
							c0,0-5.595-14.514,5.626-17.516c11.22-3.002,47.284-4.003,47.284-4.003l2.761-5.25L483.411,326.421z"/>
						<g>
							<g>
								<path fill="#8E44AC" d="M443.219,276.49l-10.335-6.706l6.93-18.509c0.265-1.301,0.735-2.563,1.427-3.726
									c0.128-0.215,0.258-0.427,0.39-0.638c6.528-10.484,20.627-14.344,30.28-11.234c7.881,2.537,11.838,10.002,14.225,19.961
									c5.663,23.639,4.373,51.668-1.107,73.139c-15.102,2.798-31.09,0.076-44.515-7.828
									C442.848,307.725,444.295,291.57,443.219,276.49z"/>
								<path fill="#FFCCBC" d="M396.901,291.466l29.007-3.047l6.978-18.635l14.574,9.456l-10.549,16.533
									c-1.705,2.674-4.614,4.338-7.783,4.453l0,0c-2.68,0.098-33.012-4.276-33.012-4.276L396.901,291.466z"/>
							</g>
						</g>
						<path fill="#7E8B8C" d="M467.877,308.588h34.075c5.255,0,9.516-4.26,9.516-9.515v-11.834c0-5.255-4.261-9.515-9.516-9.515
							h-34.075c-5.255,0-9.516,4.26-9.516,9.515v11.834C458.363,304.328,462.622,308.588,467.877,308.588z"/>
						<path fill="#7E8B8C" d="M436.459,361.779h58.166c3.832,0,6.939-3.105,6.939-6.938l0,0c0-3.832-3.107-6.938-6.939-6.938
							h-58.166c-3.834,0-6.939,3.106-6.939,6.938l0,0C429.52,358.674,432.626,361.779,436.459,361.779z"/>
						<path fill="#7E8B8C" d="M486.006,352.418c12.574-15.298,16.11-36.316,9.825-54.996c-1.469-4.363,5.425-6.236,6.885-1.898
							c7.144,21.229,2.503,44.713-11.662,61.942C488.135,361.018,483.11,355.941,486.006,352.418z"/>
						<path fill="#7E8B8C" d="M470.452,355.461v60.216c0,4.595-7.139,4.603-7.139,0v-60.216
							C463.315,350.867,470.452,350.859,470.452,355.461z"/>
						<path fill="#7E8B8C" d="M448.244,414.311h36.8c4.594,0,4.602,7.14,0,7.14h-36.8
							C443.652,421.449,443.645,414.311,448.244,414.311z"/>
						<g>
							<g>
								<path fill="#7E8B8C" d="M369.57,425.548c1.136,0,2.058-0.921,2.058-2.057V304.736c0-1.135-0.922-2.057-2.058-2.057
									c-1.135,0-2.056,0.922-2.056,2.057v118.755C367.514,424.627,368.435,425.548,369.57,425.548z"/>
							</g>
							<g>
								<path fill="#7E8B8C" d="M333.172,425.548c1.135,0,2.056-0.921,2.056-2.057V304.736c0-1.135-0.921-2.057-2.056-2.057
									c-1.137,0-2.057,0.922-2.057,2.057v118.755C331.115,424.627,332.035,425.548,333.172,425.548z"/>
							</g>
						</g>
					</g>
				</g>
				<polygon fill="#FFAB91" points="418.608,287.682 415.085,289.557 421.786,288.852 				"/>
				<g>
					<path fill="#FFCCBC" d="M396.901,291.466l-7.944-4.223l-5.687,4.223l-1.63,4.923l0.332-0.087
						c0.642-0.165,1.165-0.629,1.409-1.245l0.612-1.545l2.621-1.482l4.779,3.449l4.721,0.473L396.901,291.466z"/>
					<path fill="#FFCCBC" d="M385.473,290.699l1.152-0.855l1.451,1.84l-1.88,1.063l-0.612,1.546
						c-0.244,0.616-0.769,1.078-1.409,1.245l-0.332,0.086L385.473,290.699z"/>
					<path fill="#FFCCBC" d="M387.59,290.4l1.151-0.856l1.452,1.839l-1.88,1.063l-0.613,1.546c-0.244,0.616-0.768,1.077-1.409,1.245
						l-0.331,0.086L387.59,290.4z"/>
				</g>
			</g>
			<g>
				<path fill="#63AFBF" d="M282.201,391.408c-0.035-0.061-0.072-0.12-0.107-0.18c0.029,0.076,0.064,0.146,0.092,0.223
					C282.192,391.438,282.196,391.423,282.201,391.408z"/>
				<path fill="#63CCBF" d="M332.756,361.912c-0.21-0.582-0.498-1.143-0.898-1.665c-2.012-2.632-5.969-3.126-9.063-1.94
					c-3.098,1.185-5.486,3.688-7.571,6.266c-4.651,5.75-8.283,12.178-11.07,18.998c2.732-2.332,4.912-4.897,7.457-7.111
					c-0.47,2.061-1.975,3.63-2.443,5.689c2.28-0.051,3.394-2.043,5.067-3.101C319.235,372.227,325.665,366.641,332.756,361.912z"/>
				<path fill="#63AFBF" d="M314.233,379.048c0.585-0.368,1.236-0.625,2.032-0.644c-0.981,2.072-2.487,3.643-3.469,5.714
					c2.563-0.058,5.082-2.161,7.634-2.729c-0.971,2.584-3.501,4.176-4.46,7.271c1.085-0.205,2.035-0.666,2.924-1.223
					c4.231-4.469,8.013-9.36,11.266-14.582c2.044-3.282,3.829-7.532,2.598-10.942C325.665,366.641,319.235,372.227,314.233,379.048z
					"/>
				<path fill="#008DA8" d="M268.427,423.848c7.648-0.604,15.573,0.898,21.374,5.398h21.691c5.64-1.649,11.442-2.737,17.299-3.199
					c0.926-1.033,1.844-2.433,2.771-3.399c-1.559-0.99-3.587,0.078-5.136-0.399c1.505-1.57,3.533-2.641,5.026-4.723
					c-0.467-0.221-1.137-0.229-1.688-0.267c-8.445,2.207-16.956,5.55-25.559,6.651c2.801-8.297,9.631-14.816,17.471-18.729
					c2.346-1.172,4.779-2.129,7.271-2.918c0.68-0.51,1.375-1.035,2.145-1.639c-2.019,1.581-4.078,1.114-6.129,1.159
					c1.506-1.57,3.021-2.63,5.05-3.697c-2.063-0.468-3.054,1.093-5.104,1.138c0.458-2.572,3.522-3.152,3.98-5.725
					c-1.607,0.035-3.066,0.486-4.533,0.846c-7.914,5.475-14.878,12.323-20.417,20.189c-1.104,1.57-3.194,3.352-4.618,2.064
					c-0.38-11.195,9.816-19.381,17.753-27.298c0.614-0.612,1.222-1.235,1.817-1.866c-0.889,0.558-1.839,1.019-2.924,1.224
					c0.959-3.095,3.488-4.688,4.46-7.271c-2.553,0.567-5.07,2.672-7.634,2.729c0.98-2.071,2.486-3.643,3.469-5.713
					c-3.075,0.066-4.024,3.675-7.101,3.742c0.47-2.061,1.975-3.631,2.443-5.689c-2.545,2.214-4.725,4.779-7.458,7.111
					c-4.363,10.679-6.649,22.322-7.5,33.863c-0.139,1.896-1.198,4.497-2.996,3.877c-0.779-0.269-1.207-1.088-1.532-1.844
					c-3.195-7.382-4.278-15.531-7.385-22.949c-0.734-1.756-1.585-3.461-2.536-5.108c-0.006,0.015-0.01,0.028-0.016,0.043
					c-0.027-0.077-0.063-0.146-0.092-0.224c-1.471-2.52-3.187-4.896-5.111-7.086c1.121,3.475,3.133,6.941,2.717,10.949
					c-2.595-1.479-4.188-4.007-6.793-5.999c1.103,3.563,3.218,6.591,3.305,10.688c-2.573-0.456-4.165-2.982-6.739-3.438
					c0.057,0.427,0.158,0.822,0.278,1.206c8.1,8.085,16.054,16.278,21.735,26.146c-5.866-3.504-12.148-6.31-18.672-8.354
					c0.05,0.13,0.104,0.257,0.146,0.396c-2.553,0.567-5.114,0.625-7.678,0.681c2.617,2.505,6.718,2.415,9.824,3.884
					c-3.588,0.078-7.131,2.206-11.231,2.296C265.463,423.012,266.951,423.43,268.427,423.848z"/>
				<path fill="#63CCBF" d="M355.049,418.807c-0.045-0.154-0.102-0.308-0.178-0.455c-0.593-1.156-1.936-1.692-3.188-2.043
					c-7.268-2.029-14.567-0.97-21.918,0.95c0.551,0.037,1.221,0.046,1.688,0.267c-1.344,1.873-3.114,2.93-4.554,4.265
					C336.084,420.264,345.63,418.876,355.049,418.807z"/>
				<path fill="#63AFBF" d="M326.9,421.789c-0.161,0.148-0.322,0.3-0.474,0.458c1.549,0.479,3.577-0.591,5.137,0.399
					c-0.928,0.968-1.846,2.366-2.771,3.399c3.302-0.26,6.617-0.331,9.927-0.2c5.173,0.203,11.042,0.647,14.796-2.918
					c1.118-1.063,1.954-2.695,1.535-4.123C345.63,418.876,336.084,420.264,326.9,421.789z"/>
				<path fill="#63CCBF" d="M258.406,376.25c-1.838,1.271-3.063,3.32-2.646,5.486c0.33,1.709,1.549,3.094,2.736,4.367
					c3.639,3.896,7.463,7.658,11.255,11.443c-0.12-0.384-0.223-0.779-0.278-1.206c2.574,0.456,4.166,2.982,6.739,3.438
					c-0.087-4.098-2.202-7.125-3.304-10.688c2.604,1.992,4.197,4.521,6.793,5.999c0.03-0.29,0.045-0.576,0.051-0.861
					C273.479,387.271,266.338,381.07,258.406,376.25z"/>
				<path fill="#63AFBF" d="M279.75,394.229c0.074-3.646-1.729-6.864-2.769-10.088c-1.625-1.85-3.397-3.57-5.305-5.129
					c-2.732-2.234-5.99-4.222-9.518-4.068c-1.324,0.06-2.65,0.541-3.756,1.307C266.338,381.07,273.479,387.271,279.75,394.229z"/>
				<path fill="#63AFBF" d="M329.27,398c0.233,0.001,0.48,0.025,0.745,0.087c-2.028,1.067-3.544,2.127-5.049,3.697
					c2.05-0.046,4.109,0.422,6.128-1.159c-0.77,0.604-1.465,1.129-2.145,1.639c5.833-1.851,11.987-2.771,18.104-3.281
					c3.121-0.26,6.635-0.609,8.598-3.051c1.28-1.591,1.42-3.621,0.803-5.522C347.188,392.15,338.107,394.703,329.27,398z"/>
				<path fill="#63CCBF" d="M351.229,384.936c-4.373-1.521-9.193-0.002-13.432,1.866c-4.708,2.077-9.206,4.617-13.438,7.544
					c1.467-0.359,2.926-0.811,4.533-0.846c-0.458,2.57-3.522,3.15-3.98,5.725c1.786-0.041,2.771-1.229,4.358-1.225
					c8.837-3.297,17.918-5.85,27.186-7.592C355.674,387.995,353.674,385.786,351.229,384.936z"/>
				<path fill="#63AFBF" d="M273.243,420.507c0.622-0.114,1.242-0.192,1.863-0.207c-3.106-1.469-7.207-1.379-9.823-3.884
					c2.563-0.057,5.125-0.111,7.677-0.682c-0.043-0.139-0.098-0.265-0.146-0.395c-2.725-0.854-5.488-1.578-8.284-2.16
					c-3.604-0.752-7.497-1.244-10.847,0.285c-3.021,1.381-5.196,4.997-4.278,8.05C257.365,420.779,265.323,420.32,273.243,420.507z"
					/>
				<path fill="#63CCBF" d="M273.243,420.507c-7.922-0.187-15.878,0.272-23.84,1.009c0.101,0.331,0.226,0.657,0.398,0.973
					c2.334,4.183,8.482,3.146,13.172,2.148c1.778-0.378,3.607-0.643,5.452-0.789c-1.476-0.418-2.964-0.836-4.551-1.252
					C267.266,422.521,270.276,421.058,273.243,420.507z"/>
			</g>
		</g>
	</g>
	<g>
		<g>
			<g>
				<g>
					<path fill="#1BBB9A" d="M317.851,149.627h-4.854c-0.269,0-0.484,0.247-0.484,0.55c0,0.304,0.217,0.551,0.484,0.551h4.854
						c0.268,0,0.485-0.247,0.485-0.551C318.336,149.874,318.117,149.627,317.851,149.627z"/>
				</g>
			</g>
			<g>
				<g>
					<path fill="#1BBB9A" d="M321.246,149.627h-0.484c-0.269,0-0.485,0.247-0.485,0.55c0,0.304,0.218,0.551,0.485,0.551h0.484
						c0.27,0,0.485-0.247,0.485-0.551C321.733,149.874,321.516,149.627,321.246,149.627z"/>
				</g>
			</g>
			<g>
				<g>
					<path fill="#1BBB9A" d="M316.027,176.044h-1.206c-0.736,0-1.338,0.682-1.338,1.519v0.266c0,0.837,0.602,1.519,1.338,1.519
						h1.206c0.737,0,1.338-0.682,1.338-1.519v-0.266C317.365,176.726,316.764,176.044,316.027,176.044z M316.394,177.828
						c0,0.231-0.165,0.417-0.367,0.417h-1.206c-0.202,0-0.367-0.186-0.367-0.417v-0.266c0-0.229,0.164-0.417,0.367-0.417h1.206
						c0.202,0,0.367,0.187,0.367,0.417V177.828z"/>
				</g>
			</g>
			<g>
				<g>
					<path fill="#1BBB9A" d="M321.92,147.976h-12.993c-0.967,0-1.754,0.893-1.754,1.99v29.042c0,1.097,0.787,1.99,1.754,1.99h12.992
						c0.968,0,1.755-0.894,1.755-1.989v-29.043C323.674,148.868,322.887,147.976,321.92,147.976z M322.702,179.008
						c0,0.49-0.352,0.89-0.782,0.89h-12.993c-0.433,0-0.783-0.399-0.783-0.889v-29.043c0-0.49,0.352-0.889,0.783-0.889h12.992
						c0.433,0,0.783,0.398,0.783,0.889V179.008L322.702,179.008z"/>
				</g>
			</g>
			<g>
				<g>
					<path fill="#1BBB9A" d="M323.189,151.278h-15.53c-0.268,0-0.484,0.246-0.484,0.55v23.115c0,0.304,0.218,0.551,0.484,0.551
						h15.53c0.268,0,0.485-0.247,0.485-0.551v-23.115C323.674,151.524,323.455,151.278,323.189,151.278z M322.702,174.394h-14.56
						v-22.016h14.56V174.394z"/>
				</g>
			</g>
		</g>
	</g>
	<g>
		<g>
			<path fill="#1BBB9A" d="M394.343,169.834c0.195,0.195,0.195,0.516,0,0.713c-0.197,0.196-0.518,0.196-0.714,0
				c-0.197-0.197-0.197-0.518,0-0.713C393.825,169.637,394.146,169.637,394.343,169.834z"/>
			<path fill="#1BBB9A" d="M381.006,172.85l1.407,1.408c2.158,2.158,5.209,2.029,8.076,0.982c2.896-1.059,6.058-3.207,8.898-6.048
				c2.773-2.774,4.883-5.853,5.937-8.663c1.229-3.282,0.938-5.958-0.843-7.738l-1.492-1.494c-0.001,0-0.001,0-0.001,0l-0.419-0.418
				c-1.137-1.139-3.033-0.935-3.903,0.416l-2.767,3.844c-0.006,0.008-0.012,0.016-0.016,0.023c-0.642,1.006-0.499,2.296,0.344,3.139
				l2.088,2.09c0.146,0.144,0.188,0.359,0.11,0.549c-0.016,0.033-0.024,0.068-0.03,0.104c-0.053,0.164-0.455,1.328-1.57,2.793
				c-1.463,1.921-3.399,3.39-5.76,4.365c-0.188,0.078-0.404,0.035-0.549-0.109l-2.089-2.09c-0.843-0.842-2.134-0.983-3.139-0.344
				c-0.02,0.013-0.038,0.026-0.057,0.041l-3.83,3.258C380.071,169.833,379.872,171.717,381.006,172.85z M387.715,166.717
				l0.637,0.637l-6.527,4.887l-0.104-0.104c-0.685-0.685-0.561-1.827,0.258-2.348c0.02-0.013,0.038-0.026,0.057-0.041l3.826-3.255
				C386.459,166.129,387.217,166.219,387.715,166.717z M401.858,151.592l0.118,0.118l-4.417,6.495l-0.617-0.617
				c-0.502-0.503-0.589-1.271-0.213-1.872l2.766-3.843c0.006-0.008,0.011-0.016,0.017-0.023
				C400.029,151.035,401.17,150.904,401.858,151.592z M383.128,173.544l-0.583-0.583l6.526-4.887l0.731,0.73
				c0.435,0.435,1.081,0.563,1.648,0.328c3.229-1.336,5.203-3.369,6.291-4.84c0.74-1,1.474-2.357,1.632-3.01
				c0.213-0.559,0.078-1.184-0.346-1.607l-0.745-0.744l4.417-6.496l1.067,1.068c1.87,1.869,1.364,4.66,0.611,6.671
				c-1.005,2.68-3.03,5.629-5.706,8.304c-2.739,2.74-5.77,4.805-8.53,5.813C388.05,175.058,385.133,175.549,383.128,173.544z"/>
			<path fill="#1BBB9A" d="M395.288,168.629c0.533-0.468,1.455-1.271,1.941-1.771c1.189-1.224,2.439-2.706,3.182-3.778
				c0.158-0.229,0.474-0.285,0.702-0.127c0.229,0.158,0.286,0.473,0.127,0.702c-0.937,1.352-2.313,2.903-3.288,3.907
				c-0.513,0.526-1.441,1.338-1.998,1.824c-0.209,0.184-0.526,0.164-0.713-0.047C395.059,169.131,395.079,168.813,395.288,168.629z"
				/>
		</g>
	</g>
	<g>
		<g>
			<path fill="#1BBB9A" d="M305.196,207.914h-21.983c-0.273,0-0.495,0.223-0.495,0.498c0,0.273,0.222,0.494,0.495,0.494h21.983
				c1.205,0,2.187,0.979,2.187,2.186v17.648c0,1.205-0.98,2.186-2.187,2.186h-27.04c-1.203,0-2.185-0.98-2.185-2.186v-17.648
				c0-1.205,0.98-2.186,2.185-2.186h3.073c0.273,0,0.495-0.221,0.495-0.494c0-0.275-0.222-0.498-0.495-0.498h-3.073
				c-1.751,0-3.177,1.426-3.177,3.178v17.648c0,1.752,1.426,3.176,3.177,3.176h7.976l-0.972,3.176h-1.82
				c-0.93,0-1.687,0.756-1.687,1.686c0,0.93,0.757,1.686,1.687,1.686h16.675c0.929,0,1.687-0.756,1.687-1.686
				c0-0.93-0.758-1.686-1.687-1.686h-1.821l-0.971-3.176h7.975c1.752,0,3.176-1.424,3.176-3.176v-17.648
				C308.37,209.34,306.948,207.914,305.196,207.914z M300.706,236.777c0,0.383-0.312,0.695-0.693,0.695h-16.675
				c-0.383,0-0.694-0.313-0.694-0.695c0-0.382,0.313-0.695,0.694-0.695h16.675C300.396,236.082,300.706,236.395,300.706,236.777z
				 M297.155,235.092h-10.957l0.972-3.174h9.016L297.155,235.092z"/>
			<path fill="#1BBB9A" d="M305.232,224.059c0.274,0,0.495-0.221,0.495-0.496v-12.471c0-0.293-0.238-0.533-0.531-0.533h-27.04
				c-0.293,0-0.531,0.24-0.531,0.533v16.164c0,0.273,0.223,0.496,0.496,0.496h27.111c0.274,0,0.495-0.223,0.495-0.496v-1.709
				c0-0.275-0.221-0.496-0.495-0.496s-0.495,0.221-0.495,0.496v1.213h-26.121v-15.209h26.121v12.012
				C304.737,223.838,304.956,224.059,305.232,224.059z"/>
			<path fill="#1BBB9A" d="M292.088,228.977c-0.109-0.168-0.316-0.252-0.51-0.213c-0.212,0.041-0.375,0.223-0.396,0.439
				c-0.043,0.447,0.512,0.717,0.837,0.404C292.192,229.443,292.219,229.174,292.088,228.977z"/>
		</g>
	</g>
</g>
</svg>
