<?xml version="1.0" encoding="utf-8"?>
<!-- Generator: Adobe Illustrator 16.2.0, SVG Export Plug-In . SVG Version: 6.00 Build 0)  -->
<!DOCTYPE svg PUBLIC "-//W3C//DTD SVG 1.1//EN" "http://www.w3.org/Graphics/SVG/1.1/DTD/svg11.dtd">
<svg version="1.1" id="Capa_1" xmlns="http://www.w3.org/2000/svg" xmlns:xlink="http://www.w3.org/1999/xlink" x="0px" y="0px"
	 width="810px" height="489px" viewBox="0 0 810 489" enable-background="new 0 0 810 489" xml:space="preserve">
<g>
	<g>
		<g>
			<g opacity="0.34">
				<path fill="#E1D7FF" d="M51.199,375.225c-20.381-20.709-29.624-51.793-23.865-80.277c5.758-28.48,26.35-53.533,53.174-64.7
					c11.604-4.831,24.16-7.185,35.552-12.502c39.746-18.56,54.548-66.017,77.02-103.693
					c32.661-54.754,90.647-95.031,154.106-101.185c63.462-6.153,130.405,24.298,163.192,78.981
					c17.692,29.509,25.566,64.664,46.849,91.695c14.922,18.952,36.068,32.916,59.355,39.192c20.472,5.519,42.104,5.186,62.806,9.769
					c32.009,7.092,62.228,27.621,74.886,57.863s3.774,69.791-24.038,87.148L51.199,375.225z"/>
			</g>
			<g opacity="0.34">
				<path fill="#E1D7FF" d="M111.561,375.4c-15.482-15.729-22.502-39.338-18.13-60.973c4.376-21.633,20.014-40.662,40.392-49.143
					c8.813-3.668,18.349-5.453,27-9.494c30.188-14.096,41.433-50.141,58.5-78.758c24.805-41.588,68.849-72.178,117.048-76.854
					c48.199-4.672,99.049,18.457,123.948,59.99c13.439,22.413,19.419,49.113,35.584,69.647
					c11.333,14.392,27.396,24.999,45.081,29.765c15.549,4.193,31.978,3.941,47.704,7.422c24.311,5.381,47.261,20.977,56.876,43.947
					s2.865,53.008-18.258,66.193L111.561,375.4z"/>
			</g>
			<g>
				<path fill="#1BBB9A" d="M399.051,374.662c-0.68,0-1.29-0.549-1.29-1.229c0-0.676,0.488-1.229,1.168-1.229v1.23l0.05-1.23
					c1.659-0.002,3.243-0.023,4.826-0.07c0.707-0.02,1.245,0.516,1.266,1.191c0.019,0.68-0.516,1.252-1.193,1.268
					C402.272,374.641,400.662,374.662,399.051,374.662z M386.691,374.195c-0.032,0-0.062,0-0.093-0.002
					c-1.641-0.127-3.278-0.273-4.908-0.443c-0.676-0.07-1.164-0.676-1.092-1.352c0.071-0.678,0.647-1.176,1.353-1.094
					c1.604,0.168,3.213,0.314,4.831,0.434c0.677,0.055,1.186,0.641,1.136,1.318C387.865,373.703,387.33,374.195,386.691,374.195z
					 M416.064,373.779c-0.621,0-1.155-0.469-1.22-1.102c-0.071-0.676,0.421-1.281,1.098-1.348c1.616-0.172,3.229-0.365,4.837-0.58
					c0.662-0.094,1.294,0.383,1.38,1.057c0.092,0.676-0.38,1.289-1.055,1.383c-1.63,0.215-3.268,0.416-4.912,0.582
					C416.152,373.777,416.106,373.779,416.064,373.779z M369.702,372.018c-0.074,0-0.148-0.008-0.223-0.02
					c-1.62-0.295-3.228-0.615-4.835-0.955c-0.666-0.141-1.09-0.795-0.948-1.459c0.141-0.666,0.808-1.072,1.456-0.947
					c1.583,0.338,3.174,0.648,4.77,0.939c0.67,0.125,1.112,0.764,0.99,1.432C370.804,371.6,370.286,372.018,369.702,372.018z
					 M433.013,371.107c-0.566,0-1.079-0.396-1.201-0.975c-0.14-0.662,0.281-1.313,0.951-1.457c1.587-0.336,3.169-0.695,4.743-1.082
					c0.669-0.16,1.327,0.244,1.486,0.902c0.163,0.66-0.241,1.326-0.901,1.488c-1.598,0.393-3.207,0.758-4.82,1.096
					C433.183,371.1,433.099,371.107,433.013,371.107z M353.028,368.072c-0.114,0-0.23-0.016-0.348-0.053
					c-1.581-0.461-3.15-0.947-4.711-1.455c-0.646-0.209-1-0.904-0.789-1.549c0.208-0.645,0.908-0.996,1.549-0.789
					c1.541,0.498,3.089,0.977,4.644,1.434c0.65,0.191,1.025,0.873,0.834,1.527C354.051,367.723,353.56,368.072,353.028,368.072z
					 M449.584,366.678c-0.518,0-1-0.33-1.166-0.85c-0.211-0.646,0.143-1.338,0.789-1.551c1.544-0.496,3.078-1.021,4.605-1.57
					c0.64-0.229,1.346,0.105,1.572,0.744c0.229,0.639-0.104,1.344-0.74,1.572c-1.551,0.555-3.112,1.088-4.68,1.596
					C449.837,366.658,449.71,366.678,449.584,366.678z M336.853,362.4c-0.156,0-0.314-0.029-0.468-0.092
					c-1.52-0.625-3.033-1.273-4.533-1.943c-0.624-0.275-0.901-1.002-0.626-1.621c0.276-0.621,1.015-0.902,1.625-0.623
					c1.481,0.66,2.97,1.297,4.471,1.912c0.625,0.258,0.926,0.977,0.67,1.605C337.792,362.113,337.337,362.4,336.853,362.4z
					 M465.6,360.543c-0.472,0-0.922-0.271-1.124-0.73c-0.276-0.623,0.005-1.348,0.625-1.625c1.481-0.658,2.955-1.338,4.416-2.043
					c0.612-0.287,1.345-0.037,1.641,0.578c0.294,0.611,0.036,1.344-0.576,1.643c-1.483,0.711-2.978,1.402-4.483,2.068
					C465.937,360.508,465.768,360.543,465.6,360.543z M321.357,355.07c-0.196,0-0.397-0.047-0.583-0.146
					c-1.446-0.777-2.885-1.582-4.309-2.406c-0.589-0.34-0.792-1.092-0.45-1.68c0.34-0.59,1.1-0.787,1.678-0.451
					c1.406,0.813,2.821,1.605,4.25,2.373c0.596,0.32,0.819,1.066,0.5,1.664C322.219,354.834,321.794,355.07,321.357,355.07z
					 M480.884,352.766c-0.428,0-0.839-0.221-1.067-0.615c-0.339-0.59-0.136-1.338,0.451-1.68c1.406-0.809,2.796-1.641,4.179-2.494
					c0.576-0.354,1.335-0.174,1.693,0.4c0.356,0.58,0.176,1.338-0.402,1.693c-1.404,0.867-2.816,1.707-4.241,2.529
					C481.303,352.711,481.093,352.766,480.884,352.766z M306.708,346.164c-0.238,0-0.479-0.072-0.692-0.217
					c-1.359-0.928-2.705-1.875-4.038-2.842c-0.55-0.4-0.669-1.168-0.272-1.719c0.399-0.553,1.171-0.67,1.717-0.273
					c1.314,0.951,2.64,1.891,3.98,2.805c0.561,0.383,0.704,1.146,0.323,1.707C307.487,345.977,307.1,346.164,306.708,346.164z
					 M495.265,343.439c-0.381,0-0.755-0.176-0.995-0.51c-0.396-0.545-0.277-1.318,0.272-1.717c1.312-0.951,2.608-1.922,3.894-2.912
					c0.539-0.418,1.312-0.314,1.723,0.223c0.417,0.539,0.318,1.309-0.218,1.727c-1.306,1.002-2.62,1.99-3.953,2.955
					C495.77,343.361,495.519,343.439,495.265,343.439z M293.066,335.771c-0.281,0-0.566-0.098-0.793-0.293
					c-1.255-1.064-2.497-2.148-3.723-3.25c-0.503-0.453-0.544-1.234-0.089-1.74c0.456-0.502,1.233-0.541,1.737-0.088
					c1.206,1.086,2.428,2.154,3.662,3.205c0.52,0.439,0.581,1.215,0.142,1.73C293.761,335.625,293.414,335.771,293.066,335.771z
					 M508.594,332.662c-0.338,0-0.671-0.137-0.916-0.408c-0.453-0.504-0.413-1.281,0.095-1.736c1.203-1.082,2.393-2.184,3.566-3.303
					c0.488-0.469,1.267-0.453,1.737,0.039c0.47,0.492,0.451,1.271-0.042,1.74c-1.188,1.139-2.397,2.254-3.619,3.352
					C509.179,332.559,508.887,332.662,508.594,332.662z M280.585,324.008c-0.326,0-0.646-0.125-0.889-0.377
					c-1.138-1.193-2.257-2.398-3.362-3.625c-0.455-0.508-0.414-1.283,0.092-1.736c0.501-0.457,1.283-0.418,1.736,0.09
					c1.087,1.205,2.192,2.398,3.31,3.568c0.469,0.492,0.452,1.271-0.04,1.742C281.198,323.898,280.891,324.008,280.585,324.008z
					 M520.72,320.555c-0.293,0-0.587-0.102-0.823-0.314c-0.503-0.455-0.545-1.232-0.088-1.736c1.081-1.201,2.147-2.422,3.199-3.658
					c0.44-0.52,1.214-0.578,1.735-0.137c0.516,0.438,0.577,1.215,0.139,1.73c-1.068,1.256-2.148,2.492-3.248,3.709
					C521.391,320.42,521.058,320.555,520.72,320.555z M269.402,311.004c-0.37,0-0.732-0.166-0.973-0.48
					c-1.008-1.301-1.997-2.621-2.968-3.961c-0.396-0.547-0.275-1.316,0.276-1.717c0.548-0.398,1.317-0.277,1.717,0.275
					c0.956,1.316,1.928,2.617,2.92,3.9c0.414,0.537,0.314,1.309-0.221,1.725C269.931,310.92,269.665,311.004,269.402,311.004z
					 M531.515,307.25c-0.255,0-0.505-0.078-0.723-0.236c-0.55-0.398-0.669-1.17-0.272-1.719c0.953-1.307,1.884-2.627,2.794-3.967
					c0.386-0.561,1.152-0.699,1.71-0.322c0.562,0.385,0.706,1.148,0.324,1.711c-0.928,1.359-1.875,2.699-2.84,4.025
					C532.268,307.076,531.893,307.25,531.515,307.25z M259.638,296.893c-0.411,0-0.813-0.203-1.047-0.58
					c-0.853-1.381-1.682-2.775-2.496-4.186c-0.339-0.59-0.158-1.373,0.433-1.715c0.585-0.334,1.319-0.166,1.657,0.416
					c0.004,0.006,0.044,0.08,0.05,0.09c0.791,1.369,1.612,2.744,2.451,4.1c0.355,0.58,0.176,1.336-0.402,1.691
					C260.082,296.834,259.861,296.893,259.638,296.893z M542.008,292.127l-1.148-0.471l-0.989-0.748
					c0.793-1.367,1.554-2.736,2.295-4.113c0.323-0.598,1.069-0.82,1.665-0.498c0.599,0.322,0.821,1.066,0.5,1.668
					C543.578,289.357,542.805,290.748,542.008,292.127z M540.859,291.656h0.023H540.859z M251.4,281.842
					c-0.457,0-0.898-0.254-1.109-0.695c-0.715-1.484-1.407-2.977-2.075-4.482c-0.275-0.619,0.003-1.344,0.625-1.621
					c0.62-0.275,1.347,0.004,1.623,0.625c0.657,1.477,1.336,2.949,2.042,4.41c0.295,0.615,0.038,1.348-0.575,1.643
					C251.761,281.805,251.58,281.842,251.4,281.842z M548.662,277.617c-0.168,0-0.34-0.035-0.503-0.105
					c-0.62-0.279-0.899-1.006-0.62-1.627c0.664-1.482,1.302-2.971,1.92-4.471c0.258-0.625,0.977-0.924,1.603-0.67
					c0.631,0.26,0.927,0.977,0.667,1.609c-0.625,1.52-1.272,3.031-1.943,4.537C549.576,277.346,549.128,277.617,548.662,277.617z
					 M554.824,261.613c-0.124,0-0.252-0.02-0.382-0.059c-0.642-0.213-0.997-0.904-0.786-1.549c0.505-1.545,0.981-3.096,1.442-4.648
					c0.188-0.656,0.865-1.029,1.525-0.836c0.651,0.193,1.022,0.879,0.83,1.529c-0.463,1.578-0.952,3.152-1.459,4.713
					C555.825,261.285,555.344,261.613,554.824,261.613z M559.283,245.057c-0.086,0-0.174-0.008-0.26-0.027
					c-0.662-0.141-1.088-0.795-0.945-1.461c0.338-1.586,0.652-3.178,0.945-4.773c0.124-0.67,0.75-1.117,1.434-0.986
					c0.669,0.125,1.109,0.764,0.985,1.43c-0.298,1.623-0.614,3.236-0.96,4.844C560.358,244.66,559.85,245.057,559.283,245.057z
					 M561.982,228.121c-0.044,0-0.09,0-0.132-0.004c-0.675-0.075-1.165-0.68-1.092-1.355c0.168-1.613,0.318-3.226,0.438-4.844
					c0.054-0.678,0.637-1.198,1.318-1.132c0.677,0.049,1.186,0.64,1.136,1.318c-0.124,1.641-0.272,3.283-0.449,4.917
					C563.136,227.654,562.602,228.121,561.982,228.121z M562.895,210.911c-0.679,0-1.23-0.461-1.23-1.141v-0.179
					c0-1.56-0.021-3.122-0.068-4.685c-0.016-0.678,0.52-1.243,1.194-1.264c0.71-0.031,1.247,0.516,1.266,1.192
					c0.048,1.585,0.069,3.171,0.069,4.756C564.125,210.271,563.575,210.911,562.895,210.911z M562.017,193.876
					c-0.623,0-1.157-0.468-1.222-1.103c-0.168-1.611-0.356-3.222-0.572-4.83c-0.091-0.673,0.379-1.291,1.054-1.38
					c0.66-0.093,1.291,0.378,1.381,1.053c0.221,1.633,0.417,3.268,0.583,4.904c0.071,0.675-0.421,1.278-1.096,1.35
					C562.103,193.875,562.059,193.876,562.017,193.876z M237.848,181.519c-0.075,0-0.15-0.005-0.224-0.02
					c-0.665-0.121-1.111-0.761-0.987-1.43c0.292-1.617,0.612-3.233,0.956-4.842c0.142-0.666,0.791-1.086,1.458-0.949
					c0.663,0.143,1.087,0.795,0.946,1.459c-0.337,1.589-0.651,3.178-0.943,4.774C238.946,181.104,238.428,181.519,237.848,181.519z
					 M559.356,176.939c-0.567,0-1.079-0.399-1.2-0.975c-0.336-1.587-0.694-3.167-1.077-4.744c-0.159-0.66,0.247-1.326,0.907-1.485
					c0.669-0.168,1.326,0.249,1.485,0.903c0.386,1.604,0.751,3.206,1.088,4.817c0.139,0.664-0.285,1.316-0.951,1.456
					C559.524,176.932,559.438,176.939,559.356,176.939z M241.792,164.833c-0.114,0-0.23-0.018-0.345-0.049
					c-0.653-0.194-1.027-0.876-0.835-1.525c0.461-1.58,0.947-3.155,1.456-4.724c0.211-0.644,0.9-0.991,1.552-0.788
					c0.645,0.214,0.998,0.905,0.788,1.552c-0.501,1.542-0.982,3.092-1.434,4.645C242.815,164.484,242.324,164.833,241.792,164.833z
					 M554.939,160.374c-0.521,0-1.004-0.331-1.17-0.849c-0.499-1.543-1.021-3.078-1.569-4.608c-0.229-0.638,0.104-1.34,0.741-1.572
					c0.648-0.225,1.346,0.106,1.574,0.744c0.558,1.554,1.088,3.112,1.593,4.676c0.208,0.647-0.145,1.34-0.792,1.549
					C555.19,160.355,555.063,160.374,554.939,160.374z M247.46,148.645c-0.154,0-0.312-0.026-0.466-0.09
					c-0.628-0.256-0.929-0.975-0.671-1.607c0.625-1.518,1.271-3.032,1.944-4.539c0.274-0.622,0.997-0.902,1.622-0.622
					c0.62,0.276,0.9,1.002,0.624,1.624c-0.661,1.483-1.301,2.972-1.917,4.473C248.402,148.361,247.946,148.645,247.46,148.645z
					 M548.812,144.363c-0.47,0-0.919-0.272-1.122-0.733c-0.658-1.478-1.341-2.95-2.043-4.414c-0.293-0.615-0.037-1.348,0.578-1.642
					c0.614-0.289,1.344-0.039,1.642,0.576c0.714,1.491,1.401,2.983,2.068,4.482c0.278,0.62-0.002,1.349-0.623,1.622
					C549.148,144.329,548.98,144.363,548.812,144.363z M254.79,133.145c-0.197,0-0.397-0.048-0.582-0.146
					c-0.6-0.322-0.824-1.068-0.501-1.667c0.775-1.434,1.569-2.856,2.387-4.275l2.142,1.21c-0.008,0.007-0.032,0.057-0.04,0.066
					c-0.777,1.35-1.562,2.754-2.325,4.166C255.651,132.91,255.229,133.145,254.79,133.145z M539.976,128.459l-0.103-0.179
					c-0.773-1.346-1.576-2.685-2.388-4.01c-0.356-0.576-0.178-1.335,0.404-1.69c0.57-0.354,1.331-0.179,1.689,0.402
					c0.826,1.348,1.637,2.701,2.429,4.073l-0.966,0.793L539.976,128.459z M263.697,118.493c-0.237,0-0.478-0.069-0.69-0.214
					c-0.56-0.382-0.707-1.148-0.322-1.71c0.925-1.359,1.871-2.701,2.836-4.03c0.398-0.549,1.166-0.669,1.717-0.269
					c0.55,0.397,0.672,1.167,0.271,1.717c-0.948,1.306-1.882,2.628-2.795,3.968C264.478,118.305,264.092,118.493,263.697,118.493z
					 M531.718,114.673c-0.379,0-0.758-0.177-0.995-0.506c-0.956-1.32-1.93-2.621-2.915-3.906c-0.417-0.536-0.318-1.309,0.22-1.723
					c0.532-0.415,1.304-0.316,1.723,0.22c1.009,1.308,1.997,2.626,2.964,3.964c0.4,0.552,0.274,1.32-0.274,1.717
					C532.221,114.598,531.968,114.673,531.718,114.673z M481.135,69.022c-0.209,0-0.423-0.053-0.616-0.163
					c-1.405-0.814-2.82-1.604-4.247-2.374c-0.596-0.325-0.818-1.07-0.495-1.667c0.323-0.6,1.073-0.819,1.664-0.496
					c1.448,0.779,2.886,1.583,4.309,2.406c0.589,0.342,0.79,1.092,0.449,1.681C481.97,68.804,481.559,69.022,481.135,69.022z
					 M465.867,61.219c-0.169,0-0.339-0.029-0.505-0.102c-1.478-0.662-2.97-1.3-4.468-1.918c-0.627-0.258-0.927-0.979-0.667-1.605
					c0.256-0.627,0.975-0.923,1.604-0.669c1.523,0.627,3.033,1.274,4.537,1.946c0.619,0.276,0.897,1.004,0.619,1.622
					C466.785,60.95,466.335,61.219,465.867,61.219z M343.759,56.589c-0.504,0-0.976-0.314-1.157-0.814
					c-0.229-0.638,0.104-1.344,0.742-1.574c1.549-0.556,3.109-1.088,4.678-1.599c0.643-0.208,1.339,0.145,1.548,0.79
					c0.208,0.644-0.144,1.34-0.791,1.551c-1.544,0.501-3.08,1.024-4.604,1.573C344.039,56.565,343.897,56.589,343.759,56.589z
					 M449.877,55.056c-0.126,0-0.254-0.016-0.383-0.059c-1.539-0.501-3.086-0.98-4.641-1.439c-0.653-0.192-1.027-0.874-0.834-1.527
					c0.188-0.653,0.878-1.028,1.525-0.83c1.578,0.46,3.148,0.947,4.712,1.459c0.644,0.208,0.997,0.902,0.788,1.547
					C450.875,54.731,450.395,55.056,449.877,55.056z M360.188,51.653c-0.557,0-1.058-0.377-1.194-0.938
					c-0.162-0.66,0.241-1.324,0.901-1.488c1.597-0.39,3.206-0.755,4.818-1.101c0.67-0.137,1.32,0.284,1.462,0.947
					c0.141,0.664-0.286,1.32-0.948,1.458c-1.588,0.338-3.171,0.701-4.747,1.088C360.38,51.64,360.281,51.653,360.188,51.653z
					 M433.329,50.6c-0.086,0-0.172-0.007-0.26-0.027c-1.578-0.338-3.165-0.651-4.766-0.945c-0.665-0.121-1.109-0.761-0.985-1.428
					c0.124-0.669,0.77-1.117,1.428-0.987c1.624,0.296,3.233,0.614,4.839,0.958c0.666,0.141,1.087,0.794,0.945,1.458
					C434.404,50.207,433.895,50.6,433.329,50.6z M377.034,48.462c-0.605,0-1.134-0.446-1.212-1.064
					c-0.092-0.673,0.377-1.293,1.049-1.383c1.633-0.221,3.271-0.417,4.914-0.589c0.697-0.087,1.28,0.416,1.352,1.09
					c0.072,0.674-0.419,1.282-1.094,1.351c-1.618,0.172-3.234,0.366-4.841,0.583C377.146,48.46,377.092,48.462,377.034,48.462z
					 M416.41,47.902c-0.042,0-0.09-0.003-0.132-0.009c-1.605-0.17-3.218-0.316-4.831-0.441c-0.679-0.053-1.186-0.644-1.132-1.318
					c0.049-0.679,0.7-1.182,1.316-1.132c1.641,0.126,3.275,0.274,4.906,0.446c0.677,0.071,1.165,0.677,1.094,1.352
					C417.564,47.433,417.03,47.902,416.41,47.902z M394.136,47.054c-0.663,0-1.206-0.527-1.229-1.192
					c-0.02-0.68,0.514-1.247,1.194-1.269c1.647-0.048,3.297-0.071,4.95-0.071h0.249c0.679,0,1.23,0.548,1.23,1.229
					c0,0.681-0.551,1.227-1.23,1.227h-0.249c-1.63,0-3.255,0.026-4.878,0.077H394.136z"/>
			</g>
			<g>
				<g>
					<g>
						<g>
							<path fill="#1BBB9A" d="M314.386,44.967h-12.084c-0.669,0-1.21,0.617-1.21,1.37c0,0.755,0.541,1.371,1.21,1.371h12.084
								c0.667,0,1.208-0.616,1.208-1.371C315.593,45.584,315.052,44.967,314.386,44.967z"/>
						</g>
					</g>
					<g>
						<g>
							<path fill="#1BBB9A" d="M322.842,44.967h-1.208c-0.667,0-1.208,0.617-1.208,1.37c0,0.755,0.542,1.371,1.208,1.371h1.208
								c0.669,0,1.208-0.616,1.208-1.371C324.05,45.584,323.512,44.967,322.842,44.967z"/>
						</g>
					</g>
					<g>
						<g>
							<path fill="#1BBB9A" d="M309.844,110.743h-3.004c-1.835,0-3.331,1.697-3.331,3.782v0.662c0,2.083,1.496,3.78,3.331,3.78
								h3.004c1.835,0,3.331-1.697,3.331-3.78v-0.662C313.175,112.44,311.679,110.743,309.844,110.743z M310.757,115.187
								c0,0.574-0.41,1.037-0.913,1.037h-3.004c-0.503,0-0.913-0.462-0.913-1.037v-0.662c0-0.571,0.408-1.039,0.913-1.039h3.004
								c0.503,0,0.913,0.464,0.913,1.039V115.187z"/>
						</g>
					</g>
					<g>
						<g>
							<path fill="#1BBB9A" d="M324.519,40.856h-32.353c-2.407,0-4.367,2.222-4.367,4.956v72.311c0,2.729,1.959,4.956,4.367,4.956
								h32.35c2.409,0,4.37-2.228,4.37-4.954V45.813C328.885,43.079,326.925,40.856,324.519,40.856z M326.468,118.124
								c0,1.22-0.876,2.215-1.949,2.215h-32.353c-1.074,0-1.949-0.995-1.949-2.213V45.813c0-1.22,0.875-2.213,1.949-2.213h32.35
								c1.076,0,1.952,0.993,1.952,2.213V118.124L326.468,118.124z"/>
						</g>
					</g>
					<g>
						<g>
							<path fill="#1BBB9A" d="M327.677,49.08h-38.67c-0.666,0-1.208,0.613-1.208,1.368v57.556c0,0.755,0.542,1.37,1.208,1.37h38.67
								c0.665,0,1.208-0.614,1.208-1.37V50.448C328.885,49.693,328.342,49.08,327.677,49.08z M326.468,106.634h-36.251V51.818
								h36.251V106.634z"/>
						</g>
					</g>
				</g>
			</g>
			<g>
				<g>
					<path fill="#1BBB9A" d="M504.842,95.28c0.489,0.488,0.489,1.286,0,1.777c-0.492,0.488-1.288,0.488-1.776,0
						c-0.491-0.492-0.491-1.289,0-1.777C503.554,94.79,504.35,94.79,504.842,95.28z"/>
					<path fill="#1BBB9A" d="M471.635,102.789l3.505,3.507c5.375,5.375,12.971,5.053,20.108,2.447
						c7.213-2.635,15.083-7.984,22.158-15.059c6.907-6.907,12.157-14.571,14.781-21.567c3.06-8.172,2.337-14.836-2.1-19.269
						l-3.714-3.719c-0.004,0-0.004,0-0.004,0l-1.042-1.042c-2.831-2.836-7.553-2.328-9.722,1.035l-6.887,9.571
						c-0.015,0.018-0.029,0.038-0.038,0.058c-1.597,2.504-1.243,5.717,0.854,7.816l5.201,5.205c0.362,0.354,0.468,0.891,0.274,1.366
						c-0.037,0.083-0.061,0.168-0.075,0.258c-0.132,0.408-1.134,3.305-3.909,6.953c-3.644,4.782-8.467,8.439-14.343,10.87
						c-0.468,0.194-1.008,0.086-1.366-0.272l-5.202-5.204c-2.098-2.096-5.313-2.449-7.811-0.856
						c-0.051,0.033-0.097,0.064-0.141,0.103l-9.538,8.11C469.305,95.28,468.814,99.969,471.635,102.789z M488.34,87.519l1.585,1.585
						l-16.253,12.17l-0.262-0.262c-1.702-1.704-1.394-4.55,0.642-5.844c0.05-0.033,0.094-0.066,0.141-0.103l9.526-8.106
						C485.212,86.056,487.1,86.279,488.34,87.519z M523.551,49.861l0.296,0.293L512.85,66.327l-1.536-1.538
						c-1.251-1.249-1.469-3.162-0.532-4.661l6.887-9.568c0.011-0.018,0.025-0.039,0.04-0.057
						C518.997,48.473,521.841,48.147,523.551,49.861z M476.918,104.519l-1.45-1.45l16.251-12.17l1.823,1.821
						c1.079,1.079,2.69,1.403,4.105,0.815c8.037-3.326,12.954-8.388,15.662-12.051c1.844-2.491,3.669-5.87,4.065-7.494
						c0.526-1.392,0.192-2.946-0.863-3.999l-1.854-1.856l10.997-16.172l2.657,2.659c4.656,4.654,3.397,11.603,1.523,16.612
						c-2.5,6.671-7.545,14.015-14.209,20.675c-6.819,6.821-14.36,11.963-21.236,14.472
						C489.173,108.287,481.91,109.512,476.918,104.519z"/>
					<path fill="#1BBB9A" d="M507.198,92.279c1.328-1.163,3.623-3.164,4.833-4.405c2.963-3.048,6.075-6.74,7.922-9.41
						c0.396-0.567,1.178-0.706,1.75-0.314c0.567,0.393,0.71,1.178,0.315,1.748c-2.332,3.365-5.759,7.229-8.188,9.729
						c-1.276,1.31-3.592,3.33-4.976,4.542c-0.52,0.457-1.313,0.41-1.775-0.117C506.624,93.532,506.678,92.738,507.198,92.279z"/>
				</g>
			</g>
			<g>
				<g>
					<path fill="#1BBB9A" d="M282.875,190.097h-54.736c-0.683,0-1.234,0.554-1.234,1.24c0,0.681,0.551,1.231,1.234,1.231h54.736
						c3,0,5.441,2.439,5.441,5.44v43.943c0,3-2.441,5.441-5.441,5.441h-67.326c-2.999,0-5.44-2.441-5.44-5.441v-43.943
						c0-3.001,2.441-5.44,5.44-5.44h7.65c0.681,0,1.234-0.55,1.234-1.231c0-0.686-0.553-1.24-1.234-1.24h-7.65
						c-4.36,0-7.909,3.548-7.909,7.911v43.943c0,4.361,3.549,7.906,7.909,7.906h19.856l-2.418,7.908h-4.534
						c-2.316,0-4.197,1.883-4.197,4.195c0,2.316,1.881,4.197,4.197,4.197h41.519c2.313,0,4.198-1.881,4.198-4.197
						c0-2.313-1.884-4.195-4.198-4.195h-4.534l-2.417-7.908h19.855c4.361,0,7.91-3.545,7.91-7.906v-43.943
						C290.785,193.645,287.236,190.097,282.875,190.097z M271.702,261.961c0,0.953-0.777,1.732-1.73,1.732h-41.519
						c-0.953,0-1.729-0.779-1.729-1.732s0.777-1.729,1.729-1.729h41.519C270.924,260.232,271.702,261.008,271.702,261.961z
						 M262.854,257.766h-27.282l2.417-7.904h22.449L262.854,257.766z"/>
					<path fill="#1BBB9A" d="M282.965,230.295c0.682,0,1.234-0.551,1.234-1.236v-31.051c0-0.73-0.593-1.328-1.325-1.328h-67.326
						c-0.729,0-1.324,0.598-1.324,1.328v40.248c0,0.678,0.553,1.234,1.234,1.234h67.506c0.682,0,1.234-0.557,1.234-1.234V234
						c0-0.686-0.552-1.234-1.234-1.234s-1.234,0.549-1.234,1.234v3.02h-65.035V199.15h65.035v29.908
						C281.731,229.744,282.283,230.295,282.965,230.295z"/>
					<path fill="#1BBB9A" d="M250.238,242.539c-0.269-0.418-0.786-0.629-1.267-0.529c-0.529,0.102-0.936,0.553-0.988,1.096
						c-0.107,1.113,1.275,1.781,2.083,1.004C250.496,243.701,250.565,243.031,250.238,242.539z"/>
				</g>
			</g>
		</g>
		<g>
			<g>
				<g>
					<path fill="#00D3C5" d="M261.176,341.064c-3.269,4.635-8.377,6.654-11.408,4.516c-3.031-2.139-2.84-7.625,0.425-12.262
						c3.269-4.631,13.339-13.203,16.372-11.063C269.597,324.395,264.442,336.434,261.176,341.064z"/>
					
						<line opacity="0.39" fill="none" stroke="#422B7F" stroke-width="0.3681" stroke-miterlimit="10" x1="262.032" y1="328.195" x2="249.768" y2="345.58"/>
				</g>
				<g>
					<path fill="#00D3C5" d="M221.537,344.537c4.552,3.379,10.034,3.707,12.248,0.727c2.212-2.98,0.316-8.135-4.235-11.516
						c-4.552-3.379-16.796-8.377-19.007-5.396C208.331,331.33,216.986,341.156,221.537,344.537z"/>
					
						<line opacity="0.39" fill="none" stroke="#422B7F" stroke-width="0.3681" stroke-miterlimit="10" x1="216.702" y1="332.576" x2="233.785" y2="345.264"/>
				</g>
				<g>
					<path fill="#00B59C" d="M255.52,335.754c-2.25,7.32-7.958,12.063-12.751,10.588c-4.791-1.471-6.851-8.598-4.601-15.918
						c2.247-7.32,11.574-22.557,16.365-21.082C259.325,310.813,257.767,328.432,255.52,335.754z"/>
					
						<line opacity="0.39" fill="none" stroke="#422B7F" stroke-width="0.4972" stroke-miterlimit="10" x1="251.209" y1="318.873" x2="242.768" y2="346.342"/>
				</g>
				<g>
					<path fill="#00B59C" d="M240.942,329.844c3.652,6.732,3.041,14.129-1.363,16.518c-4.407,2.391-10.938-1.127-14.593-7.857
						c-3.653-6.732-8-24.057-3.596-26.445C225.795,309.666,237.29,323.113,240.942,329.844z"/>
					
						<line opacity="0.39" fill="none" stroke="#422B7F" stroke-width="0.4972" stroke-miterlimit="10" x1="225.87" y1="321.102" x2="239.579" y2="346.361"/>
				</g>
				<g>
					<path fill="#00D3C5" d="M248.976,332.828c0,7.658-4.066,13.867-9.077,13.867c-5.013,0-9.075-6.209-9.075-13.867
						s4.439-24.957,9.454-24.957C245.29,307.871,248.976,325.17,248.976,332.828z"/>
					
						<line opacity="0.39" fill="none" stroke="#422B7F" stroke-width="0.4972" stroke-miterlimit="10" x1="239.899" y1="317.955" x2="239.899" y2="346.695"/>
				</g>
			</g>
			<g>
				<path fill="#3597DA" d="M223.496,347.66c-1.91,2.922-3.029,6.41-3.029,10.162c0,10.283,8.336,18.621,18.619,18.621
					c10.284,0,18.619-8.338,18.619-18.621c0-3.752-1.119-7.24-3.028-10.162H223.496z"/>
				<path fill="#2A80B8" d="M257.685,357.227c-0.113-3.525-1.202-6.801-3.008-9.566h-31.181c-1.807,2.766-2.896,6.041-3.009,9.566
					H257.685z"/>
				<path fill="#3597DA" d="M257.292,350.787h-37.24c-1.593,0-2.896-1.303-2.896-2.898l0,0c0-1.592,1.303-2.895,2.896-2.895h37.24
					c1.595,0,2.896,1.303,2.896,2.895l0,0C260.188,349.484,258.886,350.787,257.292,350.787z"/>
			</g>
		</g>
		<g>
			<path opacity="0.34" fill="#E1D7FF" d="M630.521,192.425c0,6.852-5.277,12.413-11.791,12.413s-11.791-5.561-11.791-12.413
				c0-6.858,5.277-12.415,11.791-12.415S630.521,185.567,630.521,192.425z"/>
			<circle opacity="0.34" fill="#E1D7FF" cx="583.351" cy="182.493" r="6.208"/>
		</g>
		<g>
			<ellipse opacity="0.34" fill="#E1D7FF" cx="109.159" cy="188.7" rx="11.792" ry="12.415"/>
			<path opacity="0.34" fill="#E1D7FF" d="M129.021,157.667c0,3.427-2.78,6.205-6.208,6.205c-3.429,0-6.207-2.778-6.207-6.205
				c0-3.431,2.778-6.207,6.207-6.207C126.241,151.46,129.021,154.236,129.021,157.667z"/>
			<circle opacity="0.34" fill="#E1D7FF" cx="136.468" cy="181.251" r="6.207"/>
		</g>
		<g>
			<ellipse fill="#FFFFFF" cx="589.864" cy="287.199" rx="11.486" ry="12.125"/>
			<path fill="#9A58B4" d="M639.719,367.045h-17.866v-80.49c2.608-3.775,3.573-8.521,2.552-13.063l3.675-2.074
				c2.296-1.291,3.111-4.225,1.82-6.518s-4.229-3.111-6.518-1.818l-3.678,2.07c-5.143-4.941-13.099-6.168-19.631-2.486
				c-2.637,1.486-4.696,3.59-6.13,6.021l-0.221-0.393l-18.633,1.127l22.557,40.025l10.614-15.355l-0.222-0.395
				c2.823,0.035,5.688-0.639,8.324-2.123c0.132-0.076,0.256-0.162,0.384-0.238v75.709h-20.419c-2.458,0-4.468,2.01-4.468,4.467
				c0,2.459,2.01,4.469,4.468,4.469h43.391c2.458,0,4.47-2.01,4.47-4.469C644.188,369.055,642.177,367.045,639.719,367.045z"/>
		</g>
		
			<line fill="none" stroke="#4F4F4F" stroke-width="0.7955" stroke-miterlimit="10" x1="8.932" y1="376.189" x2="804.402" y2="376.189"/>
		<g>
			<g>
				<path fill="#425260" d="M452.137,187.747c-7.019-2.547-11.231-16.979-17.783-47.541c-6.446-30.067-35.972-26.035-36.925-25.897
					c-0.951-0.137-30.479-4.169-36.928,25.897c-6.549,30.561-10.761,44.993-17.782,47.541c-7.019,2.545-14.972,21.644,7.021,34.805
					c10.098,6.04,28.677,9.65,46.913,9.708v0.007c0.256,0.001,0.518-0.004,0.775-0.004c0.26,0,0.519,0.005,0.777,0.004v-0.007
					c18.232-0.059,36.813-3.668,46.913-9.708C467.112,209.391,459.159,190.292,452.137,187.747z"/>
				<path fill="#2C3E50" d="M425.552,187.628c-12.688-18.908-10.189-41.037-10.795-62.61c-8.434-3.939-19.412-3.025-28.465-2.37
					c1.452,9.723,1.696,19.605,0.935,29.427c-1.011,13.046-3.976,27.655-12.707,37.899c-5.173,6.071-12.288,8.5-19.216,11.905
					c-5.151,2.529-9.049,7.055-11.705,12.097c-0.496,0.94-0.925,1.893-1.315,2.849c1.974,1.982,4.422,3.912,7.457,5.728
					c10.098,6.04,28.677,9.65,46.913,9.708v0.007c0.256,0.001,0.518-0.004,0.775-0.004c0.26,0,0.519,0.005,0.777,0.004v-0.007
					c18.108-0.059,36.544-3.621,46.69-9.586c0.424-3.487-0.146-7.196-2.004-11.205C438.688,202.402,431.038,195.8,425.552,187.628z"
					/>
			</g>
			<path fill="#FFDCDC" d="M383.696,188.293c0,0,0.092,17.316-3.247,19.9c0,0,6.206,8.551,19.665,7.881
				c0,0,10.363-0.919,13.255-4.688c0,0-1.039-20.895-0.876-25.333C412.493,186.054,387.506,179.646,383.696,188.293z"/>
			<path opacity="0.47" fill="#FF8479" d="M383.23,198.311c5.71,4.211,12.196,6.569,19.716,4.566c3.604-0.958,6.86-2.687,9.828-4.87
				c-0.197-5.049-0.351-10.04-0.281-11.954c0,0-24.987-6.408-28.797,2.24C383.696,188.293,383.723,193.286,383.23,198.311z"/>
			<path fill="#1BBB9A" d="M443.963,219.613c-0.582-2.339-25.243-10.504-30.451-12.203c-5.546,4.01-11.954,5.753-19.156,5.089
				c-5.351-0.494-10.813-2.579-14.174-6.647l-0.253,0.035c0,0-32.681,10.457-33.333,13.073c-0.655,2.615,18.3,54.901,16.993,68.625
				c-1.31,13.727-11.111,25.49-9.149,32.027c0,0,16.157,2.438,31.4,3.359l-0.048,0.563c15.688,1.959,50.329-3.27,50.329-3.27
				c1.963-6.535-7.845-18.299-9.15-32.025C425.665,274.516,444.617,222.229,443.963,219.613z"/>
			<path fill="#169F85" d="M436.154,246.652c-6.759,5.498-14.727,9.785-22.226,12.646c-13.887,5.303-32.852,4.404-45.795-3.105
				c-6.134-3.559-10.909-8.529-14.933-14.16c5.095,16.686,11.145,37.598,10.388,45.553c-1.31,13.727-11.111,25.49-9.149,32.027
				c0,0,16.157,2.438,31.4,3.359l-0.048,0.563c15.688,1.959,50.329-3.27,50.329-3.27c1.963-6.535-7.845-18.299-9.15-32.025
				C426.272,280.904,431.363,262.549,436.154,246.652z"/>
			<path fill="#FFFFFF" d="M382.631,204.781l-2.703,1.106c0,0,6.27,14.414,18.052,19.426c0,0,14.756-7.905,17.133-17.736
				l-1.981-1.447C413.132,206.13,399.864,214.42,382.631,204.781z"/>
			<path fill="#1BBB9A" d="M347.807,217.75c0,0-49.042,60.217-42.39,72.922c6.657,12.707,42.357,30.859,51.432,30.859l12.708-9.076
				c0,0-33.884-27.834-32.676-33.277c1.212-5.447,27.834-35.699,27.834-35.699S357.517,211.382,347.807,217.75z"/>
			<path fill="#169F85" d="M336.881,279.178c1.067-4.799,21.85-28.84,26.781-34.498c-13.974,6.979-25.859,18.383-32.335,32.688
				c-5.087,11.236-5.499,22.609-1.844,33.074c11.122,6.338,22.727,11.09,27.366,11.09l12.708-9.076
				C369.557,312.455,335.672,284.621,336.881,279.178z"/>
			<path fill="#9A58B4" d="M366.531,340.893c0,0-78.055-63.531-91.368-41.145c-13.31,22.389,25.415,62.928,82.29,70.795
				L366.531,340.893z"/>
			<path fill="#1BBB9A" d="M444.948,219.564c0,0,49.044,60.217,42.388,72.924c-6.655,12.707-42.356,30.859-51.43,30.859
				l-12.708-9.078c0,0,33.888-27.83,32.675-33.279c-1.211-5.443-27.834-35.699-27.834-35.699S435.234,213.197,444.948,219.564z"/>
			<path fill="#169F85" d="M478.267,297.137c-8.103-14.396-18.2-26.889-31.561-36.732c-4.747-3.496-9.366-7.148-14.052-10.729
				c-0.779-0.598-1.563-1.189-2.348-1.785c6.451,7.439,24.571,28.629,25.566,33.1c1.213,5.449-32.675,33.279-32.675,33.279
				l12.708,9.078c7.461,0,32.901-12.266,45.422-23.693C480.077,299.221,478.979,298.4,478.267,297.137z"/>
			<path fill="#9A58B4" d="M428.646,340.893c0,0,78.052-63.531,91.363-41.145c13.314,22.389-25.41,62.928-82.289,70.795
				L428.646,340.893z"/>
			<path fill="#FFDCDC" d="M427.103,148.026l-0.106-0.061c-1.093-15.022-14.099-26.889-30.019-26.889
				c-16.641,0-30.129,12.953-30.129,28.93c0,2.366,0.327,4.65,0.882,6.85c1.343,12.025,7.107,36.958,31.818,41.692
				C399.548,198.549,429.496,193.853,427.103,148.026z"/>
			<path fill="#425260" d="M380.851,135.774c0,0,22.187,13.713,37.112,15.328c14.924,1.613,8.066,11.294,8.873,12.504
				c0.806,1.21,8.47-17.347-3.629-35.497c-12.1-18.155-38.322-12.506-48.81,0C374.397,128.11,377.221,132.949,380.851,135.774z"/>
			<path fill="#425260" d="M383.674,135.37c0,0-17.75,10.89-15.329,33.481c0,0-14.925-29.045,9.279-44.373
				C377.624,124.479,390.127,125.691,383.674,135.37z"/>
			<path fill="#FFDCDC" d="M372.305,167.454c1.586,4.052,1.072,8.039-1.146,8.906c-2.222,0.869-5.302-1.713-6.887-5.766
				c-1.584-4.05-1.069-8.039,1.148-8.905C367.642,160.818,370.724,163.402,372.305,167.454z"/>
			
				<ellipse transform="matrix(0.9687 0.2482 -0.2482 0.9687 55.2801 -101.2598)" fill="#FFDCDC" cx="429.316" cy="168.655" rx="4.314" ry="7.879"/>
			<path fill="#425260" d="M390.456,167.37c0,0-6.534,4.315-12.698-3.082h-2.22l2.22,0.986
				C377.758,165.274,384.417,174.151,390.456,167.37z"/>
			<path fill="#425260" d="M391.85,161.443c0,0-4.739-5.406-15.58-2.317c0,0,10.045-0.565,13.45,2.328
				C389.72,161.454,391.79,163.208,391.85,161.443z"/>
			<path fill="#425260" d="M406.583,168.102c0,0,6.534,4.315,12.696-3.082h2.22l-2.22,0.988
				C419.279,166.008,412.623,174.882,406.583,168.102z"/>
			<path fill="#425260" d="M405.19,162.176c0,0,4.737-5.407,15.581-2.317c0,0-10.049-0.565-13.454,2.326
				C407.318,162.186,405.249,163.941,405.19,162.176z"/>
			<g>
				<path fill="#425260" d="M396.274,176.245c0,0,3.284,3.531,5.302,0.384C401.576,176.628,399.411,180.729,396.274,176.245z"/>
				<path fill="#425260" d="M394.671,175.014c0,0-1.602,1.725,0.615,2.712C395.286,177.726,394.302,176.493,394.671,175.014z"/>
				<path fill="#425260" d="M403.234,175.138c0,0,1.602,1.726-0.615,2.71C402.619,177.848,403.604,176.616,403.234,175.138z"/>
			</g>
			<path fill="#425260" d="M382.32,136.18c0,0-14.423,22.805-7.645,39.45c0,0-1.354,3.082-2.466,1.602
				c-1.108-1.479-6.902-16.147-5.793-24.04C367.526,145.303,375.539,132.605,382.32,136.18z"/>
			<path fill="#425260" d="M424.21,152.432c0,0,0.61,22.714-1.248,29.807c0,0,0.774,1.789,2.151,0.556
				c1.379-1.234,5.288-24.59,4.035-29.062C427.893,149.264,425.287,150.604,424.21,152.432z"/>
			<path fill="#169F85" d="M379.571,206.692c0,0,8.451,14.8,18.409,18.622c0,0,13.082-7.115,17.133-17.736
				c0,0,2.355-0.461,2.146,1.022c-0.214,1.481-8.046,15.877-19.267,19.689c0,0-9.316-1.907-22.02-21.172
				C375.972,207.116,378.695,205.194,379.571,206.692z"/>
			<path fill="#FF2D29" d="M393.417,183.581c0,0,0.432,0.741,2.801-0.247c2.369-0.986,4.953-1.479,7.968,0.742
				c0,0,1.003,0.342,1.754-0.282c0,0-0.439,4.872-6.013,5.287C394.355,189.499,393.417,183.581,393.417,183.581z"/>
			<path fill="#FFFFFF" d="M396.478,184.709c0,0,4.851,0.366,6.405,0.093c0,0-0.182,2.105-3.2,2.013
				C396.662,186.725,396.478,184.709,396.478,184.709z"/>
			<path fill="#425260" d="M413.124,152.68c-5.909,0-10.697,5.612-10.697,12.538c0,0.459,0.024,0.909,0.064,1.355
				c-2.925-2.952-6.518-0.896-7.546-0.194c0.029-0.384,0.049-0.772,0.049-1.161c0-6.925-4.79-12.538-10.697-12.538
				c-5.909,0-10.7,5.612-10.7,12.538s4.791,12.537,10.7,12.537c5.214,0,9.552-4.378,10.501-10.166
				c3.886-2.737,6.887-0.929,7.797-0.234c0.865,5.905,5.244,10.399,10.528,10.399c5.91,0,10.698-5.612,10.698-12.537
				S419.034,152.68,413.124,152.68z M384.298,176.881c-5.497,0-9.953-5.223-9.953-11.663c0-6.441,4.456-11.664,9.953-11.664
				c5.494,0,9.95,5.223,9.95,11.664C394.248,171.658,389.792,176.881,384.298,176.881z M413.124,176.881
				c-5.494,0-9.95-5.223-9.95-11.663c0-6.441,4.456-11.664,9.95-11.664c5.497,0,9.952,5.223,9.952,11.664
				C423.076,171.658,418.621,176.881,413.124,176.881z"/>
			<path opacity="0.4" fill="none" stroke="#422B7F" stroke-width="0.816" stroke-miterlimit="10" d="M300.103,316.74
				c0,0,24.288,11.334,29.956,21.049"/>
			<path opacity="0.4" fill="none" stroke="#422B7F" stroke-width="0.816" stroke-miterlimit="10" d="M486.318,317.549
				c0,0-22.668,12.145-28.337,22.672"/>
		</g>
		<g>
			<linearGradient id="SVGID_1_" gradientUnits="userSpaceOnUse" x1="390.1245" y1="366.9141" x2="390.1245" y2="91.3999">
				<stop  offset="0" style="stop-color:#FFFFFF"/>
				<stop  offset="0.0886" style="stop-color:#FFFFFF;stop-opacity:0.9114"/>
				<stop  offset="1" style="stop-color:#FFFFFF;stop-opacity:0"/>
			</linearGradient>
			<polygon fill="url(#SVGID_1_)" points="325.984,364.699 229.174,91.399 551.074,91.399 467.772,366.914 			"/>
			<g>
				<g>
					<rect x="324.978" y="278.561" fill="#425260" width="142.191" height="88.947"/>
					<path fill="#2C3E50" d="M454.052,278.561c-2.18,23.73-11.219,46.502-30.791,61.707c-14.727,11.438-32.889,16.367-51.359,16.031
						c-15.782-0.291-31.28-3.432-46.924-5.182v16.391h142.191v-88.947H454.052z"/>
				</g>
				<path fill="#1D2933" d="M469.393,376.592H324.78c-2.664,0-4.841-2.18-4.841-4.84l0,0c0-2.66,2.178-4.838,4.841-4.838h144.613
					c2.664,0,4.842,2.178,4.842,4.838l0,0C474.234,374.412,472.057,376.592,469.393,376.592z"/>
			</g>
		</g>
	</g>
	<g>
		<g>
			<path fill-rule="evenodd" clip-rule="evenodd" fill="#1BBB9A" d="M205.472,459.33c-1.237,0.059-2.197-0.006-3.113,0.168
				c-3.781,0.715-5.969-0.682-6.341-4.611c-0.218-2.299-1.466-3.08-3.722-2.816c-1.571,0.189-3.218,0.254-4.771-0.002
				c-4.157-0.68-6.734,0.709-7.275,5.07c-0.254,2.045-1.442,2.537-3.312,2.367c-1.575-0.135-3.176-0.029-5.305-0.029
				c2.275-6.518,4.436-12.773,6.64-19.014c1.628-4.609,3.429-9.162,4.928-13.809c0.703-2.18,1.691-3.059,4.111-2.996
				c5.711,0.146,5.707,0.006,7.578,5.379C198.383,439.057,201.888,449.068,205.472,459.33z"/>
			<path fill-rule="evenodd" clip-rule="evenodd" fill="#1BBB9A" d="M299.42,435.104c0-3.123,0.138-6.387-0.038-9.629
				c-0.171-3.143,2.06-2.027,3.471-2.057c1.451-0.033,3.47-0.967,3.427,2.127c-0.142,10.531-0.04,21.063-0.08,31.594
				c-0.001,0.83,0.55,2.377-0.973,2.238c-1.892-0.168-4.336,1.354-5.57-0.867c-0.624-1.115-0.322-1.547-1.649-0.621
				c-6.508,4.568-13.646,2.102-16.339-5.436c-1.506-4.213-1.448-8.424-0.124-12.605c2.39-7.539,10.037-9.912,16.363-5.174
				C298.279,434.955,298.539,435.453,299.42,435.104z"/>
			<path fill-rule="evenodd" clip-rule="evenodd" fill="#1BBB9A" d="M325.271,448.424c-2.334,0-4.672,0.098-6.997-0.027
				c-1.901-0.102-2.024,0.797-1.568,2.221c1.148,3.596,5.982,5.035,9.104,2.434c1.363-1.133,2.592-1.656,4.233-1.457
				c1.169,0.146,2.795-0.627,3.414,0.486c0.835,1.504-0.625,2.789-1.517,3.836c-3.566,4.189-8.184,4.959-13.359,3.871
				c-5.068-1.066-7.756-4.271-8.776-9.188c-0.685-3.305-0.804-6.564,0.182-9.828c1.988-6.58,8.409-9.971,15.518-8.17
				c5.715,1.445,10.125,8.861,8.964,14.732c-0.284,1.43-1.099,1.057-1.832,1.07C330.184,448.453,327.727,448.424,325.271,448.424z"
				/>
			<path fill-rule="evenodd" clip-rule="evenodd" fill="#1BBB9A" d="M265.125,449.471c0,2.09,0.107,4.186-0.04,6.262
				c-0.09,1.238,0.799,3.369-0.674,3.541c-1.911,0.225-4.484,1.471-5.957-0.848c-0.935-1.467-1.266-0.203-1.78,0.072
				c-2.206,1.186-4.494,1.846-7.042,1.721c-4.829-0.236-7.667-2.369-8.165-6.307c-0.633-4.992,1.531-8.279,6.436-9.604
				c1.77-0.475,3.611-0.676,5.406-1.068c1.836-0.396,4.12-0.154,4.555-2.797c0.249-1.514-0.741-2.309-1.977-2.693
				c-2.338-0.719-4.813-0.918-6.229,1.486c-0.952,1.611-1.928,2.133-3.733,2.086c-3.989-0.098-4.553-0.871-2.699-4.406
				c1.08-2.066,2.894-3.318,5.075-3.977c3.238-0.975,6.544-1.049,9.826-0.289c4.262,0.994,6.566,3.619,6.834,7.986
				c0.184,2.932,0.036,5.889,0.036,8.834C265.04,449.471,265.082,449.471,265.125,449.471z"/>
			<path fill-rule="evenodd" clip-rule="evenodd" fill="#1BBB9A" d="M372.738,449.471c0,2.09,0.108,4.186-0.042,6.262
				c-0.087,1.238,0.801,3.369-0.672,3.541c-1.91,0.225-4.486,1.471-5.959-0.848c-0.933-1.467-1.265-0.203-1.78,0.072
				c-2.202,1.186-4.493,1.846-7.038,1.721c-4.83-0.236-7.67-2.369-8.169-6.307c-0.63-4.988,1.535-8.279,6.439-9.604
				c1.77-0.475,3.609-0.676,5.406-1.068c1.836-0.396,4.121-0.154,4.556-2.797c0.249-1.514-0.745-2.309-1.976-2.693
				c-2.338-0.719-4.815-0.918-6.232,1.486c-0.95,1.611-1.928,2.133-3.73,2.086c-3.991-0.098-4.553-0.871-2.704-4.406
				c1.082-2.066,2.894-3.318,5.078-3.977c3.237-0.975,6.544-1.049,9.827-0.289c4.261,0.994,6.563,3.619,6.834,7.986
				c0.182,2.932,0.034,5.889,0.034,8.834C372.652,449.471,372.696,449.471,372.738,449.471z"/>
			<path fill-rule="evenodd" clip-rule="evenodd" fill="#1BBB9A" d="M476.661,449.471c0,2.09,0.11,4.186-0.038,6.262
				c-0.09,1.238,0.801,3.369-0.673,3.541c-1.907,0.225-4.487,1.471-5.958-0.848c-0.937-1.467-1.264-0.203-1.781,0.072
				c-2.201,1.186-4.493,1.846-7.038,1.721c-4.833-0.236-7.674-2.369-8.165-6.307c-0.633-4.988,1.53-8.279,6.435-9.604
				c1.769-0.475,3.608-0.676,5.406-1.068c1.837-0.396,4.121-0.154,4.557-2.797c0.245-1.514-0.744-2.309-1.977-2.693
				c-2.337-0.719-4.818-0.918-6.23,1.486c-0.955,1.611-1.928,2.133-3.732,2.086c-3.99-0.098-4.554-0.871-2.699-4.406
				c1.083-2.066,2.89-3.318,5.071-3.977c3.238-0.975,6.547-1.049,9.829-0.289c4.259,0.994,6.563,3.619,6.834,7.986
				c0.181,2.932,0.032,5.889,0.032,8.834C476.579,449.471,476.623,449.471,476.661,449.471z"/>
			<path fill-rule="evenodd" clip-rule="evenodd" fill="#1BBB9A" d="M547.422,449.141c0,2.211,0.104,4.424-0.042,6.627
				c-0.08,1.229,0.813,3.338-0.706,3.512c-1.903,0.219-4.445,1.43-5.941-0.879c-0.927-1.424-1.285-0.168-1.786,0.115
				c-2.436,1.369-5.007,1.908-7.79,1.664c-4.317-0.387-6.937-2.586-7.396-6.301c-0.566-4.615,1.272-7.889,5.43-9.213
				c2.092-0.668,4.305-0.943,6.451-1.426c1.834-0.416,4.126-0.168,4.524-2.83c0.229-1.514-0.786-2.285-2.008-2.674
				c-2.209-0.688-4.59-0.885-6.017,1.229c-1.048,1.566-1.884,2.473-3.95,2.377c-3.951-0.18-4.521-0.928-2.653-4.457
				c1.092-2.063,2.913-3.281,5.093-3.959c2.99-0.928,6.068-0.98,9.118-0.434c4.776,0.848,7.282,3.68,7.545,8.547
				c0.145,2.689,0.027,5.4,0.027,8.102C547.351,449.141,547.391,449.141,547.422,449.141z"/>
			<path fill-rule="evenodd" clip-rule="evenodd" fill="#1BBB9A" d="M612.775,446.195c0.009,8.506-5.402,14.07-13.624,14.023
				c-8.106-0.051-13.393-5.467-13.474-13.814c-0.088-8.514,5.252-14.137,13.467-14.195
				C607.423,432.148,612.767,437.633,612.775,446.195z"/>
			<path fill-rule="evenodd" clip-rule="evenodd" fill="#1BBB9A" d="M402.042,439.283c0-3.555,0.218-7.135-0.068-10.664
				c-0.237-2.994,1.479-2.768,3.388-2.689c1.74,0.078,4.059-0.588,3.474,2.521c-0.779,4.123,1.236,4.947,4.806,4.541
				c2.301-0.262,4.669,0.064,6.987-0.082c2.033-0.125,2.986,0.16,3.016,2.668c0.021,2.688-1.282,2.596-3.122,2.547
				c-3.063-0.074-6.139,0.078-9.199-0.055c-1.873-0.08-2.626,0.422-2.513,2.432c0.185,3.18-0.029,6.381,0.164,9.564
				c0.143,2.402,1.171,4.318,4.04,4.238c2.792-0.082,3.772-1.881,3.893-4.373c0.059-1.223,0.209-2.479,0.019-3.67
				c-0.52-3.244,0.664-4.336,3.963-4.051c1.982,0.17,2.92,0.471,2.666,2.639c-0.168,1.453-0.009,2.941-0.038,4.414
				c-0.148,6.996-3.932,10.9-10.59,10.955c-6.933,0.051-10.749-3.781-10.869-10.998C402,445.91,402.042,442.598,402.042,439.283z"/>
			<path fill-rule="evenodd" clip-rule="evenodd" fill="#1BBB9A" d="M622.429,436.514c3.056-3.795,6.262-4.65,9.864-4.217
				c4.096,0.492,6.991,3.072,7.214,7.098c0.337,6.123,0.43,12.275,0.214,18.402c-0.117,3.232-3.01,1.195-4.592,1.631
				c-1.439,0.402-2.507,0.084-2.436-1.979c0.161-4.662,0.029-9.334,0.059-14.004c0.015-2.867-0.622-5.152-4.097-5.34
				c-3.328-0.186-5.487,1.322-5.73,4.795c-0.333,4.77-0.324,9.57-0.169,14.355c0.106,3.426-2.269,2.037-3.758,2.18
				c-1.574,0.154-3.362,0.686-3.275-2.285c0.213-7.113,0.059-14.242,0.081-21.363c0.007-1.34-0.572-3.383,1.938-2.785
				C619.507,433.42,622.957,430.896,622.429,436.514z"/>
			<path fill-rule="evenodd" clip-rule="evenodd" fill="#1BBB9A" d="M222.209,456.541c-3.724,3.639-7.56,4.764-11.826,2.783
				c-4.07-1.893-5.199-5.557-5.15-9.779c0.057-4.785,0.163-9.58-0.039-14.357c-0.142-3.428,2.237-2.068,3.726-2.199
				c1.574-0.141,3.456-0.709,3.297,2.277c-0.238,4.529-0.125,9.084-0.037,13.621c0.061,2.93,0.842,5.432,4.528,5.436
				c3.08,0,5.162-1.857,5.338-5.355c0.215-4.291,0.334-8.615-0.005-12.887c-0.252-3.184,1.271-3.1,3.605-3.221
				c2.705-0.135,3.541,0.555,3.439,3.381c-0.239,6.744-0.044,13.506-0.108,20.262c-0.011,1.225,0.835,3.373-1.787,2.926
				C225.335,459.121,222.15,461.174,222.209,456.541z"/>
			<path fill-rule="evenodd" clip-rule="evenodd" fill="#1BBB9A" d="M443.286,456.574c-3.584,3.502-7.283,4.662-11.468,2.873
				c-4.324-1.844-5.506-5.568-5.458-9.932c0.046-4.666,0.221-9.344-0.059-13.99c-0.214-3.469,2.027-2.443,3.769-2.586
				c1.988-0.156,3.477-0.156,3.282,2.725c-0.288,4.281-0.145,8.598-0.057,12.889c0.086,4.162,1.436,5.777,4.566,5.766
				c3.193-0.008,5.193-2,5.338-5.75c0.159-4.172,0.23-8.361-0.019-12.521c-0.16-2.674,0.725-3.387,3.257-3.154
				c2.058,0.186,3.95-0.43,3.788,3.014c-0.326,6.859-0.068,13.746-0.121,20.625c-0.009,1.25,0.784,3.332-1.823,2.914
				C446.402,459.141,443.33,461.006,443.286,456.574z"/>
			<path fill-rule="evenodd" clip-rule="evenodd" fill="#1BBB9A" d="M512.595,438.844c-3.806,0-6.847-0.248-9.827,0.068
				c-2.946,0.305-2.584-1.359-2.763-3.271c-0.222-2.428,0.764-2.813,2.903-2.744c4.654,0.152,9.319-0.063,13.968,0.111
				c1.526,0.059,4.005-1.193,4.482,0.814c0.543,2.301,0.85,4.963-1.385,7.168c-3.919,3.846-7.562,7.977-11.89,12.594
				c3.84,0,7.062,0.059,10.278-0.02c2.204-0.059,3.846-0.23,3.799,3.064c-0.054,3.092-1.546,2.904-3.623,2.877
				c-5.025-0.078-10.054,0.057-15.072-0.082c-1.413-0.037-3.63,1.115-4.127-0.836c-0.503-1.971-0.695-4.258,1.146-6.178
				c3.307-3.439,6.39-7.096,9.564-10.664C510.697,441.02,511.335,440.283,512.595,438.844z"/>
			<path fill-rule="evenodd" clip-rule="evenodd" fill="#1BBB9A" d="M382.791,446.916c-0.009,1.248,0.183,3.074,1.111,4.723
				c1.933,3.453,6.585,3.824,8.309,0.314c1.808-3.678,4.658-1.719,6.992-1.895c1.349-0.098,0.508,1.484,0.236,2.303
				c-1.662,5.016-6.618,8.141-12.387,7.852c-5.304-0.266-9.423-3.678-10.701-8.986c-0.812-3.371-0.931-6.764-0.07-10.184
				c1.27-5.059,4.401-7.969,9.631-8.748c5.429-0.816,10.652,1.441,12.91,5.699c0.698,1.318,2.075,3.52,0.624,4.141
				c-1.872,0.795-5.108,1.471-6.403-0.525c-1.82-2.799-3.681-4.191-6.86-3.148C383.718,439.279,382.685,441.898,382.791,446.916z"/>
			<path fill-rule="evenodd" clip-rule="evenodd" fill="#1BBB9A" d="M573.735,450.004c-0.76,5.961-5.088,9.873-11.161,10.199
				c-6.053,0.318-10.806-3.068-12.258-8.877c-0.87-3.492-0.954-7.014-0.038-10.543c1.295-4.955,4.61-7.857,9.848-8.516
				c5.531-0.689,10.667,1.613,12.788,5.943c0.621,1.264,2.042,3.455,0.256,4.014c-1.886,0.592-4.958,1.494-6.338-0.816
				c-1.576-2.633-3.462-3.885-6.262-3.096c-3.094,0.871-3.712,3.58-3.813,6.42c-0.083,2.338-0.103,4.678,1.038,6.814
				c1.662,3.1,5.981,4.125,7.549,1.297C567.564,448.826,570.634,450.055,573.735,450.004z"/>
			<path fill-rule="evenodd" clip-rule="evenodd" fill="#1BBB9A" d="M239.426,441.793c0,5.141-0.156,10.295,0.056,15.424
				c0.141,3.426-2.211,2.107-3.708,2.211c-1.52,0.113-3.369,0.799-3.321-2.211c0.168-10.533,0.166-21.064,0.006-31.592
				c-0.053-3.385,2.191-2.119,3.693-2.217c1.527-0.096,3.453-0.785,3.334,2.221C239.272,431.012,239.426,436.404,239.426,441.793z"
				/>
			<path fill-rule="evenodd" clip-rule="evenodd" fill="#1BBB9A" d="M479.436,441.09c0-5.139,0.168-10.295-0.065-15.424
				c-0.136-2.977,1.729-2.395,3.289-2.258c1.491,0.135,3.78-1.227,3.736,2.182c-0.145,10.529-0.159,21.064,0.015,31.588
				c0.048,2.982-1.75,2.385-3.305,2.258c-1.482-0.127-3.846,1.232-3.718-2.184C479.578,451.869,479.436,446.477,479.436,441.09z"/>
			<path fill-rule="evenodd" clip-rule="evenodd" fill="#1BBB9A" d="M496.967,446.539c0,3.566-0.139,7.133,0.039,10.688
				c0.168,3.395-2.253,2.145-3.774,2.201c-1.443,0.055-3.506,0.982-3.429-2.123c0.162-7.367,0.172-14.74-0.01-22.104
				c-0.076-3.029,1.854-2.338,3.363-2.203c1.481,0.129,3.97-1.307,3.846,2.127C496.855,438.926,496.967,442.74,496.967,446.539z"/>
			<path fill-rule="evenodd" clip-rule="evenodd" fill="#1BBB9A" d="M583.204,446.043c0,3.559-0.245,7.145,0.071,10.676
				c0.3,3.338-1.767,2.729-3.67,2.779c-1.992,0.047-3.72,0.406-3.602-2.803c0.271-7.111,0.236-14.248,0.015-21.363
				c-0.097-3.291,2.01-2.34,3.614-2.359c1.644-0.014,3.836-0.863,3.622,2.389C583.026,438.912,583.204,442.484,583.204,446.043z"/>
			<path fill-rule="evenodd" clip-rule="evenodd" fill="#1BBB9A" d="M596.76,429.205c-1.184,0.32-1.35-0.676-1.845-1.344
				c-0.739-0.98-0.324-1.535,0.535-2.039c2.531-1.482,4.996-3.1,7.615-4.404c1.759-0.863,3.187-0.287,4.106,1.689
				c1.127,2.412-1.103,2.029-1.995,2.465C602.433,426.906,599.576,428.014,596.76,429.205z"/>
			<path fill-rule="evenodd" clip-rule="evenodd" fill="#1BBB9A" d="M493.926,423.385c2.823-0.73,2.94,0.904,3.162,3.365
				c0.336,3.836-2.004,3.031-4.229,3.326c-3.288,0.434-2.8-1.539-3.095-3.645C489.246,422.693,491.604,423.314,493.926,423.385z"/>
			<path fill-rule="evenodd" clip-rule="evenodd" fill="#1BBB9A" d="M579.488,429.932c-3.1,0.816-3.363-0.82-3.519-3.453
				c-0.187-3.1,1.212-3.178,3.586-3.195c2.546-0.023,3.813,0.25,3.796,3.418C583.334,429.883,582.146,430.48,579.488,429.932z"/>
		</g>
		<path fill-rule="evenodd" clip-rule="evenodd" fill="#FAFAFA" d="M192.977,446.123c-3.193,0-5.981,0-9.005,0
			c1.455-4.506,2.86-8.867,4.558-14.141C190.152,437.139,191.491,441.398,192.977,446.123z"/>
		<path fill-rule="evenodd" clip-rule="evenodd" fill="#FDFDFD" d="M287.814,444.76c0.058-1.873,0.297-4.727,3.368-6.109
			c2.287-1.023,4.564-0.855,6.417,1.018c2.344,2.359,2.717,8.533,0.802,11.742c-1.321,2.223-3.249,3.299-5.822,2.803
			C289.525,453.627,287.732,450.367,287.814,444.76z"/>
		<path fill-rule="evenodd" clip-rule="evenodd" fill="#FAFAFA" d="M327.161,444.008c-3.029,0-5.929-0.076-8.828,0.025
			c-1.975,0.066-1.921-0.826-1.334-2.209c1.053-2.484,2.773-4.074,5.597-3.65C325.705,438.635,327.085,440.695,327.161,444.008z"/>
		<path fill-rule="evenodd" clip-rule="evenodd" fill="#F9F9F9" d="M258.027,446.742c0.1,5.346-2.03,8.174-5.92,8.313
			c-1.713,0.064-3.22-0.32-3.593-2.268c-0.328-1.725,0.209-3.242,1.959-3.846C252.865,448.119,255.33,447.516,258.027,446.742z"/>
		<path fill-rule="evenodd" clip-rule="evenodd" fill="#F9F9F9" d="M365.666,446.738c0.046,5.4-2.105,8.211-5.998,8.324
			c-1.722,0.049-3.206-0.373-3.553-2.324c-0.307-1.732,0.262-3.227,2.014-3.822C360.523,448.105,362.987,447.502,365.666,446.738z"
			/>
		<path fill-rule="evenodd" clip-rule="evenodd" fill="#F9F9F9" d="M469.564,446.742c0.103,5.346-2.024,8.174-5.92,8.313
			c-1.715,0.064-3.216-0.32-3.593-2.268c-0.329-1.725,0.212-3.242,1.962-3.846C464.404,448.119,466.869,447.516,469.564,446.742z"/>
		<path fill-rule="evenodd" clip-rule="evenodd" fill="#F9F9F9" d="M540.269,446.828c0.241,5.002-1.633,7.789-5.392,8.186
			c-1.788,0.193-3.527,0.012-4.043-2.119c-0.508-2.113,0.525-3.609,2.475-4.258C535.48,447.918,537.746,447.475,540.269,446.828z"/>
		<path fill-rule="evenodd" clip-rule="evenodd" fill="#FDFDFD" d="M605.552,446.295c0.103,2.115-0.071,4.176-1.482,5.916
			c-2.705,3.344-8.251,2.756-10.202-1.07c-1.186-2.313-1.052-4.795-0.794-7.219c0.406-3.813,2.721-5.836,6.3-5.816
			c3.489,0.02,5.77,2.211,6.164,5.986C605.618,444.814,605.552,445.559,605.552,446.295z"/>
	</g>
</g>
</svg>
