<?xml version="1.0" encoding="utf-8"?>
<!-- Generator: Adobe Illustrator 24.0.1, SVG Export Plug-In . SVG Version: 6.00 Build 0)  -->
<svg version="1.1" id="Capa_1" xmlns="http://www.w3.org/2000/svg" xmlns:xlink="http://www.w3.org/1999/xlink" x="0px" y="0px"
	 viewBox="0 0 512 512" style="enable-background:new 0 0 512 512;" xml:space="preserve">
<style type="text/css">
	.st0{fill:#CEC3FC;fill-opacity:0.65;}
	.st1{opacity:0.11;fill:#2626BC;enable-background:new    ;}
	.st2{fill:#1BBB9A;}
	.st3{fill:#169F85;}
	.st4{fill:#CEC3FC;}
	.st5{fill:#E1D7FF;}
	.st6{fill:#9A58B4;}
	.st7{fill:#6C02AA;}
	.st8{fill:none;}
	.st9{fill:#FFFFFF;}
</style>
<path class="st0" d="M342.4,0.4C246.5,9.1,237.3,192.9,196,287c-20.5,46.7-68.8,94.8-60.3,149.8c9.6,62,72.9,80.1,121.7,74.1
	c120.7-14.7,172.9-141.1,180.8-260.8C443,176.3,458.5-10.1,342.4,0.4L342.4,0.4z"/>
<path class="st1" d="M414.6,132h-36.9v-11.7c0-5.5-4.5-10-10-10h-11.8c-5.5,0-10,4.5-10,10V132h-46.3v-11.7c0-5.5-4.5-10-10-10
	h-11.8c-5.5,0-10,4.5-10,10V132h-46.3v-11.7c0-5.5-4.5-10-10-10h-11.8c-5.5,0-10,4.5-10,10V132h-46.3v-11.7c0-5.5-4.5-10-10-10
	h-11.8c-5.5,0-10,4.5-10,10V132H74.4c-11,0-20,9-20,20v265.7c0,11,9,20,20,20h340.1c11,0,20-9,20-20V152
	C434.6,141,425.6,132,414.6,132L414.6,132z"/>
<path class="st2" d="M432.6,419.7H92.4c-11,0-20-9-20-20V134c0-11,9-20,20-20h340.1c11,0,20,9,20,20v265.7
	C452.6,410.8,443.6,419.7,432.6,419.7z"/>
<path class="st3" d="M452.6,179v-45c0-11-9-20-20-20H92.4c-11,0-20,9-20,20v45H452.6z"/>
<path class="st2" d="M129.4,122.4v24.1c0,5.5,4.5,10,10,10h11.8c5.5,0,10-4.5,10-10v-24.1H129.4z"/>
<path class="st2" d="M207.5,122.4v24.1c0,5.5,4.5,10,10,10h11.8c5.5,0,10-4.5,10-10v-24.1H207.5z"/>
<path class="st2" d="M285.6,122.4v24.1c0,5.5,4.5,10,10,10h11.8c5.5,0,10-4.5,10-10v-24.1H285.6z"/>
<path class="st2" d="M363.8,122.4v24.1c0,5.5,4.5,10,10,10h11.8c5.5,0,10-4.5,10-10v-24.1H363.8z"/>
<path class="st2" d="M452.6,134v45H435v-45c0-11-9-20-20-20h17.5C443.6,114,452.6,123,452.6,134z"/>
<path class="st4" d="M151.2,143.4h-11.8c-5.5,0-10-4.5-10-10v-31.2c0-5.5,4.5-10,10-10h11.8c5.5,0,10,4.5,10,10v31.2
	C161.2,139,156.7,143.4,151.2,143.4z"/>
<path class="st5" d="M161.2,102.3v31.2c0,5.5-4.5,10-10,10h-11.8c-0.3,0-0.7,0-1-0.1c5-0.5,9-4.8,9-9.9v-31.2c0-5.2-3.9-9.4-9-9.9
	c0.3,0,0.7-0.1,1-0.1h11.8C156.7,92.3,161.2,96.8,161.2,102.3z"/>
<path class="st4" d="M229.4,143.4h-11.8c-5.5,0-10-4.5-10-10v-31.2c0-5.5,4.5-10,10-10h11.8c5.5,0,10,4.5,10,10v31.2
	C239.4,139,234.9,143.4,229.4,143.4z"/>
<path class="st5" d="M239.3,102.3v31.2c0,5.5-4.5,10-10,10h-11.8c-0.3,0-0.7,0-1-0.1c5-0.5,9-4.8,9-9.9v-31.2c0-5.2-3.9-9.4-9-9.9
	c0.3,0,0.7-0.1,1-0.1h11.8C234.9,92.3,239.3,96.8,239.3,102.3z"/>
<path class="st4" d="M307.5,143.4h-11.8c-5.5,0-10-4.5-10-10v-31.2c0-5.5,4.5-10,10-10h11.8c5.5,0,10,4.5,10,10v31.2
	C317.5,139,313,143.4,307.5,143.4z"/>
<path class="st5" d="M317.5,102.3v31.2c0,5.5-4.5,10-10,10h-11.8c-0.3,0-0.7,0-1-0.1c5-0.5,9-4.8,9-9.9v-31.2c0-5.2-3.9-9.4-9-9.9
	c0.3,0,0.7-0.1,1-0.1h11.8C313,92.3,317.5,96.8,317.5,102.3z"/>
<path class="st4" d="M385.6,143.4h-11.8c-5.5,0-10-4.5-10-10v-31.2c0-5.5,4.5-10,10-10h11.8c5.5,0,10,4.5,10,10v31.2
	C395.6,139,391.1,143.4,385.6,143.4z"/>
<path class="st5" d="M395.6,102.3v31.2c0,5.5-4.5,10-10,10h-11.8c-0.3,0-0.7,0-1-0.1c5-0.5,9-4.8,9-9.9v-31.2c0-5.2-3.9-9.4-9-9.9
	c0.3,0,0.7-0.1,1-0.1h11.8C391.1,92.3,395.6,96.8,395.6,102.3z"/>
<path class="st2" d="M379.7,495.4c-3.7,0-7.5-1.4-10.3-4.3c-5.7-5.7-5.7-15,0-20.7s15-5.7,20.7,0s5.7,15,0,20.6
	C387.2,493.9,383.4,495.4,379.7,495.4L379.7,495.4z M379.7,476.2c-1.2,0-2.4,0.4-3.3,1.3c-1.8,1.8-1.8,4.7,0,6.5s4.7,1.8,6.5,0
	s1.8-4.7,0-6.5C382.1,476.6,380.9,476.2,379.7,476.2L379.7,476.2z"/>
<path class="st2" d="M209.4,71c-3.9,0-7.6-1.5-10.3-4.3c-5.7-5.7-5.7-15,0-20.7s15-5.7,20.7,0s5.7,15,0,20.7
	C217,69.5,213.3,71,209.4,71z M209.4,51.8c-1.2,0-2.4,0.4-3.3,1.3c-1.8,1.8-1.8,4.7,0,6.5c0.9,0.9,2,1.3,3.3,1.3s2.4-0.5,3.3-1.3
	c1.8-1.8,1.8-4.7,0-6.5C211.8,52.2,210.6,51.8,209.4,51.8z"/>
<path class="st6" d="M258.7,27.5h-3.2v-3.2c0-2.8-2.2-5-5-5s-5,2.2-5,5v3.2h-3.2c-2.8,0-5,2.2-5,5s2.2,5,5,5h3.2v3.2
	c0,2.8,2.2,5,5,5s5-2.2,5-5v-3.2h3.2c2.8,0,5-2.2,5-5S261.5,27.5,258.7,27.5z"/>
<path class="st6" d="M341.7,444.8h-3.2v-3.2c0-2.8-2.2-5-5-5s-5,2.2-5,5v3.2h-3.2c-2.8,0-5,2.2-5,5s2.2,5,5,5h3.2v3.2
	c0,2.8,2.2,5,5,5s5-2.2,5-5v-3.2h3.2c2.8,0,5-2.2,5-5S344.5,444.8,341.7,444.8z"/>
<path class="st6" d="M122.9,444.8h-3.2v-3.2c0-2.8-2.2-5-5-5s-5,2.2-5,5v3.2h-3.2c-2.8,0-5,2.2-5,5s2.2,5,5,5h3.2v3.2
	c0,2.8,2.2,5,5,5s5-2.2,5-5v-3.2h3.2c2.8,0,5-2.2,5-5S125.6,444.8,122.9,444.8z"/>
<path class="st7" d="M432.6,109h-31.9v-6.7c0-8.3-6.7-15-15-15h-11.8c-8.3,0-15,6.7-15,15v6.7h-36.3v-6.7c0-8.3-6.7-15-15-15h-11.8
	c-8.3,0-15,6.7-15,15v6.7h-36.3v-6.7c0-8.3-6.7-15-15-15h-11.8c-8.3,0-15,6.7-15,15v6.7h-36.3v-6.7c0-8.3-6.7-15-15-15h-11.8
	c-8.3,0-15,6.7-15,15v6.7H92.4c-13.8,0-25,11.2-25,25v265.7c0,13.8,11.2,25,25,25h68.3c2.8,0,5-2.2,5-5s-2.2-5-5-5H92.4
	c-8.3,0-15-6.7-15-15V184h370.1v134.9c0,2.8,2.2,5,5,5s5-2.2,5-5V134C457.6,120.2,446.3,109,432.6,109L432.6,109z M368.8,102.3
	c0-2.8,2.2-5,5-5h11.8c2.8,0,5,2.2,5,5v31.2c0,2.8-2.2,5-5,5h-11.8c-2.8,0-5-2.2-5-5V102.3z M290.6,102.3c0-2.8,2.2-5,5-5h11.8
	c2.8,0,5,2.2,5,5v31.2c0,2.8-2.2,5-5,5h-11.8c-2.8,0-5-2.2-5-5V102.3z M212.5,102.3c0-2.8,2.2-5,5-5h11.8c2.8,0,5,2.2,5,5v31.2
	c0,2.8-2.2,5-5,5h-11.8c-2.8,0-5-2.2-5-5V102.3z M134.4,102.3c0-2.8,2.2-5,5-5h11.8c2.8,0,5,2.2,5,5v31.2c0,2.8-2.2,5-5,5h-11.8
	c-2.8,0-5-2.2-5-5V102.3z M77.4,174v-40c0-8.3,6.7-15,15-15h31.9v14.4c0,8.3,6.7,15,15,15h11.8c8.3,0,15-6.7,15-15V119h36.3v14.4
	c0,8.3,6.7,15,15,15h11.8c8.3,0,15-6.7,15-15V119h36.3v14.4c0,8.3,6.7,15,15,15h11.8c8.3,0,15-6.7,15-15V119h36.3v14.4
	c0,8.3,6.7,15,15,15h11.8c8.3,0,15-6.7,15-15V119h31.9c8.3,0,15,6.7,15,15v40H77.4z"/>
<path class="st7" d="M452.6,342c-2.8,0-5,2.2-5,5v52.7c0,8.3-6.7,15-15,15H188.9c-2.8,0-5,2.2-5,5s2.2,5,5,5h243.7
	c13.8,0,25-11.2,25-25V347C457.6,344.3,455.3,342,452.6,342z"/>
<rect x="74.4" y="206.4" class="st8" width="378.2" height="117.1"/>
<rect x="-109.5" y="-304" class="st8" width="1652.6" height="140.2"/>
<rect x="73.9" y="337.6" class="st8" width="375.2" height="52.6"/>
<g>
	<path class="st9" d="M177.2,260.5c4,0,7.3-0.4,9.9-1.1c2.5-0.7,4.5-1.7,5.9-2.9c1.4-1.2,2.4-2.6,2.9-4.2c0.5-1.6,0.8-3.2,0.8-5
		c0-4.8-1-8.5-3-11c-2-2.5-5.1-3.8-9.4-3.8c-3.7,0-6.7,1.4-9.1,4.1c-2.4,2.7-3.6,6.6-3.6,11.6h-17.5c0-4.6,0.7-8.8,2.2-12.5
		c1.5-3.7,3.6-7,6.3-9.7c2.7-2.7,6-4.8,9.8-6.3c3.8-1.5,8-2.2,12.5-2.2c4.1,0,8,0.6,11.6,1.9c3.6,1.3,6.8,3,9.4,5.3
		c2.7,2.3,4.8,5.1,6.3,8.3c1.5,3.2,2.3,6.8,2.3,10.6c0,4.3-0.9,8.4-2.8,12.3c-1.9,3.9-4.7,6.9-8.4,9.2c4.6,1.9,8.1,4.8,10.6,8.7
		c2.5,3.9,3.7,8.9,3.7,14.9c0,4.8-0.8,9.1-2.5,13c-1.6,3.8-3.9,7.1-6.9,9.7c-3,2.6-6.5,4.7-10.7,6.1c-4.1,1.4-8.7,2.2-13.7,2.2
		c-10,0-17.7-2.8-23.2-8.4s-8.2-13.3-8.2-23.1h18c0,5.6,1.2,9.6,3.6,12.2c2.4,2.5,6,3.8,10.7,3.8c3.9,0,7.2-1.4,9.8-4.1
		c2.6-2.7,3.9-6.7,3.9-11.8c0-5.6-1.6-9.5-4.8-11.7c-3.2-2.2-8.7-3.3-16.5-3.3V260.5z"/>
	<path class="st9" d="M274.9,316.6c-0.4-1.2-0.6-2.5-0.7-4.1c-1.4,1.6-3.3,2.9-5.7,3.9c-2.4,1-5.1,1.4-8.2,1.4
		c-5.3,0-9.1-1.2-11.6-3.5c-2.5-2.3-3.7-5.3-3.7-9.1c0-3.3,0.5-5.9,1.6-7.9c1.1-2,2.5-3.5,4.4-4.6c1.9-1.1,4.1-1.9,6.6-2.5
		c2.6-0.5,5.4-1,8.4-1.4c3-0.4,5.1-1,6.1-1.7c1.1-0.7,1.6-1.9,1.6-3.5c0-1.5-0.7-2.7-2.1-3.5s-3.3-1.3-5.6-1.3c-2.8,0-4.8,0.6-6,1.9
		s-2,2.9-2.3,4.9h-11.3c0.1-2.4,0.4-4.5,1.2-6.5c0.7-2,1.9-3.7,3.4-5.1c1.6-1.4,3.6-2.5,6.2-3.3c2.5-0.8,5.6-1.2,9.3-1.2
		c3.6,0,6.6,0.4,9.2,1.2c2.5,0.8,4.5,2,6,3.5c1.5,1.5,2.6,3.4,3.3,5.7c0.7,2.3,1,4.8,1,7.7v28.9H274.9z M274,294.2
		c-0.6,0.6-1.5,1.1-2.7,1.5c-1.2,0.4-2.9,0.8-5.1,1.2c-3.5,0.7-5.9,1.6-7.2,2.6c-1.3,1.1-2,2.6-2,4.6c0,3.4,2,5.1,5.9,5.1
		c1.5,0,3-0.3,4.3-0.8c1.3-0.5,2.5-1.2,3.4-2.1c1-0.9,1.7-2,2.3-3.2c0.6-1.2,0.9-2.5,0.9-3.9L274,294.2z"/>
	<path class="st9" d="M335.6,296c0.5,6,3.8,8.9,10.1,8.9c5.2,0,9.1-2.5,11.6-7.4c2.5-5,4.1-12.6,4.7-22.9c-2.2,2.6-4.8,4.7-7.9,6.4
		c-3,1.7-6.9,2.5-11.8,2.5c-3.7,0-7.3-0.7-10.6-2.2c-3.3-1.4-6.2-3.5-8.7-6.3c-2.5-2.7-4.4-6.1-5.8-10c-1.4-3.9-2.1-8.3-2.1-13.3
		c0-4.9,0.8-9.4,2.3-13.6c1.5-4.2,3.7-7.8,6.4-10.8s6.1-5.4,10-7.1c3.9-1.7,8.2-2.6,12.9-2.6c11.3,0,19.8,4,25.3,12.1
		c5.5,8.1,8.3,20,8.3,35.9c0,9.6-0.7,17.8-2.2,24.7c-1.5,6.8-3.7,12.4-6.6,16.8c-2.9,4.4-6.6,7.6-11.1,9.7
		c-4.5,2.1-9.7,3.1-15.6,3.1c-7.8,0-14.1-2-19-6.1c-4.9-4.1-7.8-10-8.9-17.8H335.6z M347.4,268.9c4.2,0,7.7-1.6,10.3-4.8
		c2.6-3.2,4-7.5,4-12.8c0-5.5-1.3-9.9-3.8-13.3c-2.5-3.4-6.1-5.1-10.7-5.1c-2.2,0-4.1,0.5-5.8,1.4c-1.6,0.9-3,2.2-4.2,3.8
		c-1.2,1.6-2,3.6-2.6,5.8c-0.6,2.2-0.9,4.6-0.9,7.2c0,5.5,1.2,9.8,3.8,13.1C340,267.3,343.3,268.9,347.4,268.9z"/>
</g>
<g>
	<path class="st9" d="M212.8,385.1v-29.5l-8,29.5h-9l-8-29.4v29.4h-8.4V342h13.2l7.8,31.6l7.8-31.6h13v43.1H212.8z"/>
	<path class="st9" d="M234.1,371.3c0.1,2.4,0.8,4.3,2.1,5.8c1.3,1.4,3,2.1,5,2.1c1.4,0,2.6-0.3,3.7-0.9c1.1-0.6,1.7-1.5,2-2.6h8.7
		c-1,3.3-2.7,5.8-5.2,7.6c-2.5,1.8-5.4,2.7-8.8,2.7c-10.6,0-16-5.8-16-17.4c0-2.5,0.3-4.7,1-6.7c0.7-2,1.7-3.7,3-5.1
		c1.3-1.4,2.9-2.5,4.8-3.3c1.9-0.8,4.1-1.1,6.6-1.1c4.9,0,8.7,1.6,11.2,4.7s3.8,7.9,3.8,14.3H234.1z M247.4,366
		c0-1.2-0.2-2.2-0.6-3.1c-0.4-0.9-0.9-1.6-1.5-2.2c-0.6-0.6-1.3-1-2.1-1.3c-0.8-0.3-1.6-0.4-2.4-0.4c-1.7,0-3.1,0.6-4.4,1.8
		c-1.2,1.2-1.9,3-2.1,5.2H247.4z"/>
	<path class="st9" d="M279.8,362.8c-0.2-1.6-0.8-2.6-1.7-3.3c-0.9-0.6-2.3-0.9-4.3-0.9c-1.6,0-2.8,0.2-3.7,0.6
		c-0.9,0.4-1.3,1.1-1.3,2c0,1,0.4,1.7,1.3,2.2c0.9,0.5,2.2,1,3.9,1.5c1.8,0.5,3.5,1,5.2,1.4c1.6,0.4,3.1,0.9,4.3,1.3
		c1.7,0.7,3,1.6,3.9,2.8c0.9,1.2,1.4,2.8,1.4,4.9c0,3.3-1.2,5.9-3.5,7.8c-2.4,1.9-5.8,2.8-10.4,2.8c-4.9,0-8.7-1-11.3-3.1
		c-2.6-2.1-4-4.7-4.1-8h8.7c0,1.5,0.6,2.7,1.8,3.5c1.2,0.8,2.8,1.2,4.9,1.2c1.5,0,2.8-0.2,4-0.7c1.1-0.5,1.7-1.4,1.7-2.6
		c0-1.1-0.5-1.9-1.5-2.4c-1-0.5-2.2-0.9-3.6-1.2c-2.7-0.6-4.8-1.2-6.5-1.8c-1.6-0.5-3-1.1-4.2-1.9c-1.5-1-2.6-2-3.1-3.2
		c-0.6-1.2-0.9-2.5-0.9-4c0-1.3,0.2-2.6,0.7-3.8c0.5-1.2,1.3-2.2,2.3-3c1.1-0.8,2.5-1.5,4.2-2c1.7-0.5,3.8-0.7,6.2-0.7
		c4.6,0,8,0.9,10.2,2.7c2.2,1.8,3.4,4.4,3.6,7.9H279.8z"/>
	<path class="st9" d="M300.6,371.3c0.1,2.4,0.8,4.3,2.1,5.8c1.3,1.4,3,2.1,5,2.1c1.4,0,2.6-0.3,3.7-0.9c1.1-0.6,1.7-1.5,2-2.6h8.7
		c-1,3.3-2.7,5.8-5.2,7.6c-2.5,1.8-5.4,2.7-8.8,2.7c-10.6,0-16-5.8-16-17.4c0-2.5,0.3-4.7,1-6.7c0.7-2,1.7-3.7,3-5.1
		c1.3-1.4,2.9-2.5,4.8-3.3c1.9-0.8,4.1-1.1,6.6-1.1c4.9,0,8.7,1.6,11.2,4.7s3.8,7.9,3.8,14.3H300.6z M313.9,366
		c0-1.2-0.2-2.2-0.6-3.1c-0.4-0.9-0.9-1.6-1.5-2.2c-0.6-0.6-1.3-1-2.1-1.3c-0.8-0.3-1.6-0.4-2.4-0.4c-1.7,0-3.1,0.6-4.4,1.8
		c-1.2,1.2-1.9,3-2.1,5.2H313.9z"/>
	<path class="st9" d="M346.3,362.8c-0.2-1.6-0.8-2.6-1.7-3.3c-0.9-0.6-2.3-0.9-4.3-0.9c-1.6,0-2.8,0.2-3.7,0.6
		c-0.9,0.4-1.3,1.1-1.3,2c0,1,0.4,1.7,1.3,2.2c0.9,0.5,2.2,1,3.9,1.5c1.8,0.5,3.5,1,5.2,1.4c1.6,0.4,3.1,0.9,4.3,1.3
		c1.7,0.7,3,1.6,3.9,2.8c0.9,1.2,1.4,2.8,1.4,4.9c0,3.3-1.2,5.9-3.5,7.8c-2.4,1.9-5.8,2.8-10.4,2.8c-4.9,0-8.7-1-11.3-3.1
		c-2.6-2.1-4-4.7-4.1-8h8.7c0,1.5,0.6,2.7,1.8,3.5c1.2,0.8,2.8,1.2,4.9,1.2c1.5,0,2.8-0.2,4-0.7c1.1-0.5,1.7-1.4,1.7-2.6
		c0-1.1-0.5-1.9-1.5-2.4c-1-0.5-2.2-0.9-3.6-1.2c-2.7-0.6-4.8-1.2-6.5-1.8c-1.6-0.5-3-1.1-4.2-1.9c-1.5-1-2.6-2-3.1-3.2
		c-0.6-1.2-0.9-2.5-0.9-4c0-1.3,0.2-2.6,0.7-3.8c0.5-1.2,1.3-2.2,2.3-3c1.1-0.8,2.5-1.5,4.2-2c1.7-0.5,3.8-0.7,6.2-0.7
		c4.6,0,8,0.9,10.2,2.7c2.2,1.8,3.4,4.4,3.6,7.9H346.3z"/>
</g>
</svg>
