<svg xmlns="http://www.w3.org/2000/svg" viewBox="0 0 438.86 498.56"><defs><style>.cls-1{fill:#8e44ac;}.cls-2{fill:#5c3289;}.cls-3{fill:#77c587;}.cls-4,.cls-5{fill:#fff;}.cls-5{stroke:#fff;stroke-miterlimit:10;}</style></defs><title>ayuda</title><g id="Capa_2" data-name="Capa 2"><g id="Capa_1-2" data-name="Capa 1"><path class="cls-1" d="M424.23,220.89c0,112.64-92.16,204.8-204.8,204.8-16.09,0-30.72-1.46-45.35-5.85L79,484.21,93.62,383.27c-48.27-38-79-96.55-79-162.38,0-112.64,92.16-204.8,204.8-204.8S424.23,108.25,424.23,220.89Z"/><path class="cls-2" d="M419.84,179.93a203.46,203.46,0,0,0-136-51.2C171.15,128.73,79,220.89,79,333.53a185.35,185.35,0,0,0,4.39,41c-42.42-38-68.75-92.16-68.75-152.14,0-112.64,92.16-204.8,204.8-204.8C318.9,16.09,400.82,86.31,419.84,179.93Z"/><path class="cls-3" d="M93.62,383.27l-2.92,19a194,194,0,0,1-7.32-27.8A63.32,63.32,0,0,1,93.62,383.27Z"/><path class="cls-4" d="M71.68,495.91c-4.39-2.93-7.31-8.78-7.31-14.63L79,387.66C29.26,345.23,0,285.26,0,219.43A219.43,219.43,0,1,1,219.43,438.86,199,199,0,0,1,177,434.47l-89.23,60C81.92,498.83,76.07,500.3,71.68,495.91ZM219.43,30.72a190.7,190.7,0,0,0-117,340.85c4.39,2.92,5.85,8.77,5.85,13.16L98,453.49l67.29-45.35c2.93-2.93,7.32-2.93,11.7-1.47a208.65,208.65,0,0,0,42.43,4.39,190.17,190.17,0,0,0,0-380.34Z"/><path class="cls-4" d="M219.43,299.89c-8.78,0-14.63-5.86-14.63-14.63V237c0-8.77,5.85-14.63,14.63-14.63a36.57,36.57,0,1,0-36.57-36.57c0,8.78-5.85,14.63-14.63,14.63s-14.63-5.85-14.63-14.63a65.83,65.83,0,1,1,131.66,0c0,30.72-21.95,57.05-51.2,64.37v35.11A14.67,14.67,0,0,1,219.43,299.89Z"/><path class="cls-5" d="M209.19,337.92c-5.85-5.85-5.85-16.09,0-20.48a14.48,14.48,0,1,1,20.48,20.48C223.82,345.23,215,343.77,209.19,337.92Z"/></g></g></svg>