<?xml version="1.0" encoding="utf-8"?>
<!-- Generator: Adobe Illustrator 24.0.1, SVG Export Plug-In . SVG Version: 6.00 Build 0)  -->
<svg version="1.1" id="Capa_1" xmlns="http://www.w3.org/2000/svg" xmlns:xlink="http://www.w3.org/1999/xlink" x="0px" y="0px"
	 viewBox="0 0 1920 1920" style="enable-background:new 0 0 1920 1920;" xml:space="preserve">
<style type="text/css">
	.st0{opacity:0.21;fill:#CEC3FC;enable-background:new    ;}
	.st1{opacity:0.31;fill:#CEC3FC;enable-background:new    ;}
</style>
<g>
	<path class="st0" d="M1924.8-0.1l-474.6,0.8c-78.4,40.4-148.5,95.2-202.7,162.9c-53.3,66.5-93.1,143.3-123,222.9
		c-35,93-58.9,191.9-113.9,274.7c-38.9,58.6-93.4,107.7-157.8,136.2c-107.5,47.6-229.3,35.7-340,71.4
		c-97.5,31.4-138.7,168.3-239.1,190.3C41.7,1110,2.5,1300.1,0,1416.6c-1.2,53.6,6.8,498.9,5.9,500.6l1919,2.1L1924.8-0.1z"/>
</g>
<g>
	<path class="st1" d="M1924.8-0.1l-502,0.1c-104,41.4-198.1,106.5-266.7,192.2c-53.3,66.5-113.1,203.3-143,282.9
		c-35,93-58.9,191.9-113.9,274.7c-38.9,58.6-93.4,107.7-157.8,136.2c-107.5,47.6-229.3,35.7-340,71.4
		C330.1,980.3,58.9,1124,7.9,1393.2c-0.1,0.7-2.9,526-3,526.7l1919.6-0.3L1924.8-0.1z"/>
</g>
</svg>
