<svg id="Capa_1" data-name="Capa 1" xmlns="http://www.w3.org/2000/svg" viewBox="0 0 606.81 796.3"><defs><style>.cls-1{fill:#8e44ac;}.cls-2{fill:#5c3289;}.cls-3{font-size:580px;fill:#fff;font-family:Chalkboard;}</style></defs><title>mas</title><path class="cls-1" d="M256,0C114.84,0,0,114.84,0,256S114.84,512,256,512,512,397.16,512,256,397.16,0,256,0ZM368,277.33H277.33V368a21.33,21.33,0,1,1-42.66,0V277.33H144a21.33,21.33,0,0,1,0-42.66h90.67V144a21.33,21.33,0,1,1,42.66,0v90.67H368a21.33,21.33,0,0,1,0,42.66Z" transform="translate(1 100.82)"/><rect class="cls-1" x="97.44" y="184.82" width="311.33" height="352"/><path class="cls-2" d="M505.22,202.89a254.2,254.2,0,0,0-169.91-64c-140.78,0-255.9,115.14-255.9,255.86A231,231,0,0,0,84.89,446C31.89,398.53-1,330.86-1,255.93-1,115.21,114.14.07,254.86.07,379.11-1.8,481.46,85.93,505.22,202.89Z" transform="translate(1 100.82)"/><text class="cls-3" transform="translate(94.44 489.95)">+</text></svg>