<svg xmlns="http://www.w3.org/2000/svg" viewBox="0 0 596.87 406.83"><defs><style>.cls-1{fill:#159e84;}.cls-2,.cls-31{fill:#32b196;}.cls-3,.cls-30{fill:#fff;}.cls-4{fill:#cfe1e9;}.cls-5{fill:#5c3289;}.cls-6{fill:#472680;}.cls-32,.cls-7{fill:#e8514e;}.cls-33,.cls-8{fill:#8f599f;}.cls-23,.cls-9{fill:#dfd5eb;}.cls-9{opacity:0.34;}.cls-14,.cls-16,.cls-22,.cls-38,.cls-9{isolation:isolate;}.cls-10,.cls-11,.cls-12{fill:none;stroke-linecap:round;}.cls-10,.cls-11{stroke:#a092c6;stroke-miterlimit:10;stroke-width:2.58px;}.cls-11{stroke-dasharray:10.14 10.14;}.cls-12{stroke:#32b196;stroke-linejoin:round;stroke-width:11.65px;}.cls-13,.cls-14{fill:#5f2811;}.cls-14{opacity:0.43;}.cls-15{fill:#eda3a3;}.cls-16{fill:#f0817a;opacity:0.47;}.cls-17{fill:#48b9b6;}.cls-18{fill:#65270f;}.cls-19{fill:#863b15;}.cls-20{fill:#bf2685;}.cls-21,.cls-22{fill:#412b7f;}.cls-22{opacity:0.36;}.cls-24{fill:#241f47;}.cls-25{fill:#60bca6;}.cls-26{fill:#b79fcc;}.cls-27{fill:#eee9f5;}.cls-28{fill:#dac9e4;}.cls-29,.cls-37{fill:#a092c6;}.cls-29,.cls-30,.cls-31,.cls-32,.cls-33,.cls-34{fill-rule:evenodd;}.cls-34{fill:#f5ed80;}.cls-35{fill:#6158a1;}.cls-36{fill:#88cbca;}.cls-38{fill:#cac9e6;opacity:0.5;}</style></defs><title>portada</title><g id="Capa_2" data-name="Capa 2"><g id="Capa_1-2" data-name="Capa 1"><path class="cls-1" d="M209.37,394.3l2.4,4h-83.5a3.56,3.56,0,0,1-3.6-3.5v-6.9a3.56,3.56,0,0,1,3.6-3.5h83.5l-2.4,4Z"/><polygon class="cls-2" points="209.37 394.3 211.77 398.2 177.87 398.2 177.87 384.4 211.77 384.4 209.37 388.2 209.37 394.3"/><rect class="cls-3" x="181.87" y="388.2" width="27.6" height="6"/><path class="cls-2" d="M126.57,363.3l-2,3.4h73.5a3.14,3.14,0,0,0,3.2-3.1v-6a3.2,3.2,0,0,0-3.2-3.1h-73.5l2,3.4v5.4Z"/><polygon class="cls-1" points="126.57 363.3 124.57 366.8 154.47 366.8 154.47 354.5 124.57 354.5 126.57 358 126.57 363.3"/><rect class="cls-4" x="126.57" y="358" width="24.4" height="5.4"/><path class="cls-5" d="M130.87,380.6l-2.1,3.8h78.5a3.35,3.35,0,0,0,3.4-3.3V370.2a3.35,3.35,0,0,0-3.4-3.3h-78.6l2.1,3.8v9.9Z"/><polygon class="cls-6" points="130.87 380.6 128.67 384.4 183.67 384.4 183.67 366.8 128.67 366.8 130.87 370.5 130.87 380.6"/><rect class="cls-4" x="130.87" y="370.5" width="49" height="10.1"/><polygon class="cls-7" points="173.67 383.8 169.67 380.8 165.87 383.8 165.87 376.2 173.67 376.2 173.67 383.8"/><path class="cls-8" d="M206.07,340.9l2-3.4h-73.5a3.14,3.14,0,0,0-3.2,3.1v10.8a3.2,3.2,0,0,0,3.2,3.1h73.5l-2-3.4Z"/><path class="cls-3" d="M206.07,340.9h-69.7a1.69,1.69,0,0,0-1.7,1.7v6.7a1.69,1.69,0,0,0,1.7,1.7h69.7V340.9Z"/><rect class="cls-4" x="159.37" y="340.9" width="46.7" height="10.2"/><path class="cls-2" d="M164.57,195.3a4.4,4.4,0,1,1,1.3,3.1A4.39,4.39,0,0,1,164.57,195.3Zm5.8,0a1.28,1.28,0,0,0-.4-1,1.52,1.52,0,0,0-2,0,1.28,1.28,0,0,0-.4,1,1.78,1.78,0,0,0,.4,1,1.52,1.52,0,0,0,2,0A1.28,1.28,0,0,0,170.37,195.3Z"/><path class="cls-8" d="M236.37,236.5v-1.2h1.2a1.9,1.9,0,0,0,0-3.8h-1.2v-1.2a1.9,1.9,0,0,0-3.8,0v1.2h-1.2a1.9,1.9,0,0,0,0,3.8h1.2v1.2a1.9,1.9,0,0,0,1.9,1.9A2,2,0,0,0,236.37,236.5Z"/><path class="cls-9" d="M590.37,205.5c0,7.1-5.5,12.8-12.2,12.8S566,212.6,566,205.5s5.5-12.8,12.2-12.8S590.37,198.5,590.37,205.5Z"/><path class="cls-9" d="M548,195.3a6.4,6.4,0,1,1-6.4-6.4A6.38,6.38,0,0,1,548,195.3Z"/><path class="cls-9" d="M24.47,194.3c0,7.1-5.5,12.8-12.2,12.8S.07,201.4.07,194.3s5.5-12.8,12.2-12.8S24.47,187.2,24.47,194.3Z"/><path class="cls-9" d="M32.77,162.2a6.4,6.4,0,1,1-6.4-6.4A6.38,6.38,0,0,1,32.77,162.2Z"/><path class="cls-9" d="M46.87,186.6a6.4,6.4,0,1,1-6.4-6.4A6.38,6.38,0,0,1,46.87,186.6Z"/><path class="cls-10" d="M363.87,68.2c-1.3,1.1-2.6,2.3-3.9,3.4"/><path class="cls-11" d="M352.07,78a303.85,303.85,0,0,1-113.8,56c-6.8,1.7-13.9,3.2-20.8,1.8s-13.5-6.2-14.9-13.1c-1.9-9.4,6.3-17.7,14.6-22.4,6.8-3.8,15.1-6.4,22.1-3.2,6.2,2.8,9.8,9.6,10.9,16.4,2.1,12.5-2.7,25.2-9.4,36s-15.3,20.2-22,31a107.33,107.33,0,0,0-11.6,87c7,23.4,23.4,44.7,45.4,54.6"/><path class="cls-10" d="M257.27,324c1.6.6,3.2,1.1,4.9,1.6"/><line class="cls-12" x1="108.97" y1="401" x2="512.07" y2="401"/><path class="cls-13" d="M379.67,206.2c-7.3-2.6-11.6-17.6-18.4-49.1-6.7-31.1-37.2-26.9-38.2-26.8-1-.1-31.5-4.3-38.2,26.8-6.8,31.6-11.1,46.5-18.4,49.1s-15.5,22.4,7.3,36c10.4,6.2,29.6,10,48.5,10h1.6c18.8-.1,38.1-3.8,48.5-10C395.17,228.6,387,208.9,379.67,206.2Z"/><path class="cls-14" d="M352.17,206.1c-13.1-19.5-10.5-42.4-11.2-64.7-8.7-4.1-20.1-3.1-29.4-2.4a134.39,134.39,0,0,1,1,30.4c-1,13.5-4.1,28.6-13.1,39.2-5.3,6.3-12.7,8.8-19.9,12.3-5.3,2.6-9.4,7.3-12.1,12.5-.5,1-1,2-1.4,2.9a41.89,41.89,0,0,0,7.7,5.9c10.4,6.2,29.6,10,48.5,10h1.6c18.7-.1,37.8-3.7,48.3-9.9a21.8,21.8,0,0,0-2.1-11.6C365.77,221.4,357.87,214.5,352.17,206.1Z"/><path class="cls-15" d="M309,206.8s.1,17.9-3.4,20.6c0,0,6.6,19.6,20.6,18.9,0,0,12.2-11,13.5-15.6,0,0-1.1-21.6-.9-26.2C338.67,204.5,312.87,197.8,309,206.8Z"/><path class="cls-16" d="M308.47,217.1c5.9,4.4,12.6,6.8,20.4,4.7a32.31,32.31,0,0,0,10.2-5c-.2-5.2-.4-10.4-.3-12.4,0,0-25.8-6.6-29.8,2.3C309,206.8,309,211.9,308.47,217.1Z"/><path class="cls-17" d="M371.27,239.2c-.6-2.4-26.1-10.9-31.5-12.6-2.4,6.8-12.6,16.7-16.8,15.9-5.5-1-14.2-13.3-17.7-17.6H305s-33.8,10.8-34.5,13.5,18.9,56.7,17.6,70.9-11.5,26.3-9.5,33.1c0,0,16.7,2.5,32.5,3.5l-.1.6c16.2,2,52-3.4,52-3.4,2-6.8-8.1-18.9-9.5-33.1C352.27,295.9,371.87,241.9,371.27,239.2Z"/><path class="cls-17" d="M363.17,267.1a85.65,85.65,0,0,1-23,13.1c-14.4,5.5-34,4.6-47.3-3.2a50,50,0,0,1-15.4-14.6c5.3,17.2,11.5,38.9,10.7,47.1-1.4,14.2-11.5,26.3-9.5,33.1,0,0,16.7,2.5,32.5,3.5l-.1.6c16.2,2,52-3.4,52-3.4,2-6.8-8.1-18.9-9.5-33.1C353,302.5,358.17,283.5,363.17,267.1Z"/><path class="cls-17" d="M271.87,237.2s-50.7,62.2-43.8,75.4,43.8,31.9,53.2,31.9l13.1-9.4s-35-28.8-33.8-34.4,28.8-36.9,28.8-36.9S281.87,230.7,271.87,237.2Z"/><path class="cls-17" d="M260.57,300.7c1.1-5,22.6-29.8,27.7-35.7-14.4,7.2-26.7,19-33.4,33.8-5.3,11.6-5.7,23.4-1.9,34.2,11.5,6.6,23.5,11.5,28.3,11.5l13.1-9.4S259.27,306.4,260.57,300.7Z"/><path class="cls-17" d="M372.27,239.1s50.7,62.2,43.8,75.4-43.8,31.9-53.2,31.9l-13.1-9.4s35-28.8,33.8-34.4-28.8-36.9-28.8-36.9S362.17,232.5,372.27,239.1Z"/><path class="cls-17" d="M406.67,319.3c-8.4-14.9-18.8-27.8-32.6-38-4.9-3.6-9.7-7.4-14.5-11.1l-2.4-1.8c6.7,7.7,25.4,29.6,26.4,34.2,1.3,5.6-33.8,34.4-33.8,34.4l13.1,9.4c7.7,0,34-12.7,47-24.5A6.23,6.23,0,0,1,406.67,319.3Z"/><path class="cls-15" d="M353.77,165.2l-.1-.1c-1.1-15.5-14.6-27.8-31-27.8-17.2,0-31.1,13.4-31.1,29.9a28.2,28.2,0,0,0,.9,7.1c1.4,12.4,7.3,38.2,32.9,43.1C325.37,217.4,356.27,212.5,353.77,165.2Z"/><path class="cls-13" d="M306,152.5s22.9,14.2,38.4,15.8,8.3,11.7,9.2,12.9,8.8-17.9-3.8-36.7-39.6-12.9-50.5,0C299.37,144.6,302.27,149.6,306,152.5Z"/><path class="cls-13" d="M308.87,152.1s-18.3,11.3-15.8,34.6c0,0-15.4-30,9.6-45.9C302.67,140.8,315.57,142.1,308.87,152.1Z"/><path class="cls-15" d="M297.17,185.2c1.6,4.2,1.1,8.3-1.2,9.2s-5.5-1.8-7.1-6-1.1-8.3,1.2-9.2S295.57,181.1,297.17,185.2Z"/><path class="cls-15" d="M360.37,187.6c-1.1,4.4-4,7.4-6.3,6.8s-3.4-4.6-2.3-9,4-7.4,6.3-6.8S361.57,183.2,360.37,187.6Z"/><path class="cls-18" d="M316,185.2s-6.8,4.5-13.1-3.2h-2.3l2.3,1C302.77,183,309.67,192.2,316,185.2Z"/><path class="cls-13" d="M317.37,179s-4.9-5.6-16.1-2.4c0,0,10.4-.6,13.9,2.4C315.17,179,317.27,180.9,317.37,179Z"/><path class="cls-18" d="M332.57,185.9s6.8,4.5,13.1-3.2H348l-2.3,1S338.87,192.9,332.57,185.9Z"/><path class="cls-13" d="M331.17,179.8s4.9-5.6,16.1-2.4c0,0-10.4-.6-13.9,2.4C333.37,179.8,331.17,181.6,331.17,179.8Z"/><path class="cls-19" d="M322,194.3s3.4,3.7,5.5.4C327.37,194.7,325.17,199,322,194.3Z"/><path class="cls-19" d="M320.27,193.1a1.62,1.62,0,0,0,.6,2.8A3.54,3.54,0,0,1,320.27,193.1Z"/><path class="cls-19" d="M329.17,193.2a1.62,1.62,0,0,1-.6,2.8A4.74,4.74,0,0,0,329.17,193.2Z"/><path class="cls-13" d="M307.47,152.9s-14.9,23.6-7.9,40.8c0,0-1.4,3.2-2.5,1.7s-7.1-16.7-6-24.8C292.27,162.3,300.47,149.2,307.47,152.9Z"/><path class="cls-13" d="M350.77,169.7s.6,23.5-1.3,30.8c0,0,.8,1.8,2.2.6s5.5-25.4,4.2-30S352,167.8,350.77,169.7Z"/><path class="cls-17" d="M304.67,225.8s8.7,15.3,19,19.2c0,0,13.5-7.4,17.7-18.3,0,0,2.4-.5,2.2,1.1s-8.3,16.4-19.9,20.4c0,0-9.6-2-22.8-21.9C301,226.2,303.77,224.3,304.67,225.8Z"/><path class="cls-20" d="M319,201.9s.4.8,2.9-.3,5.1-1.5,8.2.8a1.85,1.85,0,0,0,1.8-.3,6.43,6.43,0,0,1-6.2,5.5C320,208,319,201.9,319,201.9Z"/><path class="cls-3" d="M322.17,203.1a43.39,43.39,0,0,0,6.6.1s-.2,2.2-3.3,2.1S322.17,203.1,322.17,203.1Z"/><path class="cls-21" d="M339.37,170.9a11.05,11.05,0,0,0-11.1,11,4.87,4.87,0,0,0,.1,1.2c-3-2.6-6.7-.8-7.8-.2,0-.3.1-.7.1-1a11,11,0,1,0-.2,2.1,7.51,7.51,0,0,1,8.1-.2,11.09,11.09,0,0,0,22-1.9A11.27,11.27,0,0,0,339.37,170.9Zm-29.8,21.2a10.3,10.3,0,1,1,10.3-10.3A10.29,10.29,0,0,1,309.57,192.1Zm29.8,0a10.3,10.3,0,1,1,10.3-10.3A10.29,10.29,0,0,1,339.37,192.1Z"/><path class="cls-21" d="M395.17,392H248.27V305a4.91,4.91,0,0,1,4.9-4.9h137.1a4.91,4.91,0,0,1,4.9,4.9Z"/><path class="cls-22" d="M381.67,300.1c-2.3,24.5-11.6,48.1-31.8,63.8-15.2,11.8-34,16.9-53.1,16.6-16.3-.3-32.3-3.5-48.5-5.4V392h147V308.5a8.39,8.39,0,0,0-8.4-8.4Z"/><path class="cls-23" d="M325.87,346.1a5.61,5.61,0,1,1-5.6-6A5.81,5.81,0,0,1,325.87,346.1Z"/><path class="cls-24" d="M395.77,398.4H248c-2.7,0-3.3-1.6-3.3-3.5h0c0-1.9.6-3.5,3.3-3.5h147.8c2.7,0,3.3,1.6,3.3,3.5h0C399.07,396.8,398.57,398.4,395.77,398.4Z"/><path class="cls-25" d="M385,12.4a15.77,15.77,0,0,0-15.5,16.1,15.41,15.41,0,0,0,3.4,9.4,24.06,24.06,0,0,1,5.2,13.6h14.3a23.37,23.37,0,0,1,5.2-13.6,15.94,15.94,0,0,0,3.4-9.8A15.67,15.67,0,0,0,385,12.4Z"/><path class="cls-1" d="M382.37,52.6a1.11,1.11,0,0,1-1.1-1.1V40.9L380,39.6a1.13,1.13,0,1,1,1.6-1.6l1.6,1.6a1.14,1.14,0,0,1,.3.8v11a1.13,1.13,0,0,1-1.1,1.2Z"/><path class="cls-1" d="M388.07,52.6a1.11,1.11,0,0,1-1.1-1.1v-11a1.14,1.14,0,0,1,.3-.8l1.6-1.6a1.13,1.13,0,0,1,1.6,1.6l-1.3,1.3V51.5A1.11,1.11,0,0,1,388.07,52.6Z"/><path class="cls-26" d="M393.07,64.4h-15.8a1.11,1.11,0,0,1-1.1-1.1V52.6a1.11,1.11,0,0,1,1.1-1.1h15.8a1.11,1.11,0,0,1,1.1,1.1V63.4A1.1,1.1,0,0,1,393.07,64.4Z"/><path class="cls-27" d="M391.77,64.4a6.6,6.6,0,1,1-13.2,0Z"/><path class="cls-28" d="M391,67.6a6.6,6.6,0,0,0,.8-3.2h-13.1a7.22,7.22,0,0,0,.8,3.2Z"/><path class="cls-8" d="M401.57,24.1a16.84,16.84,0,0,0-4.5-8A16.43,16.43,0,0,0,385,11.3a16.91,16.91,0,0,0-16.1,12.8c0,.1-.1.3-.1.4l-.4,2.3h0a9.65,9.65,0,0,0,0,1.7,16.91,16.91,0,0,0,3.7,10.1,22.05,22.05,0,0,1,4.8,11.7.35.35,0,0,1-.1.2,2.16,2.16,0,0,0-1.6,2.1v1.7c0,.1,0,.1-.1.2a1.2,1.2,0,0,0-.7,1,1,1,0,0,0,.7,1c.1,0,.1.1.1.2V59c0,.1,0,.1-.1.2a1.2,1.2,0,0,0-.7,1,1,1,0,0,0,.7,1c.1,0,.1.1.1.2v1.9a2.43,2.43,0,0,0,2.4,2.4h0a.35.35,0,0,1,.2.1,7.71,7.71,0,0,0,15.2,0c0-.1.1-.1.2-.1h0a2.43,2.43,0,0,0,2.4-2.4V61.4c0-.1,0-.1.1-.2a1.2,1.2,0,0,0,.7-1,1,1,0,0,0-.7-1c-.1,0-.1-.1-.1-.2V56.7c0-.1,0-.1.1-.2a1.2,1.2,0,0,0,.7-1,1,1,0,0,0-.7-1c-.1,0-.1-.1-.1-.2V52.6a2.16,2.16,0,0,0-1.6-2.1c-.1,0-.1-.1-.1-.2a22.38,22.38,0,0,1,4.8-11.7,16.6,16.6,0,0,0,3.7-10.5,6.15,6.15,0,0,0-.1-1.4C402,26.6,401.57,24.2,401.57,24.1Zm-8.5,32.6v2.1a.22.22,0,0,1-.2.2h-15.5a.22.22,0,0,1-.2-.2V56.7a.22.22,0,0,1,.2-.2h15.5C393.07,56.5,393.07,56.6,393.07,56.7Zm-15.8-2.5V52.8a.22.22,0,0,1,.2-.2H393a.22.22,0,0,1,.2.2v1.4a.22.22,0,0,1-.2.2h-15.5C377.37,54.3,377.27,54.3,377.27,54.2Zm7.9,15.7a5.49,5.49,0,0,1-5.3-4.1.22.22,0,0,1,.2-.2h10.3a.22.22,0,0,1,.2.2A5.7,5.7,0,0,1,385.17,69.9Zm6.6-6.6h-14.3a.22.22,0,0,1-.2-.2V61.3a.22.22,0,0,1,.2-.2H393a.22.22,0,0,1,.2.2v1.8a.22.22,0,0,1-.2.2Zm4.9-26.1a24.43,24.43,0,0,0-5.3,13,.22.22,0,0,1-.2.2h-11.9a.22.22,0,0,1-.2-.2,25.24,25.24,0,0,0-5.3-13,14.58,14.58,0,0,1-3.2-8.8,14.69,14.69,0,0,1,14.4-15,14.66,14.66,0,0,1,11.7,23.8Z"/><path class="cls-1" d="M209.17,395.9l2.4,4h-83.5a3.65,3.65,0,0,1-3.7-3.5v-6.9a3.59,3.59,0,0,1,3.7-3.5h83.5l-2.4,4Z"/><polygon class="cls-2" points="209.17 395.9 211.57 399.8 177.57 399.8 177.57 385.9 211.57 385.9 209.17 389.8 209.17 395.9"/><rect class="cls-3" x="181.57" y="389.8" width="27.6" height="6"/><path class="cls-2" d="M126.27,364.9l-2,3.4h73.6a3.14,3.14,0,0,0,3.2-3.1v-6a3.2,3.2,0,0,0-3.2-3.1h-73.6l2,3.4Z"/><polygon class="cls-1" points="126.27 364.9 124.27 368.3 154.17 368.3 154.17 356 124.27 356 126.27 359.5 126.27 364.9"/><rect class="cls-4" x="126.27" y="359.5" width="24.4" height="5.4"/><path class="cls-5" d="M130.57,382.1l-2.1,3.8h78.6a3.35,3.35,0,0,0,3.4-3.3v-11a3.35,3.35,0,0,0-3.4-3.3h-78.6l2.1,3.8v10Z"/><polygon class="cls-6" points="130.57 382.1 128.37 385.9 183.37 385.9 183.37 368.3 128.37 368.3 130.57 372 130.57 382.1"/><rect class="cls-4" x="130.57" y="372" width="49.1" height="10.1"/><polygon class="cls-7" points="173.37 385.4 169.47 382.4 165.57 385.4 165.57 377.7 173.37 377.7 173.37 385.4"/><path class="cls-8" d="M205.87,342.4l2-3.4h-73.6a3.14,3.14,0,0,0-3.2,3.1v10.8a3.2,3.2,0,0,0,3.2,3.1h73.6l-2-3.4Z"/><path class="cls-3" d="M205.87,342.4h-69.7a1.69,1.69,0,0,0-1.7,1.7v6.7a1.69,1.69,0,0,0,1.7,1.7h69.7V342.4Z"/><rect class="cls-4" x="159.17" y="342.4" width="46.7" height="10.2"/><path class="cls-2" d="M21.07,346.8a6,6,0,0,1-4.5-.7,5.9,5.9,0,1,1,8.1-2A5,5,0,0,1,21.07,346.8Zm-1.8-7.5a2,2,0,0,0-1.2.8,1.93,1.93,0,0,0,.6,2.6,1.7,1.7,0,0,0,1.4.2,2,2,0,0,0,1.2-.8,1.93,1.93,0,0,0-.6-2.6A1.7,1.7,0,0,0,19.27,339.3Z"/><path class="cls-8" d="M8.07,317.7l-1.3.3-.3-1.3a2,2,0,0,0-2.4-1.5,2,2,0,0,0-1.5,2.4l.3,1.3-1.3.3a2,2,0,1,0,.9,3.9l1.3-.3.3,1.3a2,2,0,0,0,2.4,1.5A2,2,0,0,0,8,323.2l-.3-1.3,1.3-.3a2,2,0,0,0,1.5-2.4A2,2,0,0,0,8.07,317.7Z"/><path class="cls-2" d="M53.47,77a4.65,4.65,0,0,1-1-3.6,4.94,4.94,0,1,1,4.3,5.5A5.3,5.3,0,0,1,53.47,77Zm5.2-4a1.33,1.33,0,0,0-1-.6A1.55,1.55,0,0,0,56,73.7a1.43,1.43,0,0,0,.3,1.1,2.07,2.07,0,0,0,1,.6A1.55,1.55,0,0,0,59,74.1,2.61,2.61,0,0,0,58.67,73Z"/><path class="cls-8" d="M77.67,54.6l-.8-1,1-.8a2,2,0,1,0-2.4-3.2l-1,.8-.8-1a2,2,0,0,0-3.2,2.4l.8,1-1,.8a2,2,0,0,0,2.4,3.2l1-.8.8,1a2,2,0,0,0,2.8.4A1.88,1.88,0,0,0,77.67,54.6Z"/><path class="cls-2" d="M564.77,343.4a5.29,5.29,0,0,1,1.6-3.8,5.44,5.44,0,1,1,0,7.7A5.89,5.89,0,0,1,564.77,343.4Zm7.2,0a1.46,1.46,0,0,0-.5-1.2,1.63,1.63,0,0,0-2.4,0,1.69,1.69,0,0,0,0,2.4,1.63,1.63,0,0,0,2.4,0A1.85,1.85,0,0,0,572,343.4Z"/><path class="cls-2" d="M319.17,14.5a5.29,5.29,0,0,1,1.6-3.8,5.44,5.44,0,1,1,0,7.7A5.89,5.89,0,0,1,319.17,14.5Zm7.2,0a1.46,1.46,0,0,0-.5-1.2,1.63,1.63,0,0,0-2.4,0,1.69,1.69,0,0,0,0,2.4,1.63,1.63,0,0,0,2.4,0A1.85,1.85,0,0,0,326.37,14.5Z"/><path class="cls-2" d="M164.27,195.7a4.4,4.4,0,1,1,1.3,3.1A4.39,4.39,0,0,1,164.27,195.7Zm5.8,0a1.28,1.28,0,0,0-.4-1,1.52,1.52,0,0,0-2,0,1.28,1.28,0,0,0-.4,1,1.78,1.78,0,0,0,.4,1,1.52,1.52,0,0,0,2,0A1.28,1.28,0,0,0,170.07,195.7Z"/><path class="cls-8" d="M593.77,338v-1.2H595a1.9,1.9,0,0,0,1.9-1.9A1.84,1.84,0,0,0,595,333h-1.2v-1.2a1.9,1.9,0,1,0-3.8,0V333h-1.2a1.9,1.9,0,0,0-1.9,1.9,1.84,1.84,0,0,0,1.9,1.9H590V338a1.9,1.9,0,0,0,1.9,1.9A2,2,0,0,0,593.77,338Z"/><path class="cls-8" d="M278.67,55.1V53.9h1.2a1.9,1.9,0,0,0,0-3.8h-1.2V48.9a1.9,1.9,0,0,0-3.8,0v1.2h-1.2a1.9,1.9,0,0,0,0,3.8h1.2v1.2a1.9,1.9,0,0,0,1.9,1.9A1.84,1.84,0,0,0,278.67,55.1Z"/><path class="cls-8" d="M525.37,100V98.8h1.2a1.9,1.9,0,0,0,0-3.8h-1.2V93.8a1.9,1.9,0,0,0-1.9-1.9,1.84,1.84,0,0,0-1.9,1.9V95h-1.2a1.9,1.9,0,1,0,0,3.8h1.2V100a1.9,1.9,0,0,0,3.8,0Z"/><path class="cls-8" d="M236.07,236.9v-1.2h1.2a1.9,1.9,0,0,0,1.9-1.9,1.84,1.84,0,0,0-1.9-1.9h-1.2v-1.2a1.9,1.9,0,0,0-1.9-1.9,1.84,1.84,0,0,0-1.9,1.9v1.2h-1.2a1.9,1.9,0,0,0-1.9,1.9,1.84,1.84,0,0,0,1.9,1.9h1.2v1.2a1.9,1.9,0,0,0,1.9,1.9A1.84,1.84,0,0,0,236.07,236.9Z"/><path class="cls-8" d="M393.67,168.5v-1.2h1.2a1.9,1.9,0,0,0,0-3.8h-1.2v-1a1.9,1.9,0,0,0-1.9-1.9,1.84,1.84,0,0,0-1.9,1.9v1.2h-1.2a1.9,1.9,0,0,0,0,3.8h1.2v1.2a1.9,1.9,0,0,0,1.9,1.9A2,2,0,0,0,393.67,168.5Z"/><path class="cls-2" d="M398.47,142.1a3.85,3.85,0,0,1,1.2-2.9,4.17,4.17,0,1,1,0,5.9A4.41,4.41,0,0,1,398.47,142.1Zm5.5,0a1.09,1.09,0,0,0-.4-.9,1.39,1.39,0,0,0-1.9,0,1.22,1.22,0,0,0-.4.9,1,1,0,0,0,.4.9,1.39,1.39,0,0,0,1.9,0A1.49,1.49,0,0,0,404,142.1Z"/><path class="cls-29" d="M498,239.6h16.3a3,3,0,0,1,3,3v16.2a3,3,0,0,1-3,3h-16.2a3,3,0,0,1-3-3V242.6A2.86,2.86,0,0,1,498,239.6Z"/><path class="cls-29" d="M498,267.8h16.3a3,3,0,0,1,3,3V287a3,3,0,0,1-3,3h-16.2a3,3,0,0,1-3-3V270.8A2.86,2.86,0,0,1,498,267.8Z"/><path class="cls-29" d="M498,295.9h16.3a3,3,0,0,1,3,3v16.2a3,3,0,0,1-3,3h-16.2a3,3,0,0,1-3-3V298.9A2.86,2.86,0,0,1,498,295.9Z"/><path class="cls-29" d="M498,324.1h16.3a3,3,0,0,1,3,3v16.2a3,3,0,0,1-3,3h-16.2a3,3,0,0,1-3-3V327.1A2.81,2.81,0,0,1,498,324.1Z"/><path class="cls-30" d="M495.47,237.5h16.2a3,3,0,0,1,3,3v16.2a3,3,0,0,1-3,3h-16.2a3,3,0,0,1-3-3V240.5A3,3,0,0,1,495.47,237.5Z"/><path class="cls-30" d="M495.47,265.6h16.2a3,3,0,0,1,3,3v16.2a3,3,0,0,1-3,3h-16.2a3,3,0,0,1-3-3V268.6A3,3,0,0,1,495.47,265.6Z"/><path class="cls-30" d="M495.47,293.8h16.2a3,3,0,0,1,3,3V313a3,3,0,0,1-3,3h-16.2a3,3,0,0,1-3-3V296.8A3,3,0,0,1,495.47,293.8Z"/><path class="cls-30" d="M495.47,321.9h16.2a3,3,0,0,1,3,3v16.2a3,3,0,0,1-3,3h-16.2a3,3,0,0,1-3-3V324.9A3,3,0,0,1,495.47,321.9Z"/><path class="cls-31" d="M497.27,251.1a1.34,1.34,0,0,1,1.9-1.9l2.4,2.5,6.3-9.1a1.36,1.36,0,1,1,2.2,1.6l-7.2,10.4c-.1.1-.1.2-.2.2a1.39,1.39,0,0,1-1.9,0Z"/><path class="cls-32" d="M500.47,282.5a1.35,1.35,0,1,1-2.1-1.7l3.4-4-3.4-4a1.35,1.35,0,1,1,2.1-1.7l3.1,3.6,3.1-3.6a1.35,1.35,0,0,1,2.1,1.7l-3.4,4,3.4,4a1.35,1.35,0,1,1-2.1,1.7l-3.1-3.6Z"/><path class="cls-31" d="M497.27,307.4a1.34,1.34,0,0,1,1.9-1.9l2.4,2.5,6.3-9.1a1.3,1.3,0,0,1,1.9-.3,1.2,1.2,0,0,1,.3,1.8l-7.2,10.4c-.1.1-.1.2-.2.2a1.39,1.39,0,0,1-1.9,0Z"/><path class="cls-33" d="M385.17,6.5a1.37,1.37,0,0,0,1.4-1.4V1.4a1.4,1.4,0,1,0-2.8,0V5.1A1.43,1.43,0,0,0,385.17,6.5Z"/><path class="cls-33" d="M358.57,29.4h3.7a1.4,1.4,0,1,0,0-2.8h-3.7a1.4,1.4,0,1,0,0,2.8Z"/><path class="cls-33" d="M368,12.8a1.45,1.45,0,0,0,2,0,1.52,1.52,0,0,0,0-2l-2.6-2.6a1.52,1.52,0,0,0-2,0,1.52,1.52,0,0,0,0,2Z"/><path class="cls-33" d="M365.37,49.2a1.28,1.28,0,0,0,1-.4l2.6-2.6a1.41,1.41,0,0,0-2-2l-2.6,2.6a1.52,1.52,0,0,0,0,2A1.43,1.43,0,0,0,365.37,49.2Z"/><path class="cls-33" d="M401.37,13.2a1.28,1.28,0,0,0,1-.4l2.6-2.6a1.52,1.52,0,0,0,0-2,1.52,1.52,0,0,0-2,0l-2.6,2.6a1.52,1.52,0,0,0,0,2A1.43,1.43,0,0,0,401.37,13.2Z"/><path class="cls-33" d="M401.37,44.2a1.52,1.52,0,0,0,0,2l2.6,2.6a1.45,1.45,0,0,0,2,0,1.52,1.52,0,0,0,0-2l-2.6-2.6A1.52,1.52,0,0,0,401.37,44.2Z"/><path class="cls-33" d="M408.17,29.4h3.7a1.4,1.4,0,0,0,0-2.8h-3.7a1.4,1.4,0,0,0,0,2.8Z"/><path class="cls-29" d="M438.87,123.1h87.7a4.57,4.57,0,0,1,4.6,4.5v66.9a4.5,4.5,0,0,1-4.6,4.5h-87.7a4.48,4.48,0,0,1-4.5-4.5V127.6A4.42,4.42,0,0,1,438.87,123.1Z"/><path class="cls-30" d="M436.47,120.7h87.7a4.48,4.48,0,0,1,4.5,4.5v66.9a4.57,4.57,0,0,1-4.5,4.6h-87.7a4.5,4.5,0,0,1-4.5-4.6V125.2A4.48,4.48,0,0,1,436.47,120.7Z"/><path class="cls-33" d="M436.47,120.7h87.7a4.48,4.48,0,0,1,4.5,4.5v6.3a1.32,1.32,0,0,1-1.3,1.3h-94.3a1.32,1.32,0,0,1-1.3-1.3v-6.3A4.79,4.79,0,0,1,436.47,120.7Z"/><path class="cls-29" d="M439.27,137.8h24.6a.9.9,0,0,1,.9.9h0a.9.9,0,0,1-.9.9h-24.6a.9.9,0,0,1-.9-.9h0A1,1,0,0,1,439.27,137.8Z"/><path class="cls-29" d="M463.87,142h-11a.9.9,0,0,0-.9.9h0a.9.9,0,0,0,.9.9h11a.9.9,0,0,0,.9-.9h0A.9.9,0,0,0,463.87,142Z"/><path class="cls-29" d="M448.07,142h.9a.9.9,0,0,1,.9.9h0a.9.9,0,0,1-.9.9h-.9a.9.9,0,0,1-.9-.9h0A.9.9,0,0,1,448.07,142Z"/><path class="cls-29" d="M439.27,142h5.5a.9.9,0,0,1,.9.9h0a.9.9,0,0,1-.9.9h-5.5a.9.9,0,0,1-.9-.9h0A.9.9,0,0,1,439.27,142Z"/><path class="cls-29" d="M439.27,146.9h24.6a.9.9,0,0,1,.9.9h0a.9.9,0,0,1-.9.9h-24.6a.9.9,0,0,1-.9-.9h0A1,1,0,0,1,439.27,146.9Z"/><path class="cls-29" d="M439.27,151.1h11a.9.9,0,0,1,.9.9h0a.9.9,0,0,1-.9.9h-11a.9.9,0,0,1-.9-.9h0A.9.9,0,0,1,439.27,151.1Z"/><path class="cls-29" d="M455.07,151.1h-.9a.9.9,0,0,0-.9.9h0a.9.9,0,0,0,.9.9h.9a.9.9,0,0,0,.9-.9h0A.9.9,0,0,0,455.07,151.1Z"/><path class="cls-29" d="M463.87,151.1h-5.5a.9.9,0,0,0-.9.9h0a.9.9,0,0,0,.9.9h5.5a.9.9,0,0,0,.9-.9h0A.9.9,0,0,0,463.87,151.1Z"/><path class="cls-29" d="M439.27,156.1h24.6a.9.9,0,0,1,.9.9h0a.9.9,0,0,1-.9.9h-24.6a.9.9,0,0,1-.9-.9h0A.9.9,0,0,1,439.27,156.1Z"/><path class="cls-29" d="M463.87,160.2h-11a.9.9,0,0,0-.9.9h0a.9.9,0,0,0,.9.9h11a.9.9,0,0,0,.9-.9h0A1,1,0,0,0,463.87,160.2Z"/><path class="cls-29" d="M448.07,160.2h.9a.9.9,0,0,1,.9.9h0a.9.9,0,0,1-.9.9h-.9a.9.9,0,0,1-.9-.9h0A1,1,0,0,1,448.07,160.2Z"/><path class="cls-29" d="M439.27,160.2h5.5a.9.9,0,0,1,.9.9h0a.9.9,0,0,1-.9.9h-5.5a.9.9,0,0,1-.9-.9h0A1,1,0,0,1,439.27,160.2Z"/><path class="cls-29" d="M439.27,165.2h24.6a.9.9,0,0,1,.9.9h0a.9.9,0,0,1-.9.9h-24.6a.9.9,0,0,1-.9-.9h0A.9.9,0,0,1,439.27,165.2Z"/><path class="cls-29" d="M439.27,169.3h11a.9.9,0,0,1,.9.9h0a.9.9,0,0,1-.9.9h-11a.9.9,0,0,1-.9-.9h0A1,1,0,0,1,439.27,169.3Z"/><path class="cls-29" d="M463,169.3h.9a.9.9,0,0,1,.9.9h0a.9.9,0,0,1-.9.9H463a.9.9,0,0,1-.9-.9h0A1,1,0,0,1,463,169.3Z"/><path class="cls-29" d="M454.17,169.3h5.5a.9.9,0,0,1,.9.9h0a.9.9,0,0,1-.9.9h-5.5a.9.9,0,0,1-.9-.9h0A1,1,0,0,1,454.17,169.3Z"/><path class="cls-29" d="M439.27,174.3h24.6a.9.9,0,0,1,.9.9h0a.9.9,0,0,1-.9.9h-24.6a.9.9,0,0,1-.9-.9h0A.9.9,0,0,1,439.27,174.3Z"/><path class="cls-29" d="M455.07,178.5h-11a.9.9,0,0,0-.9.9h0a.9.9,0,0,0,.9.9h11a.9.9,0,0,0,.9-.9h0A.9.9,0,0,0,455.07,178.5Z"/><path class="cls-29" d="M439.27,178.5h.9a.9.9,0,0,1,.9.9h0a.9.9,0,0,1-.9.9h-.9a.9.9,0,0,1-.9-.9h0A.9.9,0,0,1,439.27,178.5Z"/><path class="cls-29" d="M463.87,178.5h-5.5a.9.9,0,0,0-.9.9h0a.9.9,0,0,0,.9.9h5.5a.9.9,0,0,0,.9-.9h0A.9.9,0,0,0,463.87,178.5Z"/><path class="cls-29" d="M439.27,183.4h24.6a.9.9,0,0,1,.9.9h0a.9.9,0,0,1-.9.9h-24.6a.9.9,0,0,1-.9-.9h0A.9.9,0,0,1,439.27,183.4Z"/><path class="cls-29" d="M439.27,187.6h11a.9.9,0,0,1,.9.9h0a.9.9,0,0,1-.9.9h-11a.9.9,0,0,1-.9-.9h0A.9.9,0,0,1,439.27,187.6Z"/><path class="cls-29" d="M455.07,187.6h-.9a.9.9,0,0,0-.9.9h0a.9.9,0,0,0,.9.9h.9a.9.9,0,0,0,.9-.9h0A.9.9,0,0,0,455.07,187.6Z"/><path class="cls-29" d="M463.87,187.6h-5.5a.9.9,0,0,0-.9.9h0a.9.9,0,0,0,.9.9h5.5a.9.9,0,0,0,.9-.9h0A.9.9,0,0,0,463.87,187.6Z"/><path class="cls-29" d="M479.57,137.8h41.6a.9.9,0,0,1,.9.9h0a.9.9,0,0,1-.9.9h-41.6a.9.9,0,0,1-.9-.9h0A1,1,0,0,1,479.57,137.8Z"/><path class="cls-29" d="M521.17,142h-19.3a.9.9,0,0,0-.9.9h0a.9.9,0,0,0,.9.9h19.3a.9.9,0,0,0,.9-.9h0C522.17,142.4,521.77,142,521.17,142Z"/><path class="cls-29" d="M494.07,142h2.6a.9.9,0,0,1,.9.9h0a.9.9,0,0,1-.9.9h-2.6a.9.9,0,0,1-.9-.9h0A.9.9,0,0,1,494.07,142Z"/><path class="cls-29" d="M479.57,142h10.3a.9.9,0,0,1,.9.9h0a.9.9,0,0,1-.9.9h-10.3a.9.9,0,0,1-.9-.9h0A.9.9,0,0,1,479.57,142Z"/><path class="cls-29" d="M479.57,146.9h41.6a.9.9,0,0,1,.9.9h0a.9.9,0,0,1-.9.9h-41.6a.9.9,0,0,1-.9-.9h0A1,1,0,0,1,479.57,146.9Z"/><path class="cls-29" d="M479.57,151.1h19.3a.9.9,0,0,1,.9.9h0a.9.9,0,0,1-.9.9h-19.3a.9.9,0,0,1-.9-.9h0A.9.9,0,0,1,479.57,151.1Z"/><path class="cls-29" d="M506.77,151.1h-2.6a.9.9,0,0,0-.9.9h0a.9.9,0,0,0,.9.9h2.6a.9.9,0,0,0,.9-.9h0A.9.9,0,0,0,506.77,151.1Z"/><path class="cls-29" d="M521.17,151.1h-10.3a.9.9,0,0,0-.9.9h0a.9.9,0,0,0,.9.9h10.3a.9.9,0,0,0,.9-.9h0C522.17,151.5,521.77,151.1,521.17,151.1Z"/><path class="cls-29" d="M479.57,156.1h41.6a.9.9,0,0,1,.9.9h0a.9.9,0,0,1-.9.9h-41.6a.9.9,0,0,1-.9-.9h0A.9.9,0,0,1,479.57,156.1Z"/><path class="cls-29" d="M521.17,160.2h-19.3a.9.9,0,0,0-.9.9h0a.9.9,0,0,0,.9.9h19.3a.9.9,0,0,0,.9-.9h0C522.17,160.7,521.77,160.2,521.17,160.2Z"/><path class="cls-29" d="M494.07,160.2h2.6a.9.9,0,0,1,.9.9h0a.9.9,0,0,1-.9.9h-2.6a.9.9,0,0,1-.9-.9h0A1,1,0,0,1,494.07,160.2Z"/><path class="cls-29" d="M479.57,160.2h10.3a.9.9,0,0,1,.9.9h0a.9.9,0,0,1-.9.9h-10.3a.9.9,0,0,1-.9-.9h0A1,1,0,0,1,479.57,160.2Z"/><path class="cls-29" d="M479.57,165.2h41.6a.9.9,0,0,1,.9.9h0a.9.9,0,0,1-.9.9h-41.6a.9.9,0,0,1-.9-.9h0A.9.9,0,0,1,479.57,165.2Z"/><path class="cls-29" d="M479.57,169.3h19.3a.9.9,0,0,1,.9.9h0a.9.9,0,0,1-.9.9h-19.3a.9.9,0,0,1-.9-.9h0A1,1,0,0,1,479.57,169.3Z"/><path class="cls-29" d="M518.57,169.3h2.6a.9.9,0,0,1,.9.9h0a.9.9,0,0,1-.9.9h-2.6a.9.9,0,0,1-.9-.9h0A1,1,0,0,1,518.57,169.3Z"/><path class="cls-29" d="M504.07,169.3h10.3a.9.9,0,0,1,.9.9h0a.9.9,0,0,1-.9.9h-10.3a.9.9,0,0,1-.9-.9h0A1,1,0,0,1,504.07,169.3Z"/><path class="cls-29" d="M479.57,174.3h41.6a.9.9,0,0,1,.9.9h0a.9.9,0,0,1-.9.9h-41.6a.9.9,0,0,1-.9-.9h0A.9.9,0,0,1,479.57,174.3Z"/><path class="cls-29" d="M506.77,178.5h-19.3a.9.9,0,0,0-.9.9h0a.9.9,0,0,0,.9.9h19.3a.9.9,0,0,0,.9-.9h0A.9.9,0,0,0,506.77,178.5Z"/><path class="cls-29" d="M479.57,178.5h2.6a.9.9,0,0,1,.9.9h0a.9.9,0,0,1-.9.9h-2.6a.9.9,0,0,1-.9-.9h0A.9.9,0,0,1,479.57,178.5Z"/><path class="cls-29" d="M521.17,178.5h-10.3a.9.9,0,0,0-.9.9h0a.9.9,0,0,0,.9.9h10.3a.9.9,0,0,0,.9-.9h0C522.17,178.9,521.77,178.5,521.17,178.5Z"/><path class="cls-29" d="M479.57,183.4h41.6a.9.9,0,0,1,.9.9h0a.9.9,0,0,1-.9.9h-41.6a.9.9,0,0,1-.9-.9h0A.9.9,0,0,1,479.57,183.4Z"/><path class="cls-29" d="M479.57,187.6h19.3a.9.9,0,0,1,.9.9h0a.9.9,0,0,1-.9.9h-19.3a.9.9,0,0,1-.9-.9h0A.9.9,0,0,1,479.57,187.6Z"/><path class="cls-29" d="M506.77,187.6h-2.6a.9.9,0,0,0-.9.9h0a.9.9,0,0,0,.9.9h2.6a.9.9,0,0,0,.9-.9h0A.9.9,0,0,0,506.77,187.6Z"/><path class="cls-29" d="M521.17,187.6h-10.3a.9.9,0,0,0-.9.9h0a.9.9,0,0,0,.9.9h10.3a.9.9,0,0,0,.9-.9h0C522.17,188,521.77,187.6,521.17,187.6Z"/><path class="cls-31" d="M505.37,128.9a2.2,2.2,0,1,0-2.2-2.2A2.22,2.22,0,0,0,505.37,128.9Z"/><path class="cls-34" d="M513.27,128.9a2.2,2.2,0,1,0-2.2-2.2A2.22,2.22,0,0,0,513.27,128.9Z"/><path class="cls-32" d="M521.17,128.9a2.2,2.2,0,1,0-2.2-2.2A2.22,2.22,0,0,0,521.17,128.9Z"/><path class="cls-30" d="M428.27,109.6a1.4,1.4,0,1,0-1.4-1.4A1.43,1.43,0,0,0,428.27,109.6Z"/><path class="cls-35" d="M452.07,391.7H447a10.14,10.14,0,0,1-10.1-10.1V377A10.22,10.22,0,0,1,447,366.8h5.1a10.16,10.16,0,0,1,10.1,10.2v4.6A10.07,10.07,0,0,1,452.07,391.7Zm-5-21.3a6.49,6.49,0,0,0-6.5,6.5v4.6a6.49,6.49,0,0,0,6.5,6.5h5.1a6.49,6.49,0,0,0,6.5-6.5v-4.6a6.49,6.49,0,0,0-6.5-6.5Z"/><path class="cls-36" d="M438.17,357.6c-8.9,0-16.1,2.1-16.1,4.8l3.4,31.1a2.92,2.92,0,0,0,2.9,2.6h18.5a2.92,2.92,0,0,0,2.9-2.5l4.4-31.2C454.37,359.7,447.07,357.6,438.17,357.6Z"/><path class="cls-17" d="M450,393.5l.9-6.3c-4-2.7-8.4-4.9-12.1-8a28.09,28.09,0,0,1-9.2-15.9,26.07,26.07,0,0,1-.5-4.8c-4.2.9-7,2.3-7,3.9l3.4,31.1a2.92,2.92,0,0,0,2.9,2.6h18.5A3,3,0,0,0,450,393.5Z"/><path class="cls-35" d="M452,363.5c0,2-6.2,3.7-13.8,3.7s-13.8-1.7-13.8-3.7,6.2-3.7,13.8-3.7S452,361.5,452,363.5Z"/><path class="cls-22" d="M425.57,365c2.1,1.3,7,2.2,12.6,2.2s10.5-.9,12.6-2.2c-2.1-1.3-7-2.2-12.6-2.2S427.67,363.7,425.57,365Z"/><path class="cls-37" d="M172,148.6l-83.5-.1a4,4,0,0,1-4-4l.1-67.6a4,4,0,0,1,4-4l83.5.1a4,4,0,0,1,4,4l-.1,67.6A4.08,4.08,0,0,1,172,148.6Z"/><path class="cls-3" d="M169.27,145.9l-83.5-.1a4,4,0,0,1-4-4l.1-67.6a4,4,0,0,1,4-4l83.5.1a4,4,0,0,1,4,4l-.1,67.6A4,4,0,0,1,169.27,145.9Z"/><path class="cls-25" d="M165.67,113l-76.1-.1a2.69,2.69,0,0,1-2.7-2.7v-31a2.69,2.69,0,0,1,2.7-2.7l76.1.1a2.69,2.69,0,0,1,2.7,2.7v31A2.63,2.63,0,0,1,165.67,113Z"/><polygon class="cls-3" points="137.17 95.6 123.87 87.9 123.77 103.3 137.17 95.6"/><rect class="cls-38" x="86.27" y="119.1" width="81" height="3.7"/><rect class="cls-38" x="86.27" y="126.5" width="81" height="3.7"/><rect class="cls-38" x="86.17" y="133.9" width="81" height="3.7"/><circle class="cls-2" cx="89.07" cy="267.8" r="30.5"/><circle class="cls-3" cx="89.07" cy="267.82" r="27.3" transform="translate(-163.29 141.43) rotate(-45)"/><rect class="cls-8" x="105.84" y="280.99" width="1.2" height="4" transform="translate(-175.76 174.49) rotate(-48.36)"/><rect class="cls-8" x="70.91" y="250.03" width="1.2" height="4" transform="translate(-164.35 138) rotate(-48.36)"/><rect class="cls-8" x="71.5" y="284.39" width="4" height="1.2" transform="translate(-188.31 150.54) rotate(-48.36)"/><rect class="cls-8" x="102.52" y="249.42" width="4" height="1.2" transform="translate(-151.77 161.99) rotate(-48.36)"/><rect class="cls-8" x="65.08" y="263.97" width="1.2" height="4" transform="translate(-203.96 314.4) rotate(-86.31)"/><rect class="cls-8" x="111.66" y="266.98" width="1.2" height="4" transform="translate(-163.37 363.73) rotate(-86.32)"/><rect class="cls-8" x="66.85" y="256.47" width="1.2" height="4" transform="translate(-197.07 221.29) rotate(-67.37)"/><rect class="cls-8" x="110.03" y="274.51" width="1.2" height="4" transform="translate(-187.16 272.19) rotate(-67.36)"/><rect class="cls-8" x="64.25" y="271.99" width="4" height="1.2" transform="translate(-58.89 21.52) rotate(-12.83)"/><rect class="cls-8" x="109.76" y="261.69" width="4" height="1.2" transform="translate(-55.47 31.37) rotate(-12.83)"/><rect class="cls-8" x="66.56" y="278.23" width="4" height="1.2" transform="translate(-127.33 68.89) rotate(-29.2)"/><rect class="cls-8" x="107.38" y="255.51" width="4" height="1.2" transform="translate(-111.09 85.97) rotate(-29.22)"/><rect class="cls-8" x="84.17" y="242.51" width="1.2" height="4" transform="translate(-42.74 19.32) rotate(-10.4)"/><rect class="cls-8" x="92.56" y="288.4" width="1.2" height="4" transform="translate(-50.83 21.56) rotate(-10.39)"/><rect class="cls-8" x="77" y="245.2" width="1.2" height="4" transform="translate(-111.15 69.71) rotate(-29.33)"/><rect class="cls-8" x="99.77" y="285.81" width="1.2" height="4" transform="translate(-128.16 86.1) rotate(-29.34)"/><rect class="cls-8" x="89.5" y="243.59" width="4" height="1.2" transform="translate(-161.06 309.12) rotate(-83.87)"/><rect class="cls-8" x="84.44" y="290.07" width="4" height="1.2" transform="translate(-211.79 345.6) rotate(-83.87)"/><rect class="cls-8" x="95.86" y="245.33" width="4" height="1.2" transform="translate(-166.8 242.25) rotate(-67.5)"/><rect class="cls-8" x="78.07" y="288.43" width="4" height="1.2" transform="translate(-217.59 252.36) rotate(-67.49)"/><polygon class="cls-8" points="89.37 251.8 90.37 251.8 89.87 267.2 98.67 275 98.07 275.7 88.97 267.6 89.37 251.8"/></g></g></svg>