<?xml version="1.0" encoding="utf-8"?>
<!-- Generator: Adobe Illustrator 24.0.3, SVG Export Plug-In . SVG Version: 6.00 Build 0)  -->
<svg version="1.1" id="Capa_1" xmlns="http://www.w3.org/2000/svg" xmlns:xlink="http://www.w3.org/1999/xlink" x="0px" y="0px"
	 viewBox="0 0 792 612" style="enable-background:new 0 0 792 612;" xml:space="preserve">
<style type="text/css">
	.st0{fill:#FFFFFF;stroke:#FFFFFF;stroke-width:2.81;stroke-miterlimit:10;}
	.st1{fill:#2A80B8;}
	.st2{fill:#07C9DC;}
	.st3{fill:#F2B52A;stroke:#023B51;stroke-width:2.47;stroke-miterlimit:10;}
	.st4{fill:#FFFFFF;}
	.st5{fill:#1F3059;}
</style>
<title>FAN VISUAL 2019_6_2</title>
<path class="st0" d="M542.9,278.1c-2.1-2.2-3.2-5.1-3.3-8.2V72.1c0-24.6-18-46.5-43-49.6c-30.2-3.8-56,19.2-56,47.9v102.2
	c0,6.9-5.6,12.5-12.5,12.5c-0.8,0-1.6-0.1-2.4-0.2c-3.2-0.7-6.5-1-9.8-1c-18.2-0.1-34.9,9.8-43.6,25.8c-3,5.5-9.6,8-15.5,6
	c-20.9-6.7-43.8,1.1-56.2,19.3c-3.4,4.8-9.6,6.6-15.1,4.4c-6.9-2.7-14.2-3.8-21.6-3.2c-26.2,1.9-45.9,24.4-45.9,50.1v153.3
	c0,34.3,26.2,62.7,60,67.1v81.5c0.1,6.7,5.6,12.2,12.4,12.1h210.6c6.7,0.1,12.3-5.3,12.4-12.1c0,0,0,0,0,0v-44.8
	c0-2.4,0.7-4.7,2.1-6.6c25.5-37,39.2-80.9,39.1-125.9V309.2C554.7,297.8,550.5,286.7,542.9,278.1z"/>
<path class="st1" d="M537.6,404.3c0,40-13.4,103-36.6,135.5c-1.4,1.9-2.2,4.2-2.3,6.5l-1.7,33.5c-0.3,6.6-5.7,11.8-12.4,11.8H322.3
	c-6.6,0-12-5.2-12.4-11.8l-3-71.1c0-6.6-5.2-12-11.8-12.2l0,0c-25-0.1-45.2-20.4-45.1-45.4v-31.8l0.5-15.4
	c-0.1-7,5.5-12.7,12.5-12.8c0.9,0,1.7,0.1,2.6,0.2c2.9,0.6,5.8,0.9,8.7,1h0.9c15.3,0,22.1-7.3,30.2-12.4c4.1-2.6,9.3-2.6,13.5,0
	c8.1,5.1,15.7,12.7,30.5,12.7h0.5c16.8-0.2,32.3-9,41.1-23.2c1.9-2.9,5.4-4.4,8.8-3.6c2.9,0.6,5.8,0.9,8.7,0.9h11.7
	c1.2,0,2.3,0.3,3.4,0.7h40.5c1.1-0.5,2.3-0.7,3.5-0.7h11c6.4,0,10.2-3.8,10.2-8.6v-7.8c0-4.7-3.8-8.5-8.5-8.6h0h-70.8
	c-12,0-23-8.1-25.2-19.9c-2.7-13.5,5.9-26.6,19.4-29.4c1.6-0.3,3.2-0.5,4.8-0.5h104.3c13.7,0,24.8,11.2,24.7,24.9c0,0,0,0,0,0V404.3
	z"/>
<path class="st2" d="M292.5,496.5c-4.8-9.4-28.1-13.3-49.9-13.2c-0.1,2-0.3,4-0.4,6.1c7.2,4.7,15.7,7.2,24.3,7.2l0,0
	c6.6,0.2,11.9,5.6,11.8,12.2l3,71.1c0.3,6.6,5.7,11.8,12.4,11.8h8.8C315.7,561.8,306.8,521.5,292.5,496.5z"/>
<path class="st1" d="M305.9,333.8c0,6.5-2.7,12.8-7.4,17.3c-4.8,4.6-11.2,6.7-17.8,6.9c-13.4-0.2-24.3-11.1-24.3-24.2V284
	c0-13.3,11.1-24.2,24.7-24.2s24.7,10.8,24.7,24.2L305.9,333.8z"/>
<path class="st1" d="M380.1,274.3c-19.1,17.7-20.2,47.6-2.4,66.7c0.3,0.3,0.5,0.6,0.8,0.9c-3.4,9.8-12.6,16.4-22.9,16.5
	c-6.6,0-12.9-2.5-17.6-7c-4.7-4.5-7.3-10.7-7.3-17.2v-72.9c0-13.3,11.1-24.2,24.7-24.2s24.7,10.9,24.7,24.2V274.3z"/>
<path class="st1" d="M454.3,252.3c0,4.6-3.8,8.3-8.4,8.3c-9,0.1-23.2,0.2-32.4,0.5c-4.6,0.2-8.5-3.4-8.7-8.1c0-0.1,0-0.2,0-0.2v-20
	c0-11.7,8-22.4,19.8-24.7c15.8-3,29.7,8.8,29.7,23.7V252.3z"/>
<path class="st1" d="M528.5,248.6c-0.1,7-5.8,12.6-12.8,12.5c-0.1,0-0.2,0-0.2,0c-7.4-0.1-16.6-0.3-23.9-0.4
	c-6.9,0-12.5-5.6-12.6-12.5V71.1c0-11.7,8.1-22.4,19.8-24.7c15.8-3,29.7,8.8,29.7,23.7L528.5,248.6z"/>
<path class="st3" d="M426.4,444.1c5.3-1.4,8.4-6.7,7-12c0,0,0-0.1,0-0.1c-1.6-5.3-7.1-8.3-12.4-6.9l-2.2,0.6l-0.4-7.2
	c-0.3-6-5.5-10.6-11.5-10.3s-10.6,5.5-10.3,11.5l0,0l0.7,11.8l-10.9,2.9l-0.4-7.2c-0.5-6-5.7-10.5-11.7-10
	c-5.8,0.5-10.2,5.4-10,11.2l0.7,11.8l-6.4,1.7c-5.3,1.4-8.4,6.7-7,12c0,0,0,0.1,0,0.1c1.6,5.3,7.1,8.4,12.4,6.9l2.2-0.6l0.8,13.3
	l-5.8,1.6c-5.3,1.4-8.4,6.7-7,12c0,0,0,0.1,0,0.1l0,0c1.6,5.3,7.1,8.3,12.4,6.9l1.6-0.4l0.4,7.3c0.4,5.9,5.6,10.4,11.5,10l0,0
	c5.9-0.3,10.5-5.3,10.3-11.2l-0.7-11.9l10.9-2.9l0.4,7.3c0.3,6,5.5,10.6,11.5,10.3c6-0.3,10.6-5.5,10.3-11.5l-0.7-11.9l7-1.9
	c5.3-1.4,8.4-6.7,7-12c0,0,0-0.1,0-0.1l0,0c-1.6-5.3-7.1-8.3-12.4-6.9l-2.8,0.8l-0.8-13.3L426.4,444.1z M399.4,465l-10.9,2.9
	l-0.8-13.3l10.9-2.9L399.4,465z"/>
<path class="st4" d="M426.4,444.1c5.3-1.4,8.4-6.7,7-12c0,0,0-0.1,0-0.1c-1.6-5.3-7.1-8.3-12.4-6.9l-2.2,0.6l-0.4-7.2
	c-0.3-6-5.5-10.6-11.5-10.3s-10.6,5.5-10.3,11.5l0,0l0.7,11.8l-10.9,2.9l-0.4-7.2c-0.5-6-5.7-10.5-11.7-10
	c-5.8,0.5-10.2,5.4-10,11.2l0.7,11.8l-6.4,1.7c-5.3,1.4-8.4,6.7-7,12c0,0,0,0.1,0,0.1c1.6,5.3,7.1,8.4,12.4,6.9l2.2-0.6l0.8,13.3
	l-5.8,1.6c-5.3,1.4-8.4,6.7-7,12c0,0,0,0.1,0,0.1l0,0c1.6,5.3,7.1,8.3,12.4,6.9l1.6-0.4l0.4,7.3c0.4,5.9,5.6,10.4,11.5,10l0,0
	c5.9-0.3,10.5-5.3,10.3-11.2l-0.7-11.9l10.9-2.9l0.4,7.3c0.3,6,5.5,10.6,11.5,10.3c6-0.3,10.6-5.5,10.3-11.5l-0.7-11.9l7-1.9
	c5.3-1.4,8.4-6.7,7-12c0,0,0-0.1,0-0.1l0,0c-1.6-5.3-7.1-8.3-12.4-6.9l-2.8,0.8l-0.8-13.3L426.4,444.1z M399.4,465l-10.9,2.9
	l-0.8-13.3l10.9-2.9L399.4,465z"/>
<polygon class="st1" points="250.5,400.8 250,373.4 305.9,358 343,371.8 380.1,349.5 454.3,349.5 491.4,332.2 496.3,349.5 
	485.3,371.8 367.7,397.3 "/>
<polygon class="st1" points="294.6,477.3 286,502.6 294.6,573.5 296.5,591.7 330.6,591.7 311.6,485 "/>
<path class="st1" d="M278.2,498h22.1l0,0v93.7l0,0h-20.4c-1,0-1.8-0.8-1.8-1.8l0,0V498L278.2,498z"/>
<path class="st5" d="M544.1,278.9c-2.1-2.2-3.2-5.1-3.3-8.2V73c0-24.6-18-46.5-43-49.6c-30.2-3.8-56,19.2-56,47.9v102.1
	c0,6.9-5.6,12.5-12.5,12.5c-0.8,0-1.5-0.1-2.3-0.2c-3.2-0.7-6.5-1-9.8-1c-18.2-0.1-34.9,9.8-43.6,25.8c-3,5.5-9.6,8-15.5,6
	c-4.9-1.6-10-2.4-15.1-2.4c-16.4,0-31.8,8.1-41.1,21.6c-3.4,4.8-9.6,6.6-15.1,4.4c-6.9-2.7-14.3-3.8-21.6-3.2
	c-26.2,1.8-45.9,24.4-45.9,50.1v153.3c0,36.9,30.4,67,67.9,67.7c0.4,0,0.7,0.1,1.1,0.1c6.5,0.1,11.9-5.2,12-11.7s-5.2-11.9-11.7-12
	l0,0c-24.9,0-45.1-19.8-45.1-44.1v-30.9l0.5-15c0-6.9,5.7-12.5,12.7-12.5c0.8,0,1.6,0.1,2.4,0.3c2.9,0.6,5.8,0.9,8.7,1h0.9
	c15.3,0,22.1-7.1,30.2-12c4.1-2.5,9.3-2.5,13.4,0c8.1,5,15.7,12.3,30.5,12.3h0.5c16.6-0.2,32.1-8.6,41.1-22.6
	c1.9-2.9,5.5-4.3,8.9-3.5c2.9,0.6,5.8,0.9,8.7,0.9h11.7c1.2,0,2.3,0.2,3.4,0.7h40.5c1.1-0.5,2.3-0.7,3.5-0.7h11
	c6.5,0,10.2-3.7,10.2-8.3v-7.5c-0.1-4.6-3.9-8.4-8.5-8.3h-70.8c-12,0-23-7.9-25.2-19.4c-3.1-15.4,9-29,24.2-29h104.3
	c13.7,0,24.7,10.8,24.7,24.2v84.8c0,38.9-13.4,100.1-36.6,131.6c-1.4,1.8-2.2,4-2.3,6.3l-1.7,32.6c-0.4,6.5-5.8,11.5-12.4,11.5
	h-84.4c-6.7-0.2-12.2,5.1-12.4,11.7c-0.2,6.7,5.1,12.2,11.7,12.4c0.2,0,0.5,0,0.7,0h108.5c6.7,0.1,12.3-5.3,12.4-12.1c0,0,0,0,0,0
	v-44.7c0-2.4,0.7-4.7,2.1-6.6c25.5-37,39.2-80.9,39.1-125.9V310C555.9,298.6,551.7,287.5,544.1,278.9z M293.5,334.9
	c0,6.5-2.7,12.8-7.4,17.3c-4.8,4.6-11.2,6.6-17.8,6.9c-13.4-0.2-24.3-11.1-24.3-24.2v-49.8c0-13.3,11.1-24.2,24.7-24.2
	c13.6,0,24.7,10.9,24.7,24.2V334.9z M367.7,275.5c-19.1,17.8-20.2,47.6-2.4,66.7c0.3,0.3,0.5,0.6,0.8,0.9
	c-3.4,9.8-12.6,16.4-22.9,16.5c-6.6,0-12.9-2.5-17.6-7c-4.7-4.5-7.3-10.7-7.3-17.2v-72.9c0-13.3,11.1-24.2,24.7-24.2
	s24.7,10.9,24.7,24.2V275.5z M441.9,253.5c0,4.6-3.8,8.3-8.4,8.3c-9,0.1-23.2,0.2-32.4,0.5c-4.6,0.2-8.6-3.5-8.7-8.1
	c0-0.1,0-0.1,0-0.2V234c0-11.7,8.1-22.4,19.8-24.7c15.8-3,29.7,8.8,29.7,23.7V253.5z M516.1,249.7c-0.1,7-5.8,12.6-12.8,12.5
	c-0.1,0-0.2,0-0.2,0c-7.4-0.1-16.6-0.3-23.9-0.4c-6.9,0-12.5-5.6-12.6-12.5V72.2c0-11.7,8-22.4,19.8-24.7c15.8-3,29.7,8.8,29.7,23.7
	L516.1,249.7z"/>
</svg>
