<?xml version="1.0" encoding="utf-8"?>
<!-- Generator: Adobe Illustrator 24.0.3, SVG Export Plug-In . SVG Version: 6.00 Build 0)  -->
<svg version="1.1" id="Capa_1" xmlns="http://www.w3.org/2000/svg" xmlns:xlink="http://www.w3.org/1999/xlink" x="0px" y="0px"
	 viewBox="0 0 512 512" style="enable-background:new 0 0 512 512;" xml:space="preserve">
<style type="text/css">
	.st0{opacity:0.5;fill:#1BBB9A;}
	.st1{opacity:0.1;fill:#590BB2;enable-background:new    ;}
	.st2{fill:#F5F4F9;}
	.st3{fill:#E8E6ED;}
	.st4{fill:#C182F9;}
	.st5{fill:#8E44AC;}
	.st6{fill:#FDD250;}
	.st7{fill:#FFE783;}
	.st8{fill:#FFC136;}
	.st9{fill:#FFAB15;}
	.st10{fill:#FFD5B8;}
	.st11{fill:#FFBE92;}
	.st12{fill:#FFA052;}
	.st13{fill:#FF8736;}
	.st14{fill:#D6B0FF;}
	.st15{fill:#B557FF;}
	.st16{fill:#CECAE0;}
	.st17{fill:#9A58B4;}
</style>
<path class="st0" d="M505.6,291.9c-11.8-34.6-38.1-60.2-69.9-72.2c-16.4-6.2-27.3-21.9-27.6-39.4c0-0.4,0-0.8,0-1.2
	c-1.5-64.6-55.5-116.3-120.1-115.2c-38.1,0.7-71.8,19.4-92.9,47.9c-18.2,24.6-46.5,40-77.1,39.9c-0.9,0-1.8,0-2.7,0
	C53.5,153.2,0.8,206.3,0,268.2c-0.9,65.9,52.3,119.7,118,119.7c50.9,0,94.3-32.3,110.9-77.5c4.3-11.8,17.2-18.2,29.3-14.8
	c0.2,0,0.3,0.1,0.5,0.1c11.1,3.1,18.5,13.6,17.5,25.1c-1.2,15.4,0.6,31.3,5.8,46.8c20.5,61.1,87.2,94.7,148.5,74.7
	C493.2,421.9,526.9,354.1,505.6,291.9L505.6,291.9z"/>
<path class="st1" d="M456,93.7v284.2c0,8.3-6.7,15-15,15H71c-8.3,0-15-6.7-15-15V93.7c0-8.3,6.7-15,15-15h370
	C449.3,78.7,456,85.4,456,93.7L456,93.7z"/>
<path class="st2" d="M456,114.7v284.2c0,8.3-6.7,15-15,15H71c-8.3,0-15-6.7-15-15V114.7c0-8.3,6.7-15,15-15h370
	C449.3,99.7,456,106.4,456,114.7L456,114.7z"/>
<path class="st3" d="M92.4,147.8h327.1v210.3H92.4L92.4,147.8z"/>
<path class="st4" d="M456,147.8v-33.2c0-8.3-6.7-15-15-15H71c-8.3,0-15,6.7-15,15v33.2H456z"/>
<g>
	<path class="st5" d="M89.1,123.7v0.1c0,2.8,2.2,5,5,5s5-2.2,5-5v-0.1c0-2.8-2.2-5-5-5S89.1,120.9,89.1,123.7z"/>
	<path class="st5" d="M108.4,123.7v0.1c0,2.8,2.2,5,5,5s5-2.2,5-5v-0.1c0-2.8-2.2-5-5-5S108.4,120.9,108.4,123.7z"/>
	<path class="st5" d="M127.7,123.7v0.1c0,2.8,2.2,5,5,5s5-2.2,5-5v-0.1c0-2.8-2.2-5-5-5S127.7,120.9,127.7,123.7z"/>
	<path class="st5" d="M456,125.3c2.8,0,5-2.2,5-5v-5.6c0-11-9-20-20-20H71c-11,0-20,9-20,20v33.2c0,2.8,2.2,5,5,5h395v246.1
		c0,5.5-4.5,10-10,10H71c-5.5,0-10-4.5-10-10V175.4c0-2.8-2.2-5-5-5s-5,2.2-5,5v223.5c0,11,9,20,20,20h370c11,0,20-9,20-20V147.8
		c0-2.8-2.2-5-5-5H61v-28.2c0-5.5,4.5-10,10-10h370c5.5,0,10,4.5,10,10v5.6C451,123.1,453.2,125.3,456,125.3L456,125.3z"/>
</g>
<path class="st6" d="M133.1,380h-16c-1.7,0-3-1.3-3-3v-90.9c0-1.7,1.3-3,3-3h16c1.7,0,3,1.3,3,3V377
	C136.1,378.7,134.8,380,133.1,380z"/>
<path class="st7" d="M100.4,380h-16c-1.7,0-3-1.3-3-3v-37.7c0-1.7,1.3-3,3-3h16c1.7,0,3,1.3,3,3V377
	C103.4,378.7,102.1,380,100.4,380z"/>
<path class="st6" d="M165.9,380h-16c-1.7,0-3-1.3-3-3v-48.3c0-1.7,1.3-3,3-3h16c1.7,0,3,1.3,3,3V377
	C168.9,378.7,167.5,380,165.9,380z"/>
<path class="st8" d="M198.6,380h-16c-1.7,0-3-1.3-3-3v-96.9c0-1.7,1.3-3,3-3h16c1.7,0,3,1.3,3,3V377
	C201.6,378.7,200.2,380,198.6,380z"/>
<path class="st9" d="M231.3,380h-16c-1.7,0-3-1.3-3-3v-84.3c0-1.7,1.3-3,3-3h16c1.7,0,3,1.3,3,3V377
	C234.3,378.7,232.9,380,231.3,380z"/>
<path class="st10" d="M264,380h-16c-1.7,0-3-1.3-3-3V256.1c0-1.7,1.3-3,3-3h16c1.7,0,3,1.3,3,3V377C267,378.7,265.7,380,264,380z"/>
<path class="st11" d="M296.7,380h-16c-1.7,0-3-1.3-3-3v-78.3c0-1.7,1.3-3,3-3h16c1.7,0,3,1.3,3,3V377
	C299.7,378.7,298.4,380,296.7,380z"/>
<path class="st12" d="M329.4,380h-16c-1.7,0-3-1.3-3-3V250.1c0-1.7,1.3-3,3-3h16c1.7,0,3,1.3,3,3V377
	C332.4,378.7,331.1,380,329.4,380z"/>
<path class="st13" d="M362.1,380h-16c-1.7,0-3-1.3-3-3V262.7c0-1.7,1.3-3,3-3h16c1.7,0,3,1.3,3,3V377
	C365.1,378.7,363.8,380,362.1,380z"/>
<path class="st14" d="M394.9,380h-16c-1.7,0-3-1.3-3-3V238.7c0-1.7,1.3-3,3-3h16c1.7,0,3,1.3,3,3V377
	C397.9,378.7,396.5,380,394.9,380z"/>
<path class="st4" d="M427.6,380h-16c-1.7,0-3-1.3-3-3V190.1c0-1.7,1.3-3,3-3h16c1.7,0,3,1.3,3,3V377
	C430.6,378.7,429.2,380,427.6,380z"/>
<path class="st15" d="M149.3,194.4c0-9.2-7.5-16.6-16.6-16.6s-16.6,7.5-16.6,16.6c0,4.5,1.8,8.6,4.8,11.6c-2.9,3-4.8,7.1-4.8,11.6
	c0,2.8,2.2,5,5,5s5-2.2,5-5c0-3.6,3-6.6,6.6-6.6s6.6,3,6.6,6.6c0,2.8,2.2,5,5,5s5-2.2,5-5c0-4.5-1.8-8.6-4.8-11.6
	C147.5,203,149.3,198.9,149.3,194.4L149.3,194.4z M132.7,187.8c3.6,0,6.6,3,6.6,6.6s-3,6.6-6.6,6.6s-6.6-3-6.6-6.6
	C126.1,190.7,129.1,187.8,132.7,187.8z"/>
<path class="st16" d="M225,196.9h90c2.8,0,5.1-2.3,5.1-5.1s-2.3-5.1-5.1-5.1h-90c-2.8,0-5.1,2.3-5.1,5.1S222.1,196.9,225,196.9
	L225,196.9z"/>
<path class="st11" d="M175.1,196.9h24.6c2.8,0,5.1-2.3,5.1-5.1s-2.3-5.1-5.1-5.1h-24.6c-2.8,0-5.1,2.3-5.1,5.1
	S172.2,196.9,175.1,196.9z"/>
<path class="st16" d="M175.1,217.2h139.9c2.8,0,5.1-2.3,5.1-5.1s-2.3-5.1-5.1-5.1H175.1c-2.8,0-5.1,2.3-5.1,5.1
	C169.9,214.9,172.2,217.2,175.1,217.2L175.1,217.2z"/>
<circle class="st11" cx="122.6" cy="242.4" r="5.6"/>
<circle class="st11" cx="139.5" cy="242.4" r="5.6"/>
<circle class="st11" cx="156.4" cy="242.4" r="5.6"/>
<path class="st17" d="M380.9,83.3c-2.8,0-5-2.2-5-5c0-3.3-2.7-6-6-6c-2.8,0-5-2.2-5-5s2.2-5,5-5c3.3,0,6-2.7,6-6c0-2.8,2.2-5,5-5
	s5,2.2,5,5c0,3.3,2.7,6,6,6c2.8,0,5,2.2,5,5s-2.2,5-5,5c-3.3,0-6,2.7-6,6C385.9,81.1,383.6,83.3,380.9,83.3z"/>
<path class="st7" d="M185.9,69.7c-2.8,0-5-2.2-5-5c0-3.3-2.7-6-6-6c-2.8,0-5-2.2-5-5s2.2-5,5-5c3.3,0,6-2.7,6-6c0-2.8,2.2-5,5-5
	s5,2.2,5,5c0,3.3,2.7,6,6,6c2.8,0,5,2.2,5,5s-2.2,5-5,5c-3.3,0-6,2.7-6,6C190.9,67.4,188.6,69.7,185.9,69.7z"/>
<path class="st12" d="M288.7,464.2c-1.3,0-2.6-0.5-3.5-1.5l-11-11c-2-2-2-5.1,0-7.1l11-11c0.9-0.9,2.2-1.5,3.5-1.5
	c1.3,0,2.6,0.5,3.5,1.5l11,11c2,2,2,5.1,0,7.1l-11,11C291.3,463.7,290,464.2,288.7,464.2z M284.8,448.2l3.9,3.9l3.9-3.9l-3.9-3.9
	L284.8,448.2z"/>
<path class="st17" d="M240.3,474.3c-1.3,0-2.6-0.5-3.5-1.5l-11-11c-0.9-0.9-1.5-2.2-1.5-3.5s0.5-2.6,1.5-3.5l11-11
	c0.9-0.9,2.2-1.5,3.5-1.5s2.6,0.5,3.5,1.5l11,11c0.9,0.9,1.5,2.2,1.5,3.5s-0.5,2.6-1.5,3.5l-11,11
	C242.8,473.9,241.6,474.3,240.3,474.3L240.3,474.3z M236.4,458.4l3.9,3.9l3.9-3.9l-3.9-3.9L236.4,458.4z"/>
</svg>
