<?xml version="1.0" encoding="utf-8"?>
<!-- Generator: Adobe Illustrator 24.0.3, SVG Export Plug-In . SVG Version: 6.00 Build 0)  -->
<svg version="1.1" id="Capa_1" xmlns="http://www.w3.org/2000/svg" xmlns:xlink="http://www.w3.org/1999/xlink" x="0px" y="0px"
	 viewBox="0 0 512 512" style="enable-background:new 0 0 512 512;" xml:space="preserve">
<style type="text/css">
	.st0{opacity:0.5;}
	.st1{fill:#1BBB9A;}
	.st2{fill:#9A58B4;}
	.st3{fill:#FFA052;}
	.st4{fill:#FDD250;}
	.st5{fill:#FFFFFF;}
</style>
<g class="st0">
	<path class="st1" d="M180.3,0C79.6,0.5,29.1,173.6,10.2,262.6S11,534.1,157.3,509.8c23.6-3.9,29.2-4.7,48.6-14.5
		c34.7-17.4,75.7-29.7,112.8-33.4c15.2-1.5,34.4-6.5,44.6-8.4c81.6-14.7,164.9-93.8,139.7-176.6c-18.9-62.2-74.4-123.3-130-119.8
		c-30.5,1.9-63-16-69.5-35.8C282.4,56.9,258-0.4,180.3,0L180.3,0z"/>
</g>
<path class="st2" d="M76.4,19.1h-4.6v-4.6c0-4.2-3.3-7.6-7.6-7.6c-4.2,0-7.6,3.3-7.6,7.6v4.6H52c-4.2,0-7.6,3.3-7.6,7.6
	s3.3,7.6,7.6,7.6h4.6v4.6c0,4.2,3.3,7.6,7.6,7.6s7.6-3.3,7.6-7.6v-4.6h4.6c4.2,0,7.6-3.3,7.6-7.6S80.5,19.1,76.4,19.1z"/>
<path class="st3" d="M451.2,421.3h-3v-3c0-2.8-2.2-5-5-5s-5,2.2-5,5v3h-3c-2.8,0-5,2.2-5,5s2.2,5,5,5h3v3c0,2.8,2.2,5,5,5s5-2.2,5-5
	v-3h3c2.8,0,5-2.2,5-5S453.9,421.3,451.2,421.3z"/>
<path class="st4" d="M44.2,89.9h-4.1v-4.1c0-3.8-3-6.8-6.8-6.8s-6.8,3-6.8,6.8v4.1h-4.1c-3.8,0-6.8,3-6.8,6.8s3,6.8,6.8,6.8h4.1v4.1
	c0,3.8,3,6.8,6.8,6.8s6.8-3,6.8-6.8v-4.1h4.1c3.8,0,6.8-3,6.8-6.8S47.9,89.9,44.2,89.9z"/>
<g>
	<path class="st5" d="M397.8,317.5c-33.5-33-83.3-59.8-149.3-59.8c-66,0-115.9,26.7-149.3,59.8c-17.4,17-14.7,31.7,11,23.4
		c21.9-7.1,71.3-22.4,138.3-22.4c67.5,0,116.5,15.3,138.4,22.4C412.6,349.3,415.3,334.6,397.8,317.5"/>
	<polygon class="st5" points="93.2,188.2 82.6,188.2 82.6,179.7 115.3,179.7 115.3,188.2 104.7,188.2 104.7,222.9 93.2,222.9 	"/>
	<polygon class="st5" points="127.7,179.7 158.2,179.7 158.2,187.8 139.3,187.8 139.3,196.8 157.1,196.8 157.1,204.9 139.3,204.9 
		139.3,214.7 158.8,214.7 158.8,222.9 127.7,222.9 	"/>
	<polygon class="st5" points="175,179.7 186.6,179.7 186.6,214.3 202.5,214.3 202.5,222.9 175,222.9 	"/>
	<polygon class="st5" points="212.7,179.7 243.1,179.7 243.1,187.8 224.2,187.8 224.2,196.8 242,196.8 242,204.9 224.2,204.9 
		224.2,214.7 243.8,214.7 243.8,222.9 212.7,222.9 	"/>
	<path class="st5" d="M290,221.8c-3.3,0.8-6.1,1.8-12,1.8c-10.6,0-24-5.8-24-22.1c0-15,10.5-22.5,23.9-22.5c4.5,0,8,1,12,2.3
		l-0.9,9.3c-3.7-2.1-6.1-3-10.4-3c-7.7,0-12.7,5.9-12.7,13.9c0,8.5,6,13.6,13.6,13.6c3.8,0,6.9-1,10-2.3L290,221.8z"/>
	<path class="st5" d="M319.6,179c14.2,0,21.6,8.5,21.6,22.3c0,13.7-7.5,22.3-21.6,22.3c-14.1,0-21.6-8.7-21.6-22.3
		C298,187.5,305.4,179,319.6,179 M319.6,215c7,0,9.8-6.7,9.8-13.8c0-7.4-2.8-13.8-9.8-13.8c-7,0-9.8,6.3-9.8,13.8
		C309.9,208.4,312.7,215,319.6,215"/>
	<polygon class="st5" points="354.1,179.7 371.3,179.7 380.2,208.8 380.2,208.8 389.2,179.7 406.5,179.7 406.5,222.9 395.4,222.9 
		395.6,188.7 395.5,188.7 384.5,222.9 375,222.9 364.7,188.7 364.6,188.7 364.9,222.9 354.1,222.9 	"/>
</g>
</svg>
