<?xml version="1.0" encoding="utf-8"?>
<!-- Generator: Adobe Illustrator 24.0.3, SVG Export Plug-In . SVG Version: 6.00 Build 0)  -->
<svg version="1.1" id="Capa_1" xmlns="http://www.w3.org/2000/svg" xmlns:xlink="http://www.w3.org/1999/xlink" x="0px" y="0px"
	 viewBox="0 0 512 512" style="enable-background:new 0 0 512 512;" xml:space="preserve">
<style type="text/css">
	.st0{opacity:0.5;fill:#1BBB9A;}
	.st1{opacity:0.1;fill:#590BB2;enable-background:new    ;}
	.st2{fill:#F5F4F9;}
	.st3{fill:#E8E6ED;}
	.st4{fill:#C182F9;}
	.st5{fill:#FFFFFF;}
	.st6{fill:#DDD9E4;}
	.st7{fill:#2A80B8;}
	.st8{fill:#3597DA;}
	.st9{fill:#8E44AC;}
	.st10{fill:#F29B11;}
	.st11{fill:#1BBB9A;}
</style>
<path class="st0" d="M382.6,174c-0.2,0-0.4,0-0.6,0c-32-0.1-62.4-13.8-83.4-38c-31.4-36-77.6-58.6-129.1-58.4
	C76,78-1.2,156.6,0,250.1c1.2,93,77,168,170.2,168c26.3,0,51.3-6,73.5-16.7c19.2-9.2,42.1-6.8,59,6.2c21.9,16.7,49.2,26.7,78.8,26.8
	c71.4,0.1,130-58,130.4-129.4C512.4,232.9,454.6,174.4,382.6,174z"/>
<path class="st1" d="M456,94.9v284.2c0,8.3-6.7,15-15,15H71c-8.3,0-15-6.7-15-15V94.9c0-8.3,6.7-15,15-15h370
	C449.3,79.9,456,86.6,456,94.9L456,94.9z"/>
<path class="st2" d="M456,115.9v284.2c0,8.3-6.7,15-15,15H71c-8.3,0-15-6.7-15-15V115.9c0-8.3,6.7-15,15-15h370
	C449.3,100.9,456,107.6,456,115.9L456,115.9z"/>
<path class="st3" d="M92.4,149.1h327.1v108.2H92.4L92.4,149.1z"/>
<path class="st4" d="M456,149.1v-33.2c0-8.3-6.7-15-15-15H71c-8.3,0-15,6.7-15,15v33.2H456z"/>
<path class="st5" d="M175.5,280.3H92.5c-2.1,0-3.7-1.7-3.7-3.7v-66.8c0-2.1,1.7-3.7,3.7-3.7h82.9c2.1,0,3.7,1.7,3.7,3.7v66.8
	C179.2,278.6,177.5,280.3,175.5,280.3z"/>
<path class="st6" d="M167.3,316.6h-66.6c-2.8,0-5.1-2.3-5.1-5.1s2.3-5.1,5.1-5.1h66.6c2.8,0,5.1,2.3,5.1,5.1
	S170.1,316.6,167.3,316.6z"/>
<path class="st5" d="M297.5,280.3h-82.9c-2.1,0-3.7-1.7-3.7-3.7v-66.8c0-2.1,1.7-3.7,3.7-3.7h82.9c2.1,0,3.7,1.7,3.7,3.7v66.8
	C301.2,278.6,299.5,280.3,297.5,280.3z"/>
<path class="st6" d="M289.3,316.6h-66.6c-2.8,0-5.1-2.3-5.1-5.1s2.3-5.1,5.1-5.1h66.6c2.8,0,5.1,2.3,5.1,5.1
	S292.1,316.6,289.3,316.6z"/>
<path class="st5" d="M419.5,280.3h-82.9c-2.1,0-3.7-1.7-3.7-3.7v-66.8c0-2.1,1.7-3.7,3.7-3.7h82.9c2.1,0,3.7,1.7,3.7,3.7v66.8
	C423.2,278.6,421.5,280.3,419.5,280.3z"/>
<path class="st6" d="M411.3,316.6h-66.6c-2.8,0-5.1-2.3-5.1-5.1s2.3-5.1,5.1-5.1h66.6c2.8,0,5.1,2.3,5.1,5.1
	S414.1,316.6,411.3,316.6z"/>
<path class="st7" d="M419.5,201.1h-82.9c-4.8,0-8.7,3.9-8.7,8.7v66.8c0,4.8,3.9,8.7,8.7,8.7h82.9c4.8,0,8.7-3.9,8.7-8.7v-66.8
	C428.2,205,424.3,201.1,419.5,201.1L419.5,201.1z M418.2,238.2h-49.5v-27.1h49.5V238.2z M337.8,211.1h20.9v64.2h-20.9V211.1z
	 M368.7,275.3v-27.1h49.5v27.1H368.7z"/>
<path class="st7" d="M393.3,325.4h-30.6c-2.8,0-5.1,2.3-5.1,5.1c0,2.8,2.3,5.1,5.1,5.1h30.6c2.8,0,5.1-2.3,5.1-5.1
	C398.4,327.7,396.1,325.4,393.3,325.4z"/>
<path class="st6" d="M157,381.6h-46c-1.7,0-3-1.3-3-3V362c0-1.7,1.3-3,3-3h46c1.7,0,3,1.3,3,3v16.7C160,380.3,158.7,381.6,157,381.6
	z"/>
<path class="st6" d="M280.1,381.6h-46c-1.7,0-3-1.3-3-3V362c0-1.7,1.3-3,3-3h46c1.7,0,3,1.3,3,3v16.7
	C283.1,380.3,281.7,381.6,280.1,381.6z"/>
<path class="st6" d="M403.1,381.6h-46c-1.7,0-3-1.3-3-3V362c0-1.7,1.3-3,3-3h46c1.7,0,3,1.3,3,3v16.7
	C406.1,380.3,404.8,381.6,403.1,381.6z"/>
<path class="st8" d="M257.3,384.6l31.3,84.2c1.3,3.5,6.2,3.9,8,0.6l17.8-31.7c0.4-0.7,1-1.3,1.7-1.7l31.7-17.8
	c3.3-1.8,2.9-6.7-0.6-8L263,378.9C259.5,377.6,256,381.1,257.3,384.6L257.3,384.6z"/>
<g>
	<path class="st9" d="M89.1,124.9v0.1c0,2.8,2.2,5,5,5s5-2.2,5-5v-0.1c0-2.8-2.2-5-5-5S89.1,122.2,89.1,124.9z"/>
	<path class="st9" d="M108.4,124.9v0.1c0,2.8,2.2,5,5,5s5-2.2,5-5v-0.1c0-2.8-2.2-5-5-5S108.4,122.2,108.4,124.9z"/>
	<path class="st9" d="M127.7,124.9v0.1c0,2.8,2.2,5,5,5s5-2.2,5-5v-0.1c0-2.8-2.2-5-5-5S127.7,122.2,127.7,124.9z"/>
	<path class="st9" d="M441,95.9H71c-11,0-20,9-20,20v33.2c0,2.8,2.2,5,5,5h365.7c2.8,0,5-2.2,5-5s-2.2-5-5-5H61v-28.2
		c0-5.5,4.5-10,10-10h370c5.5,0,10,4.5,10,10v284.2c0,5.5-4.5,10-10,10h-86.9c-1-2.1-2.8-3.8-5.1-4.6l-84.2-31.3
		c-3.5-1.3-7.3-0.5-10,2.2c-2.6,2.6-3.5,6.5-2.2,10l8.8,23.8H71c-5.5,0-10-4.5-10-10V176.6c0-2.8-2.2-5-5-5s-5,2.2-5,5v223.5
		c0,11,9,20,20,20h194.2l18.7,50.4c1.3,3.5,4.4,5.8,8.1,6.1c0.3,0,0.5,0,0.8,0c3.4,0,6.5-1.8,8.2-4.8l17.7-31.6l31.6-17.7
		c1.1-0.6,2.1-1.5,2.9-2.5H441c11,0,20-9,20-20V115.9C461,104.9,452,95.9,441,95.9L441,95.9z M313.7,431.7c-1.5,0.9-2.8,2.1-3.6,3.6
		L292.9,466l-30.4-81.9l81.9,30.4L313.7,431.7z"/>
</g>
<path class="st10" d="M245.1,468.6c-2.8,0-5-2.2-5-5c0-3.3-2.7-6-6-6c-2.8,0-5-2.2-5-5s2.2-5,5-5c3.3,0,6-2.7,6-6c0-2.8,2.2-5,5-5
	s5,2.2,5,5c0,3.3,2.7,6,6,6c2.8,0,5,2.2,5,5s-2.2,5-5,5c-3.3,0-6,2.7-6,6C250.1,466.4,247.8,468.6,245.1,468.6L245.1,468.6z"/>
<path class="st7" d="M175.5,201.1H92.5c-4.8,0-8.7,3.9-8.7,8.7v66.8c0,4.8,3.9,8.7,8.7,8.7h82.9c4.8,0,8.7-3.9,8.7-8.7v-66.8
	C184.2,205,180.3,201.1,175.5,201.1L175.5,201.1z M174.2,211.1v16.6H93.8v-16.6H174.2z M93.8,237.7h54.7v37.6H93.8V237.7z
	 M158.5,275.3v-37.6h15.7v37.6H158.5z"/>
<path class="st7" d="M149.3,325.4h-30.6c-2.8,0-5.1,2.3-5.1,5.1c0,2.8,2.3,5.1,5.1,5.1h30.6c2.8,0,5.1-2.3,5.1-5.1
	C154.4,327.7,152.1,325.4,149.3,325.4z"/>
<path class="st7" d="M245.6,65l-11-11c-2-2-5.1-2-7.1,0l-11,11c-0.9,0.9-1.5,2.2-1.5,3.5s0.5,2.6,1.5,3.5l11,11c1,1,2.3,1.5,3.5,1.5
	s2.6-0.5,3.5-1.5l11-11c0.9-0.9,1.5-2.2,1.5-3.5S246.5,65.9,245.6,65z M231.1,72.5l-3.9-3.9l3.9-3.9l3.9,3.9L231.1,72.5z"/>
<path class="st7" d="M297.5,201.1h-82.9c-4.8,0-8.7,3.9-8.7,8.7v66.8c0,4.8,3.9,8.7,8.7,8.7h82.9c4.8,0,8.7-3.9,8.7-8.7v-66.8
	C306.2,205,302.3,201.1,297.5,201.1L297.5,201.1z M296.2,239.7H270v-28.6h26.2L296.2,239.7L296.2,239.7z M260,211.1v28.6h-44.2
	v-28.6H260z M215.8,249.7H238v25.6h-22.2V249.7z M248,275.3v-25.6h48.2v25.6H248z"/>
<path class="st7" d="M271.3,325.4h-30.6c-2.8,0-5.1,2.3-5.1,5.1c0,2.8,2.3,5.1,5.1,5.1h30.6c2.8,0,5.1-2.3,5.1-5.1
	C276.4,327.7,274.1,325.4,271.3,325.4z"/>
<path class="st10" d="M183.4,46.3c-3.3,0-6-2.7-6-6c0-2.8-2.2-5-5-5s-5,2.2-5,5c0,3.3-2.7,6-6,6c-2.8,0-5,2.2-5,5s2.2,5,5,5
	c3.3,0,6,2.7,6,6c0,2.8,2.2,5,5,5s5-2.2,5-5c0-3.3,2.7-6,6-6c2.8,0,5-2.2,5-5S186.2,46.3,183.4,46.3z"/>
<path class="st11" d="M367.7,65l-11-11c-2-2-5.1-2-7.1,0l-11,11c-0.9,0.9-1.5,2.2-1.5,3.5s0.5,2.6,1.5,3.5l11,11
	c1,1,2.3,1.5,3.5,1.5s2.6-0.5,3.5-1.5l11-11c0.9-0.9,1.5-2.2,1.5-3.5S368.7,65.9,367.7,65z M353.2,72.5l-3.9-3.9l3.9-3.9l3.9,3.9
	L353.2,72.5z"/>
</svg>
