<?xml version="1.0" encoding="utf-8"?>
<!-- Generator: Adobe Illustrator 24.0.3, SVG Export Plug-In . SVG Version: 6.00 Build 0)  -->
<svg version="1.1" id="Capa_1" xmlns="http://www.w3.org/2000/svg" xmlns:xlink="http://www.w3.org/1999/xlink" x="0px" y="0px"
	 viewBox="0 0 512 512" style="enable-background:new 0 0 512 512;" xml:space="preserve">
<style type="text/css">
	.st0{opacity:0.5;}
	.st1{fill:#1BBB9A;}
	.st2{opacity:0.1;}
	.st3{fill:#2626BC;}
	.st4{fill:#2A80B8;}
	.st5{fill:#FFFFFF;}
	.st6{fill:#DBDBDB;}
	.st7{fill:#9A58B4;}
	.st8{fill:#3597DA;}
	.st9{fill:#169F85;}
	.st10{fill:#F29B11;}
	.st11{fill:#8E44AC;}
</style>
<g>
	<g>
		<g class="st0">
			<path class="st1" d="M102.7,38.2c-135.3,119.5,38.8,235.4,22.2,366c-7.4,58.1,16.1,113.6,92.7,107.2
				c93.4-7.7,59.5-97.2,79.1-156.8c33.7-102.5,240.7-78.6,154.9-236.4C396.8,17.5,195.8-44,102.7,38.2L102.7,38.2z"/>
		</g>
		<g>
			<g class="st2">
				<path class="st3" d="M335.9,153.4c21.3-10,36.1-31.7,36.1-56.9c0-34.7-28.1-62.8-62.8-62.8s-62.8,28.1-62.8,62.8v7.8
					c-6.4-3.1-13.6-4.8-21.3-4.8H95c-27.4,0-49.6,22.2-49.6,49.6s22.2,49.6,49.6,49.6h18.6c-7.7,17.3-11.9,36.4-11.9,56.5v0.2
					c-31.9,3-56.9,29.8-56.9,62.5s25,59.6,56.9,62.5v101.7c0,5.5,4.5,10,10,10H268c5.5,0,10-4.5,10-10v-43h64.1
					c6,0,10.6-5.2,9.9-11.2l-10.9-93.2H366c7.8,0,14.1-6.3,14.1-14.1v-65.5C380.1,215.1,363.1,178.8,335.9,153.4L335.9,153.4z"/>
			</g>
			<g>
				<g>
					<g>
						<path class="st4" d="M254.3,135.4h54.9c34.7,0,62.8-28.1,62.8-62.8S343.9,9.8,309.2,9.8s-62.8,28.1-62.8,62.8v54.9
							C246.4,131.9,249.9,135.4,254.3,135.4L254.3,135.4z"/>
					</g>
				</g>
				<g>
					<circle class="st5" cx="280.5" cy="72.6" r="9.3"/>
					<circle class="st5" cx="309.2" cy="72.6" r="9.3"/>
					<circle class="st5" cx="337.9" cy="72.6" r="9.3"/>
				</g>
			</g>
			<g>
				<g>
					<g>
						<g>
							<path class="st5" d="M240.9,92c-76.9,0-139.2,62.3-139.2,139.2v227c0,5.5,4.5,10,10,10H268c5.5,0,10-4.5,10-10v-43h64.1
								c6,0,10.6-5.2,9.9-11.2l-10.9-93.2H366c7.8,0,14.1-6.3,14.1-14.1v-65.5C380.1,154.3,317.8,92,240.9,92L240.9,92z"/>
							<path class="st6" d="M274.7,142.9v44.6c0,2.8-2.2,5-5,5H107.1c15.1-52.2,59.9-91.8,115-99.2h3
								C252.5,93.3,274.7,115.5,274.7,142.9L274.7,142.9z"/>
							<g>
								<g>
									<path class="st6" d="M170.3,311.6v54.9c0,4.4-3.5,7.9-7.9,7.9h-54.9c-2,0-3.9-0.1-5.9-0.3v-125c1.9-0.2,3.9-0.3,5.9-0.3
										c17.3,0,33,7,44.4,18.4C163.3,278.6,170.3,294.3,170.3,311.6L170.3,311.6z"/>
								</g>
							</g>
							<path class="st4" d="M347.3,364.3c-3.6,35.7-74.7,28-74.7,28c-8.8,0-16.3-6.3-17.9-14.9l-2.7-14.9l-1.3-7.4
								c64.8,22.2,93-21.4,93-21.4S348.3,355.1,347.3,364.3z"/>
							<path class="st7" d="M288.6,393c-6.3,0-16-0.7-16-0.7c-8.8,0-16.3-6.3-17.9-14.9l-2.7-14.9c7.4-4.4,90.8,6.7,78.4,23.2
								C325.5,392.4,297,393,288.6,393z"/>
						</g>
					</g>
				</g>
			</g>
			<path class="st8" d="M269.7,174.8H95c-27.4,0-49.6-22.2-49.6-49.6S67.6,75.6,95,75.6h130.2c27.4,0,49.6,22.2,49.6,49.6v44.6
				C274.7,172.5,272.5,174.8,269.7,174.8z"/>
			<g>
				<g>
					<g>
						<path class="st9" d="M162.5,356.7h-54.9c-34.7,0-62.8-28.1-62.8-62.8s28.1-62.8,62.8-62.8s62.8,28.1,62.8,62.8v54.9
							C170.3,353.2,166.8,356.7,162.5,356.7z"/>
					</g>
				</g>
				<g>
					<circle class="st5" cx="136.3" cy="293.9" r="9.3"/>
					<circle class="st5" cx="107.5" cy="293.9" r="9.3"/>
					<circle class="st5" cx="78.8" cy="293.9" r="9.3"/>
				</g>
			</g>
			<g>
				<circle class="st5" cx="124.2" cy="126" r="8.9"/>
				<circle class="st5" cx="151.6" cy="126" r="8.9"/>
				<circle class="st5" cx="179" cy="126" r="8.9"/>
				<circle class="st5" cx="206.9" cy="126" r="8.9"/>
			</g>
			<path class="st1" d="M69.5,424.6c-2.8,0-5-2.2-5-5c0-3.3-2.7-6-6-6c-2.8,0-5-2.2-5-5s2.2-5,5-5c3.3,0,6-2.7,6-6c0-2.8,2.2-5,5-5
				s5,2.2,5,5c0,3.3,2.7,6,6,6c2.8,0,5,2.2,5,5s-2.2,5-5,5c-3.3,0-6,2.7-6,6C74.5,422.4,72.2,424.6,69.5,424.6z"/>
			<path class="st8" d="M400.8,169.9c-2.8,0-5-2.2-5-5c0-3.3-2.7-6-6-6c-2.8,0-5-2.2-5-5s2.2-5,5-5c3.3,0,6-2.7,6-6c0-2.8,2.2-5,5-5
				s5,2.2,5,5c0,3.3,2.7,6,6,6c2.8,0,5,2.2,5,5s-2.2,5-5,5c-3.3,0-6,2.7-6,6C405.8,167.6,403.5,169.9,400.8,169.9z"/>
			<path class="st8" d="M204,56.5c-2.8,0-5-2.2-5-5c0-3.3-2.7-6-6-6c-2.8,0-5-2.2-5-5s2.2-5,5-5c3.3,0,6-2.7,6-6c0-2.8,2.2-5,5-5
				s5,2.2,5,5c0,3.3,2.7,6,6,6c2.8,0,5,2.2,5,5s-2.2,5-5,5c-3.3,0-6,2.7-6,6C209,54.3,206.8,56.5,204,56.5z"/>
			<path class="st10" d="M435.5,211.8c-1.3,0-2.6-0.5-3.5-1.5L420.7,199c-2-2-2-5.1,0-7.1l11.3-11.3c2-2,5.1-2,7.1,0l11.3,11.3
				c2,2,2,5.1,0,7.1L439,210.3C438.1,211.3,436.8,211.8,435.5,211.8z M431.3,195.4l4.2,4.2l4.2-4.2l-4.2-4.2L431.3,195.4z"/>
			<path class="st1" d="M318.5,487.2c-1.3,0-2.6-0.5-3.5-1.5l-11.3-11.3c-2-2-2-5.1,0-7.1L315,456c0.9-0.9,2.2-1.5,3.5-1.5
				s2.6,0.5,3.5,1.5l11.3,11.3c0.9,0.9,1.5,2.2,1.5,3.5s-0.5,2.6-1.5,3.5L322,485.6C321.1,486.7,319.8,487.2,318.5,487.2z
				 M314.3,470.9l4.2,4.2l4.2-4.2l-4.2-4.2L314.3,470.9z"/>
		</g>
	</g>
	<g>
		<path class="st11" d="M377,72.6c0-37.4-30.4-67.8-67.8-67.8s-67.8,30.4-67.8,67.8V73c-5.1-1.6-10.6-2.5-16.3-2.5H95
			c-30.1,0-54.6,24.5-54.6,54.6s24.5,54.6,54.6,54.6h11.2c-5.8,15.1-8.9,30.9-9.4,47.2c-32.3,5.2-57,33.2-57,66.9
			c0,37.4,30.4,67.8,67.8,67.8h54.9c7.1,0,12.9-5.8,12.9-12.9v-37c3.4,0.8,6.9,1.2,10.4,1.2c11.6,0,23-4.5,31.5-13.1
			c2-2,2-5.1,0-7.1s-5.1-2-7.1,0c-9.2,9.2-22.6,12.4-34.8,8.5v-7.5c0-17.5-6.7-33.5-17.6-45.6c1.1-1.5,2.3-2.9,3.6-4.3
			c6.5-6.5,15.2-10.1,24.4-10.1s17.9,3.6,24.4,10.1c2,2,5.1,2,7.1,0s2-5.1,0-7.1c-8.4-8.4-19.6-13-31.5-13s-23.1,4.6-31.5,13
			c-1.4,1.4-2.7,2.9-3.9,4.4c-11.7-9.6-26.6-15.3-42.9-15.3c-0.3,0-0.5,0-0.8,0c0.6-16,4-31.6,10.1-46.4h86.3c2.8,0,5-2.2,5-5
			s-2.2-5-5-5H95c-24.6,0-44.6-20-44.6-44.6s20-44.6,44.6-44.6h130.2c24.6,0,44.6,20,44.6,44.6v44.6H237c-2.8,0-5,2.2-5,5s2.2,5,5,5
			h32.8c5.5,0,10-4.5,10-10v-44.6c0-8.6-2-16.8-5.6-24c59,15,101,68.3,101,130.1v65.5c0,5-4.1,9.1-9.1,9.1h-47.5c-2.8,0-5,2.2-5,5
			s2.2,5,5,5h18.1l10.4,88.8c0.2,1.4-0.3,2.8-1.2,3.9s-2.3,1.7-3.7,1.7H278c-2.8,0-5,2.2-5,5v43c0,2.8-2.2,5-5,5H111.7
			c-2.8,0-5-2.2-5-5v-67.8c0-2.8-2.2-5-5-5s-5,2.2-5,5v67.8c0,8.3,6.7,15,15,15H268c8.3,0,15-6.7,15-15v-38h59.1
			c4.3,0,8.4-1.8,11.2-5c2.8-3.2,4.2-7.5,3.7-11.7l-10.3-87.6H366c10.5,0,19.1-8.6,19.1-19.1V231c0-38.8-15.4-74.5-40.8-100.6
			C364.6,118.3,377,96.5,377,72.6L377,72.6z M165.3,293.9v54.9c0,1.6-1.3,2.9-2.9,2.9h-54.9c-31.9,0-57.8-25.9-57.8-57.8
			s25.9-57.8,57.8-57.8S165.3,262.1,165.3,293.9z M251.4,77.3v-4.7c0-31.9,25.9-57.8,57.8-57.8S367,40.7,367,72.6
			c0,21.3-11.6,40.7-30.2,50.8c-19.2-17-43-29.1-69.7-34c-0.3-0.1-0.6-0.1-0.8-0.1C262,84.5,257,80.4,251.4,77.3L251.4,77.3z"/>
		<path class="st11" d="M332.2,206.8c1.7-1.1,2.8-2.9,3.1-4.8c0.9-4.4-2.3-9-7-9.9c-38-6.3-92.1,20.5-94.3,21.7
			c-3.9,2.1,59.4-11.1,91.9-5.6C328.2,208.5,330.3,207.9,332.2,206.8z"/>
		<circle class="st11" cx="307.2" cy="236.1" r="18.1"/>
	</g>
</g>
</svg>
