<?xml version="1.0" encoding="utf-8"?>
<!-- Generator: Adobe Illustrator 24.0.3, SVG Export Plug-In . SVG Version: 6.00 Build 0)  -->
<svg version="1.1" id="Capa_1" xmlns="http://www.w3.org/2000/svg" xmlns:xlink="http://www.w3.org/1999/xlink" x="0px" y="0px"
	 viewBox="0 0 512 512" style="enable-background:new 0 0 512 512;" xml:space="preserve">
<style type="text/css">
	.st0{fill:#8E44AC;}
	.st1{opacity:0.5;}
	.st2{fill:#1BBB9A;}
	.st3{opacity:0.1;fill:#2626BC;enable-background:new    ;}
	.st4{fill:#F2F2F2;}
	.st5{fill:#169F85;}
	.st6{fill:#FFFFFF;}
	.st7{fill:#B7C5FF;}
	.st8{fill:#2A80B8;}
	.st9{fill:#F29B11;}
</style>
<g id="Capa_2_1_">
	<g>
		<g>
			<path class="st0" d="M330.1,64.8v159.5c0,10.7,8.7,19.3,19.3,19.3h135.3c10.7,0,19.3-8.7,19.3-19.3V31c0-10.7-8.7-19.3-19.3-19.3
				H383.3c-1.3,0-2.5,0.5-3.4,1.4l-48.3,48.3C330.6,62.3,330.1,63.5,330.1,64.8z M378.5,50.3c0,5.3-4.3,9.7-9.7,9.7h-22.2l31.8-31.8
				v22.1H378.5z M339.8,69.6h29c10.7,0,19.3-8.7,19.3-19.3v-29h96.7c5.3,0,9.7,4.3,9.7,9.7v193.3c0,5.3-4.3,9.7-9.7,9.7H349.5
				c-5.3,0-9.7-4.3-9.7-9.7V69.6z"/>
			<path class="st0" d="M470.3,147H364c-2.7,0-4.8,2.2-4.8,4.8s2.2,4.8,4.8,4.8h106.3c2.7,0,4.8-2.2,4.8-4.8
				C475.1,149.1,473,147,470.3,147z"/>
			<path class="st0" d="M470.3,118H364c-2.7,0-4.8,2.2-4.8,4.8c0,2.7,2.2,4.8,4.8,4.8h106.3c2.7,0,4.8-2.2,4.8-4.8
				C475.1,120.1,473,118,470.3,118z"/>
			<path class="st0" d="M470.3,176H364c-2.7,0-4.8,2.2-4.8,4.8c0,2.7,2.2,4.8,4.8,4.8h106.3c2.7,0,4.8-2.2,4.8-4.8
				C475.1,178.1,473,176,470.3,176z"/>
			<path class="st0" d="M422,205h-58c-2.7,0-4.8,2.2-4.8,4.8s2.2,4.8,4.8,4.8h58c2.7,0,4.8-2.2,4.8-4.8
				C426.8,207.1,424.6,205,422,205z"/>
			<path class="st0" d="M361.8,93.8c0,2.7,2.2,4.8,4.8,4.8h58c2.7,0,4.8-2.2,4.8-4.8c0-2.7-2.2-4.8-4.8-4.8h-58
				C364,89,361.8,91.1,361.8,93.8z"/>
			<path class="st0" d="M458.4,89h-9.7c-2.7,0-4.8,2.2-4.8,4.8c0,2.7,2.2,4.8,4.8,4.8h4.8c0,2.7,2.2,4.8,4.8,4.8
				c2.7,0,4.8-2.2,4.8-4.8v-0.9c5.6-2,9.7-7.3,9.7-13.6c0-8-6.5-14.5-14.5-14.5c-2.7,0-4.8-2.2-4.8-4.8c0-2.7,2.2-4.8,4.8-4.8h9.7
				c2.7,0,4.8-2.2,4.8-4.8s-2.2-4.8-4.8-4.8h-4.8c0-2.7-2.2-4.8-4.8-4.8c-2.7,0-4.8,2.2-4.8,4.8v0.9c-5.6,2-9.7,7.3-9.7,13.6
				c0,8,6.5,14.5,14.5,14.5c2.7,0,4.8,2.2,4.8,4.8S461,89,458.4,89z"/>
		</g>
	</g>
</g>
<g id="Capa_1_1_">
	<g class="st1">
		<path class="st2" d="M15.6,217.7c22.5,72.7,92.2,76.1,155.8,80.1c209.5,12.8-53.9,186.7,125.5,203.9c66,6.3,135-48.8,124.6-120
			c-9.5-65-103.6-103.6-103.7-164.4c0-47.8,88.9-82.5,31.1-134C297.3,37.5-30.1,69.8,15.6,217.7L15.6,217.7z"/>
	</g>
	<g>
		<g>
			<path class="st3" d="M315.7,139.6c0-12.4-10-22.4-22.4-22.4H143.2c-12.4,0-22.4,10-22.4,22.4v178.5
				c-10.5,8.6-17.2,21.7-17.2,36.4V461c0,4.7,3.9,8.6,8.6,8.6h161.1c4.7,0,8.6-3.9,8.6-8.6v-9.4H308c8.2,0,15-6.7,15-15v-6.8
				c0-5.5-2.9-10.2-7.3-12.8V139.6L315.7,139.6z"/>
			<g>
				<path class="st4" d="M196.2,406.1h85.6v42.8h-85.6L196.2,406.1L196.2,406.1z"/>
				<g>
					<g>
						<path class="st5" d="M315.7,119v282.3c0,12.4-10,22.4-22.4,22.4H143.2c-12.4,0-22.4-10-22.4-22.4V119.1
							c0-12.4,10-22.4,22.4-22.4h150.2C305.7,96.7,315.7,106.7,315.7,119z"/>
						<path class="st5" d="M259.4,113.8l5.3-17.1H171l5.3,17.1c0.9,3.1,3.9,5.2,7.1,5.2h68.8C255.5,119,258.4,116.9,259.4,113.8z"/>
					</g>
				</g>
				<g>
					<path class="st6" d="M103.6,448.9v-115c0-26,21-47.1,47.1-47.1H200c12.7,0,23.2,10.4,23.2,23.2s-10.4,23.2-23.2,23.2h-39.9
						c0,0,66,5.2,66,115.8"/>
					<g>
						<path class="st6" d="M314.1,316.3h-39.4c-10.8,0-19.5-8.7-19.5-19.5s8.7-19.5,19.5-19.5h39.4c8.2,0,15,6.7,15,15v9.2
							C329,309.6,322.3,316.3,314.1,316.3L314.1,316.3z"/>
						<path class="st6" d="M314.1,355.4h-48.3c-10.8,0-19.5-8.7-19.5-19.5s8.7-19.5,19.5-19.5h48.3c8.2,0,15,6.7,15,15v9.1
							C329,348.6,322.3,355.4,314.1,355.4L314.1,355.4z"/>
						<path class="st6" d="M314.1,394.4h-39.4c-10.8,0-19.5-8.7-19.5-19.5s8.7-19.5,19.5-19.5h39.4c8.2,0,15,6.7,15,15v9.2
							C329,387.7,322.3,394.4,314.1,394.4L314.1,394.4z"/>
						<path class="st6" d="M308.1,431h-35.4c-10.1,0-18.3-8.2-18.3-18.3c0-10.1,8.2-18.3,18.3-18.3h35.4c8.2,0,15,6.7,15,15v6.8
							C323,424.3,316.3,431,308.1,431z"/>
					</g>
				</g>
			</g>
			<g>
				<path class="st7" d="M158.7,120.2H145c-2.4,0-4.3-1.9-4.3-4.3v-4.3c0-2.4,1.9-4.3,4.3-4.3h13.7c2.4,0,4.3,1.9,4.3,4.3v4.3
					C162.9,118.2,161,120.2,158.7,120.2z"/>
				<g>
					<g>
						<path class="st7" d="M278.8,119.5c-2.4,0-4.3-1.9-4.3-4.3v-3c0-2.4,1.9-4.3,4.3-4.3s4.3,1.9,4.3,4.3v3
							C283.1,117.6,281.1,119.5,278.8,119.5z"/>
					</g>
					<g>
						<path class="st7" d="M291.8,119.5c-2.4,0-4.3-1.9-4.3-4.3v-3c0-2.4,1.9-4.3,4.3-4.3s4.3,1.9,4.3,4.3v3
							C296.1,117.6,294.2,119.5,291.8,119.5z"/>
					</g>
				</g>
			</g>
			<path class="st8" d="M77.2,284.6c-2.4,0-4.3-1.9-4.3-4.3c0-2.8-2.3-5.1-5.1-5.1c-2.4,0-4.3-1.9-4.3-4.3s1.9-4.3,4.3-4.3
				c2.8,0,5.1-2.3,5.1-5.1c0-2.4,1.9-4.3,4.3-4.3s4.3,1.9,4.3,4.3c0,2.8,2.3,5.1,5.1,5.1c2.4,0,4.3,1.9,4.3,4.3s-1.9,4.3-4.3,4.3
				c-2.8,0-5.1,2.3-5.1,5.1C81.5,282.7,79.6,284.6,77.2,284.6z"/>
			<path class="st9" d="M417.3,320.7c-2.4,0-4.3-1.9-4.3-4.3c0-2.8-2.3-5.1-5.1-5.1c-2.4,0-4.3-1.9-4.3-4.3s1.9-4.3,4.3-4.3
				c2.8,0,5.1-2.3,5.1-5.1c0-2.4,1.9-4.3,4.3-4.3s4.3,1.9,4.3,4.3c0,2.8,2.3,5.1,5.1,5.1c2.4,0,4.3,1.9,4.3,4.3s-1.9,4.3-4.3,4.3
				c-2.8,0-5.1,2.3-5.1,5.1C421.6,318.8,419.7,320.7,417.3,320.7z"/>
			<path class="st8" d="M362.4,417.5c-1.1,0-2.2-0.4-3-1.3l-9.4-9.4c-1.7-1.7-1.7-4.4,0-6.1l9.4-9.4c1.7-1.7,4.4-1.7,6.1,0l9.4,9.4
				c1.7,1.7,1.7,4.4,0,6.1l-9.4,9.4C364.6,417,363.5,417.5,362.4,417.5z M359,403.8l3.3,3.3l3.3-3.3l-3.3-3.3L359,403.8z"/>
			<path class="st9" d="M71.5,333.7c-1.1,0-2.2-0.4-3-1.3l-9.4-9.4c-1.7-1.7-1.7-4.4,0-6.1l9.4-9.4c1.7-1.7,4.4-1.7,6.1,0l9.4,9.4
				c1.7,1.7,1.7,4.4,0,6.1l-9.4,9.4C73.6,333.3,72.5,333.7,71.5,333.7z M68,320l3.3,3.3l3.3-3.3l-3.3-3.3L68,320z"/>
		</g>
		<g>
			<path class="st7" d="M247.9,268.9H195c-2.4,0-4.3-1.9-4.3-4.3s1.9-4.3,4.3-4.3h52.9c2.4,0,4.3,1.9,4.3,4.3
				S250.2,268.9,247.9,268.9z"/>
		</g>
	</g>
	<path class="st0" d="M333.3,301.4v-9.2c0-10.6-8.6-19.3-19.3-19.3h-39.4c-13.1,0-23.8,10.7-23.8,23.8c0,6.5,2.6,12.3,6.8,16.7
		c-9.2,3.3-15.7,12.1-15.7,22.4c0,10.4,6.6,19.1,15.7,22.4c-4.2,4.3-6.8,10.2-6.8,16.7c0,7.7,3.7,14.6,9.4,19
		c-6.2,4-10.2,11-10.2,18.8c0,2.4,0.3,4.6,1,6.8h-22.7c-3.3-26.4-12.1-54.3-32.6-73.1c-4.1-3.8-8.1-6.7-12-9h16
		c15.1,0,27.5-12.3,27.5-27.5s-12.3-27.5-27.5-27.5h-49.3c-9.3,0-18.1,2.5-25.6,6.8V119.1c0-10,8.1-18.1,18.1-18.1h150.2
		c10,0,18.1,8.1,18.1,18.1v129.4c0,2.4,1.9,4.3,4.3,4.3s4.3-1.9,4.3-4.3V119.1c0-14.7-12-26.7-26.7-26.7H143.2
		c-14.7,0-26.7,12-26.7,26.7v176.5c-10.5,9.4-17.2,23.1-17.2,38.2V449c0,2.4,1.9,4.3,4.3,4.3s4.3-1.9,4.3-4.3V333.9
		c0-23.6,19.2-42.8,42.8-42.8H200c10.4,0,18.9,8.5,18.9,18.9s-8.5,18.9-18.9,18.9h-40h-17.7c-2.4,0-4.3,1.9-4.3,4.3s1.9,4.3,4.3,4.3
		h17.5c1.5,0.2,16.3,2.1,30.7,15.7c20.4,19,31.1,52.1,31.1,95.8c0,2.4,1.9,4.3,4.3,4.3s4.3-1.9,4.3-4.3c0-6.6-0.3-13.6-0.9-20.9
		h26.8c4.1,4.4,10,7.2,16.5,7.2h4.8V449c0,2.4,1.9,4.3,4.3,4.3s4.3-1.9,4.3-4.3v-13.7h22c10.6,0,19.3-8.6,19.3-19.3v-6.8
		c0-4.9-1.8-9.2-4.8-12.7c6.3-3.2,10.7-9.7,10.7-17.2v-9.2c0-6-2.8-11.4-7.2-15c4.4-3.5,7.2-8.9,7.2-15v-9.2c0-6-2.8-11.4-7.2-15
		C330.5,312.8,333.3,307.4,333.3,301.4L333.3,301.4z M318.7,416c0,5.9-4.8,10.7-10.7,10.7h-35.4c-7.7,0-14-6.3-14-14s6.3-14,14-14h2
		H308c5.9,0,10.7,4.8,10.7,10.7V416L318.7,416z M324.7,331.2v9.2c0,5.9-4.8,10.7-10.7,10.7h-6.3c-2.4,0-4.3,1.9-4.3,4.3
		s1.9,4.3,4.3,4.3h6.3c5.9,0,10.7,4.8,10.7,10.7v9.2c0,5.9-4.8,10.7-10.7,10.7h-6h-33.4c-8.4,0-15.2-6.8-15.2-15.2
		c0-8.4,6.8-15.2,15.2-15.2h4.3c2.4,0,4.3-1.9,4.3-4.3s-1.9-4.3-4.3-4.3h-4.3h-9c-8.4,0-15.2-6.8-15.2-15.2s6.8-15.2,15.2-15.2h9
		H314C319.9,320.5,324.7,325.3,324.7,331.2L324.7,331.2z M274.8,312c-8.4,0-15.2-6.8-15.2-15.2c0-8.4,6.8-15.2,15.2-15.2h39.4
		c5.9,0,10.7,4.8,10.7,10.7v9.2c0,5.9-4.8,10.7-10.7,10.7L274.8,312z"/>
</g>
</svg>
