<svg xmlns="http://www.w3.org/2000/svg" viewBox="0 0 591.85 406.51"><defs><style>.cls-1,.cls-16,.cls-19,.cls-26,.cls-28,.cls-36{isolation:isolate;}.cls-2{fill:#159e84;}.cls-3,.cls-33{fill:#32b196;}.cls-17,.cls-32,.cls-4{fill:#fff;}.cls-5{fill:#cfe1e9;}.cls-6{fill:#5c3289;}.cls-7{fill:#472680;}.cls-34,.cls-8{fill:#e8514e;}.cls-9{fill:#8f599f;}.cls-10,.cls-31{fill:#a092c6;}.cls-11{fill:#b2b2b2;}.cls-12{fill:#ededed;}.cls-13{fill:#ffc9c9;}.cls-14{fill:#e55c5c;}.cls-15{fill:#020202;opacity:0.1;}.cls-16,.cls-28{fill:#412b7f;}.cls-17{mix-blend-mode:soft-light;}.cls-18,.cls-24,.cls-29,.cls-30{fill:none;}.cls-18{stroke:#292640;stroke-linejoin:round;stroke-width:0.75px;}.cls-19{fill:#654da8;}.cls-20{fill:#5f2811;}.cls-21{fill:#88cbca;}.cls-22{fill:#48b9b6;}.cls-23{fill:#f7d2c6;}.cls-24{stroke:#ededed;stroke-width:9.41px;}.cls-24,.cls-29,.cls-30{stroke-linecap:round;stroke-miterlimit:10;}.cls-25{fill:#201f35;}.cls-26{fill:#dfd5eb;opacity:0.34;}.cls-27{fill:#6158a1;}.cls-28{opacity:0.36;}.cls-29,.cls-30{stroke:#a092c6;stroke-width:2.58px;}.cls-30{stroke-dasharray:10.14 10.14;}.cls-31,.cls-32,.cls-33,.cls-34,.cls-37{fill-rule:evenodd;}.cls-35{fill:#60bca6;}.cls-36{fill:#cac9e6;opacity:0.5;}.cls-37{fill:#f5ed80;}</style></defs><title>actualizate_1</title><g class="cls-1"><g id="Capa_2" data-name="Capa 2"><g id="Capa_1-2" data-name="Capa 1"><path class="cls-2" d="M287.76,183.28l1.55,2.58H235.36A2.31,2.31,0,0,1,233,183.6v-4.46a2.31,2.31,0,0,1,2.33-2.26h53.95l-1.55,2.58Z"/><polygon class="cls-3" points="287.76 183.28 289.31 185.79 267.4 185.79 267.4 176.88 289.31 176.88 287.76 179.33 287.76 183.28"/><rect class="cls-4" x="269.99" y="179.33" width="17.83" height="3.88"/><path class="cls-3" d="M234.26,163.25,233,165.44h47.49a2,2,0,0,0,2.06-2v-3.88a2.07,2.07,0,0,0-2.06-2H233l1.29,2.2v3.49Z"/><polygon class="cls-2" points="234.26 163.25 232.97 165.51 252.29 165.51 252.29 157.56 232.97 157.56 234.26 159.82 234.26 163.25"/><rect class="cls-5" x="234.26" y="159.82" width="15.76" height="3.49"/><path class="cls-6" d="M237,174.42l-1.36,2.46H286.4a2.17,2.17,0,0,0,2.2-2.13V167.7a2.17,2.17,0,0,0-2.2-2.13H235.62L237,168v6.39Z"/><polygon class="cls-7" points="237.04 174.42 235.62 176.88 271.15 176.88 271.15 165.51 235.62 165.51 237.04 167.9 237.04 174.42"/><rect class="cls-5" x="237.04" y="167.9" width="31.66" height="6.53"/><polygon class="cls-8" points="264.69 176.49 262.11 174.55 259.65 176.49 259.65 171.58 264.69 171.58 264.69 176.49"/><path class="cls-9" d="M285.62,148.77l1.3-2.19H239.43a2,2,0,0,0-2.07,2v7a2.07,2.07,0,0,0,2.07,2h47.49l-1.3-2.2Z"/><path class="cls-4" d="M285.62,148.77h-45a1.1,1.1,0,0,0-1.1,1.1v4.33a1.09,1.09,0,0,0,1.1,1.1h45v-6.53Z"/><rect class="cls-5" x="255.45" y="148.77" width="30.17" height="6.59"/><path class="cls-2" d="M287.63,184.31l1.55,2.58h-54a2.36,2.36,0,0,1-2.39-2.26v-4.46a2.32,2.32,0,0,1,2.39-2.26h54l-1.55,2.59Z"/><polygon class="cls-3" points="287.63 184.31 289.18 186.83 267.21 186.83 267.21 177.85 289.18 177.85 287.63 180.37 287.63 184.31"/><rect class="cls-4" x="269.8" y="180.37" width="17.83" height="3.88"/><path class="cls-3" d="M234.07,164.28l-1.3,2.2h47.56a2,2,0,0,0,2.06-2V160.6a2.07,2.07,0,0,0-2.06-2H232.77l1.3,2.2Z"/><polygon class="cls-2" points="234.07 164.28 232.77 166.48 252.09 166.48 252.09 158.53 232.77 158.53 234.07 160.79 234.07 164.28"/><rect class="cls-5" x="234.07" y="160.79" width="15.76" height="3.49"/><path class="cls-6" d="M236.84,175.39l-1.35,2.46h50.78a2.17,2.17,0,0,0,2.2-2.13v-7.11a2.17,2.17,0,0,0-2.2-2.13H235.49l1.35,2.45v6.46Z"/><polygon class="cls-7" points="236.84 175.39 235.42 177.85 270.96 177.85 270.96 166.48 235.42 166.48 236.84 168.87 236.84 175.39"/><rect class="cls-5" x="236.84" y="168.87" width="31.72" height="6.53"/><polygon class="cls-8" points="264.5 177.53 261.98 175.59 259.46 177.53 259.46 172.55 264.5 172.55 264.5 177.53"/><path class="cls-9" d="M285.5,149.74l1.29-2.19H239.24a2,2,0,0,0-2.07,2v7a2.07,2.07,0,0,0,2.07,2h47.55l-1.29-2.2Z"/><path class="cls-4" d="M285.5,149.74h-45a1.1,1.1,0,0,0-1.1,1.1v4.33a1.09,1.09,0,0,0,1.1,1.1h45v-6.53Z"/><rect class="cls-5" x="255.32" y="149.74" width="30.17" height="6.59"/><ellipse class="cls-10" cx="302.1" cy="379.15" rx="220.83" ry="27.36"/><rect class="cls-11" x="349.41" y="175.39" width="30.88" height="17.99"/><polyline class="cls-12" points="428.36 175.39 300.54 175.39 300.54 103.96 428.36 103.96"/><polygon class="cls-12" points="170.57 209.76 146.12 378.71 142.36 378.71 161.98 209.76 170.57 209.76"/><polygon class="cls-12" points="226.02 209.76 201.05 366.18 198.5 366.18 219.85 209.76 226.02 209.76"/><polygon class="cls-12" points="378.95 209.76 403.66 380.82 407.42 380.82 387.55 209.76 378.95 209.76"/><polygon class="cls-12" points="440.85 209.76 465.82 366.18 468.37 366.18 447.02 209.76 440.85 209.76"/><rect class="cls-4" x="147.21" y="193.12" width="313.56" height="18.8"/><rect class="cls-12" x="398.21" y="193.12" width="62.56" height="18.8"/><rect class="cls-12" x="226.7" y="186.26" width="114.8" height="6.85"/><path class="cls-13" d="M245.19,376.88a2.88,2.88,0,0,0,.49,1.5,2.84,2.84,0,0,0,1.49.81c6.19,1.76,12.78,0,19.21,0,2.48,0,4.95.22,7.42.3a57.9,57.9,0,0,0,12.47-1,2.53,2.53,0,0,0,2.09-2.54,8.2,8.2,0,0,0-1.43-4.91c-1.3-1.79-3.56-2.55-5.66-3.21-4.56-1.43-9.1-2.87-13.66-4.29-3.69-1.14-6.85-2.62-8.56-6.47a1.75,1.75,0,0,0-.46-.7,1.47,1.47,0,0,0-.91-.17l-6.57.18a1.09,1.09,0,0,0-1.29,1.07c-.84,3.61-2.34,6.79-3.43,10.08A21,21,0,0,0,245.19,376.88Z"/><path class="cls-14" d="M281.27,367.83c2.1.66,4.36,1.42,5.66,3.21a8.2,8.2,0,0,1,1.43,4.91,2.53,2.53,0,0,1-2.09,2.54,57.9,57.9,0,0,1-12.47,1c-2.47-.08-4.94-.31-7.42-.3-6.43.05-13,1.77-19.21,0a2.84,2.84,0,0,1-1.49-.81,2.88,2.88,0,0,1-.49-1.5,21,21,0,0,1,1.2-9.35c1.33,1.69,3.67,2.14,5.81,2.28C261.79,370.46,271.79,369.45,281.27,367.83Z"/><path class="cls-15" d="M281.27,367.83c2.1.66,4.36,1.42,5.66,3.21a8.2,8.2,0,0,1,1.43,4.91,2.53,2.53,0,0,1-2.09,2.54,57.9,57.9,0,0,1-12.47,1c-2.47-.08-4.94-.31-7.42-.3-6.43.05-13,1.77-19.21,0a2.84,2.84,0,0,1-1.49-.81,2.88,2.88,0,0,1-.49-1.5,21,21,0,0,1,1.2-9.35c1.33,1.69,3.67,2.14,5.81,2.28C261.79,370.46,271.79,369.45,281.27,367.83Z"/><path class="cls-4" d="M288.36,376a2.53,2.53,0,0,1-2.09,2.54,57.9,57.9,0,0,1-12.47,1c-2.47-.08-4.94-.31-7.42-.3-6.43.05-13,1.77-19.21,0a2.84,2.84,0,0,1-1.49-.81,2.88,2.88,0,0,1-.49-1.5c8.51,1.35,17.23-.27,25.85-.24C276.76,376.66,282.79,377.25,288.36,376Z"/><path class="cls-13" d="M249.58,354.67q-.15,4.66-.44,9.3a24.2,24.2,0,0,0,11.47-.42c.47-.13.29-23.25.39-25.29q.67-13.44,2-26.82a44.56,44.56,0,0,0-13,.91C249.71,326.38,250,340.61,249.58,354.67Z"/><path class="cls-16" d="M135.57,236.9c-.31,7.15-.46,14.88,3.65,20.73,3.13,4.48,8.36,7.13,13.7,8.29s10.86,1,16.32.88q20.79-.48,41.57-.06,10.55.21,21.08.65c4.22.18,15-1.53,16.9,3.64a7.5,7.5,0,0,1,.32,2.31c.14,3.55.1,44.89-.16,44.89l13.78-.17a1.29,1.29,0,0,0,1.54-1.31c4-18.62,4.32-37.83,4.13-56.87,0-2.83-.09-5.76-1.36-8.28-2-3.87-6.24-5.88-10.3-7.38-3-1.1-6-2.08-9-3-18-5.17-36.75-6.58-55.35-7.55-9-.46-18.11,1.37-27.17,1.86C155.33,236.11,145.44,236.35,135.57,236.9Z"/><polygon class="cls-17" points="205.15 66.93 212.4 66.78 212.32 73.98 206.82 74.09 205.15 66.93"/><polygon class="cls-18" points="205.15 66.93 212.4 66.78 212.32 73.98 206.82 74.09 205.15 66.93"/><path class="cls-13" d="M267.65,385.17a2.35,2.35,0,0,0,2.1,2.45c6.59,1.87,13.59,0,20.43,0,2.63,0,5.26.23,7.88.31a61.4,61.4,0,0,0,13.26-1,2.69,2.69,0,0,0,2.21-2.71A8.75,8.75,0,0,0,312,379c-1.39-1.89-3.78-2.71-6-3.41-4.84-1.52-9.68-3.05-14.52-4.55-3.92-1.22-7.28-2.79-9.1-6.88a1.7,1.7,0,0,0-.48-.74,1.55,1.55,0,0,0-1-.19l-7,.19a1.48,1.48,0,0,0-.93.24,1.54,1.54,0,0,0-.44.91c-.89,3.83-2.48,7.21-3.64,10.71A22.28,22.28,0,0,0,267.65,385.17Z"/><path class="cls-14" d="M306,375.54c2.24.7,4.63,1.52,6,3.41a8.75,8.75,0,0,1,1.51,5.22,2.69,2.69,0,0,1-2.21,2.71,61.4,61.4,0,0,1-13.26,1c-2.62-.08-5.25-.33-7.88-.31-6.84.05-13.84,1.88-20.43,0a2.35,2.35,0,0,1-2.1-2.45,22.28,22.28,0,0,1,1.28-9.94c1.41,1.79,3.89,2.27,6.17,2.42C285.29,378.34,295.93,377.27,306,375.54Z"/><path class="cls-4" d="M313.53,384.17a2.69,2.69,0,0,1-2.21,2.71,61.4,61.4,0,0,1-13.26,1c-2.62-.08-5.25-.33-7.88-.31-6.84.05-13.84,1.88-20.43,0a2.35,2.35,0,0,1-2.1-2.45c9.05,1.43,18.32-.3,27.48-.26C301.2,384.93,307.62,385.56,313.53,384.17Z"/><path class="cls-13" d="M272.32,361.56c-.11,3.3-.26,6.6-.47,9.88A25.78,25.78,0,0,0,284,371c.5-.14.31-24.71.42-26.89q.72-14.28,2.11-28.5a46.72,46.72,0,0,0-13.85,1C272.46,331.49,272.81,346.61,272.32,361.56Z"/><path class="cls-19" d="M151.14,236.38c-.33,7.59-.49,15.81,3.87,22,3.33,4.76,8.89,7.58,14.56,8.82s11.55,1.06,17.36.92q22.08-.5,44.18-.06,11.2.24,22.41.7c4.49.19,16-1.63,18,3.87a8.06,8.06,0,0,1,.34,2.45c.14,3.77.1,47.71-.17,47.71l14.64-.17a1.39,1.39,0,0,0,1.65-1.4c4.25-19.79,4.58-40.21,4.38-60.45,0-3-.1-6.12-1.45-8.8-2.07-4.11-6.63-6.25-10.94-7.85q-4.73-1.76-9.58-3.14c-19.11-5.5-39.06-7-58.83-8-9.56-.5-19.25,1.45-28.88,2C172.14,235.54,161.63,235.8,151.14,236.38Z"/><path class="cls-13" d="M302.28,172.8c.43-.45.92-.74,1.33-1.22a.81.81,0,0,1,.51-.35.67.67,0,0,1,.31.07l2.23.81C305.33,172.75,303.7,172.58,302.28,172.8Zm12.17,1.6a33,33,0,0,0-8.07-5.34,6.53,6.53,0,0,0-2.46-.9,5.64,5.64,0,0,0-3.68,1.47c-3.55,2.69-6.36,7.24-10.42,9.15C285,181,278.24,181.22,273,181.7c-11.4,1-22.92.77-34.27,2.46-2.21.33-4.62.86-6,2.64a8.66,8.66,0,0,0-1.29,4.79,7.49,7.49,0,0,0,.55,4c1.31,2.4,4.57,2.72,7.31,2.67a149.93,149.93,0,0,0,38.8-5.86,57.47,57.47,0,0,1,8.67-2.14c2.56-.33,5.51-.2,8-1,3.72-1.22,5.83-5.49,9.59-6.57,4.45-1.29,9.49,2.39,13.67.38C318.39,179.86,316.75,176.69,314.45,174.4Z"/><path class="cls-13" d="M167,85.67a109,109,0,0,1-.59,22.19c-.35,2.77-.32,7.48-2,9.74s-5.1,2.48-7.55,2.33c-3-.18-6-1-8.94-.4.77,3.21,3.8,5.38,6.9,6.53,4.8,1.78,10.06,1.76,15.19,1.7,9.94-.11,20.3-.41,29.13-5a38.6,38.6,0,0,1-8.11-.38,3.32,3.32,0,0,1-1.61-.54c-1.74-1.34-.16-6.85-.1-8.75,0-1.45,1.17-10.54.19-11.25Z"/><path class="cls-13" d="M207.92,88.86a23.53,23.53,0,0,1-.73,3.41,15.23,15.23,0,0,1-5.78,8.33,22.26,22.26,0,0,1-6.63,2.82,36.23,36.23,0,0,1-13,1.46c-5.21-.48-9-2.68-12.85-5.61-1.57-1.19-2.14-3.12-2.56-4.92a95.9,95.9,0,0,1-2.1-31.71,25.57,25.57,0,0,1,2.28-9.2c3.09-6,8.46-6.37,15-7.4,6.1-1,12.48,1.73,16.77,5.51A28.59,28.59,0,0,1,206.83,66a61.87,61.87,0,0,1,1.5,16.4A50.16,50.16,0,0,1,207.92,88.86Z"/><path class="cls-20" d="M202.11,68.9s2.64-3.29,5.63-1.76v-1.5A4.16,4.16,0,0,0,202.11,68.9Z"/><path class="cls-21" d="M147.16,119.85c-7.15,4.56-9.12,15-10.14,23a70.74,70.74,0,0,0,2.62,29.31,82.18,82.18,0,0,1,2.48,8.8,53.64,53.64,0,0,1,.64,8.87c.2,12.67.39,25.44-1.92,37.9-.54,2.92-1.1,6.3.85,8.53,1.22,1.4,3.13,1.94,4.93,2.37,14.12,3.41,29.51,6.13,44,3.18,8.13-1.66,16.5-1.81,24.57-4.24a4.3,4.3,0,0,0,2.82-1.84,4.06,4.06,0,0,0-.4-3.34c-1.42-3.08-3.4-5.85-5.08-8.78a50.15,50.15,0,0,1-6.5-25.64,44,44,0,0,1,2-13.2c1.4-4.1,3.64-8,4.6-12.29,1.27-5.67-.17-11.54-.6-17.33-.49-6.62.34-13.23.23-19.85,0-3,.07-6.91-1.11-9.71-1-2.36-3.67-2.57-6.11-3a12.53,12.53,0,0,0-8.66.91,20.83,20.83,0,0,1-6.76,1.11c-6.77.36-13.54.71-20.31.57-7.2-.16-14.91-1.08-20.33-5.83C148.7,119,148,119.32,147.16,119.85Z"/><path class="cls-22" d="M211.64,175.87a28.32,28.32,0,0,0,1-3.4c1.27-5.67-.17-11.54-.6-17.33,0-.45-.05-.91-.07-1.36l-8.48-12.6A61,61,0,0,0,211.64,175.87Z"/><line class="cls-18" x1="212.7" y1="68.52" x2="189.44" y2="67.81"/><path class="cls-23" d="M207.43,70.7a10.83,10.83,0,0,0,5.39,6.57.4.4,0,0,1,.19.14.4.4,0,0,1-.06.39,5.9,5.9,0,0,1-4.83,2.93c-.15,0-.36-.08-.3-.22Z"/><path class="cls-20" d="M169.25,34.9c7.09-2,15-1.87,22.41-1,3.43.39,6.93.94,9.94,2.64,6.69,3.76,9.17,13.43,5.13,19.95-1.48,2.4-3.64,4.3-5.41,6.49-8,10-6.37,29.33.79,39.52-8.94,4.66-19.32,5.71-29.4,5.66a45.12,45.12,0,0,1-22.91-6.29c-6.54-3.69-4.73-14-4.75-20.36,0-8,.35-16,2.66-23.66S154.43,43,161.08,38.61A29.52,29.52,0,0,1,169.25,34.9Z"/><path class="cls-13" d="M203.42,140.48c.67,5.09,3,9.81,5.41,14.33,5.5,10.24,11.85,20.06,16.42,30.74,1.51,3.52,2.89,7.25,5.64,9.91s7.36,3.89,10.43,1.6c2.43-1.81,3.13-5.27,2.54-8.25s-2.24-5.62-3.77-8.24a140.64,140.64,0,0,1-11.47-25c-3.07-8.92-5.45-18.52-11.92-25.37-2.64-2.8-6.85-6.52-10.12-2.86C203.57,130.67,202.85,136.18,203.42,140.48Z"/><rect class="cls-12" x="133.65" y="286.43" width="115.6" height="7.65"/><path class="cls-24" d="M198.5,216.75h48.87s11.27-.86,8.6,15.57c-2.92,17.92-4.57,37.06-4.57,37.06"/><path class="cls-12" d="M182.79,144.78l7.12.94s-8.33,98.55,11,121.91l-12.09,1.88-14.5-65Z"/><path class="cls-4" d="M115.12,143.17l67.67,1.61s-7.65,108.35,9.67,122.85h66.06V287H130.83S101.43,260,115.12,143.17Z"/><rect class="cls-12" x="180.38" y="290.62" width="14.39" height="67.1"/><circle class="cls-25" cx="129.67" cy="386.37" r="5.39"/><polygon class="cls-4" points="180.38 357.72 120.36 375.04 130.43 375.04 187.65 357.7 180.38 357.72"/><polygon class="cls-12" points="120.36 375.04 120.36 383.7 130.51 383.85 130.43 375.04 120.36 375.04"/><polygon class="cls-12" points="130.51 383.85 187.93 365.48 187.65 357.7 130.43 375.04 130.51 383.85"/><circle class="cls-25" cx="245.48" cy="386.37" r="5.39"/><polygon class="cls-4" points="194.77 357.72 254.79 375.04 244.72 375.04 187.51 357.7 194.77 357.72"/><polygon class="cls-12" points="254.79 375.04 254.79 383.7 244.64 383.85 244.72 375.04 254.79 375.04"/><polygon class="cls-12" points="244.64 383.85 187.22 365.48 187.51 357.7 244.72 375.04 244.64 383.85"/><path class="cls-10" d="M422.23,111v58.32c0,.66-.75,1.18-1.68,1.18H307.16c-.93,0-1.68-.52-1.68-1.18V111c0-.66.75-1.18,1.68-1.18H420.55C421.48,109.84,422.23,110.36,422.23,111Z"/><path class="cls-9" d="M569.18,272.55v-1.2h1.2a1.9,1.9,0,1,0,0-3.8h-1.2v-1a1.9,1.9,0,0,0-1.9-1.9,1.84,1.84,0,0,0-1.9,1.9v1.2h-1.2a1.9,1.9,0,1,0,0,3.8h1.2v1.2a1.9,1.9,0,0,0,1.9,1.9A2,2,0,0,0,569.18,272.55Z"/><path class="cls-3" d="M583.55,255.68a3.85,3.85,0,0,1,1.2-2.9,4.17,4.17,0,1,1,0,5.9A4.41,4.41,0,0,1,583.55,255.68Zm5.5,0a1.09,1.09,0,0,0-.4-.9,1.39,1.39,0,0,0-1.9,0,1.22,1.22,0,0,0-.4.9,1,1,0,0,0,.4.9,1.39,1.39,0,0,0,1.9,0A1.49,1.49,0,0,0,589.05,255.68Z"/><path class="cls-26" d="M529.37,316.35c0,7.1-5.5,12.8-12.2,12.8s-12.2-5.7-12.2-12.8,5.5-12.8,12.2-12.8S529.37,309.35,529.37,316.35Z"/><path class="cls-26" d="M487,306.15a6.4,6.4,0,1,1-6.4-6.4A6.38,6.38,0,0,1,487,306.15Z"/><path class="cls-9" d="M498.33,10.62V9.06h1.55a2.46,2.46,0,0,0,0-4.92h-1.55V2.84A2.47,2.47,0,0,0,495.86.38a2.39,2.39,0,0,0-2.46,2.46V4.4h-1.55a2.46,2.46,0,0,0,0,4.92h1.55v1.56a2.46,2.46,0,0,0,2.46,2.46A2.61,2.61,0,0,0,498.33,10.62Z"/><path class="cls-26" d="M30.49,120.22c0,7.1-5.5,12.8-12.2,12.8s-12.2-5.7-12.2-12.8,5.5-12.8,12.2-12.8S30.49,113.12,30.49,120.22Z"/><path class="cls-26" d="M38.79,88.12a6.4,6.4,0,1,1-6.4-6.4A6.38,6.38,0,0,1,38.79,88.12Z"/><path class="cls-26" d="M52.89,112.52a6.4,6.4,0,1,1-6.4-6.4A6.38,6.38,0,0,1,52.89,112.52Z"/><path class="cls-3" d="M1.05,290.16a4.65,4.65,0,0,1-1-3.6,4.93,4.93,0,0,1,5.31-4.31,5,5,0,0,1,4.52,5.19,4.94,4.94,0,0,1-5.53,4.62A5.3,5.3,0,0,1,1.05,290.16Zm5.2-4a1.33,1.33,0,0,0-1-.6,1.55,1.55,0,0,0-1.7,1.3,1.43,1.43,0,0,0,.3,1.1,2.07,2.07,0,0,0,1,.6,1.55,1.55,0,0,0,1.7-1.3A2.61,2.61,0,0,0,6.25,286.16Z"/><path class="cls-9" d="M19.46,305.13v-1.2h1.2a1.9,1.9,0,0,0,0-3.8h-1.2v-1a1.9,1.9,0,0,0-1.9-1.9,1.84,1.84,0,0,0-1.9,1.9v1.2h-1.2a1.9,1.9,0,1,0,0,3.8h1.2v1.2a1.9,1.9,0,0,0,1.9,1.9A2,2,0,0,0,19.46,305.13Z"/><path class="cls-27" d="M437.26,189.61h-3.51a7,7,0,0,1-6.94-6.94v-3.16a7,7,0,0,1,6.94-7h3.51a7,7,0,0,1,6.94,7v3.16A6.92,6.92,0,0,1,437.26,189.61ZM433.82,175a4.47,4.47,0,0,0-4.47,4.47v3.16a4.46,4.46,0,0,0,4.47,4.47h3.51a4.45,4.45,0,0,0,4.46-4.47v-3.16a4.46,4.46,0,0,0-4.46-4.47Z"/><path class="cls-21" d="M427.7,166.18c-6.11,0-11.06,1.44-11.06,3.3L419,190.85a2,2,0,0,0,2,1.79h12.71a2,2,0,0,0,2-1.72l3-21.44C438.84,167.62,433.82,166.18,427.7,166.18Z"/><path class="cls-22" d="M435.81,190.85l.62-4.33c-2.75-1.86-5.77-3.37-8.31-5.5a19.33,19.33,0,0,1-6.33-10.93,18.37,18.37,0,0,1-.34-3.29c-2.89.61-4.81,1.58-4.81,2.68L419,190.85a2,2,0,0,0,2,1.79h12.71A2.09,2.09,0,0,0,435.81,190.85Z"/><path class="cls-27" d="M437.19,170.23c0,1.38-4.26,2.54-9.49,2.54s-9.48-1.16-9.48-2.54,4.26-2.54,9.48-2.54S437.19,168.86,437.19,170.23Z"/><path class="cls-28" d="M419.05,171.26c1.44.9,4.81,1.51,8.65,1.51s7.22-.61,8.66-1.51c-1.44-.89-4.81-1.51-8.66-1.51S420.49,170.37,419.05,171.26Z"/><path class="cls-29" d="M432.61,55.42c-.5.44-1,.93-1.5,1.37"/><path class="cls-30" d="M428.08,59.38A114.33,114.33,0,0,1,384.45,82c-2.61.68-5.33,1.29-8,.72a7.17,7.17,0,0,1-5.71-5.29c-.73-3.79,2.42-7.15,5.6-9,2.6-1.54,5.79-2.59,8.47-1.3,2.38,1.13,3.76,3.88,4.18,6.63.81,5-1,10.18-3.6,14.54s-5.87,8.16-8.44,12.52a45.4,45.4,0,0,0-4.45,35.14c2.69,9.45,9,18.05,17.41,22.05"/><path class="cls-29" d="M391.73,158.74c.62.24,1.23.44,1.88.65"/><path class="cls-31" d="M511.85,122h16.3a3,3,0,0,1,3,3v16.2a3,3,0,0,1-3,3H512a3,3,0,0,1-3-3V125A2.86,2.86,0,0,1,511.85,122Z"/><path class="cls-31" d="M511.85,150.22h16.3a3,3,0,0,1,3,3v16.2a3,3,0,0,1-3,3H512a3,3,0,0,1-3-3v-16.2A2.86,2.86,0,0,1,511.85,150.22Z"/><path class="cls-31" d="M511.85,178.32h16.3a3,3,0,0,1,3,3v16.2a3,3,0,0,1-3,3H512a3,3,0,0,1-3-3v-16.2A2.86,2.86,0,0,1,511.85,178.32Z"/><path class="cls-31" d="M511.85,206.52h16.3a3,3,0,0,1,3,3v16.2a3,3,0,0,1-3,3H512a3,3,0,0,1-3-3v-16.2A2.81,2.81,0,0,1,511.85,206.52Z"/><path class="cls-32" d="M509.35,119.92h16.2a3,3,0,0,1,3,3v16.2a3,3,0,0,1-3,3h-16.2a3,3,0,0,1-3-3v-16.2A3,3,0,0,1,509.35,119.92Z"/><path class="cls-32" d="M509.35,148h16.2a3,3,0,0,1,3,3v16.2a3,3,0,0,1-3,3h-16.2a3,3,0,0,1-3-3V151A3,3,0,0,1,509.35,148Z"/><path class="cls-32" d="M509.35,176.22h16.2a3,3,0,0,1,3,3v16.2a3,3,0,0,1-3,3h-16.2a3,3,0,0,1-3-3v-16.2A3,3,0,0,1,509.35,176.22Z"/><path class="cls-32" d="M509.35,204.32h16.2a3,3,0,0,1,3,3v16.2a3,3,0,0,1-3,3h-16.2a3,3,0,0,1-3-3v-16.2A3,3,0,0,1,509.35,204.32Z"/><path class="cls-33" d="M511.15,133.52a1.34,1.34,0,1,1,1.9-1.9l2.4,2.5,6.3-9.1a1.36,1.36,0,0,1,2.2,1.6l-7.2,10.4c-.1.1-.1.2-.2.2a1.39,1.39,0,0,1-1.9,0Z"/><path class="cls-34" d="M514.35,164.92a1.35,1.35,0,0,1-2.1-1.7l3.4-4-3.4-4a1.35,1.35,0,1,1,2.1-1.7l3.1,3.6,3.1-3.6a1.35,1.35,0,0,1,2.1,1.7l-3.4,4,3.4,4a1.35,1.35,0,0,1-2.1,1.7l-3.1-3.6Z"/><path class="cls-33" d="M511.15,189.82a1.34,1.34,0,1,1,1.9-1.9l2.4,2.5,6.3-9.1a1.3,1.3,0,0,1,1.9-.3,1.2,1.2,0,0,1,.3,1.8l-7.2,10.4c-.1.1-.1.2-.2.2a1.39,1.39,0,0,1-1.9,0Z"/><rect class="cls-4" x="319.5" y="113.43" width="89.91" height="53.49" rx="2"/><path class="cls-31" d="M342.41,136.5H362.9a.44.44,0,0,1,.44.44h0a.45.45,0,0,1-.44.45H342.41a.44.44,0,0,1-.44-.45h0A.44.44,0,0,1,342.41,136.5Z"/><path class="cls-35" d="M373,145.42l-42.86-.06a1.51,1.51,0,0,1-1.52-1.52V126.38a1.51,1.51,0,0,1,1.52-1.52l42.86.06a1.51,1.51,0,0,1,1.52,1.52V143.9A1.48,1.48,0,0,1,373,145.42Z"/><polygon class="cls-4" points="356.92 135.62 349.43 131.28 349.37 139.95 356.92 135.62"/><rect class="cls-36" x="381.03" y="124.87" width="19.05" height="9.94"/><rect class="cls-36" x="328.54" y="148.49" width="45.62" height="2.08"/><rect class="cls-36" x="328.54" y="153.13" width="45.62" height="2.08"/><rect class="cls-36" x="328.54" y="157.42" width="45.62" height="2.08"/><rect class="cls-36" x="381.07" y="137.06" width="19.01" height="9.94"/><rect class="cls-36" x="381.07" y="149.57" width="18.99" height="9.94"/><path class="cls-9" d="M321.5,113.43h85.91a2,2,0,0,1,2,2v4a0,0,0,0,1,0,0H319.5a0,0,0,0,1,0,0v-4a2,2,0,0,1,2-2Z"/><path class="cls-33" d="M398.05,117.54a1.09,1.09,0,1,0-1.08-1.08A1.09,1.09,0,0,0,398.05,117.54Z"/><path class="cls-37" d="M401.94,117.54a1.09,1.09,0,1,0-1.08-1.08A1.09,1.09,0,0,0,401.94,117.54Z"/><path class="cls-34" d="M405.84,117.54a1.09,1.09,0,1,0-1.09-1.08A1.09,1.09,0,0,0,405.84,117.54Z"/><polygon class="cls-9" points="461.34 61.55 426.67 61.55 418.72 69.93 418.49 61.55 414.55 61.55 414.55 34.98 461.34 34.98 461.34 61.55"/><polygon class="cls-12" points="459.83 59.74 425.16 59.74 417.21 68.12 416.98 59.74 413.04 59.74 413.04 33.17 459.83 33.17 459.83 59.74"/><path class="cls-31" d="M416.92,38.44h11.22c.13,0,.24.15.24.34h0c0,.18-.11.34-.24.34H416.92c-.13,0-.24-.16-.24-.34h0C416.68,38.62,416.79,38.44,416.92,38.44Z"/><path class="cls-31" d="M445.91,55.71h11.22c.14,0,.24.16.24.34h0c0,.19-.1.34-.24.34H445.91c-.13,0-.24-.15-.24-.34h0C445.67,55.9,445.78,55.71,445.91,55.71Z"/><rect class="cls-10" x="416.68" y="42.75" width="40.7" height="0.79" rx="0.4"/><path class="cls-10" d="M457,48H417.07a.4.4,0,0,1,0-.79H457a.4.4,0,0,1,0,.79Z"/><path class="cls-10" d="M457,52.07H417.07a.38.38,0,0,1-.39-.39.39.39,0,0,1,.39-.4H457a.39.39,0,0,1,.39.4A.38.38,0,0,1,457,52.07Z"/><circle class="cls-3" cx="315.46" cy="30.5" r="30.5"/><circle class="cls-4" cx="315.46" cy="30.52" r="27.3" transform="translate(70.82 232.01) rotate(-45)"/><rect class="cls-9" x="332.23" y="43.69" width="1.2" height="4" transform="translate(77.53 264.05) rotate(-48.36)"/><rect class="cls-9" x="297.3" y="12.73" width="1.2" height="4" transform="translate(88.94 227.56) rotate(-48.36)"/><rect class="cls-9" x="297.89" y="47.09" width="4" height="1.2" transform="translate(64.98 240.1) rotate(-48.36)"/><rect class="cls-9" x="328.91" y="12.12" width="4" height="1.2" transform="translate(101.52 251.56) rotate(-48.36)"/><rect class="cls-9" x="291.47" y="26.67" width="1.2" height="4" transform="translate(244.68 318.29) rotate(-86.31)"/><rect class="cls-9" x="338.06" y="29.68" width="1.2" height="4" transform="translate(285.29 367.6) rotate(-86.32)"/><rect class="cls-9" x="293.24" y="19.17" width="1.2" height="4" transform="translate(161.26 284.25) rotate(-67.37)"/><rect class="cls-9" x="336.42" y="37.21" width="1.2" height="4" transform="translate(171.11 335.18) rotate(-67.36)"/><rect class="cls-9" x="290.65" y="34.69" width="4" height="1.2" transform="translate(-0.53 65.88) rotate(-12.83)"/><rect class="cls-9" x="336.15" y="24.39" width="4" height="1.2" transform="translate(2.89 75.73) rotate(-12.83)"/><rect class="cls-9" x="292.95" y="40.93" width="4" height="1.2" transform="translate(17.23 149.19) rotate(-29.2)"/><rect class="cls-9" x="333.77" y="18.21" width="4" height="1.2" transform="translate(33.53 166.28) rotate(-29.22)"/><rect class="cls-9" x="310.56" y="5.21" width="1.2" height="4" transform="translate(3.81 56.28) rotate(-10.4)"/><rect class="cls-9" x="318.96" y="51.1" width="1.2" height="4" transform="translate(-4.34 58.49) rotate(-10.39)"/><rect class="cls-9" x="303.39" y="7.9" width="1.2" height="4" transform="translate(34.13 150.19) rotate(-29.33)"/><rect class="cls-9" x="326.16" y="48.51" width="1.2" height="4" transform="translate(17.17 166.6) rotate(-29.34)"/><rect class="cls-9" x="315.89" y="6.29" width="4" height="1.2" transform="translate(277.12 322.23) rotate(-83.87)"/><rect class="cls-9" x="310.83" y="52.77" width="4" height="1.2" transform="translate(226.39 358.72) rotate(-83.87)"/><rect class="cls-9" x="322.25" y="8.03" width="4" height="1.2" transform="translate(192.21 304.91) rotate(-67.5)"/><rect class="cls-9" x="304.47" y="51.13" width="4" height="1.2" transform="translate(141.36 315.05) rotate(-67.49)"/><polygon class="cls-9" points="315.76 14.5 316.76 14.5 316.26 29.9 325.06 37.7 324.46 38.4 315.36 30.3 315.76 14.5"/></g></g></g></svg>