<?xml version="1.0" encoding="utf-8"?>
<!-- Generator: Adobe Illustrator 24.0.1, SVG Export Plug-In . SVG Version: 6.00 Build 0)  -->
<svg version="1.1" id="Capa_1" xmlns="http://www.w3.org/2000/svg" xmlns:xlink="http://www.w3.org/1999/xlink" x="0px" y="0px"
	 viewBox="0 0 581 186.4" style="enable-background:new 0 0 581 186.4;" xml:space="preserve">
<style type="text/css">
	.st0{fill:#8F599F;}
	.st1{fill:#32B196;}
	.st2{opacity:0.8;}
	.st3{fill:#FFFFFF;}
</style>
<path class="st0" d="M544.9,135.8c-0.9-1.2-1.3-2.6-1.1-4c0.4-3,3.1-5.1,6.1-4.7c3,0.4,5.1,3.1,4.7,6.1c-0.4,3-3.1,5.1-6.1,4.7
	C547.1,137.7,545.8,137,544.9,135.8z M550.6,131.4c-0.3-0.4-0.7-0.6-1.1-0.7c-0.9-0.1-1.8,0.5-1.9,1.5c-0.1,0.5,0.1,0.9,0.4,1.3
	c0.3,0.4,0.7,0.6,1.1,0.7c0.9,0.1,1.8-0.5,1.9-1.5C551,132.2,550.8,131.8,550.6,131.4z"/>
<path class="st0" d="M532.2,101.8c-0.9-1.2-1.3-2.6-1.1-4c0.4-3,3.1-5.1,6.1-4.7c3,0.4,5.1,3.1,4.7,6.1s-3.1,5.1-6.1,4.7
	C534.4,103.7,533.1,103,532.2,101.8z M537.9,97.4c-0.3-0.4-0.7-0.6-1.1-0.7c-0.9-0.1-1.8,0.5-1.9,1.5c-0.1,0.5,0.1,0.9,0.4,1.3
	s0.7,0.6,1.1,0.7c0.9,0.1,1.8-0.5,1.9-1.5C538.3,98.2,538.2,97.8,537.9,97.4z"/>
<path class="st1" d="M571,103.4l-0.9-1.1l1.1-0.9c1-0.8,1.2-2.2,0.4-3.1s-2.2-1.2-3.1-0.4l-1.1,0.9l-0.9-1.1c-0.8-1-2.2-1.2-3.1-0.4
	s-1.2,2.2-0.4,3.1l0.9,1.1l-1.1,0.9c-1,0.8-1.2,2.2-0.4,3.1s2.2,1.2,3.1,0.4l1.1-0.9l0.9,1.1c0.8,1,2.2,1.2,3.1,0.4
	S571.8,104.4,571,103.4z"/>
<g class="st2">
	<path class="st3" d="M54.4,85.8L51,73.7H30l-4,12.1H10.8l21.4-61.4h16.6L70,85.8L54.4,85.8L54.4,85.8z M40.4,39.6l-6.8,22.3h13.2
		L40.4,39.6z"/>
	<path class="st3" d="M98.5,85.8v-5.5c-2.9,4.6-7.1,6.8-13.2,6.8c-9.2,0-15.5-6.4-15.5-15.3V40.4h13.4v28.5c0,5.1,2.4,7.4,6.9,7.4
		c5.8,0,7.8-3.9,7.8-11.2V40.4h13.3v45.5H98.5V85.8z"/>
	<path class="st3" d="M116.3,85.8V23.6h13.4v62.2H116.3z"/>
	<path class="st3" d="M163,85.8c-0.5-1-0.8-2.5-0.9-3.9c-2.3,3-6.8,5.1-13.6,5.1c-10.5,0-15.1-5-15.1-13.1c0-11.8,9-14.1,21.2-15.9
		c5.2-0.7,6.7-1.8,6.7-4.6c0-2.6-3-4-6.8-4c-5.1,0-7,2.3-7.5,5.7h-12.1c0.2-9.4,5.4-16,20.3-16c14.6,0,19.6,6.5,19.6,17.9v28.8H163z
		 M161.4,64.4c-1,0.9-2.8,1.5-6.7,2.3c-6.4,1.4-8.2,3.1-8.2,6.4c0,2.9,1.8,4.3,4.9,4.3c6.5,0,9.8-4.4,9.9-9.2L161.4,64.4z"/>
	<path class="st3" d="M233.1,85.8l-0.1-5.4c-2.7,4.6-7.1,6.6-11.8,6.6c-11.5,0-19.7-9.2-19.7-24.4c0-13.5,6.8-23.5,18.5-23.5
		c5.5,0,10,1.9,12.9,6.8V23.7H246v62.2h-12.9V85.8z M233.3,63.7c0-9.1-3.3-13.1-9.2-13.1c-5.9,0-9.1,3.9-9.1,12.8
		c0,8.3,3.6,12.8,9.1,12.8C229.4,76.1,233.3,71.7,233.3,63.7z"/>
	<path class="st3" d="M263.4,66.5c0.4,5.7,3.9,9.9,9,9.9c3.3,0,6.4-1.6,7-4h13.8C290.4,81.7,282.8,87,273,87c-15.4,0-23-8.3-23-24.8
		c0-14.1,8.1-23.1,22.2-23.1c14,0,21.6,8.6,21.6,25.4v1.9h-30.4V66.5z M280.4,58.4c-0.4-6-3.7-8.7-8.3-8.7s-7.9,3-8.3,8.7H280.4z"/>
	<path class="st3" d="M54.4,179.8L51,167.7H30l-4,12.1H10.8l21.4-61.4h16.6L70,179.8H54.4z M40.4,133.6l-6.8,22.3h13.2L40.4,133.6z"
		/>
	<path class="st3" d="M97.2,150.6c-0.6-4-3.6-6.4-7.5-6.4c-4.3,0-8.1,2.8-8.1,12s3.8,13.6,7.8,13.6c4.2,0,7.4-2.2,7.8-6.5h13.5
		c-1.3,10.5-10,17.7-21.2,17.7c-12.5,0-21.1-8.2-21.1-24.5s8.6-23.4,21.5-23.4c12,0,20.2,6.8,20.9,17.5L97.2,150.6L97.2,150.6z"/>
	<path class="st3" d="M151.4,162.8c0,9.6-5.2,18.2-18.7,18.2c-13.7,0-18.8-8.4-18.8-18.3V122H127v12.3h24.3v9.4H127v18.4
		c0,4.7,1.8,7.2,5.9,7.2c4.1,0,5.9-2.5,5.9-7.1v-12.4h12.5v13H151.4z"/>
	<path class="st3" d="M184.8,179.8v-5.5c-2.9,4.6-7.1,6.8-13.2,6.8c-9.2,0-15.5-6.4-15.5-15.3v-31.4h13.4v28.5
		c0,5.1,2.4,7.4,6.9,7.4c5.8,0,7.8-3.9,7.8-11.2v-24.7h13.3v45.5L184.8,179.8L184.8,179.8z"/>
	<path class="st3" d="M231,179.8c-0.5-1-0.8-2.5-0.9-3.9c-2.3,3-6.8,5.1-13.6,5.1c-10.5,0-15.1-5-15.1-13.1c0-11.8,9-14.1,21.2-15.9
		c5.2-0.7,6.7-1.8,6.7-4.6c0-2.6-3-4-6.8-4c-5.1,0-7,2.3-7.5,5.7h-12.1c0.2-9.4,5.4-16,20.3-16c14.6,0,19.6,6.5,19.6,17.9v28.8H231z
		 M229.4,158.4c-1,0.9-2.8,1.5-6.7,2.3c-6.4,1.4-8.2,3.1-8.2,6.4c0,2.9,1.8,4.3,4.9,4.3c6.5,0,9.8-4.4,9.9-9.2L229.4,158.4z"/>
	<path class="st3" d="M247.8,179.8v-62.2h13.4v62.2H247.8z"/>
	<path class="st3" d="M266.4,128.8v-11.2h13.4v11.2H266.4z M266.4,179.8v-45.5h13.4v45.5H266.4z"/>
	<path class="st3" d="M283.5,179.8v-10.3l21.8-24.6H285v-10.6h37.5v10.8l-21.8,23.8h22.5v10.9L283.5,179.8L283.5,179.8z"/>
	<path class="st3" d="M354.8,179.8c-0.5-1-0.8-2.5-0.9-3.9c-2.3,3-6.8,5.1-13.6,5.1c-10.5,0-15.1-5-15.1-13.1
		c0-11.8,9-14.1,21.2-15.9c5.2-0.7,6.7-1.8,6.7-4.6c0-2.6-3-4-6.8-4c-5.1,0-7,2.3-7.5,5.7h-12.1c0.2-9.4,5.4-16,20.3-16
		c14.6,0,19.6,6.5,19.6,17.9v28.8H354.8z M353.3,158.4c-1,0.9-2.8,1.5-6.7,2.3c-6.4,1.4-8.2,3.1-8.2,6.4c0,2.9,1.8,4.3,4.9,4.3
		c6.5,0,9.8-4.4,9.9-9.2L353.3,158.4z"/>
	<path class="st3" d="M399.7,150.6c-0.6-4-3.6-6.4-7.5-6.4c-4.3,0-8.1,2.8-8.1,12s3.8,13.6,7.8,13.6c4.2,0,7.4-2.2,7.8-6.5h13.5
		c-1.3,10.5-10,17.7-21.2,17.7c-12.5,0-21.1-8.2-21.1-24.5s8.6-23.4,21.5-23.4c12,0,20.2,6.8,20.9,17.5L399.7,150.6L399.7,150.6z"/>
	<path class="st3" d="M416.7,128.8v-11.2h13.4v11.2H416.7z M416.7,179.8v-45.5h13.4v45.5H416.7z"/>
	<path class="st3" d="M434.4,157c0-14.4,9.1-24,23.7-24c14.4,0,23.4,9.4,23.4,24c0,14.4-9.1,24-23.4,24
		C443.2,181,434.4,171.2,434.4,157z M467.9,157c0-8.7-3.2-12.6-9.9-12.6s-9.9,3.9-9.9,12.6s3.2,12.8,9.9,12.8S467.9,165.7,467.9,157
		z M452.1,128.5L449,123l19.1-10.8l4.6,8.1L452.1,128.5z"/>
	<path class="st3" d="M513.8,179.8v-28.2c0-5.7-2.1-7.6-6.9-7.6c-5.3,0-8,2.7-8,8.3v27.5h-13.4v-45.5h12.8v5.7
		c2.6-4.6,7-6.9,13.7-6.9c8.9,0,15.4,5.6,15.4,14.5v32.2H513.8z"/>
</g>
<g>
	<path class="st1" d="M51.7,77.8l-3.4-12.1h-21l-4,12.1H8.2l21.4-61.4h16.6l21.2,61.4L51.7,77.8L51.7,77.8z M37.8,31.6L31,53.9h13.2
		L37.8,31.6z"/>
	<path class="st1" d="M95.9,77.8v-5.5c-2.9,4.6-7.1,6.8-13.2,6.8c-9.2,0-15.5-6.4-15.5-15.3V32.4h13.4v28.5c0,5.1,2.4,7.4,6.9,7.4
		c5.8,0,7.8-3.9,7.8-11.2V32.4h13.3v45.5H95.9V77.8z"/>
	<path class="st1" d="M113.6,77.8V15.6H127v62.2H113.6z"/>
	<path class="st1" d="M160.3,77.8c-0.5-1-0.8-2.5-0.9-3.9c-2.3,3-6.8,5.1-13.6,5.1c-10.5,0-15.1-5-15.1-13.1
		c0-11.8,9-14.1,21.2-15.9c5.2-0.7,6.7-1.8,6.7-4.6c0-2.6-3-4-6.8-4c-5.1,0-7,2.3-7.5,5.7h-12.1c0.2-9.4,5.4-16,20.3-16
		c14.6,0,19.6,6.5,19.6,17.9v28.8H160.3z M158.8,56.4c-1,0.9-2.8,1.5-6.7,2.3c-6.4,1.4-8.2,3.1-8.2,6.4c0,2.9,1.8,4.3,4.9,4.3
		c6.5,0,9.8-4.4,9.9-9.2L158.8,56.4z"/>
	<path class="st1" d="M230.4,77.8l-0.1-5.4c-2.7,4.6-7.1,6.6-11.8,6.6c-11.5,0-19.7-9.2-19.7-24.4c0-13.5,6.8-23.5,18.5-23.5
		c5.5,0,10,1.9,12.9,6.8V15.7h13.1v62.2h-12.9V77.8z M230.6,55.7c0-9.1-3.3-13.1-9.2-13.1c-5.9,0-9.1,3.9-9.1,12.8
		c0,8.3,3.6,12.8,9.1,12.8C226.7,68.1,230.6,63.7,230.6,55.7z"/>
	<path class="st1" d="M260.8,58.4c0.4,5.7,3.9,9.9,9,9.9c3.3,0,6.4-1.6,7-4h13.8c-2.8,9.3-10.4,14.6-20.2,14.6
		c-15.4,0-23-8.3-23-24.8c0-14.1,8.1-23.1,22.2-23.1c14,0,21.6,8.6,21.6,25.4v1.9h-30.4V58.4z M277.7,50.4c-0.4-6-3.7-8.7-8.3-8.7
		s-7.9,3-8.3,8.7H277.7z"/>
	<path class="st1" d="M51.7,171.8l-3.4-12.1h-21l-4,12.1H8.2l21.4-61.4h16.6l21.2,61.4H51.7z M37.8,125.6L31,147.9h13.2L37.8,125.6z
		"/>
	<path class="st1" d="M94.6,142.6c-0.6-4-3.6-6.4-7.5-6.4c-4.3,0-8.1,2.8-8.1,12c0,9.2,3.8,13.6,7.8,13.6c4.2,0,7.4-2.2,7.8-6.5H108
		c-1.3,10.5-10,17.7-21.2,17.7c-12.5,0-21.1-8.2-21.1-24.5s8.6-23.4,21.5-23.4c12,0,20.2,6.8,20.9,17.5L94.6,142.6L94.6,142.6z"/>
	<path class="st1" d="M148.8,154.8c0,9.6-5.2,18.2-18.7,18.2c-13.7,0-18.8-8.4-18.8-18.3V114h13.1v12.3h24.3v9.4h-24.3v18.4
		c0,4.7,1.8,7.2,5.9,7.2c4.1,0,5.9-2.5,5.9-7.1v-12.4h12.5v13H148.8z"/>
	<path class="st1" d="M182.2,171.8v-5.5c-2.9,4.6-7.1,6.8-13.2,6.8c-9.2,0-15.5-6.4-15.5-15.3v-31.4h13.4v28.5
		c0,5.1,2.4,7.4,6.9,7.4c5.8,0,7.8-3.9,7.8-11.2v-24.7h13.3v45.5L182.2,171.8L182.2,171.8z"/>
	<path class="st1" d="M228.3,171.8c-0.5-1-0.8-2.5-0.9-3.9c-2.3,3-6.8,5.1-13.6,5.1c-10.5,0-15.1-5-15.1-13.1
		c0-11.8,9-14.1,21.2-15.9c5.2-0.7,6.7-1.8,6.7-4.6c0-2.6-3-4-6.8-4c-5.1,0-7,2.3-7.5,5.7h-12.1c0.2-9.4,5.4-16,20.3-16
		c14.6,0,19.6,6.5,19.6,17.9v28.8H228.3z M226.7,150.4c-1,0.9-2.8,1.5-6.7,2.3c-6.4,1.4-8.2,3.1-8.2,6.4c0,2.9,1.8,4.3,4.9,4.3
		c6.5,0,9.8-4.4,9.9-9.2L226.7,150.4z"/>
	<path class="st1" d="M245.1,171.8v-62.2h13.4v62.2H245.1z"/>
	<path class="st1" d="M263.7,120.8v-11.2h13.4v11.2H263.7z M263.7,171.8v-45.5h13.4v45.5H263.7z"/>
	<path class="st1" d="M280.8,171.8v-10.3l21.8-24.6h-20.3v-10.6h37.5v10.8L298,160.9h22.5v10.9H280.8z"/>
	<path class="st1" d="M352.2,171.8c-0.5-1-0.8-2.5-0.9-3.9c-2.3,3-6.8,5.1-13.6,5.1c-10.5,0-15.1-5-15.1-13.1
		c0-11.8,9-14.1,21.2-15.9c5.2-0.7,6.7-1.8,6.7-4.6c0-2.6-3-4-6.8-4c-5.1,0-7,2.3-7.5,5.7H324c0.2-9.4,5.4-16,20.3-16
		c14.6,0,19.6,6.5,19.6,17.9v28.8H352.2z M350.6,150.4c-1,0.9-2.8,1.5-6.7,2.3c-6.4,1.4-8.2,3.1-8.2,6.4c0,2.9,1.8,4.3,4.9,4.3
		c6.5,0,9.8-4.4,9.9-9.2L350.6,150.4z"/>
	<path class="st1" d="M397,142.6c-0.6-4-3.6-6.4-7.5-6.4c-4.3,0-8.1,2.8-8.1,12c0,9.2,3.8,13.6,7.8,13.6c4.2,0,7.4-2.2,7.8-6.5h13.5
		c-1.3,10.5-10,17.7-21.2,17.7c-12.5,0-21.1-8.2-21.1-24.5s8.6-23.4,21.5-23.4c12,0,20.2,6.8,20.9,17.5L397,142.6L397,142.6z"/>
	<path class="st1" d="M414,120.8v-11.2h13.4v11.2H414z M414,171.8v-45.5h13.4v45.5H414z"/>
	<path class="st1" d="M431.7,149c0-14.4,9.1-24,23.7-24c14.4,0,23.4,9.4,23.4,24c0,14.4-9.1,24-23.4,24
		C440.5,173,431.7,163.2,431.7,149z M465.3,149c0-8.7-3.2-12.6-9.9-12.6c-6.7,0-9.9,3.9-9.9,12.6s3.2,12.8,9.9,12.8
		C462,161.8,465.3,157.7,465.3,149z M449.5,120.5l-3.1-5.5l19.1-10.8l4.6,8.1L449.5,120.5z"/>
	<path class="st1" d="M511.2,171.8v-28.2c0-5.7-2.1-7.6-6.9-7.6c-5.3,0-8,2.7-8,8.3v27.5h-13.4v-45.5h12.8v5.7
		c2.6-4.6,7-6.9,13.7-6.9c8.9,0,15.4,5.6,15.4,14.5v32.2L511.2,171.8L511.2,171.8z"/>
</g>
</svg>
