<svg xmlns="http://www.w3.org/2000/svg" viewBox="0 0 1587.8 1075.73"><defs><style>.cls-1,.cls-2{fill:#cec3fc;isolation:isolate;}.cls-1{opacity:0.31;}.cls-2{opacity:0.21;}</style></defs><title>Recurso 3</title><g id="Capa_2" data-name="Capa 2"><g id="Capa_1-2" data-name="Capa 1"><path class="cls-1" d="M1587.8,70.53c-48.6-21.4-99.5-35.7-152.3-41-203.5-20.4-431,62-560.5,223.6-49.4,61.6-104.7,188.3-132.4,262-32.4,86.2-54.6,177.7-105.5,254.4-36,54.3-86.5,99.7-146.1,126.1-99.5,44.1-212.3,33.1-314.8,66.1-66.1,21.3-128.8,61.5-176.2,114l1587.8-.1Z"/><path class="cls-2" d="M1587.8,13.43A668.5,668.5,0,0,0,1520.2,3c-203.5-20.3-431,62.1-560.5,223.8-49.4,61.6-86.2,132.7-113.9,206.4-32.4,86.2-54.6,177.7-105.5,254.4-36,54.3-86.5,99.7-146.1,126.1-99.5,44.1-212.3,33.1-314.8,66.1C189.1,908.93,105.1,973.23,58,1056c-2.8,5-5.5,10.1-8.1,15.2l1537.9-.1Z"/></g></g></svg>