<?xml version="1.0" encoding="utf-8"?>
<!-- Generator: Adobe Illustrator 24.0.2, SVG Export Plug-In . SVG Version: 6.00 Build 0)  -->
<svg version="1.1" id="Layer" xmlns="http://www.w3.org/2000/svg" xmlns:xlink="http://www.w3.org/1999/xlink" x="0px" y="0px"
	 viewBox="0 0 512 512" style="enable-background:new 0 0 512 512;" xml:space="preserve">
<style type="text/css">
	.st0{fill:none;stroke:#8CDDCC;stroke-miterlimit:10;}
	.st1{fill:#FFFFFF;}
</style>
<circle class="st0" cx="256.1" cy="256" r="176"/>
<g>
	<path class="st1" d="M291.3,331.5c6.3-6.2,6.4-16.3,0.2-22.6l-51.3-52.7l51.3-53c6.2-6.3,6-16.4-0.3-22.6c-6.3-6.2-16.4-6-22.6,0.3
		l-51.3,52.6c-5.9,5.8-9.3,13.9-9.3,22.5c0,8.6,3.4,16.7,9.5,22.7l51.1,52.5c3.2,3.2,7.3,4.8,11.5,4.8
		C284.2,336,288.2,334.5,291.3,331.5L291.3,331.5z"/>
	<path class="st1" d="M446.2,282.4c1.2-8.6,1.8-17.4,1.8-26.3c0-8.9-0.6-17.8-1.8-26.3c-1.2-8.8-9.3-14.8-18.1-13.6
		c-8.8,1.2-14.8,9.3-13.6,18.1c1,7,1.5,14.4,1.5,21.7s-0.5,14.7-1.5,21.7c-1.2,8.7,4.9,16.9,13.6,18.1c0.8,0.1,1.5,0.2,2.3,0.2
		C438.3,296,445.1,290.2,446.2,282.4z"/>
	<path class="st1" d="M256.1,64c-105.9,0-192,86.1-192,192s86.1,192,192,192c72.5,0,138-40.1,171.1-104.8c4-7.8,0.9-17.5-7-21.5
		c-7.8-4-17.5-0.9-21.5,7c-27.6,53.9-82.2,87.3-142.6,87.3c-88.2,0-160-71.8-160-160s71.8-160,160-160c60.4,0,115,33.4,142.5,87.2
		c4,7.9,13.6,11,21.5,7s11-13.6,7-21.5C394.1,104.1,328.6,64,256.1,64L256.1,64z"/>
</g>
</svg>
