<?xml version="1.0" encoding="utf-8"?>
<!-- Generator: Adobe Illustrator 24.0.1, SVG Export Plug-In . SVG Version: 6.00 Build 0)  -->
<svg version="1.1" id="Capa_1" xmlns="http://www.w3.org/2000/svg" xmlns:xlink="http://www.w3.org/1999/xlink" x="0px" y="0px"
	 viewBox="0 0 1920 1080" style="enable-background:new 0 0 1920 1080;" xml:space="preserve">
<style type="text/css">
	.st0{opacity:0.1;fill:#905AA1;}
	.st1{opacity:5.000000e-02;fill:#905AA1;}
</style>
<g>
	<path class="st0" d="M0,1084.9l1714.8,0.1c-51.1-56.7-118.9-100.1-190.3-123.1c-110.7-35.7-232.5-23.8-340-71.4
		c-64.4-28.5-118.9-77.6-157.8-136.2c-55-82.8-78.9-181.7-113.9-274.7c-29.9-79.6-89.7-216.4-143-282.9
		C629.9,22.1,384.3-66.9,164.5-45C107.5-39.2,52.5-23.8,0-0.7V1084.9z"/>
</g>
<g>
	<path class="st1" d="M0,1080l1660.9,0.1c-2.8-5.5-5.7-11-8.8-16.4c-50.9-89.4-141.6-158.9-239.1-190.3
		c-110.7-35.7-232.5-23.8-340-71.4c-64.4-28.5-118.9-77.6-157.8-136.2c-55-82.8-78.9-181.7-113.9-274.7
		c-29.9-79.6-69.7-156.4-123-222.9C538.4-6.4,292.8-95.5,73.1-73.5C48.5-71,24.1-67.3,0-62.3V1080z"/>
</g>
</svg>
