<?xml version="1.0" encoding="utf-8"?>
<!-- Generator: Adobe Illustrator 24.0.3, SVG Export Plug-In . SVG Version: 6.00 Build 0)  -->
<svg version="1.1" id="Capa_1" xmlns="http://www.w3.org/2000/svg" xmlns:xlink="http://www.w3.org/1999/xlink" x="0px" y="0px"
	 viewBox="0 0 1920 400" style="enable-background:new 0 0 1920 400;" xml:space="preserve">
<style type="text/css">
	.st0{fill:#FFFFFF;}
	.st1{fill:#CEC3FC;fill-opacity:0.21;}
	.st2{fill:#CEC3FC;fill-opacity:0.31;}
	.st3{fill:#1BBB9A;}
	.st4{fill:#32B196;}
	.st5{fill:#8F599F;}
	.st6{opacity:0.2;fill:#1BBB9A;enable-background:new    ;}
	.st7{opacity:0.4;fill:#1BBB9A;enable-background:new    ;}
</style>
<title>bannerVerde</title>
<g id="Capa_2_1_">
	<g id="Capa_1-2">
		<rect class="st0" width="1920" height="400"/>
	</g>
</g>
<path class="st1" d="M739.8,293.2c-279.9-91.3-573.9-60.8-739.8-30V400h1961.6C1783.5,233.6,1144.9,425.4,739.8,293.2z"/>
<path class="st2" d="M558.1,300.6C318.4,231.2,130.9,216,0,219.3V400h1565.8C1233.9,301.3,978.4,422.4,558.1,300.6z"/>
<g>
	<g>
		<g>
			<path class="st0" d="M151.9,353.5c1.3,0,2.4,1.1,2.4,2.4s-1.1,2.4-2.4,2.4c-1.3,0-2.4-1.1-2.4-2.4S150.6,353.5,151.9,353.5z"/>
			<path class="st0" d="M131.9,353.5c1.3,0,2.4,1.1,2.4,2.4s-1.1,2.4-2.4,2.4c-1.3,0-2.4-1.1-2.4-2.4S130.6,353.5,131.9,353.5z"/>
			<path class="st0" d="M112,353.5c1.3,0,2.4,1.1,2.4,2.4s-1.1,2.4-2.4,2.4s-2.4-1.1-2.4-2.4S110.6,353.5,112,353.5z"/>
			<path class="st0" d="M92,353.5c1.3,0,2.4,1.1,2.4,2.4s-1.1,2.4-2.4,2.4s-2.4-1.1-2.4-2.4S90.7,353.5,92,353.5z"/>
			<path class="st0" d="M72,353.5c1.3,0,2.4,1.1,2.4,2.4s-1.1,2.4-2.4,2.4s-2.4-1.1-2.4-2.4S70.7,353.5,72,353.5z"/>
			<path class="st0" d="M52.1,353.5c1.3,0,2.4,1.1,2.4,2.4s-1.1,2.4-2.4,2.4c-1.3,0-2.4-1.1-2.4-2.4
				C49.7,354.6,50.8,353.5,52.1,353.5z"/>
			<path class="st0" d="M32.1,353.5c1.3,0,2.4,1.1,2.4,2.4s-1.1,2.4-2.4,2.4c-1.3,0-2.4-1.1-2.4-2.4
				C29.7,354.6,30.8,353.5,32.1,353.5z"/>
			<path class="st0" d="M12.2,353.5c1.3,0,2.4,1.1,2.4,2.4s-1.1,2.4-2.4,2.4s-2.4-1.1-2.4-2.4C9.7,354.6,10.8,353.5,12.2,353.5z"/>
		</g>
		<g>
			<path class="st0" d="M151.9,332.7c1.3,0,2.4,1.1,2.4,2.4s-1.1,2.4-2.4,2.4c-1.3,0-2.4-1.1-2.4-2.4
				C149.5,333.8,150.6,332.7,151.9,332.7z"/>
			<path class="st0" d="M131.9,332.7c1.3,0,2.4,1.1,2.4,2.4s-1.1,2.4-2.4,2.4c-1.3,0-2.4-1.1-2.4-2.4
				C129.5,333.8,130.6,332.7,131.9,332.7z"/>
			<path class="st0" d="M112,332.7c1.3,0,2.4,1.1,2.4,2.4s-1.1,2.4-2.4,2.4s-2.4-1.1-2.4-2.4C109.6,333.8,110.6,332.7,112,332.7z"/>
			<path class="st0" d="M92,332.7c1.3,0,2.4,1.1,2.4,2.4s-1.1,2.4-2.4,2.4s-2.4-1.1-2.4-2.4C89.6,333.8,90.7,332.7,92,332.7z"/>
			<circle class="st0" cx="72" cy="335.1" r="2.4"/>
			<circle class="st0" cx="52.1" cy="335.1" r="2.4"/>
			<circle class="st0" cx="32.1" cy="335.1" r="2.4"/>
			<circle class="st0" cx="12.2" cy="335.1" r="2.4"/>
		</g>
		<g>
			<path class="st0" d="M151.9,311.9c1.3,0,2.4,1.1,2.4,2.4s-1.1,2.4-2.4,2.4c-1.3,0-2.4-1.1-2.4-2.4S150.6,311.9,151.9,311.9z"/>
			<path class="st0" d="M131.9,311.9c1.3,0,2.4,1.1,2.4,2.4s-1.1,2.4-2.4,2.4c-1.3,0-2.4-1.1-2.4-2.4S130.6,311.9,131.9,311.9z"/>
			<path class="st0" d="M112,311.9c1.3,0,2.4,1.1,2.4,2.4s-1.1,2.4-2.4,2.4s-2.4-1.1-2.4-2.4S110.6,311.9,112,311.9z"/>
			<path class="st0" d="M92,311.9c1.3,0,2.4,1.1,2.4,2.4s-1.1,2.4-2.4,2.4s-2.4-1.1-2.4-2.4S90.7,311.9,92,311.9z"/>
			<circle class="st0" cx="72" cy="314.4" r="2.4"/>
			<circle class="st0" cx="52.1" cy="314.4" r="2.4"/>
			<circle class="st0" cx="32.1" cy="314.4" r="2.4"/>
			<circle class="st0" cx="12.2" cy="314.4" r="2.4"/>
		</g>
		<g>
			<path class="st0" d="M151.9,291.2c1.3,0,2.4,1.1,2.4,2.4s-1.1,2.4-2.4,2.4c-1.3,0-2.4-1.1-2.4-2.4S150.6,291.2,151.9,291.2z"/>
			<path class="st0" d="M131.9,291.2c1.3,0,2.4,1.1,2.4,2.4s-1.1,2.4-2.4,2.4c-1.3,0-2.4-1.1-2.4-2.4S130.6,291.2,131.9,291.2z"/>
			<path class="st0" d="M112,291.2c1.3,0,2.4,1.1,2.4,2.4s-1.1,2.4-2.4,2.4s-2.4-1.1-2.4-2.4S110.6,291.2,112,291.2z"/>
			<path class="st0" d="M92,291.2c1.3,0,2.4,1.1,2.4,2.4S93.3,296,92,296s-2.4-1.1-2.4-2.4S90.7,291.2,92,291.2z"/>
			<circle class="st0" cx="72" cy="293.6" r="2.4"/>
			<circle class="st0" cx="52.1" cy="293.6" r="2.4"/>
			<circle class="st0" cx="32.1" cy="293.6" r="2.4"/>
			<circle class="st0" cx="12.2" cy="293.6" r="2.4"/>
		</g>
	</g>
</g>
<g>
	<path class="st3" d="M1846.7,330.1c-8.5,0-12.7-7.6-16.3-14.5c-3.3-6.3-6.6-12.1-12.4-12.1s-9,5.8-12.4,12.1
		c-3.6,6.7-7.8,14.5-16.3,14.5s-12.6-7.6-16.3-14.5c-3.3-6.3-6.6-12.1-12.4-12.1s-9,5.8-12.4,12.1c-3.6,6.7-7.8,14.5-16.3,14.5
		s-12.6-7.6-16.3-14.5c-3.3-6.3-6.6-12.1-12.4-12.1c-1.2,0-2.2-1-2.2-2.2s1-2.2,2.2-2.2c8.5,0,12.6,7.6,16.3,14.5
		c3.3,6.3,6.6,12.1,12.4,12.1s9-5.8,12.4-12.1c3.6-6.7,7.8-14.5,16.3-14.5s12.6,7.6,16.3,14.5c3.3,6.3,6.6,12.1,12.4,12.1
		s9-5.8,12.4-12.1c3.6-6.7,7.8-14.5,16.3-14.5s12.7,7.6,16.3,14.5c3.3,6.3,6.6,12.1,12.4,12.1s9-5.8,12.4-12.1
		c3.6-6.7,7.8-14.5,16.3-14.5c1.2,0,2.2,1,2.2,2.2s-1,2.2-2.2,2.2c-5.8,0-9,5.8-12.4,12.1C1859.3,322.3,1855.3,330.1,1846.7,330.1z"
		/>
</g>
<path class="st4" d="M1799.4,122.9c-2.5,0-5-1-6.7-2.8c-3.7-3.7-3.7-9.7,0-13.4c3.7-3.7,9.7-3.7,13.4,0c3.7,3.7,3.7,9.7,0,13.4
	C1804.4,122,1802,122.9,1799.4,122.9z M1799.4,110.4c-0.8,0-1.6,0.3-2.2,0.8c-1.2,1.2-1.2,3.1,0,4.2c0.6,0.6,1.3,0.8,2.2,0.8
	c0.9,0,1.6-0.3,2.2-0.8c1.2-1.2,1.2-3.1,0-4.2C1801,110.8,1800.2,110.4,1799.4,110.4z"/>
<path class="st5" d="M1742.1,32.6h-3.6V29c0-3-2.3-5.6-5.6-5.6c-3.2,0-5.6,2.3-5.6,5.6v3.6h-3.6c-3,0-5.6,2.3-5.6,5.6
	c0,3.2,2.3,5.6,5.6,5.6h3.6v3.6c0,3,2.3,5.6,5.6,5.6c3.2,0,5.6-2.3,5.6-5.6v-3.6h3.6c3,0,5.6-2.3,5.6-5.6
	C1747.7,34.9,1745.1,32.6,1742.1,32.6z"/>
<path class="st5" d="M974.1,322.3H972v-2.1c0-1.8-1.4-3.3-3.3-3.3c-1.8,0-3.3,1.4-3.3,3.3v2.1h-2.1c-1.8,0-3.3,1.4-3.3,3.3
	c0,1.8,1.4,3.3,3.3,3.3h2.1v2.1c0,1.8,1.4,3.3,3.3,3.3c1.8,0,3.3-1.4,3.3-3.3v-2.1h2.1c1.8,0,3.3-1.4,3.3-3.3
	C977.3,323.7,975.8,322.3,974.1,322.3z"/>
<path class="st4" d="M1426.7,358.3c-2,0-4-0.7-5.4-2.3c-3-3-3-7.9,0-10.9s7.9-3,10.9,0s3,7.9,0,10.9
	C1430.7,357.5,1428.7,358.3,1426.7,358.3L1426.7,358.3z M1426.7,348.1c-0.6,0-1.3,0.2-1.7,0.7c-1,1-1,2.5,0,3.4c1,1,2.5,1,3.4,0
	c1-1,1-2.5,0-3.4C1428,348.3,1427.4,348.1,1426.7,348.1L1426.7,348.1z"/>
<path class="st5" d="M1406.6,331.5h-1.7v-1.7c0-1.5-1.2-2.6-2.6-2.6s-2.6,1.2-2.6,2.6v1.7h-1.7c-1.5,0-2.6,1.2-2.6,2.6
	c0,1.5,1.2,2.6,2.6,2.6h1.7v1.7c0,1.5,1.2,2.6,2.6,2.6s2.6-1.2,2.6-2.6v-1.7h1.7c1.5,0,2.6-1.2,2.6-2.6
	C1409.3,332.7,1408.1,331.5,1406.6,331.5z"/>
<path class="st5" d="M258.5,338.2l-4.6-4l4.1-4.6c3.6-4.1,3-10-0.8-13.3c-4.1-3.6-9.9-2.9-13.3,0.9l-4.1,4.6l-4.6-4
	c-4.1-3.6-9.9-2.9-13.3,0.9c-3.6,4.1-3,10,0.8,13.3l4.6,4l-4.1,4.6c-3.6,4.1-3,10,0.8,13.3c4.1,3.6,9.9,2.9,13.3-0.9l4.1-4.6l4.6,4
	c4.1,3.6,9.9,2.9,13.3-0.9C262.9,347.9,262.5,341.7,258.5,338.2z"/>
<path class="st6" d="M-304.5-34.7v463.5h505.3c0,0,513.9-136.3,627.2-457.2L-304.5-34.7z"/>
<path class="st7" d="M-379.4-17.1v463.5h505.3c0,0,513.9-136.3,627.2-457.2L-379.4-17.1z"/>
</svg>
