<?xml version="1.0" encoding="utf-8"?>
<!-- Generator: Adobe Illustrator 24.0.3, SVG Export Plug-In . SVG Version: 6.00 Build 0)  -->
<svg version="1.1" id="Capa_1" xmlns="http://www.w3.org/2000/svg" xmlns:xlink="http://www.w3.org/1999/xlink" x="0px" y="0px"
	 viewBox="0 0 512 512" style="enable-background:new 0 0 512 512;" xml:space="preserve">
<style type="text/css">
	.st0{opacity:0.5;fill:#1BBB9A;}
	.st1{opacity:0.1;fill:#590BB2;enable-background:new    ;}
	.st2{fill:#9A58B4;}
	.st3{fill:#8E44AC;}
	.st4{fill:#C182F9;}
	.st5{fill:#EFEBFF;}
	.st6{fill:#E2CCFF;}
	.st7{fill:#FFA052;}
	.st8{fill:#FFFFFF;}
	.st9{fill:#F29B11;}
	.st10{fill:#B557FF;}
	.st11{fill:#590BB2;}
</style>
<path class="st0" d="M500.6,200.6c7.2-16.2,11.2-34.1,11.4-52.9c0.7-72-56.2-132.1-128.1-135.2c-23.6-1-45.9,4.1-65.5,13.8
	c-39.3,19.6-85.4,19.6-124.8,0c-19.6-9.8-41.9-14.8-65.5-13.8C56.2,15.6-0.7,75.7,0,147.7c0.2,18.8,4.2,36.7,11.4,52.9
	c15.6,35.3,15.6,75.5,0,110.8C4.2,327.6,0.2,345.5,0,364.3c-0.7,72,56.2,132.1,128.1,135.2c23.6,1,45.9-4.1,65.5-13.8
	c39.3-19.6,85.4-19.6,124.8,0c19.6,9.8,41.9,14.8,65.5,13.8c71.9-3.1,128.8-63.2,128.1-135.2c-0.2-18.8-4.2-36.7-11.4-52.9
	C484.9,276.1,484.9,235.9,500.6,200.6L500.6,200.6z"/>
<path class="st1" d="M437,123.2H75c-8.3,0-15,6.7-15,15v209.9c0,8.3,6.7,15,15,15h111.5v11.2c0,5.5,4.5,10,10,10h20.9v56H178
	c-5.6,0-10.2,4.6-10.2,10.2s4.6,10.2,10.2,10.2H334c5.6,0,10.2-4.6,10.2-10.2s-4.6-10.2-10.2-10.2h-39.4v-56h20.9
	c5.5,0,10-4.5,10-10v-11.2H437c8.3,0,15-6.7,15-15V138.2C452,130,445.3,123.2,437,123.2z"/>
<path class="st2" d="M116,388.4h-3v-3c0-2.8-2.2-5-5-5s-5,2.2-5,5v3h-3c-2.8,0-5,2.2-5,5s2.2,5,5,5h3v3c0,2.8,2.2,5,5,5s5-2.2,5-5
	v-3h3c2.8,0,5-2.2,5-5S118.8,388.4,116,388.4z"/>
<path class="st3" d="M100,48.2h-3v-3c0-2.8-2.2-5-5-5s-5,2.2-5,5v3h-3c-2.8,0-5,2.2-5,5s2.2,5,5,5h3v3c0,2.8,2.2,5,5,5s5-2.2,5-5v-3
	h3c2.8,0,5-2.2,5-5S102.8,48.2,100,48.2z"/>
<path class="st3" d="M152.2,56.2h-3v-3c0-2.8-2.2-5-5-5s-5,2.2-5,5v3h-3c-2.8,0-5,2.2-5,5s2.2,5,5,5h3v3c0,2.8,2.2,5,5,5s5-2.2,5-5
	v-3h3c2.8,0,5-2.2,5-5S155,56.2,152.2,56.2z"/>
<path class="st4" d="M144.2,374.7c-1.3,0-2.6-0.5-3.5-1.5l-4.5-4.5l-4.5,4.5c-2,2-5.1,2-7.1,0c-2-2-2-5.1,0-7.1l8-8c2-2,5.1-2,7.1,0
	l8,8c2,2,2,5.1,0,7.1C146.8,374.2,145.5,374.7,144.2,374.7L144.2,374.7z"/>
<path class="st4" d="M421.5,402.4c-1.3,0-2.6-0.5-3.5-1.5l-4.5-4.5l-4.5,4.5c-2,2-5.1,2-7.1,0c-2-2-2-5.1,0-7.1l8-8c2-2,5.1-2,7.1,0
	l8,8c2,2,2,5.1,0,7.1C424.1,401.9,422.8,402.4,421.5,402.4z"/>
<path class="st5" d="M217.3,327.6h77.4v99.1h-77.4L217.3,327.6z"/>
<path class="st6" d="M217.3,327.6h77.4v46h-77.4L217.3,327.6z"/>
<path class="st7" d="M315.6,357.4H196.4c-5.5,0-10-4.5-10-10v-22.6h139.1v22.6C325.6,352.9,321.1,357.4,315.6,357.4z"/>
<path class="st4" d="M437,336.2H75c-8.3,0-15-6.7-15-15V111.2c0-8.3,6.7-15,15-15H437c8.3,0,15,6.7,15,15v209.9
	C452,329.5,445.3,336.2,437,336.2z"/>
<path class="st8" d="M452,295.8H60V111.2c0-8.3,6.7-15,15-15H437c8.3,0,15,6.7,15,15V295.8z"/>
<g>
	<path class="st9" d="M148.4,176.5l-13.3-9.1l-13.3,9.1c-3.3,2.3-7.8-0.1-7.8-4.1v-61.6h42.3v61.6
		C156.2,176.4,151.7,178.7,148.4,176.5L148.4,176.5z"/>
	<path class="st9" d="M148.4,162l-13.3-9.1l-13.3,9.1c-3.3,2.3-7.8-0.1-7.8-4.1V96.2h42.3v61.6C156.2,161.9,151.7,164.3,148.4,162
		L148.4,162z"/>
</g>
<g>
	<g>
		<g>
			<g>
				<path class="st2" d="M400.5,172.6H225c-2.8,0-5-2.2-5-5s2.2-5,5-5h175.5c2.8,0,5,2.2,5,5S403.3,172.6,400.5,172.6z"/>
			</g>
			<g>
				<path class="st2" d="M400.5,192.1H225c-2.8,0-5-2.2-5-5s2.2-5,5-5h175.5c2.8,0,5,2.2,5,5S403.3,192.1,400.5,192.1z"/>
			</g>
			<g>
				<path class="st2" d="M400.5,211.6H225c-2.8,0-5-2.2-5-5s2.2-5,5-5h175.5c2.8,0,5,2.2,5,5S403.3,211.6,400.5,211.6z"/>
			</g>
			<g>
				<path class="st2" d="M400.5,231.1H225c-2.8,0-5-2.2-5-5s2.2-5,5-5h175.5c2.8,0,5,2.2,5,5S403.3,231.1,400.5,231.1z"/>
			</g>
			<g>
				<path class="st2" d="M400.5,250.6H225c-2.8,0-5-2.2-5-5s2.2-5,5-5h175.5c2.8,0,5,2.2,5,5S403.3,250.6,400.5,250.6z"/>
			</g>
			<g>
				<path class="st2" d="M400.5,260.1c2.8,0,5,2.2,5,5s-2.2,5-5,5H225c-2.8,0-5-2.2-5-5s2.2-5,5-5H400.5z"/>
			</g>
		</g>
		<g>
			<g>
				<g>
					<path class="st2" d="M161,217.6h-49.5c-2.8,0-5-2.2-5-5s2.2-5,5-5H161c2.8,0,5,2.2,5,5S163.7,217.6,161,217.6z"/>
				</g>
				<g>
					<path class="st2" d="M188,235.1h-76.5c-2.8,0-5-2.2-5-5s2.2-5,5-5H188c2.8,0,5,2.2,5,5S190.7,235.1,188,235.1z"/>
				</g>
			</g>
			<g>
				<g>
					<path class="st2" d="M188,252.6h-76.5c-2.8,0-5-2.2-5-5s2.2-5,5-5H188c2.8,0,5,2.2,5,5S190.7,252.6,188,252.6z"/>
				</g>
				<g>
					<path class="st2" d="M188,270.1h-76.5c-2.8,0-5-2.2-5-5s2.2-5,5-5H188c2.8,0,5,2.2,5,5S190.7,270.1,188,270.1z"/>
				</g>
			</g>
			<g>
				<circle class="st2" cx="113" cy="194.5" r="5"/>
				<circle class="st2" cx="129.3" cy="194.5" r="5"/>
			</g>
		</g>
	</g>
</g>
<path class="st10" d="M334,433.8H178c-5.6,0-10.2-4.6-10.2-10.2s4.6-10.2,10.2-10.2H334c5.6,0,10.2,4.6,10.2,10.2
	C344.2,429.2,339.7,433.8,334,433.8z"/>
<g>
	<path class="st11" d="M437,91.2H75c-11,0-20,9-20,20v209.9c0,11,9,20,20,20h80.9c2.8,0,5-2.2,5-5s-2.2-5-5-5H75
		c-5.5,0-10-4.5-10-10V111.2c0-5.5,4.5-10,10-10H437c5.5,0,10,4.5,10,10v41.5c0,2.8,2.2,5,5,5s5-2.2,5-5v-41.5
		C457,100.2,448.1,91.2,437,91.2L437,91.2z"/>
	<path class="st11" d="M452,178.3c-2.8,0-5,2.2-5,5v137.9c0,5.5-4.5,10-10,10H186.4c-2.8,0-5,2.2-5,5v11.2c0,8.3,6.7,15,15,15h15.9
		v46H178c-8.4,0-15.2,6.8-15.2,15.2s6.8,15.2,15.2,15.2H334c8.4,0,15.2-6.8,15.2-15.2s-6.8-15.2-15.2-15.2h-34.4v-46h15.9
		c8.3,0,15-6.7,15-15v-6.2H437c11,0,20-9,20-20V183.3C457,180.5,454.8,178.3,452,178.3z M339.2,423.6c0,2.9-2.3,5.2-5.2,5.2H178
		c-2.9,0-5.2-2.3-5.2-5.2s2.3-5.2,5.2-5.2H334C336.9,418.4,339.2,420.7,339.2,423.6z M289.7,408.4h-67.4v-46h67.4L289.7,408.4
		L289.7,408.4z M320.6,347.4c0,2.8-2.2,5-5,5H196.4c-2.8,0-5-2.2-5-5v-6.2h129.1V347.4z"/>
</g>
</svg>
