<?xml version="1.0" encoding="utf-8"?>
<!-- Generator: Adobe Illustrator 24.0.3, SVG Export Plug-In . SVG Version: 6.00 Build 0)  -->
<svg version="1.1" id="Capa_1" xmlns="http://www.w3.org/2000/svg" xmlns:xlink="http://www.w3.org/1999/xlink" x="0px" y="0px"
	 viewBox="0 0 105.7 106.6" style="enable-background:new 0 0 105.7 106.6;" xml:space="preserve">
<style type="text/css">
	.st0{fill:#C182F9;}
	.st1{fill:#8CDDCC;}
	.st2{fill:#590BB2;}
	.st3{fill:#FFFFFF;}
</style>
<path class="st0" d="M53.1,101.1c22.5,0,41.6-17.2,44-39.5c0.2-1.6,0.3-3.1,0.3-4.7c0-24.4-19.8-44.2-44.2-44.2
	c-24.4,0-44.2,19.8-44.2,44.2c0,1.6,0.1,3.2,0.3,4.7C11.5,83.9,30.6,101.1,53.1,101.1z M53.1,22.6c18.9,0,34.2,15.4,34.2,34.2
	c0,18.9-15.4,34.2-34.2,34.2c-18.9,0-34.2-15.4-34.2-34.2C18.9,37.9,34.2,22.6,53.1,22.6z"/>
<circle class="st1" cx="52.1" cy="52.8" r="39.2"/>
<path class="st2" d="M52.1,97.1c22.5,0,41.6-17.2,44-39.5c0.2-1.6,0.3-3.1,0.3-4.7c0-24.4-19.8-44.2-44.2-44.2
	C27.7,8.6,7.9,28.4,7.9,52.8c0,1.6,0.1,3.2,0.3,4.7C10.5,79.9,29.6,97.1,52.1,97.1z M52.1,18.6c18.9,0,34.2,15.4,34.2,34.2
	c0,18.9-15.4,34.2-34.2,34.2c-18.9,0-34.2-15.4-34.2-34.2C17.9,33.9,33.2,18.6,52.1,18.6z"/>
<path class="st3" d="M52.1,69.1C52.1,69.1,52.1,69.1,52.1,69.1c-1.3,0-2.6-0.5-3.5-1.5L37.1,56.2c-2-2-2-5.1,0-7.1c2-2,5.1-2,7.1,0
	l7.9,7.9L92,17.1c2-2,5.1-2,7.1,0c2,2,2,5.1,0,7.1L55.6,67.6C54.7,68.6,53.4,69.1,52.1,69.1L52.1,69.1z"/>
</svg>
