<?xml version="1.0" encoding="utf-8"?>
<!-- Generator: Adobe Illustrator 24.0.1, SVG Export Plug-In . SVG Version: 6.00 Build 0)  -->
<svg version="1.1" id="Capa_1" xmlns="http://www.w3.org/2000/svg" xmlns:xlink="http://www.w3.org/1999/xlink" x="0px" y="0px"
	 viewBox="0 0 810 489" style="enable-background:new 0 0 810 489;" xml:space="preserve">
<style type="text/css">
	.st0{opacity:0.34;}
	.st1{fill:#DFD5EB;}
	.st2{fill:#159E84;}
	.st3{fill:#32B196;}
	.st4{fill:#FFFFFF;}
	.st5{fill:#CFE1E9;}
	.st6{fill:#5C3289;}
	.st7{fill:#472680;}
	.st8{fill:#E8514E;}
	.st9{fill:#8F599F;}
	.st10{opacity:0.34;fill:#DFD5EB;}
	.st11{fill:none;stroke:#A092C6;stroke-width:2.58;stroke-linecap:round;stroke-miterlimit:10;}
	.st12{fill:none;stroke:#A092C6;stroke-width:2.58;stroke-linecap:round;stroke-miterlimit:10;stroke-dasharray:10.1373,10.1373;}
	.st13{fill:none;stroke:#32B196;stroke-width:11.6504;stroke-linecap:round;stroke-linejoin:round;stroke-miterlimit:10;}
	.st14{fill:#5F2811;}
	.st15{opacity:0.43;fill:#5F2811;}
	.st16{fill:#EDA3A3;}
	.st17{opacity:0.47;fill:#F0817A;}
	.st18{fill:#48B9B6;}
	.st19{fill:#65270F;}
	.st20{fill:#863B15;}
	.st21{fill:#BF2685;}
	.st22{fill:#412B7F;}
	.st23{opacity:0.36;fill:#412B7F;}
	.st24{fill:#241F47;}
	.st25{fill:#60BCA6;}
	.st26{fill:#B79FCC;}
	.st27{fill:#EEE9F5;}
	.st28{fill:#DAC9E4;}
	.st29{fill:#4E368B;}
	.st30{fill-rule:evenodd;clip-rule:evenodd;fill:#A092C6;}
	.st31{fill-rule:evenodd;clip-rule:evenodd;fill:#FFFFFF;}
	.st32{fill-rule:evenodd;clip-rule:evenodd;fill:#32B196;}
	.st33{fill-rule:evenodd;clip-rule:evenodd;fill:#E8514E;}
	.st34{fill-rule:evenodd;clip-rule:evenodd;fill:#8F599F;}
	.st35{fill-rule:evenodd;clip-rule:evenodd;fill:#F5ED80;}
	.st36{fill:#6158A1;}
	.st37{fill:#88CBCA;}
	.st38{fill:#A092C6;}
	.st39{opacity:0.5;fill:#CAC9E6;}
</style>
<g>
	<g>
		<g>
			<g class="st0">
				<path class="st1" d="M50.4,437c-21.1-21.4-30.6-53.5-24.7-82.9s27.2-55.3,54.9-66.8c12-5,25-7.4,36.7-12.9
					c41.1-19.2,56.3-68.2,79.6-107.1c33.7-56.6,93.6-98.2,159.2-104.5c65.6-6.4,134.7,25.1,168.6,81.6
					c18.3,30.5,26.4,66.8,48.4,94.7c15.4,19.6,37.3,34,61.3,40.5c21.1,5.7,43.5,5.4,64.9,10.1c33.1,7.3,64.3,28.5,77.4,59.8
					c13.1,31.2,3.9,72.1-24.8,90L50.4,437z"/>
			</g>
			<g class="st0">
				<path class="st1" d="M112.7,437.2c-16-16.2-23.2-40.6-18.7-63c4.5-22.3,20.7-42,41.7-50.8c9.1-3.8,19-5.6,27.9-9.8
					c31.2-14.6,42.8-51.8,60.4-81.4c25.6-43,71.1-74.6,120.9-79.4c49.8-4.8,102.3,19.1,128,62c13.9,23.2,20.1,50.7,36.8,71.9
					c11.7,14.9,28.3,25.8,46.6,30.7c16.1,4.3,33,4.1,49.3,7.7c25.1,5.6,48.8,21.7,58.8,45.4c9.9,23.7,3,54.8-18.9,68.4L112.7,437.2z
					"/>
			</g>
		</g>
	</g>
	<g>
		<g>
			<g>
				<g>
					<path class="st2" d="M294.1,431.8l2.4,4H213c-2,0-3.6-1.6-3.6-3.5v-6.9c0-1.9,1.6-3.5,3.6-3.5h83.5l-2.4,4V431.8z"/>
					<polygon class="st3" points="294.1,431.8 296.5,435.7 262.6,435.7 262.6,421.9 296.5,421.9 294.1,425.7 					"/>
					<rect x="266.6" y="425.7" class="st4" width="27.6" height="6"/>
				</g>
				<g>
					<path class="st3" d="M211.3,400.8l-2,3.4h73.5c1.8,0,3.2-1.4,3.2-3.1v-6c0-1.7-1.5-3.1-3.2-3.1h-73.5l2,3.4L211.3,400.8
						L211.3,400.8z"/>
					<polygon class="st2" points="211.3,400.8 209.3,404.3 239.2,404.3 239.2,392 209.3,392 211.3,395.5 					"/>
					<rect x="211.3" y="395.5" class="st5" width="24.4" height="5.4"/>
				</g>
				<g>
					<path class="st6" d="M215.6,418.1l-2.1,3.8H292c1.9,0,3.4-1.5,3.4-3.3v-10.9c0-1.8-1.5-3.3-3.4-3.3h-78.6l2.1,3.8v9.9H215.6z"
						/>
					<polygon class="st7" points="215.6,418.1 213.4,421.9 268.4,421.9 268.4,404.3 213.4,404.3 215.6,408 					"/>
					<rect x="215.6" y="408" class="st5" width="49" height="10.1"/>
					<polygon class="st8" points="258.4,421.3 254.4,418.3 250.6,421.3 250.6,413.7 258.4,413.7 					"/>
				</g>
				<g>
					<g>
						<g>
							<path class="st9" d="M290.8,378.4l2-3.4h-73.5c-1.8,0-3.2,1.4-3.2,3.1v10.8c0,1.7,1.5,3.1,3.2,3.1h73.5l-2-3.4V378.4z"/>
							<path class="st4" d="M290.8,378.4h-69.7c-1,0-1.7,0.8-1.7,1.7v6.7c0,1,0.8,1.7,1.7,1.7h69.7V378.4L290.8,378.4z"/>
						</g>
						<rect x="244.1" y="378.4" class="st5" width="46.7" height="10.2"/>
					</g>
				</g>
			</g>
		</g>
	</g>
	<path class="st3" d="M249.3,232.8c0-1.2,0.5-2.3,1.3-3.1c1.7-1.7,4.5-1.7,6.2,0s1.7,4.5,0,6.2c-1.7,1.7-4.5,1.7-6.2,0
		C249.8,235.1,249.3,234,249.3,232.8z M255.1,232.8c0-0.4-0.1-0.7-0.4-1c-0.5-0.5-1.4-0.5-2,0c-0.3,0.3-0.4,0.6-0.4,1s0.2,0.7,0.4,1
		c0.5,0.5,1.4,0.5,2,0C255,233.5,255.1,233.2,255.1,232.8z"/>
	<path class="st9" d="M321.1,274v-1.2h1.2c1,0,1.9-0.8,1.9-1.9c0-1-0.8-1.9-1.9-1.9h-1.2v-1.2c0-1-0.8-1.9-1.9-1.9
		c-1,0-1.9,0.8-1.9,1.9v1.2h-1.2c-1,0-1.9,0.8-1.9,1.9c0,1,0.8,1.9,1.9,1.9h1.2v1.2c0,1,0.8,1.9,1.9,1.9
		C320.2,275.8,321.1,275,321.1,274z"/>
</g>
<g>
	<g>
		<g>
			<path class="st10" d="M675.1,243c0,7.1-5.5,12.8-12.2,12.8c-6.7,0-12.2-5.7-12.2-12.8c0-7.1,5.5-12.8,12.2-12.8
				C669.6,230.2,675.1,236,675.1,243z"/>
			<path class="st10" d="M632.7,232.8c0,3.5-2.9,6.4-6.4,6.4c-3.5,0-6.4-2.9-6.4-6.4c0-3.5,2.9-6.4,6.4-6.4
				C629.8,226.4,632.7,229.2,632.7,232.8z"/>
		</g>
		<g>
			<path class="st10" d="M109.2,231.8c0,7.1-5.5,12.8-12.2,12.8c-6.7,0-12.2-5.7-12.2-12.8S90.3,219,97,219
				C103.7,219,109.2,224.7,109.2,231.8z"/>
			<path class="st10" d="M117.5,199.7c0,3.5-2.9,6.4-6.4,6.4c-3.5,0-6.4-2.9-6.4-6.4c0-3.5,2.9-6.4,6.4-6.4
				C114.7,193.3,117.5,196.2,117.5,199.7z"/>
			<path class="st10" d="M131.6,224.1c0,3.5-2.9,6.4-6.4,6.4c-3.5,0-6.4-2.9-6.4-6.4c0-3.5,2.9-6.4,6.4-6.4
				C128.8,217.7,131.6,220.6,131.6,224.1z"/>
		</g>
		<g>
			<g>
				<g>
					<path class="st11" d="M448.6,105.7c-1.3,1.1-2.6,2.3-3.9,3.4"/>
					<path class="st12" d="M436.8,115.5c-33.4,26.4-72.5,45.6-113.8,56c-6.8,1.7-13.9,3.2-20.8,1.8c-6.9-1.4-13.5-6.2-14.9-13.1
						c-1.9-9.4,6.3-17.7,14.6-22.4c6.8-3.8,15.1-6.4,22.1-3.2c6.2,2.8,9.8,9.6,10.9,16.4c2.1,12.5-2.7,25.2-9.4,36
						c-6.7,10.8-15.3,20.2-22,31c-16,25.6-20.4,58.1-11.6,87c7,23.4,23.4,44.7,45.4,54.6"/>
					<path class="st11" d="M342,361.5c1.6,0.6,3.2,1.1,4.9,1.6"/>
				</g>
			</g>
		</g>
		<line class="st13" x1="193.7" y1="438.5" x2="596.8" y2="438.5"/>
		<g>
			<g>
				<path class="st14" d="M464.4,243.7c-7.3-2.6-11.6-17.6-18.4-49.1c-6.7-31.1-37.2-26.9-38.2-26.8c-1-0.1-31.5-4.3-38.2,26.8
					c-6.8,31.6-11.1,46.5-18.4,49.1c-7.3,2.6-15.5,22.4,7.3,36c10.4,6.2,29.6,10,48.5,10v0c0.3,0,0.5,0,0.8,0c0.3,0,0.5,0,0.8,0v0
					c18.8-0.1,38.1-3.8,48.5-10C479.9,266.1,471.7,246.4,464.4,243.7z"/>
				<path class="st15" d="M436.9,243.6c-13.1-19.5-10.5-42.4-11.2-64.7c-8.7-4.1-20.1-3.1-29.4-2.4c1.5,10,1.8,20.3,1,30.4
					c-1,13.5-4.1,28.6-13.1,39.2c-5.3,6.3-12.7,8.8-19.9,12.3c-5.3,2.6-9.4,7.3-12.1,12.5c-0.5,1-1,2-1.4,2.9c2,2,4.6,4,7.7,5.9
					c10.4,6.2,29.6,10,48.5,10v0c0.3,0,0.5,0,0.8,0c0.3,0,0.5,0,0.8,0v0c18.7-0.1,37.8-3.7,48.3-9.9c0.4-3.6-0.2-7.4-2.1-11.6
					C450.5,258.9,442.6,252,436.9,243.6z"/>
			</g>
			<path class="st16" d="M393.7,244.3c0,0,0.1,17.9-3.4,20.6c0,0,6.6,19.6,20.6,18.9c0,0,12.2-11,13.5-15.6c0,0-1.1-21.6-0.9-26.2
				C423.4,242,397.6,235.3,393.7,244.3z"/>
			<path class="st17" d="M393.2,254.6c5.9,4.4,12.6,6.8,20.4,4.7c3.7-1,7.1-2.8,10.2-5c-0.2-5.2-0.4-10.4-0.3-12.4
				c0,0-25.8-6.6-29.8,2.3C393.7,244.3,393.7,249.4,393.2,254.6z"/>
			<path class="st18" d="M456,276.7c-0.6-2.4-26.1-10.9-31.5-12.6c-2.4,6.8-12.6,16.7-16.8,15.9c-5.5-1-14.2-13.3-17.7-17.6l-0.3,0
				c0,0-33.8,10.8-34.5,13.5c-0.7,2.7,18.9,56.7,17.6,70.9c-1.4,14.2-11.5,26.3-9.5,33.1c0,0,16.7,2.5,32.5,3.5l-0.1,0.6
				c16.2,2,52-3.4,52-3.4c2-6.8-8.1-18.9-9.5-33.1C437,333.4,456.6,279.4,456,276.7z"/>
			<path class="st18" d="M447.9,304.6c-7,5.7-15.2,10.1-23,13.1c-14.4,5.5-34,4.6-47.3-3.2c-6.3-3.7-11.3-8.8-15.4-14.6
				c5.3,17.2,11.5,38.9,10.7,47.1c-1.4,14.2-11.5,26.3-9.5,33.1c0,0,16.7,2.5,32.5,3.5l-0.1,0.6c16.2,2,52-3.4,52-3.4
				c2-6.8-8.1-18.9-9.5-33.1C437.7,340,442.9,321,447.9,304.6z"/>
			<path class="st18" d="M356.6,274.7c0,0-50.7,62.2-43.8,75.4c6.9,13.1,43.8,31.9,53.2,31.9l13.1-9.4c0,0-35-28.8-33.8-34.4
				c1.3-5.6,28.8-36.9,28.8-36.9S366.6,268.2,356.6,274.7z"/>
			<path class="st18" d="M345.3,338.2c1.1-5,22.6-29.8,27.7-35.7c-14.4,7.2-26.7,19-33.4,33.8c-5.3,11.6-5.7,23.4-1.9,34.2
				c11.5,6.6,23.5,11.5,28.3,11.5l13.1-9.4C379.1,372.6,344,343.9,345.3,338.2z"/>
			<path class="st18" d="M457,276.6c0,0,50.7,62.2,43.8,75.4c-6.9,13.1-43.8,31.9-53.2,31.9l-13.1-9.4c0,0,35-28.8,33.8-34.4
				c-1.3-5.6-28.8-36.9-28.8-36.9S446.9,270,457,276.6z"/>
			<path class="st18" d="M491.4,356.8c-8.4-14.9-18.8-27.8-32.6-38c-4.9-3.6-9.7-7.4-14.5-11.1c-0.8-0.6-1.6-1.2-2.4-1.8
				c6.7,7.7,25.4,29.6,26.4,34.2c1.3,5.6-33.8,34.4-33.8,34.4l13.1,9.4c7.7,0,34-12.7,47-24.5C493.3,358.9,492.2,358.1,491.4,356.8z
				"/>
			<path class="st16" d="M438.5,202.7l-0.1-0.1c-1.1-15.5-14.6-27.8-31-27.8c-17.2,0-31.1,13.4-31.1,29.9c0,2.4,0.3,4.8,0.9,7.1
				c1.4,12.4,7.3,38.2,32.9,43.1C410.1,254.9,441,250,438.5,202.7z"/>
			<path class="st14" d="M390.7,190c0,0,22.9,14.2,38.4,15.8c15.4,1.7,8.3,11.7,9.2,12.9c0.8,1.3,8.8-17.9-3.8-36.7
				c-12.5-18.8-39.6-12.9-50.5,0C384.1,182.1,387,187.1,390.7,190z"/>
			<path class="st14" d="M393.6,189.6c0,0-18.3,11.3-15.8,34.6c0,0-15.4-30,9.6-45.9C387.4,178.3,400.3,179.6,393.6,189.6z"/>
			<path class="st16" d="M381.9,222.7c1.6,4.2,1.1,8.3-1.2,9.2c-2.3,0.9-5.5-1.8-7.1-6c-1.6-4.2-1.1-8.3,1.2-9.2
				C377.1,215.9,380.3,218.6,381.9,222.7z"/>
			<path class="st16" d="M445.1,225.1c-1.1,4.4-4,7.4-6.3,6.8c-2.4-0.6-3.4-4.6-2.3-9c1.1-4.4,4-7.4,6.3-6.8
				C445.2,216.7,446.3,220.7,445.1,225.1z"/>
			<path class="st19" d="M400.7,222.7c0,0-6.8,4.5-13.1-3.2h-2.3l2.3,1C387.5,220.5,394.4,229.7,400.7,222.7z"/>
			<path class="st14" d="M402.1,216.5c0,0-4.9-5.6-16.1-2.4c0,0,10.4-0.6,13.9,2.4C399.9,216.5,402,218.4,402.1,216.5z"/>
			<path class="st19" d="M417.3,223.4c0,0,6.8,4.5,13.1-3.2h2.3l-2.3,1C430.4,221.2,423.6,230.4,417.3,223.4z"/>
			<path class="st14" d="M415.9,217.3c0,0,4.9-5.6,16.1-2.4c0,0-10.4-0.6-13.9,2.4C418.1,217.3,415.9,219.1,415.9,217.3z"/>
			<g>
				<path class="st20" d="M406.7,231.8c0,0,3.4,3.7,5.5,0.4C412.1,232.2,409.9,236.5,406.7,231.8z"/>
				<path class="st20" d="M405,230.6c0,0-1.7,1.8,0.6,2.8C405.6,233.4,404.6,232.1,405,230.6z"/>
				<path class="st20" d="M413.9,230.7c0,0,1.7,1.8-0.6,2.8C413.2,233.5,414.2,232.2,413.9,230.7z"/>
			</g>
			<path class="st14" d="M392.2,190.4c0,0-14.9,23.6-7.9,40.8c0,0-1.4,3.2-2.5,1.7c-1.1-1.5-7.1-16.7-6-24.8
				C377,199.8,385.2,186.7,392.2,190.4z"/>
			<path class="st14" d="M435.5,207.2c0,0,0.6,23.5-1.3,30.8c0,0,0.8,1.8,2.2,0.6c1.4-1.3,5.5-25.4,4.2-30
				C439.3,203.9,436.7,205.3,435.5,207.2z"/>
			<path class="st18" d="M389.4,263.3c0,0,8.7,15.3,19,19.2c0,0,13.5-7.4,17.7-18.3c0,0,2.4-0.5,2.2,1.1
				c-0.2,1.5-8.3,16.4-19.9,20.4c0,0-9.6-2-22.8-21.9C385.7,263.7,388.5,261.8,389.4,263.3z"/>
			<path class="st21" d="M403.7,239.4c0,0,0.4,0.8,2.9-0.3c2.4-1,5.1-1.5,8.2,0.8c0,0,1,0.4,1.8-0.3c0,0-0.5,5-6.2,5.5
				C404.7,245.5,403.7,239.4,403.7,239.4z"/>
			<path class="st4" d="M406.9,240.6c0,0,5,0.4,6.6,0.1c0,0-0.2,2.2-3.3,2.1C407.1,242.7,406.9,240.6,406.9,240.6z"/>
			<path class="st22" d="M424.1,208.4c-6.1,0-11.1,4.9-11.1,11c0,0.4,0,0.8,0.1,1.2c-3-2.6-6.7-0.8-7.8-0.2c0-0.3,0.1-0.7,0.1-1
				c0-6.1-5-11-11.1-11c-6.1,0-11.1,4.9-11.1,11c0,6.1,5,11,11.1,11c5.4,0,9.9-3.8,10.9-8.9c4-2.4,7.1-0.8,8.1-0.2
				c0.9,5.2,5.4,9.1,10.9,9.1c6.1,0,11.1-4.9,11.1-11C435.1,213.3,430.2,208.4,424.1,208.4z M394.3,229.6c-5.7,0-10.3-4.6-10.3-10.3
				c0-5.7,4.6-10.3,10.3-10.3c5.7,0,10.3,4.6,10.3,10.3C404.6,225,400,229.6,394.3,229.6z M424.1,229.6c-5.7,0-10.3-4.6-10.3-10.3
				c0-5.7,4.6-10.3,10.3-10.3c5.7,0,10.3,4.6,10.3,10.3C434.4,225,429.8,229.6,424.1,229.6z"/>
		</g>
		<g>
			<g>
				<g>
					<path class="st22" d="M479.9,429.5H333v-87c0-2.7,2.2-4.9,4.9-4.9H475c2.7,0,4.9,2.2,4.9,4.9V429.5z"/>
					<path class="st23" d="M466.4,337.6c-2.3,24.5-11.6,48.1-31.8,63.8c-15.2,11.8-34,16.9-53.1,16.6c-16.3-0.3-32.3-3.5-48.5-5.4
						v16.9h147V346c0-4.7-3.8-8.4-8.4-8.4H466.4z"/>
					<path class="st1" d="M410.6,383.6c0,3.3-2.5,6-5.6,6c-3.1,0-5.6-2.7-5.6-6c0-3.3,2.5-6,5.6-6
						C408.1,377.6,410.6,380.3,410.6,383.6z"/>
				</g>
				<path class="st24" d="M480.5,435.9H332.7c-2.7,0-3.3-1.6-3.3-3.5l0,0c0-1.9,0.6-3.5,3.3-3.5h147.8c2.7,0,3.3,1.6,3.3,3.5l0,0
					C483.8,434.3,483.3,435.9,480.5,435.9z"/>
			</g>
		</g>
	</g>
	<g>
		<path class="st25" d="M469.7,49.9C461,50,454,57.3,454.2,66c0.1,3.6,1.3,6.8,3.4,9.4c3.1,3.9,4.9,8.6,5.2,13.6h14.3
			c0.2-5,2.1-9.7,5.2-13.6c2.1-2.7,3.4-6.1,3.4-9.8C485.7,56.8,478.5,49.7,469.7,49.9z"/>
		<g>
			<path class="st2" d="M467.1,90.1c-0.6,0-1.1-0.5-1.1-1.1V78.4l-1.3-1.3c-0.4-0.4-0.4-1.1,0-1.6c0.4-0.4,1.1-0.4,1.6,0l1.6,1.6
				c0.2,0.2,0.3,0.5,0.3,0.8v11C468.2,89.6,467.7,90.1,467.1,90.1L467.1,90.1z"/>
			<path class="st2" d="M472.8,90.1c-0.6,0-1.1-0.5-1.1-1.1V78c0-0.3,0.1-0.6,0.3-0.8l1.6-1.6c0.4-0.4,1.1-0.4,1.6,0
				c0.4,0.4,0.4,1.1,0,1.6l-1.3,1.3V89C473.9,89.6,473.4,90.1,472.8,90.1z"/>
		</g>
		<path class="st26" d="M477.8,101.9H462c-0.6,0-1.1-0.5-1.1-1.1V90.1c0-0.6,0.5-1.1,1.1-1.1h15.8c0.6,0,1.1,0.5,1.1,1.1v10.8
			C478.9,101.4,478.4,101.9,477.8,101.9z"/>
		<path class="st27" d="M476.5,101.9c0,3.6-2.9,6.6-6.6,6.6s-6.6-2.9-6.6-6.6H476.5z"/>
		<path class="st28" d="M475.7,105.1c0.5-0.9,0.8-2,0.8-3.2h-13.1c0,1.1,0.3,2.2,0.8,3.2H475.7z"/>
		<path class="st29" d="M453.5,61.8"/>
		<path class="st9" d="M486.3,61.6c-0.7-3-2.3-5.8-4.5-8c-3.2-3.2-7.5-4.9-12.1-4.8c-4.5,0.1-8.7,1.9-11.9,5.2
			c-2.1,2.2-3.5,4.8-4.2,7.6c0,0.1-0.1,0.3-0.1,0.4l-0.4,2.3c0,0,0,0,0,0c0,0.6-0.1,1.1,0,1.7c0.1,3.7,1.4,7.2,3.7,10.1
			c2.7,3.4,4.4,7.4,4.8,11.7c0,0.1-0.1,0.2-0.1,0.2c-0.9,0.2-1.6,1.1-1.6,2.1v1.7c0,0.1,0,0.1-0.1,0.2c-0.4,0.2-0.7,0.6-0.7,1
			c0,0.5,0.3,0.9,0.7,1c0.1,0,0.1,0.1,0.1,0.2v2.3c0,0.1,0,0.1-0.1,0.2c-0.4,0.2-0.7,0.6-0.7,1c0,0.5,0.3,0.9,0.7,1
			c0.1,0,0.1,0.1,0.1,0.2v1.9c0,1.3,1.1,2.4,2.4,2.4h0c0.1,0,0.2,0.1,0.2,0.1c0.6,3.6,3.8,6.4,7.6,6.4s7-2.8,7.6-6.4
			c0-0.1,0.1-0.1,0.2-0.1l0,0c1.3,0,2.4-1.1,2.4-2.4v-1.9c0-0.1,0-0.1,0.1-0.2c0.4-0.2,0.7-0.6,0.7-1c0-0.5-0.3-0.9-0.7-1
			c-0.1,0-0.1-0.1-0.1-0.2v-2.3c0-0.1,0-0.1,0.1-0.2c0.4-0.2,0.7-0.6,0.7-1c0-0.5-0.3-0.9-0.7-1c-0.1,0-0.1-0.1-0.1-0.2v-1.7
			c0-1-0.7-1.9-1.6-2.1c-0.1,0-0.1-0.1-0.1-0.2c0.4-4.2,2.1-8.3,4.8-11.7c2.4-3,3.7-6.6,3.7-10.5c0-0.5,0-1-0.1-1.4
			C486.7,64.1,486.3,61.7,486.3,61.6z M477.8,94.2l0,2.1c0,0.1-0.1,0.2-0.2,0.2h-15.5c-0.1,0-0.2-0.1-0.2-0.2v-2.1
			c0-0.1,0.1-0.2,0.2-0.2h15.5C477.8,94,477.8,94.1,477.8,94.2z M462,91.7v-1.4c0-0.1,0.1-0.2,0.2-0.2h0.6h14.3h0.6
			c0.1,0,0.2,0.1,0.2,0.2l0,1.4c0,0.1-0.1,0.2-0.2,0.2h-15.5C462.1,91.8,462,91.8,462,91.7z M469.9,107.4c-2.6,0-4.7-1.8-5.3-4.1
			c0-0.1,0.1-0.2,0.2-0.2h10.3c0.1,0,0.2,0.1,0.2,0.2C474.6,105.6,472.5,107.4,469.9,107.4z M476.5,100.8h-13.1h-1.2
			c-0.1,0-0.2-0.1-0.2-0.2v-1.8c0-0.1,0.1-0.2,0.2-0.2h15.5c0.1,0,0.2,0.1,0.2,0.2l0,1.8c0,0.1-0.1,0.2-0.2,0.2H476.5z M481.4,74.7
			c-3,3.8-4.9,8.3-5.3,13c0,0.1-0.1,0.2-0.2,0.2H464c-0.1,0-0.2-0.1-0.2-0.2c-0.5-4.7-2.3-9.2-5.3-13c-2-2.5-3.1-5.5-3.2-8.8
			c-0.1-3.9,1.4-7.6,4.1-10.5c2.7-2.8,6.4-4.4,10.3-4.5c4,0,7.7,1.4,10.5,4.2c2.8,2.8,4.4,6.5,4.4,10.4
			C484.6,68.9,483.5,72.1,481.4,74.7z"/>
	</g>
	<g>
		<g>
			<g>
				<g>
					<path class="st2" d="M293.9,433.4l2.4,4h-83.5c-2,0-3.7-1.6-3.7-3.5v-6.9c0-1.9,1.6-3.5,3.7-3.5h83.5l-2.4,4V433.4z"/>
					<polygon class="st3" points="293.9,433.4 296.3,437.3 262.3,437.3 262.3,423.4 296.3,423.4 293.9,427.3 					"/>
					<rect x="266.3" y="427.3" class="st4" width="27.6" height="6"/>
				</g>
				<g>
					<path class="st3" d="M211,402.4l-2,3.4h73.6c1.8,0,3.2-1.4,3.2-3.1v-6c0-1.7-1.5-3.1-3.2-3.1H209l2,3.4V402.4z"/>
					<polygon class="st2" points="211,402.4 209,405.8 238.9,405.8 238.9,393.5 209,393.5 211,397 					"/>
					<rect x="211" y="397" class="st5" width="24.4" height="5.4"/>
				</g>
				<g>
					<path class="st6" d="M215.3,419.6l-2.1,3.8h78.6c1.9,0,3.4-1.5,3.4-3.3v-11c0-1.8-1.5-3.3-3.4-3.3h-78.6l2.1,3.8V419.6z"/>
					<polygon class="st7" points="215.3,419.6 213.1,423.4 268.1,423.4 268.1,405.8 213.1,405.8 215.3,409.5 					"/>
					<rect x="215.3" y="409.5" class="st5" width="49.1" height="10.1"/>
					<polygon class="st8" points="258.1,422.9 254.2,419.9 250.3,422.9 250.3,415.2 258.1,415.2 					"/>
				</g>
				<g>
					<g>
						<g>
							<path class="st9" d="M290.6,379.9l2-3.4H219c-1.8,0-3.2,1.4-3.2,3.1v10.8c0,1.7,1.5,3.1,3.2,3.1h73.6l-2-3.4V379.9z"/>
							<path class="st4" d="M290.6,379.9h-69.7c-1,0-1.7,0.8-1.7,1.7v6.7c0,1,0.8,1.7,1.7,1.7h69.7V379.9L290.6,379.9z"/>
						</g>
						<rect x="243.9" y="379.9" class="st5" width="46.7" height="10.2"/>
					</g>
				</g>
			</g>
		</g>
	</g>
	<path class="st3" d="M105.8,384.3c-1.5,0.4-3.1,0.1-4.5-0.7c-2.8-1.7-3.7-5.3-2-8.1s5.3-3.7,8.1-2c2.8,1.7,3.7,5.3,2,8.1
		C108.7,383,107.4,384,105.8,384.3z M104,376.8c-0.5,0.1-0.9,0.4-1.2,0.8c-0.5,0.9-0.3,2,0.6,2.6c0.4,0.3,0.9,0.3,1.4,0.2
		c0.5-0.1,0.9-0.4,1.2-0.8c0.5-0.9,0.3-2-0.6-2.6C105,376.7,104.5,376.7,104,376.8z"/>
	<path class="st9" d="M92.8,355.2l-1.3,0.3l-0.3-1.3c-0.3-1.1-1.3-1.8-2.4-1.5c-1.1,0.3-1.8,1.3-1.5,2.4l0.3,1.3l-1.3,0.3
		c-1.1,0.3-1.8,1.3-1.5,2.4s1.3,1.8,2.4,1.5l1.3-0.3l0.3,1.3c0.3,1.1,1.3,1.8,2.4,1.5c1.1-0.3,1.8-1.3,1.5-2.4l-0.3-1.3l1.3-0.3
		c1.1-0.3,1.8-1.3,1.5-2.4S93.9,355,92.8,355.2z"/>
	<path class="st3" d="M138.2,114.5c-0.8-1-1.2-2.3-1-3.6c0.3-2.7,2.8-4.6,5.5-4.3c2.7,0.3,4.6,2.8,4.3,5.5c-0.3,2.7-2.8,4.6-5.5,4.3
		C140.2,116.2,139,115.5,138.2,114.5z M143.4,110.5c-0.2-0.3-0.6-0.6-1-0.6c-0.8-0.1-1.6,0.5-1.7,1.3c-0.1,0.4,0.1,0.8,0.3,1.1
		c0.3,0.3,0.6,0.5,1,0.6c0.8,0.1,1.6-0.5,1.7-1.3C143.7,111.3,143.6,110.9,143.4,110.5z"/>
	<path class="st9" d="M162.4,92.1l-0.8-1l1-0.8c0.9-0.7,1.1-1.9,0.4-2.8s-1.9-1.1-2.8-0.4l-1,0.8l-0.8-1c-0.7-0.9-1.9-1.1-2.8-0.4
		c-0.9,0.7-1.1,1.9-0.4,2.8l0.8,1l-1,0.8c-0.9,0.7-1.1,1.9-0.4,2.8s1.9,1.1,2.8,0.4l1-0.8l0.8,1c0.7,0.9,1.9,1.1,2.8,0.4
		C163,94.2,163.1,93,162.4,92.1z"/>
	<path class="st3" d="M649.5,380.9c0-1.5,0.6-2.8,1.6-3.8c2.1-2.1,5.6-2.1,7.7,0c2.1,2.1,2.1,5.6,0,7.7s-5.6,2.1-7.7,0
		C650.1,383.7,649.5,382.3,649.5,380.9z M656.7,380.9c0-0.4-0.1-0.9-0.5-1.2c-0.7-0.7-1.8-0.7-2.4,0c-0.3,0.3-0.5,0.7-0.5,1.2
		s0.2,0.9,0.5,1.2c0.7,0.7,1.8,0.7,2.4,0C656.5,381.8,656.7,381.3,656.7,380.9z"/>
	<path class="st3" d="M403.9,52c0-1.5,0.6-2.8,1.6-3.8c2.1-2.1,5.6-2.1,7.7,0s2.1,5.6,0,7.7s-5.6,2.1-7.7,0
		C404.5,54.8,403.9,53.4,403.9,52z M411.1,52c0-0.4-0.1-0.9-0.5-1.2c-0.7-0.7-1.8-0.7-2.4,0c-0.3,0.3-0.5,0.7-0.5,1.2
		s0.2,0.9,0.5,1.2c0.7,0.7,1.8,0.7,2.4,0C410.9,52.9,411.1,52.4,411.1,52z"/>
	<path class="st3" d="M249,233.2c0-1.2,0.5-2.3,1.3-3.1c1.7-1.7,4.5-1.7,6.2,0c1.7,1.7,1.7,4.5,0,6.2c-1.7,1.7-4.5,1.7-6.2,0
		C249.5,235.5,249,234.4,249,233.2z M254.8,233.2c0-0.4-0.1-0.7-0.4-1c-0.5-0.5-1.4-0.5-2,0c-0.3,0.3-0.4,0.6-0.4,1
		c0,0.4,0.2,0.7,0.4,1c0.5,0.5,1.4,0.5,2,0C254.7,233.9,254.8,233.6,254.8,233.2z"/>
	<path class="st9" d="M678.5,375.5v-1.2h1.2c1,0,1.9-0.8,1.9-1.9s-0.8-1.9-1.9-1.9h-1.2v-1.2c0-1-0.8-1.9-1.9-1.9
		c-1,0-1.9,0.8-1.9,1.9v1.2h-1.2c-1,0-1.9,0.8-1.9,1.9s0.8,1.9,1.9,1.9h1.2v1.2c0,1,0.8,1.9,1.9,1.9
		C677.6,377.4,678.5,376.5,678.5,375.5z"/>
	<path class="st9" d="M363.4,92.6v-1.2h1.2c1,0,1.9-0.8,1.9-1.9c0-1-0.8-1.9-1.9-1.9h-1.2v-1.2c0-1-0.8-1.9-1.9-1.9
		c-1,0-1.9,0.8-1.9,1.9v1.2h-1.2c-1,0-1.9,0.8-1.9,1.9c0,1,0.8,1.9,1.9,1.9h1.2v1.2c0,1,0.8,1.9,1.9,1.9
		C362.6,94.5,363.4,93.7,363.4,92.6z"/>
	<path class="st9" d="M610.1,137.5v-1.2h1.2c1,0,1.9-0.8,1.9-1.9c0-1-0.8-1.9-1.9-1.9h-1.2v-1.2c0-1-0.8-1.9-1.9-1.9
		s-1.9,0.8-1.9,1.9v1.2h-1.2c-1,0-1.9,0.8-1.9,1.9c0,1,0.8,1.9,1.9,1.9h1.2v1.2c0,1,0.8,1.9,1.9,1.9S610.1,138.5,610.1,137.5z"/>
	<path class="st9" d="M320.8,274.4v-1.2h1.2c1,0,1.9-0.8,1.9-1.9s-0.8-1.9-1.9-1.9h-1.2v-1.2c0-1-0.8-1.9-1.9-1.9s-1.9,0.8-1.9,1.9
		v1.2h-1.2c-1,0-1.9,0.8-1.9,1.9s0.8,1.9,1.9,1.9h1.2v1.2c0,1,0.8,1.9,1.9,1.9S320.8,275.5,320.8,274.4z"/>
	<path class="st9" d="M478.4,206v-1.2h1.2c1,0,1.9-0.8,1.9-1.9c0-1-0.8-1.9-1.9-1.9h-1.2V200c0-1-0.8-1.9-1.9-1.9s-1.9,0.8-1.9,1.9
		v1.2h-1.2c-1,0-1.9,0.8-1.9,1.9c0,1,0.8,1.9,1.9,1.9h1.2v1.2c0,1,0.8,1.9,1.9,1.9S478.4,207.1,478.4,206z"/>
	<path class="st3" d="M483.2,179.6c0-1.1,0.4-2.2,1.2-2.9c1.6-1.6,4.3-1.6,5.9,0c1.6,1.6,1.6,4.3,0,5.9c-1.6,1.6-4.3,1.6-5.9,0
		C483.6,181.7,483.2,180.7,483.2,179.6z M488.7,179.6c0-0.3-0.1-0.7-0.4-0.9c-0.5-0.5-1.3-0.5-1.9,0c-0.3,0.3-0.4,0.6-0.4,0.9
		c0,0.4,0.1,0.7,0.4,0.9c0.5,0.5,1.3,0.5,1.9,0C488.5,180.3,488.7,179.9,488.7,179.6z"/>
	<g>
		<path class="st30" d="M582.7,277.1H599c1.7,0,3,1.4,3,3v16.2c0,1.7-1.4,3-3,3h-16.2c-1.7,0-3-1.4-3-3v-16.2
			C579.7,278.5,581,277.1,582.7,277.1z"/>
		<path class="st30" d="M582.7,305.3H599c1.7,0,3,1.4,3,3v16.2c0,1.7-1.4,3-3,3h-16.2c-1.7,0-3-1.4-3-3v-16.2
			C579.7,306.7,581,305.3,582.7,305.3z"/>
		<path class="st30" d="M582.7,333.4H599c1.7,0,3,1.4,3,3v16.2c0,1.7-1.4,3-3,3h-16.2c-1.7,0-3-1.4-3-3v-16.2
			C579.7,334.8,581,333.4,582.7,333.4z"/>
		<path class="st30" d="M582.7,361.6H599c1.7,0,3,1.4,3,3v16.2c0,1.7-1.4,3-3,3h-16.2c-1.7,0-3-1.4-3-3v-16.2
			C579.7,362.9,581,361.6,582.7,361.6z"/>
		<path class="st31" d="M580.2,275h16.2c1.7,0,3,1.4,3,3v16.2c0,1.7-1.4,3-3,3h-16.2c-1.7,0-3-1.4-3-3V278
			C577.2,276.4,578.5,275,580.2,275z"/>
		<path class="st31" d="M580.2,303.1h16.2c1.7,0,3,1.4,3,3v16.2c0,1.7-1.4,3-3,3h-16.2c-1.7,0-3-1.4-3-3v-16.2
			C577.2,304.5,578.5,303.1,580.2,303.1z"/>
		<path class="st31" d="M580.2,331.3h16.2c1.7,0,3,1.4,3,3v16.2c0,1.7-1.4,3-3,3h-16.2c-1.7,0-3-1.4-3-3v-16.2
			C577.2,332.6,578.5,331.3,580.2,331.3z"/>
		<path class="st31" d="M580.2,359.4h16.2c1.7,0,3,1.4,3,3v16.2c0,1.7-1.4,3-3,3h-16.2c-1.7,0-3-1.4-3-3v-16.2
			C577.2,360.8,578.5,359.4,580.2,359.4z"/>
		<path class="st32" d="M582,288.6c-0.5-0.5-0.5-1.4,0-1.9c0.5-0.5,1.4-0.5,1.9,0l2.4,2.5l6.3-9.1c0.4-0.6,1.2-0.8,1.9-0.3
			c0.6,0.4,0.8,1.2,0.3,1.9l-7.2,10.4c-0.1,0.1-0.1,0.2-0.2,0.2c-0.5,0.5-1.4,0.5-1.9,0L582,288.6z"/>
		<path class="st33" d="M585.2,320c-0.5,0.6-1.3,0.6-1.9,0.2c-0.6-0.5-0.6-1.3-0.2-1.9l3.4-4l-3.4-4c-0.5-0.6-0.4-1.4,0.2-1.9
			c0.6-0.5,1.4-0.4,1.9,0.2l3.1,3.6l3.1-3.6c0.5-0.6,1.3-0.6,1.9-0.2c0.6,0.5,0.6,1.3,0.2,1.9l-3.4,4l3.4,4c0.5,0.6,0.4,1.4-0.2,1.9
			c-0.6,0.5-1.4,0.4-1.9-0.2l-3.1-3.6L585.2,320z"/>
		<path class="st32" d="M582,344.9c-0.5-0.5-0.5-1.4,0-1.9c0.5-0.5,1.4-0.5,1.9,0l2.4,2.5l6.3-9.1c0.4-0.6,1.2-0.8,1.9-0.3
			c0.6,0.4,0.8,1.2,0.3,1.8l-7.2,10.4c-0.1,0.1-0.1,0.2-0.2,0.2c-0.5,0.5-1.4,0.5-1.9,0L582,344.9z"/>
	</g>
	<g>
		<path class="st34" d="M469.9,44c0.8,0,1.4-0.6,1.4-1.4v-3.7c0-0.8-0.6-1.4-1.4-1.4c-0.8,0-1.4,0.6-1.4,1.4v3.7
			C468.5,43.4,469.2,44,469.9,44z"/>
		<path class="st34" d="M443.3,66.9h3.7c0.8,0,1.4-0.6,1.4-1.4c0-0.8-0.6-1.4-1.4-1.4h-3.7c-0.8,0-1.4,0.6-1.4,1.4
			C441.9,66.3,442.5,66.9,443.3,66.9z"/>
		<path class="st34" d="M452.7,50.3c0.3,0.3,0.6,0.4,1,0.4c0.4,0,0.7-0.1,1-0.4c0.5-0.5,0.5-1.4,0-2l-2.6-2.6c-0.5-0.5-1.4-0.5-2,0
			c-0.5,0.5-0.5,1.4,0,2L452.7,50.3z"/>
		<path class="st34" d="M450.1,86.7c0.4,0,0.7-0.1,1-0.4l2.6-2.6c0.5-0.5,0.5-1.4,0-2c-0.5-0.5-1.4-0.5-2,0l-2.6,2.6
			c-0.5,0.5-0.5,1.4,0,2C449.4,86.6,449.8,86.7,450.1,86.7z"/>
		<path class="st34" d="M486.1,50.7c0.4,0,0.7-0.1,1-0.4l2.6-2.6c0.5-0.5,0.5-1.4,0-2c-0.5-0.5-1.4-0.5-2,0l-2.6,2.6
			c-0.5,0.5-0.5,1.4,0,2C485.4,50.6,485.8,50.7,486.1,50.7z"/>
		<path class="st34" d="M486.1,81.7c-0.5,0.5-0.5,1.4,0,2l2.6,2.6c0.3,0.3,0.6,0.4,1,0.4c0.4,0,0.7-0.1,1-0.4c0.5-0.5,0.5-1.4,0-2
			l-2.6-2.6C487.5,81.2,486.7,81.2,486.1,81.7z"/>
		<path class="st34" d="M492.9,66.9h3.7c0.8,0,1.4-0.6,1.4-1.4c0-0.8-0.6-1.4-1.4-1.4h-3.7c-0.8,0-1.4,0.6-1.4,1.4
			C491.5,66.3,492.1,66.9,492.9,66.9z"/>
	</g>
	<g>
		<path class="st30" d="M523.6,160.6h87.7c2.5,0,4.6,2,4.6,4.5v66.9c0,2.5-2,4.5-4.6,4.5h-87.7c-2.5,0-4.5-2-4.5-4.5v-66.9
			C519,162.6,521.1,160.6,523.6,160.6z"/>
		<path class="st31" d="M521.2,158.2h87.7c2.5,0,4.5,2,4.5,4.5v66.9c0,2.5-2,4.6-4.5,4.6h-87.7c-2.5,0-4.5-2-4.5-4.6v-66.9
			C516.7,160.2,518.7,158.2,521.2,158.2z"/>
		<path class="st34" d="M521.2,158.2h87.7c2.5,0,4.5,2,4.5,4.5v6.3c0,0.7-0.6,1.3-1.3,1.3h-94.3c-0.7,0-1.3-0.6-1.3-1.3v-6.3
			C516.7,160.2,518.7,158.2,521.2,158.2z"/>
		<path class="st30" d="M524,175.3h24.6c0.5,0,0.9,0.4,0.9,0.9l0,0c0,0.5-0.4,0.9-0.9,0.9H524c-0.5,0-0.9-0.4-0.9-0.9l0,0
			C523.1,175.8,523.5,175.3,524,175.3z"/>
		<path class="st30" d="M548.6,179.5h-11c-0.5,0-0.9,0.4-0.9,0.9l0,0c0,0.5,0.4,0.9,0.9,0.9h11c0.5,0,0.9-0.4,0.9-0.9l0,0
			C549.5,179.9,549.1,179.5,548.6,179.5z"/>
		<path class="st30" d="M532.8,179.5h0.9c0.5,0,0.9,0.4,0.9,0.9l0,0c0,0.5-0.4,0.9-0.9,0.9h-0.9c-0.5,0-0.9-0.4-0.9-0.9l0,0
			C531.9,179.9,532.3,179.5,532.8,179.5z"/>
		<path class="st30" d="M524,179.5h5.5c0.5,0,0.9,0.4,0.9,0.9l0,0c0,0.5-0.4,0.9-0.9,0.9H524c-0.5,0-0.9-0.4-0.9-0.9l0,0
			C523.1,179.9,523.5,179.5,524,179.5z"/>
		<path class="st30" d="M524,184.4h24.6c0.5,0,0.9,0.4,0.9,0.9v0c0,0.5-0.4,0.9-0.9,0.9H524c-0.5,0-0.9-0.4-0.9-0.9v0
			C523.1,184.9,523.5,184.4,524,184.4z"/>
		<path class="st30" d="M524,188.6h11c0.5,0,0.9,0.4,0.9,0.9l0,0c0,0.5-0.4,0.9-0.9,0.9h-11c-0.5,0-0.9-0.4-0.9-0.9l0,0
			C523.1,189,523.5,188.6,524,188.6z"/>
		<path class="st30" d="M539.8,188.6h-0.9c-0.5,0-0.9,0.4-0.9,0.9l0,0c0,0.5,0.4,0.9,0.9,0.9h0.9c0.5,0,0.9-0.4,0.9-0.9l0,0
			C540.7,189,540.3,188.6,539.8,188.6z"/>
		<path class="st30" d="M548.6,188.6h-5.5c-0.5,0-0.9,0.4-0.9,0.9l0,0c0,0.5,0.4,0.9,0.9,0.9h5.5c0.5,0,0.9-0.4,0.9-0.9l0,0
			C549.5,189,549.1,188.6,548.6,188.6z"/>
		<path class="st30" d="M524,193.6h24.6c0.5,0,0.9,0.4,0.9,0.9v0c0,0.5-0.4,0.9-0.9,0.9H524c-0.5,0-0.9-0.4-0.9-0.9v0
			C523.1,194,523.5,193.6,524,193.6z"/>
		<path class="st30" d="M548.6,197.7h-11c-0.5,0-0.9,0.4-0.9,0.9l0,0c0,0.5,0.4,0.9,0.9,0.9h11c0.5,0,0.9-0.4,0.9-0.9l0,0
			C549.5,198.2,549.1,197.7,548.6,197.7z"/>
		<path class="st30" d="M532.8,197.7h0.9c0.5,0,0.9,0.4,0.9,0.9l0,0c0,0.5-0.4,0.9-0.9,0.9h-0.9c-0.5,0-0.9-0.4-0.9-0.9l0,0
			C531.9,198.2,532.3,197.7,532.8,197.7z"/>
		<path class="st30" d="M524,197.7h5.5c0.5,0,0.9,0.4,0.9,0.9l0,0c0,0.5-0.4,0.9-0.9,0.9H524c-0.5,0-0.9-0.4-0.9-0.9l0,0
			C523.1,198.2,523.5,197.7,524,197.7z"/>
		<path class="st30" d="M524,202.7h24.6c0.5,0,0.9,0.4,0.9,0.9l0,0c0,0.5-0.4,0.9-0.9,0.9H524c-0.5,0-0.9-0.4-0.9-0.9l0,0
			C523.1,203.1,523.5,202.7,524,202.7z"/>
		<path class="st30" d="M524,206.8h11c0.5,0,0.9,0.4,0.9,0.9l0,0c0,0.5-0.4,0.9-0.9,0.9h-11c-0.5,0-0.9-0.4-0.9-0.9l0,0
			C523.1,207.3,523.5,206.8,524,206.8z"/>
		<path class="st30" d="M547.7,206.8h0.9c0.5,0,0.9,0.4,0.9,0.9l0,0c0,0.5-0.4,0.9-0.9,0.9h-0.9c-0.5,0-0.9-0.4-0.9-0.9l0,0
			C546.8,207.3,547.2,206.8,547.7,206.8z"/>
		<path class="st30" d="M538.9,206.8h5.5c0.5,0,0.9,0.4,0.9,0.9l0,0c0,0.5-0.4,0.9-0.9,0.9h-5.5c-0.5,0-0.9-0.4-0.9-0.9l0,0
			C538,207.3,538.4,206.8,538.9,206.8z"/>
		<path class="st30" d="M524,211.8h24.6c0.5,0,0.9,0.4,0.9,0.9v0c0,0.5-0.4,0.9-0.9,0.9H524c-0.5,0-0.9-0.4-0.9-0.9v0
			C523.1,212.2,523.5,211.8,524,211.8z"/>
		<path class="st30" d="M539.8,216h-11c-0.5,0-0.9,0.4-0.9,0.9v0c0,0.5,0.4,0.9,0.9,0.9h11c0.5,0,0.9-0.4,0.9-0.9v0
			C540.7,216.4,540.3,216,539.8,216z"/>
		<path class="st30" d="M524,216h0.9c0.5,0,0.9,0.4,0.9,0.9v0c0,0.5-0.4,0.9-0.9,0.9H524c-0.5,0-0.9-0.4-0.9-0.9v0
			C523.1,216.4,523.5,216,524,216z"/>
		<path class="st30" d="M548.6,216h-5.5c-0.5,0-0.9,0.4-0.9,0.9v0c0,0.5,0.4,0.9,0.9,0.9h5.5c0.5,0,0.9-0.4,0.9-0.9v0
			C549.5,216.4,549.1,216,548.6,216z"/>
		<path class="st30" d="M524,220.9h24.6c0.5,0,0.9,0.4,0.9,0.9v0c0,0.5-0.4,0.9-0.9,0.9H524c-0.5,0-0.9-0.4-0.9-0.9v0
			C523.1,221.3,523.5,220.9,524,220.9z"/>
		<path class="st30" d="M524,225.1h11c0.5,0,0.9,0.4,0.9,0.9l0,0c0,0.5-0.4,0.9-0.9,0.9h-11c-0.5,0-0.9-0.4-0.9-0.9l0,0
			C523.1,225.5,523.5,225.1,524,225.1z"/>
		<path class="st30" d="M539.8,225.1h-0.9c-0.5,0-0.9,0.4-0.9,0.9l0,0c0,0.5,0.4,0.9,0.9,0.9h0.9c0.5,0,0.9-0.4,0.9-0.9l0,0
			C540.7,225.5,540.3,225.1,539.8,225.1z"/>
		<path class="st30" d="M548.6,225.1h-5.5c-0.5,0-0.9,0.4-0.9,0.9l0,0c0,0.5,0.4,0.9,0.9,0.9h5.5c0.5,0,0.9-0.4,0.9-0.9l0,0
			C549.5,225.5,549.1,225.1,548.6,225.1z"/>
		<path class="st30" d="M564.3,175.3h41.6c0.5,0,0.9,0.4,0.9,0.9l0,0c0,0.5-0.4,0.9-0.9,0.9h-41.6c-0.5,0-0.9-0.4-0.9-0.9l0,0
			C563.4,175.8,563.8,175.3,564.3,175.3z"/>
		<path class="st30" d="M605.9,179.5h-19.3c-0.5,0-0.9,0.4-0.9,0.9l0,0c0,0.5,0.4,0.9,0.9,0.9h19.3c0.5,0,0.9-0.4,0.9-0.9l0,0
			C606.9,179.9,606.5,179.5,605.9,179.5z"/>
		<path class="st30" d="M578.8,179.5h2.6c0.5,0,0.9,0.4,0.9,0.9l0,0c0,0.5-0.4,0.9-0.9,0.9h-2.6c-0.5,0-0.9-0.4-0.9-0.9l0,0
			C577.9,179.9,578.3,179.5,578.8,179.5z"/>
		<path class="st30" d="M564.3,179.5h10.3c0.5,0,0.9,0.4,0.9,0.9l0,0c0,0.5-0.4,0.9-0.9,0.9h-10.3c-0.5,0-0.9-0.4-0.9-0.9l0,0
			C563.4,179.9,563.8,179.5,564.3,179.5z"/>
		<path class="st30" d="M564.3,184.4h41.6c0.5,0,0.9,0.4,0.9,0.9v0c0,0.5-0.4,0.9-0.9,0.9h-41.6c-0.5,0-0.9-0.4-0.9-0.9v0
			C563.4,184.9,563.8,184.4,564.3,184.4z"/>
		<path class="st30" d="M564.3,188.6h19.3c0.5,0,0.9,0.4,0.9,0.9l0,0c0,0.5-0.4,0.9-0.9,0.9h-19.3c-0.5,0-0.9-0.4-0.9-0.9l0,0
			C563.4,189,563.8,188.6,564.3,188.6z"/>
		<path class="st30" d="M591.5,188.6h-2.6c-0.5,0-0.9,0.4-0.9,0.9l0,0c0,0.5,0.4,0.9,0.9,0.9h2.6c0.5,0,0.9-0.4,0.9-0.9l0,0
			C592.4,189,592,188.6,591.5,188.6z"/>
		<path class="st30" d="M605.9,188.6h-10.3c-0.5,0-0.9,0.4-0.9,0.9l0,0c0,0.5,0.4,0.9,0.9,0.9h10.3c0.5,0,0.9-0.4,0.9-0.9l0,0
			C606.9,189,606.5,188.6,605.9,188.6z"/>
		<path class="st30" d="M564.3,193.6h41.6c0.5,0,0.9,0.4,0.9,0.9v0c0,0.5-0.4,0.9-0.9,0.9h-41.6c-0.5,0-0.9-0.4-0.9-0.9v0
			C563.4,194,563.8,193.6,564.3,193.6z"/>
		<path class="st30" d="M605.9,197.7h-19.3c-0.5,0-0.9,0.4-0.9,0.9l0,0c0,0.5,0.4,0.9,0.9,0.9h19.3c0.5,0,0.9-0.4,0.9-0.9l0,0
			C606.9,198.2,606.5,197.7,605.9,197.7z"/>
		<path class="st30" d="M578.8,197.7h2.6c0.5,0,0.9,0.4,0.9,0.9l0,0c0,0.5-0.4,0.9-0.9,0.9h-2.6c-0.5,0-0.9-0.4-0.9-0.9l0,0
			C577.9,198.2,578.3,197.7,578.8,197.7z"/>
		<path class="st30" d="M564.3,197.7h10.3c0.5,0,0.9,0.4,0.9,0.9l0,0c0,0.5-0.4,0.9-0.9,0.9h-10.3c-0.5,0-0.9-0.4-0.9-0.9l0,0
			C563.4,198.2,563.8,197.7,564.3,197.7z"/>
		<path class="st30" d="M564.3,202.7h41.6c0.5,0,0.9,0.4,0.9,0.9l0,0c0,0.5-0.4,0.9-0.9,0.9h-41.6c-0.5,0-0.9-0.4-0.9-0.9l0,0
			C563.4,203.1,563.8,202.7,564.3,202.7z"/>
		<path class="st30" d="M564.3,206.8h19.3c0.5,0,0.9,0.4,0.9,0.9l0,0c0,0.5-0.4,0.9-0.9,0.9h-19.3c-0.5,0-0.9-0.4-0.9-0.9l0,0
			C563.4,207.3,563.8,206.8,564.3,206.8z"/>
		<path class="st30" d="M603.3,206.8h2.6c0.5,0,0.9,0.4,0.9,0.9l0,0c0,0.5-0.4,0.9-0.9,0.9h-2.6c-0.5,0-0.9-0.4-0.9-0.9l0,0
			C602.4,207.3,602.8,206.8,603.3,206.8z"/>
		<path class="st30" d="M588.8,206.8h10.3c0.5,0,0.9,0.4,0.9,0.9l0,0c0,0.5-0.4,0.9-0.9,0.9h-10.3c-0.5,0-0.9-0.4-0.9-0.9l0,0
			C587.9,207.3,588.3,206.8,588.8,206.8z"/>
		<path class="st30" d="M564.3,211.8h41.6c0.5,0,0.9,0.4,0.9,0.9v0c0,0.5-0.4,0.9-0.9,0.9h-41.6c-0.5,0-0.9-0.4-0.9-0.9v0
			C563.4,212.2,563.8,211.8,564.3,211.8z"/>
		<path class="st30" d="M591.5,216h-19.3c-0.5,0-0.9,0.4-0.9,0.9v0c0,0.5,0.4,0.9,0.9,0.9h19.3c0.5,0,0.9-0.4,0.9-0.9v0
			C592.4,216.4,592,216,591.5,216z"/>
		<path class="st30" d="M564.3,216h2.6c0.5,0,0.9,0.4,0.9,0.9v0c0,0.5-0.4,0.9-0.9,0.9h-2.6c-0.5,0-0.9-0.4-0.9-0.9v0
			C563.4,216.4,563.8,216,564.3,216z"/>
		<path class="st30" d="M605.9,216h-10.3c-0.5,0-0.9,0.4-0.9,0.9v0c0,0.5,0.4,0.9,0.9,0.9h10.3c0.5,0,0.9-0.4,0.9-0.9v0
			C606.9,216.4,606.5,216,605.9,216z"/>
		<path class="st30" d="M564.3,220.9h41.6c0.5,0,0.9,0.4,0.9,0.9v0c0,0.5-0.4,0.9-0.9,0.9h-41.6c-0.5,0-0.9-0.4-0.9-0.9v0
			C563.4,221.3,563.8,220.9,564.3,220.9z"/>
		<path class="st30" d="M564.3,225.1h19.3c0.5,0,0.9,0.4,0.9,0.9l0,0c0,0.5-0.4,0.9-0.9,0.9h-19.3c-0.5,0-0.9-0.4-0.9-0.9l0,0
			C563.4,225.5,563.8,225.1,564.3,225.1z"/>
		<path class="st30" d="M591.5,225.1h-2.6c-0.5,0-0.9,0.4-0.9,0.9l0,0c0,0.5,0.4,0.9,0.9,0.9h2.6c0.5,0,0.9-0.4,0.9-0.9l0,0
			C592.4,225.5,592,225.1,591.5,225.1z"/>
		<path class="st30" d="M605.9,225.1h-10.3c-0.5,0-0.9,0.4-0.9,0.9l0,0c0,0.5,0.4,0.9,0.9,0.9h10.3c0.5,0,0.9-0.4,0.9-0.9l0,0
			C606.9,225.5,606.5,225.1,605.9,225.1z"/>
		<path class="st32" d="M590.1,166.4c1.2,0,2.2-1,2.2-2.2c0-1.2-1-2.2-2.2-2.2c-1.2,0-2.2,1-2.2,2.2
			C587.9,165.4,588.9,166.4,590.1,166.4z"/>
		<path class="st35" d="M598,166.4c1.2,0,2.2-1,2.2-2.2c0-1.2-1-2.2-2.2-2.2c-1.2,0-2.2,1-2.2,2.2
			C595.8,165.4,596.8,166.4,598,166.4z"/>
		<path class="st33" d="M605.9,166.4c1.2,0,2.2-1,2.2-2.2c0-1.2-1-2.2-2.2-2.2c-1.2,0-2.2,1-2.2,2.2
			C603.7,165.4,604.7,166.4,605.9,166.4z"/>
		<path class="st31" d="M513,147.1c0.8,0,1.4-0.6,1.4-1.4c0-0.8-0.6-1.4-1.4-1.4c-0.8,0-1.4,0.6-1.4,1.4
			C511.6,146.4,512.2,147.1,513,147.1z"/>
	</g>
	<g>
		<g>
			<path class="st36" d="M536.8,429.2h-5.1c-5.6,0-10.1-4.6-10.1-10.1v-4.6c0-5.6,4.6-10.2,10.1-10.2h5.1c5.6,0,10.1,4.6,10.1,10.2
				v4.6C547,424.6,542.4,429.2,536.8,429.2z M531.8,407.9c-3.6,0-6.5,2.9-6.5,6.5v4.6c0,3.6,2.9,6.5,6.5,6.5h5.1
				c3.6,0,6.5-2.9,6.5-6.5v-4.6c0-3.6-2.9-6.5-6.5-6.5H531.8z"/>
		</g>
		<path class="st37" d="M522.9,395.1c-8.9,0-16.1,2.1-16.1,4.8l3.4,31.1c0.2,1.5,1.4,2.6,2.9,2.6l18.5,0c1.5,0,2.7-1.1,2.9-2.5
			l4.4-31.2C539.1,397.2,531.8,395.1,522.9,395.1z"/>
		<g>
			<path class="st18" d="M534.7,431l0.9-6.3c-4-2.7-8.4-4.9-12.1-8c-4.7-4.1-8.1-9.8-9.2-15.9c-0.3-1.6-0.5-3.2-0.5-4.8
				c-4.2,0.9-7,2.3-7,3.9l3.4,31.1c0.2,1.5,1.4,2.6,2.9,2.6l18.5,0C533.2,433.6,534.5,432.5,534.7,431z"/>
		</g>
		<g>
			<path class="st36" d="M536.7,401c0,2-6.2,3.7-13.8,3.7s-13.8-1.7-13.8-3.7c0-2,6.2-3.7,13.8-3.7S536.7,399,536.7,401z"/>
			<path class="st23" d="M510.3,402.5c2.1,1.3,7,2.2,12.6,2.2s10.5-0.9,12.6-2.2c-2.1-1.3-7-2.2-12.6-2.2S512.4,401.2,510.3,402.5z"
				/>
		</g>
	</g>
	<g>
		<path class="st38" d="M256.7,186.1l-83.5-0.1c-2.2,0-4-1.8-4-4l0.1-67.6c0-2.2,1.8-4,4-4l83.5,0.1c2.2,0,4,1.8,4,4l-0.1,67.6
			C260.6,184.4,258.8,186.1,256.7,186.1z"/>
		<path class="st4" d="M254,183.4l-83.5-0.1c-2.2,0-4-1.8-4-4l0.1-67.6c0-2.2,1.8-4,4-4l83.5,0.1c2.2,0,4,1.8,4,4l-0.1,67.6
			C257.9,181.7,256.2,183.4,254,183.4z"/>
		<path class="st25" d="M250.4,150.5l-76.1-0.1c-1.5,0-2.7-1.2-2.7-2.7l0-31c0-1.5,1.2-2.7,2.7-2.7l76.1,0.1c1.5,0,2.7,1.2,2.7,2.7
			l0,31C253.2,149.3,251.9,150.5,250.4,150.5z"/>
		<polygon class="st4" points="221.9,133.1 208.6,125.4 208.5,140.8 		"/>
		<rect x="171" y="156.6" class="st39" width="81" height="3.7"/>
		<rect x="171" y="164" class="st39" width="81" height="3.7"/>
		<rect x="170.9" y="171.4" class="st39" width="81" height="3.7"/>
	</g>
	<g>
		
			<ellipse transform="matrix(0.7345 -0.6786 0.6786 0.7345 -161.0119 199.0026)" class="st3" cx="173.8" cy="305.3" rx="30.5" ry="30.5"/>
		
			<ellipse transform="matrix(0.6645 -0.7473 0.7473 0.6645 -169.8122 232.3138)" class="st4" cx="173.8" cy="305.3" rx="27.3" ry="27.3"/>
		<g>
			
				<rect x="190.6" y="318.5" transform="matrix(-0.6645 0.7473 -0.7473 -0.6645 557.7296 390.6167)" class="st9" width="1.2" height="4"/>
			
				<rect x="155.7" y="287.5" transform="matrix(-0.6645 0.7473 -0.7473 -0.6645 476.4515 365.0406)" class="st9" width="1.2" height="4"/>
		</g>
		<g>
			
				<rect x="157.6" y="320.4" transform="matrix(-0.7473 -0.6645 0.6645 -0.7473 62.185 668.522)" class="st9" width="1.2" height="4"/>
			
				<rect x="188.7" y="285.6" transform="matrix(-0.7473 -0.6645 0.6645 -0.7473 139.598 628.1676)" class="st9" width="1.2" height="4"/>
		</g>
		<g>
			
				<rect x="149.9" y="301.5" transform="matrix(6.429475e-02 -0.9979 0.9979 6.429475e-02 -162.0985 434.0932)" class="st9" width="1.2" height="4"/>
			
				<rect x="196.5" y="304.5" transform="matrix(6.422617e-02 -0.9979 0.9979 6.422617e-02 -121.4758 483.4319)" class="st9" width="1.2" height="4"/>
		</g>
		<g>
			
				<rect x="151.6" y="294" transform="matrix(0.3847 -0.923 0.923 0.3847 -179.5865 322.5969)" class="st9" width="1.2" height="4"/>
			
				<rect x="194.7" y="312" transform="matrix(0.3849 -0.923 0.923 0.3849 -169.6601 373.3781)" class="st9" width="1.2" height="4"/>
		</g>
		<g>
			
				<rect x="150.4" y="308.2" transform="matrix(-0.2221 -0.975 0.975 -0.2221 -117.9276 526.2668)" class="st9" width="1.2" height="4"/>
			
				<rect x="195.9" y="297.8" transform="matrix(-0.2221 -0.975 0.975 -0.2221 -52.164 557.981)" class="st9" width="1.2" height="4"/>
		</g>
		<g>
			
				<rect x="152.8" y="314.4" transform="matrix(-0.4879 -0.8729 0.8729 -0.4879 -47.9951 604.6064)" class="st9" width="1.2" height="4"/>
			
				<rect x="193.5" y="291.6" transform="matrix(-0.4881 -0.8728 0.8728 -0.4881 32.6082 606.3111)" class="st9" width="1.2" height="4"/>
		</g>
		<g>
			
				<rect x="168.9" y="280" transform="matrix(-0.9836 0.1805 -0.1805 -0.9836 387.1479 528.8201)" class="st9" width="1.2" height="4"/>
			
				<rect x="177.4" y="326" transform="matrix(-0.9836 0.1803 -0.1803 -0.9836 412.1181 618.4406)" class="st9" width="1.2" height="4"/>
		</g>
		<g>
			
				<rect x="161.7" y="282.6" transform="matrix(-0.8718 0.4899 -0.4899 -0.8718 443.2163 453.2609)" class="st9" width="1.2" height="4"/>
			
				<rect x="184.6" y="323.4" transform="matrix(-0.8717 0.49 -0.49 -0.8717 506.022 518.1985)" class="st9" width="1.2" height="4"/>
		</g>
		<g>
			
				<rect x="175.6" y="279.8" transform="matrix(-0.9943 -0.1067 0.1067 -0.9943 321.3881 580.7318)" class="st9" width="1.2" height="4"/>
			
				<rect x="170.7" y="326.2" transform="matrix(-0.9943 -0.1067 0.1067 -0.9943 306.4688 672.8112)" class="st9" width="1.2" height="4"/>
		</g>
		<g>
			
				<rect x="182.1" y="281.4" transform="matrix(-0.9239 -0.3826 0.3826 -0.9239 242.9888 615.1561)" class="st9" width="1.2" height="4"/>
			
				<rect x="164.2" y="324.6" transform="matrix(-0.9239 -0.3828 0.3828 -0.9239 192.056 691.3297)" class="st9" width="1.2" height="4"/>
		</g>
		<g>
			<polygon class="st9" points="174.1,289.3 175.1,289.3 174.6,304.7 183.4,312.5 182.8,313.2 173.7,305.1 			"/>
		</g>
	</g>
</g>
</svg>
