<svg xmlns="http://www.w3.org/2000/svg" viewBox="0 0 592.9 408.72"><defs><style>.cls-1{fill:#a092c6;}.cls-2{fill:#fff;}.cls-3{fill:#8f599f;}.cls-4{fill:#e8514e;}.cls-5{fill:#f5ed80;}.cls-6{fill:#32b196;}.cls-7{fill:#ebe8ec;}.cls-8{fill:#ffc9c9;}.cls-9{fill:#241f47;}.cls-10{fill:#ffa6a6;}.cls-11{fill:#fed976;}.cls-12{fill:#412b7f;}.cls-12,.cls-13,.cls-22{isolation:isolate;}.cls-13{fill:#654da8;}.cls-14{fill:#3f2a3f;}.cls-15{fill:#48b9b6;}.cls-16{fill:#f2b10f;}.cls-17{fill:#ffb0b0;}.cls-18{fill:#542917;}.cls-19{fill:#ff7878;}.cls-20{fill:#f1eef2;}.cls-21{fill:#88cbca;}.cls-22{fill:#dfd5eb;opacity:0.34;}.cls-23{fill:none;stroke:#a092c6;stroke-linecap:round;stroke-miterlimit:10;stroke-width:1.41px;stroke-dasharray:5.54 5.54;}</style></defs><title>enDesarrollo_2</title><g id="Capa_2" data-name="Capa 2"><g id="Capa_1-2" data-name="Capa 1"><rect class="cls-1" x="342.75" y="1.64" width="142.36" height="105.55" rx="2.05"/><rect class="cls-2" x="341.3" width="142.36" height="105.55" rx="2.05"/><path class="cls-3" d="M343.35,0a2.06,2.06,0,0,0-2.05,2.07v5H483.67v-5a2.06,2.06,0,0,0-2.06-2H343.35Z"/><path class="cls-4" d="M475.5,3.46A1.53,1.53,0,1,1,477.05,5a1.54,1.54,0,0,1-1.55-1.53Z"/><path class="cls-5" d="M470.7,3.48A1.53,1.53,0,1,1,472.25,5a1.53,1.53,0,0,1-1.55-1.53Z"/><path class="cls-6" d="M465.89,3.5A1.53,1.53,0,1,1,467.44,5a1.53,1.53,0,0,1-1.55-1.53Z"/><rect class="cls-1" x="352.38" y="14.21" width="120.2" height="28.95"/><rect class="cls-1" x="445.71" y="48.18" width="26.88" height="17.05"/><rect class="cls-1" x="352.89" y="75.79" width="119.7" height="2.38"/><rect class="cls-1" x="352.89" y="89.99" width="119.7" height="2.38"/><rect class="cls-1" x="352.89" y="95.77" width="119.7" height="2.38"/><rect class="cls-1" x="352.89" y="69.77" width="119.7" height="2.38"/><rect class="cls-1" x="414.68" y="48.18" width="26.88" height="17.05"/><rect class="cls-1" x="383.66" y="48.18" width="26.88" height="17.05"/><rect class="cls-1" x="352.63" y="48.18" width="26.88" height="17.05"/><ellipse class="cls-1" cx="297.2" cy="395.38" rx="198.25" ry="13.34"/><path class="cls-7" d="M217.5,389.46c-7-15.48-34.36-9.46-39.35-25.45h0c-6,15.95-32.38,10-39.36,25.45L137.2,393A258.28,258.28,0,0,0,177,396.45,282.22,282.22,0,0,0,219,393Z"/><rect class="cls-7" x="172.15" y="272.82" width="10.98" height="102.87"/><polygon class="cls-8" points="192.4 371.41 195.31 360.63 184.81 356.77 180.02 367.24 192.4 371.41"/><path class="cls-9" d="M193.63,368.53s8.23,4.89,13.46,8.36,13.41,5.68,11.27,7.91c-4.67,4.89-29.74-5.64-29.74-5.64l-11.11-3.5,2.52-8.58A52.79,52.79,0,0,0,193.63,368.53Z"/><polygon class="cls-8" points="248.57 383.24 248.31 372.07 237.14 371.33 235.51 382.74 248.57 383.24"/><path class="cls-9" d="M248.88,380.12s9.33,2.36,15.33,4.22,14.39,1.7,13,4.41c-3.09,6-30.11,3-30.11,3l-11.65-.23v-8.93A52.62,52.62,0,0,0,248.88,380.12Z"/><path class="cls-10" d="M341.46,190.92l3.77,4.14-1.55,1.33-9.5-6.41L322,188s-9.5,5.13-14.34,5.69c-15.41,1.77-55.79-3.14-61.79-5.15s-27-30.63-27-30.63,15.37-8,22.7-8.65l11.32,19a214.43,214.43,0,0,0,28.56,10.24c15.76,4,18.31,3.94,26,5.93l13.65-3.46,15.44,5.13Z"/><path class="cls-11" d="M236.8,125c2.12,6.3,9,26.66,9,26.66C235.19,155,226.53,167,226.53,167s-15.76-21.47-16-33c-.33-17.64,19.33-20.89,19.33-20.89A30,30,0,0,1,236.8,125Z"/><rect class="cls-7" x="158.17" y="269.83" width="38.95" height="20.97"/><path class="cls-7" d="M185.79,257.85H124.11a19.83,19.83,0,0,1-4-14c1-8,8-21,8-39s-20.26-66-14.93-82.89c5-15.9,58.71-20.69,82.78-10q-1.19,38.15-4.07,76.21C190.16,211.42,187.35,234.62,185.79,257.85Z"/><path class="cls-2" d="M185.71,257.85H134.14a19.83,19.83,0,0,1-4-14c1-8,8-21,8-39s-20.26-66-14.93-82.89c4.41-14,46.45-19.37,72.9-13.19q-1.22,39.75-4.22,79.43C190.16,211.42,187.35,234.62,185.71,257.85Z"/><path class="cls-2" d="M124.22,266v-8.14H240.07v19H135A10.86,10.86,0,0,1,124.22,266Z"/><path class="cls-12" d="M164.78,211.56s1.34,14,16.64,28.63S245.3,270.86,251,284.3c2.38,5.5-19,87.69-19,87.69,4.27,3.84,15.9,5.27,22.16,1.05,0,0,26.58-96,22.65-112.29-3.3-13.59-58.71-46.52-58.71-46.52Z"/><path class="cls-13" d="M197.46,200.24a163.66,163.66,0,0,0,3.32,19.31c2,7.33,42.34,15,48.27,28.3S196.63,364.1,196.63,364.1c-10-5-14.93-8-14.93-8l28.07-93.26c-2.65-7.33-49.16-.68-56.93-8-17-16,1.9-55.34,1.9-55.34Z"/><path class="cls-8" d="M237,62c-1.52-8.32-10-10-17.52-8.77a48.57,48.57,0,0,0-13.11,4.07,12.23,12.23,0,0,0-4.68,3.35c-1.66,2.17-5.66,5.55-5.84,8.27-.47,7.75,3,15.66,7.23,22.15,2.81,4.31,7.26,7.13,11.66,9.74,3.72,2.22,8.14,4.42,12.22,3.07,4.49-1.5,6.63-6.53,7.84-11.1C237.36,83.11,238.81,71.84,237,62Z"/><path class="cls-14" d="M221.67,73h0a2.08,2.08,0,1,0,2.08,2.08A2.08,2.08,0,0,0,221.67,73Z"/><path class="cls-14" d="M235.5,75.09A2.07,2.07,0,0,0,233.43,73h0a2.08,2.08,0,1,0,2.08,2.08Z"/><path class="cls-15" d="M219.82,82.64A7.22,7.22,0,1,1,227,75.42a7.22,7.22,0,0,1-7.22,7.22Zm-5.89-7.22h0a5.89,5.89,0,1,0,5.89-5.89A5.89,5.89,0,0,0,213.93,75.43Z"/><path class="cls-15" d="M228,70.17a4.38,4.38,0,0,0-3.34,1.35l-1-.92a5.65,5.65,0,0,1,4.37-1.75,4.89,4.89,0,0,1,3.71,1.91l-1.08.8A3.56,3.56,0,0,0,228,70.17Z"/><path class="cls-15" d="M235.74,82.64A7.22,7.22,0,1,1,243,75.41a7.22,7.22,0,0,1-7.22,7.23Zm-5.86-7.22v0a5.89,5.89,0,1,0,5.88-5.91A5.89,5.89,0,0,0,229.88,75.45Z"/><path class="cls-8" d="M188.14,132.63c10,5.43,25.31,8.62,25.31,8.62l13.65-7.65-4.66-26s-3.7-2.88-7.07-5.09c1.74-3.91,3.5-8,3.73-8.38.85-1.54-6.09-.91-7.23-2q-5-4.91-10.44-9.49a4.45,4.45,0,0,1-.21,2.34,37.7,37.7,0,0,1-9.75,16c-1.22,1.06-3.13,1.06-4.65,1.44-5.35,1.34-5.43,2.84-5.43,2.84S178.15,127.2,188.14,132.63Z"/><path class="cls-16" d="M173.52,104.69s-7.78,25.91-10.78,38.57-16,76-16,76a84.11,84.11,0,0,0,29.39-.37c15.19-2.73,24.79,2.74,31.77,2.27,5.71-.38,10.18-6.93,10.18-6.93s4-27.12,8.32-46.42,3.42-54.71,3.42-54.71l-10.09-7.73s-9,13-19,8.66a30.09,30.09,0,0,1-14-11.66A106.44,106.44,0,0,0,173.52,104.69Z"/><path class="cls-7" d="M304.9,196.67v-5h62.33v.95a4.07,4.07,0,0,1-4.07,4.07Z"/><path class="cls-7" d="M382.66,134.34a4.08,4.08,0,0,1,3.87,5.55l-19.29,51.75L322,193.17l.32-.95-1.22-.51,19.8-54.64a4.05,4.05,0,0,1,3.87-2.71Z"/><path class="cls-2" d="M359.14,157.2c-1.91-.09-4.55,4-5.89,9.18s-.89,9.41,1,9.5,4.53-4,5.89-9.17S361.05,157.28,359.14,157.2Z"/><path class="cls-17" d="M228,70.63a.33.33,0,0,0-.66,0,16.2,16.2,0,0,0,1.19,7.69c.71,1.71,2.37,3.76,2.31,5.63-.06,1.54-.3,1.29-1.74.9-.65-.18-1.4-.56-2-.77s-1,.78-.43,1a13.92,13.92,0,0,0,4.72,1.74.62.62,0,0,0,.58-.44,7.39,7.39,0,0,0-.76-5.31c-1.67-3.49-3.2-6.49-3.2-10.48Z"/><path class="cls-18" d="M222.58,67a.88.88,0,0,0,0-1.68,15,15,0,0,0-5.43.27c-1.09.19-.88,2.18.27,2,.94-.11,1.82-.23,2.72-.31a12,12,0,0,0,2.53-.33Z"/><path class="cls-18" d="M236,67c.61-.1.52-.88.16-1.17a6.28,6.28,0,0,0-4.44-.81c-1.36.13-1.42,2.14,0,2.06A40.4,40.4,0,0,0,236,67Z"/><path class="cls-15" d="M213.21,74.09c.47,0,.56-.6.22-.82a17,17,0,0,0-4-1.61,14.12,14.12,0,0,0-4.15-1,.45.45,0,0,0-.39.23.46.46,0,0,0,.16.65A17.79,17.79,0,0,0,209.17,73a21.38,21.38,0,0,0,4.07,1.13Z"/><path class="cls-18" d="M204.92,72.46c-.77-1.83-2.94-4.11-5-3.19-3.87,1.71-1.36,8.43,2.71,9.57a14.52,14.52,0,0,1-.95,6.62,6.77,6.77,0,0,1-5.34,4.07c-2.42.17-5-1.68-4.78-3.91.15-1.8,1.86-3.61,1-5.21-.69-1.16-2.4-1.39-3.41-2.34-1.88-1.73-.45-4.67-.26-7.16.33-4.46-3.88-8.72-2.52-13,1.53-4.71,9.24-7.13,8.32-12-.2-1.36-1.21-2.5-1.56-3.85-1.07-4,3.55-7.45,7.92-8.23a20.41,20.41,0,0,1,12.22,1.67A19.55,19.55,0,0,0,217,37.18c4.41,1.06,8.65-2.45,13.21-2.54,5.58-.14,9.89,5,10.6,10.18.11.72.21,1.65.92,2.07a4.22,4.22,0,0,0,1.89.32l.22,0a5.53,5.53,0,0,1,4.51,6.4c-.53,2.89-3,5.25-5.74,6.61-5.71,3-12.52,3-19,3.42C215.29,63.67,208.83,66.14,204.92,72.46Z"/><path class="cls-18" d="M205.66,69.5c-.1-.43.08-1.49-.53-1.35s-.53,1.08-.53,1.49a64.4,64.4,0,0,1-.22,10.11,84.11,84.11,0,0,0-1,11.53,49.57,49.57,0,0,0,2.42,12.11,21.8,21.8,0,0,0,3,7,14.4,14.4,0,0,0,7.39,4.8,43.27,43.27,0,0,0,8.83,1.36,16.22,16.22,0,0,0,4.29,0,15.77,15.77,0,0,0,5.73-2.72c2.78-1.86,5.85-4.18,6-7.51.13-2.37-1.38-4.66-3-6.44a12.17,12.17,0,0,1-1.77-2.09,7.27,7.27,0,0,1-.89-3.93c0-1.3.85-3.1.25-4.25-.32-.52-3.77-2.82-8.46-3.23-2.07-.18-5.95.94-8,1.36a7,7,0,0,1-5.9-1,9.11,9.11,0,0,1-2.15-3.41L207.08,74A23.63,23.63,0,0,1,205.66,69.5Z"/><path class="cls-8" d="M219.16,92.87a2,2,0,0,0-.82.87,1.38,1.38,0,0,0,.36,1.36,3.15,3.15,0,0,0,1.25.73,9.82,9.82,0,0,0,2.79.62,1.89,1.89,0,0,0,1.81-.57c.15-.24.2-.53.32-.77.44-.83,1.56-.83,2.49-.83a.81.81,0,0,1,.65.26c.12.22,0,.49,0,.75a1.35,1.35,0,0,0,1.26,1.35,2.37,2.37,0,0,0,1.86-.74,3.84,3.84,0,0,0,.77-4.22C229.59,86.67,222,90.82,219.16,92.87Z"/><path class="cls-19" d="M230.64,91.36a.35.35,0,0,0-.34-.36c-1,0-1.91.16-2.88.11s-1.88-.44-2.85-.44a.48.48,0,0,0-.39.23.47.47,0,0,0,.16.65,6.49,6.49,0,0,0,6.14.1A.34.34,0,0,0,230.64,91.36Z"/><path class="cls-2" d="M178.32,264s4.82-40,0-46.63S139,213.34,139,213.34l2.4-9.64s26.38-1,38.38,2.54,10.07,57.28,10.07,57.28Z"/><path class="cls-8" d="M291.53,189.32l3.79,4.07-1.66,1.36-9.5-6.41-7.8-1.86s-8.58,5.31-13.44,5.86c-15.4,1.81-61.09-3.48-67.09-5.48s-27-30.63-27-30.63,9.36-14.9,16.69-15.56l17.33,25.89a215.37,215.37,0,0,0,28.57,10.22c15.74,4.06,18.3,3.95,26,5.94L271,179.26l15.43,5.12Z"/><path class="cls-11" d="M179.44,120.35c.66,6.69,9,23,9,23-10.65,3.32-19.3,15.3-19.3,15.3s-15.77-21.46-16-32.95c-.29-17.65,20.35-21,20.35-21S178.77,113.66,179.44,120.35Z"/><path class="cls-7" d="M258.72,196.67v-5h62.33v.95a4.07,4.07,0,0,1-4.07,4.07Z"/><rect class="cls-1" x="264.53" y="193.24" width="20.78" height="1.56"/><rect class="cls-1" x="288.44" y="193.24" width="3.08" height="1.56"/><polygon class="cls-15" points="413.21 175.35 415.8 154.33 418.05 151.18 419.06 154.93 416.26 175.56 413.21 175.35"/><polygon class="cls-15" points="399.7 177.55 396.46 156.61 397.76 152.98 399.76 156.31 402.69 176.91 399.7 177.55"/><polygon class="cls-15" points="408.82 178.54 408.54 157.45 410.08 154.06 411.89 157.4 412.15 178.52 408.82 178.54"/><polygon class="cls-11" points="397.49 172.42 418.46 172.42 415.57 198.89 399.61 198.89 397.49 172.42"/><polygon class="cls-20" points="240.75 211.64 232.63 211.64 189.53 399.16 193.36 399.16 240.75 211.64"/><polygon class="cls-20" points="286.71 211.64 278.6 211.64 306.32 397.19 310.15 397.19 286.71 211.64"/><polygon class="cls-20" points="403 211.64 394.89 211.64 364.41 398.33 368.23 398.33 403 211.64"/><polygon class="cls-20" points="443.24 211.64 435.11 211.64 471.79 396.35 475.62 396.35 443.24 211.64"/><rect class="cls-6" x="209.7" y="201.21" width="84.67" height="10.44"/><rect class="cls-15" x="290.28" y="203.26" width="186.45" height="8.39"/><rect class="cls-15" x="191.15" y="196.24" width="216.24" height="11.22"/><rect class="cls-21" x="304.57" y="196.24" width="200.51" height="11.22"/><path class="cls-22" d="M59.91,54.05c0,7.1-5.5,12.8-12.2,12.8s-12.2-5.7-12.2-12.8,5.5-12.8,12.2-12.8S59.91,47,59.91,54.05Z"/><path class="cls-22" d="M68.21,22a6.4,6.4,0,1,1-6.4-6.4A6.38,6.38,0,0,1,68.21,22Z"/><path class="cls-22" d="M82.31,46.35a6.4,6.4,0,1,1-6.4-6.4A6.38,6.38,0,0,1,82.31,46.35Z"/><path class="cls-6" d="M76.48,242.36a6,6,0,0,1-4.5-.7,5.9,5.9,0,1,1,8.1-2A5,5,0,0,1,76.48,242.36Zm-1.8-7.5a2,2,0,0,0-1.2.8,1.93,1.93,0,0,0,.6,2.6,1.7,1.7,0,0,0,1.4.2,2,2,0,0,0,1.2-.8,1.93,1.93,0,0,0-.6-2.6A1.7,1.7,0,0,0,74.68,234.86Z"/><path class="cls-3" d="M63.48,213.26l-1.3.3-.3-1.3a2,2,0,1,0-3.9.9l.3,1.3-1.3.3a2,2,0,1,0,.9,3.9l1.3-.3.3,1.3a2,2,0,0,0,3.9-.9l-.3-1.3,1.3-.3a2,2,0,0,0,1.5-2.4A2,2,0,0,0,63.48,213.26Z"/><path class="cls-3" d="M570.23,276v-1.2h1.2a1.9,1.9,0,0,0,0-3.8h-1.2v-1a1.9,1.9,0,0,0-1.9-1.9,1.84,1.84,0,0,0-1.9,1.9v1.2h-1.2a1.9,1.9,0,1,0,0,3.8h1.2v1.2a1.9,1.9,0,0,0,1.9,1.9A2,2,0,0,0,570.23,276Z"/><path class="cls-3" d="M516.68,25.71V24.15h1.56a2.46,2.46,0,1,0,0-4.92h-1.56v-1.3a2.46,2.46,0,0,0-2.46-2.46,2.39,2.39,0,0,0-2.46,2.46v1.56H510.2a2.46,2.46,0,1,0,0,4.92h1.56V26a2.47,2.47,0,0,0,2.46,2.47A2.6,2.6,0,0,0,516.68,25.71Z"/><path class="cls-6" d="M584.6,259.1a3.85,3.85,0,0,1,1.2-2.9,4.17,4.17,0,1,1,0,5.9A4.41,4.41,0,0,1,584.6,259.1Zm5.5,0a1.09,1.09,0,0,0-.4-.9,1.39,1.39,0,0,0-1.9,0,1.22,1.22,0,0,0-.4.9,1,1,0,0,0,.4.9,1.39,1.39,0,0,0,1.9,0A1.49,1.49,0,0,0,590.1,259.1Z"/><path class="cls-23" d="M341.1,36.34a74.75,74.75,0,0,1-53.85,18.4c-2.9-.19-5.9-.59-8.34-2.17s-4.14-4.63-3.31-7.41c.7-2.34,3-3.91,5.33-4.56,9-2.51,17.82,6.59,19.06,15.89s-2.53,18.42-5.39,27.36c-4.89,15.23-7.2,32.07-1.58,47.05s21,27.07,36.84,24.7"/><path class="cls-22" d="M530.42,319.77c0,7.1-5.5,12.8-12.2,12.8s-12.2-5.7-12.2-12.8,5.5-12.8,12.2-12.8S530.42,312.77,530.42,319.77Z"/><path class="cls-22" d="M488,309.57a6.4,6.4,0,1,1-6.4-6.4A6.38,6.38,0,0,1,488,309.57Z"/><path class="cls-6" d="M0,332.45a4.4,4.4,0,1,1,1.3,3.1A4.39,4.39,0,0,1,0,332.45Zm5.8,0a1.28,1.28,0,0,0-.4-1,1.52,1.52,0,0,0-2,0,1.28,1.28,0,0,0-.4,1,1.78,1.78,0,0,0,.4,1,1.52,1.52,0,0,0,2,0A1.28,1.28,0,0,0,5.8,332.45Z"/></g></g></svg>