<svg xmlns="http://www.w3.org/2000/svg" viewBox="0 0 372.21 338.44"><defs><style>.cls-1{fill:#6387c1;}.cls-2{fill:#fff;}.cls-3{fill:#4a73af;}.cls-4{fill:#bcc0c3;}.cls-5{fill:#ebe8ec;}.cls-6{fill:#ecd0a1;}.cls-7{fill:#1e2322;}.cls-8{fill:#ddbb8a;}.cls-9{fill:#fed976;}.cls-10{fill:#28243f;}.cls-11{fill:#333049;}.cls-12{fill:#3f2a3f;}.cls-13{fill:#f2b10f;}.cls-14{fill:#8cacdd;}.cls-15{fill:#a0bcea;}.cls-16{fill:#d2e1f7;}</style></defs><title>enDesarrollo</title><g id="Capa_2" data-name="Capa 2"><g id="OBJECTS"><rect class="cls-1" width="372.21" height="275.97" rx="5.37"/><path class="cls-2" d="M366.83,0H5.37A5.39,5.39,0,0,0,0,5.37V18.42H372.21v-13A5.39,5.39,0,0,0,366.83,0Z"/><path class="cls-1" d="M21.35,9.11a4,4,0,1,1-4-4.06A4,4,0,0,1,21.35,9.11Z"/><path class="cls-1" d="M33.91,9.16a4,4,0,1,1-4-4.06A4,4,0,0,1,33.91,9.16Z"/><path class="cls-1" d="M46.48,9.21a4,4,0,1,1-4-4.05A4,4,0,0,1,46.48,9.21Z"/><rect class="cls-3" x="28.97" y="37.15" width="314.27" height="75.68"/><rect class="cls-3" x="28.97" y="125.97" width="70.27" height="44.58"/><rect class="cls-3" x="28.97" y="198.15" width="312.95" height="6.22"/><rect class="cls-3" x="28.97" y="235.28" width="312.95" height="6.22"/><rect class="cls-3" x="28.97" y="250.38" width="312.95" height="6.22"/><rect class="cls-3" x="28.97" y="182.42" width="312.95" height="6.22"/><rect class="cls-3" x="110.09" y="125.97" width="70.27" height="44.58"/><rect class="cls-3" x="191.2" y="125.97" width="70.27" height="44.58"/><rect class="cls-3" x="272.32" y="125.97" width="70.27" height="44.58"/><ellipse class="cls-4" cx="179.39" cy="328.61" rx="146.09" ry="9.83"/><path class="cls-5" d="M237,326.84A208.77,208.77,0,0,0,268,329.4a190.42,190.42,0,0,0,29.29-2.56l-1.17-2.59c-5.14-11.41-24.58-7-29-18.75h0c-3.68,11.78-23.86,7.34-29,18.75Z"/><rect class="cls-5" x="263.44" y="238.3" width="8.09" height="75.8" transform="translate(534.98 552.4) rotate(180)"/><polygon class="cls-6" points="265.74 307.88 262.21 300.16 254.47 303.01 256.62 310.95 265.74 307.88"/><path class="cls-7" d="M265.73,307.76l1.86,6.32-8.19,2.58s-18.47,7.76-21.91,4.16c-1.58-1.65,4.44-3.27,8.3-5.83s9.92-6.16,9.92-6.16A38.83,38.83,0,0,0,265.73,307.76Z"/><polygon class="cls-6" points="224.85 319.3 223.65 310.89 215.42 311.44 215.23 319.67 224.85 319.3"/><path class="cls-7" d="M224.87,319.18v6.58l-8.58.17s-19.91,2.22-22.19-2.2c-1-2,5.18-1.88,9.6-3.25S215,317.37,215,317.37A38.76,38.76,0,0,0,224.87,319.18Z"/><path class="cls-8" d="M150.44,174.37l11.38-3.78,10.06,2.55c5.67-1.47,7.55-1.39,19.16-4.37a157.89,157.89,0,0,0,21.05-7.55l8.34-14c5.4.49,16.73,6.38,16.73,6.38s-15.5,21.09-19.92,22.57-34.18,5.1-45.53,3.79c-3.57-.41-10.57-4.19-10.57-4.19l-9,1.49-7,4.72L144,181l2.78-3.05Z"/><path class="cls-9" d="M229,120.61S243.49,123,243.24,136c-.16,8.47-11.77,24.29-11.77,24.29s-6.38-8.83-14.23-11.28c0,0,5.1-15,6.66-19.64A22.09,22.09,0,0,1,229,120.61Z"/><rect class="cls-5" x="253.14" y="236.09" width="28.7" height="15.45" transform="translate(534.98 487.64) rotate(180)"/><path class="cls-5" d="M257,176q-2.12-28.05-3-56.16c17.74-7.9,57.31-4.37,61,7.35,3.93,12.43-11,47.83-11,61.08s5.15,22.81,5.88,28.7a14.63,14.63,0,0,1-2.94,10.3H261.49C260.34,210.15,258.27,193.06,257,176Z"/><path class="cls-2" d="M257,176q-2.21-29.24-3.11-58.53c19.49-4.56,50.47-.59,53.72,9.72,3.93,12.43-11,47.83-11,61.08s5.15,22.81,5.88,28.7a14.63,14.63,0,0,1-2.94,10.3h-38C260.34,210.15,258.27,193.06,257,176Z"/><path class="cls-2" d="M229.45,227.26h77.41a0,0,0,0,1,0,0v14a0,0,0,0,1,0,0H221.49a0,0,0,0,1,0,0v-6A8,8,0,0,1,229.45,227.26Z" transform="translate(528.35 468.5) rotate(180)"/><path class="cls-10" d="M237.68,195.13s-40.83,24.26-43.26,34.28c-2.9,12,16.69,82.74,16.69,82.74,4.61,3.11,13.18,2.06,16.33-.77,0,0-15.76-60.57-14-64.62,4.2-9.9,40-21.71,51.27-32.5s12.26-21.1,12.26-21.1Z"/><path class="cls-11" d="M284.37,184.27s13.91,29,1.4,40.78c-5.73,5.39-40,.49-41.95,5.89l20.68,68.72s-3.65,2.22-11,5.9c0,0-43-75.85-38.63-85.66s34.1-15.45,35.57-20.85a119.72,119.72,0,0,0,2.45-14.23Z"/><path class="cls-6" d="M225.36,105.6c.89,3.37,2.47,7.08,5.78,8.18,3,1,6.26-.62,9-2.26,3.24-1.92,6.52-4,8.59-7.18,3.14-4.78,5.68-10.61,5.33-16.32-.13-2-3.08-4.49-4.3-6.09a9,9,0,0,0-3.45-2.47,35.58,35.58,0,0,0-9.66-3c-5.58-.91-11.79.33-12.91,6.46C222.42,90.2,223.49,98.51,225.36,105.6Z"/><path class="cls-12" d="M233.52,92.61a1.53,1.53,0,1,0,1.53-1.53A1.53,1.53,0,0,0,233.52,92.61Z"/><path class="cls-12" d="M224.86,92.61a1.53,1.53,0,1,0,1.52-1.53A1.52,1.52,0,0,0,224.86,92.61Z"/><path class="cls-12" d="M236.41,98.16a5.32,5.32,0,1,1,5.32-5.32A5.32,5.32,0,0,1,236.41,98.16Zm0-9.65a4.34,4.34,0,1,0,4.34,4.33A4.34,4.34,0,0,0,236.41,88.51Z"/><path class="cls-12" d="M228.4,90l-.79-.59A3.59,3.59,0,0,1,230.34,88a4.17,4.17,0,0,1,3.22,1.29l-.71.68a3.22,3.22,0,0,0-2.46-1A2.64,2.64,0,0,0,228.4,90Z"/><path class="cls-12" d="M224.67,98.16A5.32,5.32,0,1,1,230,92.84,5.32,5.32,0,0,1,224.67,98.16Zm0-9.65A4.34,4.34,0,1,0,229,92.84,4.34,4.34,0,0,0,224.67,88.51Z"/><path class="cls-6" d="M264.73,114.79s-.06-1.1-4-2.09c-1.12-.28-2.53-.28-3.43-1.06a27.8,27.8,0,0,1-7.18-11.76,3.31,3.31,0,0,1-.16-1.73q-4,3.38-7.69,7c-.84.84-5.95.37-5.33,1.51.17.31,1.47,3.29,2.75,6.17-2.48,1.63-5.21,3.75-5.21,3.75l-3.43,19.13,10.06,5.64S252.4,139,259.76,135,264.73,114.79,264.73,114.79Z"/><path class="cls-13" d="M260.74,112.7a22.19,22.19,0,0,1-10.3,8.59c-7.36,3.19-14-6.38-14-6.38l-7.43,5.7s-.67,26.09,2.52,40.31,6.13,34.21,6.13,34.21,3.29,4.82,7.5,5.1c5.14.35,12.22-3.68,23.41-1.67a61.94,61.94,0,0,0,21.66.27s-9.55-46.67-11.76-56-7.94-28.42-7.94-28.42A78.17,78.17,0,0,0,260.74,112.7Z"/><path class="cls-5" d="M127.78,178.48h42.93a3,3,0,0,1,3,3v.7a0,0,0,0,1,0,0H127.78a0,0,0,0,1,0,0v-3.7A0,0,0,0,1,127.78,178.48Z" transform="translate(301.5 360.67) rotate(180)"/><path class="cls-2" d="M144.37,136.27a3,3,0,0,1,2.85,2l14.59,40.26-.9.38.24.7-33.37-1.13-14.21-38.13a3,3,0,0,1,2.85-4.09Z"/><path class="cls-5" d="M133,160.11c1,3.8,2.93,6.83,4.34,6.76s1.74-3.19.75-7-2.93-6.83-4.34-6.77S132,156.31,133,160.11Z"/><path class="cls-12" d="M230.37,89.31c0,2.94-1.13,5.15-2.36,7.72a5.49,5.49,0,0,0-.56,3.92.46.46,0,0,0,.43.32,10.46,10.46,0,0,0,3.48-1.28c.43-.19.13-.93-.32-.77s-1,.44-1.48.57c-1.06.29-1.24.47-1.28-.66-.05-1.38,1.18-2.89,1.7-4.15a12,12,0,0,0,.88-5.67c0-.31-.5-.32-.49,0Z"/><path class="cls-12" d="M234.31,86.6a8.41,8.41,0,0,0,1.87.24c.66.06,1.31.15,2,.23.85.1,1-1.37.2-1.51a11.24,11.24,0,0,0-4-.2.65.65,0,0,0,0,1.24Z"/><path class="cls-12" d="M224.53,86.62c1,.17,2.1,0,3.15.06s1-1.42,0-1.52a4.64,4.64,0,0,0-3.27.6c-.27.21-.33.79.12.86Z"/><path class="cls-12" d="M241.26,91.86a16.11,16.11,0,0,0,3-.83,13.24,13.24,0,0,0,3-1.07.35.35,0,0,0-.17-.65,10.57,10.57,0,0,0-3.06.76,12.54,12.54,0,0,0-2.91,1.19c-.25.16-.18.64.16.6Z"/><path class="cls-11" d="M233.61,84.18c-4.77-.32-9.79-.34-14-2.52-2-1-3.84-2.74-4.23-4.87a4.08,4.08,0,0,1,3.49-4.74,3.07,3.07,0,0,0,1.39-.23c.52-.31.6-1,.68-1.53.52-3.78,3.7-7.6,7.81-7.5,3.36.07,6.48,2.65,9.73,1.87a14.4,14.4,0,0,0,2.79-1.22,15,15,0,0,1,9-1.23c3.22.57,6.63,3.11,5.84,6.06-.26,1-1,1.84-1.15,2.84-.68,3.57,5,5.35,6.13,8.82,1,3.16-2.1,6.3-1.86,9.59.14,1.83,1.2,4-.19,5.27-.74.7-2,.87-2.51,1.73-.67,1.18.59,2.51.7,3.84.14,1.64-1.74,3-3.52,2.88a5,5,0,0,1-3.94-3,10.77,10.77,0,0,1-.7-4.88c3-.84,4.85-5.79,2-7.05-1.51-.68-3.11,1-3.68,2.35C244.51,86,239.75,84.18,233.61,84.18Z"/><path class="cls-11" d="M245.8,91.8l-3,6.85a6.7,6.7,0,0,1-1.58,2.51,5.18,5.18,0,0,1-4.35.75c-1.49-.31-4.35-1.13-5.87-1-3.46.3-6,2-6.24,2.38-.44.85.18,2.17.19,3.13a5.39,5.39,0,0,1-.66,2.9,9.07,9.07,0,0,1-1.3,1.54c-1.23,1.31-2.34,3-2.24,4.74.14,2.46,2.4,4.17,4.45,5.54a11.64,11.64,0,0,0,4.22,2,11.94,11.94,0,0,0,3.16,0,31.79,31.79,0,0,0,6.51-1,10.61,10.61,0,0,0,5.44-3.54,15.85,15.85,0,0,0,2.21-5.15,36.5,36.5,0,0,0,1.79-8.92,62.25,62.25,0,0,0-.74-8.5,47.54,47.54,0,0,1-.16-7.45c0-.3.06-1-.39-1.1s-.32.68-.39,1A17.88,17.88,0,0,1,245.8,91.8Z"/><path class="cls-6" d="M227.51,104.82a2.82,2.82,0,0,0,.57,3.11,1.76,1.76,0,0,0,1.37.55,1,1,0,0,0,.93-1c0-.19-.09-.39,0-.55a.57.57,0,0,1,.48-.19c.68,0,1.51,0,1.83.61.09.18.13.39.24.57a1.39,1.39,0,0,0,1.33.42,7.32,7.32,0,0,0,2.06-.46,2.31,2.31,0,0,0,.92-.54,1,1,0,0,0,.26-1,1.48,1.48,0,0,0-.6-.64C234.79,104.19,229.21,101.13,227.51,104.82Z"/><path class="cls-12" d="M228.56,104.8a4.79,4.79,0,0,0,4.52-.07.35.35,0,0,0-.17-.65c-.71,0-1.39.28-2.1.32s-1.41-.11-2.12-.08a.26.26,0,0,0-.13.48Z"/><path class="cls-2" d="M258.52,231.45s-1.42-39.6,7.42-42.21,28.28-1.87,28.28-1.87l1.77,7.1s-25.45-1.87-29,3,0,34.36,0,34.36Z"/><path class="cls-6" d="M187.3,173.13l11.37-3.77,10.06,2.55c5.67-1.47,7.56-1.39,19.16-4.38A158.55,158.55,0,0,0,248.94,160l12.77-19.08c5.4.49,12.3,11.47,12.3,11.47s-15.5,21.1-19.92,22.57S216,180.33,204.65,179c-3.58-.41-9.9-4.32-9.9-4.32L189,176.05l-7,4.72-1.22-1,2.79-3Z"/><path class="cls-9" d="M270.55,114.42s15.21,2.45,15,15.46c-.16,8.46-11.78,24.28-11.78,24.28s-6.37-8.83-14.22-11.28c0,0,6.13-12,6.62-16.93S270.55,114.42,270.55,114.42Z"/><path class="cls-2" d="M161.81,178.48h42.93a3,3,0,0,1,3,3v.7a0,0,0,0,1,0,0H161.81a0,0,0,0,1,0,0v-3.7A0,0,0,0,1,161.81,178.48Z" transform="translate(369.56 360.67) rotate(180)"/><rect class="cls-5" x="188.15" y="179.66" width="15.31" height="1.15" transform="translate(391.62 360.47) rotate(180)"/><rect class="cls-5" x="183.59" y="179.66" width="2.27" height="1.15" transform="translate(369.44 360.47) rotate(180)"/><polygon class="cls-2" points="91.66 166.63 89.6 151.43 90.34 148.67 92 150.99 93.91 166.48 91.66 166.63"/><polygon class="cls-2" points="101.66 167.63 103.82 152.45 105.29 149.99 106.25 152.67 103.86 168.1 101.66 167.63"/><polygon class="cls-2" points="94.69 168.81 94.88 153.25 96.21 150.79 97.35 153.29 97.14 168.83 94.69 168.81"/><polygon class="cls-9" points="103.93 183.82 92.17 183.82 90.04 164.32 105.49 164.32 103.93 183.82"/><polygon class="cls-2" points="255.91 331.4 258.73 331.4 226.97 193.22 220.99 193.22 255.91 331.4"/><polygon class="cls-2" points="169.85 329.95 172.67 329.95 193.1 193.22 187.12 193.22 169.85 329.95"/><polygon class="cls-2" points="127.05 330.79 129.87 330.79 107.41 193.22 101.43 193.22 127.05 330.79"/><polygon class="cls-2" points="47.92 329.33 50.74 329.33 77.77 193.22 71.78 193.22 47.92 329.33"/><rect class="cls-14" x="94.88" y="187.04" width="148.99" height="6.18" transform="translate(338.75 380.26) rotate(180)"/><rect class="cls-15" x="47.11" y="187.04" width="137.39" height="6.18" transform="translate(231.6 380.26) rotate(180)"/><rect class="cls-15" x="98.19" y="181.87" width="159.34" height="8.27" transform="translate(355.73 372.01) rotate(180)"/><rect class="cls-16" x="26.22" y="181.87" width="147.75" height="8.27" transform="translate(200.18 372.01) rotate(180)"/></g></g></svg>