<svg xmlns="http://www.w3.org/2000/svg" viewBox="0 0 592.9 406.83"><defs><style>.cls-1{fill:#dfd5eb;opacity:0.34;}.cls-1,.cls-13,.cls-14{isolation:isolate;}.cls-2{fill:#32b196;}.cls-3{fill:#8f599f;}.cls-4{fill:#a092c6;}.cls-5{fill:#fff;}.cls-6{fill:#e8514e;}.cls-7{fill:#f5ed80;}.cls-8{fill:#ebe8ec;}.cls-9{fill:#ffc9c9;}.cls-10{fill:#241f47;}.cls-11{fill:#ffa6a6;}.cls-12{fill:#fed976;}.cls-13{fill:#412b7f;}.cls-14{fill:#654da8;}.cls-15{fill:#3f2a3f;}.cls-16{fill:#48b9b6;}.cls-17{fill:#f2b10f;}.cls-18{fill:#ffb0b0;}.cls-19{fill:#542917;}.cls-20{fill:#ff7878;}.cls-21{fill:#f1eef2;}.cls-22{fill:#88cbca;}.cls-23{fill:none;stroke:#a092c6;stroke-linecap:round;stroke-miterlimit:10;stroke-width:1.41px;stroke-dasharray:5.54 5.54;}</style></defs><title>enDesarrollo_3</title><g id="Capa_2" data-name="Capa 2"><g id="Capa_1-2" data-name="Capa 1"><path class="cls-1" d="M59.91,54.46c0,7.1-5.5,12.8-12.2,12.8s-12.2-5.7-12.2-12.8,5.5-12.8,12.2-12.8S59.91,47.36,59.91,54.46Z"/><path class="cls-1" d="M68.21,22.36a6.4,6.4,0,1,1-6.4-6.4A6.38,6.38,0,0,1,68.21,22.36Z"/><path class="cls-1" d="M82.31,46.76a6.4,6.4,0,1,1-6.4-6.4A6.38,6.38,0,0,1,82.31,46.76Z"/><path class="cls-2" d="M76.48,242.77a6,6,0,0,1-4.5-.7,5.9,5.9,0,1,1,8.1-2A5,5,0,0,1,76.48,242.77Zm-1.8-7.5a2,2,0,0,0-1.2.8,1.93,1.93,0,0,0,.6,2.6,1.7,1.7,0,0,0,1.4.2,2,2,0,0,0,1.2-.8,1.93,1.93,0,0,0-.6-2.6A1.7,1.7,0,0,0,74.68,235.27Z"/><path class="cls-3" d="M63.48,213.67l-1.3.3-.3-1.3a2,2,0,1,0-3.9.9l.3,1.3-1.3.3a2,2,0,1,0,.9,3.9l1.3-.3.3,1.3a2,2,0,0,0,3.9-.9l-.3-1.3,1.3-.3a2,2,0,0,0,1.5-2.4A2,2,0,0,0,63.48,213.67Z"/><path class="cls-3" d="M570.23,276.39v-1.2h1.2a1.9,1.9,0,1,0,0-3.8h-1.2v-1a1.9,1.9,0,0,0-1.9-1.9,1.84,1.84,0,0,0-1.9,1.9v1.2h-1.2a1.9,1.9,0,0,0,0,3.8h1.2v1.2a1.9,1.9,0,0,0,1.9,1.9A2,2,0,0,0,570.23,276.39Z"/><path class="cls-3" d="M516.68,26.12V24.56h1.56a2.46,2.46,0,1,0,0-4.92h-1.56v-1.3a2.46,2.46,0,0,0-2.46-2.46,2.39,2.39,0,0,0-2.46,2.46V19.9H510.2a2.46,2.46,0,1,0,0,4.92h1.56v1.56a2.46,2.46,0,0,0,2.46,2.46A2.6,2.6,0,0,0,516.68,26.12Z"/><path class="cls-2" d="M584.6,259.52a3.85,3.85,0,0,1,1.2-2.9,4.17,4.17,0,1,1,0,5.9A4.41,4.41,0,0,1,584.6,259.52Zm5.5,0a1.09,1.09,0,0,0-.4-.9,1.39,1.39,0,0,0-1.9,0,1.22,1.22,0,0,0-.4.9,1,1,0,0,0,.4.9,1.39,1.39,0,0,0,1.9,0A1.49,1.49,0,0,0,590.1,259.52Z"/><rect class="cls-4" x="342.5" y="1.63" width="141.71" height="105.07" rx="2.04"/><rect class="cls-5" x="341.07" width="141.71" height="105.07" rx="2.04"/><path class="cls-3" d="M343.11,0a2,2,0,0,0-2,2.06V7h141.7V2a2,2,0,0,0-2-2Z"/><path class="cls-6" d="M474.64,3.45A1.53,1.53,0,1,1,476.19,5a1.53,1.53,0,0,1-1.55-1.52Z"/><path class="cls-7" d="M469.86,3.46A1.53,1.53,0,1,1,471.41,5a1.52,1.52,0,0,1-1.55-1.53Z"/><path class="cls-2" d="M465.08,3.49A1.52,1.52,0,1,1,466.62,5a1.53,1.53,0,0,1-1.54-1.52Z"/><rect class="cls-4" x="352.1" y="14.14" width="119.65" height="28.81"/><rect class="cls-4" x="444.99" y="47.96" width="26.75" height="16.97"/><rect class="cls-4" x="352.6" y="75.44" width="119.14" height="2.37"/><rect class="cls-4" x="352.6" y="89.57" width="119.14" height="2.37"/><rect class="cls-4" x="352.6" y="95.32" width="119.14" height="2.37"/><rect class="cls-4" x="352.6" y="69.45" width="119.14" height="2.37"/><rect class="cls-4" x="414.11" y="47.96" width="26.75" height="16.97"/><rect class="cls-4" x="383.23" y="47.96" width="26.75" height="16.97"/><rect class="cls-4" x="352.34" y="47.96" width="26.75" height="16.97"/><ellipse class="cls-4" cx="297.17" cy="393.55" rx="197.34" ry="13.28"/><path class="cls-8" d="M217.84,387.66c-6.94-15.41-34.2-9.42-39.17-25.33h0c-6,15.87-32.23,9.92-39.18,25.33l-1.58,3.5a258.44,258.44,0,0,0,39.57,3.46,282.31,282.31,0,0,0,41.87-3.46Z"/><rect class="cls-8" x="172.69" y="271.56" width="10.93" height="102.39"/><polygon class="cls-9" points="192.85 369.69 195.75 358.97 185.3 355.12 180.53 365.55 192.85 369.69"/><path class="cls-10" d="M194.08,366.83s8.18,4.86,13.4,8.32,13.34,5.65,11.21,7.88c-4.65,4.86-29.6-5.62-29.6-5.62L178,373.92l2.51-8.54A52.29,52.29,0,0,0,194.08,366.83Z"/><polygon class="cls-9" points="248.76 381.47 248.5 370.36 237.38 369.61 235.76 380.97 248.76 381.47"/><path class="cls-10" d="M249.07,378.37s9.29,2.35,15.26,4.2,14.32,1.68,13,4.39c-3.08,6-30,3-30,3l-11.59-.23v-8.89A52.58,52.58,0,0,0,249.07,378.37Z"/><path class="cls-11" d="M341.22,190l3.76,4.12-1.54,1.32L334,189.1l-12.16-2s-9.45,5.11-14.27,5.66c-15.34,1.77-55.54-3.12-61.51-5.12s-26.9-30.49-26.9-30.49,15.3-7.95,22.59-8.61L253,167.44a213.92,213.92,0,0,0,28.43,10.2c15.69,4,18.23,3.91,25.89,5.9l13.58-3.44,15.38,5.1Z"/><path class="cls-12" d="M237.05,124.42c2.1,6.26,9,26.52,9,26.52-10.6,3.31-19.22,15.24-19.22,15.24s-15.68-21.37-15.9-32.81c-.34-17.56,19.24-20.79,19.24-20.79A29.91,29.91,0,0,1,237.05,124.42Z"/><rect class="cls-8" x="158.78" y="268.59" width="38.77" height="20.87"/><path class="cls-8" d="M186.27,256.66H124.88a19.7,19.7,0,0,1-4-13.91c1-8,7.94-20.87,7.94-38.77S108.68,138.26,114,121.47c5-15.83,58.43-20.6,82.4-9.93q-1.19,38-4,75.86C190.62,210.45,187.82,233.53,186.27,256.66Z"/><path class="cls-5" d="M186.19,256.66H134.86a19.7,19.7,0,0,1-4-13.91c1-8,7.94-20.87,7.94-38.77S118.66,138.26,124,121.47c4.39-13.93,46.24-19.29,72.57-13.13q-1.22,39.57-4.2,79.06C190.62,210.45,187.82,233.53,186.19,256.66Z"/><path class="cls-5" d="M125,264.72v-8.1H240.3v18.91H135.74A10.81,10.81,0,0,1,125,264.72Z"/><path class="cls-13" d="M165.36,210.58s1.34,13.93,16.56,28.5S245.5,269.61,251.18,283c2.37,5.47-18.92,87.28-18.92,87.28,4.26,3.83,15.84,5.25,22.06,1,0,0,26.47-95.55,22.55-111.76-3.28-13.54-58.44-46.31-58.44-46.31Z"/><path class="cls-14" d="M197.89,199.32a160.83,160.83,0,0,0,3.31,19.22c2,7.29,42.14,14.91,48,28.16s-52.18,115.71-52.18,115.71c-9.93-5-14.86-8-14.86-8l27.94-92.82c-2.64-7.3-48.93-.68-56.67-8-16.9-15.91,1.89-55.09,1.89-55.09Z"/><path class="cls-9" d="M237.26,61.67c-1.51-8.28-9.9-10-17.44-8.73a48.08,48.08,0,0,0-13,4.06,12.11,12.11,0,0,0-4.66,3.33c-1.65,2.16-5.64,5.53-5.81,8.23-.48,7.71,2.95,15.59,7.2,22,2.79,4.3,7.22,7.11,11.6,9.7,3.7,2.22,8.1,4.41,12.16,3.06,4.47-1.49,6.6-6.5,7.8-11C237.6,82.73,239.05,71.5,237.26,61.67Z"/><path class="cls-15" d="M222,72.69h0a2.07,2.07,0,1,0,2.06,2.07A2.07,2.07,0,0,0,222,72.69Z"/><path class="cls-15" d="M235.75,74.75a2.05,2.05,0,0,0-2.05-2.06h0a2.07,2.07,0,1,0,2.07,2.07Z"/><path class="cls-16" d="M220.15,82.26a7.19,7.19,0,1,1,7.18-7.19,7.19,7.19,0,0,1-7.18,7.19Zm-5.86-7.19h0a5.86,5.86,0,1,0,5.86-5.86A5.86,5.86,0,0,0,214.29,75.08Z"/><path class="cls-16" d="M228.28,69.84A4.36,4.36,0,0,0,225,71.19l-1-.91a5.61,5.61,0,0,1,4.35-1.75A4.86,4.86,0,0,1,232,70.44l-1.07.79A3.57,3.57,0,0,0,228.28,69.84Z"/><path class="cls-16" d="M236,82.26a7.19,7.19,0,1,1,7.19-7.2,7.18,7.18,0,0,1-7.19,7.2Zm-5.83-7.19v0A5.86,5.86,0,1,0,236,69.22,5.87,5.87,0,0,0,230.16,75.1Z"/><path class="cls-9" d="M188.61,132c9.94,5.4,25.19,8.58,25.19,8.58L227.39,133l-4.63-25.84s-3.69-2.87-7-5.07c1.73-3.89,3.48-7.91,3.71-8.33.84-1.54-6.06-.91-7.2-2q-5-4.89-10.39-9.46a4.44,4.44,0,0,1-.21,2.34,37.62,37.62,0,0,1-9.7,15.89c-1.22,1-3.12,1-4.63,1.43-5.33,1.33-5.41,2.82-5.41,2.82S178.67,126.62,188.61,132Z"/><path class="cls-17" d="M174.06,104.21S166.32,130,163.33,142.6s-15.88,75.64-15.88,75.64a83.61,83.61,0,0,0,29.26-.36c15.11-2.72,24.68,2.73,31.62,2.25,5.69-.38,10.13-6.89,10.13-6.89s4-27,8.28-46.21,3.4-54.45,3.4-54.45l-10-7.7s-9,12.93-18.91,8.62a30,30,0,0,1-13.92-11.6A105.64,105.64,0,0,0,174.06,104.21Z"/><path class="cls-8" d="M304.83,195.76v-5h62v.94a4,4,0,0,1-4.05,4Z"/><path class="cls-8" d="M382.23,133.72a4.06,4.06,0,0,1,3.85,5.53l-19.19,51.5-45.08,1.53.32-.95-1.21-.51,19.71-54.38a4,4,0,0,1,3.85-2.7Z"/><path class="cls-5" d="M358.82,156.47c-1.9-.08-4.52,4-5.86,9.14s-.89,9.37,1,9.46,4.51-4,5.86-9.13S360.73,156.55,358.82,156.47Z"/><path class="cls-18" d="M228.31,70.3a.33.33,0,0,0-.66,0A16.2,16.2,0,0,0,228.83,78c.71,1.7,2.37,3.74,2.3,5.61,0,1.52-.3,1.28-1.73.89-.65-.18-1.39-.56-2-.77s-1,.78-.43,1a14.09,14.09,0,0,0,4.7,1.73.63.63,0,0,0,.58-.43,7.41,7.41,0,0,0-.75-5.3c-1.67-3.47-3.19-6.46-3.19-10.43Z"/><path class="cls-19" d="M222.89,66.64a.86.86,0,0,0,.57-.57.87.87,0,0,0-.57-1.1,14.87,14.87,0,0,0-5.4.27c-1.08.19-.88,2.17.27,2,.93-.11,1.81-.23,2.7-.31a11.84,11.84,0,0,0,2.52-.33Z"/><path class="cls-19" d="M236.2,66.67c.6-.1.52-.88.16-1.16a6.23,6.23,0,0,0-4.42-.81c-1.35.13-1.42,2.13,0,2a40.07,40.07,0,0,0,4.26-.08Z"/><path class="cls-16" d="M213.57,73.75c.46,0,.55-.6.22-.81a17,17,0,0,0-3.93-1.61,14.46,14.46,0,0,0-4.14-1,.47.47,0,0,0-.23.88,18.29,18.29,0,0,0,4,1.45,22.82,22.82,0,0,0,4.06,1.12Z"/><path class="cls-19" d="M205.32,72.13c-.77-1.83-2.93-4.1-5-3.18-3.85,1.7-1.36,8.39,2.7,9.52a14.57,14.57,0,0,1-1,6.6,6.77,6.77,0,0,1-5.32,4.05c-2.4.16-4.94-1.68-4.76-3.89.15-1.8,1.86-3.59.95-5.19-.69-1.16-2.39-1.39-3.39-2.34-1.88-1.71-.45-4.64-.26-7.11.33-4.45-3.86-8.69-2.51-13,1.53-4.69,9.2-7.09,8.28-11.91-.2-1.35-1.2-2.49-1.55-3.84-1.07-4,3.54-7.41,7.89-8.18a20.19,20.19,0,0,1,12.15,1.66A19.38,19.38,0,0,0,217.35,37c4.39,1.06,8.61-2.43,13.15-2.52,5.55-.14,9.84,5,10.55,10.13.1.72.21,1.65.91,2.07a4.33,4.33,0,0,0,1.88.31l.22,0a5.52,5.52,0,0,1,4.5,6.37c-.53,2.88-3,5.23-5.72,6.58-5.69,2.94-12.47,3-18.91,3.4C215.64,63.37,209.21,65.83,205.32,72.13Z"/><path class="cls-19" d="M206.05,69.18c-.1-.43.08-1.49-.53-1.35s-.53,1.08-.53,1.49a65,65,0,0,1-.21,10.06,83.38,83.38,0,0,0-1,11.48,49.55,49.55,0,0,0,2.41,12,21.62,21.62,0,0,0,3,7,14.36,14.36,0,0,0,7.35,4.78,43.46,43.46,0,0,0,8.79,1.35,12.06,12.06,0,0,0,10-2.7c2.77-1.85,5.82-4.16,6-7.49.14-2.35-1.36-4.63-3-6.4a12.11,12.11,0,0,1-1.76-2.08,7.22,7.22,0,0,1-.89-3.92c0-1.29.85-3.08.26-4.22-.33-.52-3.76-2.81-8.43-3.22-2.06-.17-5.92.93-7.93,1.35a7,7,0,0,1-5.88-1,9.19,9.19,0,0,1-2.13-3.39l-4.06-9.25A24.37,24.37,0,0,1,206.05,69.18Z"/><path class="cls-9" d="M219.49,92.44a2,2,0,0,0-.81.87,1.33,1.33,0,0,0,.35,1.35,3.24,3.24,0,0,0,1.24.73,9.83,9.83,0,0,0,2.78.62,1.89,1.89,0,0,0,1.8-.57c.15-.24.2-.53.32-.77.44-.82,1.56-.82,2.48-.82a.74.74,0,0,1,.64.25c.13.22,0,.49,0,.75a1.35,1.35,0,0,0,1.26,1.35,2.39,2.39,0,0,0,1.85-.75,3.8,3.8,0,0,0,.77-4.2C229.87,86.27,222.34,90.4,219.49,92.44Z"/><path class="cls-20" d="M230.92,90.94a.35.35,0,0,0-.34-.36c-1,0-1.91.16-2.87.11s-1.87-.44-2.83-.44a.49.49,0,0,0-.4.23.47.47,0,0,0,.17.65,6.46,6.46,0,0,0,6.1.1A.39.39,0,0,0,230.92,90.94Z"/><path class="cls-5" d="M178.84,262.82s4.8-39.84,0-46.42-39.17-4.05-39.17-4.05l2.39-9.59s26.26-1,38.2,2.53,10,57,10,57Z"/><path class="cls-9" d="M291.52,188.44l3.77,4.06-1.64,1.35-9.46-6.38-7.77-1.85s-8.53,5.28-13.37,5.84c-15.33,1.79-60.81-3.48-66.78-5.46s-26.91-30.49-26.91-30.49S178.68,140.68,186,140l17.25,25.77A213.91,213.91,0,0,0,231.66,176c15.67,4,18.22,3.93,25.88,5.92l13.59-3.45,15.36,5.1Z"/><path class="cls-12" d="M180,119.8c.66,6.65,8.94,22.86,8.94,22.86-10.6,3.31-19.21,15.24-19.21,15.24S154,136.53,153.77,125.1c-.28-17.57,20.26-20.88,20.26-20.88S179.29,113.14,180,119.8Z"/><path class="cls-8" d="M258.86,195.76v-5h62v.94a4,4,0,0,1-4,4Z"/><rect class="cls-4" x="264.64" y="192.35" width="20.68" height="1.55"/><rect class="cls-4" x="288.44" y="192.35" width="3.07" height="1.55"/><polygon class="cls-16" points="412.64 174.54 415.22 153.62 417.46 150.49 418.46 154.21 415.68 174.75 412.64 174.54"/><polygon class="cls-16" points="399.2 176.73 395.97 155.89 397.26 152.27 399.25 155.59 402.17 176.1 399.2 176.73"/><polygon class="cls-16" points="408.27 177.72 407.99 156.73 409.53 153.35 411.33 156.67 411.58 177.69 408.27 177.72"/><polygon class="cls-12" points="397 171.63 417.87 171.63 414.99 197.97 399.1 197.97 397 171.63"/><polygon class="cls-21" points="240.98 210.66 232.9 210.66 190 397.32 193.81 397.32 240.98 210.66"/><polygon class="cls-21" points="286.73 210.66 278.65 210.66 306.25 395.36 310.06 395.36 286.73 210.66"/><polygon class="cls-21" points="402.48 210.66 394.4 210.66 364.06 396.49 367.87 396.49 402.48 210.66"/><polygon class="cls-21" points="442.53 210.66 434.44 210.66 470.95 394.52 474.76 394.52 442.53 210.66"/><rect class="cls-2" x="210.07" y="200.28" width="84.28" height="10.39"/><rect class="cls-16" x="290.28" y="202.32" width="185.59" height="8.35"/><rect class="cls-16" x="191.61" y="195.33" width="215.24" height="11.17"/><rect class="cls-22" x="304.51" y="195.33" width="199.58" height="11.17"/><path class="cls-23" d="M340.86,36.17a74.42,74.42,0,0,1-53.6,18.32c-2.88-.19-5.87-.59-8.3-2.16s-4.12-4.61-3.29-7.38c.69-2.33,3-3.89,5.3-4.54,9-2.49,17.74,6.56,19,15.82s-2.52,18.34-5.37,27.23c-4.87,15.16-7.17,31.93-1.57,46.83s20.92,27,36.67,24.59"/><path class="cls-1" d="M530.42,320.19c0,7.1-5.5,12.8-12.2,12.8s-12.2-5.7-12.2-12.8,5.5-12.8,12.2-12.8S530.42,313.19,530.42,320.19Z"/><path class="cls-1" d="M488,310a6.4,6.4,0,1,1-6.4-6.4A6.38,6.38,0,0,1,488,310Z"/><path class="cls-2" d="M0,332.87A4.4,4.4,0,1,1,1.3,336,4.39,4.39,0,0,1,0,332.87Zm5.8,0a1.28,1.28,0,0,0-.4-1,1.52,1.52,0,0,0-2,0,1.28,1.28,0,0,0-.4,1,1.78,1.78,0,0,0,.4,1,1.52,1.52,0,0,0,2,0A1.28,1.28,0,0,0,5.8,332.87Z"/></g></g></svg>