<?xml version="1.0" encoding="utf-8"?>
<!-- Generator: Adobe Illustrator 24.0.3, SVG Export Plug-In . SVG Version: 6.00 Build 0)  -->
<svg version="1.1" id="Capa_1" xmlns="http://www.w3.org/2000/svg" xmlns:xlink="http://www.w3.org/1999/xlink" x="0px" y="0px"
	 viewBox="0 0 512 512" style="enable-background:new 0 0 512 512;" xml:space="preserve">
<style type="text/css">
	.st0{fill:#E1D7FF;fill-opacity:0.5;}
	.st1{opacity:0.1;fill:#590BB2;enable-background:new    ;}
	.st2{fill:#C182F9;}
	.st3{fill:#FFFFFF;}
	.st4{fill:#AFF9F2;}
	.st5{fill:#FFD5B8;}
	.st6{fill:#8B3EAF;}
	.st7{fill:#CCA1FF;}
	.st8{fill:#00D3C5;}
	.st9{fill:#590BB2;}
	.st10{fill:#F7F3FF;}
	.st11{fill:#1BBB9A;}
	.st12{fill:#9526DD;}
	.st13{fill:#FFEADC;}
	.st14{fill:#9A58B4;}
	.st15{fill:#B557FF;}
</style>
<g>
	<path class="st0" d="M406.1,157.6c-29.1,0-52.7-23.6-52.7-52.7c0-54.1-43.8-97.9-97.9-97.9s-97.9,43.8-97.9,97.9
		c0,29.1-23.6,52.7-52.7,52.7C50.8,157.6,7,201.4,7,255.5s43.8,97.9,97.9,97.9c29.1,0,52.7,23.6,52.7,52.7
		c0,54.1,43.8,97.9,97.9,97.9s97.9-43.8,97.9-97.9c0-29.1,23.6-52.7,52.7-52.7c54.1,0,97.9-43.8,97.9-97.9S460.2,157.6,406.1,157.6
		L406.1,157.6z"/>
	<g>
		<g>
			<g>
				<path class="st1" d="M146,458.2V103.6c0-8.8,7.2-16,16-16h196.3c8.8,0,16,7.2,16,16v354.6c0,8.8-7.2,16-16,16H162
					C153.2,474.2,146,467.1,146,458.2L146,458.2z"/>
				<path class="st2" d="M146,429.4V74.8c0-8.8,7.2-16,16-16h196.3c8.8,0,16,7.2,16,16v354.6c0,8.8-7.2,16-16,16H162
					C153.2,445.4,146,438.2,146,429.4L146,429.4z"/>
				<g>
					<path class="st3" d="M146,90.8h228.3v322.6H146L146,90.8z"/>
				</g>
				<path class="st4" d="M242,274.6h-59.7c-2.8,0-5.1-2.3-5.1-5.1v-59.7c0-2.8,2.3-5.1,5.1-5.1H242c2.8,0,5.1,2.3,5.1,5.1v59.7
					C247.1,272.3,244.8,274.6,242,274.6z"/>
				<path class="st5" d="M374.3,413.4H231.5V262.2c0-1.6,0.4-3.2,1.1-4.7l65.7-127.5c1.9-3.7,7.2-3.7,9.1,0l65.7,127.5
					c0.7,1.4,1.1,3,1.1,4.7L374.3,413.4L374.3,413.4z"/>
				<g>
					<path class="st6" d="M231.5,413.4h47.6V283.6c0-13.1-10.7-23.8-23.8-23.8s-23.8,10.7-23.8,23.8L231.5,413.4L231.5,413.4z"/>
					<path class="st7" d="M279.1,413.4h47.6V283.6c0-13.1-10.7-23.8-23.8-23.8s-23.8,10.7-23.8,23.8L279.1,413.4L279.1,413.4z"/>
					<path class="st8" d="M326.7,413.4h47.6V283.6c0-13.1-10.7-23.8-23.8-23.8c-13.1,0-23.8,10.7-23.8,23.8L326.7,413.4L326.7,413.4
						z"/>
				</g>
				<g>
					<path class="st9" d="M358.3,450.3H233.5c-2.7,0-4.9-2.2-4.9-4.9c0-2.7,2.2-4.9,4.9-4.9h124.8c6.2,0,11.2-5,11.2-11.2V138.3
						c0-2.7,2.2-4.9,4.9-4.9c2.7,0,4.9,2.2,4.9,4.9v291.1C379.2,440.9,369.8,450.3,358.3,450.3z"/>
					<path class="st9" d="M203.8,450.3H162c-11.5,0-20.9-9.4-20.9-20.9V74.8c0-11.5,9.4-20.9,20.9-20.9h196.3
						c11.5,0,20.9,9.4,20.9,20.9v33.8c0,2.7-2.2,4.9-4.9,4.9c-2.7,0-4.9-2.2-4.9-4.9V74.8c0-6.2-5-11.2-11.2-11.2H162
						c-6.2,0-11.2,5-11.2,11.2v354.6c0,6.2,5,11.2,11.2,11.2h41.7c2.7,0,4.9,2.2,4.9,4.9C208.6,448.1,206.4,450.3,203.8,450.3
						L203.8,450.3z"/>
				</g>
			</g>
			<g>
				<path class="st10" d="M208.8,176.4l-14.2-9.7l-14.2,9.7c-3.5,2.4-8.3-0.1-8.3-4.4v-65.8h45.1V172
					C217.2,176.3,212.4,178.9,208.8,176.4z"/>
				<path class="st11" d="M208.8,161l-14.2-9.7l-14.2,9.7c-3.5,2.4-8.3-0.1-8.3-4.4V90.8h45.1v65.8
					C217.2,160.9,212.4,163.4,208.8,161"/>
			</g>
			<circle class="st12" cx="312.8" cy="76.9" r="4.7"/>
			<circle class="st12" cx="328.7" cy="76.9" r="4.7"/>
			<path class="st13" d="M338.9,191c-9.6,6.5-22.2,10.4-35.9,10.4c-13.8,0-26.4-3.9-36-10.4l31.4-61c1.9-3.7,7.2-3.7,9.1,0
				L338.9,191z"/>
			<path class="st8" d="M338.9,191c-9.6,6.5-22.2,10.4-35.9,10.4c-13.8,0-26.4-3.9-36-10.4l31.4-61c1.9-3.7,7.2-3.7,9.1,0L338.9,191
				z"/>
		</g>
		<path class="st14" d="M110.9,112.9h-3.3v-3.3c0-2.7-2.2-4.9-4.9-4.9s-4.9,2.2-4.9,4.9v3.3h-3.3c-2.7,0-4.9,2.2-4.9,4.9
			c0,2.7,2.2,4.9,4.9,4.9h3.3v3.3c0,2.7,2.2,4.9,4.9,4.9s4.9-2.2,4.9-4.9v-3.3h3.3c2.7,0,4.9-2.2,4.9-4.9
			C115.8,115.1,113.6,112.9,110.9,112.9z"/>
		<path class="st14" d="M418.3,228.7H415v-3.3c0-2.7-2.2-4.9-4.9-4.9c-2.7,0-4.9,2.2-4.9,4.9v3.3H402c-2.7,0-4.9,2.2-4.9,4.9
			s2.2,4.9,4.9,4.9h3.3v3.3c0,2.7,2.2,4.9,4.9,4.9c2.7,0,4.9-2.2,4.9-4.9v-3.3h3.3c2.7,0,4.9-2.2,4.9-4.9S420.9,228.7,418.3,228.7z"
			/>
		<path class="st2" d="M119.1,377.3h-3.3v-3.3c0-2.7-2.2-4.9-4.9-4.9s-4.9,2.2-4.9,4.9v3.3h-3.3c-2.7,0-4.9,2.2-4.9,4.9
			s2.2,4.9,4.9,4.9h3.3v3.3c0,2.7,2.2,4.9,4.9,4.9s4.9-2.2,4.9-4.9v-3.3h3.3c2.7,0,4.9-2.2,4.9-4.9S121.7,377.3,119.1,377.3z"/>
		<path class="st15" d="M286.9,386.3h-101c-2.7,0-4.9-2.2-4.9-4.9v-21.2c0-2.7,2.2-4.9,4.9-4.9h101c2.7,0,4.9,2.2,4.9,4.9v21.2
			C291.7,384.1,289.6,386.3,286.9,386.3z"/>
		<g>
			<g>
				<g>
					<path class="st2" d="M234,315.2h-48.1c-2.7,0-4.9-2.2-4.9-4.9c0-2.7,2.2-4.9,4.9-4.9H234c2.7,0,4.9,2.2,4.9,4.9
						C238.9,313.1,236.7,315.2,234,315.2z"/>
				</g>
				<g>
					<path class="st2" d="M260.2,332.2h-74.3c-2.7,0-4.9-2.2-4.9-4.9s2.2-4.9,4.9-4.9h74.3c2.7,0,4.9,2.2,4.9,4.9
						S262.9,332.2,260.2,332.2z"/>
				</g>
			</g>
			<g>
				<circle class="st2" cx="187.4" cy="292.9" r="4.9"/>
				<circle class="st2" cx="203.2" cy="292.9" r="4.9"/>
			</g>
		</g>
	</g>
	<path class="st11" d="M410.1,196c-2.8,0-5.4-1.1-7.3-3c-4-4-4-10.6,0-14.6s10.6-4,14.6,0s4,10.6,0,14.6
		C415.5,194.9,412.8,196,410.1,196z M410.1,182.4c-0.8,0-1.7,0.3-2.3,0.9c-1.3,1.3-1.3,3.3,0,4.6c0.6,0.6,1.4,0.9,2.3,0.9
		s1.7-0.4,2.3-0.9c1.3-1.3,1.3-3.3,0-4.6C411.8,182.7,410.9,182.4,410.1,182.4z"/>
	<path class="st11" d="M88,198.5c-2.8,0-5.4-1.1-7.3-3c-4-4-4-10.6,0-14.6c4-4,10.6-4,14.6,0c4,4,4,10.6,0,14.6
		C93.3,197.5,90.7,198.5,88,198.5z M88,185c-0.8,0-1.7,0.3-2.3,0.9c-1.3,1.3-1.3,3.3,0,4.6c0.6,0.6,1.4,0.9,2.3,0.9
		c0.9,0,1.7-0.4,2.3-0.9c1.3-1.3,1.3-3.3,0-4.6C89.7,185.2,88.8,185,88,185z"/>
</g>
</svg>
