<svg xmlns="http://www.w3.org/2000/svg" viewBox="0 0 90.56 45.62"><defs><style>.cls-1{fill:#f7f7f7;}</style></defs><title>firmaIzquierda</title><g id="Capa_2" data-name="Capa 2"><g id="Layer_1" data-name="Layer 1"><path class="cls-1" d="M87.48,38.45C78.2,29.29,64.37,21.87,46,21.87S13.86,29.29,4.59,38.45C-.23,43.19.52,47.26,7.64,45a121.8,121.8,0,0,1,76.79,0c7.14,2.32,7.89-1.76,3-6.5"/><polygon class="cls-1" points="2.95 2.57 0 2.57 0 0.21 9.09 0.21 9.09 2.57 6.14 2.57 6.14 12.18 2.95 12.18 2.95 2.57"/><polygon class="cls-1" points="12.52 0.21 20.96 0.21 20.96 2.47 15.71 2.47 15.71 4.94 20.67 4.94 20.67 7.21 15.71 7.21 15.71 9.92 21.15 9.92 21.15 12.18 12.52 12.18 12.52 0.21"/><polygon class="cls-1" points="25.66 0.21 28.85 0.21 28.85 9.81 33.27 9.81 33.27 12.18 25.66 12.18 25.66 0.21"/><polygon class="cls-1" points="36.1 0.21 44.54 0.21 44.54 2.48 39.29 2.48 39.29 4.94 44.25 4.94 44.25 7.21 39.29 7.21 39.29 9.92 44.73 9.92 44.73 12.18 36.1 12.18 36.1 0.21"/><path class="cls-1" d="M57.56,11.9a11.19,11.19,0,0,1-3.34.49c-2.95,0-6.66-1.61-6.66-6.15C47.56,2.08,50.49,0,54.21,0a11.05,11.05,0,0,1,3.34.62l-.26,2.59a5.23,5.23,0,0,0-2.91-.84c-2.15,0-3.52,1.65-3.52,3.87A3.61,3.61,0,0,0,54.64,10a7.35,7.35,0,0,0,2.77-.62Z"/><path class="cls-1" d="M65.78,0c4,0,6,2.35,6,6.19s-2.1,6.2-6,6.2-6-2.39-6-6.2S61.84,0,65.78,0m0,10c1.94,0,2.71-1.85,2.71-3.83s-.77-3.82-2.71-3.82-2.71,1.75-2.71,3.82S63.84,10,65.78,10"/><polygon class="cls-1" points="75.33 0.21 80.11 0.21 82.56 8.29 82.59 8.29 85.08 0.21 89.88 0.21 89.88 12.18 86.8 12.18 86.85 2.69 86.81 2.69 83.76 12.18 81.12 12.18 78.29 2.69 78.26 2.69 78.32 12.18 75.33 12.18 75.33 0.21"/></g></g></svg>