<svg xmlns="http://www.w3.org/2000/svg" viewBox="0 0 453.79 31.94"><defs><style>.cls-1{fill:#f7f7f7;}</style></defs><title>firmaDerecha</title><g id="Capa_2" data-name="Capa 2"><g id="Layer_1" data-name="Layer 1"><rect class="cls-1" x="220.79" width="0.79" height="29.21"/><rect class="cls-1" x="340.99" width="0.79" height="29.21"/><rect class="cls-1" x="100.22" width="0.79" height="29.21"/><path class="cls-1" d="M77.66,3.82a1.62,1.62,0,0,0-1.3-.55,3.22,3.22,0,0,0-2.13,1.31,8.61,8.61,0,0,0-1.42,2.27c-.16.43-.42,1.05-.69,1.93l-.93,2.08a10.38,10.38,0,0,0-.62,2.28L70,15.4v.34l0,.28-.69,1.38-.62.82-1.53,1.49-.77.46a1.12,1.12,0,0,0-.58.27,1.18,1.18,0,0,1-.5.27c-.43,0-.77-.54-.88-1.69l-.12-.46L63.77,18a1.32,1.32,0,0,0-2.35.13l-1.31,2.18A1.29,1.29,0,0,1,59,20.8a15.72,15.72,0,0,1,1.39-3.32,5,5,0,0,1,.95-1.08l1.24,0,.58.81a.75.75,0,0,0,.81.35.89.89,0,0,0,.54-.35,1.19,1.19,0,0,0,.19-.61A2.56,2.56,0,0,0,64,15.21a3.08,3.08,0,0,0-1.66-.92,4.3,4.3,0,0,0-2,.19,2.16,2.16,0,0,0-.92.46c-.16.07-.23.19-.36.3l-.3.39a1.46,1.46,0,0,0-.7.7l-1.61,4a1.26,1.26,0,0,0,.07,1l.31.85a2.94,2.94,0,0,0,.32.61,2,2,0,0,0,1.11.66,3.39,3.39,0,0,0,2.82-1l1.61-1.27c.07,0,.19.07.31.34l.11.39.35.35,1.08.84a1.48,1.48,0,0,0,.88.27,3.43,3.43,0,0,0,1.7-.38l.64-.39.59-.5a1.32,1.32,0,0,1,.69-.27.16.16,0,0,1,.16.08l0,.19L69.54,25,70,27.1a2.92,2.92,0,0,0,1.08,1.39,2.53,2.53,0,0,0,1.62.57c.37-.33.37-.88,0-1.65a3.62,3.62,0,0,1-.55-1.65L72,21a5.27,5.27,0,0,1,.21-2.19,6.58,6.58,0,0,1,1-1.74l1.19-1.72,1-2L78.05,7a4.14,4.14,0,0,0,.19-1.89A2.34,2.34,0,0,0,77.66,3.82Zm-3.5,5a8,8,0,0,1,.3-1,6.88,6.88,0,0,1,1.4-1.69H76v.35l-.19.57-1.58,4-.85,1.66a1.23,1.23,0,0,1-.34.61l-.12,0,0-.08,0-.23.51-2.31a8.62,8.62,0,0,1,.34-.92Z"/><path class="cls-1" d="M56.37,22.87l-.62-.73a5.66,5.66,0,0,1-.72-2l-.27-2.31-.58-1.92A2.16,2.16,0,0,0,53.06,15l-1.38,0-.74.46a5,5,0,0,0-.73.58,3.5,3.5,0,0,0-.46.84l-.42.89a.65.65,0,0,1-.31-.62l0-.34,0-.39-.69-1.85a5.93,5.93,0,0,0-1.12-1.42,4.12,4.12,0,0,0-1.66-.8,2.37,2.37,0,0,0-1.07,0l-.93.07a2.26,2.26,0,0,0-1.15.69l-.81,1.2a4.42,4.42,0,0,1-.85,1.15,2.86,2.86,0,0,0-.58.73L39.28,18l-.47.81a4.07,4.07,0,0,0-.26,1.77,2.91,2.91,0,0,0,1.8,2.85,3.7,3.7,0,0,0,2,.31,2.82,2.82,0,0,0,.81-.39l.65-.34a1.66,1.66,0,0,0,.7-1,6.48,6.48,0,0,0,0-2.85,13.3,13.3,0,0,1-.34-1.73,2.3,2.3,0,0,1,.46-1.66l.24-.3a.39.39,0,0,0,0-.39l-.17-.3c0-.15,0-.2.2-.2a1,1,0,0,1,1,.5,3,3,0,0,1,.46,1.35l.38,4.81a2.47,2.47,0,0,0,.24,1,1.87,1.87,0,0,0,1.15,1,1.89,1.89,0,0,0,1.46-.11,1.92,1.92,0,0,0,1-1.15l.39-1.58a3.42,3.42,0,0,1,.5-1.5l.27-.35.12,0,.15.18a1.51,1.51,0,0,1,.43.62,12.06,12.06,0,0,1,.5,1.61,5.76,5.76,0,0,0,.64,1.59A3.4,3.4,0,0,0,55.1,23.6a2.91,2.91,0,0,0,1.78.16v-.08ZM42,17.28c.41,0,.57.47.53,1.39A13.47,13.47,0,0,1,42.06,21a2,2,0,0,1-.4.61c-.22.19-.38.24-.56.15s-.28-.19-.28-.49a2.82,2.82,0,0,1,.12-1.09l.3-1.07A7.13,7.13,0,0,1,42,17.28Z"/><path class="cls-1" d="M12.18,4.12a16.29,16.29,0,0,0-1.74-1.27,9.9,9.9,0,0,0-2-.89C8,1.77,7.59,1.7,7.36,1.62L6.29,1.46a3.52,3.52,0,0,0-1.12-.2H4.06l-2.59.4A1.55,1.55,0,0,0,.55,2a3.4,3.4,0,0,0-.42.78A1.57,1.57,0,0,0,0,3.58a.91.91,0,0,0,.49.62,2.56,2.56,0,0,0,1.23.23L5.31,4l3.32.42a3.83,3.83,0,0,1,.93.27A4.22,4.22,0,0,1,11,5.93a2.47,2.47,0,0,1,.69,1.73,2.54,2.54,0,0,1-.93,1.58L9.41,10.32a3.42,3.42,0,0,1-1.58.62l.27-.65.15-.67.07-1.5.28-.65.07-.66a1.87,1.87,0,0,0-.23-1,1.65,1.65,0,0,0-1-1l-.74,0a1.31,1.31,0,0,0-.64.42,2.44,2.44,0,0,0-.55,1.43l-.69,4.23a1.56,1.56,0,0,1-.65,1c-.27.16-.58,0-.92-.61l-.39-.58a1.24,1.24,0,0,0-.58-.34.87.87,0,0,0-1,.37,1.37,1.37,0,0,0,0,1.32,2.37,2.37,0,0,0,.89,1.07,8.26,8.26,0,0,0,.84.39l.85.42c.35.19.46.58.39,1.12a7.53,7.53,0,0,1-.31,1.46L2.63,24.91l-.27.78a.67.67,0,0,0,.11.75,1.58,1.58,0,0,0,1.31.62,1.27,1.27,0,0,0,1.31-.62,2.9,2.9,0,0,0,.42-1.34L5.7,23a19.19,19.19,0,0,1,.36-2.43l.54-2.34a16.64,16.64,0,0,0,.19-2,4.91,4.91,0,0,1,.26-1.51,1.89,1.89,0,0,1,1.2-1l2.07-.66a10.39,10.39,0,0,0,1.81-1.11,8.91,8.91,0,0,0,1.54-1.39,3.64,3.64,0,0,0,.58-3.47A6.21,6.21,0,0,0,12.18,4.12Z"/><path class="cls-1" d="M38,13.67a1,1,0,0,0-.18-.73,1.57,1.57,0,0,0-.58-.54,2.33,2.33,0,0,0-.85-.19,3.34,3.34,0,0,0-.89.27l-.58.19a2.11,2.11,0,0,1-.33.19l-.24.28-.31.11-.57,1-.2.19a.26.26,0,0,0-.07.19l-.16.42a2.49,2.49,0,0,0-.43.77,4.1,4.1,0,0,0,0,.86,4.71,4.71,0,0,0,.66,1.84l1.08,1.65A2.5,2.5,0,0,1,35,21.91c0,.35-.38.65-1,.88l-1.39.08-.85-.27a.86.86,0,0,0-.81.19,2.65,2.65,0,0,0,0,.69l.78,1.31c.18.27.57.43,1.23.51A6.89,6.89,0,0,0,35.81,25a3,3,0,0,0,1.27-.81,2.3,2.3,0,0,0,.7-1.35,3.44,3.44,0,0,0-.93-2.7l-.8-1.23a2.63,2.63,0,0,1-.54-1.35,2.08,2.08,0,0,1,.42-1.68,4.47,4.47,0,0,1,1.23-1.09C37.74,14.44,38,14.05,38,13.67Z"/><path class="cls-1" d="M32.46,15a.64.64,0,0,0,0-.61,1,1,0,0,0-.3-.66,4.07,4.07,0,0,0-2.12-.3,2.54,2.54,0,0,0-1.47.77L27.31,15.4l-1,1.31A3.15,3.15,0,0,1,25,17.83l-.26-.69a2.35,2.35,0,0,1-.12-.74,1.54,1.54,0,0,0-.58-1.11,1.78,1.78,0,0,0-1.15-.5,1.63,1.63,0,0,0-1.16.19l-.54.5-.42.57-1,1c-.38.39-1,1.16-2,2.35l-1.35,1.74c-.53.62-1,.84-1.38.73a1.17,1.17,0,0,1-.85-1.05,1.34,1.34,0,0,1,.38-1.27l3-1.48L19,17.17l.66-.61a2.65,2.65,0,0,0-.42-1.81A4.12,4.12,0,0,0,18,13.36a3.94,3.94,0,0,0-1.77-.65,3.17,3.17,0,0,0-1.89.46,5.69,5.69,0,0,0-2.39,3.16l-.18.57-.13.19-.19.08h-.85l-.45.11a.38.38,0,0,0-.19.36,1.48,1.48,0,0,0,.15.81l.61.68.51.46a1.87,1.87,0,0,1,.3.89l.39.85a4.9,4.9,0,0,0,2,2.5,3.44,3.44,0,0,0,2.81.3,4.65,4.65,0,0,0,2-1.38l1.74-2.08a6.68,6.68,0,0,1,2-1.76l.26,1.53.08,1.12-.08,1a2.53,2.53,0,0,0,.2,1,1.72,1.72,0,0,0,1.15.92,1.36,1.36,0,0,0,1.35-.68l.77-1.78,1.15-1.54,1-2a6.72,6.72,0,0,1,1.23-1.81,5.25,5.25,0,0,1,1.35-1l1.23-.5Zm-15,0a.92.92,0,0,1,0,.62c0,.31-.27.58-.69.84L15,17.59a2.55,2.55,0,0,1-.81.27l-.19,0s-.09,0-.09-.17l.09-.3a1,1,0,0,1,.26-.49L15,15.78A3.42,3.42,0,0,1,16,14.67a.83.83,0,0,1,1.19-.12A1.4,1.4,0,0,1,17.41,15.05Z"/><path class="cls-1" d="M256.55,16.88c.2,3.22,1.94,4.73,5,4.73a4.94,4.94,0,0,0,5.19-4.13s.07-.52.1-.9c0-.14,0-.29,0-.42a5.43,5.43,0,0,0-1.31-3.64A4.3,4.3,0,0,0,262.21,11a3.66,3.66,0,0,0-3.12,1.43l0,0V6.58a.17.17,0,0,0-.16-.17H256.7a.16.16,0,0,0-.16.17v10.3Zm5.08-3.39a2.65,2.65,0,0,1,2.67,2.84,2.57,2.57,0,0,1-2.67,2.84c-1.74,0-2.62-1.14-2.62-2.84a2.61,2.61,0,0,1,2.62-2.84"/><path class="cls-1" d="M268,20.9a.16.16,0,0,0,.16.16h2.22a.16.16,0,0,0,.16-.16V6.59a.16.16,0,0,0-.16-.15h-2.22a.16.16,0,0,0-.16.15Z"/><path class="cls-1" d="M274.43,17.07s-.05,0-.05,0l-.11,0,.14-.08Z"/><path class="cls-1" d="M291.3,11.28H289a.24.24,0,0,0-.21.14l-2.3,6.41c0,.09-.08.09-.12,0l-2.28-6.41a.26.26,0,0,0-.21-.14H281.5a.17.17,0,0,0-.17.15s0,.06,0,.08l3.68,9.4a.27.27,0,0,0,.22.15h2.34a.26.26,0,0,0,.22-.15l3.58-9.49a.1.1,0,0,0-.11-.14"/><path class="cls-1" d="M277,11a5.46,5.46,0,0,0-3.77,1.41,4.89,4.89,0,0,0-1.39,3.71,4.89,4.89,0,0,0,1.39,3.73A5.5,5.5,0,0,0,277,21.3h0a4.79,4.79,0,0,0,3.89-1.86h0a.18.18,0,0,0,0-.24h0L279.33,18h0a.17.17,0,0,0-.23,0,2.78,2.78,0,0,1-2.34,1.21,2.29,2.29,0,0,1-2.37-2.17h6.89a.16.16,0,0,0,.15-.16v-.36h0v-.2a5.71,5.71,0,0,0-1.26-3.92A4,4,0,0,0,277,11m1.85,4.1h-4.44s0,0,0,0A2.27,2.27,0,0,1,276.65,13a2,2,0,0,1,2.23,2.14,0,0,0,0,1,0,0m15.93-3.86h-2.22a.16.16,0,0,0-.16.15V20.9a.16.16,0,0,0,.16.16h2.22a.16.16,0,0,0,.16-.16V11.43a.16.16,0,0,0-.16-.15m19.35-1.82h1.71a.52.52,0,0,0,.27-.1l2.73-2.81c.06,0,.05-.1,0-.1H316l-.1.14-1.88,2.73c0,.07,0,.13.08.13M251,11a5.4,5.4,0,0,0-3.93,1.5.17.17,0,0,0,0,.2l1.16,1.16a.15.15,0,0,0,.2,0,3.27,3.27,0,0,1,2.31-.93c1.27,0,2.15.6,2.15,1.75v.21h-.54a12.1,12.1,0,0,0-4,.5,2.82,2.82,0,0,0-2,2.91c0,2,1.62,3,3.42,3h0a3.53,3.53,0,0,0,3.1-1.52v.48c.05.37.22.8.8.8h1.34a.16.16,0,0,0,.16-.16v-.4h0V15.44a5.43,5.43,0,0,0-.53-2.71c-.52-.94-1.58-1.7-3.66-1.69m1.76,6.17c0,1.33-.75,2.16-2.38,2.16a1.72,1.72,0,0,1-1-.29,1.05,1.05,0,0,1-.51-.91c0-.66.37-1,1.11-1.21a9,9,0,0,1,2.27-.22h.47Zm54.4-10.76a1.47,1.47,0,0,0-1.51,1.43,1.53,1.53,0,0,0,3.06,0,1.47,1.47,0,0,0-1.55-1.43m22.33,5.77A3.35,3.35,0,0,0,326.73,11a3.08,3.08,0,0,0-2.92,1.63s0,0,0,0V11.43a.16.16,0,0,0-.16-.15h-2.1a.14.14,0,0,0-.15.14V20.9a.16.16,0,0,0,.16.16h2.21a.16.16,0,0,0,.16-.15V15.73a2.13,2.13,0,0,1,2.16-2.41,1.44,1.44,0,0,1,1.45,1,5,5,0,0,1,.26,1.8V20.9a.16.16,0,0,0,.16.16h2.21a.17.17,0,0,0,.16-.15v-6a4.33,4.33,0,0,0-.79-2.68M314.87,11a5,5,0,0,0-3.6,1.41,4.86,4.86,0,0,0-1.4,3.71,4.86,4.86,0,0,0,1.4,3.73,5.3,5.3,0,0,0,7.2,0,4.85,4.85,0,0,0,1.38-3.73,4.84,4.84,0,0,0-1.38-3.71,5,5,0,0,0-3.6-1.41m0,8c-1.75,0-2.46-1.36-2.46-2.85s.71-2.84,2.46-2.84,2.45,1.36,2.45,2.84S316.6,19,314.87,19M293.65,6.45a1.47,1.47,0,0,0-1.51,1.43,1.54,1.54,0,0,0,3.07,0,1.48,1.48,0,0,0-1.56-1.43m14.66,4.83h-2.22a.16.16,0,0,0-.16.15V20.9a.16.16,0,0,0,.16.16h2.22a.16.16,0,0,0,.16-.16V11.43a.16.16,0,0,0-.16-.15m-6.49,4c-.65-.17-1.3-.28-1.79-.45s-.77-.38-.77-.77a.83.83,0,0,1,.43-.74,1.82,1.82,0,0,1,.92-.23,2.13,2.13,0,0,1,1.8.9.17.17,0,0,0,.22,0h0l1.45-1.3h0a.15.15,0,0,0,0-.23h0A4.3,4.3,0,0,0,300.67,11a4.68,4.68,0,0,0-2.71.77,2.8,2.8,0,0,0-1.23,2.41c0,1.87,1.34,2.43,2.65,2.74a13.82,13.82,0,0,1,1.78.46c.48.19.78.44.78.9a.91.91,0,0,1-.51.79,2.11,2.11,0,0,1-1,.26,2.82,2.82,0,0,1-2.18-1.09h0a.16.16,0,0,0-.22,0l-1.35,1.25-.11.11a.15.15,0,0,0,0,.23l.24.25a5,5,0,0,0,3.49,1.18h0a5.62,5.62,0,0,0,2.85-.69,2.74,2.74,0,0,0,1.37-2.47c0-1.92-1.34-2.53-2.65-2.86"/><path class="cls-1" d="M240.92,8.74h0a3.64,3.64,0,0,1,3,1.72c.1.13.15.18.31.07l1.55-1.15a.26.26,0,0,0,.1-.29h0a5.7,5.7,0,0,0-3.64-2.63A6.1,6.1,0,0,0,241,6.32a6.31,6.31,0,0,0-4.82,2.08,8,8,0,0,0-1.8,5.54,7.76,7.76,0,0,0,1.8,5.43,6.34,6.34,0,0,0,4.82,2,5.32,5.32,0,0,0,4.66-2.29h0c.11-.14.11-.23,0-.3L244,17.48a.22.22,0,0,0-.25,0A3.17,3.17,0,0,1,241,19c-2.64,0-4.1-2.22-4.1-5.24,0-2.63,1.34-5,4-5"/><path class="cls-1" d="M356.07,7.16,352.7,22.39a.08.08,0,0,0,.08.1h3a.15.15,0,0,0,.12-.1l1.4-6.09a.11.11,0,0,1,.12-.09h5a.13.13,0,0,0,.11-.1l.72-2.43c0-.06,0-.11-.08-.11h-5.3a.08.08,0,0,1-.08-.1l.86-3.58a.14.14,0,0,1,.13-.1H364a.15.15,0,0,0,.13-.08l1.1-2.45a.07.07,0,0,0-.07-.1Z"/><path class="cls-1" d="M379.07,13.07a3.86,3.86,0,0,0-3-1.29,4.62,4.62,0,0,0-3.46,1.44l1.34-5.89h0V7.26a.18.18,0,0,0-.09-.2.44.44,0,0,0-.15,0H371.5c-.18,0-.27,0-.33.2l-2.24,10.2h0a4.5,4.5,0,0,0-.08.62,4.87,4.87,0,0,0,.64,3c.62,1,1.81,1.75,3.89,1.75h0a6.17,6.17,0,0,0,5.94-4v0a6,6,0,0,0,.26-.71,3.5,3.5,0,0,0,.12-.46h0c0-.11.06-.22.08-.32a8.72,8.72,0,0,0,.14-1A4.51,4.51,0,0,0,379.07,13.07Zm-2,4.17a3.47,3.47,0,0,1-3.29,3,2,2,0,0,1-2.14-2.43,3.23,3.23,0,0,1,.08-.53,3.64,3.64,0,0,1,3.47-3,1.84,1.84,0,0,1,1.6.68,2.45,2.45,0,0,1,.37,1.64A3.52,3.52,0,0,1,377.07,17.24Z"/><path class="cls-1" d="M367.86,7a2,2,0,0,0-2,1.62.75.75,0,0,0,0,.24,1.38,1.38,0,0,0,.3,1,1.32,1.32,0,0,0,1,.42h0a2,2,0,0,0,2-1.62,1.41,1.41,0,0,0,.05-.27,1.28,1.28,0,0,0-.32-1A1.4,1.4,0,0,0,367.86,7Z"/><path class="cls-1" d="M368.09,12h-2.53a.25.25,0,0,0-.17.18l-2.18,10.17a.08.08,0,0,0,.08.1h2.56a.13.13,0,0,0,.12-.1l2.2-10.25A.08.08,0,0,0,368.09,12Z"/><path class="cls-1" d="M390.53,12.93a3.73,3.73,0,0,0-2.94-1.15A6.81,6.81,0,0,0,381,17.24a8,8,0,0,0-.13.91,4.22,4.22,0,0,0,1.08,3.34,4.54,4.54,0,0,0,3.37,1.25h0a6.54,6.54,0,0,0,4.7-2h0c.11-.12.05-.18,0-.23l-1.4-1.28a.25.25,0,0,0-.27,0,3.92,3.92,0,0,1-2.82,1.29,2,2,0,0,1-2.16-2.16.14.14,0,0,1,.07-.07h7.36v0c.27,0,.29,0,.32-.22h0l.12-.55a8.89,8.89,0,0,0,.19-1.27A4.39,4.39,0,0,0,390.53,12.93ZM388.74,16h0a.16.16,0,0,1-.12.16h-4.78s0-.14,0-.14h0a3.16,3.16,0,0,1,3-2.1,2.06,2.06,0,0,1,1.53.51,1.7,1.7,0,0,1,.42,1.4A1,1,0,0,1,388.74,16Z"/><path class="cls-1" d="M399.51,11.84h-2.8A4.2,4.2,0,0,0,394,13.06a8.72,8.72,0,0,0-1.64,4.09h0v0l-1.12,5.17c0,.08,0,.12.12.14h2.4a.3.3,0,0,0,.25-.17L395.14,17a6.5,6.5,0,0,1,.57-1.73,1.84,1.84,0,0,1,1.72-.85h1c.09,0,.09-.06.11-.14l1-2.37"/><path class="cls-1" d="M430.09,31.94a15,15,0,0,1-5.25-.73h0a16.46,16.46,0,0,0,3.1.23,33.87,33.87,0,0,0,12-2.35c6.62-2.53,10.93-6.23,11.57-9.29a2.09,2.09,0,0,0-.41-1.86c-1.38-1.7-5.44-1.83-6.65-1.83H444l0-.52a19.24,19.24,0,0,1,2.06-.09c2.41,0,5.59.34,7,2a3.1,3.1,0,0,1,.76,2.48c-.4,3.47-6.26,8-13.36,10.23a34.49,34.49,0,0,1-10.32,1.76Z"/><path class="cls-1" d="M430.69,11.84h-2.8a4.14,4.14,0,0,0-2.7,1.22c-1,1-1.32,2.69-1.64,4.09h0v0l-1.12,5.17c0,.08,0,.12.11.14h2.41a.28.28,0,0,0,.24-.17L426.34,17a6.46,6.46,0,0,1,.56-1.73,1.83,1.83,0,0,1,1.71-.85h1c.1,0,.1-.06.12-.14l1-2.37"/><path class="cls-1" d="M417.73,11.77a7.16,7.16,0,0,0-7,5.51,6.9,6.9,0,0,0-.13.86c-.23,2.83,1.73,4.68,4.62,4.68h0a7.16,7.16,0,0,0,6.94-5.53,5.19,5.19,0,0,0,.14-.85C422.58,13.62,420.62,11.77,417.73,11.77Zm1.76,5.51a3.88,3.88,0,0,1-3.69,3.07,2.23,2.23,0,0,1-2.37-2.58c0-.16.05-.32.07-.48a3.91,3.91,0,0,1,3.69-3.06,2.23,2.23,0,0,1,2.38,2.58A2.72,2.72,0,0,1,419.49,17.28Z"/><path class="cls-1" d="M436.66,11.77a6.66,6.66,0,0,0-.78.05,6.42,6.42,0,0,0-6.06,5.33l-2.21,10.12c0,.17.05.22.2.23H430c.19,0,.22-.05.24-.18h0l1.24-5.57a3.19,3.19,0,0,0,2.52,1.07h.17a6.84,6.84,0,0,0,6.66-5.47,5.43,5.43,0,0,0,.13-.86A4.07,4.07,0,0,0,436.66,11.77Zm1.61,5.1c0,.15,0,.3-.07.46a3.61,3.61,0,0,1-3.45,3,2.17,2.17,0,0,1-2.32-2.53,3.81,3.81,0,0,1,.07-.47,3.9,3.9,0,0,1,3.62-3.12C437.79,14.23,438.38,15.46,438.27,16.87Z"/><path class="cls-1" d="M413.41,9.1A4.7,4.7,0,0,0,409,6.74c-4.43,0-8,3.26-9,8.09a7.19,7.19,0,0,0,.9,5.74,5.87,5.87,0,0,0,4.92,2.24,7.28,7.28,0,0,0,4.66-1.68.24.24,0,0,0,0-.22L409.46,19c0-.07-.11-.1-.24,0a4.28,4.28,0,0,1-2.86,1.26,3.19,3.19,0,0,1-2.8-1.43,5.27,5.27,0,0,1-.62-4.17,6.25,6.25,0,0,1,5.81-5.34,2.58,2.58,0,0,1,2.32,1.41h0c.1.11.12.07.24,0h0l2.06-1.42A.14.14,0,0,0,413.41,9.1Z"/><path class="cls-1" d="M124.92,6.89,121.51,22.3a.07.07,0,0,0,.07.1h3a.13.13,0,0,0,.12-.1l1.42-6.17a.13.13,0,0,1,.12-.09h5.08a.13.13,0,0,0,.12-.1l.74-2.47a.08.08,0,0,0-.09-.09h-5.37a.07.07,0,0,1-.07-.1l.87-3.63a.11.11,0,0,1,.11-.1H133a.13.13,0,0,0,.11-.1L134.18,7a.07.07,0,0,0-.07-.1Z"/><path class="cls-1" d="M192.19,6.78h-2.6c-.06,0-.09,0-.1,0a.51.51,0,0,1,0,.14L186.16,22.3a.09.09,0,0,0,.09.1h2.59s.1,0,.13-.1l3.29-15.42C192.27,6.82,192.24,6.78,192.19,6.78Z"/><path class="cls-1" d="M148.2,12.86a3.86,3.86,0,0,0-3.08-1.3,4.67,4.67,0,0,0-3.5,1.46L143,7.07V7a.08.08,0,0,0,0,0,.21.21,0,0,0-.09-.2.38.38,0,0,0-.17,0h-2.2a.29.29,0,0,0-.33.21l-2.26,10.32h0a4.86,4.86,0,0,0-.07.62,5,5,0,0,0,.65,3.05c.63,1,1.82,1.77,3.93,1.77h0a6.27,6.27,0,0,0,6-4.06v0a6,6,0,0,0,.25-.72,3.25,3.25,0,0,0,.13-.46h0c0-.11.05-.22.08-.33a8.64,8.64,0,0,0,.13-1A4.49,4.49,0,0,0,148.2,12.86Zm-2,4.24a3.49,3.49,0,0,1-3.32,3,2.05,2.05,0,0,1-2.18-2.46c0-.17.05-.35.08-.54a3.7,3.7,0,0,1,3.53-3,1.84,1.84,0,0,1,1.61.69,2.48,2.48,0,0,1,.38,1.65C146.25,16.65,146.21,16.87,146.17,17.1Z"/><path class="cls-1" d="M136.85,6.74a2.07,2.07,0,0,0-2,1.64,1.09,1.09,0,0,0,0,.25,1.25,1.25,0,0,0,1.33,1.42h0a2.08,2.08,0,0,0,2-1.65,1,1,0,0,0,0-.25,1.26,1.26,0,0,0-.32-1A1.43,1.43,0,0,0,136.85,6.74Z"/><path class="cls-1" d="M137.08,11.82h-2.56a.25.25,0,0,0-.16.18l-2.21,10.3a.08.08,0,0,0,.08.1h2.59a.17.17,0,0,0,.13-.1l2.21-10.38C137.18,11.86,137.14,11.82,137.08,11.82Z"/><path class="cls-1" d="M159.8,12.73a3.81,3.81,0,0,0-3-1.17,6.9,6.9,0,0,0-6.71,5.54A7.66,7.66,0,0,0,150,18a4.23,4.23,0,0,0,1.09,3.38,4.65,4.65,0,0,0,3.42,1.26h0a6.65,6.65,0,0,0,4.76-2.06h0c.12-.12.06-.18,0-.24l-1.43-1.28a.24.24,0,0,0-.27,0,3.93,3.93,0,0,1-2.85,1.31,2,2,0,0,1-2.18-2.18.11.11,0,0,1,.07-.08H160c.29,0,.3-.05.34-.24h0l.11-.56a8.81,8.81,0,0,0,.19-1.28A4.39,4.39,0,0,0,159.8,12.73ZM158,15.81h0a.17.17,0,0,1-.13.17H153c-.05-.05,0-.16,0-.16h0a3.2,3.2,0,0,1,3-2.12,2.05,2.05,0,0,1,1.55.52,1.67,1.67,0,0,1,.43,1.41A1.1,1.1,0,0,1,158,15.81Z"/><path class="cls-1" d="M176,11.63h-3.29s0,0,0,0l.65-2.81c0-.15,0-.17-.15-.17H170.7c-.19,0-.23.05-.25.14v0s0,0,0,0h0l-.62,2.8h0l-.51,2.49h0l-1,4.75a8.58,8.58,0,0,0-.18,1.22,2.21,2.21,0,0,0,.52,1.92,3.32,3.32,0,0,0,2.35.64,6.14,6.14,0,0,0,2.13-.33h0c.1,0,.1-.08.1-.13h0l.48-2.28h0c0-.06,0,0,0,0h0l-.12.07a3.07,3.07,0,0,1-1.43.32,1.1,1.1,0,0,1-.88-.29,1,1,0,0,1-.19-.79,2.46,2.46,0,0,1,.08-.5l1-4.42a.07.07,0,0,1,.07,0h2.7c.06,0,.08-.05.11-.09h0L176,11.72C176.07,11.63,176.05,11.63,176,11.63Z"/><path class="cls-1" d="M168.38,11.63H166a4.18,4.18,0,0,0-2.73,1.22A8.93,8.93,0,0,0,161.64,17h0v0l-1.13,5.24c0,.07,0,.12.14.14h2.41a.29.29,0,0,0,.25-.17l1.17-5.38a6.27,6.27,0,0,1,.58-1.76,1.84,1.84,0,0,1,1.72-.87h1c.09,0,.1-.05.12-.13l.5-2.4"/><path class="cls-1" d="M184.93,12.73a3.74,3.74,0,0,0-3-1.17,6.91,6.91,0,0,0-6.73,5.54,6,6,0,0,0-.13.91,4.23,4.23,0,0,0,1.09,3.38,4.64,4.64,0,0,0,3.41,1.26h0a6.6,6.6,0,0,0,4.76-2.06h0c.11-.12,0-.18,0-.24l-1.42-1.28a.25.25,0,0,0-.28,0,3.93,3.93,0,0,1-2.85,1.31,2,2,0,0,1-2.18-2.18.13.13,0,0,1,.07-.08h7.44c.29,0,.3-.05.34-.24h0l.13-.56a10.25,10.25,0,0,0,.17-1.28A4.34,4.34,0,0,0,184.93,12.73Zm-1.81,3.08h0A.17.17,0,0,1,183,16h-4.83c-.06-.05,0-.16,0-.16h0a3.23,3.23,0,0,1,3-2.12,2.05,2.05,0,0,1,1.55.52,1.73,1.73,0,0,1,.43,1.41C183.13,15.69,183.13,15.75,183.12,15.81Z"/><path class="cls-1" d="M184.09,25.77a15.33,15.33,0,0,1-5.32-.74h0a18.83,18.83,0,0,0,3.15.22,34.24,34.24,0,0,0,12.13-2.37c6.7-2.56,11.06-6.31,11.7-9.4a2.09,2.09,0,0,0-.4-1.88c-1.4-1.72-5.51-1.85-6.74-1.85h-.49l-.05-.53c.05,0,.89-.09,2.09-.09,2.44,0,5.65.35,7.12,2a3.1,3.1,0,0,1,.76,2.51c-.39,3.51-6.33,8.06-13.5,10.36a35.08,35.08,0,0,1-10.45,1.78Z"/></g></g></svg>