<?xml version="1.0" encoding="utf-8"?>
<!-- Generator: Adobe Illustrator 24.0.3, SVG Export Plug-In . SVG Version: 6.00 Build 0)  -->
<svg version="1.1" id="Capa_1" xmlns="http://www.w3.org/2000/svg" xmlns:xlink="http://www.w3.org/1999/xlink" x="0px" y="0px"
	 viewBox="0 0 512 512" style="enable-background:new 0 0 512 512;" xml:space="preserve">
<style type="text/css">
	.st0{opacity:0.5;}
	.st1{fill:#1BBB9A;}
	.st2{fill:#2A80B8;}
	.st3{fill:#F0C30F;}
	.st4{fill:#F29B11;}
	.st5{fill:#3597DA;}
	.st6{fill:#8E44AC;}
	.st7{fill:#AD7AC4;}
	.st8{fill:#FFFFFF;}
</style>
<g>
	<g class="st0">
		<path class="st1" d="M97.1,38.2c-135.3,119.5,38.8,235.4,22.2,366c-7.4,58.1,16.1,113.6,92.7,107.2c93.4-7.7,59.5-97.2,79.1-156.8
			C324.8,252.1,531.8,276,446,118.2C391.3,17.5,190.3-44,97.1,38.2L97.1,38.2z"/>
	</g>
	<path class="st2" d="M93,422.6c-2.8,0-5-2.2-5-5c0-3.3-2.7-6-6-6c-2.8,0-5-2.2-5-5s2.2-5,5-5c3.3,0,6-2.7,6-6c0-2.8,2.2-5,5-5
		s5,2.2,5,5c0,3.3,2.7,6,6,6c2.8,0,5,2.2,5,5s-2.2,5-5,5c-3.3,0-6,2.7-6,6C98,420.3,95.8,422.6,93,422.6z"/>
	<path class="st3" d="M358.1,489c-2.8,0-5-2.2-5-5c0-3.3-2.7-6-6-6c-2.8,0-5-2.2-5-5s2.2-5,5-5c3.3,0,6-2.7,6-6c0-2.8,2.2-5,5-5
		s5,2.2,5,5c0,3.3,2.7,6,6,6c2.8,0,5,2.2,5,5s-2.2,5-5,5c-3.3,0-6,2.7-6,6C363.1,486.8,360.8,489,358.1,489z"/>
	<path class="st4" d="M433,69.3c-2.8,0-5-2.2-5-5c0-3.3-2.7-6-6-6c-2.8,0-5-2.2-5-5s2.2-5,5-5c3.3,0,6-2.7,6-6c0-2.8,2.2-5,5-5
		s5,2.2,5,5c0,3.3,2.7,6,6,6c2.8,0,5,2.2,5,5s-2.2,5-5,5c-3.3,0-6,2.7-6,6C438,67.1,435.8,69.3,433,69.3z"/>
	<path class="st5" d="M163,76.7c-1.3,0-2.6-0.5-3.5-1.5l-11-11c-2-2-2-5.1,0-7.1l11-11c2-2,5.1-2,7.1,0l11,11c2,2,2,5.1,0,7.1
		l-11,11C165.6,76.2,164.3,76.7,163,76.7z M159.1,60.7l3.9,3.9l3.9-3.9l-3.9-3.9L159.1,60.7z"/>
	<path class="st6" d="M368,58.3c-1.3,0-2.6-0.5-3.5-1.5l-11-11c-2-2-2-5.1,0-7.1l11-11c2-2,5.1-2,7.1,0l11,11c2,2,2,5.1,0,7.1
		l-11,11C370.6,57.8,369.3,58.3,368,58.3z M364.1,42.3l3.9,3.9l3.9-3.9l-3.9-3.9L364.1,42.3z"/>
	<path class="st7" d="M420.7,371.2H100.9c-4.3,0-7.9-3.5-7.9-7.9V118.2c0-4.3,3.5-7.9,7.9-7.9h319.8c4.3,0,7.9,3.5,7.9,7.9v245.2
		C428.6,367.7,425,371.2,420.7,371.2z"/>
	<path class="st8" d="M399.8,306H120.4c-3.5,0-6.4-2.9-6.4-6.4V132c0-3.5,2.9-6.4,6.4-6.4h279.4c3.5,0,6.4,2.9,6.4,6.4v167.6
		C406.2,303.1,403.3,306,399.8,306z"/>
	<path class="st6" d="M282.4,429h-41.5c-6.6,0-12-5.4-12-12V387c0-6.6,5.4-12,12-12h41.5c6.6,0,12,5.4,12,12V417
		C294.4,423.6,289,429,282.4,429z"/>
	<g>
		<g>
			<g>
				<g>
					<g>
						<path class="st6" d="M403.6,100.5H112.7c-15.5,0-28,12.5-28,28v222.8c0,15.5,12.5,28,28,28H221v43.4h-41.2
							c-3.1-2.4-5.6,0.1-5.6,3.2s2.5,5.6,5.6,9.2h156.8c3.1-3.6,5.6-6.1,5.6-9.2s-2.5-5.6-5.6-3.2h-35.1v-43.4h102.1
							c15.5,0,28-12.5,28-28V128.5C431.6,113,419.1,100.5,403.6,100.5z M289.1,422.6h-55.8v-43.4h55.8V422.6z M408.6,366.9H113.9
							c-9.3,0-16.8-7.5-16.8-16.8v-14.2h328.3v14.2C425.4,359.3,417.9,366.9,408.6,366.9z M425.4,323.5H97.1V129.6
							c0-9.3,7.5-16.8,16.8-16.8h294.7c9.3,0,16.8,7.5,16.8,16.8V323.5z"/>
						<path class="st6" d="M407.4,119H115c-3.1,0-5.6,2.5-5.6,5.6v181.7c0,0-1.8,5.6,1.3,4.7h242.7c3.1,0.9,5.6-1.7,5.6-4.7
							c0-3.1-5.6-7.6-5.6-7.6H115.6V131.4h285v167.3h-24.8c-3.1,2-5.6,4.5-5.6,7.6c0,3.1,5.6,4.7,5.6,4.7h31.6
							c3.1,0,5.6-2.5,5.6-5.6V124.6C413,121.5,410.5,119,407.4,119z"/>
					</g>
				</g>
			</g>
		</g>
		<g>
			<path class="st6" d="M258.8,143c-38.9,0-70.5,31.6-70.5,70.5s31.6,70.5,70.5,70.5s70.5-31.6,70.5-70.5
				C329.2,174.6,297.7,143.1,258.8,143z M258.8,274.6c-33.7,0-61.1-27.3-61.1-61.1s27.3-61.1,61.1-61.1s61.1,27.3,61.1,61.1
				C319.8,247.2,292.5,274.5,258.8,274.6z"/>
			<path class="st6" d="M258.8,180.6c2.1,0,4.2,0.2,6.2,0.7l-6.9,4.4l5,8l15.9-10c1.1-0.7,1.9-1.8,2.1-3.1c0.2-1.3-0.1-2.6-0.8-3.7
				L268.7,161l-7.6,5.5l3.8,5.1c-12.1-1.8-24.5,1.8-33.8,9.8c-9.3,8-14.6,19.7-14.5,32c0,8.7,2.7,17.2,7.7,24.3l7.7-5.4
				c-7-10-7.9-23.2-2.2-34.1C235.3,187.4,246.5,180.6,258.8,180.6z"/>
			<path class="st6" d="M285.5,194.1c7,10,7.9,23.2,2.2,34.1c-5.7,10.9-16.9,17.7-29.2,17.7c-2.1,0-4.2-0.2-6.2-0.7l6.9-4.4l-5-7.9
				l-15.9,10c-1.1,0.7-1.9,1.8-2.1,3.1c-0.2,1.3,0,2.6,0.8,3.7l11.5,15.9l7.6-5.5l-3.8-5.1c16.7,2.4,33.2-5.4,42-19.7
				c8.8-14.4,8.3-32.6-1.4-46.4L285.5,194.1z"/>
		</g>
	</g>
</g>
</svg>
