<?xml version="1.0" encoding="utf-8"?>
<!-- Generator: Adobe Illustrator 24.0.3, SVG Export Plug-In . SVG Version: 6.00 Build 0)  -->
<svg version="1.1" id="Capa_1" xmlns="http://www.w3.org/2000/svg" xmlns:xlink="http://www.w3.org/1999/xlink" x="0px" y="0px"
	 viewBox="0 0 512 512" style="enable-background:new 0 0 512 512;" xml:space="preserve">
<style type="text/css">
	.st0{opacity:0.4;}
	.st1{fill:#159E84;}
	.st2{fill:#FFFFFF;}
</style>
<g class="st0">
	<path class="st1" d="M467.1,298.3h-3.9v-9.8c0-16.2-13.2-29.4-29.4-29.4H431c1.7-10.2,2.7-20.5,2.7-30.9c0-42.5-15-83.2-42.5-115.4
		c-1.8-2.2-5.1-2.4-7.2-0.4l-3.6,3.2c-0.2-0.4-0.4-0.8-0.8-1.1c-31.8-34.8-77-54.7-124-54.7c-47.2,0-92.5,20-124.3,54.9
		c-0.2,0.2-0.4,0.5-0.5,0.8l-3.5-3.1c-2.2-1.9-5.4-1.7-7.2,0.4C92.7,145,77.6,185.8,77.6,228.2c0,10.4,0.9,20.7,2.7,30.9h-2.8
		c-16.2,0-29.4,13.2-29.4,29.4v9.8h-3.9c-3,0-5.4,2.4-5.4,5.4v32.7c0,3,2.4,5.4,5.4,5.4h3.9v65.8c0,16.2,13.2,29.4,29.4,29.4H114
		c5.9,0,10.8-4.9,10.8-10.8V269.9c0-5.9-4.9-10.8-10.8-10.8h-2.9c-2.2-10-3.2-20.5-3.2-30.9c0-35,12.3-68.6,34.8-95.3
		c1.7-2.1,1.5-5.2-0.4-7l-3.7-3.2c0.2-0.2,0.4-0.4,0.6-0.6c29.9-32.6,72.3-51.3,116.5-51.3c44,0,86.3,18.6,116.1,51.1
		c0.3,0.3,0.6,0.5,1,0.9l-3.7,3.3c-2.1,1.8-2.3,5-0.4,7c22.5,26.7,34.8,60.3,34.8,95.3c0,10.4-1.1,20.7-3.2,30.9h-2.9
		c-5.9,0-10.8,4.9-10.8,10.8v156.1c0,5.9,4.9,10.8,10.8,10.8h9.6v13.7c0,20.2-16.4,36.6-36.6,36.6h-48c-0.3,0-0.6,0-1,0.1
		c-1.9-4.5-6.4-7.7-11.6-7.7h-41.3c-6.9,0-12.6,5.6-12.6,12.6s5.6,12.6,12.6,12.6h41.2c5,0,9.2-2.9,11.2-7c0.4,0.1,0.9,0.2,1.3,0.2
		h48c26.1,0,47.4-21.3,47.4-47.4v-13.8h16.1c16.2,0,29.4-13.2,29.4-29.4v-65.7h3.9c3,0,5.4-2.4,5.4-5.4v-32.7
		C472.5,300.7,470,298.3,467.1,298.3L467.1,298.3z"/>
</g>
<g>
	<path class="st2" d="M468.6,263.9v-4.5c0-18-13.7-32.8-31.3-34.6c1.2-8.5,1.8-17.1,1.8-25.7c0-43.5-15.6-85.8-43.6-118.8
		c-1.8-2.2-4.4-3.5-7.2-3.7c-2.8-0.2-5.6,0.8-7.7,2.7l-3.5,3.1c-31.8-32.8-75.7-51.6-121.4-51.6S166,49.5,134.3,82.4l-3.5-3.1
		c-2.2-1.9-4.9-2.8-7.7-2.7c-2.8,0.2-5.4,1.5-7.2,3.7c-28.2,33.1-43.6,75.3-43.6,118.8c0,8.5,0.6,17.2,1.8,25.7
		c-17.5,1.7-31.3,16.5-31.3,34.6v4.5c-5.2,0.8-9.3,5.3-9.3,10.7v32.7c0,5.4,4,9.9,9.3,10.7v60.5c0,19.1,15.6,34.8,34.8,34.8h36.5
		c9,0,16.2-7.2,16.2-16.2v-87.2c0-3-2.4-5.4-5.4-5.4s-5.4,2.4-5.4,5.4V397c0,3-2.4,5.4-5.4,5.4H77.5c-13.2,0-24-10.7-24-24v-60.3
		h4.8c5.9,0,10.8-4.9,10.8-10.8v-32.7c0-5.9-4.9-10.8-10.8-10.8h-4.8v-4.4c0-13.2,10.7-24,24-24h2.8l0,0h30.9l0,0h2.8
		c3,0,5.4,2.4,5.4,5.4v36c0,3,2.4,5.4,5.4,5.4c3,0,5.4-2.4,5.4-5.4v-36c0-8.4-6.4-15.3-14.6-16.1c-1.5-8.4-2.3-17.1-2.3-25.6
		c0-33.6,11.9-66.1,33.5-91.8c3.7-4.3,3.2-10.7-1-14.5l-3.5-3.1C172,59,213,41.5,255.6,41.5S339.4,59,368.9,89.6l-3.5,3.1
		c-4.2,3.8-4.6,10.2-1,14.5c21.6,25.6,33.5,58.2,33.5,91.8c0,8.5-0.8,17.2-2.3,25.6c-8.2,0.8-14.6,7.8-14.6,16.1v36
		c0,3,2.4,5.4,5.4,5.4c3,0,5.4-2.4,5.4-5.4v-36c0-3,2.4-5.4,5.4-5.4h2.8l0,0H431l0,0h2.8c13.2,0,24,10.7,24,24v4.4H453
		c-5.9,0-10.8,4.9-10.8,10.8v32.7c0,5.9,4.9,10.8,10.8,10.8h4.8v60.4c0,13.2-10.7,24-24,24h-21.5l0,0l0,0h-15c-3,0-5.4-2.4-5.4-5.4
		v-87.2c0-3-2.4-5.4-5.4-5.4c-3,0-5.4,2.4-5.4,5.4V397c0,9,7.2,16.2,16.2,16.2h9.6v8.3c0,20.2-16.4,36.6-36.6,36.6h-43.3
		c-2.2-7.5-9.1-13-17.3-13h-41.3c-9.9,0-18,8.1-18,18c0,9.9,8.1,18,18,18h41.3c7.9,0,14.6-5.2,17.1-12.2h43.5
		c26.1,0,47.4-21.3,47.4-47.4v-8.4h16.1c19.1,0,34.8-15.6,34.8-34.8v-60.5c5.2-0.8,9.3-5.3,9.3-10.7v-32.7
		C477.9,269.1,473.8,264.6,468.6,263.9L468.6,263.9z M58.3,307.3h-14v-32.7h14V307.3z M102.5,199.1c0,8.5,0.8,17.1,2.2,25.5H84.8
		c-1.3-8.4-1.8-17-1.8-25.5c0-40.8,14.5-80.5,40.9-111.6l14.5,13.1C115.2,128.1,102.5,163,102.5,199.1z M373,100.5l14.5-13.1
		c26.4,31.1,40.9,70.8,40.9,111.6c0,8.5-0.6,17.1-1.8,25.5h-19.8c1.4-8.4,2.2-17,2.2-25.5C408.8,163,396.1,128.1,373,100.5z
		 M309.7,470.4h-41.3c-4,0-7.2-3.2-7.2-7.2s3.2-7.2,7.2-7.2h41.3c4,0,7.2,3.2,7.2,7.2S313.7,470.4,309.7,470.4z M453,274.6h14v32.7
		h-14V274.6z"/>
</g>
<path class="st2" d="M70.8,62.2h-2.2V60c0-2.1-1.6-3.7-3.7-3.7c-2.1,0-3.7,1.6-3.7,3.7v2.2H59c-2.1,0-3.7,1.6-3.7,3.7
	c0,2.1,1.6,3.7,3.7,3.7h2.2v2.2c0,2.1,1.6,3.7,3.7,3.7c2.1,0,3.7-1.6,3.7-3.7v-2.2h2.2c2.1,0,3.7-1.6,3.7-3.7
	C74.5,63.9,72.8,62.2,70.8,62.2z"/>
<path class="st2" d="M79.5,31.6c-2.9,0-5.6-1.1-7.6-3.2c-4.2-4.2-4.2-11.1,0-15.3S83,9,87.2,13.1c4.2,4.2,4.2,11.1,0,15.3
	C85.1,30.5,82.4,31.6,79.5,31.6z M79.5,17.4c-0.9,0-1.8,0.3-2.4,1c-1.3,1.3-1.3,3.5,0,4.8c0.7,0.7,1.5,1,2.4,1c1,0,1.8-0.4,2.4-1
	c1.3-1.3,1.3-3.5,0-4.8C81.3,17.7,80.4,17.4,79.5,17.4z"/>
<path class="st2" d="M221.9,440.3h2.2v2.2c0,2.1,1.6,3.7,3.7,3.7c2.1,0,3.7-1.6,3.7-3.7v-2.2h2.2c2.1,0,3.7-1.6,3.7-3.7
	c0-2.1-1.6-3.7-3.7-3.7h-2.2v-2.2c0-2.1-1.6-3.7-3.7-3.7c-2.1,0-3.7,1.6-3.7,3.7v2.2h-2.2c-2.1,0-3.7,1.6-3.7,3.7
	C218.3,438.7,220,440.3,221.9,440.3z"/>
<path class="st2" d="M481.2,450.4h2.2v2.2c0,2.1,1.6,3.7,3.7,3.7s3.7-1.6,3.7-3.7v-2.2h2.2c2.1,0,3.7-1.6,3.7-3.7s-1.6-3.7-3.7-3.7
	h-2.2v-2.2c0-2.1-1.6-3.7-3.7-3.7s-3.7,1.6-3.7,3.7v2.2h-2.2c-2.1,0-3.7,1.6-3.7,3.7S479.2,450.4,481.2,450.4z"/>
<path class="st2" d="M452.7,481.1c2.9,0,5.6,1.1,7.6,3.2c4.2,4.2,4.2,11.1,0,15.3c-4.2,4.2-11.1,4.2-15.3,0
	c-4.2-4.2-4.2-11.1,0-15.3C447.1,482.2,449.8,481.1,452.7,481.1z M452.7,495.2c0.9,0,1.8-0.3,2.4-1c1.3-1.3,1.3-3.5,0-4.8
	c-0.7-0.7-1.5-1-2.4-1c-1,0-1.8,0.4-2.4,1c-1.3,1.3-1.3,3.5,0,4.8C450.9,494.9,451.8,495.2,452.7,495.2z"/>
</svg>
