<?xml version="1.0" encoding="utf-8"?>
<!-- Generator: Adobe Illustrator 24.0.3, SVG Export Plug-In . SVG Version: 6.00 Build 0)  -->
<svg version="1.1" id="Capa_1" xmlns="http://www.w3.org/2000/svg" xmlns:xlink="http://www.w3.org/1999/xlink" x="0px" y="0px"
	 viewBox="0 0 512 512" style="enable-background:new 0 0 512 512;" xml:space="preserve">
<style type="text/css">
	.st0{opacity:0.5;fill:#1BBB9A;}
	.st1{opacity:0.1;}
	.st2{fill:#590BB2;}
	.st3{fill:#9A58B4;}
	.st4{fill:#C182F9;}
	.st5{fill:#D6B0FF;}
	.st6{fill:#1BBB9A;}
	.st7{fill:#6C02AA;}
</style>
<path class="st0" d="M411.2,155.2c-30,0-54.3-24.3-54.3-54.3C356.8,45.2,311.7,0,256,0S155.2,45.2,155.2,100.8
	c0,30-24.3,54.3-54.3,54.3C45.2,155.2,0,200.3,0,256s45.2,100.8,100.8,100.8c30,0,54.3,24.3,54.3,54.3
	c0,55.7,45.2,100.8,100.8,100.8s100.8-45.2,100.8-100.8c0-30,24.3-54.3,54.3-54.3c55.7,0,100.8-45.2,100.8-100.8
	S466.8,155.2,411.2,155.2L411.2,155.2z"/>
<g class="st1">
	<path class="st2" d="M451.7,281.7h-3.6v-9.1c0-15-12.2-27.2-27.2-27.2h-2.6c1.6-9.4,2.5-19,2.5-28.6c0-39.3-13.9-77-39.3-106.8
		c-1.7-2-4.7-2.2-6.7-0.4l-3.3,3c-0.2-0.4-0.4-0.7-0.7-1C341.4,79.4,299.5,61,256,61c-43.7,0-85.6,18.5-115.1,50.8
		c-0.2,0.2-0.4,0.5-0.5,0.7l-3.2-2.9c-2-1.8-5-1.6-6.7,0.4c-25.3,29.8-39.3,67.5-39.3,106.8c0,9.6,0.8,19.2,2.5,28.6h-2.6
		c-15,0-27.2,12.2-27.2,27.2v9.1h-3.6c-2.8,0-5,2.2-5,5V317c0,2.8,2.2,5,5,5h3.6v60.9c0,15,12.2,27.2,27.2,27.2h33.8
		c5.5,0,10-4.5,10-10V255.4c0-5.5-4.5-10-10-10h-2.7c-2-9.3-3-19-3-28.6c0-32.4,11.4-63.5,32.2-88.2c1.6-1.9,1.4-4.8-0.4-6.5l-3.4-3
		c0.2-0.2,0.4-0.4,0.6-0.6C175.9,88.3,215.1,71,256,71c40.7,0,79.9,17.2,107.5,47.3c0.3,0.3,0.6,0.5,0.9,0.8l-3.4,3.1
		c-1.9,1.7-2.1,4.6-0.4,6.5c20.8,24.7,32.2,55.8,32.2,88.2c0,9.6-1,19.2-3,28.6h-2.7c-5.5,0-10,4.5-10,10V400c0,5.5,4.5,10,10,10
		h8.9v12.7c0,18.7-15.2,33.9-33.9,33.9h-44.4c-0.3,0-0.6,0-0.9,0.1c-1.8-4.2-5.9-7.1-10.7-7.1h-38.2c-6.4,0-11.7,5.2-11.7,11.7
		s5.2,11.7,11.7,11.7H306c4.6,0,8.5-2.7,10.4-6.5c0.4,0.1,0.8,0.2,1.2,0.2H362c24.2,0,43.9-19.7,43.9-43.9V410h14.9
		c15,0,27.2-12.2,27.2-27.2V322h3.6c2.8,0,5-2.2,5-5v-30.3C456.7,283.9,454.4,281.7,451.7,281.7L451.7,281.7z"/>
</g>
<path class="st3" d="M225.5,114.4h-3v-3c0-2.8-2.2-5-5-5s-5,2.2-5,5v3h-3c-2.8,0-5,2.2-5,5s2.2,5,5,5h3v3c0,2.8,2.2,5,5,5s5-2.2,5-5
	v-3h3c2.8,0,5-2.2,5-5S228.3,114.4,225.5,114.4z"/>
<g>
	<g>
		<g>
			<g>
				<g>
					<path class="st4" d="M124.9,383H91.1c-15,0-27.2-12.2-27.2-27.2V245.5c0-15,12.2-27.2,27.2-27.2h33.8c5.5,0,10,4.5,10,10V373
						C134.9,378.6,130.4,383,124.9,383L124.9,383z"/>
				</g>
				<g>
					<path class="st5" d="M124.9,218.4H111V383h13.9c5.5,0,10-4.5,10-10V228.4C134.9,222.8,130.4,218.4,124.9,218.4L124.9,218.4z"/>
				</g>
				<circle class="st3" cx="111" cy="349.3" r="12"/>
				<path class="st6" d="M73.3,295h-13c-2.8,0-5-2.2-5-5v-30.3c0-2.8,2.2-5,5-5h13c2.8,0,5,2.2,5,5V290
					C78.3,292.8,76.1,295,73.3,295z"/>
			</g>
			<g>
				<g>
					<path class="st4" d="M387.1,383h33.8c15,0,27.2-12.2,27.2-27.2V245.5c0-15-12.2-27.2-27.2-27.2h-33.8c-5.5,0-10,4.5-10,10V373
						C377.1,378.6,381.6,383,387.1,383L387.1,383z"/>
				</g>
				<g>
					<path class="st5" d="M387.1,218.4H401V383h-13.9c-5.5,0-10-4.5-10-10V228.4C377.1,222.8,381.6,218.4,387.1,218.4L387.1,218.4z"
						/>
				</g>
				<circle class="st3" cx="401" cy="349.3" r="12"/>
				<path class="st6" d="M438.7,295h13c2.8,0,5-2.2,5-5v-30.3c0-2.8-2.2-5-5-5h-13c-2.8,0-5,2.2-5,5V290
					C433.7,292.8,435.9,295,438.7,295z"/>
			</g>
		</g>
		<g>
			<g>
				<path class="st6" d="M389.8,218.4h28.6c1.6-9.4,2.5-19,2.5-28.6c0-39.3-13.9-77-39.3-106.8c-1.7-2-4.7-2.2-6.7-0.4L361,95.1
					c-1.9,1.7-2.1,4.6-0.4,6.5c20.8,24.7,32.2,55.8,32.2,88.2C392.8,199.4,391.7,209,389.8,218.4L389.8,218.4z"/>
			</g>
			<g>
				<path class="st6" d="M122.2,218.4c-2-9.3-3-19-3-28.6c0-32.4,11.4-63.5,32.2-88.2c1.6-1.9,1.4-4.8-0.4-6.5l-13.9-12.5
					c-2-1.8-5-1.6-6.7,0.4c-25.3,29.8-39.3,67.5-39.3,106.8c0,9.6,0.8,19.2,2.5,28.6H122.2z"/>
			</g>
		</g>
	</g>
	<path class="st4" d="M267.8,446H306c6.4,0,11.7-5.2,11.7-11.7c0-6.4-5.2-11.7-11.7-11.7h-38.2c-6.4,0-11.7,5.2-11.7,11.7
		C256.2,440.8,261.4,446,267.8,446z"/>
	<g>
		<path class="st7" d="M453.1,249.8v-4.2c0-16.7-12.7-30.4-29-32c1.1-7.9,1.7-15.8,1.7-23.8c0-40.3-14.4-79.4-40.4-110
			c-1.7-2-4.1-3.2-6.7-3.4c-2.6-0.2-5.2,0.7-7.1,2.5l-3.2,2.9C339,51.4,298.3,34,256,34s-83,17.4-112.3,47.8l-3.2-2.9
			c-2-1.8-4.5-2.6-7.1-2.5c-2.6,0.2-5,1.4-6.7,3.4c-26.1,30.6-40.4,69.7-40.4,110c0,7.9,0.6,15.9,1.7,23.8c-16.2,1.6-29,15.3-29,32
			v4.2c-4.8,0.7-8.6,4.9-8.6,9.9V290c0,5,3.7,9.2,8.6,9.9v56c0,17.7,14.4,32.2,32.2,32.2H125c8.3,0,15-6.7,15-15v-80.7
			c0-2.8-2.2-5-5-5s-5,2.2-5,5V373c0,2.8-2.2,5-5,5H91.1c-12.2,0-22.2-9.9-22.2-22.2V300h4.4c5.5,0,10-4.5,10-10v-30.3
			c0-5.5-4.5-10-10-10h-4.4v-4.1c0-12.2,9.9-22.2,22.2-22.2h2.6l0,0h28.6l0,0h2.6c2.8,0,5,2.2,5,5v33.3c0,2.8,2.2,5,5,5s5-2.2,5-5
			v-33.3c0-7.8-5.9-14.2-13.5-14.9c-1.4-7.8-2.1-15.8-2.1-23.7c0-31.1,11-61.2,31-85c3.4-4,3-9.9-0.9-13.4l-3.2-2.9
			C178.6,60.2,216.5,44,256,44s77.5,16.2,104.8,44.5l-3.2,2.9c-3.9,3.5-4.3,9.4-0.9,13.4c20,23.7,31,53.9,31,85
			c0,7.9-0.7,15.9-2.1,23.7c-7.6,0.7-13.5,7.2-13.5,14.9v33.3c0,2.8,2.2,5,5,5s5-2.2,5-5v-33.3c0-2.8,2.2-5,5-5h2.6l0,0h28.6l0,0
			h2.6c12.2,0,22.2,9.9,22.2,22.2v4.1h-4.4c-5.5,0-10,4.5-10,10V290c0,5.5,4.5,10,10,10h4.4v55.9c0,12.2-9.9,22.2-22.2,22.2H401l0,0
			l0,0h-13.9c-2.8,0-5-2.2-5-5v-80.7c0-2.8-2.2-5-5-5s-5,2.2-5,5V373c0,8.3,6.7,15,15,15h8.9v7.7c0,18.7-15.2,33.9-33.9,33.9H322
			c-2-6.9-8.4-12-16-12h-38.2c-9.2,0-16.7,7.5-16.7,16.7s7.5,16.7,16.7,16.7H306c7.3,0,13.5-4.8,15.8-11.3h40.3
			c24.2,0,43.9-19.7,43.9-43.9V388h14.9c17.7,0,32.2-14.4,32.2-32.2v-56c4.8-0.7,8.6-4.9,8.6-9.9v-30.3
			C461.7,254.6,457.9,250.5,453.1,249.8L453.1,249.8z M73.3,290h-13v-30.3h13V290z M114.2,189.8c0,7.9,0.7,15.8,2,23.6H97.9
			c-1.2-7.8-1.7-15.7-1.7-23.6c0-37.8,13.4-74.5,37.9-103.3l13.4,12.1C126,124.1,114.2,156.4,114.2,189.8z M364.6,98.6L378,86.5
			c24.4,28.8,37.9,65.5,37.9,103.3c0,7.9-0.6,15.8-1.7,23.6h-18.3c1.3-7.8,2-15.7,2-23.6C397.8,156.4,386,124.1,364.6,98.6z
			 M306,441h-38.2c-3.7,0-6.7-3-6.7-6.7s3-6.7,6.7-6.7H306c3.7,0,6.7,3,6.7,6.7S309.7,441,306,441z M438.7,259.7h13V290h-13V259.7z"
			/>
	</g>
</g>
<path class="st6" d="M436.5,129.6c-3.9,0-7.6-1.5-10.3-4.3c-5.7-5.7-5.7-15,0-20.7s15-5.7,20.7,0s5.7,15,0,20.7
	C444.1,128.1,440.4,129.6,436.5,129.6z M436.5,110.4c-1.2,0-2.4,0.4-3.3,1.3c-1.8,1.8-1.8,4.7,0,6.5c0.9,0.9,2,1.3,3.3,1.3
	s2.4-0.5,3.3-1.3c1.8-1.8,1.8-4.7,0-6.5C438.9,110.8,437.7,110.4,436.5,110.4z"/>
<path class="st6" d="M264.3,152.1c-3.9,0-7.6-1.5-10.3-4.3c-5.7-5.7-5.7-15,0-20.7s15-5.7,20.7,0c5.7,5.7,5.7,15,0,20.7
	C271.9,150.6,268.2,152.1,264.3,152.1z M264.3,132.9c-1.2,0-2.4,0.4-3.3,1.3c-1.8,1.8-1.8,4.7,0,6.5c0.9,0.9,2,1.3,3.3,1.3
	s2.4-0.5,3.3-1.3c1.8-1.8,1.8-4.7,0-6.5C266.7,133.3,265.5,132.9,264.3,132.9z"/>
<path class="st6" d="M129.5,449.1c-3.9,0-7.6-1.5-10.3-4.3c-5.7-5.7-5.7-15,0-20.7s15-5.7,20.7,0s5.7,15,0,20.7
	C137.1,447.6,133.4,449.1,129.5,449.1z M129.5,429.9c-1.2,0-2.4,0.4-3.3,1.3c-1.8,1.8-1.8,4.7,0,6.5c0.9,0.9,2,1.3,3.3,1.3
	s2.4-0.5,3.3-1.3c1.8-1.8,1.8-4.7,0-6.5C131.9,430.3,130.7,429.9,129.5,429.9z"/>
<path class="st3" d="M422,51.9h-3.2v-3.2c0-2.8-2.2-5-5-5s-5,2.2-5,5v3.2h-3.2c-2.8,0-5,2.2-5,5s2.2,5,5,5h3.2v3.2c0,2.8,2.2,5,5,5
	s5-2.2,5-5v-3.2h3.2c2.8,0,5-2.2,5-5S424.8,51.9,422,51.9z"/>
</svg>
