<?xml version="1.0" encoding="utf-8"?>
<!-- Generator: Adobe Illustrator 24.0.3, SVG Export Plug-In . SVG Version: 6.00 Build 0)  -->
<svg version="1.1" id="Capa_1" xmlns="http://www.w3.org/2000/svg" xmlns:xlink="http://www.w3.org/1999/xlink" x="0px" y="0px"
	 viewBox="0 0 512 512" style="enable-background:new 0 0 512 512;" xml:space="preserve">
<style type="text/css">
	.st0{opacity:0.5;fill:#1BBB9A;enable-background:new    ;}
	.st1{opacity:0.1;fill:#0000CC;enable-background:new    ;}
	.st2{opacity:0.1;}
	.st3{fill:#0000CC;}
	.st4{fill:#9A58B4;}
	.st5{fill:#8E44AC;}
	.st6{fill:#169F85;}
	.st7{fill:#F29B11;}
	.st8{fill:#2A80B8;}
	.st9{fill:#FFFFFF;}
</style>
<g>
	<path class="st0" d="M512,189.6c0-77.2-114.6-139.8-256-139.8S0,112.4,0,189.6c0,12.5,3,24.6,8.6,36.1c10,20.5,12.5,43.8,7.5,66.1
		c-2,9.1-3.2,18.6-3.3,28.3c-1.2,77.8,62,142.1,139.8,142.1c58.4,0,108.5-35.9,129.4-86.8c11.5-28,35.6-48.9,65.2-55.1
		C443.5,300.2,512,249.3,512,189.6z"/>
	<g>
		<path class="st1" d="M430.5,314.6H160.9V166c0-16.5-5.9-22.3-13.1-22.3s-13.1,5.9-13.1,13.1v157.8h-14.5
			c-11.3,0-20.5,9.2-20.5,20.5v47.7c0,11.3,9.2,20.5,20.5,20.5h0.8h308.7h0.8c11.3,0,20.5-9.2,20.5-20.5v-47.7
			C451,323.8,441.8,314.6,430.5,314.6L430.5,314.6z"/>
		<g class="st2">
			<path class="st3" d="M198.8,188.6c0.8,0.5,1.8,0.7,2.7,0.7c1.7,0,3.4-0.9,4.4-2.5c5.1-8.4,7.8-18,7.8-27.8s-2.7-19.4-7.8-27.8
				c-1.5-2.4-4.6-3.2-7.1-1.7c-2.4,1.5-3.2,4.6-1.7,7.1c4.1,6.8,6.3,14.5,6.3,22.4s-2.2,15.7-6.3,22.4
				C195.6,184,196.4,187.1,198.8,188.6z"/>
			<path class="st3" d="M182.1,174.2c0.8,0.5,1.8,0.7,2.7,0.7c1.7,0,3.4-0.9,4.4-2.5c2.4-4,3.7-8.6,3.7-13.3s-1.3-9.3-3.7-13.3
				c-1.5-2.4-4.6-3.2-7.1-1.7c-2.4,1.5-3.2,4.6-1.7,7.1c1.5,2.4,2.2,5.2,2.2,8s-0.8,5.6-2.2,8C178.9,169.6,179.7,172.7,182.1,174.2
				L182.1,174.2z"/>
			<path class="st3" d="M216.3,201.9c0.8,0.5,1.8,0.7,2.7,0.7c1.7,0,3.4-0.9,4.4-2.5c7.5-12.4,11.5-26.6,11.5-41.1
				s-4-28.7-11.5-41.1c-1.5-2.4-4.6-3.2-7.1-1.7c-2.4,1.5-3.2,4.6-1.7,7.1c6.5,10.8,10,23.1,10,35.8s-3.5,25-10,35.8
				C213.1,197.3,213.9,200.5,216.3,201.9z"/>
			<path class="st3" d="M92.5,159.1c0-7.9,2.2-15.7,6.3-22.4c1.5-2.4,0.7-5.6-1.7-7.1c-2.4-1.5-5.6-0.7-7.1,1.7
				c-5.1,8.4-7.8,18-7.8,27.8s2.7,19.4,7.8,27.8c1,1.6,2.7,2.5,4.4,2.5c0.9,0,1.8-0.2,2.7-0.7c2.4-1.5,3.2-4.6,1.7-7.1
				C94.7,174.8,92.5,167,92.5,159.1z"/>
			<path class="st3" d="M111.1,174.9c0.9,0,1.8-0.2,2.7-0.7c2.4-1.5,3.2-4.6,1.7-7.1c-1.5-2.4-2.2-5.2-2.2-8s0.8-5.6,2.2-8
				c1.5-2.4,0.7-5.6-1.7-7.1c-2.4-1.5-5.6-0.7-7.1,1.7c-2.4,4-3.7,8.6-3.7,13.3s1.3,9.3,3.7,13.3
				C107.7,174.1,109.3,174.9,111.1,174.9L111.1,174.9z"/>
			<path class="st3" d="M79.5,116.3c-2.4-1.5-5.6-0.7-7.1,1.7C65,130.4,61,144.6,61,159.1s4,28.7,11.5,41.1c1,1.6,2.7,2.5,4.4,2.5
				c0.9,0,1.8-0.2,2.7-0.7c2.4-1.5,3.2-4.6,1.7-7.1c-6.5-10.8-10-23.1-10-35.8c0-12.6,3.5-25,10-35.8
				C82.7,120.9,82,117.8,79.5,116.3L79.5,116.3z"/>
		</g>
		<g>
			<g>
				<path class="st4" d="M160.9,356.3h-26.2V136.1c0-7.2,5.9-13.1,13.1-13.1s13.1,5.9,13.1,22.3L160.9,356.3z"/>
				<path class="st4" d="M430.5,382.6H120.2c-11.3,0-20.5-9.2-20.5-20.5v-47.7c0-11.3,9.2-20.5,20.5-20.5h310.2
					c11.3,0,20.5,9.2,20.5,20.5v47.7C451,373.5,441.8,382.6,430.5,382.6z"/>
				<path class="st5" d="M430.5,288.9H139.7V136.1c0-4.5,3.6-8.1,8.1-8.1c3.7,0,8.1,3,8.1,17.3v114.6c0,2.8,2.2,5,5,5s5-2.2,5-5
					V145.3c0-24.7-12.7-27.3-18.1-27.3c-10,0-18.1,8.1-18.1,18.1v152.8h-9.5c-14.1,0-25.5,11.5-25.5,25.5v47.7
					c0,12.6,9.2,23.2,21.3,25.2l10,0.3h308.7c2.8,0,5-2.2,5-5s-2.2-5-5-5H120.2c-8.6,0-15.5-7-15.5-15.5v-47.7
					c0-8.6,7-15.5,15.5-15.5h310.2c8.6,0,15.5,7,15.5,15.5l0.1,47.7c0,8.6-7,15.5-15.5,15.5h-0.8c-2.8,0-5,2.2-5,5v4.7
					c3.3-0.3,6.8-0.1,10,0.1v-0.1c12.1-2,21.3-12.5,21.3-25.2v-47.7C456,300.3,444.5,288.9,430.5,288.9z"/>
			</g>
			<g>
				<g>
					<g>
						<path class="st5" d="M201.5,161.5c-0.9,0-1.8-0.2-2.6-0.7c-2.4-1.4-3.1-4.5-1.7-6.9c4.1-6.8,6.3-14.6,6.3-22.5
							s-2.2-15.7-6.3-22.5c-1.4-2.4-0.7-5.4,1.7-6.9c2.4-1.4,5.4-0.7,6.9,1.7c5.1,8.3,7.7,17.9,7.7,27.7s-2.7,19.3-7.7,27.7
							C204.8,160.6,203.1,161.5,201.5,161.5L201.5,161.5z"/>
					</g>
					<g>
						<path class="st5" d="M184.8,147.1c-0.9,0-1.8-0.2-2.6-0.7c-2.4-1.4-3.1-4.5-1.7-6.9c1.5-2.4,2.3-5.2,2.3-8.1s-0.8-5.6-2.3-8.1
							c-1.4-2.4-0.7-5.4,1.7-6.9c2.4-1.4,5.4-0.7,6.9,1.7c2.4,4,3.7,8.6,3.7,13.3c0,4.7-1.3,9.3-3.7,13.3
							C188.1,146.2,186.5,147.1,184.8,147.1L184.8,147.1z"/>
					</g>
					<g>
						<path class="st5" d="M219,174.8c-0.9,0-1.8-0.2-2.6-0.7c-2.4-1.4-3.1-4.5-1.7-6.9c6.5-10.8,10-23.2,10-35.8s-3.5-25-10-35.8
							c-1.4-2.4-0.7-5.4,1.7-6.9c2.4-1.4,5.4-0.7,6.9,1.7c7.5,12.4,11.5,26.5,11.5,41s-4,28.7-11.5,41
							C222.3,174,220.7,174.8,219,174.8L219,174.8z"/>
					</g>
				</g>
				<g>
					<g>
						<path class="st5" d="M94.4,161.5c-1.7,0-3.3-0.9-4.3-2.4c-5.1-8.3-7.7-17.9-7.7-27.7s2.7-19.3,7.7-27.7
							c1.4-2.4,4.5-3.1,6.9-1.7s3.1,4.5,1.7,6.9c-4.1,6.8-6.3,14.6-6.3,22.5c0,7.9,2.2,15.7,6.3,22.5c1.4,2.4,0.7,5.4-1.7,6.9
							C96.2,161.3,95.3,161.5,94.4,161.5L94.4,161.5z"/>
					</g>
					<g>
						<path class="st5" d="M111.1,147.1c-1.7,0-3.3-0.9-4.3-2.4c-2.4-4-3.7-8.6-3.7-13.3s1.3-9.3,3.7-13.3c1.4-2.4,4.5-3.1,6.9-1.7
							s3.1,4.5,1.7,6.9c-1.5,2.4-2.3,5.2-2.3,8.1s0.8,5.6,2.3,8.1c1.4,2.4,0.7,5.4-1.7,6.9C112.9,146.9,112,147.1,111.1,147.1z"/>
					</g>
					<g>
						<path class="st5" d="M76.9,174.8c-1.7,0-3.3-0.9-4.3-2.4c-7.5-12.4-11.5-26.5-11.5-41s4-28.7,11.5-41c1.4-2.4,4.5-3.1,6.9-1.7
							s3.1,4.5,1.7,6.9c-6.5,10.8-10,23.2-10,35.8s3.5,25,10,35.8c1.4,2.4,0.7,5.4-1.7,6.9C78.7,174.6,77.8,174.8,76.9,174.8
							L76.9,174.8z"/>
					</g>
				</g>
			</g>
		</g>
		<g>
			<path class="st6" d="M229.7,248.1c-1.3,0-2.6-0.5-3.5-1.5l-11.3-11.3c-2-2-2-5.1,0-7.1l11.3-11.3c2-2,5.1-2,7.1,0l11.3,11.3
				c2,2,2,5.1,0,7.1l-11.3,11.3C232.3,247.5,231.1,248.1,229.7,248.1z M225.5,231.8l4.2,4.2l4.2-4.2l-4.2-4.2L225.5,231.8z"/>
		</g>
		<g>
			<path class="st7" d="M76.1,426.2c-1.3,0-2.6-0.5-3.5-1.5l-11.3-11.3c-0.9-0.9-1.5-2.2-1.5-3.5s0.5-2.6,1.5-3.5l11.3-11.3
				c0.9-0.9,2.2-1.5,3.5-1.5s2.6,0.5,3.5,1.5l11.3,11.3c2,2,2,5.1,0,7.1l-11.3,11.3C78.7,425.7,77.4,426.2,76.1,426.2z M71.9,409.9
				l4.2,4.2l4.2-4.2l-4.2-4.2L71.9,409.9z"/>
		</g>
		<g>
			<path class="st7" d="M375.5,191.7c-1.3,0-2.6-0.5-3.5-1.5L360.7,179c-2-2-2-5.1,0-7.1l11.3-11.3c2-2,5.1-2,7.1,0l11.3,11.3
				c0.9,0.9,1.5,2.2,1.5,3.5s-0.5,2.6-1.5,3.5l-11.3,11.3C378.1,191.2,376.9,191.7,375.5,191.7L375.5,191.7z M371.3,175.4l4.2,4.2
				l4.2-4.2l-4.2-4.2L371.3,175.4z"/>
		</g>
		<g>
			<path class="st6" d="M399.5,245c-7.3,0-13.2-5.9-13.2-13.2s5.9-13.2,13.2-13.2s13.2,5.9,13.2,13.2S406.8,245,399.5,245z
				 M399.5,228.5c-1.8,0-3.2,1.4-3.2,3.2s1.4,3.2,3.2,3.2s3.2-1.4,3.2-3.2C402.7,230,401.2,228.5,399.5,228.5z"/>
		</g>
		<g>
			<path class="st8" d="M147.8,89c-7.3,0-13.2-5.9-13.2-13.2s5.9-13.2,13.2-13.2S161,68.5,161,75.8C161,83.1,155.1,89,147.8,89z
				 M147.8,72.6c-1.8,0-3.2,1.4-3.2,3.2s1.4,3.2,3.2,3.2s3.2-1.4,3.2-3.2S149.6,72.6,147.8,72.6z"/>
		</g>
	</g>
</g>
<g>
	<g>
		<g>
			<g>
				<path class="st9" d="M159.4,311.1l-10.2,46.2c-0.1,0.2,0.1,0.3,0.2,0.3h9.1c0.2,0,0.3-0.2,0.3-0.3l4.3-18.5
					c0-0.2,0.2-0.2,0.3-0.2h15.2c0.2,0,0.3-0.1,0.3-0.2l2.2-7.4c0-0.2-0.1-0.2-0.2-0.2H165c-0.2,0-0.2-0.2-0.2-0.3l2.6-10.9
					c0-0.2,0.2-0.3,0.3-0.3h15.8c0.2,0,0.3-0.2,0.3-0.3l3.4-7.4c0.1-0.2-0.1-0.3-0.2-0.3L159.4,311.1L159.4,311.1z"/>
			</g>
		</g>
		<g>
			<path class="st9" d="M361.1,310.7h-7.8c-0.2,0-0.3,0.1-0.3,0.2s-0.1,0.2-0.1,0.4l-9.9,46c0,0.2,0.1,0.3,0.2,0.3h7.7
				c0.2,0,0.3-0.2,0.4-0.3l9.9-46.2C361.3,310.9,361.3,310.7,361.1,310.7z"/>
		</g>
		<g>
			<path class="st9" d="M229.3,328.9c-2.1-2.5-5.2-3.9-9.2-3.9c-5.5,0-8.5,2.4-10.5,4.4l4-17.9v-0.1c0-0.1,0-0.1,0-0.2
				c0-0.2-0.1-0.5-0.2-0.6c-0.2-0.1-0.3-0.1-0.5-0.1h-6.6l0,0c-0.6,0-0.8,0.1-1,0.7l-6.8,30.9l0,0c-0.1,0.5-0.2,1.2-0.2,1.8
				c-0.2,2.6,0,6.2,2,9.1c1.9,3,5.4,5.3,11.8,5.3l0,0c10.5,0,15.8-6.8,18-12.2V346c0.2-0.7,0.6-1.4,0.7-2.1c0.2-0.5,0.3-0.9,0.3-1.3
				l0,0c0.1-0.3,0.2-0.7,0.2-1c0.2-1,0.3-2,0.4-2.9C232.3,334.9,231.3,331.4,229.3,328.9z M223.1,341.7c-1,4.8-4.4,9.1-10,9.1
				c-4.9,0-6.8-3.3-6.5-7.3c0.1-0.5,0.2-1.1,0.2-1.6c1-4.8,5-9.1,10.5-9.1c2.4,0,3.9,0.7,4.9,2.1c0.9,1.2,1.2,3,1.2,4.9
				C223.4,340.3,223.3,341,223.1,341.7z"/>
		</g>
		<g>
			<g>
				<path class="st9" d="M195.2,310.7c-3,0-5.4,2.3-5.9,4.9c-0.1,0.2-0.1,0.5-0.2,0.7c-0.1,1.2,0.2,2.2,0.9,3c0.7,0.7,1.7,1.2,3,1.2
					l0,0c3,0,5.4-2.1,6.1-4.9c0.1-0.2,0.1-0.5,0.1-0.7c0.1-1.2-0.2-2.3-1-3C197.7,311.1,196.6,310.7,195.2,310.7z"/>
			</g>
			<g>
				<path class="st9" d="M195.9,325.8h-7.7c-0.2,0.1-0.4,0.2-0.5,0.6l-6.6,30.9c0,0.2,0.1,0.3,0.2,0.3h7.7c0.2,0,0.3-0.2,0.4-0.3
					l6.7-31.1C196.2,326,196.1,325.8,195.9,325.8z"/>
			</g>
		</g>
		<g>
			<path class="st9" d="M264,328.5c-2.1-2.3-5-3.5-9-3.5c-9.5,0-18,6.7-20.1,16.6c-0.2,0.9-0.3,1.9-0.4,2.7
				c-0.3,4.2,0.9,7.7,3.3,10.1c2.4,2.4,5.9,3.8,10.2,3.8l0,0c4.9,0,9.6-1.7,14.3-6.2l0,0c0.3-0.3,0.2-0.6,0-0.7l-4.3-3.9
				c-0.3-0.2-0.7-0.1-0.8,0c-2.4,2.3-4.9,3.9-8.6,4c-4,0-6.8-2.4-6.5-6.5c0.1-0.2,0.2-0.2,0.2-0.2l0,0h22.3l0,0c0.8,0,0.9-0.2,1-0.7
				l0,0l0.3-1.6c0.3-1.3,0.5-2.6,0.6-3.9C266.9,334.2,266,330.8,264,328.5z M258.5,337.8L258.5,337.8c0,0,0,0.3-0.4,0.5h-14.4
				c-0.2-0.2,0-0.5,0-0.5l0,0c1.6-3.9,4.8-6.3,9-6.3c2.1,0,3.7,0.6,4.7,1.6s1.4,2.4,1.3,4.2C258.6,337.4,258.6,337.7,258.5,337.8z"
				/>
		</g>
		<g>
			<path class="st9" d="M312.5,325.2h-9.9c-0.2,0-0.2-0.1-0.2-0.1l2-8.4c0.1-0.4-0.1-0.5-0.5-0.5l0,0h-7.2c-0.6,0-0.7,0.2-0.7,0.4
				v0.1c0,0.1,0,0.1,0,0.2l0,0l-1.8,8.4l0,0l-1.6,7.5l0,0l-3,14.2c-0.2,1.3-0.5,2.6-0.5,3.6c-0.2,2.5,0.2,4.4,1.6,5.8
				c1.4,1.3,3.6,1.9,7.1,1.9c1.8,0,4.5-0.2,6.3-1l0,0c0.3-0.2,0.3-0.2,0.3-0.4h0.1l1.4-6.8l0,0c0-0.2-0.2-0.1-0.2-0.1l0,0l-0.4,0.2
				c-1.1,0.7-3,1-4.3,1c-1.4,0-2.1-0.3-2.6-0.8s-0.7-1.3-0.6-2.4c0-0.5,0.1-1,0.2-1.5l2.9-13.3c0-0.1,0.1-0.1,0.2-0.1h8.1
				c0.2-0.1,0.2-0.2,0.3-0.2h0.1l3.2-7.2C312.8,325.3,312.7,325.2,312.5,325.2z"/>
		</g>
		<g>
			<path class="st9" d="M289.8,325.2h-0.2l0,0l0,0c0,0,0.2,0-0.4,0h-0.6c-0.3,0-0.7,0-1.1,0l0,0h-4.8l0,0c-3.5,0.2-6.5,1.9-8.2,3.7
				c-3,3.1-4,8.2-5,12.4l0,0v0.1l-3.4,15.7c0,0.2,0.1,0.3,0.4,0.4h7.2c0.4-0.1,0.7-0.2,0.7-0.5l3.5-16.1c0.4-1.6,0.7-3.8,1.7-5.3
				c0.9-1.5,2.4-2.6,5.2-2.6h3.1c0.2,0,0.3-0.2,0.4-0.4l1.5-7.2"/>
		</g>
		<g>
			<path class="st9" d="M339.3,328.5c-2-2.3-5-3.5-8.9-3.5c-9.6,0-18,6.7-20.2,16.6c-0.2,0.9-0.3,1.9-0.4,2.7
				c-0.3,4.2,0.9,7.7,3.3,10.1s5.8,3.8,10.2,3.8l0,0c4.9,0,9.7-1.7,14.2-6.2l0,0c0.3-0.3,0.2-0.6,0-0.7l-4.3-3.9
				c-0.3-0.2-0.7-0.1-0.8,0c-2.4,2.3-4.9,3.9-8.5,4c-4,0-6.8-2.4-6.6-6.5c0.1-0.2,0.2-0.2,0.2-0.2l0,0H340l0,0c0.8,0,0.9-0.2,1-0.7
				l0,0l0.4-1.6c0.2-1.3,0.5-2.6,0.5-3.9C342.2,334.2,341.3,330.8,339.3,328.5z M333.9,337.8L333.9,337.8c0,0,0,0.3-0.4,0.5h-14.4
				c-0.2-0.2,0-0.5,0-0.5l0,0c1.6-3.9,4.9-6.3,9-6.3c2.1,0,3.7,0.6,4.6,1.6c1,1,1.4,2.4,1.3,4.2C334,337.4,334,337.7,333.9,337.8z"
				/>
		</g>
	</g>
	<g>
		<path class="st9" d="M336.9,367.7c-10.4,0-15.7-2.1-15.9-2.2l0,0c0,0,3.5,0.7,9.4,0.7c8.1,0,21-1.2,36.4-7.1
			c20.1-7.7,33.2-18.9,35.1-28.2c0.5-2.2,0.1-4-1.2-5.7c-4.2-5.2-16.5-5.5-20.2-5.5c-1,0-1.5,0-1.5,0l-0.2-1.6
			c0.2,0,2.6-0.2,6.3-0.2c7.3,0,17,1.1,21.3,5.9c1.8,2.1,2.6,4.5,2.3,7.5c-1.2,10.5-18.9,24.1-40.5,31.1
			C357,365.8,346.4,367.7,336.9,367.7L336.9,367.7z"/>
	</g>
</g>
</svg>
