<?xml version="1.0" encoding="utf-8"?>
<!-- Generator: Adobe Illustrator 24.0.3, SVG Export Plug-In . SVG Version: 6.00 Build 0)  -->
<svg version="1.1" id="Capa_1" xmlns="http://www.w3.org/2000/svg" xmlns:xlink="http://www.w3.org/1999/xlink" x="0px" y="0px"
	 viewBox="0 0 512 512" style="enable-background:new 0 0 512 512;" xml:space="preserve">
<style type="text/css">
	.st0{opacity:0.5;}
	.st1{fill:#1BBB9A;}
	.st2{fill:#9A58B4;}
	.st3{fill:#FFA052;}
	.st4{fill:#FDD250;}
	.st5{fill:#FFFFFF;}
</style>
<g class="st0">
	<path class="st1" d="M180.3,0C79.6,0.5,29.1,173.6,10.2,262.6S11,534.1,157.3,509.8c23.6-3.9,29.2-4.7,48.6-14.5
		c34.7-17.4,75.7-29.7,112.8-33.4c15.2-1.5,34.4-6.5,44.6-8.4c81.6-14.7,164.9-93.8,139.7-176.6c-18.9-62.2-74.4-123.3-130-119.8
		c-30.5,1.9-63-16-69.5-35.8C282.4,56.9,258-0.4,180.3,0L180.3,0z"/>
</g>
<path class="st2" d="M76.4,19.1h-4.6v-4.6c0-4.2-3.3-7.6-7.6-7.6c-4.2,0-7.6,3.3-7.6,7.6v4.6h-4.6c-4.2,0-7.6,3.3-7.6,7.6
	s3.3,7.6,7.6,7.6h4.6v4.6c0,4.2,3.3,7.6,7.6,7.6s7.6-3.3,7.6-7.6v-4.6h4.6c4.2,0,7.6-3.3,7.6-7.6S80.5,19.1,76.4,19.1z"/>
<path class="st3" d="M451.2,421.3h-3v-3c0-2.8-2.2-5-5-5s-5,2.2-5,5v3h-3c-2.8,0-5,2.2-5,5s2.2,5,5,5h3v3c0,2.8,2.2,5,5,5s5-2.2,5-5
	v-3h3c2.8,0,5-2.2,5-5S453.9,421.3,451.2,421.3z"/>
<path class="st4" d="M44.2,89.9h-4.1v-4.1c0-3.8-3-6.8-6.8-6.8s-6.8,3-6.8,6.8v4.1h-4.1c-3.8,0-6.8,3-6.8,6.8c0,3.8,3,6.8,6.8,6.8
	h4.1v4.1c0,3.8,3,6.8,6.8,6.8s6.8-3,6.8-6.8v-4.1h4.1c3.8,0,6.8-3,6.8-6.8C51,92.9,47.9,89.9,44.2,89.9z"/>
<g>
	<g>
		<g>
			<g>
				<path class="st5" d="M110.2,265.3l-12.4,56.1c-0.1,0.2,0.1,0.4,0.3,0.4h11.1c0.2,0,0.4-0.2,0.4-0.4l5.2-22.4
					c0-0.2,0.2-0.3,0.4-0.3h18.5c0.2,0,0.4-0.1,0.4-0.3l2.7-9c0-0.2-0.1-0.3-0.3-0.3h-19.5c-0.2,0-0.3-0.2-0.3-0.4l3.2-13.2
					c0-0.2,0.2-0.4,0.4-0.4h19.2c0.2,0,0.4-0.2,0.4-0.4l4.1-9c0.1-0.2-0.1-0.4-0.3-0.4H110.2z"/>
			</g>
		</g>
		<g>
			<path class="st5" d="M355,264.9h-9.5c-0.2,0-0.4,0.1-0.4,0.2c0,0.1-0.1,0.3-0.1,0.5l-12,55.8c0,0.2,0.1,0.4,0.3,0.4h9.4
				c0.2,0,0.4-0.2,0.5-0.4l12-56.1C355.3,265.1,355.2,264.9,355,264.9z"/>
		</g>
		<g>
			<path class="st5" d="M195,287c-2.5-3-6.3-4.7-11.2-4.7c-6.7,0-10.3,2.9-12.7,5.3l4.9-21.7l0-0.1c0-0.1,0-0.1,0-0.2
				c0-0.3-0.1-0.6-0.3-0.7c-0.2-0.1-0.4-0.1-0.6-0.1h-8l0,0c-0.7,0-1,0.1-1.2,0.8l-8.2,37.5h0c-0.1,0.6-0.2,1.4-0.3,2.2
				c-0.2,3.1,0,7.5,2.4,11.1c2.3,3.6,6.6,6.4,14.3,6.4h0c12.8,0,19.2-8.2,21.9-14.8l0-0.1c0.3-0.8,0.7-1.7,0.9-2.6
				c0.2-0.6,0.4-1.1,0.4-1.6h0c0.1-0.4,0.2-0.8,0.3-1.2c0.2-1.2,0.4-2.4,0.5-3.5C198.6,294.2,197.4,290,195,287z M187.5,302.5
				c-1.2,5.8-5.4,11-12.1,11c-5.9,0-8.2-4-7.9-8.9c0.1-0.6,0.2-1.3,0.3-2c1.2-5.8,6.1-11,12.8-11c2.9,0,4.7,0.9,5.9,2.5
				c1.1,1.5,1.5,3.6,1.4,6C187.8,300.8,187.7,301.6,187.5,302.5z"/>
		</g>
		<g>
			<g>
				<path class="st5" d="M153.6,264.8c-3.7,0-6.5,2.8-7.2,6c-0.1,0.3-0.1,0.6-0.2,0.9c-0.1,1.4,0.3,2.7,1.1,3.6
					c0.9,0.9,2.1,1.5,3.7,1.5h0c3.6,0,6.6-2.6,7.4-6c0.1-0.3,0.1-0.6,0.1-0.9c0.1-1.4-0.3-2.8-1.2-3.7
					C156.6,265.3,155.3,264.8,153.6,264.8z"/>
			</g>
			<g>
				<path class="st5" d="M154.5,283.2h-9.3c-0.2,0.1-0.5,0.3-0.6,0.7l-8,37.5c0,0.2,0.1,0.4,0.3,0.4h9.4c0.2,0,0.4-0.2,0.5-0.4
					l8.1-37.8C154.8,283.4,154.7,283.2,154.5,283.2z"/>
			</g>
		</g>
		<g>
			<path class="st5" d="M237.1,286.5c-2.5-2.8-6.1-4.2-10.9-4.2c-11.5,0-21.9,8.1-24.4,20.2c-0.2,1.1-0.4,2.3-0.5,3.3
				c-0.4,5.1,1.1,9.3,4,12.3c2.9,2.9,7.2,4.6,12.4,4.6l0,0c6,0,11.7-2.1,17.3-7.5H235c0.4-0.4,0.2-0.7,0-0.9l-5.2-4.7
				c-0.4-0.3-0.8-0.1-1,0c-2.9,2.8-5.9,4.7-10.4,4.8c-4.9,0-8.2-2.9-7.9-7.9c0.1-0.2,0.3-0.3,0.3-0.3l0,0h27.1v0
				c1,0,1.1-0.2,1.2-0.9l0,0l0.4-2c0.4-1.6,0.6-3.2,0.7-4.7C240.7,293.4,239.6,289.3,237.1,286.5z M230.5,297.8L230.5,297.8
				c0,0,0,0.4-0.5,0.6h-17.5c-0.2-0.2,0-0.6,0-0.6l0,0c2-4.7,5.8-7.7,10.9-7.7c2.6,0,4.5,0.7,5.7,1.9c1.2,1.2,1.7,2.9,1.6,5.1
				C230.6,297.3,230.6,297.6,230.5,297.8z"/>
		</g>
		<g>
			<path class="st5" d="M296,282.5H284c-0.2,0-0.2-0.1-0.2-0.1l2.4-10.2c0.1-0.5-0.1-0.6-0.6-0.6l0,0h-8.8c-0.7,0-0.8,0.2-0.9,0.5
				l0,0.1c0,0.1,0,0.1,0,0.2l0,0l-2.2,10.2l0,0l-1.9,9.1l0,0l-3.7,17.3c-0.3,1.6-0.6,3.1-0.6,4.4c-0.3,3,0.2,5.4,1.9,7
				c1.7,1.6,4.4,2.3,8.6,2.3c2.2,0,5.5-0.3,7.7-1.2v0c0.4-0.2,0.4-0.3,0.4-0.5l0.1,0l1.7-8.3v0c0-0.2-0.2-0.1-0.2-0.1l0,0l-0.5,0.3
				c-1.3,0.8-3.6,1.2-5.2,1.2c-1.7,0-2.6-0.4-3.2-1c-0.6-0.6-0.8-1.6-0.7-2.9c0-0.6,0.1-1.2,0.3-1.8l3.5-16.1c0-0.1,0.1-0.1,0.2-0.1
				h9.8c0.2-0.1,0.3-0.2,0.4-0.3h0.1l3.9-8.8C296.4,282.6,296.3,282.5,296,282.5z"/>
		</g>
		<g>
			<path class="st5" d="M268.4,282.5h-0.2l0,0l0,0c0,0,0.3,0-0.5,0H267c-0.4,0-0.8,0-1.3,0l0,0h-5.8l0,0c-4.3,0.2-7.9,2.3-9.9,4.5
				c-3.6,3.8-4.9,10-6.1,15.1l0,0l0,0.1l-4.1,19.1c0,0.3,0.1,0.4,0.5,0.5h8.8c0.5-0.1,0.8-0.3,0.9-0.6l4.3-19.6
				c0.5-1.9,0.9-4.6,2.1-6.4c1.1-1.8,2.9-3.2,6.3-3.2h3.8c0.3,0,0.4-0.2,0.5-0.5l1.8-8.7"/>
		</g>
		<g>
			<path class="st5" d="M328.6,286.5c-2.4-2.8-6.1-4.2-10.8-4.2c-11.6,0-21.9,8.1-24.5,20.2c-0.2,1.1-0.4,2.3-0.5,3.3
				c-0.4,5.1,1.1,9.3,4,12.3c2.9,2.9,7.1,4.6,12.4,4.6l0,0c6,0,11.8-2.1,17.3-7.5h0c0.4-0.4,0.2-0.7,0-0.9l-5.2-4.7
				c-0.4-0.3-0.8-0.1-1,0c-2.9,2.8-5.9,4.7-10.3,4.8c-4.9,0-8.2-2.9-8-7.9c0.1-0.2,0.3-0.3,0.3-0.3l0,0h27.1v0c1,0,1.1-0.2,1.2-0.9
				l0,0l0.5-2c0.3-1.6,0.6-3.2,0.6-4.7C332.1,293.4,331,289.3,328.6,286.5z M322,297.8L322,297.8c0,0,0,0.4-0.5,0.6H304
				c-0.2-0.2,0-0.6,0-0.6h0c2-4.7,5.9-7.7,10.9-7.7c2.6,0,4.5,0.7,5.6,1.9c1.2,1.2,1.7,2.9,1.6,5.1
				C322.1,297.3,322.1,297.6,322,297.8z"/>
		</g>
	</g>
	<g>
		<path class="st5" d="M325.6,334c-12.6,0-19.1-2.6-19.3-2.7l0,0c0,0,4.2,0.8,11.4,0.8c9.8,0,25.5-1.5,44.2-8.6
			c24.4-9.3,40.3-23,42.6-34.2c0.6-2.7,0.1-4.9-1.4-6.9c-5.1-6.3-20-6.7-24.5-6.7c-1.2,0-1.8,0-1.8,0l-0.2-1.9
			c0.2,0,3.2-0.3,7.6-0.3c8.9,0,20.6,1.3,25.9,7.2c2.2,2.5,3.2,5.5,2.8,9.1c-1.4,12.8-23,29.3-49.2,37.7
			C350,331.8,337.2,334,325.6,334L325.6,334z"/>
	</g>
</g>
<g>
	<g>
		<path class="st5" d="M149.1,221.7c0.8,12.5,7.6,18.4,19.5,18.4c10.9,0,18.3-6.4,20.2-16.1c0,0,0.3-2,0.4-3.5c0-0.6,0-1.1,0-1.6
			c0-5.6-1.9-10.6-5.1-14.2c-3.2-3.6-7.4-5.8-12.9-5.8c-6.9,0-10.1,3.2-12.1,5.6l-0.1,0.1v-23.1c0-0.3-0.3-0.6-0.6-0.6h-8.6
			c-0.4,0-0.6,0.3-0.6,0.6L149.1,221.7L149.1,221.7z M168.9,208.5c6.7,0,10.4,5.3,10.4,11.1c0,6.4-3.7,11-10.4,11
			c-6.8,0-10.2-4.4-10.2-11C158.7,213.7,162.1,208.5,168.9,208.5"/>
	</g>
	<g>
		<path class="st5" d="M193.6,237.3c0,0.4,0.3,0.6,0.6,0.6h8.6c0.4,0,0.6-0.3,0.6-0.6v-55.7c0-0.3-0.3-0.6-0.6-0.6h-8.6
			c-0.3,0-0.6,0.3-0.6,0.6V237.3z"/>
	</g>
	<g>
		<path class="st5" d="M218.7,222.4c0,0-0.2,0-0.2,0.2l-0.4-0.1l0.5-0.3L218.7,222.4z"/>
	</g>
	<g>
		<path class="st5" d="M284.4,199.9h-8.9c-0.3,0-0.7,0.3-0.8,0.6l-8.9,24.9c-0.1,0.3-0.3,0.3-0.5,0l-8.9-24.9
			c-0.1-0.3-0.5-0.6-0.8-0.6h-9.3c-0.3,0-0.7,0.3-0.7,0.6c0.1,0.1,0.1,0.2,0.1,0.3l14.3,36.6c0.1,0.3,0.5,0.6,0.9,0.6h9.1
			c0.3,0,0.7-0.3,0.9-0.6l13.9-36.9C284.9,200.1,284.7,199.9,284.4,199.9"/>
	</g>
	<g>
		<path class="st5" d="M228.7,198.9c-5.8,0-10.9,2-14.7,5.5c-3.7,3.5-5.4,8.5-5.4,14.5c0,6,1.7,11,5.4,14.5
			c3.8,3.5,8.9,5.5,14.7,5.5l0,0c5.9,0,10.8-2.1,15.2-7.2v0c0.2-0.2,0.2-0.6,0-0.9l0,0l-6.1-4.6l-0.1,0c-0.2-0.2-0.7-0.2-0.9,0
			c-2.3,2.7-4.6,4.7-9.1,4.7c-5.1,0-8.5-3.2-9.2-8.5h25.2v0h1.6c0.3,0,0.6-0.3,0.6-0.6v-1.4h0v-0.8c0-6.6-1.8-11.8-4.9-15.3
			C237.8,200.8,234,198.9,228.7,198.9 M235.9,214.9L235.9,214.9l-17.3,0v0c0,0,0-0.1,0-0.1c0.8-5.1,4.1-8.4,8.7-8.4
			c5.7,0,8.5,3.2,8.7,8.4C236,214.8,236,214.9,235.9,214.9 M297.9,199.9h-8.6c-0.3,0-0.6,0.3-0.6,0.6v36.8c0,0.4,0.3,0.6,0.6,0.6
			h8.6c0.3,0,0.6-0.3,0.6-0.6v-36.8C298.5,200.1,298.3,199.9,297.9,199.9 M373.2,192.8h6.7c0.3,0,0.8-0.2,1-0.4l10.6-10.9
			c0.3-0.2,0.2-0.4-0.2-0.4h-10.1c-0.3,0-0.6,0-0.6,0c0,0-0.2,0.3-0.4,0.6l-7.3,10.6C372.8,192.5,372.9,192.8,373.2,192.8
			 M127.6,198.9c-5.9,0-11.1,1.8-15.3,5.9c-0.1,0.2-0.2,0.5,0,0.8l4.5,4.5c0.2,0.2,0.6,0.2,0.8,0c2.4-2.2,5.3-3.6,9-3.6
			c5,0,8.4,2.3,8.4,6.8v0.8h-2.1c-4.7,0-10.7,0.2-15.5,1.9c-4.8,1.8-7.8,5.1-7.8,11.3c0,7.7,6.3,11.5,13.3,11.5l0,0
			c5,0,9.4-1.8,12.1-5.9v1.9c0.2,1.4,0.9,3.1,3.1,3.1h5.2c0.4,0,0.6-0.3,0.6-0.6v-1.6l0,0v-19.7c0-2.7,0-6.9-2.1-10.6
			C139.8,201.8,135.7,198.9,127.6,198.9 M134.5,223c0,5.1-2.9,8.4-9.3,8.4c-1.5,0-2.5-0.4-3.7-1.1c-1.2-0.8-2-1.9-2-3.6
			c0-2.6,1.4-3.9,4.3-4.7c2.8-0.8,6.3-0.8,8.8-0.8h1.8V223z M346.2,181.1c-3.4,0-5.9,2.6-5.9,5.6c0,2.9,2.5,5.6,5.9,5.6
			c3.4,0,6-2.4,6-5.6C352.3,183.4,349.6,181.1,346.2,181.1 M433.1,203.5c-2.2-2.8-5.7-4.6-10.8-4.6c-5.9,0-9.5,2.8-11.4,6.4
			c0,0.1-0.1,0-0.1,0v-4.8c0-0.3-0.3-0.6-0.6-0.6H402c-0.3,0-0.6,0.3-0.6,0.6v36.9c0,0.4,0.3,0.6,0.6,0.6h8.6c0.3,0,0.6-0.3,0.6-0.6
			v-20.1c0-4.9,2.4-9.3,8.4-9.4c3.2,0,4.8,1.7,5.7,3.9c0.9,2.2,1,4.9,1,7v17.1v1.6c0,0.4,0.3,0.6,0.6,0.6h8.6c0.3,0,0.6-0.2,0.6-0.6
			V214C436.2,210.1,435.3,206.3,433.1,203.5 M376.1,198.9c-5.7,0-10.3,2-14,5.5c-3.8,3.5-5.4,8.5-5.4,14.5c0,6,1.7,11,5.4,14.5
			c3.7,3.5,8.3,5.5,14,5.5c5.8,0,10.3-2,14-5.5c3.7-3.5,5.4-8.5,5.4-14.5c0-5.9-1.7-10.9-5.4-14.5
			C386.4,200.9,381.9,198.9,376.1,198.9 M376.1,230c-6.8,0-9.6-5.3-9.6-11.1c0-5.8,2.8-11.1,9.6-11.1c6.8,0,9.6,5.3,9.6,11.1
			C385.7,224.7,382.8,230,376.1,230 M293.5,181.1c-3.4,0-5.9,2.6-5.9,5.6c0,2.9,2.5,5.6,5.9,5.6c3.4,0,6-2.4,6-5.6
			C299.5,183.4,296.9,181.1,293.5,181.1 M350.6,199.9h-8.6c-0.4,0-0.6,0.3-0.6,0.6v36.8c0,0.4,0.3,0.6,0.6,0.6h8.6
			c0.3,0,0.6-0.3,0.6-0.6v-36.8C351.2,200.1,350.9,199.9,350.6,199.9 M325.3,215.4c-2.5-0.6-5.1-1.1-7-1.7c-1.9-0.7-3-1.5-3-3
			c0-1.3,0.6-2.3,1.7-2.9c1-0.6,2.3-0.9,3.6-0.9c3,0,5.3,1.2,7,3.5c0.3,0.2,0.6,0.2,0.9,0h0l5.6-5.1v0c0.3-0.3,0.3-0.6,0-0.9v0
			c-3.1-3.9-8.4-5.4-13.3-5.4c-3.8,0-7.7,0.9-10.5,3c-2.9,2-4.8,5.1-4.8,9.4c0,7.3,5.2,9.5,10.3,10.7c2.5,0.6,5.1,1,6.9,1.8
			c1.9,0.7,3,1.7,3,3.5c0,1.4-0.8,2.4-2,3.1c-1.2,0.7-2.7,1-4.1,1c-3.8,0-6.1-1.8-8.5-4.3h0c-0.3-0.2-0.6-0.2-0.9,0l-5.2,4.9
			l-0.4,0.4c-0.2,0.2-0.3,0.6,0,0.9l1,1c3.7,3.4,8.3,4.6,13.6,4.6h0c3.8,0,7.9-0.8,11.1-2.7c3.2-2,5.3-5.1,5.3-9.6
			C335.6,219.1,330.4,216.7,325.3,215.4"/>
	</g>
	<g>
		<path class="st5" d="M88.3,190L88.3,190c5.2,0.4,8.1,1.9,11.9,6.7c0.4,0.5,0.6,0.7,1.2,0.3l6-4.5c0.5-0.4,0.5-0.8,0.4-1.1l0,0
			c-4.2-6.6-9.8-9.3-14.2-10.2c-0.9-0.2-3-0.5-4.8-0.5c-7.8,0-14,3-18.8,8.1c-4.8,5.2-7,12.6-7,21.6c0,8.7,2.2,16,7,21.1
			c4.7,5.1,10.9,8,18.8,8c7.2,0,13.5-2.4,18.2-8.9l0,0c0.4-0.5,0.4-0.9,0.1-1.1l-6.7-5.2c-0.4-0.2-0.8,0-1,0.2
			c-3.2,4.3-6.6,5.8-10.5,5.8c-10.3,0-16-8.7-16-20.4C72.8,199.3,78,190,88.3,190"/>
	</g>
</g>
</svg>
