<?xml version="1.0" encoding="utf-8"?>
<!-- Generator: Adobe Illustrator 24.0.3, SVG Export Plug-In . SVG Version: 6.00 Build 0)  -->
<svg version="1.1" id="Capa_1" xmlns="http://www.w3.org/2000/svg" xmlns:xlink="http://www.w3.org/1999/xlink" x="0px" y="0px"
	 viewBox="0 0 512 512" style="enable-background:new 0 0 512 512;" xml:space="preserve">
<style type="text/css">
	.st0{opacity:0.5;}
	.st1{fill:#1BBB9A;}
	.st2{fill:#9A58B4;}
	.st3{fill:#FFA052;}
	.st4{fill:#FDD250;}
	.st5{fill:#FFFFFF;}
</style>
<g class="st0">
	<path class="st1" d="M180.3,0C79.6,0.5,29.1,173.6,10.2,262.6S11,534.1,157.3,509.8c23.6-3.9,29.2-4.7,48.6-14.5
		c34.7-17.4,75.7-29.7,112.8-33.4c15.2-1.5,34.4-6.5,44.6-8.4c81.6-14.7,164.9-93.8,139.7-176.6c-18.9-62.2-74.4-123.3-130-119.8
		c-30.5,1.9-63-16-69.5-35.8C282.4,56.9,258-0.4,180.3,0L180.3,0z"/>
</g>
<path class="st2" d="M76.4,19.1h-4.6v-4.6c0-4.2-3.3-7.6-7.6-7.6c-4.2,0-7.6,3.3-7.6,7.6v4.6h-4.6c-4.2,0-7.6,3.3-7.6,7.6
	s3.3,7.6,7.6,7.6h4.6v4.6c0,4.2,3.3,7.6,7.6,7.6s7.6-3.3,7.6-7.6v-4.6h4.6c4.2,0,7.6-3.3,7.6-7.6S80.5,19.1,76.4,19.1z"/>
<path class="st3" d="M451.2,421.3h-3v-3c0-2.8-2.2-5-5-5s-5,2.2-5,5v3h-3c-2.8,0-5,2.2-5,5s2.2,5,5,5h3v3c0,2.8,2.2,5,5,5s5-2.2,5-5
	v-3h3c2.8,0,5-2.2,5-5S453.9,421.3,451.2,421.3z"/>
<path class="st4" d="M44.2,89.9h-4.1v-4.1c0-3.8-3-6.8-6.8-6.8s-6.8,3-6.8,6.8v4.1h-4.1c-3.8,0-6.8,3-6.8,6.8c0,3.8,3,6.8,6.8,6.8
	h4.1v4.1c0,3.8,3,6.8,6.8,6.8s6.8-3,6.8-6.8v-4.1h4.1c3.8,0,6.8-3,6.8-6.8C51,92.9,47.9,89.9,44.2,89.9z"/>
<g>
	<g>
		<path class="st5" d="M428.4,205.2c-1.7-1.7-3.6-2.6-5.8-2.4c-2.9,0-6.1,2.1-9.5,5.8c-2.7,3.3-5,6.7-6.4,10.2
			c-0.7,1.9-1.9,4.7-3.1,8.6l-4.2,9.3c-1,2.1-1.9,5.5-2.8,10.2l-2.7,10.1v1.5l-0.2,1.2l-3.1,6.2l-2.8,3.6l-6.9,6.7l-3.5,2.1
			c-0.9,0-1.6,0.5-2.6,1.2c-0.9,0.7-1.5,1-2.3,1.2c-1.9,0.2-3.4-2.4-3.9-7.6l-0.5-2.1l-2.1-2.6c-2.2-2.2-4.2-3.1-5.9-2.9
			c-1.7,0.3-3.2,1.5-4.6,3.5l-5.8,9.8c-1.6,1.7-3.1,2.4-4.8,2.2c2.2-6.9,4.3-11.8,6.2-14.9c1.4-2.1,3-3.8,4.3-4.8l5.5-0.2l2.6,3.6
			c1,1.4,2.2,1.9,3.6,1.6c1-0.2,1.9-0.8,2.4-1.6c0.5-0.9,0.9-1.7,0.9-2.7c-0.2-1.9-1.4-4-3.3-6c-2.2-2.3-4.7-3.6-7.4-4.1
			c-3.1-0.4-6.2-0.2-9,0.9c-1.6,0.5-3.1,1-4.1,2.1c-0.7,0.3-1,0.9-1.6,1.4l-1.4,1.7c-1.2,0.5-2.1,1.4-3.1,3.1l-7.2,17.9
			c-0.5,1.7-0.4,3.3,0.3,4.5l1.4,3.8c0.4,1,0.9,1.9,1.4,2.8c1.4,1.5,3.1,2.6,5,2.9c4.1,0.9,8.3-0.9,12.6-4.5l7.2-5.7
			c0.3-0.2,0.9,0.3,1.4,1.5l0.5,1.7l1.5,1.5l4.8,3.8c1.2,0.8,2.6,1.2,4,1.2c2.6,0.2,5.2-0.5,7.6-1.7l2.9-1.8l2.6-2.2
			c1.4-0.8,2.2-1.2,3.1-1.2c0.2,0,0.5,0,0.7,0.4l0.2,0.8l1.4,12.9l2.3,9.5c1,2.6,2.6,4.7,4.8,6.2c2.2,1.7,4.6,2.6,7.3,2.6
			c1.7-1.5,1.7-4-0.2-7.4c-1.5-2.6-2.2-5-2.4-7.4l-0.5-21.2c-0.3-4.1,0-7.4,0.9-9.8c0.8-2.3,2-4.8,4.3-7.8l5.3-7.7l4.7-9.2
			l11.7-28.2c1-3.1,1.2-6,0.9-8.4C430.8,208.8,429.8,206.9,428.4,205.2z M412.8,227.6c0.5-2.1,1-3.5,1.3-4.3
			c1.2-2.2,3.3-4.8,6.2-7.6h0.5v1.6l-0.9,2.6l-7.1,17.8l-3.8,7.4c-0.3,1.4-1.1,2.4-1.5,2.7l-0.5,0.2l-0.2-0.4l-0.2-1l2.2-10.4
			c0.5-1.5,1-2.9,1.5-4.1L412.8,227.6z"/>
	</g>
	<g>
		<path class="st5" d="M333.1,290.5l-2.8-3.3c-1.5-2.4-2.6-5.3-3.2-9.2l-1.2-10.3l-2.6-8.6c-1-1.7-2.8-3.1-5-4l-6.2-0.2l-3.3,2.1
			c-1.2,0.8-2.4,1.7-3.3,2.6c-0.7,0.9-1.4,2.1-2.1,3.8l-1.9,4c-0.9-0.5-1.4-1.4-1.4-2.8l0.2-1.5l-0.2-1.7l-3.1-8.3
			c-1.3-2.2-3-4.5-5-6.4c-2.3-1.7-4.8-3.1-7.5-3.6c-1.2-0.4-2.7-0.4-4.8,0l-4.2,0.3c-2.1,0.5-3.8,1.6-5.2,3.1l-3.6,5.4
			c-1.4,2.4-2.6,4.1-3.8,5.2c-0.9,0.7-1.7,1.9-2.6,3.2l-3.9,8.5l-2.1,3.6c-0.9,1.5-1.2,4.3-1.2,7.9c0,2.9,0.5,5.2,1.7,7.3
			c1.6,2.6,3.6,4.3,6.4,5.5c3.8,1.4,6.7,1.9,9,1.4c0.8-0.2,2-0.7,3.6-1.7l2.9-1.5c1.5-1,2.6-2.4,3.1-4.5c1-3.1,1-7.4,0.1-12.7
			c-0.8-3.4-1.4-6-1.5-7.7c-0.2-3.1,0.5-5.5,2-7.4l1.1-1.4c0.3-0.5,0.3-1.2,0-1.7l-0.7-1.4c-0.1-0.7,0.1-0.9,0.9-0.9
			c1.9-0.2,3.6,0.5,4.6,2.2c1,1.4,1.7,3.5,2.1,6l1.7,21.5c0.2,1.7,0.4,3.1,1.1,4.3c1,2,2.7,3.4,5.1,4.3c2.2,0.7,4.5,0.5,6.5-0.5
			c2.1-1,3.6-2.7,4.5-5.1l1.7-7.1c0.5-3.1,1.2-5.3,2.2-6.7l1.2-1.5l0.5-0.2l0.7,0.8c0.8,0.7,1.5,1.7,1.9,2.8
			c0.5,1.2,1.4,3.4,2.3,7.2c0.8,3.1,1.8,5.5,2.9,7.1c1.7,2.4,4,4.1,6.4,5.1c2.8,1,5.4,1.4,7.9,0.7v-0.4L333.1,290.5z M268.9,265.5
			c1.8,0,2.6,2.1,2.4,6.2c-0.4,3.5-1.2,6.7-2.2,10.2c-0.7,1.4-1.2,2.4-1.8,2.7c-1,0.9-1.7,1.1-2.5,0.7c-0.9-0.2-1.2-0.9-1.2-2.2
			c-0.2-1.2,0-2.9,0.5-4.9l1.3-4.8C266.3,270.3,267.5,267.7,268.9,265.5z"/>
	</g>
	<g>
		<path class="st5" d="M135.3,206.6c-1.9-1.5-4.5-3.6-7.7-5.7c-1.9-1.2-4.8-2.6-9-4c-2.2-0.8-3.8-1.2-4.8-1.5l-4.8-0.7
			c-1.5-0.5-3.3-0.9-5-0.9h-5l-11.6,1.8c-1.7,0.2-3.3,0.5-4.1,1.4c-0.7,0.9-1.4,2.3-1.9,3.5c-0.5,1.4-0.7,2.6-0.5,3.8
			c0.3,1.2,1,2.1,2.2,2.8c1.6,0.9,3.4,1,5.5,1l16-1.9l14.8,1.9c1.7,0.3,3,0.7,4.2,1.2c2.1,0.8,4.3,2.7,6.6,5.5
			c2.2,2.6,3.2,5.2,3.1,7.8c-0.4,2.6-1.6,4.8-4.2,7.1l-6.2,4.8c-3.1,1.9-5.3,2.8-7.1,2.8l1.2-2.9l0.7-3l0.3-6.7l1.2-2.9l0.3-2.9
			c0.2-1.4-0.2-2.9-1-4.7c-1-2.4-2.6-4.1-4.5-4.6l-3.3-0.1c-1.2,0.4-2.2,1-2.9,1.9c-1.4,1.4-2.1,3.6-2.4,6.4l-3.1,18.9
			c-0.7,2.4-1.6,3.9-3,4.6c-1.2,0.7-2.6-0.2-4.1-2.7l-1.7-2.6c-0.9-0.9-1.6-1.2-2.6-1.5c-2.1-0.4-3.5,0.1-4.5,1.7
			c-1,1.9-1.2,3.8-0.1,5.9c0.7,1.9,2,3.4,4,4.8c0.7,0.4,2,1,3.8,1.7l3.8,1.9c1.6,0.9,2.1,2.6,1.7,5c0,1-0.5,3.3-1.4,6.6l-5.7,37.9
			l-1.2,3.5c-0.5,1.1-0.3,2.4,0.5,3.4c1.2,1.7,3.3,2.6,5.9,2.8c2.7,0.2,4.7-0.7,5.9-2.8c1-1.4,1.5-3.4,1.9-6l0.8-9.5
			c0.4-4.2,0.9-7.8,1.6-10.9l2.4-10.5c0.5-3.3,0.9-6.6,0.9-9.1c0.3-3.3,0.5-5.4,1.1-6.7c0.7-1.9,2.6-3.3,5.4-4.3l9.3-2.9
			c2.1-0.9,4.7-2.6,8.1-5c3.2-2.3,5.3-4.5,6.9-6.2c3.4-4.3,4.3-9.5,2.6-15.5C143,214.8,140,210.4,135.3,206.6z"/>
	</g>
	<g>
		<path class="st5" d="M251.1,249.3c0.2-1.1-0.1-2.3-0.8-3.3c-0.7-1-1.5-1.9-2.6-2.4c-1.2-0.5-2.6-0.9-3.8-0.9
			c-1.2,0.2-2.4,0.5-4,1.2l-2.6,0.8c-0.8,0.5-1.4,0.9-1.5,0.9l-1,1.2l-1.4,0.5l-2.6,4.3l-0.9,0.9c-0.4,0.4-0.4,0.7-0.4,0.9l-0.7,1.9
			c-1,1.6-1.9,2.8-1.9,3.4c-0.2,1-0.2,2.4,0,3.8c0.4,2.8,1.2,5.5,3,8.3l4.8,7.4c2,3,2.9,5.7,2.5,7.9c-0.1,1.5-1.7,2.9-4.5,4
			l-6.2,0.4l-3.8-1.2c-1.5-0.3-2.6,0-3.6,0.9c-0.1,0.9-0.1,2.1,0,3.1l3.5,5.8c0.8,1.2,2.6,1.9,5.5,2.3c5,0.5,9.3,0,12.9-1.2
			c2.3-0.9,4.3-1.9,5.7-3.6c1.7-1.7,2.8-3.6,3.1-6c0.7-3.7-0.7-7.8-4.1-12.1l-3.6-5.5c-1.4-2-2.3-3.9-2.4-6
			c-0.4-2.9,0.2-5.3,1.9-7.6c0.9-1.4,2.8-3,5.5-4.8C249.8,252.8,251.1,251,251.1,249.3z"/>
	</g>
	<g>
		<path class="st5" d="M226.1,255.3c0.3-0.5,0.5-1.5,0-2.8c-0.3-1.7-0.9-2.6-1.4-2.9c-3.8-1.4-6.9-1.9-9.5-1.4
			c-2.1,0.2-4.3,1.4-6.6,3.4l-5.7,5.4l-4.6,5.8c-1.7,2.6-3.8,4.3-5.5,5l-1.2-3.1c-0.2-0.5-0.6-1.7-0.6-3.3c-0.2-2.1-1-3.8-2.6-5
			c-1.5-1.4-3.1-2.1-5.1-2.2c-2.1-0.4-3.8,0-5.2,0.8l-2.4,2.2l-1.9,2.6l-4.3,4.6c-1.7,1.7-4.5,5.2-8.8,10.5l-6,7.8
			c-2.4,2.8-4.3,3.8-6.2,3.3c-2.1-0.5-3.3-2.1-3.8-4.7c-0.3-2.5,0.2-4.3,1.7-5.7l13.4-6.7l6-4.2l3-2.7c0.4-2.8-0.2-5.3-1.9-8.1
			c-1.4-2.4-3.3-4.5-5.9-6.2c-2.6-1.8-5.1-2.6-7.9-3c-3.1-0.2-5.9,0.5-8.5,2.1c-5,3.1-8.6,7.9-10.7,14.1l-0.8,2.6l-0.5,0.9l-0.9,0.3
			h-3.8l-2,0.5c-0.5,0.2-0.8,0.9-0.8,1.6c-0.2,1.2,0.1,2.4,0.7,3.6l2.8,3.1l2.3,2.1c0.6,0.7,1,1.9,1.3,4l1.7,3.8
			c2.6,5.7,5.5,9.5,9,11.2c4.3,2.2,8.6,2.8,12.6,1.4c3-0.9,6.1-2.9,9.1-6.2l7.8-9.3c3.1-3.8,6-6.4,9-7.9l1.2,6.9l0.3,5l-0.3,4.6
			c0,1.9,0.3,3.5,0.9,4.7c1.2,2.2,2.9,3.6,5.1,4.1c2.4,0.4,4.3-0.7,6-3.1l3.5-8l5.2-6.9l4.3-8.8c1.7-3.3,3.5-6.2,5.5-8.1
			c1.7-1.9,3.6-3.3,6-4.7l5.5-2.2L226.1,255.3z M158.7,255.5c0.3,1.1,0.1,1.9-0.2,2.8c-0.1,1.4-1.2,2.6-3.1,3.8l-7.6,4.8
			c-1.4,0.7-2.6,1-3.6,1.2l-0.8-0.2c-0.2-0.2-0.4-0.2-0.4-0.7l0.4-1.3c0.1-0.7,0.5-1.6,1.2-2.2l3.5-4.8c1.5-2.4,2.7-4.1,4.1-5
			c1.9-1.7,3.8-1.9,5.3-0.5C158.1,253.8,158.4,254.6,158.7,255.5z"/>
	</g>
</g>
</svg>
