<svg id="Capa_1" enable-background="new 0 0 512 512" height="512" viewBox="0 0 512 512" width="512" xmlns="http://www.w3.org/2000/svg" xmlns:xlink="http://www.w3.org/1999/xlink"><linearGradient id="SVGID_1_" gradientUnits="userSpaceOnUse" x1="508.537" x2="-41.463" y1="4.132" y2="408.132"><stop offset=".0023" stop-color="#ffc599"/><stop offset=".992" stop-color="#ffe8dc" stop-opacity="0"/></linearGradient><g><path d="m512 189.635c0-77.209-114.615-139.799-256-139.799s-256 62.59-256 139.799c0 12.48 2.999 24.577 8.62 36.089 10.007 20.491 12.502 43.828 7.537 66.086-2.036 9.127-3.179 18.59-3.333 28.294-1.235 77.812 61.961 142.061 139.782 142.06 58.443 0 108.503-35.865 129.385-86.785 11.468-27.964 35.565-48.919 65.155-55.077 96.38-20.057 164.854-70.992 164.854-130.667z" fill="url(#SVGID_1_)"/><g><path d="m430.46 321.596h-269.544v-148.562c0-16.478-5.868-22.346-13.107-22.346s-13.107 5.868-13.107 13.107v157.802h-14.477c-11.339 0-20.532 9.192-20.532 20.532v47.703c0 11.339 9.192 20.532 20.532 20.532h.789v23.807c0 5.669 4.596 10.266 10.266 10.266h288.126c5.67 0 10.266-4.596 10.266-10.266v-23.807h.789c11.339 0 20.532-9.192 20.532-20.532v-47.703c-.001-11.341-9.193-20.533-20.533-20.533z" fill="#00c" opacity=".1"/><g fill="#00c" opacity=".1"><path d="m198.802 188.608c.833.505 1.75.745 2.658.745 1.735 0 3.428-.88 4.394-2.471 5.07-8.359 7.75-17.955 7.75-27.75s-2.68-19.39-7.75-27.75c-1.471-2.422-4.625-3.197-7.051-1.726-2.424 1.47-3.197 4.627-1.727 7.051 4.097 6.754 6.263 14.508 6.263 22.425s-2.165 15.672-6.263 22.425c-1.47 2.424-.697 5.581 1.726 7.051z"/><path d="m182.134 174.194c.832.504 1.75.745 2.657.745 1.735 0 3.429-.88 4.394-2.472 2.436-4.018 3.724-8.629 3.724-13.335s-1.288-9.317-3.724-13.335c-1.471-2.423-4.628-3.198-7.051-1.726-2.424 1.47-3.197 4.627-1.727 7.051 1.464 2.412 2.237 5.182 2.237 8.011s-.773 5.599-2.237 8.012c-1.47 2.423-.697 5.579 1.727 7.049z"/><path d="m216.341 201.944c.832.505 1.75.745 2.657.745 1.735 0 3.429-.88 4.394-2.471 7.507-12.377 11.475-26.583 11.475-41.085s-3.968-28.71-11.475-41.086c-1.471-2.423-4.628-3.198-7.051-1.726-2.424 1.47-3.197 4.627-1.727 7.051 6.533 10.771 9.987 23.137 9.987 35.761s-3.454 24.99-9.987 35.761c-1.47 2.423-.697 5.58 1.727 7.05z"/><path d="m92.536 159.132c0-7.917 2.165-15.671 6.263-22.425 1.47-2.424.697-5.581-1.727-7.051-2.422-1.47-5.58-.697-7.051 1.726-5.071 8.359-7.75 17.955-7.75 27.75s2.681 19.391 7.75 27.75c.966 1.592 2.659 2.471 4.394 2.471.906 0 1.826-.24 2.658-.745 2.423-1.47 3.196-4.627 1.726-7.051-4.097-6.753-6.263-14.508-6.263-22.425z"/><path d="m111.084 174.939c.906 0 1.825-.241 2.657-.745 2.424-1.47 3.197-4.627 1.727-7.051-1.464-2.413-2.237-5.183-2.237-8.012s.773-5.599 2.237-8.011c1.47-2.424.697-5.581-1.727-7.051-2.425-1.472-5.581-.696-7.051 1.726-2.436 4.018-3.724 8.629-3.724 13.335s1.288 9.317 3.724 13.335c.965 1.594 2.658 2.474 4.394 2.474z"/><path d="m79.534 116.32c-2.423-1.469-5.58-.697-7.051 1.726-7.507 12.376-11.475 26.583-11.475 41.086 0 14.502 3.968 28.709 11.475 41.085.966 1.592 2.659 2.471 4.394 2.471.906 0 1.826-.24 2.657-.745 2.424-1.47 3.197-4.627 1.727-7.051-6.533-10.771-9.987-23.137-9.987-35.761 0-12.625 3.454-24.991 9.987-35.761 1.47-2.422.697-5.579-1.727-7.05z"/></g><g><path d="m419.406 416.717h-288.126c-5.67 0-10.266-4.596-10.266-10.266v-34.147h308.657v34.147c.001 5.67-4.596 10.266-10.265 10.266z" fill="#4d4dff"/><path d="m121.014 372.305h308.657v27.303h-308.657z" fill="#2c27ff"/><g><path d="m160.916 356.345h-26.214v-220.268c0-7.239 5.868-13.107 13.107-13.107 7.239 0 13.107 5.868 13.107 22.346z" fill="#ff6c6c"/><path d="m134.702 169.561h26.214v20.189h-26.214z" fill="#ffc599"/><path d="m430.46 382.645h-310.235c-11.339 0-20.532-9.192-20.532-20.532v-47.703c0-11.339 9.192-20.532 20.532-20.532h310.235c11.339 0 20.532 9.192 20.532 20.532v47.703c0 11.34-9.192 20.532-20.532 20.532z" fill="#b3b3ff"/><path d="m394.969 338.946 11.13-45.067h-261.512l11.13 45.067z" fill="#fff"/><path d="m430.46 288.879h-290.758v-152.802c0-4.47 3.637-8.107 8.106-8.107 3.698 0 8.107 3.009 8.107 17.346v114.562c0 2.761 2.238 5 5 5s5-2.239 5-5v-114.562c0-24.682-12.663-27.346-18.107-27.346-9.984 0-18.106 8.123-18.106 18.107v152.802h-9.477c-14.078 0-25.531 11.453-25.531 25.531v47.703c0 12.644 9.239 23.17 21.32 25.184v19.154c0 8.417 6.849 15.266 15.266 15.266h288.126c8.418 0 15.266-6.848 15.266-15.266v-19.154c12.082-2.014 21.32-12.54 21.32-25.184v-47.703c0-14.078-11.454-25.531-25.532-25.531zm15.532 73.234c0 8.564-6.968 15.531-15.532 15.531h-.788c-2.762 0-5 2.239-5 5v23.807c0 2.903-2.362 5.266-5.266 5.266h-288.126c-2.903 0-5.266-2.362-5.266-5.266v-18.807h269.656c2.762 0 5-2.239 5-5s-2.238-5-5-5h-275.444c-8.563 0-15.531-6.967-15.531-15.531v-47.703c0-8.564 6.968-15.531 15.531-15.531h310.234c8.564 0 15.532 6.967 15.532 15.531z" fill="#00c"/><g><g><circle cx="289.677" cy="317.219" fill="#ff9d33" r="7.443"/><circle cx="314.535" cy="317.219" fill="#ff9d33" r="7.443"/><circle cx="339.394" cy="317.219" fill="#8383ff" r="7.443"/><circle cx="364.252" cy="317.219" fill="#ff4d4d" r="7.443"/></g><g><path d="m178.991 324.149c-2.835 0-5.133-2.298-5.133-5.133v-3.593c0-2.835 2.298-5.133 5.133-5.133s5.133 2.298 5.133 5.133v3.593c0 2.835-2.298 5.133-5.133 5.133z" fill="#ff6c6c"/></g><g><path d="m201.576 324.149c-2.835 0-5.133-2.298-5.133-5.133v-3.593c0-2.835 2.298-5.133 5.133-5.133s5.133 2.298 5.133 5.133v3.593c0 2.835-2.298 5.133-5.133 5.133z" fill="#ff6c6c"/></g><g><path d="m224.16 324.149c-2.835 0-5.133-2.298-5.133-5.133v-3.593c0-2.835 2.298-5.133 5.133-5.133s5.133 2.298 5.133 5.133v3.593c0 2.835-2.297 5.133-5.133 5.133z" fill="#ff6c6c"/></g></g><g><path d="m386.113 361.855h-78.553c-2.835 0-5.133-2.298-5.133-5.133s2.298-5.133 5.133-5.133h78.553c2.835 0 5.133 2.298 5.133 5.133s-2.298 5.133-5.133 5.133z" fill="#6c6cff"/></g></g><g><g><g><path d="m201.459 161.502c-.884 0-1.778-.234-2.589-.726-2.36-1.432-3.113-4.507-1.682-6.868 4.11-6.774 6.282-14.553 6.282-22.494 0-7.942-2.172-15.72-6.281-22.494-1.433-2.361-.68-5.436 1.681-6.868 2.364-1.433 5.438-.679 6.868 1.682 5.059 8.338 7.732 17.91 7.732 27.681s-2.674 19.342-7.731 27.681c-.941 1.55-2.59 2.406-4.28 2.406z" fill="#00c"/></g><g><path d="m184.791 147.088c-.883 0-1.777-.234-2.588-.726-2.361-1.432-3.114-4.507-1.683-6.868 1.476-2.433 2.256-5.227 2.256-8.08s-.78-5.647-2.256-8.08c-1.432-2.361-.679-5.436 1.683-6.868 2.36-1.433 5.436-.678 6.868 1.682 2.424 3.997 3.705 8.584 3.705 13.266s-1.281 9.27-3.705 13.266c-.94 1.551-2.59 2.408-4.28 2.408z" fill="#00c"/></g><g><path d="m218.997 174.838c-.884 0-1.778-.234-2.589-.726-2.36-1.432-3.113-4.507-1.681-6.868 6.546-10.791 10.006-23.18 10.006-35.83s-3.46-25.039-10.006-35.83c-1.433-2.361-.68-5.436 1.681-6.868 2.363-1.433 5.438-.679 6.868 1.682 7.495 12.354 11.457 26.538 11.457 41.017s-3.962 28.662-11.457 41.016c-.94 1.55-2.588 2.407-4.279 2.407z" fill="#00c"/></g></g><g><g><path d="m94.415 161.502c-1.69 0-3.339-.856-4.28-2.407-5.058-8.338-7.731-17.91-7.731-27.681s2.674-19.343 7.732-27.681c1.433-2.36 4.509-3.113 6.868-1.682 2.36 1.433 3.113 4.507 1.681 6.868-4.109 6.774-6.281 14.552-6.281 22.494 0 7.941 2.172 15.72 6.282 22.494 1.432 2.361.679 5.436-1.682 6.868-.811.494-1.706.727-2.589.727z" fill="#00c"/></g><g><path d="m111.084 147.088c-1.689 0-3.339-.856-4.279-2.406-2.425-3.997-3.707-8.584-3.707-13.267s1.282-9.271 3.707-13.267c1.433-2.36 4.509-3.113 6.868-1.68 2.361 1.433 3.113 4.508 1.681 6.869-1.476 2.432-2.256 5.225-2.256 8.079s.78 5.647 2.256 8.079c1.433 2.361.681 5.436-1.681 6.869-.811.49-1.705.724-2.589.724z" fill="#00c"/></g><g><path d="m76.877 174.838c-1.69 0-3.339-.857-4.28-2.408-7.494-12.356-11.456-26.539-11.456-41.016s3.962-28.66 11.456-41.017c1.432-2.36 4.506-3.115 6.868-1.682 2.361 1.432 3.114 4.507 1.683 6.868-6.547 10.792-10.007 23.182-10.007 35.83s3.46 25.038 10.007 35.83c1.432 2.361.679 5.436-1.683 6.868-.811.493-1.705.727-2.588.727z" fill="#00c"/></g></g></g></g><g><path d="m229.733 248.057c-1.326 0-2.598-.527-3.535-1.464l-11.292-11.293c-1.953-1.953-1.953-5.119 0-7.071l11.292-11.292c1.951-1.952 5.119-1.952 7.07 0l11.292 11.292c1.953 1.953 1.953 5.119 0 7.071l-11.292 11.292c-.937.938-2.208 1.465-3.535 1.465zm-4.22-16.292 4.221 4.221 4.221-4.221-4.221-4.221z" fill="#ff6c6c"/></g><g><path d="m76.111 426.215c-1.326 0-2.598-.527-3.535-1.464l-11.293-11.292c-.938-.938-1.465-2.209-1.465-3.536s.526-2.598 1.465-3.536l11.293-11.292c.938-.938 2.209-1.464 3.535-1.464 1.326 0 2.598.527 3.535 1.464l11.292 11.292c1.953 1.953 1.953 5.119 0 7.071l-11.292 11.292c-.937.938-2.208 1.465-3.535 1.465zm-4.221-16.293 4.222 4.221 4.221-4.221-4.221-4.221z" fill="#ff9d33"/></g><g><path d="m375.544 191.728c-1.326 0-2.598-.527-3.535-1.464l-11.292-11.292c-1.953-1.953-1.953-5.119 0-7.071l11.292-11.292c1.951-1.952 5.117-1.952 7.07 0l11.293 11.292c.938.938 1.465 2.209 1.465 3.536s-.526 2.598-1.465 3.536l-11.293 11.292c-.937.936-2.209 1.463-3.535 1.463zm-4.221-16.293 4.221 4.221 4.222-4.221-4.222-4.221z" fill="#ff9d33"/></g><g><path d="m399.471 244.99c-7.292 0-13.225-5.933-13.225-13.225s5.933-13.225 13.225-13.225 13.225 5.933 13.225 13.225c-.001 7.292-5.933 13.225-13.225 13.225zm0-16.45c-1.778 0-3.225 1.447-3.225 3.225s1.446 3.225 3.225 3.225 3.225-1.447 3.225-3.225c-.001-1.778-1.447-3.225-3.225-3.225z" fill="#ff6c6c"/></g><g><path d="m147.809 89.015c-7.292 0-13.225-5.933-13.225-13.225s5.933-13.225 13.225-13.225 13.225 5.933 13.225 13.225c-.001 7.292-5.933 13.225-13.225 13.225zm0-16.45c-1.778 0-3.225 1.447-3.225 3.225s1.446 3.225 3.225 3.225 3.225-1.447 3.225-3.225c-.001-1.778-1.447-3.225-3.225-3.225z" fill="#6c6cff"/></g></g></g></svg>