<svg id="Capa_1" data-name="Capa 1" xmlns="http://www.w3.org/2000/svg" width="476" height="423.38" viewBox="0 0 476 423.38"><defs><style>.cls-1{fill:#fff;}</style></defs><title>icoNegocioConvergente</title><path class="cls-1" d="M418.3,254.1h-6V128a30,30,0,0,0-30-30H130.2a30,30,0,0,0-30,30v90h-6a17.93,17.93,0,0,0-18,18V392.1a17.93,17.93,0,0,0,18,18H322.3a6,6,0,0,0,6-6,30,30,0,0,0-30-30h-18v-36h72v54a17.93,17.93,0,0,0,18,18h48a17.93,17.93,0,0,0,18-18v-120A17.93,17.93,0,0,0,418.3,254.1ZM208.2,392.2a6,6,0,0,1-6,6H94.2a6,6,0,0,1-6-6v-6H208.3l-.1,6Zm0-18.1H88.2v-138a6,6,0,0,1,6-6h108a6,6,0,0,1,6,6Zm90.1,12a18,18,0,0,1,17,12H219.2a18.14,18.14,0,0,0,1.1-6v-6Zm-78.1-12v-36h12v36Zm24,0v-36h24v36Zm108.1-48H220.2v-36H352.3Zm0-54v6H220.2v-42a19.43,19.43,0,0,0-2-8.2c.1-.1.2-.1.3-.2l59.4-59.4a5.92,5.92,0,0,0-.2-8.5,5.85,5.85,0,0,0-8.3,0L210,219.2c-.2.2-.2.4-.3.5a17.42,17.42,0,0,0-7.4-1.7H112.2V128a17.93,17.93,0,0,1,18-18H382.3a17.93,17.93,0,0,1,18,18V254.1h-30A17.93,17.93,0,0,0,352.3,272.1Zm72,120.1a6,6,0,0,1-6,6h-48a6,6,0,0,1-6-6v-6h60Zm0-18.1h-60v-102a6,6,0,0,1,6-6h48a6,6,0,0,1,6,6Z" transform="translate(-15.1 -44.62)"/><path class="cls-1" d="M148.9,291.2a6.1,6.1,0,0,0-8.5,0L115,316.6a6,6,0,0,0,8.3,8.7l.2-.2,25.4-25.4C149.9,297.8,147.8,294.2,148.9,291.2Z" transform="translate(-15.1 -44.62)"/><path class="cls-1" d="M184.8,291.2a5.85,5.85,0,0,0-8.3,0L151,316.6a6,6,0,0,0,8.3,8.7l.2-.2,25.4-25.4A6,6,0,0,0,184.8,291.2Z" transform="translate(-15.1 -44.62)"/><path class="cls-1" d="M314.4,159.8a5.85,5.85,0,0,0-8.3,0l-59.4,59.4a6,6,0,1,0,8.3,8.7l.2-.2,59.4-59.4A6.2,6.2,0,0,0,314.4,159.8Z" transform="translate(-15.1 -44.62)"/><path class="cls-1" d="M406.9,307.4a5.85,5.85,0,0,0-8.3,0l-17,17a6,6,0,0,0,8.3,8.7l.2-.2,17-17A6.1,6.1,0,0,0,406.9,307.4Z" transform="translate(-15.1 -44.62)"/><path class="cls-1" d="M256.4,302.1h0a5.89,5.89,0,0,0-6,6,6.08,6.08,0,0,0,6,6,6,6,0,0,0,0-12Z" transform="translate(-15.1 -44.62)"/><path class="cls-1" d="M268.3,122h-24a6,6,0,0,0,0,12h24a6,6,0,0,0,0-12Z" transform="translate(-15.1 -44.62)"/><path class="cls-1" d="M427.6,69.7a12.17,12.17,0,0,1-8.8-3.7,12.43,12.43,0,1,1,8.8,3.7Zm0-16.4a3.84,3.84,0,0,0-2.8,1.1,4,4,0,0,0,0,5.6,3.69,3.69,0,0,0,2.8,1.1,4.11,4.11,0,0,0,2.8-1.1,4,4,0,0,0,0-5.6A4.11,4.11,0,0,0,427.6,53.3Z" transform="translate(-15.1 -44.62)"/><path class="cls-1" d="M85.2,468a16.4,16.4,0,1,1,11.6-4.8A16.09,16.09,0,0,1,85.2,468Zm0-21.5a4.9,4.9,0,0,0-3.7,1.5,5.19,5.19,0,0,0,0,7.3,5,5,0,0,0,3.7,1.5,5.39,5.39,0,0,0,3.7-1.5,5.19,5.19,0,0,0,0-7.3A4.76,4.76,0,0,0,85.2,446.5Z" transform="translate(-15.1 -44.62)"/><path class="cls-1" d="M39.1,254.3H35.5v-3.6a5.6,5.6,0,0,0-11.2,0v3.6H20.7a5.6,5.6,0,1,0,0,11.2h3.6v3.6a5.6,5.6,0,0,0,11.2,0v-3.6h3.6a5.59,5.59,0,0,0,5.6-5.6A5.53,5.53,0,0,0,39.1,254.3Z" transform="translate(-15.1 -44.62)"/><path class="cls-1" d="M485.8,103.4h-3.4V100a5.27,5.27,0,0,0-5.3-5.3,5.34,5.34,0,0,0-5.3,5.3v3.4h-3.4a5.27,5.27,0,0,0-5.3,5.3,5.34,5.34,0,0,0,5.3,5.3h3.4v3.4a5.27,5.27,0,0,0,5.3,5.3,5.34,5.34,0,0,0,5.3-5.3V114h3.4a5.3,5.3,0,1,0,0-10.6Z" transform="translate(-15.1 -44.62)"/></svg>