<?xml version="1.0" encoding="utf-8"?>
<!-- Generator: Adobe Illustrator 24.0.3, SVG Export Plug-In . SVG Version: 6.00 Build 0)  -->
<svg version="1.1" id="Capa_1" xmlns="http://www.w3.org/2000/svg" xmlns:xlink="http://www.w3.org/1999/xlink" x="0px" y="0px"
	 viewBox="0 0 512 512" style="enable-background:new 0 0 512 512;" xml:space="preserve">
<style type="text/css">
	.st0{fill:#FFFFFF;}
</style>
<path class="st0" d="M137.2,80c-3.3,0-6.5-1.3-8.8-3.7c-4.9-4.9-4.9-12.8,0-17.7c4.9-4.9,12.8-4.9,17.7,0s4.9,12.8,0,17.7
	C143.7,78.7,140.5,80,137.2,80z M137.2,63.6c-1,0-2,0.3-2.8,1.1c-1.5,1.5-1.5,4,0,5.6c0.8,0.8,1.7,1.1,2.8,1.1s2-0.4,2.8-1.1
	c1.5-1.5,1.5-4,0-5.6C139.2,63.9,138.2,63.6,137.2,63.6z"/>
<path class="st0" d="M273,504.9c-3.3,0-6.5-1.3-8.8-3.7c-4.9-4.9-4.9-12.8,0-17.7c4.9-4.9,12.8-4.9,17.7,0s4.9,12.8,0,17.7
	C279.5,503.6,276.3,504.9,273,504.9z M273,488.5c-1,0-2,0.3-2.8,1.1c-1.5,1.5-1.5,4,0,5.6c0.8,0.8,1.7,1.1,2.8,1.1s2-0.4,2.8-1.1
	c1.5-1.5,1.5-4,0-5.6C275,488.8,274,488.5,273,488.5z"/>
<path class="st0" d="M227.8,105.3H225v-2.8c0-2.4-1.9-4.3-4.3-4.3c-2.4,0-4.3,1.9-4.3,4.3v2.8h-2.8c-2.4,0-4.3,1.9-4.3,4.3
	s1.9,4.3,4.3,4.3h2.8v2.8c0,2.4,1.9,4.3,4.3,4.3c2.4,0,4.3-1.9,4.3-4.3v-2.8h2.8c2.4,0,4.3-1.9,4.3-4.3
	C232.1,107.2,230.2,105.3,227.8,105.3z"/>
<path class="st0" d="M407.3,414.3h-3.4v-3.4c0-3-2.4-5.3-5.3-5.3c-3,0-5.3,2.4-5.3,5.3v3.4h-3.4c-3,0-5.3,2.4-5.3,5.3
	s2.4,5.3,5.3,5.3h3.4v3.4c0,3,2.4,5.3,5.3,5.3c3,0,5.3-2.4,5.3-5.3V425h3.4c3,0,5.3-2.4,5.3-5.3S410.3,414.3,407.3,414.3z"/>
<g>
	<g>
		<path class="st0" d="M371.9,292.6h-27.5V167.2c0-4.1-3.3-7.3-7.3-7.3c-4.1,0-7.3,3.3-7.3,7.3v125.4H197V167.2
			c0-4.1-3.3-7.3-7.3-7.3c-4.1,0-7.3,3.3-7.3,7.3v125.4h-27.5c-9.5,0-17.2,7.7-17.2,17.2V349c0,9.5,7.7,17.2,17.2,17.2h12.8v7.3
			c0,4.1,3.3,7.3,7.3,7.3s7.3-3.3,7.3-7.3v-7.3h162.2v7.3c0,4.1,3.3,7.3,7.3,7.3c4.1,0,7.3-3.3,7.3-7.3v-7.3h12.8
			c9.5,0,17.2-7.7,17.2-17.2v-39.3C389.2,300.3,381.4,292.6,371.9,292.6z M374.4,349.1c0,1.4-1.1,2.5-2.5,2.5H154.7
			c-1.4,0-2.5-1.1-2.5-2.5v-39.3c0-1.4,1.1-2.5,2.5-2.5h217.2c1.4,0,2.5,1.1,2.5,2.5V349.1z"/>
		<circle class="st0" cx="174.8" cy="329.5" r="7.3"/>
		<circle class="st0" cx="233.8" cy="329.5" r="7.3"/>
		<circle class="st0" cx="263.3" cy="329.5" r="7.3"/>
		<circle class="st0" cx="292.9" cy="329.5" r="7.3"/>
		<circle class="st0" cx="322.3" cy="329.5" r="7.3"/>
		<path class="st0" d="M226.8,219.3c9.7-9.7,22.7-15.1,36.5-15.1s26.7,5.4,36.5,15.1c1.5,1.5,3.3,2.1,5.2,2.1s3.8-0.7,5.2-2.1
			c2.9-2.9,2.9-7.5,0-10.4c-12.6-12.6-29.2-19.5-46.9-19.5s-34.3,6.9-46.9,19.5c-2.9,2.9-2.9,7.5,0,10.4
			C219.3,222.2,224,222.2,226.8,219.3L226.8,219.3z"/>
		<path class="st0" d="M264.1,248.4c-4.5-0.4-8.1,3.1-8.1,7.3c0,3.9,3.2,7.3,7.3,7.3c4.3,0,7.8-3.8,7.3-8.1
			C270.3,251.7,267.7,248.8,264.1,248.4L264.1,248.4z"/>
		<path class="st0" d="M284.2,242.2c1.9,0,3.8-0.7,5.2-2.1c2.9-2.9,2.9-7.5,0-10.4c-7-7-16.2-10.8-26-10.8c-9.8,0-19.1,3.8-26,10.8
			c-2.9,2.9-2.9,7.5,0,10.4s7.5,2.9,10.4,0c4.2-4.2,9.7-6.5,15.6-6.5s11.4,2.3,15.6,6.5C280.4,241.5,282.3,242.2,284.2,242.2z"/>
	</g>
</g>
</svg>
