<?xml version="1.0" encoding="utf-8"?>
<!-- Generator: Adobe Illustrator 24.0.3, SVG Export Plug-In . SVG Version: 6.00 Build 0)  -->
<svg version="1.1" id="Capa_1" xmlns="http://www.w3.org/2000/svg" xmlns:xlink="http://www.w3.org/1999/xlink" x="0px" y="0px"
	 viewBox="0 0 512 512" style="enable-background:new 0 0 512 512;" xml:space="preserve">
<style type="text/css">
	.st0{fill:#FFFFFF;}
</style>
<g>
	<g>
		<g>
			<g>
				<g>
					<g>
						<path class="st0" d="M275.2,141.7h-37.4c-2.1,0-3.7,1.9-3.7,4.2s1.7,4.2,3.7,4.2h37.4c2.1,0,3.7-1.9,3.7-4.2
							C278.9,143.6,277.2,141.7,275.2,141.7z"/>
					</g>
				</g>
				<g>
					<g>
						<path class="st0" d="M301.3,141.7h-3.7c-2.1,0-3.7,1.9-3.7,4.2s1.7,4.2,3.7,4.2h3.7c2.1,0,3.7-1.9,3.7-4.2
							C305,143.6,303.4,141.7,301.3,141.7z"/>
					</g>
				</g>
				<g>
					<g>
						<path class="st0" d="M257.5,350h-5.9c-3.6,0-6.5,3.3-6.5,7.4v1.3c0,4.1,2.9,7.4,6.5,7.4h5.9c3.6,0,6.5-3.3,6.5-7.4v-1.3
							C264,353.3,261.1,350,257.5,350z M259.3,358.7c0,1.1-0.8,2-1.8,2h-5.9c-1,0-1.8-0.9-1.8-2v-1.3c0-1.1,0.8-2,1.8-2h5.9
							c1,0,1.8,0.9,1.8,2V358.7z"/>
					</g>
				</g>
				<g>
					<g>
						<path class="st0" d="M306.5,128.9h-100c-7.4,0-13.5,6.9-13.5,15.3v223.5c0,8.4,6.1,15.3,13.5,15.3h100
							c7.4,0,13.5-6.9,13.5-15.3V144.3C320,135.8,313.9,128.9,306.5,128.9z M312.5,367.7c0,3.8-2.7,6.8-6,6.8h-100
							c-3.3,0-6-3.1-6-6.8V144.3c0-3.8,2.7-6.8,6-6.8h100c3.3,0,6,3.1,6,6.8V367.7L312.5,367.7z"/>
					</g>
				</g>
				<g>
					<g>
						<path class="st0" d="M316.3,154.4H196.7c-2.1,0-3.7,1.9-3.7,4.2v177.9c0,2.3,1.7,4.2,3.7,4.2h119.5c2.1,0,3.7-1.9,3.7-4.2
							V158.6C320,156.3,318.3,154.4,316.3,154.4z M312.5,332.2h-112V162.8h112V332.2z"/>
					</g>
				</g>
			</g>
		</g>
		<path class="st0" d="M293.5,208.4c1.1,0,2.2-0.4,3.1-1.3c1.7-1.7,1.7-4.4,0-6.1l-8.6-8.6c-1.7-1.7-4.4-1.7-6.1,0s-1.7,4.4,0,6.1
			l8.6,8.6C291.3,208,292.4,208.4,293.5,208.4L293.5,208.4z"/>
		<path class="st0" d="M256.8,190c-1.7,1.7-1.7,4.4,0,6.1l34.5,34.5c0.8,0.8,1.9,1.3,3.1,1.3s2.2-0.4,3.1-1.3c1.7-1.7,1.7-4.4,0-6.1
			L262.9,190C261.2,188.3,258.4,188.3,256.8,190L256.8,190z"/>
	</g>
	<path class="st0" d="M383.3,134.4c-3.3,0-6.4-1.3-8.6-3.6c-4.8-4.8-4.8-12.6,0-17.4s12.6-4.8,17.4,0s4.8,12.6,0,17.4
		C389.6,133.1,386.5,134.4,383.3,134.4z M383.3,118.3c-1,0-2,0.3-2.8,1.1c-1.5,1.5-1.5,3.9,0,5.5c0.8,0.8,1.7,1.1,2.8,1.1
		c1.1,0,2-0.4,2.8-1.1c1.5-1.5,1.5-3.9,0-5.5C385.3,118.6,384.3,118.3,383.3,118.3z"/>
	<path class="st0" d="M125.9,404c-3.1,0-6.1-1.2-8.3-3.4c-4.6-4.6-4.6-12,0-16.6s12-4.6,16.6,0s4.6,12,0,16.6
		C132,402.8,129.1,404,125.9,404z M125.9,388.6c-1,0-1.9,0.3-2.6,1c-1.4,1.4-1.4,3.8,0,5.2c0.7,0.7,1.6,1,2.6,1s1.9-0.4,2.6-1
		c1.4-1.4,1.4-3.8,0-5.2C127.9,388.9,126.9,388.6,125.9,388.6z"/>
	<path class="st0" d="M331.7,90.9H329v-2.7c0-2.4-1.8-4.2-4.2-4.2c-2.4,0-4.2,1.8-4.2,4.2v2.7h-2.7c-2.4,0-4.2,1.8-4.2,4.2
		s1.8,4.2,4.2,4.2h2.7v2.7c0,2.4,1.8,4.2,4.2,4.2c2.4,0,4.2-1.8,4.2-4.2v-2.7h2.7c2.4,0,4.2-1.8,4.2-4.2S334,90.9,331.7,90.9z"/>
	<path class="st0" d="M141.5,441.2h-2.6v-2.6c0-2.2-1.8-4-4-4s-4,1.8-4,4v2.6h-2.6c-2.2,0-4,1.8-4,4s1.8,4,4,4h2.6v2.6
		c0,2.2,1.8,4,4,4s4-1.8,4-4v-2.6h2.6c2.2,0,4-1.8,4-4S143.7,441.2,141.5,441.2z"/>
</g>
</svg>
