<?xml version="1.0" encoding="utf-8"?>
<!-- Generator: Adobe Illustrator 24.0.1, SVG Export Plug-In . SVG Version: 6.00 Build 0)  -->
<svg version="1.1" id="Capa_1" xmlns="http://www.w3.org/2000/svg" xmlns:xlink="http://www.w3.org/1999/xlink" x="0px" y="0px"
	 viewBox="0 0 512 512" style="enable-background:new 0 0 512 512;" xml:space="preserve">
<style type="text/css">
	.st0{fill:#CEC3FC;fill-opacity:0.65;}
	.st1{opacity:0.11;fill:#2626BC;enable-background:new    ;}
	.st2{fill:#1BBB9A;}
	.st3{fill:#169F85;}
	.st4{fill:#CEC3FC;}
	.st5{fill:#E1D7FF;}
	.st6{fill:#9A58B4;}
	.st7{fill:#6C02AA;}
	.st8{fill:none;}
</style>
<path class="st0" d="M342.4,0.4C246.5,9.1,237.3,192.9,196,287c-20.5,46.7-68.8,94.8-60.3,149.8c9.6,62,72.9,80.1,121.7,74.1
	c120.7-14.7,172.9-141.1,180.8-260.8C443,176.3,458.5-10.1,342.4,0.4L342.4,0.4z"/>
<path class="st1" d="M414.6,132h-36.9v-11.7c0-5.5-4.5-10-10-10h-11.8c-5.5,0-10,4.5-10,10V132h-46.3v-11.7c0-5.5-4.5-10-10-10
	h-11.8c-5.5,0-10,4.5-10,10V132h-46.3v-11.7c0-5.5-4.5-10-10-10h-11.8c-5.5,0-10,4.5-10,10V132h-46.3v-11.7c0-5.5-4.5-10-10-10
	h-11.8c-5.5,0-10,4.5-10,10V132H74.4c-11,0-20,9-20,20v265.7c0,11,9,20,20,20h340.1c11,0,20-9,20-20V152
	C434.6,141,425.6,132,414.6,132L414.6,132z"/>
<path class="st2" d="M432.6,419.7H92.4c-11,0-20-9-20-20V134c0-11,9-20,20-20h340.1c11,0,20,9,20,20v265.7
	C452.6,410.8,443.6,419.7,432.6,419.7z"/>
<path class="st3" d="M452.6,179v-45c0-11-9-20-20-20H92.4c-11,0-20,9-20,20v45H452.6z"/>
<path class="st2" d="M129.4,122.4v24.1c0,5.5,4.5,10,10,10h11.8c5.5,0,10-4.5,10-10v-24.1H129.4z"/>
<path class="st2" d="M207.5,122.4v24.1c0,5.5,4.5,10,10,10h11.8c5.5,0,10-4.5,10-10v-24.1H207.5z"/>
<path class="st2" d="M285.6,122.4v24.1c0,5.5,4.5,10,10,10h11.8c5.5,0,10-4.5,10-10v-24.1H285.6z"/>
<path class="st2" d="M363.8,122.4v24.1c0,5.5,4.5,10,10,10h11.8c5.5,0,10-4.5,10-10v-24.1H363.8z"/>
<path class="st2" d="M452.6,134v45H435v-45c0-11-9-20-20-20h17.5C443.6,114,452.6,123,452.6,134z"/>
<path class="st4" d="M151.2,143.4h-11.8c-5.5,0-10-4.5-10-10v-31.2c0-5.5,4.5-10,10-10h11.8c5.5,0,10,4.5,10,10v31.2
	C161.2,139,156.7,143.4,151.2,143.4z"/>
<path class="st5" d="M161.2,102.3v31.2c0,5.5-4.5,10-10,10h-11.8c-0.3,0-0.7,0-1-0.1c5-0.5,9-4.8,9-9.9v-31.2c0-5.2-3.9-9.4-9-9.9
	c0.3,0,0.7-0.1,1-0.1h11.8C156.7,92.3,161.2,96.8,161.2,102.3z"/>
<path class="st4" d="M229.4,143.4h-11.8c-5.5,0-10-4.5-10-10v-31.2c0-5.5,4.5-10,10-10h11.8c5.5,0,10,4.5,10,10v31.2
	C239.4,139,234.9,143.4,229.4,143.4z"/>
<path class="st5" d="M239.3,102.3v31.2c0,5.5-4.5,10-10,10h-11.8c-0.3,0-0.7,0-1-0.1c5-0.5,9-4.8,9-9.9v-31.2c0-5.2-3.9-9.4-9-9.9
	c0.3,0,0.7-0.1,1-0.1h11.8C234.9,92.3,239.3,96.8,239.3,102.3z"/>
<path class="st4" d="M307.5,143.4h-11.8c-5.5,0-10-4.5-10-10v-31.2c0-5.5,4.5-10,10-10h11.8c5.5,0,10,4.5,10,10v31.2
	C317.5,139,313,143.4,307.5,143.4z"/>
<path class="st5" d="M317.5,102.3v31.2c0,5.5-4.5,10-10,10h-11.8c-0.3,0-0.7,0-1-0.1c5-0.5,9-4.8,9-9.9v-31.2c0-5.2-3.9-9.4-9-9.9
	c0.3,0,0.7-0.1,1-0.1h11.8C313,92.3,317.5,96.8,317.5,102.3z"/>
<path class="st4" d="M385.6,143.4h-11.8c-5.5,0-10-4.5-10-10v-31.2c0-5.5,4.5-10,10-10h11.8c5.5,0,10,4.5,10,10v31.2
	C395.6,139,391.1,143.4,385.6,143.4z"/>
<path class="st5" d="M395.6,102.3v31.2c0,5.5-4.5,10-10,10h-11.8c-0.3,0-0.7,0-1-0.1c5-0.5,9-4.8,9-9.9v-31.2c0-5.2-3.9-9.4-9-9.9
	c0.3,0,0.7-0.1,1-0.1h11.8C391.1,92.3,395.6,96.8,395.6,102.3z"/>
<path class="st2" d="M379.7,495.4c-3.7,0-7.5-1.4-10.3-4.3c-5.7-5.7-5.7-15,0-20.7s15-5.7,20.7,0s5.7,15,0,20.6
	C387.2,493.9,383.4,495.4,379.7,495.4L379.7,495.4z M379.7,476.2c-1.2,0-2.4,0.4-3.3,1.3c-1.8,1.8-1.8,4.7,0,6.5s4.7,1.8,6.5,0
	s1.8-4.7,0-6.5C382.1,476.6,380.9,476.2,379.7,476.2L379.7,476.2z"/>
<path class="st2" d="M209.4,71c-3.9,0-7.6-1.5-10.3-4.3c-5.7-5.7-5.7-15,0-20.7s15-5.7,20.7,0s5.7,15,0,20.7
	C217,69.5,213.3,71,209.4,71z M209.4,51.8c-1.2,0-2.4,0.4-3.3,1.3c-1.8,1.8-1.8,4.7,0,6.5c0.9,0.9,2,1.3,3.3,1.3s2.4-0.5,3.3-1.3
	c1.8-1.8,1.8-4.7,0-6.5C211.8,52.2,210.6,51.8,209.4,51.8z"/>
<path class="st6" d="M258.7,27.5h-3.2v-3.2c0-2.8-2.2-5-5-5s-5,2.2-5,5v3.2h-3.2c-2.8,0-5,2.2-5,5s2.2,5,5,5h3.2v3.2
	c0,2.8,2.2,5,5,5s5-2.2,5-5v-3.2h3.2c2.8,0,5-2.2,5-5S261.5,27.5,258.7,27.5z"/>
<path class="st6" d="M341.7,444.8h-3.2v-3.2c0-2.8-2.2-5-5-5s-5,2.2-5,5v3.2h-3.2c-2.8,0-5,2.2-5,5s2.2,5,5,5h3.2v3.2
	c0,2.8,2.2,5,5,5s5-2.2,5-5v-3.2h3.2c2.8,0,5-2.2,5-5S344.5,444.8,341.7,444.8z"/>
<path class="st6" d="M122.9,444.8h-3.2v-3.2c0-2.8-2.2-5-5-5s-5,2.2-5,5v3.2h-3.2c-2.8,0-5,2.2-5,5s2.2,5,5,5h3.2v3.2
	c0,2.8,2.2,5,5,5s5-2.2,5-5v-3.2h3.2c2.8,0,5-2.2,5-5S125.6,444.8,122.9,444.8z"/>
<path class="st7" d="M432.6,109h-31.9v-6.7c0-8.3-6.7-15-15-15h-11.8c-8.3,0-15,6.7-15,15v6.7h-36.3v-6.7c0-8.3-6.7-15-15-15h-11.8
	c-8.3,0-15,6.7-15,15v6.7h-36.3v-6.7c0-8.3-6.7-15-15-15h-11.8c-8.3,0-15,6.7-15,15v6.7h-36.3v-6.7c0-8.3-6.7-15-15-15h-11.8
	c-8.3,0-15,6.7-15,15v6.7H92.4c-13.8,0-25,11.2-25,25v265.7c0,13.8,11.2,25,25,25h68.3c2.8,0,5-2.2,5-5s-2.2-5-5-5H92.4
	c-8.3,0-15-6.7-15-15V184h370.1v134.9c0,2.8,2.2,5,5,5s5-2.2,5-5V134C457.6,120.2,446.3,109,432.6,109L432.6,109z M368.8,102.3
	c0-2.8,2.2-5,5-5h11.8c2.8,0,5,2.2,5,5v31.2c0,2.8-2.2,5-5,5h-11.8c-2.8,0-5-2.2-5-5V102.3z M290.6,102.3c0-2.8,2.2-5,5-5h11.8
	c2.8,0,5,2.2,5,5v31.2c0,2.8-2.2,5-5,5h-11.8c-2.8,0-5-2.2-5-5V102.3z M212.5,102.3c0-2.8,2.2-5,5-5h11.8c2.8,0,5,2.2,5,5v31.2
	c0,2.8-2.2,5-5,5h-11.8c-2.8,0-5-2.2-5-5V102.3z M134.4,102.3c0-2.8,2.2-5,5-5h11.8c2.8,0,5,2.2,5,5v31.2c0,2.8-2.2,5-5,5h-11.8
	c-2.8,0-5-2.2-5-5V102.3z M77.4,174v-40c0-8.3,6.7-15,15-15h31.9v14.4c0,8.3,6.7,15,15,15h11.8c8.3,0,15-6.7,15-15V119h36.3v14.4
	c0,8.3,6.7,15,15,15h11.8c8.3,0,15-6.7,15-15V119h36.3v14.4c0,8.3,6.7,15,15,15h11.8c8.3,0,15-6.7,15-15V119h36.3v14.4
	c0,8.3,6.7,15,15,15h11.8c8.3,0,15-6.7,15-15V119h31.9c8.3,0,15,6.7,15,15v40H77.4z"/>
<path class="st7" d="M452.6,342c-2.8,0-5,2.2-5,5v52.7c0,8.3-6.7,15-15,15H188.9c-2.8,0-5,2.2-5,5s2.2,5,5,5h243.7
	c13.8,0,25-11.2,25-25V347C457.6,344.3,455.3,342,452.6,342z"/>
<rect x="74.4" y="206.4" class="st8" width="378.2" height="117.1"/>
<rect x="-109.5" y="-304" class="st8" width="1652.6" height="140.2"/>
<rect x="73.9" y="337.6" class="st8" width="375.2" height="52.6"/>
</svg>
