<?xml version="1.0" encoding="utf-8"?>
<!-- Generator: Adobe Illustrator 24.0.3, SVG Export Plug-In . SVG Version: 6.00 Build 0)  -->
<svg version="1.1" id="Capa_1" xmlns="http://www.w3.org/2000/svg" xmlns:xlink="http://www.w3.org/1999/xlink" x="0px" y="0px"
	 viewBox="0 0 512 512" style="enable-background:new 0 0 512 512;" xml:space="preserve">
<style type="text/css">
	.st0{opacity:0.5;fill:#1BBB9A;}
	.st1{opacity:0.11;fill:#2626BC;enable-background:new    ;}
	.st2{fill:#9A58B4;}
	.st3{fill:#744287;}
	.st4{fill:#1BBB9A;}
	.st5{fill:#169F85;}
	.st6{fill:#FFFFFF;}
	.st7{fill:#C4C4C4;}
	.st8{fill:#8E44AC;}
	.st9{fill:#2A80B8;}
	.st10{fill:#F29B11;}
</style>
<path class="st0" d="M364.8,55.2c-69.1-27-164.8-16.8-217.7,31.5c-37.3,34.1-8.4,43.8,17,106.2C182.6,238,0,231.8,0,313.4
	c0,94.3,132.3,76.4,181.3,87.2c75,16.5,140.5,78.2,220.7,70.1c69.8-7.1,96.4-61.9,106.1-124.6C526.2,229.1,481.8,101,364.8,55.2
	L364.8,55.2z"/>
<path class="st1" d="M409.2,129.6h-47v-22.1c0-8.9-10.8-13.4-17.1-7.1L316,129.6H107.2c-11.1,0-20,8.9-20,20v33h-31
	c-11,0-20,8.9-20,20v200c0,11,9,20,20,20h47v22.1c0,8.9,10.8,13.4,17.1,7.1l29.1-29.1h208.8c11,0,20-9,20-20v-33h31c11,0,20-9,20-20
	v-200C429.2,138.6,420.2,129.6,409.2,129.6L409.2,129.6z"/>
<path class="st2" d="M452.5,129.5v200c0,11-9,20-20,20h-302c-11.1,0-20-9-20-20v-200c0-11.1,8.9-20,20-20h208.8l29.1-29.2
	c6.3-6.3,17.1-1.8,17.1,7.1v22.1h47C443.5,109.5,452.5,118.5,452.5,129.5z"/>
<path class="st3" d="M295.8,313.9v-170c0-2.8,2.2-5,5-5h116.7c2.8,0,5,2.2,5,5v170c0,2.8-2.2,5-5,5H300.8
	C298.1,318.9,295.8,316.7,295.8,313.9z"/>
<path class="st3" d="M146.4,313.9v-170c0-2.8,2.2-5,5-5h116.7c2.8,0,5,2.2,5,5v170c0,2.8-2.2,5-5,5H151.4
	C148.7,318.9,146.4,316.7,146.4,313.9z"/>
<path class="st4" d="M401.5,182.5v200c0,11-9,20-20,20H172.7l-29.1,29.1c-6.3,6.3-17.1,1.8-17.1-7.1v-22.1h-47c-11.1,0-20-9-20-20
	v-200c0-11.1,8.9-20,20-20h302C392.5,162.5,401.5,171.4,401.5,182.5L401.5,182.5z"/>
<path class="st5" d="M401.5,182.5v179h-271c-17.6,0-32-14.4-32-32v-167h283C392.5,162.5,401.5,171.4,401.5,182.5L401.5,182.5z"/>
<path class="st6" d="M401.5,182.5v167h-271c-11.1,0-20-9-20-20v-167h271C392.5,162.5,401.5,171.4,401.5,182.5L401.5,182.5z"/>
<g>
	<path class="st7" d="M365.1,274.6H146.9c-2.8,0-5-2.2-5-5s2.2-5,5-5h218.3c2.8,0,5,2.2,5,5S367.9,274.6,365.1,274.6z"/>
	<path class="st7" d="M365.1,295.1H146.9c-2.8,0-5-2.2-5-5s2.2-5,5-5h218.3c2.8,0,5,2.2,5,5S367.9,295.1,365.1,295.1z"/>
	<path class="st7" d="M365.1,315.5H146.9c-2.8,0-5-2.2-5-5s2.2-5,5-5h218.3c2.8,0,5,2.2,5,5S367.9,315.5,365.1,315.5z"/>
</g>
<path class="st7" d="M206.9,240.1h-58.5c-3.6,0-6.5-2.9-6.5-6.5v-20.6c0-3.6,2.9-6.5,6.5-6.5h58.5c3.6,0,6.5,2.9,6.5,6.5v20.6
	C213.5,237.1,210.6,240.1,206.9,240.1z"/>
<path class="st7" d="M249.4,240.1h-15c-3.6,0-6.5-2.9-6.5-6.5v-20.6c0-3.6,2.9-6.5,6.5-6.5h15c3.6,0,6.5,2.9,6.5,6.5v20.6
	C255.9,237.1,253,240.1,249.4,240.1z"/>
<circle class="st6" cx="156.7" cy="223.2" r="5.6"/>
<circle class="st6" cx="173.6" cy="223.2" r="5.6"/>
<circle class="st6" cx="190.6" cy="223.2" r="5.6"/>
<path class="st8" d="M432.5,104.5h-42V87.4c0-6.2-3.5-11.5-9.3-13.9c-5.7-2.4-12-1.1-16.4,3.3l-27.7,27.7h-84.9c-2.8,0-5,2.2-5,5
	s2.2,5,5,5h86.9c1.3,0,2.6-0.5,3.5-1.5L372,83.9c2.2-2.2,4.7-1.4,5.5-1.1c0.7,0.3,3.1,1.5,3.1,4.6v22.1c0,2.8,2.2,5,5,5h47
	c8.3,0,15,6.7,15,15v200c0,8.3-6.7,15-15,15h-302c-8.3,0-15-6.7-15-15v-162h266c8.3,0,15,6.7,15,15v138.9c0,2.8,2.2,5,5,5s5-2.2,5-5
	V182.5c0-13.8-11.2-25-25-25h-266v-28c0-8.3,6.7-15,15-15h93.8c2.8,0,5-2.2,5-5s-2.2-5-5-5h-93.8c-13.8,0-25,11.2-25,25v28h-26
	c-13.8,0-25,11.2-25,25v200c0,13.8,11.2,25,25,25h42v17.1c0,6.2,3.5,11.5,9.3,13.9c1.9,0.8,3.9,1.2,5.8,1.2c3.9,0,7.6-1.5,10.5-4.4
	l27.7-27.7h206.7c13.8,0,25-11.2,25-25v-28h26c13.8,0,25-11.2,25-25v-200C457.5,115.7,446.3,104.5,432.5,104.5L432.5,104.5z
	 M396.5,382.5c0,8.3-6.7,15-15,15H172.7c-1.3,0-2.6,0.5-3.5,1.5L140,428.1c-2.2,2.2-4.7,1.4-5.4,1.1c-0.7-0.3-3.1-1.5-3.1-4.6v-22.1
	c0-2.8-2.2-5-5-5h-47c-8.3,0-15-6.7-15-15v-200c0-8.3,6.7-15,15-15h26v162c0,13.8,11.2,25,25,25h266V382.5z"/>
<path class="st9" d="M74.5,132.4c-3.9,0-7.6-1.5-10.3-4.3c-5.7-5.7-5.7-15,0-20.7c2.8-2.8,6.4-4.3,10.3-4.3c3.9,0,7.6,1.5,10.3,4.3
	c5.7,5.7,5.7,15,0,20.7C82,130.9,78.4,132.4,74.5,132.4L74.5,132.4z M74.5,113.2c-1.2,0-2.4,0.5-3.3,1.3c-1.8,1.8-1.8,4.7,0,6.5
	c0.9,0.9,2,1.3,3.3,1.3c1.2,0,2.4-0.5,3.3-1.3c1.8-1.8,1.8-4.7,0-6.5C76.9,113.7,75.7,113.2,74.5,113.2z"/>
<path class="st9" d="M442.9,403.7c-3.9,0-7.6-1.5-10.3-4.3c-5.7-5.7-5.7-15,0-20.7c2.8-2.8,6.4-4.3,10.3-4.3s7.6,1.5,10.3,4.3
	c5.7,5.7,5.7,15,0,20.7C450.5,402.2,446.8,403.7,442.9,403.7L442.9,403.7z M442.9,384.5c-1.2,0-2.4,0.5-3.3,1.3
	c-1.8,1.8-1.8,4.7,0,6.5c0.9,0.9,2,1.3,3.3,1.3s2.4-0.5,3.3-1.3c1.8-1.8,1.8-4.7,0-6.5C445.3,385,444.1,384.5,442.9,384.5z"/>
<path class="st10" d="M102.3,78.1h-3.2v-3.2c0-2.8-2.2-5-5-5s-5,2.2-5,5v3.2h-3.2c-2.8,0-5,2.2-5,5s2.2,5,5,5h3.2v3.2
	c0,2.8,2.2,5,5,5s5-2.2,5-5v-3.2h3.2c2.8,0,5-2.2,5-5S105.1,78.1,102.3,78.1z"/>
<path class="st10" d="M482.6,356.5h-3.2v-3.2c0-2.8-2.2-5-5-5s-5,2.2-5,5v3.2h-3.2c-2.8,0-5,2.2-5,5s2.2,5,5,5h3.2v3.2
	c0,2.8,2.2,5,5,5s5-2.2,5-5v-3.2h3.2c2.8,0,5-2.2,5-5S485.3,356.5,482.6,356.5z"/>
<path class="st10" d="M183.2,437.8H180v-3.2c0-2.8-2.2-5-5-5s-5,2.2-5,5v3.2h-3.2c-2.8,0-5,2.2-5,5s2.2,5,5,5h3.2v3.2
	c0,2.8,2.2,5,5,5s5-2.2,5-5v-3.2h3.2c2.8,0,5-2.2,5-5S186,437.8,183.2,437.8z"/>
<path class="st7" d="M356.4,223.2c4.3-3.7,7-9.2,7-15.2c0-11.2-9.1-20.2-20.2-20.2s-20.2,9.1-20.2,20.2c0,6.1,2.7,11.5,7,15.2
	c-4.3,3.7-7,9.2-7,15.2c0,2.8,2.2,5,5,5s5-2.2,5-5c0-5.6,4.6-10.2,10.2-10.2s10.2,4.6,10.2,10.2c0,2.8,2.2,5,5,5s5-2.2,5-5
	C363.3,232.4,360.6,226.9,356.4,223.2z M332.9,208c0-5.6,4.6-10.2,10.2-10.2s10.2,4.6,10.2,10.2s-4.6,10.2-10.2,10.2
	S332.9,213.6,332.9,208z"/>
</svg>
