<?xml version="1.0" encoding="utf-8"?>
<!-- Generator: Adobe Illustrator 24.0.3, SVG Export Plug-In . SVG Version: 6.00 Build 0)  -->
<svg version="1.1" id="Capa_1" xmlns="http://www.w3.org/2000/svg" xmlns:xlink="http://www.w3.org/1999/xlink" x="0px" y="0px"
	 viewBox="0 0 512 512" style="enable-background:new 0 0 512 512;" xml:space="preserve">
<style type="text/css">
	.st0{opacity:0.5;}
	.st1{fill:#1BBB9A;}
	.st2{opacity:0.1;}
	.st3{fill:#2626BC;}
	.st4{fill:#9A58B4;}
	.st5{fill:#FFFFFF;}
	.st6{fill:#8E44AC;}
	.st7{fill:#F29B11;}
	.st8{fill:#3597DA;}
</style>
<g>
	<g class="st0">
		<path class="st1" d="M20.7,179.6c26.3,85,107.8,89,182.1,93.6c244.9,15-63,218.2,146.7,238.3c77.1,7.4,157.8-57,145.6-140.3
			C484,295.2,374,250.1,373.9,179.1c0-55.9,103.9-96.4,36.3-156.6C350-31-32.7,6.7,20.7,179.6L20.7,179.6z"/>
	</g>
	<g class="st2">
		<path class="st3" d="M400.3,172.3h-62.7c-2.8,0-5,2.2-5,5v171.6c0,42.1-33.7,77.1-75.8,77.5c-42.6,0.4-77.3-34.1-77.3-76.5V177.3
			c0-2.8-2.2-5-5-5h-62.7c-2.8,0-5,2.2-5,5v171.1c0,82.5,66.3,150.5,148.9,150.7c82.5,0.2,149.7-66.8,149.7-149.3V177.3
			C405.3,174.5,403,172.3,400.3,172.3L400.3,172.3z"/>
		<circle class="st3" cx="256" cy="333.7" r="44.2"/>
		<ellipse class="st3" cx="256" cy="219.4" rx="44.2" ry="44.2"/>
		<ellipse class="st3" cx="256" cy="105.1" rx="44.2" ry="44.2"/>
	</g>
	<g>
		<path class="st4" d="M332.6,153.3v171.6c0,42.1-33.7,77.1-75.8,77.5c-42.6,0.4-77.3-34.1-77.3-76.5V153.3c0-2.8-2.2-5-5-5h-62.7
			c-2.8,0-5,2.2-5,5v171.1c0,82.5,66.3,150.5,148.9,150.7c82.5,0.2,149.7-66.8,149.7-149.3V153.3c0-2.8-2.2-5-5-5h-62.7
			C334.8,148.3,332.6,150.5,332.6,153.3L332.6,153.3z"/>
	</g>
	<g>
		<path class="st5" d="M255.6,475.1c82.5,0.2,149.7-66.8,149.7-149.3V153.3c0-2.8-2.2-5-5-5h-62.7c-2.8,0-5,2.2-5,5v171.6
			c0,42.1-33.7,77.1-75.8,77.5L255.6,475.1z"/>
	</g>
	<g>
		<path class="st4" d="M405.3,197.2v-43.9c0-2.8-2.2-5-5-5h-62.7c-2.8,0-5,2.2-5,5v43.9L405.3,197.2L405.3,197.2z"/>
		<path class="st5" d="M179.4,197.2v-43.9c0-2.8-2.2-5-5-5h-62.7c-2.8,0-5,2.2-5,5v43.9L179.4,197.2L179.4,197.2z"/>
	</g>
	<g>
		<path class="st6" d="M256,480.1c-0.1,0-0.3,0-0.4,0c-84.8-0.2-153.8-70.1-153.8-155.7V153.3c0-5.5,4.5-10,10-10h62.7
			c5.5,0,10,4.5,10,10v83.8c0,2.8-2.2,5-5,5s-5-2.2-5-5v-83.8h-62.7v171.1c0,80.1,64.5,145.5,143.9,145.7
			c38.5,0.1,74.9-14.9,102.2-42.2c27.4-27.3,42.5-63.6,42.5-102.1V153.3h-15.2c-2.8,0-5-2.2-5-5s2.2-5,5-5h15.2c5.5,0,10,4.5,10,10
			v172.5c0,41.2-16.1,80-45.4,109.2C335.7,464.1,297.1,480.1,256,480.1L256,480.1z"/>
		<path class="st6" d="M256,407.4c-21.6,0-41.9-8.4-57.4-23.6c-15.6-15.5-24.2-36-24.2-57.9V270c0-2.8,2.2-5,5-5s5,2.2,5,5v55.8
			c0,19.2,7.5,37.3,21.2,50.8c13.7,13.6,31.8,21,51,20.7c39.1-0.4,70.8-32.9,70.8-72.5V153.3c0-5.5,4.5-10,10-10H352
			c2.8,0,5,2.2,5,5s-2.2,5-5,5h-14.6v171.6c0,45.1-36.2,82.1-80.7,82.5C256.5,407.4,256.3,407.4,256,407.4L256,407.4z"/>
	</g>
	<circle class="st5" cx="256" cy="309.7" r="44.2"/>
	<path class="st6" d="M256,358.9c-27.1,0-49.2-22.1-49.2-49.2s22.1-49.2,49.2-49.2s49.2,22.1,49.2,49.2S283.1,358.9,256,358.9
		L256,358.9z M256,270.6c-21.6,0-39.2,17.6-39.2,39.2S234.4,349,256,349s39.2-17.6,39.2-39.2S277.6,270.6,256,270.6L256,270.6z"/>
	<ellipse class="st5" cx="256" cy="195.4" rx="44.2" ry="44.2"/>
	<path class="st6" d="M256,244.6c-27.1,0-49.2-22.1-49.2-49.2s22.1-49.2,49.2-49.2s49.2,22.1,49.2,49.2S283.1,244.6,256,244.6
		L256,244.6z M256,156.2c-21.6,0-39.2,17.6-39.2,39.2s17.6,39.2,39.2,39.2s39.2-17.6,39.2-39.2S277.6,156.2,256,156.2L256,156.2z"/>
	<ellipse class="st5" cx="256" cy="81.1" rx="44.2" ry="44.2"/>
	<path class="st6" d="M256,130.2c-27.1,0-49.2-22.1-49.2-49.2s22.1-49.2,49.2-49.2s49.2,22.1,49.2,49.2
		C305.2,108.2,283.1,130.2,256,130.2L256,130.2z M256,41.9c-21.6,0-39.2,17.6-39.2,39.2s17.6,39.2,39.2,39.2s39.2-17.6,39.2-39.2
		S277.6,41.9,256,41.9L256,41.9z"/>
	<g>
		<path class="st5" d="M151.3,215.9h-3.2v-3.2c0-2.8-2.2-5-5-5s-5,2.2-5,5v3.2h-3.2c-2.8,0-5,2.2-5,5s2.2,5,5,5h3.2v3.2
			c0,2.8,2.2,5,5,5s5-2.2,5-5v-3.2h3.2c2.8,0,5-2.2,5-5S154.1,215.9,151.3,215.9z"/>
		<path class="st5" d="M360.7,215.9c-2.8,0-5,2.2-5,5s2.2,5,5,5h16.4c2.8,0,5-2.2,5-5s-2.2-5-5-5H360.7z"/>
	</g>
	<path class="st4" d="M444.5,369.9c-2.8,0-5-2.2-5-5c0-3.3-2.7-6-6-6c-2.8,0-5-2.2-5-5s2.2-5,5-5c3.3,0,6-2.7,6-6c0-2.8,2.2-5,5-5
		s5,2.2,5,5c0,3.3,2.7,6,6,6c2.8,0,5,2.2,5,5s-2.2,5-5,5c-3.3,0-6,2.7-6,6C449.5,367.7,447.3,369.9,444.5,369.9z"/>
	<path class="st7" d="M62.3,292.6c-2.8,0-5-2.2-5-5c0-3.3-2.7-6-6-6c-2.8,0-5-2.2-5-5s2.2-5,5-5c3.3,0,6-2.7,6-6c0-2.8,2.2-5,5-5
		s5,2.2,5,5c0,3.3,2.7,6,6,6c2.8,0,5,2.2,5,5s-2.2,5-5,5c-3.3,0-6,2.7-6,6C67.3,290.4,65.1,292.6,62.3,292.6z"/>
	<path class="st8" d="M419.9,422.6c-1.3,0-2.6-0.5-3.5-1.5c-2-2-2-5.1,0-7.1l3.3-3.3l-5-3.2c-1.3-0.8-2.1-2.2-2.3-3.7s0.4-3,1.4-4.1
		l7.7-7.7c2-2,5.1-2,7.1,0s2,5.1,0,7.1l-3.3,3.3l5,3.2c1.3,0.8,2.1,2.2,2.3,3.7s-0.4,3-1.4,4.1l-7.7,7.7
		C422.5,422.1,421.2,422.6,419.9,422.6z"/>
	<path class="st4" d="M173,75.6c-1.3,0-2.6-0.5-3.5-1.5c-2-2-2-5.1,0-7.1l3.3-3.3l-5-3.2c-1.3-0.8-2.1-2.2-2.3-3.7s0.4-3,1.4-4.1
		l7.7-7.7c2-2,5.1-2,7.1,0s2,5.1,0,7.1l-3.3,3.3l5,3.2c1.3,0.8,2.1,2.2,2.3,3.7s-0.4,3-1.4,4.1l-7.7,7.7
		C175.5,75.1,174.3,75.6,173,75.6z"/>
	<path class="st8" d="M151.2,117.1c-2.8,0-5-2.2-5-5c0-3.3-2.7-6-6-6c-2.8,0-5-2.2-5-5s2.2-5,5-5c3.3,0,6-2.7,6-6c0-2.8,2.2-5,5-5
		s5,2.2,5,5c0,3.3,2.7,6,6,6c2.8,0,5,2.2,5,5s-2.2,5-5,5c-3.3,0-6,2.7-6,6C156.2,114.8,153.9,117.1,151.2,117.1z"/>
	<g>
		<path class="st4" d="M255.2,79.5c3.1,0,5.8-1.1,8-3.3c2.2-2.2,3.3-4.9,3.3-8c0-3.1-1.1-5.8-3.3-8c-2.2-2.2-4.9-3.3-8-3.3
			c-3.1,0-5.8,1.1-8,3.3c-2.2,2.2-3.3,4.9-3.3,8c0,3.1,1.1,5.8,3.3,8C249.4,78.4,252.1,79.5,255.2,79.5z"/>
		<path class="st4" d="M274.9,92.9c-0.1-0.9-0.2-1.9-0.4-3c-0.2-1.1-0.4-2.1-0.7-3c-0.3-0.9-0.7-1.9-1.2-2.8
			c-0.5-0.9-1.1-1.7-1.8-2.4c-0.7-0.7-1.6-1.3-2.6-1.7c-1-0.4-2.2-0.6-3.4-0.6c-0.5,0-0.9,0.2-1.8,0.8c-0.5,0.4-1.2,0.8-1.9,1.2
			c-0.6,0.4-1.4,0.8-2.5,1.1c-1,0.3-2,0.5-3,0.5s-2-0.2-3-0.5c-1-0.3-1.9-0.7-2.5-1.1c-0.7-0.5-1.4-0.9-1.9-1.2
			c-0.9-0.6-1.4-0.8-1.8-0.8c-1.2,0-2.4,0.2-3.4,0.6c-1,0.4-1.9,1-2.6,1.7c-0.7,0.7-1.3,1.5-1.8,2.4c-0.5,0.9-0.9,1.8-1.2,2.8
			c-0.3,0.9-0.5,1.9-0.7,3c-0.2,1-0.3,2-0.4,3c-0.1,0.9-0.1,1.8-0.1,2.8c0,2.4,0.8,4.4,2.3,5.9c1.5,1.4,3.5,2.2,5.9,2.2h22.5
			c2.4,0,4.4-0.7,5.9-2.2c1.5-1.5,2.3-3.4,2.3-5.9C275,94.8,275,93.8,274.9,92.9z"/>
	</g>
	<g>
		<path class="st4" d="M255.2,193.5c3.1,0,5.8-1.1,8-3.3c2.2-2.2,3.3-4.9,3.3-8c0-3.1-1.1-5.8-3.3-8c-2.2-2.2-4.9-3.3-8-3.3
			c-3.1,0-5.8,1.1-8,3.3c-2.2,2.2-3.3,4.9-3.3,8c0,3.1,1.1,5.8,3.3,8C249.4,192.4,252.1,193.5,255.2,193.5z"/>
		<path class="st4" d="M274.9,207c-0.1-0.9-0.2-1.9-0.4-3c-0.2-1.1-0.4-2.1-0.7-3c-0.3-0.9-0.7-1.9-1.2-2.8
			c-0.5-0.9-1.1-1.7-1.8-2.4c-0.7-0.7-1.6-1.3-2.6-1.7c-1-0.4-2.2-0.6-3.4-0.6c-0.5,0-0.9,0.2-1.8,0.8c-0.5,0.4-1.2,0.8-1.9,1.2
			c-0.6,0.4-1.4,0.8-2.5,1.1c-1,0.3-2,0.5-3,0.5s-2-0.2-3-0.5c-1-0.3-1.9-0.7-2.5-1.1c-0.7-0.5-1.4-0.9-1.9-1.2
			c-0.9-0.6-1.4-0.8-1.8-0.8c-1.2,0-2.4,0.2-3.4,0.6c-1,0.4-1.9,1-2.6,1.7c-0.7,0.7-1.3,1.5-1.8,2.4c-0.5,0.9-0.9,1.8-1.2,2.8
			c-0.3,0.9-0.5,1.9-0.7,3c-0.2,1-0.3,2-0.4,3c-0.1,0.9-0.1,1.8-0.1,2.8c0,2.4,0.8,4.4,2.3,5.9c1.5,1.4,3.5,2.2,5.9,2.2h22.5
			c2.4,0,4.4-0.7,5.9-2.2c1.5-1.5,2.3-3.4,2.3-5.9C275,208.8,275,207.9,274.9,207z"/>
	</g>
	<g>
		<path class="st4" d="M255.2,307.8c3.1,0,5.8-1.1,8-3.3c2.2-2.2,3.3-4.9,3.3-8c0-3.1-1.1-5.8-3.3-8c-2.2-2.2-4.9-3.3-8-3.3
			c-3.1,0-5.8,1.1-8,3.3c-2.2,2.2-3.3,4.9-3.3,8c0,3.1,1.1,5.8,3.3,8C249.4,306.7,252.1,307.8,255.2,307.8z"/>
		<path class="st4" d="M274.9,321.3c-0.1-0.9-0.2-1.9-0.4-3c-0.2-1.1-0.4-2.1-0.7-3c-0.3-0.9-0.7-1.9-1.2-2.8
			c-0.5-0.9-1.1-1.7-1.8-2.4c-0.7-0.7-1.6-1.3-2.6-1.7c-1-0.4-2.2-0.6-3.4-0.6c-0.5,0-0.9,0.2-1.8,0.8c-0.5,0.4-1.2,0.8-1.9,1.2
			c-0.6,0.4-1.4,0.8-2.5,1.1c-1,0.3-2,0.5-3,0.5s-2-0.2-3-0.5c-1-0.3-1.9-0.7-2.5-1.1c-0.7-0.5-1.4-0.9-1.9-1.2
			c-0.9-0.6-1.4-0.8-1.8-0.8c-1.2,0-2.4,0.2-3.4,0.6c-1,0.4-1.9,1-2.6,1.7c-0.7,0.7-1.3,1.5-1.8,2.4c-0.5,0.9-0.9,1.8-1.2,2.8
			c-0.3,0.9-0.5,1.9-0.7,3c-0.2,1-0.3,2-0.4,3c-0.1,0.9-0.1,1.8-0.1,2.8c0,2.4,0.8,4.4,2.3,5.9c1.5,1.4,3.5,2.2,5.9,2.2h22.5
			c2.4,0,4.4-0.7,5.9-2.2c1.5-1.5,2.3-3.4,2.3-5.9C275,323.1,275,322.2,274.9,321.3z"/>
	</g>
</g>
</svg>
