<?xml version="1.0" encoding="utf-8"?>
<!-- Generator: Adobe Illustrator 24.0.3, SVG Export Plug-In . SVG Version: 6.00 Build 0)  -->
<svg version="1.1" id="Capa_1" xmlns="http://www.w3.org/2000/svg" xmlns:xlink="http://www.w3.org/1999/xlink" x="0px" y="0px"
	 viewBox="0 0 512 512" style="enable-background:new 0 0 512 512;" xml:space="preserve">
<style type="text/css">
	.st0{fill:#8E8E8E;}
	.st1{opacity:0.5;fill:#1BBB9A;enable-background:new    ;}
	.st2{fill:#3597DA;}
	.st3{fill:#2A80B8;}
	.st4{fill:#9A58B4;}
	.st5{fill:#F0C30F;}
	.st6{fill:#F29B11;}
	.st7{fill:#8E44AC;}
</style>
<path class="st0" d="M437.4,181.8c0-3.6-2.9-6.5-6.5-6.5h-10c-1.4-4.6-3.2-9-5.5-13.2l7.1-7.1c2.5-2.5,2.5-6.7,0-9.2l-19.8-19.8
	c-2.5-2.5-6.7-2.5-9.2,0l-7.1,7.1c-4.2-2.3-8.6-4.1-13.2-5.5v-10c0-3.6-2.9-6.5-6.5-6.5h-28c-3.6,0-6.5,2.9-6.5,6.5v10.1
	c-4.6,1.4-9,3.2-13.2,5.5l-7.1-7.1c-2.5-2.5-6.7-2.5-9.2,0l-19.8,19.8c-1.6,1.6-2.2,3.7-1.8,5.7H129.8c-14.4,0-26.1,11.7-26.1,26.1
	v179.9c0,14.4,11.7,26.1,26.1,26.1h103.6v22.2h-15.6c-13,0-23.5,10.5-23.5,23.5v9.1c0,3.6,2.9,6.5,6.5,6.5h119.9
	c3.6,0,6.5-2.9,6.5-6.5v-9.1c0-13-10.5-23.5-23.5-23.5h-15.6v-22.2h103.5c14.4,0,26.1-11.7,26.1-26.1V250.6l4.8-4.8
	c1.2-1.2,1.9-2.9,1.9-4.6c0-1.7-0.7-3.4-1.9-4.6l-7.1-7.1c2.3-4.2,4.1-8.6,5.5-13.2h10.1c1.7,0,3.4-0.7,4.6-1.9
	c1.2-1.2,1.9-2.9,1.9-4.6L437.4,181.8z M411.8,186.8c-0.6-0.5-1.1-1-1.4-1.6c-0.3-0.4-0.5-0.9-0.7-1.5v0c0.2,0.5,0.4,1,0.7,1.5
	C410.7,185.8,411.2,186.4,411.8,186.8z M401,159.3L401,159.3c0-0.1,0-0.2,0.1-0.2C401,159.2,401,159.3,401,159.3z M408.7,150.3l-6,6
	c-0.3,0.3-0.6,0.6-0.8,1c-0.2,0.3-0.3,0.5-0.5,0.8c0.1-0.3,0.3-0.6,0.5-0.8c0.2-0.4,0.5-0.7,0.8-1L408.7,150.3l-10.6-10.6
	L408.7,150.3z M360.2,124.1v8.6c0,2.7,1.6,5,4,6c-2.4-1-4-3.4-4-6L360.2,124.1L360.2,124.1z M315.2,147.2c1,0.5,2.1,0.7,3.2,0.6
	C317.4,147.8,316.2,147.6,315.2,147.2c-0.7-0.3-1.3-0.7-1.9-1.3C313.9,146.4,314.5,146.8,315.2,147.2z M410.3,206.3
	c0.4-0.6,0.9-1.2,1.4-1.6C411.2,205.1,410.7,205.7,410.3,206.3z M414.7,203.3c-0.7,0.1-1.4,0.4-2.1,0.7
	C413.3,203.7,414,203.5,414.7,203.3c0.4-0.1,0.7-0.1,1.1-0.1h0C415.4,203.2,415.1,203.3,414.7,203.3z"/>
<path class="st1" d="M497.1,260.1c-12.4,96.7-81.5-2.6-100.2,57.3c-11.3,36.3,35.6,80.9,19.7,120.7c-13.3,33.3-50.4,42.1-85.4,35.5
	c-28.2-5.3-53.3-33.7-82.9-29c-31.4,5-41.2,45.1-72.4,55.7C95.7,527.5,58.1,430.1,38.1,374c-25.3-71.3-49.5-164.6,28.5-211.9
	c82.1-49.9,137.2,20.4,189.9-79.9C360.3-115.8,514.4,124.9,497.1,260.1L497.1,260.1z"/>
<path class="st2" d="M64.4,356.8c-3.9,0-7.6-1.5-10.3-4.3c-5.7-5.7-5.7-15,0-20.6c5.7-5.7,15-5.7,20.6,0c5.7,5.7,5.7,15,0,20.6l0,0
	l0,0C72,355.3,68.3,356.8,64.4,356.8z M64.4,337.6c-1.2,0-2.4,0.4-3.3,1.3c-1.8,1.8-1.8,4.7,0,6.5c0.9,0.9,2,1.3,3.3,1.3
	c1.2,0,2.4-0.5,3.3-1.3l0,0c1.8-1.8,1.8-4.7,0-6.5C66.7,338,65.6,337.6,64.4,337.6z"/>
<path class="st3" d="M151.9,88.5c-3.7,0-7.5-1.4-10.3-4.3c-5.7-5.7-5.7-15,0-20.7s15-5.7,20.6,0c2.8,2.8,4.3,6.4,4.3,10.3
	s-1.5,7.6-4.3,10.3l0,0C159.3,87,155.6,88.5,151.9,88.5z M151.9,69.3c-1.2,0-2.4,0.4-3.3,1.3c-1.8,1.8-1.8,4.7,0,6.5s4.7,1.8,6.5,0
	l0,0c0.9-0.9,1.3-2,1.3-3.3s-0.5-2.4-1.3-3.3C154.2,69.7,153,69.3,151.9,69.3L151.9,69.3z"/>
<path class="st4" d="M197.8,92.1h-3.2v-3.2c0-2.8-2.2-5-5-5s-5,2.2-5,5v3.2h-3.2c-2.8,0-5,2.2-5,5s2.2,5,5,5h3.2v3.2
	c0,2.8,2.2,5,5,5s5-2.2,5-5v-3.2h3.2c2.8,0,5-2.2,5-5S200.5,92.1,197.8,92.1z"/>
<path class="st3" d="M457.2,163.4H454v-3.2c0-2.8-2.2-5-5-5s-5,2.2-5,5v3.2h-3.2c-2.8,0-5,2.2-5,5s2.2,5,5,5h3.2v3.2
	c0,2.8,2.2,5,5,5s5-2.2,5-5v-3.2h3.2c2.8,0,5-2.2,5-5S460,163.4,457.2,163.4z"/>
<path class="st2" d="M384.4,365H110.3c-6.6,0-12-5.4-12-12V159.7c0-6.6,5.4-12,12-12h274.1c6.6,0,12,5.4,12,12V353
	C396.4,359.6,391,365,384.4,365z"/>
<path class="st2" d="M295.2,427.9h-94.1c-6.6,0-12-5.4-12-12v-1.4c0-6.6,5.4-12,12-12h94.1c6.6,0,12,5.4,12,12v1.4
	C307.2,422.5,301.8,427.9,295.2,427.9z"/>
<path class="st5" d="M395.4,230l-6.1-6.1c-2.2-2.2-2.5-5.6-0.9-8.1c3.7-5.7,6.3-12,7.7-18.6c0.7-3,3.3-5.1,6.4-5.1h8.6v-14.9h-8.6
	c-3.1,0-5.7-2.1-6.4-5.1c-1.5-6.6-4.1-12.9-7.7-18.7c-1.4-2.2-1.4-5,0.1-7.1c0.2-0.4,0.5-0.7,0.8-1l6-6l-10.6-10.6l-6,6
	c-2,2-5,2.5-7.5,1.2c-0.2-0.1-0.4-0.2-0.6-0.3c-5.7-3.7-12-6.3-18.7-7.7c-3-0.7-5.1-3.3-5.1-6.4v-8.6H332l0,8.6
	c0,3.1-2.1,5.7-5.1,6.4c-6.6,1.5-12.8,4-18.5,7.7c-2.5,1.7-6,1.4-8.2-0.8l-6.1-6.1l-10.6,10.6l6.1,6.1c2.2,2.2,2.5,5.6,0.9,8.1
	c-3.6,5.7-6.2,12-7.7,18.6c-0.7,3-3.3,5.1-6.4,5.1h-8.6l0,14.9h8.7c3.1,0,5.7,2.1,6.4,5.1c1.5,6.6,4.1,12.9,7.7,18.6
	c1.6,2.6,1.3,6-0.9,8.1l-6.1,6.1l10.6,10.6l6.1-6.1c1.2-1.2,2.9-1.9,4.6-1.9c1.2,0,2.5,0.4,3.5,1c5.7,3.7,12,6.2,18.6,7.7
	c3,0.7,5.1,3.3,5.1,6.4v8.7h14.9l0-8.6c0-3.1,2.1-5.7,5.1-6.4c6.6-1.5,12.9-4,18.6-7.7c0.2-0.1,0.4-0.2,0.6-0.3
	c2.5-1.3,5.5-0.8,7.5,1.2l6.1,6.1L395.4,230z"/>
<path class="st2" d="M253.8,400.4h-14.4c-6.6,0-12-5.4-12-12v-10.5c0-6.6,5.4-12,12-12h14.4c6.6,0,12,5.4,12,12v10.5
	C265.8,395,260.4,400.4,253.8,400.4z"/>
<path class="st6" d="M228.3,215.5l4.5-2.6l-4.5-7.8l-4.5,2.6c-2.4,1.4-5.5,1.1-7.6-0.8c-3-2.7-6.4-4.6-10.2-5.9
	c-2.7-0.9-4.5-3.4-4.5-6.2v-5.1h-9v5.1c0,2.8-1.8,5.3-4.5,6.2c-3.8,1.2-7.2,3.2-10.2,5.9c-2.1,1.9-5.2,2.2-7.6,0.8l-4.5-2.6
	l-4.5,7.8l4.5,2.6c2.4,1.4,3.7,4.2,3.1,7c-0.4,1.9-0.6,3.9-0.6,5.9s0.2,4,0.6,5.9c0.6,2.8-0.7,5.6-3.1,7l-4.5,2.6l4.5,7.8l4.5-2.6
	c2.4-1.4,5.5-1.1,7.6,0.8c3,2.7,6.4,4.6,10.2,5.9c2.7,0.9,4.5,3.4,4.5,6.2v5.1h9v-5.1c0-2.8,1.8-5.3,4.5-6.2
	c3.8-1.2,7.2-3.2,10.2-5.9c2.1-1.9,5.2-2.2,7.6-0.8l4.5,2.6l4.5-7.8l-4.5-2.6c-2.4-1.4-3.7-4.2-3.1-7c0.4-1.9,0.6-3.9,0.6-5.9
	s-0.2-4-0.6-5.9C224.6,219.7,225.9,216.9,228.3,215.5z"/>
<g>
	<g id="XMLID_1_">
		<g id="XMLID_2_">
			<g id="XMLID_3_">
				<path id="XMLID_10_" class="st7" d="M247.5,337.7c-1.7,0-3.4,0.7-4.6,1.9c-1.2,1.2-1.9,2.9-1.9,4.6c0,1.7,0.7,3.4,1.9,4.6
					c1.2,1.2,2.9,1.9,4.6,1.9s3.4-0.7,4.6-1.9c1.2-1.2,1.9-2.9,1.9-4.6c0-1.7-0.7-3.4-1.9-4.6C250.9,338.4,249.2,337.7,247.5,337.7z
					"/>
				<path id="XMLID_9_" class="st7" d="M371.9,318.3c-1.7,0-3.4,0.7-4.6,1.9c-1.2,1.2-1.9,2.9-1.9,4.6c0,1.7,0.7,3.4,1.9,4.6
					c1.2,1.2,2.9,1.9,4.6,1.9c1.7,0,3.4-0.7,4.6-1.9c1.2-1.2,1.9-2.9,1.9-4.6s-0.7-3.4-1.9-4.6C375.3,319,373.6,318.3,371.9,318.3z"
					/>
				<path id="XMLID_8_" class="st7" d="M179,286.9c-1.7,0-3.4,0.7-4.6,1.9c-1.2,1.2-1.9,2.9-1.9,4.6s0.7,3.4,1.9,4.6
					c1.2,1.2,2.9,1.9,4.6,1.9s3.4-0.7,4.6-1.9c1.2-1.2,1.9-2.9,1.9-4.6s-0.7-3.4-1.9-4.6C182.4,287.6,180.7,286.9,179,286.9z"/>
				<path id="XMLID_7_" class="st7" d="M424.2,170.6c0-3.6-2.9-6.5-6.5-6.5h-10c-1.4-4.6-3.2-9-5.5-13.2l7.1-7.1
					c2.5-2.5,2.5-6.7,0-9.2l-19.8-19.8c-2.5-2.5-6.7-2.5-9.2,0l-7.1,7.1c-4.2-2.3-8.6-4.1-13.2-5.5l0-10c0-3.6-2.9-6.5-6.5-6.5h-28
					c-3.6,0-6.5,2.9-6.5,6.5v10.1c-4.6,1.4-9,3.2-13.2,5.5l-7.1-7.1c-2.5-2.5-6.7-2.5-9.2,0l-19.8,19.8c-1.6,1.6-2.2,3.7-1.8,5.7
					H116.5c-14.4,0-26.1,11.7-26.1,26.1v179.9c0,14.4,11.7,26.1,26.1,26.1h103.6v22.2h-15.6c-13,0-23.5,10.5-23.5,23.5v9.1
					c0,3.6,2.9,6.5,6.5,6.5h119.9c3.6,0,6.5-2.9,6.5-6.5v-9.1c0-13-10.5-23.5-23.5-23.5h-15.6v-22.2h103.5
					c14.4,0,26.1-11.7,26.1-26.1V239.4l4.8-4.8c1.2-1.2,1.9-2.9,1.9-4.6s-0.7-3.4-1.9-4.6l-7.1-7.1c2.3-4.2,4.1-8.6,5.5-13.2h10.1
					c1.7,0,3.4-0.7,4.6-1.9c1.2-1.2,1.9-2.9,1.9-4.6L424.2,170.6z M300.9,417.9v2.6H194v-2.6c0-5.8,4.7-10.5,10.5-10.5h86
					C296.2,407.5,300.9,412.2,300.9,417.9z M261.8,394.4h-28.7v-22.2h28.7V394.4z M391.4,346.2c0,7.2-5.9,13.1-13.1,13.1H116.5
					c-7.2,0-13.1-5.9-13.1-13.1v-14.9h242.3c3.6,0,6.5-2.9,6.5-6.5s-2.9-6.5-6.5-6.5H103.4v-18.3h49.8c3.6,0,6.5-2.9,6.5-6.5
					s-2.9-6.5-6.5-6.5h-49.8V166.3c0-7.2,5.9-13.1,13.1-13.1h159c-1.7,3.5-3.1,7.1-4.2,10.8h-10.1c-1.7,0-3.4,0.7-4.6,1.9
					c-1.2,1.2-1.9,2.9-1.9,4.6l0,28c0,3.6,2.9,6.5,6.5,6.5h10.1c1.4,4.5,3.2,8.9,5.4,13.1l-7.2,7.2c-2.5,2.5-2.5,6.7,0,9.2
					l19.8,19.8c2.5,2.5,6.7,2.5,9.2,0l7.2-7.2c4.2,2.3,8.6,4.1,13.1,5.4l0,10.1c0,3.6,2.9,6.5,6.5,6.5l28,0c3.6,0,6.5-2.9,6.5-6.5
					v-10.1c4.6-1.4,9-3.2,13.2-5.4l7.1,7.1c1.2,1.2,2.9,1.9,4.6,1.9s3.4-0.7,4.6-1.9l2-2L391.4,346.2L391.4,346.2z M411.1,192h-8.6
					c-3.1,0-5.7,2.1-6.4,5.1c-1.5,6.6-4.1,12.9-7.7,18.6c-1.7,2.6-1.3,6,0.9,8.1l6.1,6.1l-10.6,10.6l-6.1-6.1c-2-2-5-2.5-7.5-1.2
					c-0.2,0.1-0.4,0.2-0.6,0.3c-5.7,3.6-12,6.2-18.6,7.7c-3,0.7-5.1,3.3-5.1,6.4l0,8.6H332v-8.7c0-3.1-2.1-5.7-5.1-6.4
					c-6.6-1.5-12.9-4.1-18.6-7.7c-1-0.7-2.3-1-3.5-1c-1.7,0-3.4,0.7-4.6,1.9l-6.1,6.1L283.4,230l6.1-6.1c2.2-2.2,2.5-5.6,0.9-8.1
					c-3.6-5.7-6.2-12-7.7-18.6c-0.7-3-3.3-5.1-6.4-5.1h-8.7l0-14.9h8.6c3.1,0,5.7-2.1,6.4-5.1c1.5-6.6,4-12.9,7.7-18.6
					c1.6-2.6,1.3-6-0.9-8.1l-6.1-6.1l10.6-10.6l6.1,6.1c2.2,2.2,5.7,2.5,8.2,0.8c5.7-3.6,11.9-6.2,18.5-7.7c3-0.7,5.1-3.3,5.1-6.4
					l0-8.6h14.9v8.6c0,3.1,2.1,5.7,5.1,6.4c6.6,1.5,12.9,4.1,18.7,7.7c0.2,0.1,0.4,0.2,0.6,0.3c2.5,1.3,5.5,0.8,7.5-1.2l6-6
					l10.6,10.6l-6,6c-0.3,0.3-0.6,0.6-0.8,1c-1.4,2.2-1.5,5-0.1,7.1c3.7,5.7,6.3,12,7.7,18.7c0.7,3,3.3,5.1,6.4,5.1h8.6L411.1,192
					L411.1,192z"/>
				<path id="XMLID_6_" class="st7" d="M339.4,144.1c-22.3,0-40.4,18.1-40.4,40.4s18.1,40.4,40.4,40.4c22.3,0,40.4-18.1,40.4-40.4
					S361.7,144.1,339.4,144.1z M339.4,211.9c-15.1,0-27.4-12.3-27.4-27.4s12.3-27.4,27.4-27.4s27.4,12.3,27.4,27.4
					S354.5,211.9,339.4,211.9z"/>
				<path id="XMLID_5_" class="st7" d="M197.1,221.8c-1.7,0-3.4,0.7-4.6,1.9c-1.2,1.2-1.9,2.9-1.9,4.6c0,1.7,0.7,3.4,1.9,4.6
					c1.2,1.2,2.9,1.9,4.6,1.9c1.7,0,3.4-0.7,4.6-1.9c1.2-1.2,1.9-2.9,1.9-4.6c0-1.7-0.7-3.4-1.9-4.6
					C200.5,222.5,198.8,221.8,197.1,221.8z"/>
				<path id="XMLID_4_" class="st7" d="M248,217c0.4-1.7,0.2-3.4-0.7-4.9l-11-19.1c-1.8-3.1-5.8-4.2-8.9-2.4l-6.3,3.6
					c-2.1-1.5-4.2-2.7-6.5-3.8v-7.2c0-3.6-2.9-6.5-6.5-6.5h-22c-3.6,0-6.5,2.9-6.5,6.5v7.2c-2.3,1.1-4.5,2.3-6.5,3.8l-6.3-3.6
					c-1.5-0.9-3.3-1.1-4.9-0.7c-1.7,0.4-3.1,1.5-4,3l-11,19.1c-1.8,3.1-0.7,7.1,2.4,8.9l6.3,3.6c-0.1,1.3-0.2,2.5-0.2,3.8
					s0.1,2.5,0.2,3.8l-6.3,3.6c-3.1,1.8-4.2,5.8-2.4,8.9l11,19.1c0.9,1.5,2.3,2.6,4,3c1.7,0.4,3.4,0.2,4.9-0.7l6.3-3.6
					c2.1,1.5,4.2,2.7,6.5,3.8v7.2c0,3.6,2.9,6.5,6.5,6.5h22c3.6,0,6.5-2.9,6.5-6.5v-7.2c2.3-1.1,4.5-2.3,6.5-3.8l6.3,3.6
					c3.1,1.8,7.1,0.7,8.9-2.4l11-19.1c0.9-1.5,1.1-3.3,0.7-4.9c-0.4-1.7-1.5-3.1-3-4l-6.3-3.6c0.1-1.3,0.2-2.5,0.2-3.8
					s-0.1-2.5-0.2-3.8l6.3-3.6C246.4,220.1,247.5,218.7,248,217z M225.2,222.5c0.4,1.9,0.6,3.9,0.6,5.9s-0.2,4-0.6,5.9
					c-0.6,2.8,0.7,5.6,3.1,7l4.5,2.6l-4.5,7.8l-4.5-2.6c-2.4-1.4-5.5-1.1-7.6,0.8c-3,2.7-6.4,4.6-10.2,5.9c-2.7,0.9-4.5,3.4-4.5,6.2
					v5.1h-9v-5.1c0-2.8-1.8-5.3-4.5-6.2c-3.8-1.2-7.2-3.2-10.2-5.9c-2.1-1.9-5.2-2.2-7.6-0.8l-4.5,2.6l-4.5-7.8l4.5-2.6
					c2.4-1.4,3.7-4.2,3.1-7c-0.4-1.9-0.6-3.9-0.6-5.9c0-2,0.2-4,0.6-5.9c0.6-2.8-0.7-5.6-3.1-7l-4.5-2.6l4.5-7.8l4.5,2.6
					c2.4,1.4,5.5,1.1,7.6-0.8c3-2.7,6.4-4.6,10.2-5.9c2.7-0.9,4.5-3.4,4.5-6.2v-5.1h9v5.1c0,2.8,1.8,5.3,4.5,6.2
					c3.8,1.2,7.2,3.2,10.2,5.9c2.1,1.9,5.2,2.2,7.6,0.8l4.5-2.6l4.5,7.8l-4.5,2.6C225.9,216.9,224.6,219.7,225.2,222.5z"/>
			</g>
		</g>
	</g>
</g>
</svg>
