<?xml version="1.0" encoding="utf-8"?>
<!-- Generator: Adobe Illustrator 24.0.3, SVG Export Plug-In . SVG Version: 6.00 Build 0)  -->
<svg version="1.1" id="Capa_1" xmlns="http://www.w3.org/2000/svg" xmlns:xlink="http://www.w3.org/1999/xlink" x="0px" y="0px"
	 viewBox="0 0 512 512" style="enable-background:new 0 0 512 512;" xml:space="preserve">
<style type="text/css">
	.st0{opacity:0.5;}
	.st1{fill:#1BBB9A;}
	.st2{opacity:0.1;}
	.st3{fill:#2626BC;}
	.st4{fill:#2A80B8;}
	.st5{opacity:0.1;fill:#2626BC;enable-background:new    ;}
	.st6{fill:#9A58B4;}
	.st7{fill:#AE7EC4;}
	.st8{fill:#8E44AC;}
	.st9{fill:#F0C30F;}
	.st10{fill:#F29B11;}
	.st11{fill:#3597DA;}
	.st12{fill:#FFFFFF;}
</style>
<g>
	<g>
		<g class="st0">
			<path class="st1" d="M97.1,38.2c-135.3,119.5,38.8,235.4,22.2,366c-7.4,58.1,16.1,113.6,92.7,107.2
				c93.4-7.7,59.5-97.2,79.1-156.8C324.8,252.1,531.8,276,446,118.2C391.3,17.5,190.3-44,97.1,38.2L97.1,38.2z"/>
		</g>
		<g>
			<g>
				<g class="st2">
					<path class="st3" d="M379.9,139c-2.8,0-5-2.2-5-5c0-14.9-12.1-27.1-27.1-27.1H247.7c-20.4,0-37.1-16.6-37.1-37.1V42.3
						c0-2.8,2.2-5,5-5s5,2.2,5,5v27.6c0,14.9,12.1,27.1,27.1,27.1h100.1c20.4,0,37.1,16.6,37.1,37.1
						C384.9,136.8,382.6,139,379.9,139z"/>
				</g>
				<path class="st4" d="M401.7,143h-43.6v-23c0-5.5,4.5-10,10-10h23.6c5.5,0,10,4.5,10,10V143z"/>
				<path class="st5" d="M441.7,160.3h-232v-9.7c0-11-9-20-20-20h-68c-11,0-20,9-20,20v9.7H70.3c-5.5,0-10,4.5-10,10V435
					c0,5.5,4.5,10,10,10h31.4v9.7c0,11,9,20,20,20h68c11,0,20-9,20-20V445h232.1c5.5,0,10-4.5,10-10V170.3
					C451.7,164.8,447.2,160.3,441.7,160.3z"/>
				<path class="st6" d="M441.7,421H70.3c-5.5,0-10-4.5-10-10V146.3c0-5.5,4.5-10,10-10h371.5c5.5,0,10,4.5,10,10V411
					C451.7,416.5,447.2,421,441.7,421z"/>
				<path class="st7" d="M209.7,177.7v-51.1c0-11-9-20-20-20h-68c-11,0-20,9-20,20v51.1c0,5.1,3.8,9.3,8.7,9.9v182
					c-4.9,0.6-8.7,4.8-8.7,9.9v51.1c0,11,9,20,20,20h68c11,0,20-9,20-20v-51.1c0-5.1-3.8-9.3-8.7-9.9v-182
					C205.9,187,209.7,182.8,209.7,177.7z"/>
				<g>
					<g>
						<g>
							<circle class="st7" cx="262.1" cy="250.6" r="16.1"/>
						</g>
						<g>
							<circle class="st7" cx="310.1" cy="250.6" r="16.1"/>
						</g>
						<g>
							<circle class="st7" cx="358.1" cy="250.6" r="16.1"/>
						</g>
					</g>
					<g>
						<g>
							<circle class="st7" cx="262.1" cy="292.2" r="16.1"/>
						</g>
						<g>
							<circle class="st7" cx="310.1" cy="292.2" r="16.1"/>
						</g>
						<g>
							<circle class="st7" cx="358.1" cy="292.2" r="16.1"/>
						</g>
					</g>
					<g>
						<g>
							<circle class="st7" cx="262.1" cy="333.9" r="16.1"/>
						</g>
						<g>
							<circle class="st7" cx="310.1" cy="333.9" r="16.1"/>
						</g>
						<g>
							<circle class="st7" cx="358.1" cy="333.9" r="16.1"/>
						</g>
					</g>
					<g>
						<path class="st7" d="M406.7,254h-6.5c-4.8,0-8.7-3.9-8.7-8.7s3.9-8.7,8.7-8.7h6.5c4.8,0,8.7,3.9,8.7,8.7S411.5,254,406.7,254z
							"/>
						<path class="st7" d="M406.7,285.5h-6.5c-4.8,0-8.7-3.9-8.7-8.7s3.9-8.7,8.7-8.7h6.5c4.8,0,8.7,3.9,8.7,8.7
							S411.5,285.5,406.7,285.5z"/>
						<path class="st7" d="M406.7,317.1h-6.5c-4.8,0-8.7-3.9-8.7-8.7s3.9-8.7,8.7-8.7h6.5c4.8,0,8.7,3.9,8.7,8.7
							C415.3,313.2,411.5,317.1,406.7,317.1z"/>
						<path class="st7" d="M406.7,348.6h-6.5c-4.8,0-8.7-3.9-8.7-8.7s3.9-8.7,8.7-8.7h6.5c4.8,0,8.7,3.9,8.7,8.7
							S411.5,348.6,406.7,348.6z"/>
					</g>
				</g>
				<g>
					<g>
						<g>
							<path class="st8" d="M253,380.2c-2.8,0-5-2.2-5-5V375c0-2.8,2.2-5,5-5s5,2.2,5,5v0.1C258,377.9,255.8,380.2,253,380.2z"/>
						</g>
						<g>
							<path class="st8" d="M274,380.2c-2.8,0-5-2.2-5-5V375c0-2.8,2.2-5,5-5s5,2.2,5,5v0.1C279,377.9,276.8,380.2,274,380.2z"/>
						</g>
						<g>
							<path class="st8" d="M295,380.2c-2.8,0-5-2.2-5-5V375c0-2.8,2.2-5,5-5s5,2.2,5,5v0.1C300,377.9,297.8,380.2,295,380.2z"/>
						</g>
						<g>
							<path class="st8" d="M316,380.2c-2.8,0-5-2.2-5-5V375c0-2.8,2.2-5,5-5s5,2.2,5,5v0.1C321,377.9,318.8,380.2,316,380.2z"/>
						</g>
					</g>
					<g>
						<g>
							<path class="st8" d="M253,396.1c-2.8,0-5-2.2-5-5V391c0-2.8,2.2-5,5-5s5,2.2,5,5v0.1C258,393.9,255.8,396.1,253,396.1z"/>
						</g>
						<g>
							<path class="st8" d="M274,396.1c-2.8,0-5-2.2-5-5V391c0-2.8,2.2-5,5-5s5,2.2,5,5v0.1C279,393.9,276.8,396.1,274,396.1z"/>
						</g>
						<g>
							<path class="st8" d="M295,396.1c-2.8,0-5-2.2-5-5V391c0-2.8,2.2-5,5-5s5,2.2,5,5v0.1C300,393.9,297.8,396.1,295,396.1z"/>
						</g>
						<g>
							<path class="st8" d="M316,396.1c-2.8,0-5-2.2-5-5V391c0-2.8,2.2-5,5-5s5,2.2,5,5v0.1C321,393.9,318.8,396.1,316,396.1z"/>
						</g>
					</g>
				</g>
				<g>
					<g>
						<g>
							<path class="st8" d="M347,380.2c-2.8,0-5-2.2-5-5V375c0-2.8,2.2-5,5-5s5,2.2,5,5v0.1C352,377.9,349.8,380.2,347,380.2z"/>
						</g>
						<g>
							<path class="st8" d="M368,380.2c-2.8,0-5-2.2-5-5V375c0-2.8,2.2-5,5-5s5,2.2,5,5v0.1C373,377.9,370.8,380.2,368,380.2z"/>
						</g>
						<g>
							<path class="st8" d="M389,380.2c-2.8,0-5-2.2-5-5V375c0-2.8,2.2-5,5-5s5,2.2,5,5v0.1C394,377.9,391.8,380.2,389,380.2z"/>
						</g>
						<g>
							<path class="st8" d="M410,380.2c-2.8,0-5-2.2-5-5V375c0-2.8,2.2-5,5-5s5,2.2,5,5v0.1C415,377.9,412.8,380.2,410,380.2z"/>
						</g>
					</g>
					<g>
						<g>
							<path class="st8" d="M347,396.1c-2.8,0-5-2.2-5-5V391c0-2.8,2.2-5,5-5s5,2.2,5,5v0.1C352,393.9,349.8,396.1,347,396.1z"/>
						</g>
						<g>
							<path class="st8" d="M368,396.1c-2.8,0-5-2.2-5-5V391c0-2.8,2.2-5,5-5s5,2.2,5,5v0.1C373,393.9,370.8,396.1,368,396.1z"/>
						</g>
						<g>
							<path class="st8" d="M389,396.1c-2.8,0-5-2.2-5-5V391c0-2.8,2.2-5,5-5s5,2.2,5,5v0.1C394,393.9,391.8,396.1,389,396.1z"/>
						</g>
						<g>
							<path class="st8" d="M410,396.1c-2.8,0-5-2.2-5-5V391c0-2.8,2.2-5,5-5s5,2.2,5,5v0.1C415,393.9,412.8,396.1,410,396.1z"/>
						</g>
					</g>
				</g>
			</g>
			<path class="st4" d="M300,490.7c-2.8,0-5-2.2-5-5c0-3.3-2.7-6-6-6c-2.8,0-5-2.2-5-5s2.2-5,5-5c3.3,0,6-2.7,6-6c0-2.8,2.2-5,5-5
				s5,2.2,5,5c0,3.3,2.7,6,6,6c2.8,0,5,2.2,5,5s-2.2,5-5,5c-3.3,0-6,2.7-6,6C305,488.4,302.8,490.7,300,490.7z"/>
			<path class="st9" d="M358.1,489c-2.8,0-5-2.2-5-5c0-3.3-2.7-6-6-6c-2.8,0-5-2.2-5-5s2.2-5,5-5c3.3,0,6-2.7,6-6c0-2.8,2.2-5,5-5
				s5,2.2,5,5c0,3.3,2.7,6,6,6c2.8,0,5,2.2,5,5s-2.2,5-5,5c-3.3,0-6,2.7-6,6C363.1,486.8,360.8,489,358.1,489z"/>
			<path class="st10" d="M433,69.3c-2.8,0-5-2.2-5-5c0-3.3-2.7-6-6-6c-2.8,0-5-2.2-5-5s2.2-5,5-5c3.3,0,6-2.7,6-6c0-2.8,2.2-5,5-5
				s5,2.2,5,5c0,3.3,2.7,6,6,6c2.8,0,5,2.2,5,5s-2.2,5-5,5c-3.3,0-6,2.7-6,6C438,67.1,435.8,69.3,433,69.3z"/>
			<path class="st11" d="M163,76.7c-1.3,0-2.6-0.5-3.5-1.5l-11-11c-2-2-2-5.1,0-7.1l11-11c2-2,5.1-2,7.1,0l11,11c2,2,2,5.1,0,7.1
				l-11,11C165.6,76.2,164.3,76.7,163,76.7z M159.1,60.7l3.9,3.9l3.9-3.9l-3.9-3.9L159.1,60.7z"/>
			<path class="st8" d="M368,58.3c-1.3,0-2.6-0.5-3.5-1.5l-11-11c-2-2-2-5.1,0-7.1l11-11c2-2,5.1-2,7.1,0l11,11c2,2,2,5.1,0,7.1
				l-11,11C370.6,57.8,369.3,58.3,368,58.3z M364.1,42.3l3.9,3.9l3.9-3.9l-3.9-3.9L364.1,42.3z"/>
		</g>
	</g>
	<path class="st8" d="M96.7,126.6v4.7H70.3c-8.3,0-15,6.7-15,15V411c0,8.3,6.7,15,15,15h26.4v4.7c0,13.8,11.2,25,25,25h68
		c13.8,0,25-11.2,25-25V426h227.1c8.3,0,15-6.7,15-15V146.3c0-8.3-6.7-15-15-15h-35.1V120c0-8.3-6.7-15-15-15h-7.1
		c-2.5-18-18.1-32-36.8-32H247.7c-14.9,0-27.1-12.1-27.1-27.1v-3.6c0-2.8-2.2-5-5-5s-5,2.2-5,5v3.6c0,20.4,16.6,37.1,37.1,37.1
		h100.1c13.2,0,24.2,9.5,26.6,22.1h-6.3c-8.3,0-15,6.7-15,15v11.3H243.3c-2.8,0-5,2.2-5,5s2.2,5,5,5h198.4c2.8,0,5,2.2,5,5V411
		c0,2.8-2.2,5-5,5h-227v-36.4c0-6-3.5-11.2-8.7-13.6v-33.4c0-2.8-2.2-5-5-5s-5,2.2-5,5v37.1c0,2.5,1.9,4.6,4.4,5
		c2.5,0.3,4.4,2.4,4.4,4.9v51.1c0,8.3-6.7,15-15,15h-68c-8.3,0-15-6.7-15-15v-51.1c0-2.5,1.9-4.6,4.4-4.9s4.4-2.4,4.4-5v-182
		c0-2.5-1.9-4.6-4.4-5c-2.5-0.3-4.4-2.4-4.4-4.9v-51.1c0-8.3,6.7-15,15-15h68c8.3,0,15,6.7,15,15v51.1c0,2.5-1.9,4.6-4.4,4.9
		c-2.5,0.3-4.4,2.4-4.4,5v111.2c0,2.8,2.2,5,5,5s5-2.2,5-5V191.4c5.2-2.4,8.7-7.6,8.7-13.6v-51.1c0-13.8-11.2-25-25-25h-68
		C107.9,101.6,96.7,112.8,96.7,126.6z M363.1,120c0-2.8,2.2-5,5-5h23.6c2.8,0,5,2.2,5,5v11.3h-33.6V120z M105.4,365.9
		c-5.2,2.4-8.7,7.6-8.7,13.6V416H70.3c-2.8,0-5-2.2-5-5V146.3c0-2.8,2.2-5,5-5h26.4v36.4c0,6,3.5,11.2,8.7,13.6V365.9L105.4,365.9z"
		/>
</g>
<g>
	<polygon class="st12" points="246.8,180.2 241,180.2 241,175.5 258.9,175.5 258.9,180.2 253.1,180.2 253.1,199.3 246.8,199.3 	"/>
	<polygon class="st12" points="265.8,175.5 282.5,175.5 282.5,180 272.1,180 272.1,185 282,185 282,189.5 272.1,189.5 272.1,194.8 
		282.9,194.8 282.9,199.3 265.8,199.3 	"/>
	<polygon class="st12" points="291.8,175.5 298.2,175.5 298.2,194.6 306.8,194.6 306.8,199.3 291.8,199.3 	"/>
	<polygon class="st12" points="312.4,175.5 329.2,175.5 329.2,180 318.8,180 318.8,185 328.5,185 328.5,189.5 318.8,189.5 
		318.8,194.8 329.5,194.8 329.5,199.3 312.4,199.3 	"/>
	<path class="st12" d="M355,198.7c-1.8,0.5-3.3,1-6.6,1c-5.8,0-13.2-3.2-13.2-12.1c0-8.2,5.8-12.3,13.1-12.3c2.5,0,4.4,0.6,6.6,1.3
		l-0.5,5.1c-2.1-1.1-3.3-1.6-5.7-1.6c-4.2,0-7,3.2-7,7.6c0,4.7,3.3,7.4,7.4,7.4c2.1,0,3.8-0.6,5.5-1.3L355,198.7z"/>
	<path class="st12" d="M371.2,175.2c7.8,0,11.9,4.7,11.9,12.2c0,7.5-4.1,12.2-11.9,12.2c-7.8,0-11.9-4.8-11.9-12.2
		C359.3,179.9,363.4,175.2,371.2,175.2 M371.2,194.9c3.9,0,5.4-3.7,5.4-7.5c0-4.1-1.5-7.5-5.4-7.5c-3.9,0-5.4,3.4-5.4,7.5
		C365.8,191.4,367.4,194.9,371.2,194.9"/>
	<polygon class="st12" points="390.1,175.5 399.6,175.5 404.5,191.5 404.5,191.5 409.4,175.5 419,175.5 419,199.3 412.8,199.3 
		413,180.6 413,180.6 406.9,199.3 401.7,199.3 396,180.6 396,180.6 396.1,199.3 390.1,199.3 	"/>
</g>
</svg>
