<?xml version="1.0" encoding="utf-8"?>
<!-- Generator: Adobe Illustrator 24.0.3, SVG Export Plug-In . SVG Version: 6.00 Build 0)  -->
<svg version="1.1" id="Capa_1" xmlns="http://www.w3.org/2000/svg" xmlns:xlink="http://www.w3.org/1999/xlink" x="0px" y="0px"
	 viewBox="0 0 512 512" style="enable-background:new 0 0 512 512;" xml:space="preserve">
<style type="text/css">
	.st0{opacity:0.5;fill:#1BBB9A;}
	.st1{opacity:0.11;fill:#2626BC;enable-background:new    ;}
	.st2{fill:#FFFFFF;}
	.st3{fill:#169F85;}
	.st4{fill:#EFEFEF;}
	.st5{fill:#A8A8A8;}
	.st6{fill:#9A58B4;}
	.st7{fill:#F0C30F;}
	.st8{fill:#3597DA;}
	.st9{fill:#9FB0FE;}
	.st10{fill:#4369FD;}
	.st11{fill:#2A80B8;}
	.st12{fill:#F29B11;}
	.st13{fill:#8E44AC;}
</style>
<path class="st0" d="M497.1,251.8c-12.4-99.4-81.5,2.7-100.2-58.9c-11.3-37.3,35.6-83.2,19.7-124.1c-13.3-34.2-50.4-43.3-85.4-36.5
	c-28.2,5.5-53.3,34.6-82.9,29.8c-31.4-5.1-41.2-46.4-72.4-57.3C95.7-23.1,58.1,77,38.1,134.7C12.8,208-11.4,303.9,66.6,352.6
	c82.1,51.3,137.2-21,189.9,82.2C360.3,638.3,514.4,390.8,497.1,251.8L497.1,251.8z"/>
<path class="st1" d="M433.3,240.9L390.9,184c3.7-1.2,6.4-4.7,6.4-8.9v-69.1c0-5.2-4.2-9.3-9.3-9.3h-84.9c-5.1,0-9.3,4.2-9.3,9.3
	v48.1H86.8c-11.1,0-20,8.9-20,20v157.3c0,10.4,7.9,18.9,18,19.9c-6.2,8.1-9.8,18.3-9.8,29.3c0,26.8,21.7,48.6,48.6,48.6h24.2
	c26.8,0,48.6-21.7,48.6-48.6c0-10.9-3.6-21-9.7-29.2h172.1c0.2,0,0.4,0,0.6,0v60.4c0,19.8,16.1,35.8,35.8,35.8
	c19.7,0,35.8-16.1,35.8-35.8v-144l2.3-3.1C438.6,257.7,438.6,248,433.3,240.9L433.3,240.9z M409,411.9c0,7.6-6.2,13.8-13.8,13.8
	s-13.8-6.2-13.8-13.8v-77.3l27.6-37.1V411.9z"/>
<path class="st2" d="M451.3,222.9l-36.6-49.2l-21.9-29.4c-3.8-5.1-9.7-8.1-16-8.1H104.8c-11.1,0-20,8.9-20,20v157.3
	c0,11,8.9,20,20,20h271.9c6.3,0,12.3-3,16-8.1l58.5-78.6C456.6,239.7,456.6,230,451.3,222.9z M388.3,261.1
	c-14.5,0-26.2-11.8-26.2-26.2s11.7-26.2,26.2-26.2c14.5,0,26.2,11.8,26.2,26.2S402.8,261.1,388.3,261.1z"/>
<path class="st3" d="M414.6,173.7c-1.4,3.4-4.7,5.8-8.6,5.8h-84.9c-5.1,0-9.3-4.2-9.3-9.3v-33.9h65c6.3,0,12.3,3,16,8.1L414.6,173.7
	z"/>
<path class="st4" d="M293.7,266.3v67.2H133.8v-67.2c0-3.3,2.7-6,6-6h148C291.1,260.3,293.7,263,293.7,266.3z"/>
<path class="st5" d="M184,280.8h-51.8c-2.8,0-5-2.2-5-5s2.2-5,5-5H184c2.8,0,5,2.2,5,5S186.8,280.8,184,280.8z"/>
<path class="st5" d="M238.7,297.7H132.2c-2.8,0-5-2.2-5-5s2.2-5,5-5h106.5c2.8,0,5,2.2,5,5S241.5,297.7,238.7,297.7L238.7,297.7z"/>
<path class="st2" d="M449,249.9v144c0,19.8-16.1,35.8-35.8,35.8c-19.8,0-35.8-16.1-35.8-35.8V211.1c3.3-1.6,7.1-2.4,11-2.4
	s7.6,0.9,11,2.4v182.9c0,7.6,6.2,13.8,13.8,13.8s13.8-6.2,13.8-13.8V279.5L449,249.9z"/>
<path class="st5" d="M449,249.9V270l-22,29.6v-20.1L449,249.9z"/>
<path class="st5" d="M399.3,211.1v11.8c-3.4-1.6-7.1-2.4-11-2.4s-7.7,0.9-11,2.4v-11.8c3.3-1.6,7.1-2.4,11-2.4
	C392.3,208.6,396,209.5,399.3,211.1z"/>
<path class="st6" d="M415.3,88.1v69.1c0,5.1-4.2,9.3-9.3,9.3h-84.9c-5.1,0-9.3-4.2-9.3-9.3V88.1c0-5.2,4.2-9.3,9.3-9.3H406
	C411.1,78.7,415.3,82.9,415.3,88.1z"/>
<path class="st7" d="M353,108.1h-16.7c-2.8,0-5-2.2-5-5s2.2-5,5-5H353c2.8,0,5,2.2,5,5S355.7,108.1,353,108.1z"/>
<path class="st6" d="M415.3,88.1v69.1c0,5.1-4.2,9.3-9.3,9.3h-16.4c5.1,0,9.3-4.2,9.3-9.3V88.1c0-5.2-4.2-9.3-9.3-9.3H406
	C411.1,78.7,415.3,82.9,415.3,88.1z"/>
<path class="st8" d="M415.3,106.2v51c0,5.1-4.2,9.3-9.3,9.3h-84.9c-5.1,0-9.3-4.2-9.3-9.3v-15.6h17.6c2.6,0,5.2-1.1,7.1-2.9
	l13.3-13.3c1.9-1.9,4.4-2.9,7.1-2.9H395c1.4,0,2.7-0.3,3.9-0.8c1.2-0.5,2.2-1.2,3.1-2.1L415.3,106.2z"/>
<path class="st9" d="M415.3,106.2v51c0,5.1-4.2,9.3-9.3,9.3h-16.4c5.1,0,9.3-4.2,9.3-9.3v-35.6c1.2-0.5,2.2-1.2,3.1-2.1L415.3,106.2
	z"/>
<path class="st10" d="M165.8,411.2c26.8,0,48.6-21.7,48.6-48.6s-21.7-48.6-48.6-48.6h-24.2v97.1H165.8z"/>
<circle class="st6" cx="141.6" cy="362.7" r="48.6"/>
<path class="st8" d="M64.4,356.8c-3.9,0-7.6-1.5-10.3-4.3c-5.7-5.7-5.7-15,0-20.6c5.7-5.7,15-5.7,20.6,0c5.7,5.7,5.7,15,0,20.6h0
	c0,0,0,0,0,0C72,355.3,68.3,356.8,64.4,356.8z M64.4,337.6c-1.2,0-2.4,0.4-3.3,1.3c-1.8,1.8-1.8,4.7,0,6.5c0.9,0.9,2,1.3,3.3,1.3
	c1.2,0,2.4-0.5,3.3-1.3h0c1.8-1.8,1.8-4.7,0-6.5C66.7,338,65.6,337.6,64.4,337.6z"/>
<path class="st11" d="M151.9,88.5c-3.7,0-7.5-1.4-10.3-4.3c-5.7-5.7-5.7-15,0-20.7c5.7-5.7,15-5.7,20.6,0c2.8,2.8,4.3,6.4,4.3,10.3
	s-1.5,7.6-4.3,10.3v0C159.3,87,155.6,88.5,151.9,88.5z M151.9,69.3c-1.2,0-2.4,0.4-3.3,1.3c-1.8,1.8-1.8,4.7,0,6.5
	c1.8,1.8,4.7,1.8,6.5,0c0,0,0,0,0,0c0.9-0.9,1.3-2,1.3-3.3s-0.5-2.4-1.3-3.3C154.2,69.7,153,69.3,151.9,69.3L151.9,69.3z"/>
<path class="st6" d="M197.8,92.1h-3.2v-3.2c0-2.8-2.2-5-5-5s-5,2.2-5,5v3.2h-3.2c-2.8,0-5,2.2-5,5s2.2,5,5,5h3.2v3.2
	c0,2.8,2.2,5,5,5s5-2.2,5-5v-3.2h3.2c2.8,0,5-2.2,5-5S200.5,92.1,197.8,92.1z"/>
<path class="st6" d="M354.9,365.9h-3.2v-3.2c0-2.8-2.2-5-5-5s-5,2.2-5,5v3.2h-3.2c-2.8,0-5,2.2-5,5s2.2,5,5,5h3.2v3.2
	c0,2.8,2.2,5,5,5s5-2.2,5-5v-3.2h3.2c2.8,0,5-2.2,5-5S357.6,365.9,354.9,365.9z"/>
<path class="st11" d="M457.2,163.4H454v-3.2c0-2.8-2.2-5-5-5s-5,2.2-5,5v3.2h-3.2c-2.8,0-5,2.2-5,5s2.2,5,5,5h3.2v3.2
	c0,2.8,2.2,5,5,5s5-2.2,5-5v-3.2h3.2c2.8,0,5-2.2,5-5S460,163.4,457.2,163.4z"/>
<g>
	<path class="st12" d="M305.9,272.3c3.2-3.1,5.2-7.5,5.2-12.3c0-9.6-7.8-17.3-17.3-17.3c-9.6,0-17.3,7.8-17.3,17.3
		c0,4.8,2,9.2,5.2,12.3c-3.2,3.1-5.2,7.5-5.2,12.3c0,2.8,2.2,5,5,5s5-2.2,5-5c0-4,3.3-7.3,7.3-7.3s7.3,3.3,7.3,7.3c0,2.8,2.2,5,5,5
		s5-2.2,5-5C311.1,279.8,309.1,275.4,305.9,272.3z M286.4,259.9c0-4,3.3-7.3,7.3-7.3s7.3,3.3,7.3,7.3c0,4-3.3,7.3-7.3,7.3
		S286.4,264,286.4,259.9z"/>
	<path class="st12" d="M211.9,176.2c-0.9-1.1-2.4-1.8-3.8-1.8h-58.6l-3.2-10c-0.7-2.1-2.6-3.5-4.8-3.5h-14.3c-2.8,0-5,2.2-5,5
		s2.2,5,5,5h10.7l12.1,37.6h-0.9c-2.8,0-5,2.2-5,5s2.2,5,5,5H202c2.4,0,4.5-1.7,4.9-4.1l6.1-34.1
		C213.3,178.9,212.9,177.4,211.9,176.2z M197.8,208.6h-37.3l-7.8-24.1h49.4L197.8,208.6z"/>
	<path class="st12" d="M159.9,223.3c-7.2,0-13,5.8-13,13s5.8,13,13,13s13-5.8,13-13S167.1,223.3,159.9,223.3z M159.9,239.3
		c-1.7,0-3-1.4-3-3s1.4-3,3-3s3,1.4,3,3S161.5,239.3,159.9,239.3z"/>
	<path class="st12" d="M197.2,223.3c-7.2,0-13,5.8-13,13s5.8,13,13,13s13-5.8,13-13S204.4,223.3,197.2,223.3z M197.2,239.3
		c-1.7,0-3-1.4-3-3s1.4-3,3-3s3,1.4,3,3S198.9,239.3,197.2,239.3z"/>
</g>
<path class="st4" d="M267.3,222.5h-5.3c-6.5,0-11.8-5.3-11.8-11.8v-16.5c0-6.5,5.3-11.8,11.8-11.8h5.3c6.5,0,11.8,5.3,11.8,11.8
	v16.5C279.1,217.2,273.8,222.5,267.3,222.5z M261.9,192.4c-1,0-1.8,0.8-1.8,1.8v16.5c0,1,0.8,1.8,1.8,1.8h5.3c1,0,1.8-0.8,1.8-1.8
	v-16.5c0-1-0.8-1.8-1.8-1.8H261.9z"/>
<path class="st4" d="M296.1,222.5c-2.8,0-5-2.2-5-5v-25.1h-0.4c-2.8,0-5-2.2-5-5s2.2-5,5-5h5.4c2.8,0,5,2.2,5,5v30.1
	C301.1,220.2,298.8,222.5,296.1,222.5z"/>
<path class="st7" d="M147.8,357.7h-1.2v-9.3h6c2.8,0,5-2.2,5-5s-2.2-5-5-5h-6v-2.2c0-2.8-2.2-5-5-5s-5,2.2-5,5v2.2h-1.2
	c-8.1,0-14.7,6.6-14.7,14.7s6.6,14.7,14.7,14.7h1.2v9.3h-6c-2.8,0-5,2.2-5,5s2.2,5,5,5h6v2.2c0,2.8,2.2,5,5,5s5-2.2,5-5V387h1.2
	c8.1,0,14.7-6.6,14.7-14.7S155.9,357.7,147.8,357.7z M135.3,357.7c-2.6,0-4.7-2.1-4.7-4.7c0-2.6,2.1-4.7,4.7-4.7h1.2v9.3H135.3z
	 M147.8,377h-1.2v-9.3h1.2c2.6,0,4.7,2.1,4.7,4.7C152.5,374.9,150.4,377,147.8,377z"/>
<path class="st13" d="M455.3,219.9l-39.2-52.7c0.7-0.7,1.3-1.4,1.8-2.1c1.5-2.3,2.5-5,2.5-8v-69c0-7.9-6.4-14.3-14.3-14.3H389
	c-2.8,0-5,2.2-5,5s2.2,5,5,5H406c2.4,0,4.3,1.9,4.3,4.3v16l-11.8,11.8c-0.4,0.4-1,0.8-1.5,1c-0.6,0.3-1.3,0.4-2,0.4h-38.2
	c-4,0-7.8,1.6-10.6,4.4L332.9,135c-0.9,0.9-2.2,1.5-3.5,1.5h-12.6V88.1c0-2.4,1.9-4.3,4.3-4.3h39.9c2.8,0,5-2.2,5-5s-2.2-5-5-5
	h-39.9c-7.9,0-14.3,6.4-14.3,14.3v43.1H104.8c-13.8,0-25,11.2-25,25v157.3c0,10.1,6.1,19,15.1,22.9c-4.4,7.8-6.9,16.7-6.9,26.3
	c0,29.5,24,53.6,53.6,53.6h24.2c29.5,0,53.6-24,53.6-53.6c0-8.7-2.1-16.9-5.8-24.2h135.1c2.8,0,5-2.2,5-5s-2.2-5-5-5H207
	c-9.8-11.8-24.6-19.4-41.2-19.4h-24.2c-16.3,0-30.9,7.3-40.7,18.8c-6.4-1.8-11-7.7-11-14.4V156.2c0-8.3,6.7-15,15-15h201.9v0.2
	c0,0,0,0,0,0v15.6c0,7.9,6.4,14.3,14.3,14.3H406c0.2,0,0.5,0,0.7,0l40.5,54.5c4,5.4,4,12.6,0,17.9l-42.9,57.7v-39.9
	c9.4-5.6,15.2-15.8,15.2-26.8c0-12.6-7.5-23.4-18.2-28.4c0,0,0,0-0.1,0c-3.9-1.8-8.3-2.8-12.9-2.8c-4.6,0-8.9,1-12.9,2.8
	c-0.1,0-0.1,0.1-0.2,0.1c-10.7,5-18.1,15.8-18.1,28.3c0,11,5.8,21.2,15.2,26.8v132.3c0,22.5,18.3,40.8,40.8,40.8
	s40.8-18.3,40.8-40.8V251.6l1.3-1.8C461.9,240.9,461.9,228.9,455.3,219.9L455.3,219.9z M141.6,319.1c24,0,43.6,19.5,43.6,43.6
	s-19.5,43.6-43.6,43.6S98,386.7,98,362.7S117.5,319.1,141.6,319.1z M329.4,146.5c4,0,7.8-1.6,10.6-4.4l13.3-13.3
	c1-1,2.2-1.5,3.6-1.5H395c2,0,4-0.4,5.9-1.2c1.8-0.8,3.4-1.8,4.7-3.2l4.7-4.7v38.9c0,0.9-0.3,1.7-0.7,2.4c-0.8,1.2-2.1,1.9-3.6,1.9
	h-84.9c-2.4,0-4.3-1.9-4.3-4.3v-10.6H329.4z M404.3,248.8V221c3.2,3.7,5.2,8.6,5.2,13.9C409.6,240.1,407.6,245,404.3,248.8z
	 M367.1,234.9c0-5.3,2-10.2,5.2-13.9v27.8C369,245,367.1,240.1,367.1,234.9z M444,393.9c0,17-13.8,30.8-30.8,30.8
	s-30.8-13.8-30.8-30.8V214.5c1.9-0.6,3.9-0.9,6-0.9s4.1,0.3,6,0.9v179.4c0,10.4,8.4,18.8,18.8,18.8s18.8-8.4,18.8-18.8V281.1
	l12-16.1V393.9z M422,393.9c0,4.9-4,8.8-8.8,8.8s-8.8-4-8.8-8.8v-75.7l17.6-23.7L422,393.9L422,393.9z"/>
</svg>
