<?xml version="1.0" encoding="utf-8"?>
<!-- Generator: Adobe Illustrator 16.2.0, SVG Export Plug-In . SVG Version: 6.00 Build 0)  -->
<!DOCTYPE svg PUBLIC "-//W3C//DTD SVG 1.1//EN" "http://www.w3.org/Graphics/SVG/1.1/DTD/svg11.dtd">
<svg version="1.1" xmlns="http://www.w3.org/2000/svg" xmlns:xlink="http://www.w3.org/1999/xlink" x="0px" y="0px" width="1414px"
	 height="944px" viewBox="0 0 1414 944" enable-background="new 0 0 1414 944" xml:space="preserve">
<g id="Capa_2">
	<rect fill-rule="evenodd" clip-rule="evenodd" fill="#FFFFFF" width="1414" height="944"/>
</g>
<g id="Capa_1">
	<g>
		<g>
			<defs>
				<rect id="SVGID_1_" y="25" width="1414" height="676"/>
			</defs>
			<clipPath id="SVGID_2_">
				<use xlink:href="#SVGID_1_"  overflow="visible"/>
			</clipPath>
			<g clip-path="url(#SVGID_2_)">
				<g>
					<g>
						<g opacity="0.34">
							<path fill="#E1D7FF" d="M1562.445,601.844c31.345-31.396,45.558-78.525,36.701-121.708
								c-8.854-43.181-40.521-81.165-81.775-98.092c-17.845-7.326-37.155-10.895-54.675-18.954
								c-61.121-28.138-83.885-100.091-118.443-157.211c-50.228-83.012-139.406-144.076-237.002-153.404
								c-97.603-9.331-200.556,36.837-250.971,119.744c-27.214,44.737-39.321,98.035-72.051,139.017
								c-22.947,28.735-55.469,49.904-91.28,59.419c-31.482,8.367-64.755,7.862-96.588,14.81
								c-49.227,10.752-95.707,41.876-115.17,87.727c-19.469,45.854-5.804,105.813,36.968,132.127L1562.445,601.844z"/>
						</g>
						<g opacity="0.34">
							<path fill="#E1D7FF" d="M1469.619,602.112c23.807-23.849,34.603-59.645,27.879-92.44
								c-6.729-32.8-30.776-61.649-62.117-74.507c-13.55-5.563-28.216-8.269-41.522-14.396
								c-46.423-21.369-63.718-76.017-89.963-119.402c-38.146-63.052-105.881-109.428-180.01-116.52
								c-74.126-7.083-152.332,27.984-190.624,90.953c-20.666,33.975-29.86,74.458-54.72,105.591
								c-17.431,21.818-42.134,37.898-69.329,45.127c-23.914,6.358-49.178,5.975-73.363,11.251
								c-37.389,8.159-72.685,31.802-87.469,66.627c-14.792,34.828-4.405,80.365,28.075,100.356L1469.619,602.112z"/>
						</g>
					</g>
					<g>
						<path opacity="0.34" fill="#E1D7FF" d="M671.513,324.702c0,10.388,8.116,18.82,18.132,18.82
							c10.023,0,18.138-8.433,18.138-18.82c0-10.399-8.114-18.825-18.138-18.825C679.629,305.877,671.513,314.303,671.513,324.702z"
							/>
						<path opacity="0.34" fill="#E1D7FF" d="M734.51,309.645c0,5.194,4.269,9.407,9.546,9.407c5.27,0,9.549-4.212,9.549-9.407
							c0-5.195-4.279-9.412-9.549-9.412C738.778,300.233,734.51,304.45,734.51,309.645z"/>
					</g>
					<g>
						<path opacity="0.34" fill="#E1D7FF" d="M1455.177,319.052c0,10.395,8.116,18.824,18.135,18.824
							c10.015,0,18.137-8.43,18.137-18.824c0-10.394-8.122-18.819-18.137-18.819
							C1463.293,300.233,1455.177,308.658,1455.177,319.052z"/>
						<path opacity="0.34" fill="#E1D7FF" d="M1442.768,272.005c0,5.195,4.275,9.408,9.544,9.408c5.272,0,9.544-4.213,9.544-9.408
							c0-5.201-4.271-9.41-9.544-9.41C1447.043,262.596,1442.768,266.804,1442.768,272.005z"/>
						<path opacity="0.34" fill="#E1D7FF" d="M1421.77,307.762c0,5.195,4.271,9.412,9.547,9.412c5.269,0,9.542-4.217,9.542-9.412
							c0-5.2-4.273-9.408-9.542-9.408C1426.041,298.354,1421.77,302.562,1421.77,307.762z"/>
					</g>
					
						<line fill="none" stroke="#4F4F4F" stroke-width="0.7955" stroke-miterlimit="10" x1="1414.973" y1="603.308" x2="404.102" y2="603.308"/>
					
						<line fill="none" stroke="#4F4F4F" stroke-width="0.7955" stroke-miterlimit="10" x1="1627.447" y1="603.308" x2="1414.973" y2="603.308"/>
				</g>
				<g>
					<path fill="#FFFFFF" d="M1242.096,474.777c0,0,9.354-16.936,14.675-23.019c5.319-6.097,22.999-10.66,20.595-18.447
						c-2.403-7.784-26.089-4.4-32.61,3.218c-6.524,7.614-26.432,10.322-27.119,13.535c-0.688,3.217,6.912,20.81,11.184,23.685
						C1233.08,476.629,1242.096,474.777,1242.096,474.777z"/>
					<path fill="#FFFFFF" d="M1281.854,489.104c0,0,15.237-11.907,22.573-15.408c7.338-3.512,25.401-0.784,26.332-8.872
						c0.928-8.085-22.176-14.25-31.228-9.813c-9.05,4.434-28.416-0.872-30.341,1.81c-1.922,2.681-2.037,21.805,0.719,26.115
						C1272.669,487.248,1281.854,489.104,1281.854,489.104z"/>
					<path fill="#EEA886" d="M1248.018,520.11c0,0-6.653-44.84-6.354-52.623c0.084-2.218-13.686-1.389-13.042,2.878
						c1.398,9.302-4.959,45.346-3.855,51.948C1225.873,528.91,1248.583,524.275,1248.018,520.11z"/>
					<path fill="#EEA886" d="M1268.856,533.001c0,0,12.466-43.54,15.368-50.783c1.294-3.222-11.409-8.217-13.128-2.462
						c-2.705,9.015-22.815,39.677-24.458,46.162C1244.99,532.406,1267.702,537.039,1268.856,533.001z"/>
					<path fill="#2C3E50" d="M1260.203,563.263c0,0,13.385-44.499,15.446-49.238l-21.11-12.858c0,0-9.784,28.425-11.159,35.529
						C1242.009,543.806,1260.203,563.263,1260.203,563.263z"/>
					<path fill="#34495E" d="M886.504,445.689c0,0,20.386,5.077,30.086,20.276s18.08,32.704,36.305,40.645
						c18.232,7.942,18.345,28.405,16.929,31.555c-1.422,3.158-57.412,65.208-69.626,67.607
						c-12.219,2.399-35.091,0.728-32.646-15.213c2.448-15.944,26.421-50.236,12.964-67.542
						c-13.454-17.306-16.846-33.237-16.846-33.237L886.504,445.689z"/>
					<path fill="#EEA886" d="M890.063,519.886c0,0,0.599-0.188,1.592-0.284c1.155-0.105,2.847-0.071,4.769,0.566
						c0.479,0.157,1.116,0.479,1.863,0.914c4.845,2.814,16.313,10.455,17.86,10.635c1.787,0.212,0.279-26.151,0.279-26.151
						s-6.105-10.645-6.874-17.653C908.785,480.904,890.063,519.886,890.063,519.886z"/>
					<path fill="#34495E" d="M1033.463,547.441c0,0,22.402-15.485,48.66-10.66c26.264,4.821,29.1,16.924,38.104,17.471
						c9.013,0.547,39.136-1.989,63.853,5.116c24.715,7.109,45.571,7.871,48.402,5.841c2.834-2.034-15.45-42.643-15.45-48.226
						l30.639-7.87c0,0,8.754,36.045,12.188,44.167c3.67,8.685,10.726,25.042,0.686,39.253
						c-10.039,14.213-38.102,7.808-55.096,10.669c-16.991,2.866-93.048,1.031-106.332,0.328
						c-14.418-0.761-57.932-2.788-57.932-2.788L1033.463,547.441z"/>
					<path fill="#EEA886" d="M849.508,467.198c0,0-1.432,21.81,3.484,28.349c1.963,2.623,3.298,4.047,4.192,4.814
						c1.257,1.081,2.234,2.443,2.8,3.999c1.52,4.189,2.453,10.097,3.658,11.358c1.319,1.372,5.139-2.118,6.525-2.127
						c1.381-0.011,14.861,11.455,18.082,9.109c3.226-2.347,22.89-22.018,21.236-35.502c-1.653-13.485-7.688-33.623-29.83-33.499
						C857.519,453.821,851.203,461.773,849.508,467.198z"/>
					<path fill="#1BBB9A" d="M916.414,571.298c0.42,0.896,8.56,13.71,17.481,21.145c3.699,3.089,7.535,5.252,11.009,5.252
						c1.061,0,2.091,0.016,3.097,0.04c10.234,0.272,18.098,1.818,31.916,2.496c14.351,0.709,49.171-1.264,50.203-1.264
						c1.025,0,11.065,1.775,11.065,1.775c3.612-4.319-5.92-53.048-7.723-53.301c-1.799-0.259-13.387,4.061-24.457,2.285
						c-11.068-1.78-15.445-2.797-31.919-21.83c-16.479-19.035-32.956-23.854-39.909-22.334c-6.948,1.523-20.764,0-20.764,0
						S915.811,570.03,916.414,571.298z"/>
					<rect x="752.332" y="613.938" fill="#EBE2D8" width="85.471" height="9.137"/>
					<polygon fill="#EBE2D8" points="731.619,534.11 761.113,620.179 752.3,623.026 722.824,537.003 					"/>
					<path fill="#34495E" d="M858.81,482.816c0,0-4.127,10.541-6.314,11.987c0,0-7.96-8.3-2.847-28.788
						c5.113-20.485,24.4-22.408,36.855-20.326c15.504,2.588,31.107,54.296,30.304,59.328c-0.806,5.037-18.171-26.72-33.39-24.168
						C868.202,483.409,868.075,484.248,858.81,482.816z"/>
					<path fill="#A77860" d="M891.654,519.602c1.155-0.105,2.8,0.039,4.716,0.676c0.479,0.159,1.169,0.369,1.916,0.805
						c3.563-5.477,6.858-18.45,6.968-18.891C902.88,509.299,891.654,519.602,891.654,519.602z"/>
					<path fill="#169F85" d="M933.896,592.442c3.699,3.089,7.535,5.252,11.009,5.252c1.061,0,2.091,0.016,3.097,0.04l-4.213-40.395
						L933.896,592.442z"/>
					<path fill="#EEA886" d="M915.409,553.338c0,0-1.271,31.829-1.917,37.168c-0.643,5.315,0.063,8.461-5.766,8.966
						c-5.768,0.5-46.236,5.078-58.596,7.105c-12.354,2.031-17.012-2.738-19.243-3.426c-2.23-0.688-16.237-1.106-20.401,0.252
						c-4.378,1.434-10.043,4.822-13.644,5.331c-3.606,0.505-8.581,2.496-8.241,4.187c0.345,1.694,8.325,1.437,10.729,1.437
						c2.401,0,40.805-1.014,42.689-0.081c2.403,1.181,33.429,2.708,39.09,2.708c5.665,0,50.631,3.465,54.583-1.946
						c3.946-5.418,9.007-61.253,8.492-63.792C942.668,548.71,918.203,547.405,915.409,553.338z"/>
					<path fill="#1BBB9A" d="M913.408,554.042c0,0-1.547-42.401,12.444-41.884c17.686,0.668,20.335,21.999,17.936,45.182
						C943.788,557.34,917.355,557.59,913.408,554.042z"/>
				</g>
			</g>
		</g>
		<g>
			<path fill-rule="evenodd" clip-rule="evenodd" fill="#A4E4D7" d="M467.474,484.423c-14.264-7.474-17.888,8.79-12.34,22.258
				c5.548,13.467,34.007,58.766,35.495,76.73c0.576,6.964,1.892,6.207,3.016,1.322C499.273,560.379,487.112,494.714,467.474,484.423
				z"/>
			<g>
				<path fill-rule="evenodd" clip-rule="evenodd" fill="#A4E4D7" d="M497.683,422.716c16.359-14.521,26.585,5.802,23.757,25.408
					c-2.826,19.607-25.295,88.743-21.251,112.975c1.568,9.394-0.428,8.815-3.551,2.728
					C481.06,533.459,475.163,442.702,497.683,422.716z"/>
				<path fill-rule="evenodd" clip-rule="evenodd" fill="#9A58B4" d="M500.532,567.828c-0.35,0.905-1.127,0.459-2.168-1.042
					c-17.05-55.987,9.508-139.638,9.592-139.905c0.146-0.462,0.643-0.719,1.106-0.576c0.469,0.142,0.734,0.628,0.584,1.092
					C509.564,427.664,482.644,512.458,500.532,567.828z"/>
			</g>
			<g>
				<path fill-rule="evenodd" clip-rule="evenodd" fill="#A4E4D7" d="M533.409,469.232c15.852-6.801,18.341,10.85,11.284,24.761
					c-7.056,13.907-41.246,59.894-44.351,78.934c-1.204,7.383-2.544,6.464-3.332,1.162
					C493.07,547.648,511.592,478.598,533.409,469.232z"/>
				<path fill-rule="evenodd" clip-rule="evenodd" fill="#9A58B4" d="M498.898,578.026c-0.49,0.587-0.956,0.062-1.353-1.308
					c1.434-45.89,42.338-101.683,42.466-101.863c0.226-0.307,0.657-0.377,0.973-0.158c0.312,0.222,0.381,0.65,0.159,0.958
					C541.012,475.838,499.554,532.391,498.898,578.026z"/>
			</g>
			<g>
				<polygon fill-rule="evenodd" clip-rule="evenodd" fill="#9A58B4" points="511.091,567.87 480.641,567.87 472.69,574.942 
					479.187,599.607 495.863,599.607 512.549,599.607 519.04,574.942 				"/>
				<path fill-rule="evenodd" clip-rule="evenodd" fill="#9A58B4" d="M519.04,558.689h-46.35c-1.384,0-2.521,1.118-2.521,2.484
					v11.282c0,1.365,1.136,2.486,2.521,2.486h46.35c1.388,0,2.524-1.121,2.524-2.486v-11.282
					C521.564,559.808,520.428,558.689,519.04,558.689z"/>
				<polygon fill-rule="evenodd" clip-rule="evenodd" fill="#8E44AC" points="472.69,574.942 474.025,580.01 517.706,580.01 
					519.04,574.942 				"/>
			</g>
		</g>
	</g>
</g>
</svg>
