<?xml version="1.0" encoding="utf-8"?>
<!-- Generator: Adobe Illustrator 24.0.3, SVG Export Plug-In . SVG Version: 6.00 Build 0)  -->
<svg version="1.1" id="Capa_1" xmlns="http://www.w3.org/2000/svg" xmlns:xlink="http://www.w3.org/1999/xlink" x="0px" y="0px"
	 viewBox="0 0 512 512" style="enable-background:new 0 0 512 512;" xml:space="preserve">
<style type="text/css">
	.st0{opacity:0.5;fill:#1BBB9A;enable-background:new    ;}
	.st1{fill:#2A80B8;}
	.st2{fill:#F29B11;}
	.st3{fill:#E8E8E8;}
	.st4{fill:#FFFFFF;}
	.st5{fill:#B79FCC;}
	.st6{fill:#EEE9F5;}
	.st7{fill:#DAC9E4;}
	.st8{fill:#4E368B;}
	.st9{fill:#8F599F;}
	.st10{fill-rule:evenodd;clip-rule:evenodd;fill:#8F599F;}
</style>
<path class="st0" d="M364.8,55.2c-69.1-27-164.8-16.8-217.7,31.5c-37.3,34.1-8.4,43.8,17,106.2C182.6,238,0,231.8,0,313.4
	c0,94.3,132.3,76.4,181.3,87.2c75,16.5,140.5,78.2,220.7,70.1c69.8-7.1,96.4-61.9,106.1-124.6C526.2,229.1,481.8,101,364.8,55.2
	L364.8,55.2z"/>
<path class="st1" d="M81.8,148.9c-3.9,0-7.6-1.5-10.3-4.3c-5.7-5.7-5.7-15,0-20.7c2.8-2.8,6.4-4.3,10.3-4.3s7.6,1.5,10.3,4.3
	c5.7,5.7,5.7,15,0,20.7C89.3,147.4,85.7,148.9,81.8,148.9L81.8,148.9z M81.8,129.7c-1.2,0-2.4,0.5-3.3,1.3c-1.8,1.8-1.8,4.7,0,6.5
	c0.9,0.9,2,1.3,3.3,1.3c1.2,0,2.4-0.5,3.3-1.3c1.8-1.8,1.8-4.7,0-6.5C84.2,130.2,83,129.7,81.8,129.7z"/>
<path class="st1" d="M442.9,403.7c-3.9,0-7.6-1.5-10.3-4.3c-5.7-5.7-5.7-15,0-20.7c2.8-2.8,6.4-4.3,10.3-4.3s7.6,1.5,10.3,4.3
	c5.7,5.7,5.7,15,0,20.7C450.5,402.2,446.8,403.7,442.9,403.7L442.9,403.7z M442.9,384.5c-1.2,0-2.4,0.5-3.3,1.3
	c-1.8,1.8-1.8,4.7,0,6.5c0.9,0.9,2,1.3,3.3,1.3s2.4-0.5,3.3-1.3c1.8-1.8,1.8-4.7,0-6.5C445.3,385,444.1,384.5,442.9,384.5z"/>
<path class="st2" d="M162.2,415.7H159v-3.2c0-2.8-2.2-5-5-5s-5,2.2-5,5v3.2h-3.2c-2.8,0-5,2.2-5,5c0,2.8,2.2,5,5,5h3.2v3.2
	c0,2.8,2.2,5,5,5s5-2.2,5-5v-3.2h3.2c2.8,0,5-2.2,5-5C167.2,417.9,165,415.7,162.2,415.7z"/>
<path class="st2" d="M482.6,356.5h-3.2v-3.2c0-2.8-2.2-5-5-5s-5,2.2-5,5v3.2h-3.2c-2.8,0-5,2.2-5,5s2.2,5,5,5h3.2v3.2
	c0,2.8,2.2,5,5,5s5-2.2,5-5v-3.2h3.2c2.8,0,5-2.2,5-5S485.3,356.5,482.6,356.5z"/>
<path class="st2" d="M62.2,79.7H59v-3.2c0-2.8-2.2-5-5-5s-5,2.2-5,5v3.2h-3.2c-2.8,0-5,2.2-5,5s2.2,5,5,5H49v3.2c0,2.8,2.2,5,5,5
	s5-2.2,5-5v-3.2h3.2c2.8,0,5-2.2,5-5S65,79.7,62.2,79.7z"/>
<g>
	<g>
		<path class="st3" d="M271.4,132.6c-45.4,0.6-82,38.6-80.9,84.1c0.4,18.6,7,35.6,17.9,49.2c16.2,20.3,25.8,45,27,70.9h74.5
			c1.2-25.8,10.8-50.6,27-70.9c11.2-14,17.9-31.8,17.9-51.1C354.7,169,317.3,132,271.4,132.6z"/>
		<g>
			<path class="st3" d="M257.9,342.5c-3.2,0-5.7-2.6-5.7-5.7v-55l-6.6-6.6c-2.2-2.2-2.2-5.9,0-8.1c2.2-2.2,5.9-2.2,8.1,0l8.3,8.3
				c1.1,1.1,1.7,2.5,1.7,4.1v57.4C263.6,339.9,261,342.5,257.9,342.5L257.9,342.5z"/>
			<path class="st3" d="M287.4,342.5c-3.2,0-5.7-2.6-5.7-5.7v-57.4c0-1.5,0.6-3,1.7-4.1l8.3-8.3c2.2-2.2,5.9-2.2,8.1,0
				c2.2,2.2,2.2,5.9,0,8.1l-6.6,6.6v55C293.1,339.9,290.5,342.5,287.4,342.5z"/>
		</g>
		<path class="st3" d="M313.9,404.5h-82.6c-3.2,0-5.7-2.6-5.7-5.7v-56.2c0-3.2,2.6-5.7,5.7-5.7h82.6c3.2,0,5.7,2.6,5.7,5.7v56.2
			C319.7,401.9,317.1,404.5,313.9,404.5z"/>
		<path class="st3" d="M306.9,404.5c0,18.9-15.3,34.3-34.3,34.3s-34.3-15.3-34.3-34.3H306.9z"/>
		<path class="st3" d="M302.7,421c2.7-4.9,4.2-10.5,4.2-16.5h-68.5c0,6,1.5,11.6,4.2,16.5H302.7z"/>
		<path class="st3" d="M187.1,194.7"/>
		<path class="st3" d="M358,194c-3.8-15.8-11.9-30.2-23.7-41.9c-16.9-16.6-39.2-25.6-62.9-25.3c-23.5,0.3-45.5,9.9-61.9,27
			c-10.9,11.3-18.4,25-22.1,39.8c-0.2,0.7-0.3,1.5-0.4,2.3l-1.8,12c0,0,0,0.1,0,0.1c-0.2,2.9-0.3,5.9-0.3,8.8
			c0.5,19.3,7.1,37.5,19.1,52.6c14.3,17.9,22.9,38.8,25.2,61c0,0.5-0.3,0.9-0.7,1c-4.9,1.3-8.6,5.8-8.6,11.1v8.8
			c0,0.4-0.2,0.7-0.6,0.8c-2.1,0.8-3.6,2.9-3.6,5.3c0,2.4,1.5,4.4,3.6,5.3c0.3,0.1,0.6,0.5,0.6,0.8v11.9c0,0.4-0.2,0.7-0.6,0.8
			c-2.1,0.8-3.6,2.9-3.6,5.3c0,2.4,1.5,4.4,3.6,5.3c0.3,0.1,0.6,0.5,0.6,0.8v10.1c0,6.8,5.6,12.4,12.4,12.4h0c0.5,0,0.8,0.3,0.9,0.8
			c3.1,19,19.6,33.5,39.5,33.5c19.8,0,36.3-14.5,39.5-33.5c0.1-0.4,0.5-0.8,0.9-0.8h0c6.8,0,12.4-5.6,12.4-12.4v-10.1
			c0-0.4,0.2-0.7,0.6-0.8c2.1-0.8,3.6-2.9,3.6-5.3s-1.5-4.4-3.6-5.3c-0.3-0.1-0.6-0.5-0.6-0.8v-11.9c0-0.4,0.2-0.7,0.6-0.8
			c2.1-0.8,3.6-2.9,3.6-5.3c0-2.4-1.5-4.4-3.6-5.3c-0.3-0.1-0.6-0.5-0.6-0.8v-8.8c0-5.3-3.6-9.8-8.6-11.1c-0.5-0.1-0.8-0.5-0.7-1
			c2.3-22.1,11-43.1,25.2-61c12.5-15.7,19.1-34.6,19.1-54.7c0-2.5-0.1-5-0.3-7.5C360.1,206.7,358.1,194.5,358,194z M313.9,364.1
			l0,10.8c0,0.5-0.4,0.9-0.9,0.9h-80.7c-0.5,0-0.9-0.4-0.9-0.9v-10.8c0-0.5,0.4-0.9,0.9-0.9H313
			C313.5,363.2,313.9,363.6,313.9,364.1z M231.3,350.8v-7.4c0-0.5,0.4-0.9,0.9-0.9h3.1h74.5h3.1c0.5,0,0.9,0.4,0.9,0.9l0,7.4
			c0,0.5-0.4,0.9-0.9,0.9h-80.7C231.7,351.7,231.3,351.3,231.3,350.8z M272.6,433c-13.4,0-24.6-9.2-27.7-21.7
			c-0.1-0.6,0.3-1.1,0.9-1.1h53.6c0.6,0,1.1,0.6,0.9,1.1C297.2,423.8,286,433,272.6,433z M306.9,398.7h-68.5h-6.1
			c-0.5,0-0.9-0.4-0.9-0.9v-9.5c0-0.5,0.4-0.9,0.9-0.9H313c0.5,0,0.9,0.4,0.9,0.9l0,9.5c0,0.5-0.4,0.9-0.9,0.9H306.9z M332.4,262.3
			c-15.9,19.9-25.4,43.3-27.8,67.9c0,0.5-0.4,0.8-0.9,0.8h-62.1c-0.5,0-0.9-0.4-0.9-0.8c-2.4-24.7-11.9-48-27.8-67.9
			c-10.5-13.1-16.2-29-16.6-45.8c-0.5-20.4,7.1-39.9,21.5-54.7c14.3-14.8,33.4-23.2,53.8-23.4c20.6-0.3,40.1,7.5,54.7,22
			c14.7,14.5,22.8,33.8,22.8,54.4C349,232.2,343.2,248.6,332.4,262.3z"/>
	</g>
</g>
<g>
	<g>
		<path class="st2" d="M257.5,128.5c-45.4,0.6-82,38.6-80.9,84.1c0.4,18.6,7,35.6,17.9,49.2c16.2,20.3,25.8,45,27,70.9h74.5
			c1.2-25.8,10.8-50.6,27-70.9c11.2-14,17.9-31.8,17.9-51.1C340.8,164.9,303.4,127.9,257.5,128.5z"/>
		<g>
			<path class="st4" d="M243.9,338.4c-3.2,0-5.7-2.6-5.7-5.7v-55l-6.6-6.6c-2.2-2.2-2.2-5.9,0-8.1c2.2-2.2,5.9-2.2,8.1,0l8.3,8.3
				c1.1,1.1,1.7,2.5,1.7,4.1v57.4C249.7,335.8,247.1,338.4,243.9,338.4L243.9,338.4z"/>
			<path class="st4" d="M273.5,338.4c-3.2,0-5.7-2.6-5.7-5.7v-57.4c0-1.5,0.6-3,1.7-4.1l8.3-8.3c2.2-2.2,5.9-2.2,8.1,0
				c2.2,2.2,2.2,5.9,0,8.1l-6.6,6.6v55C279.2,335.8,276.6,338.4,273.5,338.4z"/>
		</g>
		<path class="st5" d="M300,400.4h-82.6c-3.2,0-5.7-2.6-5.7-5.7v-56.2c0-3.2,2.6-5.7,5.7-5.7H300c3.2,0,5.7,2.6,5.7,5.7v56.2
			C305.7,397.8,303.2,400.4,300,400.4z"/>
		<path class="st6" d="M293,400.4c0,18.9-15.3,34.3-34.3,34.3s-34.3-15.3-34.3-34.3H293z"/>
		<path class="st7" d="M288.7,416.9c2.7-4.9,4.2-10.5,4.2-16.5h-68.5c0,6,1.5,11.6,4.2,16.5H288.7z"/>
		<path class="st8" d="M173.2,190.7"/>
		<path class="st9" d="M344.1,189.9c-3.8-15.8-11.9-30.2-23.7-41.9c-16.9-16.6-39.2-25.6-62.9-25.3c-23.5,0.3-45.5,9.9-61.9,27
			c-10.9,11.3-18.4,25-22.1,39.8c-0.2,0.7-0.3,1.5-0.4,2.3l-1.8,12c0,0,0,0.1,0,0.1c-0.2,2.9-0.3,5.9-0.3,8.8
			c0.5,19.3,7.1,37.5,19.1,52.6c14.3,17.9,22.9,38.8,25.2,61c0,0.5-0.3,0.9-0.7,1c-4.9,1.3-8.6,5.8-8.6,11.1v8.8
			c0,0.4-0.2,0.7-0.6,0.8c-2.1,0.8-3.6,2.9-3.6,5.3s1.5,4.4,3.6,5.3c0.3,0.1,0.6,0.5,0.6,0.8v11.9c0,0.4-0.2,0.7-0.6,0.8
			c-2.1,0.8-3.6,2.9-3.6,5.3c0,2.4,1.5,4.4,3.6,5.3c0.3,0.1,0.6,0.5,0.6,0.8v10.1c0,6.8,5.6,12.4,12.4,12.4h0c0.5,0,0.8,0.3,0.9,0.8
			c3.1,19,19.6,33.5,39.5,33.5c19.8,0,36.3-14.5,39.5-33.5c0.1-0.4,0.5-0.8,0.9-0.8l0,0c6.8,0,12.4-5.6,12.4-12.4v-10.1
			c0-0.4,0.2-0.7,0.6-0.8c2.1-0.8,3.6-2.9,3.6-5.3s-1.5-4.4-3.6-5.3c-0.3-0.1-0.6-0.5-0.6-0.8v-11.9c0-0.4,0.2-0.7,0.6-0.8
			c2.1-0.8,3.6-2.9,3.6-5.3c0-2.4-1.5-4.4-3.6-5.3c-0.3-0.1-0.6-0.5-0.6-0.8v-8.8c0-5.3-3.6-9.8-8.6-11.1c-0.5-0.1-0.8-0.5-0.7-1
			c2.3-22.1,11-43.1,25.2-61c12.5-15.7,19.1-34.6,19.1-54.7c0-2.5-0.1-5-0.3-7.5C346.2,202.6,344.2,190.4,344.1,189.9z M300,360
			l0,10.8c0,0.5-0.4,0.9-0.9,0.9h-80.7c-0.5,0-0.9-0.4-0.9-0.9V360c0-0.5,0.4-0.9,0.9-0.9h80.7C299.6,359.1,300,359.5,300,360z
			 M217.4,346.7v-7.4c0-0.5,0.4-0.9,0.9-0.9h3.1h74.5h3.1c0.5,0,0.9,0.4,0.9,0.9l0,7.4c0,0.5-0.4,0.9-0.9,0.9h-80.7
			C217.8,347.6,217.4,347.2,217.4,346.7z M258.7,428.9c-13.4,0-24.6-9.2-27.7-21.7c-0.1-0.6,0.3-1.1,0.9-1.1h53.6
			c0.6,0,1.1,0.6,0.9,1.1C283.3,419.7,272.1,428.9,258.7,428.9z M293,394.6h-68.5h-6.1c-0.5,0-0.9-0.4-0.9-0.9v-9.5
			c0-0.5,0.4-0.9,0.9-0.9h80.7c0.5,0,0.9,0.4,0.9,0.9l0,9.5c0,0.5-0.4,0.9-0.9,0.9H293z M318.5,258.2
			c-15.9,19.9-25.4,43.3-27.8,67.9c0,0.5-0.4,0.8-0.9,0.8h-62.1c-0.5,0-0.9-0.4-0.9-0.8c-2.4-24.7-11.9-48-27.8-67.9
			c-10.5-13.1-16.2-29-16.6-45.8c-0.5-20.4,7.1-39.9,21.5-54.7c14.3-14.8,33.4-23.2,53.8-23.4c20.6-0.3,40.1,7.5,54.7,22
			c14.7,14.5,22.8,33.8,22.8,54.4C335.1,228.1,329.3,244.5,318.5,258.2z"/>
	</g>
	<g>
		<path class="st10" d="M258.7,97.9c4,0,7.3-3.3,7.3-7.3V71.1c0-4-3.3-7.3-7.3-7.3c-4,0-7.3,3.3-7.3,7.3v19.5
			C251.4,94.6,254.7,97.9,258.7,97.9z"/>
		<path class="st10" d="M119.6,217.6H139c4,0,7.3-3.3,7.3-7.3c0-4-3.3-7.3-7.3-7.3h-19.5c-4,0-7.3,3.3-7.3,7.3
			C112.2,214.3,115.5,217.6,119.6,217.6z"/>
		<path class="st10" d="M168.9,130.8c1.4,1.4,3.3,2.1,5.2,2.1c1.9,0,3.7-0.7,5.2-2.1c2.9-2.9,2.9-7.5,0-10.3l-13.8-13.8
			c-2.9-2.9-7.5-2.9-10.3,0c-2.9,2.9-2.9,7.5,0,10.3L168.9,130.8z"/>
		<path class="st10" d="M155.3,321c1.9,0,3.7-0.7,5.2-2.1l13.8-13.8c2.9-2.9,2.9-7.5,0-10.3c-2.9-2.9-7.5-2.9-10.3,0l-13.8,13.8
			c-2.9,2.9-2.9,7.5,0,10.3C151.5,320.3,153.4,321,155.3,321z"/>
		<path class="st10" d="M343.3,133c1.9,0,3.7-0.7,5.2-2.1l13.8-13.8c2.9-2.9,2.9-7.5,0-10.3c-2.9-2.9-7.5-2.9-10.3,0l-13.8,13.8
			c-2.9,2.9-2.9,7.5,0,10.3C339.6,132.2,341.4,133,343.3,133z"/>
		<path class="st10" d="M343.2,294.7c-2.9,2.9-2.9,7.5,0,10.3l13.8,13.8c1.4,1.4,3.3,2.1,5.2,2.1s3.7-0.7,5.2-2.1
			c2.9-2.9,2.9-7.5,0-10.3l-13.8-13.8C350.7,291.9,346,291.9,343.2,294.7z"/>
		<path class="st10" d="M378.4,217.6h19.5c4,0,7.3-3.3,7.3-7.3c0-4-3.3-7.3-7.3-7.3h-19.5c-4,0-7.3,3.3-7.3,7.3
			C371.1,214.3,374.3,217.6,378.4,217.6z"/>
	</g>
</g>
</svg>
