<?xml version="1.0" encoding="utf-8"?>
<!-- Generator: Adobe Illustrator 24.0.3, SVG Export Plug-In . SVG Version: 6.00 Build 0)  -->
<svg version="1.1" id="Capa_1" xmlns="http://www.w3.org/2000/svg" xmlns:xlink="http://www.w3.org/1999/xlink" x="0px" y="0px"
	 viewBox="0 0 512 512" style="enable-background:new 0 0 512 512;" xml:space="preserve">
<style type="text/css">
	.st0{fill:#8E44AC;}
	.st1{fill:#5C3289;}
	.st2{fill:none;}
	.st3{fill:#FFFFFF;}
	.st4{font-family:'Chalkboard';}
	.st5{font-size:580px;}
</style>
<path class="st0" d="M256,0C114.8,0,0,114.8,0,256s114.8,256,256,256s256-114.8,256-256S397.2,0,256,0z M368,277.3h-90.7V368
	c0,11.8-9.6,21.3-21.3,21.3s-21.3-9.6-21.3-21.3v-90.7H144c-11.8,0-21.3-9.6-21.3-21.3s9.6-21.3,21.3-21.3h90.7V144
	c0-11.8,9.6-21.3,21.3-21.3s21.3,9.6,21.3,21.3v90.7H368c11.8,0,21.3,9.6,21.3,21.3S379.8,277.3,368,277.3z"/>
<rect x="96.4" y="84" class="st0" width="311.3" height="352"/>
<path class="st1" d="M505.2,202.9c-46.8-41.5-107.3-64.3-169.9-64c-140.8,0-255.9,115.1-255.9,255.9c-0.1,17.2,1.8,34.4,5.5,51.2
	C31.9,398.5-1,330.9-1,255.9C-1,115.2,114.1,0.1,254.9,0.1C379.1-1.8,481.5,85.9,505.2,202.9z"/>
<rect x="93.4" y="-22" class="st2" width="512.4" height="512"/>
<text transform="matrix(1 0 0 1 93.4431 389.1309)" class="st3 st4 st5">+</text>
</svg>
