<svg xmlns="http://www.w3.org/2000/svg" viewBox="0 0 792.71 364.16"><defs><style>.cls-1,.cls-3{opacity:0.34;}.cls-2,.cls-3{fill:#e1d7ff;}.cls-3,.cls-5,.cls-6{isolation:isolate;}.cls-4{fill:none;stroke:#4f4f4f;stroke-miterlimit:10;stroke-width:0.8px;}.cls-5{fill:#9a58b4;opacity:0.2;}.cls-6{fill:#dedfe0;opacity:0.83;}.cls-7{fill:#fdfdfd;}.cls-8{fill:#bdc2c6;}.cls-9{fill:#1bbb9a;}.cls-10{fill:#f7ceb3;}.cls-11{fill:#169f85;}.cls-12{fill:#d9f6ff;}.cls-13{fill:#f5e6df;}.cls-14{fill:#2a80b8;}.cls-15{fill:#394c60;}.cls-16{fill:#3597da;}.cls-17{fill:#f6c8a9;}.cls-18{fill:#5d5d5d;}.cls-19{fill:#fdd1ad;}.cls-20{fill:#30c4a1;}</style></defs><title>mas9</title><g id="Capa_2" data-name="Capa 2"><g id="Capa_1-2" data-name="Capa 1"><g id="Capa_2-2" data-name="Capa 2"><g class="cls-1"><path class="cls-2" d="M42.12,361.88A88.93,88.93,0,0,1,71.33,217.4c11.56-4.81,24.07-7.15,35.43-12.45,39.6-18.5,54.36-65.8,76.75-103.34C216.06,47.05,273.84,6.91,337.08.78S467,25,499.71,79.49c17.63,29.4,25.47,64.44,46.68,91.37a113.43,113.43,0,0,0,59.15,39.06c20.4,5.5,42,5.17,62.59,9.73,31.89,7.07,62,27.53,74.63,57.67s3.76,69.55-24,86.84Z"/></g><g class="cls-1"><path class="cls-2" d="M102.27,362.06a67.55,67.55,0,0,1,22.19-109.74c8.78-3.65,18.28-5.44,26.9-9.46,30.09-14.05,41.29-50,58.3-78.48,24.72-41.45,68.61-71.93,116.64-76.59S425,106.18,449.82,147.57c13.39,22.33,19.35,48.94,35.46,69.41a86.23,86.23,0,0,0,44.93,29.66c15.49,4.18,31.86,3.93,47.54,7.4,24.23,5.36,47.09,20.9,56.68,43.79s2.85,52.82-18.19,66Z"/></g><path class="cls-3" d="M619.43,179.71c0,6.83-5.26,12.38-11.75,12.38s-11.75-5.55-11.75-12.38,5.26-12.37,11.75-12.37S619.43,172.88,619.43,179.71Z"/><path class="cls-3" d="M578.61,169.82a6.19,6.19,0,1,1-6.18-6.19A6.18,6.18,0,0,1,578.61,169.82Z"/><ellipse class="cls-3" cx="99.88" cy="176" rx="11.75" ry="12.37"/><path class="cls-3" d="M119.67,145.08a6.19,6.19,0,1,1-6.18-6.19A6.18,6.18,0,0,1,119.67,145.08Z"/><circle class="cls-3" cx="127.09" cy="168.58" r="6.19"/><line class="cls-4" y1="362.84" x2="792.71" y2="362.84"/><path class="cls-5" d="M181.94,67.58a24.41,24.41,0,1,1-5.32,8,24.71,24.71,0,0,1,5.32-8Zm8.82-3.22a22.34,22.34,0,1,0,8.5-1.68,22.08,22.08,0,0,0-8.5,1.68Zm-2.71-18a41.15,41.15,0,0,0-4.52,1.6,40.44,40.44,0,0,0-8.42,4.88A40.48,40.48,0,0,0,171.39,56a2.56,2.56,0,0,1-3.07.37c-3.6-2.08-7.38-4.13-10.9-6.29a1.49,1.49,0,0,0-.53-.17,1.75,1.75,0,0,0-.6.05,1.42,1.42,0,0,0-.55.27,1.44,1.44,0,0,0-.4.45c-2.62,4-5.25,9.09-7.68,13.3a1.33,1.33,0,0,0-.19.57,1.59,1.59,0,0,0,0,.61,1.76,1.76,0,0,0,.27.55,1.44,1.44,0,0,0,.45.4c3.24,2.14,7.41,4.28,10.84,6.26a2.55,2.55,0,0,1,1.08,1.22,2.49,2.49,0,0,1,.16.53l.22.07-.25,1c-.19.79-.36,1.58-.51,2.38s-.27,1.57-.37,2.41-.17,1.64-.22,2.44-.07,1.61-.07,2.46,0,1.68.07,2.46.13,1.62.22,2.44.23,1.64.37,2.41.32,1.59.52,2.39A2.58,2.58,0,0,1,159,97.49l-9.6,5.54h0l-1.13.66a1.48,1.48,0,0,0-.46.4,1.55,1.55,0,0,0-.26.55,1.44,1.44,0,0,0-.05.62,1.49,1.49,0,0,0,.19.56l7.1,12.31h0l.57,1a1.58,1.58,0,0,0,.4.45,1.42,1.42,0,0,0,.55.27,1.58,1.58,0,0,0,.61,0,1.67,1.67,0,0,0,.57-.19c3.44-2.16,7.31-4.22,10.85-6.27a2.59,2.59,0,0,1,3.06.37h0a42.1,42.1,0,0,0,3.73,3.19,41.28,41.28,0,0,0,4.09,2.7,39.4,39.4,0,0,0,4.36,2.18,38.94,38.94,0,0,0,4.59,1.62,2.6,2.6,0,0,1,1.35.93A2.54,2.54,0,0,1,190,126v12.51a1.45,1.45,0,0,0,.12.59,1.59,1.59,0,0,0,.84.85,1.63,1.63,0,0,0,.59.12h15.37a1.63,1.63,0,0,0,.59-.12,1.58,1.58,0,0,0,.5-.34,1.43,1.43,0,0,0,.34-.51,1.45,1.45,0,0,0,.12-.59V126a2.51,2.51,0,0,1,.56-1.58,2.58,2.58,0,0,1,1.42-.92,40.54,40.54,0,0,0,8.85-3.77A40.64,40.64,0,0,0,223.4,117a39.11,39.11,0,0,0,3.73-3.18,2.58,2.58,0,0,1,3.19-.29L241,119.7a1.69,1.69,0,0,0,.56.19,1.62,1.62,0,0,0,.62,0,1.42,1.42,0,0,0,.55-.27,1.58,1.58,0,0,0,.4-.45c2.55-4.44,5.13-8.86,7.68-13.3a1.33,1.33,0,0,0,.19-.57,1.58,1.58,0,0,0,0-.61,1.55,1.55,0,0,0-.26-.55,1.44,1.44,0,0,0-.45-.4l-10.84-6.26a2.57,2.57,0,0,1-1.08-1.21,3,3,0,0,1-.14-.42l-.28-.06.28-1.14c.2-.8.37-1.59.52-2.38s.26-1.58.36-2.42.18-1.64.23-2.44.07-1.6.07-2.46,0-1.68-.07-2.46-.13-1.62-.23-2.44-.22-1.65-.36-2.42-.32-1.58-.52-2.38a2.58,2.58,0,0,1,1.32-2.89l10.74-6.2a1.49,1.49,0,0,0,.44-.39,1.39,1.39,0,0,0,.27-.56,1.58,1.58,0,0,0,0-.61,1.48,1.48,0,0,0-.19-.57c-2.62-3.9-5.25-9.1-7.69-13.3a1.41,1.41,0,0,0-.39-.45,1.57,1.57,0,0,0-.55-.27,1.65,1.65,0,0,0-.62-.05,1.51,1.51,0,0,0-.56.2l-10.85,6.26a2.58,2.58,0,0,1-1.63.33,2.64,2.64,0,0,1-1.47-.73,42.83,42.83,0,0,0-3.71-3.17A40.54,40.54,0,0,0,215,47.93a41,41,0,0,0-4.6-1.62,2.56,2.56,0,0,1-1.34-.92,2.6,2.6,0,0,1-.52-1.55V31.32a1.55,1.55,0,0,0-.11-.59,1.56,1.56,0,0,0-.85-.85,1.63,1.63,0,0,0-.59-.11H191.57a1.63,1.63,0,0,0-.59.11,1.58,1.58,0,0,0-1,1.44V43.84a2.57,2.57,0,0,1-2,2.5Zm-5.4-.48a41.62,41.62,0,0,0-4.58,2.29,42.25,42.25,0,0,0-8.25,6.22.3.3,0,0,1-.36,0q-5.47-3.15-10.94-6.32a4,4,0,0,0-1.37-.43,3.86,3.86,0,0,0-1.44.11,3.82,3.82,0,0,0-1.34.66,3.62,3.62,0,0,0-1,1.11c-2.65,4.28-5.15,8.92-7.68,13.3a3.74,3.74,0,0,0-.48,1.42,3.86,3.86,0,0,0,.1,1.48,4,4,0,0,0,.66,1.35,3.81,3.81,0,0,0,1.12,1c3.48,2.15,7.27,4.19,10.84,6.25a.44.44,0,0,1,.12.15.41.41,0,0,1,0,.19l-.25,1h0c-.11.5-.21,1-.31,1.5-.16.87-.29,1.72-.39,2.56s-.18,1.69-.23,2.57-.08,1.75-.08,2.6,0,1.71.08,2.59.13,1.74.23,2.57.23,1.69.39,2.56.34,1.7.54,2.51a.33.33,0,0,1-.15.35c-4,2.13-8,4.63-12,6.9l.14.18-.12.15a3.82,3.82,0,0,0-.66,1.34,3.8,3.8,0,0,0,.38,2.9l8.25,14.3.16-.1a1.64,1.64,0,0,0,.25.21,3.68,3.68,0,0,0,1.34.67,3.91,3.91,0,0,0,1.49.09,3.81,3.81,0,0,0,1.37-.45c3.61-1.91,7.33-4.23,10.9-6.29a.36.36,0,0,1,.18,0,.37.37,0,0,1,.18.08,41.74,41.74,0,0,0,3.93,3.36,44.76,44.76,0,0,0,4.32,2.85,42.2,42.2,0,0,0,4.61,2.31,41.2,41.2,0,0,0,4.86,1.72.36.36,0,0,1,.16.11.28.28,0,0,1,.06.18v12.52a3.81,3.81,0,0,0,1.12,2.7,3.83,3.83,0,0,0,1.24.82,3.72,3.72,0,0,0,1.45.3H207a3.72,3.72,0,0,0,1.45-.3,3.87,3.87,0,0,0,1.25-.82,4,4,0,0,0,.82-1.24,3.81,3.81,0,0,0,.3-1.46V126a.29.29,0,0,1,.06-.19.27.27,0,0,1,.17-.1l.05,0a42.72,42.72,0,0,0,9.41-4,43.42,43.42,0,0,0,4.31-2.85,46.59,46.59,0,0,0,3.94-3.36.32.32,0,0,1,.17-.09.35.35,0,0,1,.2,0l10.84,6.26a3.57,3.57,0,0,0,1.41.47,3.73,3.73,0,0,0,2.83-.76,3.86,3.86,0,0,0,1-1.08c2.85-4.58,5.54-9.6,8.26-14.3l-.15-.09a2.25,2.25,0,0,0,.06-.36,3.72,3.72,0,0,0-.76-2.82,3.78,3.78,0,0,0-1.11-1l-10.84-6.25a.37.37,0,0,1-.13-.15.31.31,0,0,1,0-.19l.28-1.15h0c.1-.44.19-.9.27-1.36.16-.86.29-1.72.39-2.56s.18-1.69.24-2.57.08-1.75.08-2.59,0-1.71-.08-2.6-.14-1.74-.24-2.57-.23-1.68-.39-2.56-.34-1.7-.54-2.51a.28.28,0,0,1,0-.2.32.32,0,0,1,.14-.14l10.83-6.26a3.51,3.51,0,0,0,1.11-1,3.69,3.69,0,0,0,.66-1.33,3.92,3.92,0,0,0,.1-1.49,3.75,3.75,0,0,0-.46-1.38c-2.58-4.78-5.54-9.6-8.27-14.33l-.15.09a2.65,2.65,0,0,0-.26-.21,3.82,3.82,0,0,0-1.34-.66,3.88,3.88,0,0,0-1.48-.1,3.62,3.62,0,0,0-1.41.47l-.8.46h0l-10.06,5.8a.27.27,0,0,1-.19,0,.28.28,0,0,1-.17-.09l0,0A42.3,42.3,0,0,0,224.74,51a43.62,43.62,0,0,0-4.29-2.84,40.42,40.42,0,0,0-4.61-2.3A41.7,41.7,0,0,0,211,44.13a.27.27,0,0,1-.16-.11.28.28,0,0,1-.07-.19V31.31a3.72,3.72,0,0,0-.29-1.45,3.65,3.65,0,0,0-.83-1.24A3.88,3.88,0,0,0,207,27.49H191.58a3.88,3.88,0,0,0-2.69,1.13,3.8,3.8,0,0,0-1.13,2.69V43.83a.29.29,0,0,1-.06.19.34.34,0,0,1-.17.11l-.05,0A41.76,41.76,0,0,0,182.65,45.86Z"/><path class="cls-5" d="M472.69,154a17.88,17.88,0,1,1-5.24,12.65A17.82,17.82,0,0,1,472.69,154Zm3.86-17.73a31.41,31.41,0,0,0-7,3,32.06,32.06,0,0,0-6.14,4.64,1.12,1.12,0,0,1-1.32.16l-8.31-4.8-.05,0a2.09,2.09,0,0,0-1.51-.17A2,2,0,0,0,451,140l0,.06-5.85,10.13a2.07,2.07,0,0,0,.76,2.82l.06,0,8.24,4.76a1.11,1.11,0,0,1,.52,1.21h0a33.17,33.17,0,0,0-.69,3.78,32.42,32.42,0,0,0,0,7.71,30.77,30.77,0,0,0,.7,3.78,1.12,1.12,0,0,1-.59,1.25l-8.24,4.76h0a2,2,0,0,0-.95,1.25,2.07,2.07,0,0,0,.2,1.57L451,193.34h0a2.08,2.08,0,0,0,2.82.75l.06,0,8.25-4.77a1.1,1.1,0,0,1,1.31.16,32.13,32.13,0,0,0,6.15,4.64,31.38,31.38,0,0,0,7.06,3,1.11,1.11,0,0,1,.8,1.06v9.59a2,2,0,0,0,2.06,2h11.76a2.07,2.07,0,0,0,2.06-2v-9.59a1.09,1.09,0,0,1,.84-1.07,31.7,31.7,0,0,0,13.17-7.63,1.09,1.09,0,0,1,1.36-.12l8.25,4.77a2.12,2.12,0,0,0,1.57.2,2.06,2.06,0,0,0,1.25-1l0-.06,5.86-10.13h0a2,2,0,0,0,.2-1.56,2.07,2.07,0,0,0-.95-1.26l-8.31-4.79a1.11,1.11,0,0,1-.52-1.22h0a31,31,0,0,0,.69-3.77,32.42,32.42,0,0,0,0-7.71,30.76,30.76,0,0,0-.69-3.78,1.1,1.1,0,0,1,.58-1.25l8.24-4.76a2.07,2.07,0,0,0,.75-2.81l0-.06-5.85-10.13h0a2,2,0,0,0-1.25-1,2,2,0,0,0-1.56.19h0l-8.32,4.8a1.09,1.09,0,0,1-1.33-.18,31.54,31.54,0,0,0-6.13-4.61,30.93,30.93,0,0,0-7.06-3,1.11,1.11,0,0,1-.8-1.06v-9.59a2,2,0,0,0-2.05-2.05H479.45a2.07,2.07,0,0,0-2.06,2.05v9.59A1.08,1.08,0,0,1,476.55,136.31Z"/><path class="cls-5" d="M551,81.5a3.07,3.07,0,0,0-6.14,0v7.22h-7.21a3.07,3.07,0,1,0,0,6.13h7.21v7.22a3.07,3.07,0,0,0,6.14,0V94.85h7.21a3.07,3.07,0,1,0,0-6.13H551Z"/></g><path class="cls-6" d="M517.86,350.54H234.12a10.81,10.81,0,0,1-10.81-10.81h0a10.81,10.81,0,0,1,10.81-10.82H517.86a10.81,10.81,0,0,1,10.81,10.82h0A10.81,10.81,0,0,1,517.86,350.54Z"/><rect class="cls-7" x="306.13" y="81.31" width="183.68" height="122.27"/><path class="cls-8" d="M492.75,206.51H303.21V78.39H492.75Zm-183.69-5.85H486.89V84.24H309.06Z"/><path class="cls-9" d="M398,184.53a.29.29,0,0,1-.29-.31.28.28,0,0,1,.31-.29h1.19v0a.3.3,0,0,1,.29.31.32.32,0,0,1-.32.3Zm3.94-.38a.3.3,0,0,1,.28-.32l1.19-.11a.3.3,0,1,1,.07.6c-.41.05-.81.08-1.21.11h0A.3.3,0,0,1,401.91,184.15Zm-7,.18c-.41,0-.81-.09-1.21-.15a.29.29,0,0,1-.26-.34.3.3,0,0,1,.34-.26l1.19.14a.3.3,0,0,1,.27.34.31.31,0,0,1-.3.27Zm11.18-.68a.31.31,0,0,1,.24-.36l1.18-.23a.31.31,0,0,1,.36.23.3.3,0,0,1-.23.36q-.6.14-1.2.24h0A.29.29,0,0,1,406.11,183.65Zm-15.4,0-1.19-.27a.3.3,0,0,1-.22-.36.3.3,0,0,1,.37-.23q.58.15,1.17.27a.31.31,0,0,1,.24.36.32.32,0,0,1-.3.24Zm19.52-1a.3.3,0,0,1,.21-.37l1.14-.36a.31.31,0,0,1,.39.2.3.3,0,0,1-.2.38l-1.16.36h-.09A.31.31,0,0,1,410.23,182.7Zm-23.64-.14c-.39-.12-.77-.25-1.16-.39a.32.32,0,0,1-.18-.39.3.3,0,0,1,.39-.18l1.14.38a.31.31,0,0,1,.19.39.3.3,0,0,1-.29.21Zm27.65-1.23a.29.29,0,0,1,.16-.39c.37-.15.74-.31,1.1-.48a.32.32,0,0,1,.41.16.31.31,0,0,1-.16.4l-1.12.48-.11,0A.29.29,0,0,1,414.24,181.33ZM382.61,181l-1.11-.52a.3.3,0,1,1,.27-.54l1.08.5a.3.3,0,0,1,.16.4.31.31,0,0,1-.28.18Zm35.47-1.49a.3.3,0,0,1,.12-.41l1.05-.58a.3.3,0,1,1,.3.52l-1.06.6-.15,0A.29.29,0,0,1,418.08,179.55Zm-39.27-.45c-.36-.2-.7-.41-1.05-.62a.31.31,0,1,1,.32-.52c.34.21.68.42,1,.62a.3.3,0,0,1,.11.41.3.3,0,0,1-.26.15A.28.28,0,0,1,378.81,179.1Zm42.9-1.72a.29.29,0,0,1,.08-.42l1-.69a.3.3,0,0,1,.42.06.31.31,0,0,1-.06.43l-1,.7a.34.34,0,0,1-.17,0A.29.29,0,0,1,421.71,177.38Zm-46.48-.59-1-.73a.31.31,0,0,1,.38-.49q.47.38,1,.72a.31.31,0,0,1,.06.43.3.3,0,0,1-.24.12A.35.35,0,0,1,375.23,176.79Zm49.86-1.95a.31.31,0,0,1,0-.43c.3-.26.61-.52.9-.79a.31.31,0,0,1,.43,0,.29.29,0,0,1,0,.43l-.92.81a.32.32,0,0,1-.19.07A.34.34,0,0,1,425.09,174.84Zm-53.17-.74c-.31-.27-.6-.54-.9-.83a.3.3,0,0,1,0-.42.3.3,0,0,1,.43,0l.88.82a.29.29,0,0,1,0,.43.28.28,0,0,1-.22.1A.3.3,0,0,1,371.92,174.1ZM428.2,172a.3.3,0,0,1,0-.43c.27-.29.55-.58.81-.88a.29.29,0,0,1,.43,0,.3.3,0,0,1,0,.43c-.27.3-.55.6-.83.89a.31.31,0,0,1-.22.09A.28.28,0,0,1,428.2,172Zm-59.3-.87c-.28-.3-.54-.6-.81-.91a.31.31,0,0,1,.47-.4c.26.31.52.61.79.9a.31.31,0,0,1,0,.43.28.28,0,0,1-.21.08A.28.28,0,0,1,368.9,171.09ZM431,168.77a.3.3,0,0,1-.06-.43q.36-.47.72-1a.3.3,0,0,1,.42-.07.31.31,0,0,1,.07.43l-.73,1a.32.32,0,0,1-.24.11A.28.28,0,0,1,431,168.77Zm-64.78-1-.7-1a.32.32,0,0,1,.08-.43.3.3,0,0,1,.42.08l.69,1a.31.31,0,0,1-.06.43.31.31,0,0,1-.18.05A.32.32,0,0,1,366.21,167.78Zm67.21-2.48a.3.3,0,0,1-.1-.41q.31-.51.6-1l0,0a.3.3,0,0,1,.41-.1.31.31,0,0,1,.1.42l-.61,1a.31.31,0,0,1-.26.14A.3.3,0,0,1,433.42,165.3Zm-70.12-2.15a.31.31,0,0,1,.12-.42.3.3,0,0,1,.41.13c.18.34.37.67.57,1l-.25.19-.28.11Q363.57,163.66,363.3,163.15Zm.85.91Zm71.33-2.46a.29.29,0,0,1-.14-.4c.17-.36.34-.73.5-1.09a.32.32,0,0,1,.4-.16.31.31,0,0,1,.16.4c-.17.38-.34.75-.52,1.11a.29.29,0,0,1-.27.17A.21.21,0,0,1,435.48,161.6ZM362,160.41c-.17-.37-.33-.75-.48-1.12a.3.3,0,0,1,.16-.4.31.31,0,0,1,.4.17c.15.37.31.74.47,1.1a.3.3,0,0,1-.15.4.27.27,0,0,1-.12,0A.31.31,0,0,1,362,160.41Zm-1.53-4c-.13-.39-.25-.77-.36-1.16a.3.3,0,1,1,.58-.17c.11.38.23.76.35,1.14a.29.29,0,0,1-.19.38.16.16,0,0,1-.1,0A.3.3,0,0,1,360.42,156.43Zm-1.11-4.12c-.09-.4-.16-.79-.24-1.19a.31.31,0,0,1,.25-.36.3.3,0,0,1,.35.25c.07.39.15.78.23,1.18a.3.3,0,0,1-.23.36h-.06A.29.29,0,0,1,359.31,152.31Zm-.67-4.21c-.05-.4-.08-.81-.12-1.21a.31.31,0,0,1,.28-.33.3.3,0,0,1,.33.28c0,.4.07.8.11,1.2a.3.3,0,0,1-.27.33h0A.29.29,0,0,1,358.64,148.1Zm-.23-4.3c0-.4,0-.79,0-1.18a.3.3,0,0,1,.6,0c0,.39,0,.77,0,1.16v0a.29.29,0,0,1-.31.28A.32.32,0,0,1,358.41,143.8Zm.49-3.88a.3.3,0,0,1-.27-.34c0-.4.09-.81.14-1.21a.3.3,0,0,1,.34-.26.3.3,0,0,1,.26.34c-.05.4-.1.8-.14,1.19a.31.31,0,0,1-.3.28Zm79.76-3.3c-.07-.4-.15-.79-.23-1.18a.3.3,0,1,1,.59-.13c.09.4.16.8.24,1.2a.3.3,0,0,1-.25.35H439A.32.32,0,0,1,438.66,136.62Zm-79.14-.89a.3.3,0,0,1-.23-.36c.08-.4.17-.79.27-1.19a.3.3,0,0,1,.37-.22.3.3,0,0,1,.22.36q-.15.59-.27,1.17a.3.3,0,0,1-.29.25Zm78.17-3.2c-.11-.39-.23-.77-.35-1.15a.3.3,0,0,1,.19-.38.31.31,0,0,1,.39.19l.36,1.17a.3.3,0,0,1-.21.37l-.09,0A.31.31,0,0,1,437.69,132.53Zm-77.11-.9a.3.3,0,0,1-.19-.38c.12-.39.25-.77.39-1.16a.31.31,0,0,1,.39-.18.3.3,0,0,1,.18.39c-.13.38-.26.75-.38,1.14a.31.31,0,0,1-.29.21Zm75.72-3.07c-.15-.37-.31-.74-.47-1.1a.3.3,0,0,1,.16-.4.3.3,0,0,1,.4.15l.48,1.12a.32.32,0,0,1-.17.4l-.12,0A.3.3,0,0,1,436.3,128.56Zm-74.23-.89a.3.3,0,0,1-.16-.4l.51-1.11a.31.31,0,0,1,.41-.14.3.3,0,0,1,.14.4c-.17.36-.34.73-.5,1.09a.29.29,0,0,1-.28.18Zm72.44-2.91-.57-1h0l.52-.3c.21.35.4.7.59,1.06a.3.3,0,0,1-.12.41l-.14,0A.29.29,0,0,1,434.51,124.76Zm-70.4-1.14-.24-.2c.19-.34.39-.67.6-1a.3.3,0,0,1,.42-.1.29.29,0,0,1,.09.41c-.2.33-.39.66-.58,1l0,0Zm68.22-2.45-.69-1a.3.3,0,0,1,.06-.42.31.31,0,0,1,.43.07c.24.32.47.66.7,1a.3.3,0,0,1-.08.42.27.27,0,0,1-.17.06A.29.29,0,0,1,432.33,121.17Zm-66.1-.86a.31.31,0,0,1-.07-.43l.73-1a.31.31,0,0,1,.43-.05.29.29,0,0,1,.05.42l-.72,1a.3.3,0,0,1-.24.12A.37.37,0,0,1,366.23,120.31Zm12.4-11.37a.31.31,0,0,1,.11-.41c.35-.21.71-.41,1.07-.6a.31.31,0,0,1,.41.12.31.31,0,0,1-.13.42c-.35.19-.7.38-1,.58a.29.29,0,0,1-.16,0A.3.3,0,0,1,378.63,108.94Zm3.76-2a.3.3,0,0,1,.15-.4c.37-.17.75-.33,1.12-.48a.3.3,0,0,1,.4.16.31.31,0,0,1-.17.4l-1.1.47a.28.28,0,0,1-.13,0A.3.3,0,0,1,382.39,107Zm30.32-1q-.57-.21-1.14-.39a.31.31,0,0,1,.19-.58l1.15.4a.3.3,0,0,1-.1.58Zm-26.39-.57a.32.32,0,0,1,.2-.39l1.16-.36a.32.32,0,0,1,.38.21.3.3,0,0,1-.21.38l-1.14.35-.1,0A.33.33,0,0,1,386.32,105.44Zm22.36-.64q-.57-.15-1.17-.27a.3.3,0,0,1-.23-.36.3.3,0,0,1,.36-.24l1.19.28a.3.3,0,0,1-.08.59S408.71,104.8,408.68,104.8Zm-18.28-.5a.31.31,0,0,1,.24-.36l1.19-.23a.31.31,0,0,1,.11.6c-.39.07-.79.14-1.18.23h-.06A.31.31,0,0,1,390.4,104.3Zm14.15-.29-1.19-.14a.3.3,0,1,1,.07-.6l1.21.14a.32.32,0,0,1,.26.34.3.3,0,0,1-.3.27Zm-10-.4a.3.3,0,0,1,.27-.34l1.21-.11a.31.31,0,1,1,.05.61c-.4,0-.79.06-1.19.11h0A.31.31,0,0,1,394.57,103.61Zm5.81.06h0l-1.21,0h-.06a.31.31,0,0,1,0-.61h.06l1.22,0a.32.32,0,0,1,.3.31.31.31,0,0,1-.3.3Z"/><path class="cls-9" d="M421,102.69a.32.32,0,0,0,.3.34h3.05a.35.35,0,0,0,0-.69h-3.05A.33.33,0,0,0,421,102.69Z"/><path class="cls-9" d="M418.84,102.69a.32.32,0,0,0,.3.34h.31a.32.32,0,0,0,.3-.34.33.33,0,0,0-.3-.35h-.31A.33.33,0,0,0,418.84,102.69Z"/><path class="cls-9" d="M421.58,119.86V120a.89.89,0,0,0,.84,1h.75a.89.89,0,0,0,.84-1v-.17a.9.9,0,0,0-.84-1h-.75A.9.9,0,0,0,421.58,119.86Zm.61,0a.25.25,0,0,1,.23-.26h.75a.25.25,0,0,1,.23.26V120a.24.24,0,0,1-.23.26h-.75a.25.25,0,0,1-.23-.26Z"/><path class="cls-9" d="M417.62,102.55v18.22a1.18,1.18,0,0,0,1.1,1.25h8.15a1.18,1.18,0,0,0,1.1-1.25V102.55a1.18,1.18,0,0,0-1.1-1.25h-8.15A1.18,1.18,0,0,0,417.62,102.55Zm.61,18.22V102.55a.52.52,0,0,1,.49-.55h8.15a.53.53,0,0,1,.49.55v18.22a.53.53,0,0,1-.49.56h-8.15a.53.53,0,0,1-.49-.56Z"/><path class="cls-9" d="M417.62,103.72v14.5a.33.33,0,0,0,.3.35h9.75a.33.33,0,0,0,.3-.35v-14.5a.32.32,0,0,0-.3-.34h-9.75A.32.32,0,0,0,417.62,103.72Zm.61.35h9.13v13.81h-9.13Z"/><path class="cls-9" d="M373.74,115a.31.31,0,0,1,0,.44.31.31,0,0,1-.45,0,.31.31,0,0,1,0-.44A.31.31,0,0,1,373.74,115Z"/><path class="cls-9" d="M381.41,114.47l-2.4-2,0,0a1.57,1.57,0,0,0-2,.21l-1.31,1.31a.31.31,0,0,1-.34.07,8.57,8.57,0,0,1-3.62-2.74,6,6,0,0,1-1-1.75s0,0,0-.06a.32.32,0,0,1,.07-.35l1.31-1.31a1.56,1.56,0,0,0,.21-2h0l-1.73-2.41a1.58,1.58,0,0,0-2.45-.26l-.26.26h0l-.94.94c-1.12,1.11-1.3,2.79-.53,4.85a18.08,18.08,0,0,0,9.31,9.23c1.8.66,3.71.74,5.06-.62l.89-.88A1.59,1.59,0,0,0,381.41,114.47Zm-2.8-1.55,2.4,2,0,0a1,1,0,0,1,.16,1.47l-.07.07-4.09-3.07.4-.4A.94.94,0,0,1,378.61,112.92Zm-8.56-9.19v0l1.73,2.41a.92.92,0,0,1-.13,1.17l-.39.39-2.77-4.07.08-.08A1,1,0,0,1,370.05,103.73Zm5.88,14.08A17.23,17.23,0,0,1,367,109c-.48-1.26-.79-3,.38-4.19l.67-.67,2.77,4.08-.47.46a1,1,0,0,0-.22,1,7,7,0,0,0,1,1.89,9.23,9.23,0,0,0,3.94,3,1,1,0,0,0,1-.2l.46-.46,4.09,3.07-.37.36C379.07,118.6,377.24,118.29,375.93,117.81Z"/><path class="cls-9" d="M372.73,114.71a.32.32,0,0,1-.45,0c-.35-.3-.93-.81-1.25-1.14a21.81,21.81,0,0,1-2.07-2.45.32.32,0,0,1,.08-.44.32.32,0,0,1,.44.08,21.39,21.39,0,0,0,2,2.37c.3.31.88.82,1.22,1.11A.33.33,0,0,1,372.73,114.71Z"/><path class="cls-9" d="M427.22,140.9V152a2,2,0,0,0,2,2h5l-.61,2h-1.14a1.06,1.06,0,1,0,0,2.12h10.46a1.06,1.06,0,1,0,0-2.12h-1.14l-.61-2h5a2,2,0,0,0,2-2V140.9a2,2,0,0,0-2-2h-1.93a.32.32,0,0,0,0,.63h1.93a1.37,1.37,0,0,1,1.37,1.37V152a1.37,1.37,0,0,1-1.37,1.37h-17a1.37,1.37,0,0,1-1.37-1.37V140.9a1.37,1.37,0,0,1,1.37-1.37H443a.32.32,0,0,0,0-.63H429.21A2,2,0,0,0,427.22,140.9Zm5.24,15.67h10.46a.44.44,0,0,1,.44.44.44.44,0,0,1-.44.43H432.46A.43.43,0,0,1,432,157,.44.44,0,0,1,432.46,156.57Zm2.4-2.61h5.66l.61,2h-6.88Z"/><path class="cls-9" d="M429.5,148.72v-7.54h16.38v9.54H429.5V150a.31.31,0,0,0-.31-.31.31.31,0,0,0-.31.31V151a.31.31,0,0,0,.31.32h17a.31.31,0,0,0,.31-.32V140.89a.33.33,0,0,0-.33-.33h-17a.33.33,0,0,0-.33.33v7.83a.31.31,0,0,0,.62,0Z"/><path class="cls-9" d="M437.48,152.51a.31.31,0,1,0,.27-.53.33.33,0,0,0-.32.13A.32.32,0,0,0,437.48,152.51Z"/><path class="cls-10" d="M379.05,128.19a8.49,8.49,0,0,1-4.14.81c-1.38-.12-6,2.88-6,2.88l3.34,1a7.36,7.36,0,0,1,2.76-.47c1.27.12,1.67,1.88,1.39,1.5s-4.49,1.27-4.49,1.27a39.85,39.85,0,0,0-4,0c-1.85.12-2.19.8-4,.69s-2.31.8-2.31.8,0,2.91,0,6.65l-4.64-1.5a25.14,25.14,0,0,0,.58-4.84c0-3.38-.12-2.36,1.54-4.91,2.45-3.8,2.22-1,9.36-4.49a34.23,34.23,0,0,0,4.37-2.53,31.39,31.39,0,0,0,4.95-1.27c.69-.46,1,.69,0,1.61s-3.8,1.27-3.8,1.27l-.8.57,2.64-.11a10.6,10.6,0,0,0,2.53.11C379.51,127.16,380.32,127.62,379.05,128.19Z"/><path class="cls-11" d="M364.43,144.31s-.69,3.69-1.61,7.37S361,160.2,361,160.2s-2.48,9.52-3.52,9.63-.07.33-9.4-2.32S319.5,151,322.45,141c0,0,2.46-2.76,7.06-.3s5.53,4.6,7.68,6.75,8.59,7.06,12.58,8.59c1.75.67,2.5,1,2.78,1.14v.1s.39.09,0-.1h0l3.36-15.64.95.31,4.64,1.5Z"/><path class="cls-12" d="M352.54,157.29v-.1h0C352.92,157.38,352.54,157.29,352.54,157.29Z"/><path class="cls-10" d="M326.09,129.69c-.35.79-2.87,2.14-8.67,2a1.87,1.87,0,0,1-.41,0c-3.7-.15-9-.32-13.54-1.87a13,13,0,0,1-7.18-5c-4.05-6.33-1.06-13.69-1.06-13.69s1.11-3.49,7.27-6,9.9-2.58,13.13.18,6,6.21,5.86,6.91-1.14,3.35-.47,3.46,3.11,2.17,4.16,2,1.15,1.15.47,1.61a6.93,6.93,0,0,0-1.52,2.06l.7,1.38a7.84,7.84,0,0,1-1.49,2c-.06,0-.06,0-.09,0,.14,0,1.43-.58,1.82.06.46.82-.83,1.73-.59,2.44S326.44,128.9,326.09,129.69Z"/><path class="cls-13" d="M331.69,220.21c-1.16,10.75-5.51,49.66-5.51,49.66S314.35,289,311.67,295.69c-3.2,8-4.36,29.32-4.36,29.32l2,9.18.93,4.32a2.52,2.52,0,0,1,1.74,2.77c-.29,2.15-9,2.45-9.87,2.15s-4.06-1.54-4.06-1.54a11.37,11.37,0,0,1-.87-6.14c.58-3.07.34-2.12,0-4.3-.86-5.59-2.1-4.59-1.45-6.75a16.1,16.1,0,0,1,2.61-5.22c1.16-1.84,2.32-32.11,5.8-38.56s11.32-15.35,11.32-15.35-9.43-49.35-6.75-55.79,22.42-6.15,22.42-6.15S332.85,209.47,331.69,220.21Z"/><path class="cls-13" d="M333.72,338.51c-5,.1-5.51-.92-6.67-2.76s-2.32-1.84-5.52-4.3c-2.62-2,.06-4,1.73-7.43a10.92,10.92,0,0,0,.88-2.39c1.17-4.91,1.46-23.82,1.46-31.8s3.19-10.75,3.48-14.12-3.48-47.21-3.48-47.21-1.46-16.88,2.61-22.1,14.22-7.47,14.22-7.47,2.63,5,4.66,14.53-1.47,45-3.79,52.42-3.19,12.59-4.36,17.5-7.54,40.86-7.54,40.86a53,53,0,0,0,6.41,7.58,11.22,11.22,0,0,0,4.26,2.78C344.58,335.27,345.33,338.28,333.72,338.51Z"/><path class="cls-14" d="M324.22,205.55s6.31-6.44,11.1-9,6-2.56,6-2.56,6,15.38,6.25,24c.37,11.65-.7,32-2.68,43.78A92.08,92.08,0,0,1,341,277.09l-9.36,45.53s-.87,1.85-5,.7-5.22-3.23-5.22-3.23,2.16-32,2.61-34.72c2.37-14.16,3.05-7.6,3.48-15.65C327.52,269,324.22,205.79,324.22,205.55Z"/><path class="cls-15" d="M312,341.28c-.29,2.15-9,2.45-9.87,2.15s-4.06-1.54-4.06-1.54a11.37,11.37,0,0,1-.87-6.14c.58-3.07.34-2.12,0-4.3-.86-5.59-2.1-4.59-1.45-6.75a16.1,16.1,0,0,1,2.61-5.22s.43,7.29,2,9.82.65,6.22,4.79,6.68c2.23.25,3.52-.58,4.22-1.79l.93,4.32A2.52,2.52,0,0,1,312,341.28Z"/><path class="cls-15" d="M333.72,338.51c-5,.1-5.51-.92-6.67-2.76s-2.32-1.84-5.52-4.3c-2.62-2,.06-4,1.73-7.43,1,.89,2.62,2.44,3.79,3.67,1.74,1.84,2,4.83,7,5.53s3.7-1.39,3.7-1.39h.1a11.34,11.34,0,0,0,4.26,2.78C344.58,335.27,345.33,338.28,333.72,338.51Z"/><path class="cls-16" d="M307.9,201.87a77.92,77.92,0,0,0-.66,22.57c1.53,11.74,6.53,41.14,6.53,41.14s-8,6.9-11.1,16.57-4.78,36.33-4.78,36.33,3.47,6,6.74,6.45a7.62,7.62,0,0,0,5-.69s.87-12.44,2.39-15.66,15.24-37.71,15.24-37.71,4.56-47.35,4.56-54.49A66.07,66.07,0,0,0,329.44,201S309.42,200.49,307.9,201.87Z"/><path class="cls-17" d="M316.07,144.08c-3.2,1.08-10.52-3.08-13.69-5,2.17-2.26,1.26-7.57,1.09-9.26,4.51,1.55,9.84,1.72,13.54,1.87a1.87,1.87,0,0,0,.41,0,6.92,6.92,0,0,0-.91,5.69l0,0a2.21,2.21,0,0,0,1.87,1.65C320.29,144.08,316.07,144.08,316.07,144.08Z"/><path class="cls-9" d="M336.57,183.07c-3.46-3.16-1.82-10.18-1.82-12a42.05,42.05,0,0,1,1.23-8.91c2.07-6.72-.35-8.46-4-13.07s-6.73-9.29-6.73-9.29l-6.77-.75h0c1.87,5.05-2.34,5.05-2.34,5.05-3.21,1.07-10.54-3.1-13.7-5a3,3,0,0,1-.5.44c-3.07,2.14-7.06,3.07-9.51,7.36s2.45,15,7.37,20.88,8.59,6.44,10.13,15S308.11,191,306,201a41.84,41.84,0,0,0-.46,15.43s12,2.76,31.54-5.53c8-3.37,9.24-3.81,9.24-3.81S342.79,188.75,336.57,183.07Z"/><path class="cls-18" d="M315.16,103.56a14.84,14.84,0,0,1-4.14,4.6c-2.31,1.39-2.07,1.39-2.07,5.53v4.14s-2.31,2.77-2.54,3.69-.92,8.52-.92,8.52-7.83,3.26-12.44-6.41S292.39,107,296.53,104,308.71,98.72,315.16,103.56Z"/><path class="cls-10" d="M307.79,120.6s-2.18-4.38-4.14-3.34-3.34,2.07-3.23,3.34.69,5.75,7.37,5.52V120.6Z"/><path class="cls-19" d="M306.23,193.48a6.66,6.66,0,0,1-2.7.56S304.61,193.86,306.23,193.48Z"/><path class="cls-10" d="M339.59,177.33c-.51,1.19-3.88,4.78-5,5.07s-6.24-3-6.24-3-.36.36-1,.92c-.23-.7-1.12-2-1.41-2.66a11.44,11.44,0,0,1-.83-3.21c.64-.48,1.05-.81,1.05-.81a7,7,0,0,0,3.19-1.12c2-1.17,9-.59,9-.59S341.5,172.86,339.59,177.33Z"/><path class="cls-20" d="M327.82,181.61s-7.59,6.68-12.66,9a49.79,49.79,0,0,1-8.92,2.88h0c-1.62.38-2.7.56-2.7.56-1.84-.31-9.61-11.88-11.16-16.19-2.33-6.46-3.38-20.57-2.46-27.32s5.52-3.69,5.52-3.69c4,.62,6.15,10.45,6.45,16.89.3,6.24,1.35,19.44,4.77,19.42,2.71-1.17,12.48-5.38,14.27-6.38a37.83,37.83,0,0,0,4.37-3s0,.51,0,1.2a5.64,5.64,0,0,0,1.72,3.27c.69.52.4,2.21.64,2.95h0C327.78,181.45,327.82,181.61,327.82,181.61Z"/><ellipse class="cls-18" cx="288.71" cy="116.08" rx="5.47" ry="6.42"/><path class="cls-10" d="M327.82,173.52l5.19-4.15a35.16,35.16,0,0,0,4.73-1.56c1.39-.69,2.08-1.73,2.26-1.21a2.38,2.38,0,0,1-1,2.59c-1.22.87-4.73,3.12-4.73,3.12L332,175.25Z"/><path class="cls-10" d="M338,172l4-.58s1.68-3.05,2.89-3.57,1.27.29,1.27.29l-3.06,5.59a4.31,4.31,0,0,1-.69,2.43c-.69.69-1.1.69-1.1.69a1.51,1.51,0,0,1-.46,1.9c-1,.87-1.15.69-1.15.69a1.42,1.42,0,0,1-1.16,1.62c-1.38.35-4,1.32-4,1.32Z"/></g></g></svg>