<svg xmlns="http://www.w3.org/2000/svg" xmlns:xlink="http://www.w3.org/1999/xlink" viewBox="0 0 792.71 364.16"><defs><style>.cls-1,.cls-3{opacity:0.34;}.cls-2,.cls-3{fill:#e1d7ff;}.cls-3,.cls-5,.cls-6{isolation:isolate;}.cls-4{fill:none;stroke:#4f4f4f;stroke-miterlimit:10;stroke-width:0.8px;}.cls-5{fill:#9a58b4;opacity:0.2;}.cls-6{fill:#dedfe0;opacity:0.83;}.cls-7{fill:#1bbb9a;}.cls-8{fill:#63afbf;}.cls-9{fill:#63ccbf;}.cls-10{fill:#008da8;}.cls-11{fill:#ffab91;}.cls-12{fill:#d3c0be;}.cls-13{fill:#c5c4bb;}.cls-14{fill:#c0afae;}.cls-15{fill:#d6d5ca;}.cls-16{fill:#4d4d4f;}.cls-17{fill:url(#Degradado_sin_nombre_10);}.cls-18{fill:url(#Degradado_sin_nombre_10-2);}.cls-19{fill:url(#Degradado_sin_nombre_10-3);}.cls-20{fill:url(#Degradado_sin_nombre_10-4);}.cls-21{fill:url(#Degradado_sin_nombre_10-5);}.cls-22{fill:url(#Degradado_sin_nombre_10-6);}.cls-23{fill:url(#Degradado_sin_nombre_10-7);}.cls-24{fill:url(#Degradado_sin_nombre_10-8);}.cls-25{fill:url(#Degradado_sin_nombre_10-9);}.cls-26{fill:url(#Degradado_sin_nombre_10-10);}.cls-27{fill:#34495e;}.cls-28{fill:#fbc02d;}.cls-29{fill:#7e8b8c;}.cls-30{fill:#ffccbc;}.cls-31{fill:#f5f5f5;}.cls-32{fill:#2d383e;}.cls-33{fill:#3d4d54;}.cls-34{fill:#8e44ac;}</style><linearGradient id="Degradado_sin_nombre_10" x1="53.13" y1="1054.88" x2="50.35" y2="1069.26" gradientTransform="matrix(-1, 0, 0.27, 1, 109.82, -874.99)" gradientUnits="userSpaceOnUse"><stop offset="0" stop-color="#cfd8dc"/><stop offset="1" stop-color="#eceff1"/></linearGradient><linearGradient id="Degradado_sin_nombre_10-2" x1="53.2" y1="1057.53" x2="50.42" y2="1071.91" xlink:href="#Degradado_sin_nombre_10"/><linearGradient id="Degradado_sin_nombre_10-3" x1="53.26" y1="1060.18" x2="50.48" y2="1074.56" xlink:href="#Degradado_sin_nombre_10"/><linearGradient id="Degradado_sin_nombre_10-4" x1="53.33" y1="1062.83" x2="50.54" y2="1077.21" xlink:href="#Degradado_sin_nombre_10"/><linearGradient id="Degradado_sin_nombre_10-5" x1="53.39" y1="1065.48" x2="50.61" y2="1079.85" xlink:href="#Degradado_sin_nombre_10"/><linearGradient id="Degradado_sin_nombre_10-6" x1="53.46" y1="1068.12" x2="50.67" y2="1082.5" xlink:href="#Degradado_sin_nombre_10"/><linearGradient id="Degradado_sin_nombre_10-7" x1="53.52" y1="1070.77" x2="50.74" y2="1085.15" xlink:href="#Degradado_sin_nombre_10"/><linearGradient id="Degradado_sin_nombre_10-8" x1="53.59" y1="1073.42" x2="50.8" y2="1087.8" xlink:href="#Degradado_sin_nombre_10"/><linearGradient id="Degradado_sin_nombre_10-9" x1="53.65" y1="1076.07" x2="50.87" y2="1090.45" xlink:href="#Degradado_sin_nombre_10"/><linearGradient id="Degradado_sin_nombre_10-10" x1="42.07" y1="1081.07" x2="40.37" y2="1089.83" xlink:href="#Degradado_sin_nombre_10"/></defs><title>menos3</title><g id="Capa_2" data-name="Capa 2"><g id="Capa_1-2" data-name="Capa 1"><g id="Capa_2-2" data-name="Capa 2"><g class="cls-1"><path class="cls-2" d="M42.12,361.88A88.93,88.93,0,0,1,71.33,217.4c11.56-4.81,24.07-7.15,35.43-12.45,39.6-18.5,54.36-65.8,76.75-103.34C216.06,47.05,273.84,6.91,337.08.78S467,25,499.71,79.49c17.63,29.4,25.48,64.44,46.68,91.37a113.47,113.47,0,0,0,59.15,39.06c20.4,5.5,42,5.17,62.59,9.73,31.89,7.07,62,27.53,74.63,57.67s3.76,69.55-24,86.84Z"/></g><g class="cls-1"><path class="cls-2" d="M102.27,362.06a67.55,67.55,0,0,1,22.19-109.74c8.78-3.65,18.28-5.44,26.9-9.46,30.09-14.05,41.29-50,58.3-78.48,24.72-41.45,68.61-71.93,116.64-76.59S425,106.18,449.82,147.57c13.39,22.33,19.35,48.94,35.46,69.41a86.23,86.23,0,0,0,44.93,29.66c15.49,4.18,31.86,3.93,47.54,7.4,24.23,5.36,47.09,20.9,56.68,43.79s2.85,52.82-18.19,66Z"/></g><path class="cls-3" d="M619.43,179.71c0,6.83-5.26,12.38-11.75,12.38s-11.75-5.55-11.75-12.38,5.26-12.37,11.75-12.37S619.43,172.88,619.43,179.71Z"/><path class="cls-3" d="M578.61,169.82a6.19,6.19,0,1,1-6.18-6.19A6.18,6.18,0,0,1,578.61,169.82Z"/><ellipse class="cls-3" cx="99.88" cy="176" rx="11.75" ry="12.37"/><path class="cls-3" d="M119.67,145.08a6.19,6.19,0,1,1-6.18-6.19A6.18,6.18,0,0,1,119.67,145.08Z"/><circle class="cls-3" cx="127.09" cy="168.58" r="6.19"/><line class="cls-4" y1="362.84" x2="792.71" y2="362.84"/><path class="cls-5" d="M181.94,67.58a24.41,24.41,0,1,1-5.32,8,24.71,24.71,0,0,1,5.32-8Zm8.82-3.22a22.34,22.34,0,1,0,8.5-1.68,22.08,22.08,0,0,0-8.5,1.68Zm-2.71-18a41.15,41.15,0,0,0-4.52,1.6,39.77,39.77,0,0,0-4.33,2.17,38.48,38.48,0,0,0-4.08,2.71A39.32,39.32,0,0,0,171.39,56a2.56,2.56,0,0,1-3.07.37c-3.59-2.08-7.38-4.13-10.9-6.29a1.49,1.49,0,0,0-.53-.17,1.75,1.75,0,0,0-.6.05,1.42,1.42,0,0,0-.55.27,1.58,1.58,0,0,0-.4.45c-2.62,4-5.25,9.09-7.68,13.3a1.48,1.48,0,0,0-.19.57,1.42,1.42,0,0,0,.05.61,1.55,1.55,0,0,0,.26.55,1.37,1.37,0,0,0,.46.4c3.23,2.14,7.4,4.28,10.83,6.26a2.55,2.55,0,0,1,1.08,1.22,2.49,2.49,0,0,1,.16.53l.22.07-.25,1c-.19.79-.36,1.58-.51,2.38s-.26,1.57-.37,2.41-.17,1.64-.22,2.44-.07,1.61-.07,2.46,0,1.68.07,2.46.13,1.62.22,2.44.23,1.64.37,2.41.32,1.59.52,2.39a2.56,2.56,0,0,1-.17,1.69,2.52,2.52,0,0,1-1.15,1.2l-9.6,5.54h0l-1.13.66a1.48,1.48,0,0,0-.46.4,1.55,1.55,0,0,0-.26.55,1.44,1.44,0,0,0-.05.62,1.49,1.49,0,0,0,.19.56l7.11,12.31h0l.57,1a1.58,1.58,0,0,0,.4.45,1.42,1.42,0,0,0,.55.27,1.63,1.63,0,0,0,.62,0,1.69,1.69,0,0,0,.56-.19c3.44-2.16,7.31-4.22,10.86-6.27a2.58,2.58,0,0,1,3,.37h0a40.72,40.72,0,0,0,3.73,3.19,40.4,40.4,0,0,0,8.44,4.88,39.09,39.09,0,0,0,4.6,1.62,2.58,2.58,0,0,1,1.34.93A2.54,2.54,0,0,1,190,126v12.51a1.63,1.63,0,0,0,.12.59,1.57,1.57,0,0,0,.34.51,1.63,1.63,0,0,0,.51.34,1.58,1.58,0,0,0,.58.12h15.37a1.63,1.63,0,0,0,.59-.12,1.58,1.58,0,0,0,.5-.34,1.43,1.43,0,0,0,.34-.51,1.45,1.45,0,0,0,.12-.59V126a2.51,2.51,0,0,1,.56-1.58,2.58,2.58,0,0,1,1.42-.92,40.54,40.54,0,0,0,8.85-3.77A40.64,40.64,0,0,0,223.4,117a39.11,39.11,0,0,0,3.73-3.18,2.54,2.54,0,0,1,1.54-.7,2.5,2.5,0,0,1,1.65.41L241,119.7a1.69,1.69,0,0,0,.56.19,1.62,1.62,0,0,0,.62,0,1.42,1.42,0,0,0,.55-.27,1.44,1.44,0,0,0,.4-.45c2.55-4.44,5.13-8.86,7.68-13.3a1.33,1.33,0,0,0,.19-.57,1.8,1.8,0,0,0,0-.61,1.76,1.76,0,0,0-.27-.55,1.44,1.44,0,0,0-.45-.4l-10.84-6.26a2.57,2.57,0,0,1-1.08-1.21,3,3,0,0,1-.14-.42l-.28-.06.28-1.14c.2-.8.37-1.59.52-2.38s.27-1.58.36-2.42.18-1.64.23-2.44.07-1.6.07-2.46,0-1.68-.07-2.46-.12-1.62-.22-2.44-.23-1.65-.37-2.42-.31-1.58-.52-2.38a2.58,2.58,0,0,1,1.32-2.89l10.74-6.2a1.45,1.45,0,0,0,.71-1,1.58,1.58,0,0,0,0-.61,1.48,1.48,0,0,0-.19-.57c-2.62-3.9-5.25-9.1-7.68-13.3a1.58,1.58,0,0,0-.95-.72,1.63,1.63,0,0,0-.62-.05,1.51,1.51,0,0,0-.56.2l-10.85,6.26a2.57,2.57,0,0,1-1.63.33,2.67,2.67,0,0,1-1.47-.73,41.38,41.38,0,0,0-3.71-3.17,40.35,40.35,0,0,0-4.07-2.69A39.4,39.4,0,0,0,215,47.93a40.83,40.83,0,0,0-4.59-1.62,2.56,2.56,0,0,1-1.87-2.47V31.32a1.55,1.55,0,0,0-.12-.59,1.57,1.57,0,0,0-.34-.51,1.52,1.52,0,0,0-.51-.34,1.63,1.63,0,0,0-.59-.11H191.57a1.63,1.63,0,0,0-.59.11,1.58,1.58,0,0,0-1,1.44V43.84a2.57,2.57,0,0,1-2,2.5Zm-5.4-.48a41.62,41.62,0,0,0-4.58,2.29,42.25,42.25,0,0,0-8.25,6.22.3.3,0,0,1-.36,0q-5.47-3.15-10.94-6.32a4,4,0,0,0-1.37-.43,3.86,3.86,0,0,0-1.44.11,3.82,3.82,0,0,0-1.34.66,3.62,3.62,0,0,0-1,1.11c-2.65,4.28-5.15,8.92-7.69,13.3a3.9,3.9,0,0,0-.47,1.42,3.68,3.68,0,0,0,.1,1.48,3.77,3.77,0,0,0,.66,1.35,3.9,3.9,0,0,0,1.11,1c3.49,2.15,7.28,4.19,10.85,6.25a.44.44,0,0,1,.12.15.41.41,0,0,1,0,.19l-.25,1h0c-.1.5-.21,1-.3,1.5-.16.87-.29,1.72-.39,2.56s-.18,1.69-.23,2.57-.08,1.75-.08,2.6,0,1.71.08,2.59.13,1.74.23,2.57.23,1.69.39,2.56.34,1.7.54,2.51a.27.27,0,0,1,0,.2.32.32,0,0,1-.13.15c-4,2.13-8,4.63-12,6.9l.14.18-.12.15a3.82,3.82,0,0,0-.66,1.34,3.9,3.9,0,0,0-.1,1.49,3.69,3.69,0,0,0,.48,1.41l8.25,14.3.16-.1a1.64,1.64,0,0,0,.25.21,3.68,3.68,0,0,0,1.34.67,3.88,3.88,0,0,0,1.48.09,3.8,3.8,0,0,0,1.38-.45c3.61-1.91,7.33-4.23,10.9-6.29a.34.34,0,0,1,.18,0,.42.42,0,0,1,.18.08,41.74,41.74,0,0,0,3.93,3.36,42.86,42.86,0,0,0,8.93,5.16,41.7,41.7,0,0,0,4.85,1.72.31.31,0,0,1,.16.11.23.23,0,0,1,.06.18v12.52a3.88,3.88,0,0,0,1.13,2.7,3.93,3.93,0,0,0,2.69,1.12H207a3.93,3.93,0,0,0,2.69-1.12,3.86,3.86,0,0,0,.83-1.24,3.8,3.8,0,0,0,.29-1.46V126a.29.29,0,0,1,.06-.19.27.27,0,0,1,.17-.1l0,0a42.18,42.18,0,0,0,9.41-4,42.42,42.42,0,0,0,4.32-2.85,46.45,46.45,0,0,0,3.93-3.36.34.34,0,0,1,.18-.09.35.35,0,0,1,.2,0l10.84,6.26a3.51,3.51,0,0,0,1.41.47,3.72,3.72,0,0,0,2.82-.76,3.74,3.74,0,0,0,1-1.08c2.85-4.58,5.54-9.6,8.25-14.3l-.14-.09c0-.12.05-.24.06-.36a3.86,3.86,0,0,0-.1-1.48,3.9,3.9,0,0,0-1.77-2.33l-10.85-6.25a.44.44,0,0,1-.12-.15.31.31,0,0,1,0-.19l.28-1.15h0c.09-.44.18-.9.27-1.36.16-.86.29-1.72.39-2.56s.18-1.69.23-2.57.08-1.75.08-2.59,0-1.71-.08-2.6-.13-1.74-.23-2.57-.23-1.68-.39-2.56-.34-1.7-.54-2.51a.28.28,0,0,1,0-.2.32.32,0,0,1,.14-.14l10.83-6.26a3.51,3.51,0,0,0,1.11-1,3.86,3.86,0,0,0,.66-1.33,3.92,3.92,0,0,0,.1-1.49,3.75,3.75,0,0,0-.46-1.38c-2.58-4.78-5.54-9.6-8.27-14.33l-.15.09-.26-.21a3.82,3.82,0,0,0-1.34-.66,3.88,3.88,0,0,0-1.48-.1,3.62,3.62,0,0,0-1.41.47l-.81.46h0l-10.06,5.8a.27.27,0,0,1-.19,0,.31.31,0,0,1-.18-.09l0,0a42.58,42.58,0,0,0-8.22-6.19,40.42,40.42,0,0,0-4.61-2.3A41.2,41.2,0,0,0,211,44.13a.36.36,0,0,1-.16-.11.33.33,0,0,1-.06-.19V31.31a3.72,3.72,0,0,0-.29-1.45,3.8,3.8,0,0,0-.83-1.24,4,4,0,0,0-1.24-.83,3.77,3.77,0,0,0-1.46-.3H191.58a3.81,3.81,0,0,0-1.46.3,4,4,0,0,0-1.24.83,3.79,3.79,0,0,0-1.12,2.69V43.83a.29.29,0,0,1-.06.19.34.34,0,0,1-.17.11l-.05,0A41.76,41.76,0,0,0,182.65,45.86Z"/><path class="cls-5" d="M472.69,154a17.88,17.88,0,1,1-5.24,12.65A17.82,17.82,0,0,1,472.69,154Zm3.86-17.73a31.41,31.41,0,0,0-7,3,32.37,32.37,0,0,0-6.14,4.64,1.12,1.12,0,0,1-1.32.16l-8.31-4.8-.05,0a2.09,2.09,0,0,0-1.51-.17A2,2,0,0,0,451,140l0,.06-5.85,10.13a2.07,2.07,0,0,0,.76,2.82l.06,0,8.24,4.76a1.09,1.09,0,0,1,.52,1.21h0a33.17,33.17,0,0,0-.69,3.78,32.42,32.42,0,0,0,0,7.71,31.12,31.12,0,0,0,.7,3.78,1.12,1.12,0,0,1-.59,1.25l-8.24,4.76h0a2,2,0,0,0-.95,1.25,2.07,2.07,0,0,0,.2,1.57L451,193.33h0a2.07,2.07,0,0,0,2.82.76l.06,0,8.25-4.77a1.1,1.1,0,0,1,1.31.16,32.13,32.13,0,0,0,6.15,4.64,31.38,31.38,0,0,0,7.06,3,1.1,1.1,0,0,1,.8,1v9.59a2.07,2.07,0,0,0,2.06,2.06h11.76a2.08,2.08,0,0,0,2.06-2.06v-9.59a1.08,1.08,0,0,1,.84-1.06,31.7,31.7,0,0,0,13.17-7.63,1.09,1.09,0,0,1,1.36-.12l8.25,4.76a2.12,2.12,0,0,0,1.57.21,2.06,2.06,0,0,0,1.25-1l0-.06,5.86-10.13h0a2.07,2.07,0,0,0-.75-2.81l-8.31-4.79a1.11,1.11,0,0,1-.52-1.22h0a32.39,32.39,0,0,0,.93-7.63,30.38,30.38,0,0,0-.24-3.85,30.76,30.76,0,0,0-.69-3.78,1.1,1.1,0,0,1,.58-1.25l8.24-4.76a2.06,2.06,0,0,0,1-1.25,2,2,0,0,0-.21-1.56l0-.06-5.86-10.13h0a2,2,0,0,0-1.25-1,2.09,2.09,0,0,0-1.56.2h0l-8.32,4.8a1.08,1.08,0,0,1-1.32-.18,31.91,31.91,0,0,0-6.14-4.61,30.93,30.93,0,0,0-7.06-3,1.1,1.1,0,0,1-.79-1.06v-9.59a2.07,2.07,0,0,0-2.06-2.05H479.45a2.07,2.07,0,0,0-2.06,2.05v9.59A1.08,1.08,0,0,1,476.55,136.31Z"/><path class="cls-5" d="M551,81.5a3.07,3.07,0,0,0-6.14,0v7.22h-7.21a3.07,3.07,0,1,0,0,6.13h7.21v7.22a3.07,3.07,0,0,0,6.14,0V94.85h7.21a3.07,3.07,0,1,0,0-6.13H551Z"/></g><path class="cls-6" d="M540.35,350.54H256.62a10.81,10.81,0,0,1-10.82-10.81h0a10.81,10.81,0,0,1,10.82-10.82H540.35a10.81,10.81,0,0,1,10.81,10.82h0A10.81,10.81,0,0,1,540.35,350.54Z"/><path class="cls-7" d="M343.45,199a.51.51,0,0,1-.51-.49.46.46,0,0,1,.46-.48v.49l0-.49c.66,0,1.28,0,1.9,0a.49.49,0,0,1,.5.47.48.48,0,0,1-.47.5C344.72,199,344.08,199,343.45,199Zm-4.86-.19h0c-.65,0-1.29-.1-1.93-.17a.49.49,0,0,1-.43-.54.47.47,0,0,1,.53-.43c.63.07,1.26.13,1.9.18a.48.48,0,0,1,0,1Zm11.56-.16a.49.49,0,0,1,0-1c.64-.06,1.27-.14,1.9-.23a.49.49,0,0,1,.13,1c-.64.08-1.29.16-1.93.22Zm-18.25-.69h-.09c-.64-.12-1.27-.24-1.9-.38a.49.49,0,0,1-.38-.57.5.5,0,0,1,.58-.37c.62.13,1.25.25,1.88.36a.49.49,0,0,1-.09,1Zm24.92-.36a.49.49,0,0,1-.48-.39.48.48,0,0,1,.38-.57c.62-.13,1.24-.27,1.86-.43a.49.49,0,0,1,.59.36.48.48,0,0,1-.36.58c-.63.16-1.26.3-1.89.44Zm-31.48-1.2a.34.34,0,0,1-.14,0c-.62-.18-1.24-.37-1.85-.57a.49.49,0,0,1-.32-.61.49.49,0,0,1,.61-.31l1.83.56a.49.49,0,0,1,.33.6A.48.48,0,0,1,325.34,196.38Zm38-.55a.49.49,0,0,1-.46-.33.49.49,0,0,1,.31-.61c.61-.2,1.21-.4,1.81-.62a.48.48,0,1,1,.33.91c-.61.22-1.22.43-1.84.63A.39.39,0,0,1,363.34,195.83ZM319,194.15a.43.43,0,0,1-.19,0c-.59-.24-1.19-.5-1.78-.76a.49.49,0,0,1-.25-.64.48.48,0,0,1,.64-.25c.59.26,1.17.52,1.76.76a.48.48,0,0,1-.18.93Zm50.67-.73a.49.49,0,0,1-.19-.93c.58-.26,1.16-.52,1.73-.8a.48.48,0,1,1,.42.87l-1.76.82A.71.71,0,0,1,369.64,193.42Zm-56.77-2.15a.53.53,0,0,1-.23-.06c-.57-.31-1.13-.63-1.69-1a.48.48,0,0,1-.18-.66.49.49,0,0,1,.66-.18c.55.32,1.11.63,1.67.94a.48.48,0,0,1,.2.65A.51.51,0,0,1,312.87,191.27Zm62.79-.91a.49.49,0,0,1-.42-.24.48.48,0,0,1,.18-.67c.55-.31,1.1-.64,1.64-1a.5.5,0,0,1,.67.16.49.49,0,0,1-.16.67c-.55.34-1.11.67-1.67,1A.44.44,0,0,1,375.66,190.36Zm-68.55-2.6a.49.49,0,0,1-.28-.09c-.53-.36-1.06-.73-1.58-1.11a.48.48,0,0,1-.11-.68.49.49,0,0,1,.68-.11q.76.57,1.56,1.11a.48.48,0,0,1,.13.67A.49.49,0,0,1,307.11,187.76Zm74.21-1.07a.49.49,0,0,1-.29-.88q.78-.56,1.53-1.14a.48.48,0,1,1,.6.76l-1.56,1.17A.49.49,0,0,1,381.32,186.69Zm-79.58-3a.49.49,0,0,1-.32-.12c-.49-.41-1-.84-1.46-1.27a.5.5,0,0,1,0-.69.49.49,0,0,1,.69,0l1.44,1.26a.49.49,0,0,1,.06.68A.51.51,0,0,1,301.74,183.67Zm84.82-1.23a.51.51,0,0,1-.36-.15.49.49,0,0,1,0-.69c.47-.43.94-.86,1.4-1.3a.49.49,0,0,1,.69,0,.48.48,0,0,1,0,.68c-.47.45-.94.89-1.42,1.32A.52.52,0,0,1,386.56,182.44ZM296.83,179a.47.47,0,0,1-.35-.15c-.45-.47-.9-.94-1.33-1.43a.48.48,0,1,1,.72-.64c.43.47.86.94,1.31,1.4a.5.5,0,0,1,0,.69A.46.46,0,0,1,296.83,179Zm94.51-1.36a.52.52,0,0,1-.33-.12.49.49,0,0,1,0-.69l1.26-1.43a.48.48,0,0,1,.68-.06.49.49,0,0,1,.06.68c-.42.5-.85,1-1.28,1.46A.48.48,0,0,1,391.34,177.68Zm-98.92-3.76a.47.47,0,0,1-.38-.19q-.6-.76-1.17-1.56a.48.48,0,0,1,.11-.67.49.49,0,0,1,.68.1c.37.52.76,1,1.14,1.54a.48.48,0,0,1-.08.68A.47.47,0,0,1,292.42,173.92Zm103.16-1.48a.48.48,0,0,1-.39-.77q.57-.76,1.11-1.56a.49.49,0,1,1,.8.55c-.37.53-.74,1.06-1.12,1.58A.48.48,0,0,1,395.58,172.44Zm-107-4.07a.48.48,0,0,1-.41-.23c-.34-.54-.66-1.09-1-1.65a.49.49,0,0,1,.17-.67.46.46,0,0,1,.65.16l0,0c.31.54.64,1.08,1,1.62a.48.48,0,0,1-.16.66A.42.42,0,0,1,288.58,168.37Zm111.13-1.88-.45-.18-.39-.3c.32-.54.61-1.08.91-1.62a.48.48,0,0,1,.85.46C400.33,165.4,400,166,399.71,166.49Zm-.45-.18h0Zm-113.92-3.87a.5.5,0,0,1-.44-.27c-.28-.58-.55-1.17-.81-1.76a.48.48,0,1,1,.88-.4c.26.59.53,1.16.81,1.74a.5.5,0,0,1-.23.65A.52.52,0,0,1,285.34,162.44Zm117-1.66a.43.43,0,0,1-.19,0,.48.48,0,0,1-.25-.64c.26-.58.51-1.17.76-1.76a.48.48,0,0,1,.89.37c-.24.6-.5,1.19-.76,1.78A.5.5,0,0,1,402.33,160.78Zm2.43-6.3a.39.39,0,0,1-.15,0,.48.48,0,0,1-.31-.61c.2-.61.38-1.22.56-1.83a.5.5,0,0,1,.61-.33.48.48,0,0,1,.32.6c-.18.63-.37,1.24-.57,1.86A.49.49,0,0,1,404.76,154.48Zm1.75-6.51h-.1a.49.49,0,0,1-.37-.58c.13-.62.25-1.25.37-1.88a.48.48,0,1,1,.95.18c-.12.63-.24,1.27-.38,1.9A.47.47,0,0,1,406.51,148Zm1.07-6.67h-.06a.49.49,0,0,1-.43-.53c.07-.64.13-1.27.18-1.91a.47.47,0,0,1,.52-.44.48.48,0,0,1,.44.51c-.05.65-.1,1.3-.18,1.94A.47.47,0,0,1,407.58,141.3Zm.35-6.77a.46.46,0,0,1-.48-.45V134c0-.62,0-1.23,0-1.85a.49.49,0,0,1,.48-.49.46.46,0,0,1,.49.47c0,.62,0,1.24,0,1.87A.52.52,0,0,1,407.93,134.53Zm-.34-6.71a.47.47,0,0,1-.48-.43c-.07-.64-.14-1.27-.23-1.9a.49.49,0,0,1,.42-.55.48.48,0,0,1,.54.42c.09.64.17,1.29.23,1.93a.48.48,0,0,1-.43.53ZM280,123h-.08a.48.48,0,0,1-.39-.56c.11-.64.24-1.27.37-1.91a.49.49,0,0,1,.58-.37.48.48,0,0,1,.37.57c-.13.63-.26,1.25-.37,1.88A.48.48,0,0,1,280,123Zm126.54-1.8a.49.49,0,0,1-.47-.39c-.13-.62-.27-1.24-.43-1.86a.5.5,0,0,1,.36-.59.48.48,0,0,1,.58.36c.16.63.3,1.26.43,1.89a.48.48,0,0,1-.37.58Zm-125-4.77a.34.34,0,0,1-.14,0,.48.48,0,0,1-.33-.6q.27-.93.57-1.86a.49.49,0,0,1,.61-.31.48.48,0,0,1,.31.61c-.19.61-.38,1.22-.56,1.83A.47.47,0,0,1,281.56,116.39Zm123.24-1.75a.49.49,0,0,1-.46-.34c-.19-.6-.4-1.21-.61-1.81a.48.48,0,1,1,.9-.33c.23.62.43,1.23.63,1.84a.49.49,0,0,1-.31.61A.4.4,0,0,1,404.8,114.64Zm-121-4.62-.19,0a.5.5,0,0,1-.26-.64c.24-.59.5-1.19.76-1.78a.49.49,0,1,1,.89.39c-.26.59-.51,1.17-.76,1.76A.46.46,0,0,1,283.79,110Zm118.6-1.68a.49.49,0,0,1-.44-.29c-.26-.58-.53-1.16-.8-1.74a.48.48,0,0,1,.22-.65.49.49,0,0,1,.65.23q.42.89.81,1.77a.47.47,0,0,1-.24.63A.49.49,0,0,1,402.39,108.34Zm-115.72-4.42a.53.53,0,0,1-.23-.06.48.48,0,0,1-.19-.65c.3-.57.61-1.13.94-1.69l.84.48,0,0c-.3.53-.61,1.08-.91,1.64A.5.5,0,0,1,286.67,103.92Zm112.24-1.84,0-.07c-.3-.53-.62-1.06-.94-1.58a.5.5,0,0,1,.16-.67.49.49,0,0,1,.67.16c.32.53.64,1.06.95,1.61l-.38.31ZM290.18,98.15a.43.43,0,0,1-.27-.08.47.47,0,0,1-.13-.67q.54-.81,1.11-1.59a.48.48,0,0,1,.68-.1.47.47,0,0,1,.11.67c-.38.52-.74,1-1.1,1.56A.48.48,0,0,1,290.18,98.15Zm105.48-1.5a.5.5,0,0,1-.39-.2c-.37-.52-.76-1-1.15-1.54a.49.49,0,0,1,.77-.59q.6.78,1.17,1.56a.5.5,0,0,1-.11.68A.52.52,0,0,1,395.66,96.65Zm-19.9-18a.54.54,0,0,1-.25-.06c-.55-.32-1.11-.63-1.67-.93a.49.49,0,0,1-.19-.66.47.47,0,0,1,.65-.19c.57.3,1.14.62,1.7.94a.48.48,0,0,1-.24.9Zm-6-3.07a.45.45,0,0,1-.2,0c-.58-.26-1.17-.51-1.76-.75a.49.49,0,0,1,.37-.9c.6.25,1.19.5,1.78.77a.48.48,0,0,1-.19.92Zm-48.06-1.82a.48.48,0,0,1-.16-.94c.6-.22,1.22-.43,1.84-.63a.49.49,0,0,1,.61.31.48.48,0,0,1-.32.61l-1.81.62A.45.45,0,0,1,321.69,73.79Zm41.76-.6-.15,0c-.6-.2-1.21-.39-1.82-.57a.48.48,0,0,1,.27-.93c.62.18,1.24.37,1.86.58a.48.48,0,0,1,.31.6A.5.5,0,0,1,363.45,73.19Zm-35.3-1.34a.49.49,0,0,1-.47-.37.5.5,0,0,1,.36-.59l1.89-.43a.49.49,0,0,1,.58.37.5.5,0,0,1-.37.58c-.63.13-1.25.27-1.87.42Zm28.79-.42h-.1L355,71.05a.48.48,0,1,1,.18-1c.64.12,1.27.24,1.9.38a.47.47,0,0,1,.37.57A.48.48,0,0,1,356.94,71.43Zm-22.16-.84a.48.48,0,0,1-.06-1c.64-.09,1.29-.16,1.93-.23a.47.47,0,0,1,.54.43.5.5,0,0,1-.44.53c-.63.07-1.27.14-1.9.23Zm15.5-.22h0c-.63-.07-1.27-.13-1.9-.18a.48.48,0,0,1-.45-.51.5.5,0,0,1,.52-.45c.65,0,1.29.11,1.93.18a.48.48,0,0,1-.05,1ZM341.51,70a.49.49,0,0,1,0-1q1,0,1.95,0h.1a.48.48,0,0,1,.48.48.49.49,0,0,1-.48.49h-.1q-1,0-1.92,0Z"/><path class="cls-8" d="M465.13,296.86l-.1-.18c0,.07.06.14.09.22Z"/><path class="cls-9" d="M515.69,267.36a6.11,6.11,0,0,0-.9-1.66c-2-2.63-6-3.13-9.06-1.94s-5.49,3.68-7.57,6.26a75.25,75.25,0,0,0-11.08,19c2.74-2.33,4.92-4.9,7.46-7.11-.47,2.06-2,3.63-2.44,5.69,2.28-.05,3.39-2,5.07-3.1A72.42,72.42,0,0,1,515.69,267.36Z"/><path class="cls-8" d="M497.17,284.5a3.76,3.76,0,0,1,2-.64c-1,2.07-2.49,3.64-3.47,5.71,2.56-.06,5.08-2.16,7.63-2.73-1,2.58-3.5,4.17-4.46,7.27a8.66,8.66,0,0,0,2.93-1.22,91.53,91.53,0,0,0,11.26-14.59c2-3.28,3.83-7.53,2.6-10.94A72.42,72.42,0,0,0,497.17,284.5Z"/><path class="cls-10" d="M451.36,329.3c7.65-.61,15.57.9,21.37,5.4h21.69a85.61,85.61,0,0,1,17.3-3.2c.93-1,1.85-2.44,2.77-3.4-1.56-1-3.58.08-5.13-.4,1.5-1.57,3.53-2.64,5-4.72a5.06,5.06,0,0,0-1.68-.27c-8.45,2.21-17,5.55-25.56,6.65,2.8-8.3,9.63-14.81,17.47-18.73a50.16,50.16,0,0,1,7.27-2.92c.68-.5,1.37-1,2.14-1.63-2,1.58-4.07,1.11-6.13,1.15a18.48,18.48,0,0,1,5.05-3.69c-2.06-.47-3.05,1.09-5.1,1.13.46-2.57,3.52-3.15,4-5.72a20.75,20.75,0,0,0-4.53.85A82,82,0,0,0,486.87,320c-1.11,1.57-3.19,3.35-4.62,2.06-.38-11.2,9.82-19.38,17.75-27.3.62-.61,1.23-1.23,1.82-1.86a8.7,8.7,0,0,1-2.92,1.22c1-3.1,3.49-4.69,4.46-7.27-2.56.57-5.07,2.67-7.64,2.73,1-2.07,2.49-3.64,3.47-5.71-3.07.06-4,3.67-7.1,3.74.47-2.06,2-3.63,2.44-5.69-2.54,2.21-4.72,4.78-7.45,7.11a111.35,111.35,0,0,0-7.5,33.86c-.14,1.9-1.2,4.5-3,3.88a3,3,0,0,1-1.53-1.84c-3.2-7.38-4.28-15.53-7.39-22.95a44.11,44.11,0,0,0-2.53-5.11l0,0-.09-.22a45.73,45.73,0,0,0-5.11-7.09c1.12,3.48,3.13,6.94,2.72,11-2.6-1.48-4.19-4-6.8-6,1.1,3.57,3.22,6.59,3.31,10.69-2.58-.45-4.17-3-6.74-3.44a6.67,6.67,0,0,0,.28,1.21c8.1,8.08,16.05,16.28,21.73,26.14a88,88,0,0,0-18.67-8.35l.15.4a39.88,39.88,0,0,1-7.68.68c2.61,2.5,6.72,2.41,9.82,3.88-3.59.08-7.13,2.21-11.23,2.3C448.4,328.46,449.88,328.88,451.36,329.3Z"/><path class="cls-9" d="M538,324.26a2.58,2.58,0,0,0-.18-.46,4.81,4.81,0,0,0-3.18-2c-7.27-2-14.57-1-21.92.95a5.16,5.16,0,0,1,1.69.27c-1.35,1.87-3.12,2.93-4.56,4.26C519,325.72,528.56,324.33,538,324.26Z"/><path class="cls-8" d="M509.83,327.24c-.16.15-.32.3-.47.46,1.55.48,3.57-.59,5.13.4-.92,1-1.84,2.36-2.77,3.4a82.3,82.3,0,0,1,9.93-.2c5.17.2,11,.64,14.8-2.92,1.11-1.06,1.95-2.7,1.53-4.12C528.56,324.33,519,325.72,509.83,327.24Z"/><path class="cls-9" d="M441.34,281.7a5.58,5.58,0,0,0-2.65,5.49,9.36,9.36,0,0,0,2.74,4.36c3.64,3.9,7.46,7.66,11.25,11.45a7.63,7.63,0,0,1-.28-1.21c2.58.46,4.17,3,6.74,3.44-.08-4.1-2.2-7.13-3.3-10.69,2.6,2,4.2,4.52,6.79,6a8.43,8.43,0,0,0,.05-.86A96.42,96.42,0,0,0,441.34,281.7Z"/><path class="cls-8" d="M462.68,299.68c.07-3.65-1.73-6.86-2.77-10.09a45.06,45.06,0,0,0-5.3-5.13c-2.73-2.23-6-4.22-9.52-4.06a7.33,7.33,0,0,0-3.76,1.3A96.25,96.25,0,0,1,462.68,299.68Z"/><path class="cls-8" d="M512.2,303.45a3.4,3.4,0,0,1,.75.09,18.33,18.33,0,0,0-5.05,3.69c2.05,0,4.11.43,6.13-1.15-.77.6-1.47,1.13-2.15,1.63A82.66,82.66,0,0,1,530,304.43c3.12-.26,6.63-.61,8.59-3.05a5.78,5.78,0,0,0,.81-5.52A164.46,164.46,0,0,0,512.2,303.45Z"/><path class="cls-9" d="M534.16,290.39c-4.37-1.52-9.19,0-13.43,1.86a81.33,81.33,0,0,0-13.44,7.55,21,21,0,0,1,4.53-.85c-.45,2.57-3.52,3.15-4,5.72,1.79,0,2.78-1.22,4.36-1.22a164.46,164.46,0,0,1,27.19-7.59A8.76,8.76,0,0,0,534.16,290.39Z"/><path class="cls-8" d="M456.17,326a12,12,0,0,1,1.87-.21c-3.11-1.47-7.21-1.38-9.83-3.88a39,39,0,0,0,7.68-.69c0-.13-.1-.26-.14-.39-2.73-.85-5.49-1.58-8.29-2.16-3.6-.75-7.5-1.24-10.85.28-3,1.39-5.19,5-4.27,8.06A204.63,204.63,0,0,1,456.17,326Z"/><path class="cls-9" d="M456.17,326a204.63,204.63,0,0,0-23.83,1,5.32,5.32,0,0,0,.39,1c2.34,4.18,8.48,3.15,13.18,2.15a40.64,40.64,0,0,1,5.45-.79c-1.48-.42-3-.84-4.55-1.25C450.2,328,453.21,326.51,456.17,326Z"/><polygon class="cls-11" points="416.42 203.37 408.47 199.15 402.2 202.56 401.16 208.29 402.2 208.72 403.51 205.42 406.13 203.94 410.91 207.38 415.63 207.86 416.42 203.37"/><path class="cls-12" d="M315.17,178.28a5,5,0,0,0-.85,4.21l8.5,34.91h31.47Z"/><path class="cls-13" d="M396.48,217.4h-40l2.87,2.87h40A2.87,2.87,0,0,0,396.48,217.4Z"/><path class="cls-14" d="M322.82,217.4a2.86,2.86,0,0,0,2.86,2.87h33.71l-2.87-2.87Z"/><path class="cls-12" d="M403,220.27H382.66a2.86,2.86,0,0,1-2.86-2.87h20.35A2.87,2.87,0,0,1,403,220.27Z"/><path class="cls-15" d="M379.8,217.4l-9.09-37.32a5.1,5.1,0,0,0-4.95-3.89H319.27a5.05,5.05,0,0,0-4.1,2.09l39.12,39.12Z"/><path class="cls-16" d="M382.2,217.4h-57l-9-36.8a3.57,3.57,0,0,1,3.46-4.41h48.45a5.1,5.1,0,0,1,4.95,3.89Z"/><path class="cls-7" d="M321.23,177.77h46.44a4.86,4.86,0,0,1,3.75,1.73,4.54,4.54,0,0,1,1,1.93l1.46,6,1,4.27,1.53,6.3,2.07,8.54,2.61,10.74H326.56l-.24-.9-2.45-10.14-.07-.27-2-8.39-1.83-7.5-2-8.19A3.3,3.3,0,0,1,321.23,177.77Z"/><polygon class="cls-17" points="320.51 186.45 372.38 186.45 372.12 185.4 320.25 185.4 320.51 186.45"/><polygon class="cls-18" points="321.17 189.1 373.03 189.1 372.77 188.05 320.9 188.05 321.17 189.1"/><polygon class="cls-19" points="321.82 191.75 373.69 191.75 373.43 190.69 321.56 190.69 321.82 191.75"/><polygon class="cls-20" points="322.48 194.4 374.34 194.4 374.08 193.34 322.21 193.34 322.48 194.4"/><polygon class="cls-21" points="323.13 197.04 375 197.04 374.74 195.99 322.87 195.99 323.13 197.04"/><polygon class="cls-22" points="323.79 199.69 375.65 199.69 375.39 198.64 323.52 198.64 323.79 199.69"/><polygon class="cls-23" points="324.44 202.34 376.31 202.34 376.05 201.29 324.18 201.29 324.44 202.34"/><polygon class="cls-24" points="325.1 204.99 376.96 204.99 376.7 203.94 324.84 203.94 325.1 204.99"/><polygon class="cls-25" points="325.75 207.64 377.62 207.64 377.36 206.58 325.49 206.58 325.75 207.64"/><polygon class="cls-26" points="348.79 210.29 378.28 210.29 378.01 209.23 348.53 209.23 348.79 210.29"/><path class="cls-27" d="M453.48,148.23q-.12-9.67-.25-19.35a7,7,0,0,0,1.18-7.87,6.79,6.79,0,0,0-6.89-3.67,8,8,0,0,0-3.57-7.23,7.38,7.38,0,0,0-7.75.06,15.71,15.71,0,0,1-2.71,1.76c-2,.75-4.12-.26-6.09-1-2.28-.85-4.85-1.32-7.1-.43s-3.93,3.54-3.05,5.8c.48,1.21,1,3.13.27,4.21s-1.81,1.88-2.53,3-.94,2.71,0,3.56c1.14,1,3.33.45,4,1.79s-1,2.83-.64,4.27a2.42,2.42,0,0,0,2.12,1.61,24.3,24.3,0,0,0,2.83,0c2.93.06,5.49,2.07,7.19,4.44s2.74,5.16,4.12,7.73,3.24,5.07,5.92,6.23C445,152.75,449.71,150.49,453.48,148.23Z"/><path class="cls-11" d="M415.71,203.34l30.84,1.93-1.32-13.87,15.93,2L460.22,213a9.64,9.64,0,0,1-5.05,7.41h0a9.64,9.64,0,0,1-7.69.6L414,209.44Z"/><path class="cls-28" d="M449.65,163.35l6.35-2.11a9.86,9.86,0,0,1,13,9.3L468.75,195l-16,.87Z"/><path class="cls-29" d="M467,334.7a2,2,0,0,0,2.06-1.91V222.88a2.07,2.07,0,0,0-4.12,0V332.79A2,2,0,0,0,467,334.7Z"/><path class="cls-29" d="M430.63,334.7a2,2,0,0,0,2.06-1.91V222.88a2.06,2.06,0,0,0-4.11,0V332.79A2,2,0,0,0,430.63,334.7Z"/><rect class="cls-29" x="317.27" y="219.67" width="147.91" height="3.36"/><polygon class="cls-30" points="427.9 319.77 428.93 328.65 418.23 327.67 415.96 319.77 427.9 319.77"/><path class="cls-31" d="M429.87,326.85s4.28,6.42,5.85,11.47a1,1,0,0,1-1,1.42H396.15a1,1,0,0,1-1-1.18l.48-1.63a6.27,6.27,0,0,1,4.89-4.43l5.58-1.17c2.89-.6,6.23-1.56,7.53-4.05l2.43-4.76,4,2.73a6.92,6.92,0,0,0,3.52,1.25Z"/><path class="cls-32" d="M411.63,252.78a52.7,52.7,0,0,0,4.92,12,102.54,102.54,0,0,1,12.85,56.06H415.12c-5.55-20.29-11.13-39.89-19.65-59.65l0-.09a5.73,5.73,0,0,1,5.2-8.29Z"/><polygon class="cls-30" points="403.28 319.27 403.42 328.56 392.32 327.53 390.79 319.27 403.28 319.27"/><path class="cls-31" d="M404.59,326.67s3.79,6.72,4.89,12a1.19,1.19,0,0,1-1.17,1.49H368a1,1,0,0,1-.9-1.24l.67-1.7a7.56,7.56,0,0,1,5.59-4.64l6-1.22c3.09-.63,6.68-1.63,8.31-4.24l3-5,3.89,2.86a6.73,6.73,0,0,0,3.55,1.3Z"/><path class="cls-33" d="M393.38,249.21a49.84,49.84,0,0,0,3.87,12.52c8.46,18.24,10.73,39.89,7.48,58.63H389.8c-3.65-21.22-7.4-41.72-14.21-62.39l0-.09a6.63,6.63,0,0,1,6.32-8.67Z"/><path class="cls-30" d="M450.48,171.74h0a2.44,2.44,0,0,1-3.43-1.08l-8.35-17.78L453,146.15l5.69,12.11h0A16.45,16.45,0,0,1,450.48,171.74Z"/><path class="cls-30" d="M427.37,126.3l1.12,4-1-.32,1,.32.41,1.48-.41-1.48,3.46,1.14,2.74,7-.47.1.47-.1.36.93-.36-.93,1.57-.33,7,14.86-5.56,2.37a8.54,8.54,0,0,1-10-6.83l-4-21.49Z"/><path class="cls-30" d="M438.43,142h0a2.82,2.82,0,0,0,2-3.48l-.44-1.6a2.82,2.82,0,0,0-3.48-2h0a2.82,2.82,0,0,0-2,3.48L435,140A2.83,2.83,0,0,0,438.43,142Z"/><path class="cls-33" d="M473.76,244.71s3.91,23.65-16.19,26.9-73.4-6.75-73.4-6.75h-6.39s-5.6-14.51,5.62-17.52,47.29-4,47.29-4l2.76-5.25Z"/><path class="cls-34" d="M433.57,194.78l-10.34-6.7,6.93-18.51a12.11,12.11,0,0,1,1.43-3.73l.39-.64c6.53-10.48,20.63-14.34,30.28-11.23,7.88,2.54,11.84,10,14.23,20,5.66,23.64,4.37,51.67-1.11,73.14a64.88,64.88,0,0,1-44.52-7.83C433.2,226,434.65,209.86,433.57,194.78Z"/><path class="cls-30" d="M387.25,209.76l29-3,7-18.63,14.57,9.45-10.55,16.54a9.65,9.65,0,0,1-7.78,4.45h0c-2.68.1-33-4.28-33-4.28Z"/><path class="cls-29" d="M458.23,226.88H492.3a9.51,9.51,0,0,0,9.52-9.51V205.53A9.51,9.51,0,0,0,492.3,196H458.23a9.51,9.51,0,0,0-9.52,9.51v11.84A9.51,9.51,0,0,0,458.23,226.88Z"/><path class="cls-29" d="M426.81,280.07H485a6.93,6.93,0,0,0,6.93-6.94h0A6.93,6.93,0,0,0,485,266.2H426.81a6.93,6.93,0,0,0-6.94,6.93h0A6.94,6.94,0,0,0,426.81,280.07Z"/><path class="cls-29" d="M476.36,270.71a57.9,57.9,0,0,0,9.82-55c-1.47-4.36,5.43-6.23,6.89-1.89a65.14,65.14,0,0,1-11.67,61.94C478.49,279.31,473.46,274.23,476.36,270.71Z"/><path class="cls-29" d="M460.8,273.75V334c0,4.59-7.14,4.6-7.14,0V273.75C453.67,269.16,460.8,269.15,460.8,273.75Z"/><path class="cls-29" d="M438.59,332.6h36.8c4.6,0,4.61,7.14,0,7.14h-36.8C434,339.74,434,332.6,438.59,332.6Z"/><path class="cls-29" d="M359.92,343.84a2.06,2.06,0,0,0,2.06-2.06V223a2.06,2.06,0,0,0-4.12,0V341.78A2.06,2.06,0,0,0,359.92,343.84Z"/><path class="cls-29" d="M323.52,343.84a2.06,2.06,0,0,0,2.06-2.06V223a2.06,2.06,0,1,0-4.12,0V341.78A2.06,2.06,0,0,0,323.52,343.84Z"/><polygon class="cls-11" points="408.96 205.97 405.44 207.85 412.14 207.15 408.96 205.97"/><path class="cls-30" d="M387.25,209.76l-7.94-4.22-5.69,4.22L372,214.68l.33-.09a2,2,0,0,0,1.41-1.24l.61-1.55,2.62-1.48,4.78,3.45,4.72.47Z"/><path class="cls-30" d="M375.82,209l1.16-.85,1.45,1.84L376.55,211l-.62,1.55a2.09,2.09,0,0,1-1.41,1.24l-.33.09Z"/><path class="cls-30" d="M377.94,208.69l1.15-.85,1.45,1.84-1.88,1.06-.61,1.54a2.08,2.08,0,0,1-1.41,1.25l-.33.09Z"/><path class="cls-8" d="M272.55,309.7a1.74,1.74,0,0,0-.11-.18c0,.08.07.15.1.22S272.55,309.72,272.55,309.7Z"/><path class="cls-9" d="M323.11,280.2a6.11,6.11,0,0,0-.9-1.66c-2-2.63-6-3.13-9.06-1.94s-5.49,3.69-7.58,6.27a75.46,75.46,0,0,0-11.07,19c2.74-2.33,4.92-4.89,7.46-7.11-.47,2.06-2,3.63-2.44,5.69,2.28-.05,3.39-2,5.06-3.1A72.46,72.46,0,0,1,323.11,280.2Z"/><path class="cls-8" d="M304.58,297.34a3.91,3.91,0,0,1,2-.64c-1,2.07-2.49,3.64-3.47,5.71,2.56-.06,5.08-2.16,7.63-2.73-1,2.59-3.5,4.18-4.46,7.27a8.16,8.16,0,0,0,2.92-1.22,91.38,91.38,0,0,0,11.27-14.58c2-3.28,3.83-7.53,2.6-10.94A72.25,72.25,0,0,0,304.58,297.34Z"/><path class="cls-10" d="M258.78,342.14c7.65-.6,15.57.9,21.37,5.4h21.69a85.49,85.49,0,0,1,17.3-3.2c.93-1,1.85-2.43,2.77-3.4-1.56-1-3.58.08-5.13-.4,1.5-1.57,3.53-2.64,5-4.72a5.08,5.08,0,0,0-1.69-.27c-8.44,2.21-16.95,5.55-25.55,6.65,2.8-8.29,9.63-14.81,17.47-18.73a49,49,0,0,1,7.27-2.91c.68-.51,1.37-1,2.14-1.64-2,1.58-4.08,1.11-6.13,1.16a18.51,18.51,0,0,1,5.05-3.7c-2.06-.47-3.05,1.09-5.1,1.14.46-2.58,3.52-3.16,4-5.73a20.75,20.75,0,0,0-4.53.85,82,82,0,0,0-20.42,20.19c-1.1,1.57-3.19,3.35-4.62,2.06-.38-11.19,9.82-19.38,17.75-27.3.62-.61,1.23-1.23,1.82-1.86a8.5,8.5,0,0,1-2.92,1.22c1-3.09,3.49-4.69,4.46-7.27-2.56.57-5.07,2.67-7.64,2.73,1-2.07,2.49-3.64,3.47-5.71-3.07.06-4,3.67-7.1,3.74.47-2.06,2-3.63,2.44-5.69-2.54,2.21-4.72,4.78-7.45,7.11a111.35,111.35,0,0,0-7.5,33.86c-.14,1.9-1.2,4.5-3,3.88a3,3,0,0,1-1.53-1.84c-3.2-7.39-4.28-15.54-7.39-22.95a44.11,44.11,0,0,0-2.53-5.11l0,0-.09-.22a45.73,45.73,0,0,0-5.11-7.09c1.12,3.48,3.13,6.94,2.71,10.95-2.59-1.48-4.18-4-6.79-6,1.1,3.56,3.22,6.59,3.31,10.69-2.58-.46-4.17-3-6.74-3.44a6.67,6.67,0,0,0,.28,1.21c8.1,8.08,16,16.28,21.73,26.14a87.54,87.54,0,0,0-18.67-8.35c0,.13.1.26.14.4a39.71,39.71,0,0,1-7.67.68c2.61,2.5,6.71,2.41,9.82,3.88-3.59.08-7.13,2.21-11.23,2.3C255.81,341.3,257.3,341.72,258.78,342.14Z"/><path class="cls-9" d="M345.4,337.1a2.92,2.92,0,0,0-.18-.46,4.83,4.83,0,0,0-3.19-2c-7.26-2-14.56-1-21.91.95a5.06,5.06,0,0,1,1.68.27c-1.34,1.87-3.11,2.93-4.55,4.26C326.43,338.56,336,337.17,345.4,337.1Z"/><path class="cls-8" d="M317.25,340.08c-.16.15-.32.3-.47.46,1.55.48,3.57-.59,5.13.4-.93,1-1.84,2.36-2.77,3.4a84.36,84.36,0,0,1,9.93-.2c5.17.2,11,.64,14.79-2.92,1.12-1.06,2-2.7,1.54-4.12C336,337.17,326.43,338.56,317.25,340.08Z"/><path class="cls-9" d="M248.76,294.54a5.56,5.56,0,0,0-2.65,5.49,9.44,9.44,0,0,0,2.74,4.37c3.64,3.89,7.46,7.65,11.25,11.44a7.63,7.63,0,0,1-.28-1.21c2.58.46,4.17,3,6.74,3.44-.08-4.1-2.2-7.12-3.3-10.69,2.6,2,4.2,4.52,6.79,6a8.27,8.27,0,0,0,.05-.86A96.42,96.42,0,0,0,248.76,294.54Z"/><path class="cls-8" d="M270.1,312.52c.07-3.64-1.73-6.86-2.77-10.09a45.06,45.06,0,0,0-5.3-5.13c-2.74-2.23-6-4.22-9.52-4.06a7.33,7.33,0,0,0-3.76,1.3A96.25,96.25,0,0,1,270.1,312.52Z"/><path class="cls-8" d="M319.62,316.29a3.32,3.32,0,0,1,.74.09,18.46,18.46,0,0,0-5,3.7c2.05-.05,4.1.42,6.12-1.16-.77.6-1.46,1.13-2.14,1.64a82.68,82.68,0,0,1,18.1-3.28c3.12-.26,6.64-.61,8.6-3.06a5.75,5.75,0,0,0,.8-5.52A165.61,165.61,0,0,0,319.62,316.29Z"/><path class="cls-9" d="M341.58,303.23c-4.37-1.52-9.19,0-13.43,1.86a81.33,81.33,0,0,0-13.44,7.55,21,21,0,0,1,4.53-.85c-.46,2.57-3.52,3.15-4,5.73,1.79,0,2.77-1.23,4.36-1.23a165.44,165.44,0,0,1,27.19-7.59A8.83,8.83,0,0,0,341.58,303.23Z"/><path class="cls-8" d="M263.59,338.8a13.38,13.38,0,0,1,1.87-.21c-3.11-1.47-7.21-1.38-9.83-3.88a39,39,0,0,0,7.68-.68c0-.14-.1-.27-.15-.4-2.72-.85-5.48-1.58-8.28-2.16-3.6-.75-7.5-1.24-10.85.29-3,1.38-5.19,5-4.27,8.05A204.54,204.54,0,0,1,263.59,338.8Z"/><path class="cls-9" d="M263.59,338.8a204.9,204.9,0,0,0-23.84,1,5.09,5.09,0,0,0,.4,1c2.34,4.18,8.48,3.15,13.17,2.15a42.73,42.73,0,0,1,5.46-.79c-1.48-.42-3-.84-4.56-1.25C257.62,340.81,260.63,339.35,263.59,338.8Z"/><path class="cls-7" d="M308.2,67.92h-4.85a.55.55,0,0,0,0,1.1h4.85a.55.55,0,0,0,0-1.1Z"/><path class="cls-7" d="M311.6,67.92h-.49a.56.56,0,0,0,0,1.1h.49a.56.56,0,0,0,0-1.1Z"/><path class="cls-7" d="M306.38,94.34h-1.21a1.44,1.44,0,0,0-1.34,1.52v.26a1.44,1.44,0,0,0,1.34,1.52h1.21a1.44,1.44,0,0,0,1.34-1.52v-.26A1.45,1.45,0,0,0,306.38,94.34Zm.36,1.78a.39.39,0,0,1-.36.42h-1.21a.4.4,0,0,1-.37-.42v-.27a.4.4,0,0,1,.37-.41h1.21a.38.38,0,0,1,.36.41Z"/><path class="cls-7" d="M312.27,66.27h-13a1.89,1.89,0,0,0-1.76,2v29a1.89,1.89,0,0,0,1.76,2h13a1.88,1.88,0,0,0,1.75-2v-29A1.88,1.88,0,0,0,312.27,66.27Zm.78,31a.84.84,0,0,1-.78.89h-13a.84.84,0,0,1-.79-.89v-29a.85.85,0,0,1,.79-.89h13a.84.84,0,0,1,.78.89v29Z"/><path class="cls-7" d="M313.54,69.57H298a.53.53,0,0,0-.49.55V93.24a.53.53,0,0,0,.49.55h15.53a.52.52,0,0,0,.48-.55V70.12A.52.52,0,0,0,313.54,69.57Zm-.49,23.12H298.49v-22h14.56Z"/><path class="cls-7" d="M384.69,88.13a.5.5,0,1,1-.71,0A.5.5,0,0,1,384.69,88.13Z"/><path class="cls-7" d="M371.36,91.14l1.4,1.41c2.16,2.16,5.21,2,8.08,1a25.67,25.67,0,0,0,8.9-6,25.63,25.63,0,0,0,5.93-8.66c1.23-3.28.94-6-.84-7.74l-1.49-1.49h0l-.42-.42a2.52,2.52,0,0,0-3.9.42l-2.77,3.84,0,0a2.5,2.5,0,0,0,.35,3.14l2.09,2.09a.53.53,0,0,1,.11.55.23.23,0,0,0,0,.11,10.71,10.71,0,0,1-1.57,2.79,13.68,13.68,0,0,1-5.76,4.36.5.5,0,0,1-.55-.1l-2.09-2.09a2.5,2.5,0,0,0-3.14-.35l-.06,0-3.83,3.26A2.52,2.52,0,0,0,371.36,91.14Zm6.7-6.13.64.64-6.53,4.88-.1-.1a1.52,1.52,0,0,1,.26-2.35l.06,0,3.82-3.25A1.48,1.48,0,0,1,378.06,85Zm14.15-15.13.12.12-4.42,6.5-.62-.62a1.5,1.5,0,0,1-.21-1.87l2.76-3.84,0,0A1.52,1.52,0,0,1,392.21,69.88Zm-18.73,22-.59-.59,6.53-4.88.73.73a1.51,1.51,0,0,0,1.65.32,14.69,14.69,0,0,0,6.29-4.84,11.11,11.11,0,0,0,1.63-3,1.49,1.49,0,0,0-.34-1.6l-.75-.75,4.42-6.49,1.07,1.07c1.87,1.86,1.36,4.66.61,6.67a24.63,24.63,0,0,1-5.71,8.3,24.65,24.65,0,0,1-8.53,5.81C378.4,93.35,375.48,93.84,373.48,91.84Z"/><path class="cls-7" d="M385.64,86.92c.53-.47,1.45-1.27,1.94-1.77a32.75,32.75,0,0,0,3.18-3.78.51.51,0,0,1,.83.58,33.87,33.87,0,0,1-3.29,3.9c-.51.53-1.44,1.34-2,1.83a.5.5,0,0,1-.66-.76Z"/><path class="cls-7" d="M295.55,126.21h-22a.5.5,0,0,0,0,1h22a2.19,2.19,0,0,1,2.18,2.18V147a2.19,2.19,0,0,1-2.18,2.19h-27a2.19,2.19,0,0,1-2.19-2.19V129.38a2.19,2.19,0,0,1,2.19-2.18h3.07a.5.5,0,0,0,0-1h-3.07a3.17,3.17,0,0,0-3.18,3.17V147a3.18,3.18,0,0,0,3.18,3.18h8l-1,3.17h-1.82a1.69,1.69,0,0,0,0,3.38h16.68a1.69,1.69,0,0,0,0-3.38h-1.83l-1-3.17h8a3.18,3.18,0,0,0,3.17-3.18V129.38A3.17,3.17,0,0,0,295.55,126.21Zm-4.49,28.86a.7.7,0,0,1-.7.69H273.69a.7.7,0,0,1-.7-.69.71.71,0,0,1,.7-.7h16.67A.7.7,0,0,1,291.06,155.07Zm-3.56-1.69H276.55l1-3.17h9Z"/><path class="cls-7" d="M295.58,142.35a.49.49,0,0,0,.5-.49V129.38a.53.53,0,0,0-.53-.53h-27a.54.54,0,0,0-.54.53v16.17a.5.5,0,0,0,.5.49h27.11a.49.49,0,0,0,.5-.49v-1.71a.5.5,0,1,0-1,0v1.21H269V129.84h26.12v12A.49.49,0,0,0,295.58,142.35Z"/><path class="cls-7" d="M282.44,147.27a.49.49,0,0,0-.51-.21.49.49,0,1,0,.51.21Z"/></g></g></svg>