<?xml version="1.0" encoding="utf-8"?>
<!-- Generator: Adobe Illustrator 24.0.2, SVG Export Plug-In . SVG Version: 6.00 Build 0)  -->
<svg version="1.1" id="Layer" xmlns="http://www.w3.org/2000/svg" xmlns:xlink="http://www.w3.org/1999/xlink" x="0px" y="0px"
	 viewBox="0 0 512 512" style="enable-background:new 0 0 512 512;" xml:space="preserve">
<style type="text/css">
	.st0{fill:#8CDDCC;}
	.st1{fill:#590BB2;}
</style>
<circle class="st0" cx="256" cy="256" r="176"/>
<g>
	<path class="st1" d="M220.8,331.5c3.1,3,7.1,4.5,11.2,4.5c4.2,0,8.3-1.6,11.5-4.8l51.1-52.5c6.1-6,9.5-14.1,9.5-22.7
		c0-8.6-3.4-16.7-9.3-22.5l-51.3-52.6c-6.2-6.3-16.3-6.5-22.6-0.3c-6.3,6.2-6.5,16.3-0.3,22.6l51.3,53l-51.3,52.7
		C214.4,315.2,214.5,325.3,220.8,331.5L220.8,331.5z"/>
	<path class="st1" d="M81.7,296c0.8,0,1.5-0.1,2.3-0.2c8.7-1.2,14.8-9.4,13.6-18.1c-1-7-1.5-14.4-1.5-21.7s0.5-14.7,1.5-21.7
		c1.2-8.8-4.8-16.9-13.6-18.1c-8.8-1.2-16.9,4.8-18.1,13.6c-1.2,8.5-1.8,17.4-1.8,26.3s0.6,17.7,1.8,26.3
		C67,290.2,73.8,296,81.7,296z"/>
	<path class="st1" d="M256,64c-72.5,0-138,40.1-171,104.7c-4,7.9-0.9,17.5,7,21.5c7.9,4,17.5,0.9,21.5-7C141,129.4,195.6,96,256,96
		c88.2,0,160,71.8,160,160s-71.8,160-160,160c-60.4,0-115-33.4-142.6-87.3c-4-7.9-13.7-11-21.5-7c-7.9,4-11,13.7-7,21.5
		C118,407.9,183.5,448,256,448c105.9,0,192-86.1,192-192S361.9,64,256,64L256,64z"/>
</g>
</svg>
