<?xml version="1.0" encoding="utf-8"?>
<!-- Generator: Adobe Illustrator 24.0.1, SVG Export Plug-In . SVG Version: 6.00 Build 0)  -->
<svg version="1.1" id="Capa_1" xmlns="http://www.w3.org/2000/svg" xmlns:xlink="http://www.w3.org/1999/xlink" x="0px" y="0px"
	 viewBox="0 0 810 489" style="enable-background:new 0 0 810 489;" xml:space="preserve">
<style type="text/css">
	.st0{opacity:0.34;}
	.st1{fill:#DFD5EB;}
	.st2{opacity:0.34;fill:#DFD5EB;}
	.st3{fill:none;stroke:#A092C6;stroke-width:2.5783;stroke-linecap:round;stroke-miterlimit:10;}
	.st4{fill:none;stroke:#A092C6;stroke-width:2.5783;stroke-linecap:round;stroke-miterlimit:10;stroke-dasharray:10.1308,10.1308;}
	.st5{fill:none;stroke:#32B196;stroke-width:11.643;stroke-linecap:round;stroke-linejoin:round;stroke-miterlimit:10;}
	.st6{fill:#5F2811;}
	.st7{opacity:0.43;fill:#5F2811;}
	.st8{fill:#EDA3A3;}
	.st9{opacity:0.47;fill:#F0817A;}
	.st10{fill:#48B9B6;}
	.st11{fill:#65270F;}
	.st12{fill:#863B15;}
	.st13{fill:#BF2685;}
	.st14{fill:#FFFFFF;}
	.st15{fill:#412B7F;}
	.st16{opacity:0.36;fill:#412B7F;}
	.st17{fill:#241F47;}
	.st18{fill:#60BCA6;}
	.st19{fill:#159E84;}
	.st20{fill:#B79FCC;}
	.st21{fill:#EEE9F5;}
	.st22{fill:#DAC9E4;}
	.st23{fill:#4E368B;}
	.st24{fill:#8F599F;}
	.st25{fill:#32B196;}
	.st26{fill:#CFE1E9;}
	.st27{fill:#5C3289;}
	.st28{fill:#472680;}
	.st29{fill:#E8514E;}
	.st30{fill-rule:evenodd;clip-rule:evenodd;fill:#A092C6;}
	.st31{fill-rule:evenodd;clip-rule:evenodd;fill:#FFFFFF;}
	.st32{fill-rule:evenodd;clip-rule:evenodd;fill:#32B196;}
	.st33{fill-rule:evenodd;clip-rule:evenodd;fill:#E8514E;}
	.st34{fill-rule:evenodd;clip-rule:evenodd;fill:#8F599F;}
	.st35{fill-rule:evenodd;clip-rule:evenodd;fill:#F5ED80;}
	.st36{fill:#6158A1;}
	.st37{fill:#88CBCA;}
	.st38{fill:#A092C6;}
	.st39{opacity:0.5;fill:#CAC9E6;}
</style>
<g>
	<g>
		<g>
			<g class="st0">
				<path class="st1" d="M50.4,443c-21.1-21.4-30.6-53.5-24.7-82.9c5.9-29.4,27.2-55.3,54.9-66.8c12-5,25-7.4,36.7-12.9
					c41.1-19.2,56.3-68.2,79.6-107.1c33.7-56.6,93.6-98.2,159.2-104.5c65.6-6.4,134.7,25.1,168.6,81.6
					c18.3,30.5,26.4,66.8,48.4,94.7c15.4,19.6,37.3,34,61.3,40.5c21.1,5.7,43.5,5.4,64.9,10.1c33.1,7.3,64.3,28.5,77.4,59.8
					c13.1,31.2,3.9,72.1-24.8,90L50.4,443z"/>
			</g>
			<g class="st0">
				<path class="st1" d="M112.7,443.2c-16-16.2-23.2-40.6-18.7-63c4.5-22.3,20.7-42,41.7-50.8c9.1-3.8,19-5.6,27.9-9.8
					c31.2-14.6,42.8-51.8,60.4-81.4c25.6-43,71.1-74.6,120.9-79.4c49.8-4.8,102.3,19.1,128,62c13.9,23.2,20.1,50.7,36.8,71.9
					c11.7,14.9,28.3,25.8,46.6,30.7c16.1,4.3,33,4.1,49.3,7.7c25.1,5.6,48.8,21.7,58.8,45.4c9.9,23.7,3,54.8-18.9,68.4L112.7,443.2z
					"/>
			</g>
		</g>
		<g>
			<path class="st2" d="M683,243c3.8,6,2.4,13.7-3.3,17.4c-5.7,3.6-13.4,1.8-17.2-4.2c-3.8-6-2.4-13.7,3.3-17.4
				C671.4,235.2,679.1,237.1,683,243z"/>
			<path class="st2" d="M641.8,257.3c1.9,3,1.1,6.9-1.9,8.9c-3,1.9-6.9,1.1-8.9-1.9c-1.9-3-1.1-6.9,1.9-8.9
				C635.9,253.4,639.9,254.3,641.8,257.3z"/>
		</g>
		<g>
			<path class="st2" d="M109.6,237.4c0,7.1-5.5,12.8-12.2,12.8c-6.7,0-12.2-5.7-12.2-12.8c0-7.1,5.5-12.8,12.2-12.8
				C104.1,224.6,109.6,230.3,109.6,237.4z"/>
			<path class="st2" d="M117.9,205.3c0,3.5-2.9,6.4-6.4,6.4c-3.5,0-6.4-2.9-6.4-6.4c0-3.5,2.9-6.4,6.4-6.4
				C115,198.9,117.9,201.8,117.9,205.3z"/>
			<path class="st2" d="M132,229.7c0,3.5-2.9,6.4-6.4,6.4c-3.5,0-6.4-2.9-6.4-6.4c0-3.5,2.9-6.4,6.4-6.4
				C129.1,223.3,132,226.2,132,229.7z"/>
		</g>
		<g>
			<g>
				<g>
					<path class="st3" d="M448.7,111.4c-1.3,1.1-2.6,2.3-3.9,3.4"/>
					<path class="st4" d="M437,121.2c-33.4,26.4-72.4,45.6-113.7,55.9c-6.8,1.7-13.9,3.2-20.8,1.8c-6.9-1.4-13.5-6.2-14.9-13.1
						c-1.9-9.4,6.3-17.7,14.6-22.4c6.8-3.8,15.1-6.4,22.1-3.2c6.2,2.8,9.8,9.6,10.9,16.3c2.1,12.5-2.7,25.2-9.4,36
						c-6.7,10.8-15.3,20.2-22,31c-16,25.6-20.3,58.1-11.6,87c7,23.4,23.4,44.6,45.4,54.6"/>
					<path class="st3" d="M342.3,367c1.6,0.6,3.2,1.1,4.9,1.6"/>
				</g>
			</g>
		</g>
		<line class="st5" x1="194" y1="444" x2="596.8" y2="444"/>
		<g>
			<g>
				<path class="st6" d="M464.6,249.3c-7.2-2.6-11.6-17.5-18.4-49.1c-6.7-31.1-37.2-26.9-38.1-26.8c-1-0.1-31.5-4.3-38.1,26.8
					c-6.8,31.6-11.1,46.5-18.4,49.1c-7.2,2.6-15.5,22.4,7.3,36c10.4,6.2,29.6,10,48.5,10v0c0.3,0,0.5,0,0.8,0c0.3,0,0.5,0,0.8,0v0
					c18.8-0.1,38-3.8,48.5-10C480,271.7,471.8,251.9,464.6,249.3z"/>
				<path class="st7" d="M437.1,249.2c-13.1-19.5-10.5-42.4-11.2-64.7c-8.7-4.1-20.1-3.1-29.4-2.4c1.5,10,1.8,20.3,1,30.4
					c-1,13.5-4.1,28.6-13.1,39.1c-5.3,6.3-12.7,8.8-19.9,12.3c-5.3,2.6-9.3,7.3-12.1,12.5c-0.5,1-1,2-1.4,2.9c2,2,4.6,4,7.7,5.9
					c10.4,6.2,29.6,10,48.5,10v0c0.3,0,0.5,0,0.8,0c0.3,0,0.5,0,0.8,0v0c18.7-0.1,37.7-3.7,48.2-9.9c0.4-3.6-0.2-7.4-2.1-11.6
					C450.7,264.4,442.8,257.6,437.1,249.2z"/>
			</g>
			<path class="st8" d="M393.9,249.9c0,0,0.1,17.9-3.4,20.6c0,0,6.6,19.6,20.5,18.9c0,0,12.2-11,13.5-15.6c0,0-1.1-21.6-0.9-26.2
				C423.6,247.6,397.8,240.9,393.9,249.9z"/>
			<path class="st9" d="M393.4,260.2c5.9,4.4,12.6,6.8,20.4,4.7c3.7-1,7.1-2.8,10.2-5c-0.2-5.2-0.4-10.4-0.3-12.3
				c0,0-25.8-6.6-29.7,2.3C393.9,249.9,393.9,255,393.4,260.2z"/>
			<path class="st10" d="M456.1,282.2c-0.6-2.4-26.1-10.9-31.5-12.6c-2.4,6.8-12.6,16.7-16.8,15.9c-5.5-1-14.2-13.3-17.7-17.5
				l-0.3,0c0,0-33.8,10.8-34.4,13.5c-0.7,2.7,18.9,56.7,17.6,70.9c-1.4,14.2-11.5,26.3-9.5,33.1c0,0,16.7,2.5,32.4,3.5l-0.1,0.6
				c16.2,2,52-3.4,52-3.4c2-6.8-8.1-18.9-9.5-33.1C437.2,338.9,456.8,284.9,456.1,282.2z"/>
			<path class="st10" d="M448,310.2c-7,5.7-15.2,10.1-23,13.1c-14.3,5.5-33.9,4.5-47.3-3.2c-6.3-3.7-11.3-8.8-15.4-14.6
				c5.3,17.2,11.5,38.8,10.7,47.1c-1.4,14.2-11.5,26.3-9.5,33.1c0,0,16.7,2.5,32.4,3.5l-0.1,0.6c16.2,2,52-3.4,52-3.4
				c2-6.8-8.1-18.9-9.5-33.1C437.8,345.5,443.1,326.6,448,310.2z"/>
			<path class="st10" d="M356.8,280.3c0,0-50.7,62.2-43.8,75.3c6.9,13.1,43.8,31.9,53.1,31.9l13.1-9.4c0,0-35-28.8-33.8-34.4
				c1.3-5.6,28.8-36.9,28.8-36.9S366.8,273.7,356.8,280.3z"/>
			<path class="st10" d="M345.5,343.8c1.1-5,22.6-29.8,27.7-35.6c-14.4,7.2-26.7,19-33.4,33.8c-5.3,11.6-5.7,23.4-1.9,34.2
				c11.5,6.5,23.5,11.5,28.3,11.5l13.1-9.4C379.2,378.1,344.2,349.4,345.5,343.8z"/>
			<path class="st10" d="M457.1,282.2c0,0,50.7,62.2,43.8,75.3c-6.9,13.1-43.8,31.9-53.1,31.9l-13.1-9.4c0,0,35-28.7,33.8-34.4
				c-1.3-5.6-28.8-36.9-28.8-36.9S447.1,275.6,457.1,282.2z"/>
			<path class="st10" d="M491.5,362.3c-8.4-14.9-18.8-27.8-32.6-37.9c-4.9-3.6-9.7-7.4-14.5-11.1c-0.8-0.6-1.6-1.2-2.4-1.8
				c6.7,7.7,25.4,29.6,26.4,34.2c1.3,5.6-33.8,34.4-33.8,34.4l13.1,9.4c7.7,0,34-12.7,46.9-24.5
				C493.4,364.5,492.3,363.6,491.5,362.3z"/>
			<path class="st8" d="M438.7,208.3l-0.1-0.1c-1.1-15.5-14.6-27.8-31-27.8c-17.2,0-31.1,13.4-31.1,29.9c0,2.4,0.3,4.8,0.9,7.1
				c1.4,12.4,7.3,38.2,32.9,43.1C410.2,260.5,441.2,255.6,438.7,208.3z"/>
			<path class="st6" d="M390.9,195.6c0,0,22.9,14.2,38.3,15.8c15.4,1.7,8.3,11.7,9.2,12.9c0.8,1.3,8.7-17.9-3.7-36.7
				c-12.5-18.8-39.6-12.9-50.4,0C384.2,187.7,387.2,192.7,390.9,195.6z"/>
			<path class="st6" d="M393.8,195.2c0,0-18.3,11.2-15.8,34.6c0,0-15.4-30,9.6-45.8C387.6,184,400.5,185.2,393.8,195.2z"/>
			<path class="st8" d="M382.1,228.3c1.6,4.2,1.1,8.3-1.2,9.2c-2.3,0.9-5.5-1.8-7.1-6c-1.6-4.2-1.1-8.3,1.2-9.2
				C377.3,221.5,380.5,224.2,382.1,228.3z"/>
			<path class="st8" d="M445.3,230.7c-1.1,4.4-4,7.4-6.3,6.8c-2.4-0.6-3.4-4.6-2.3-9c1.1-4.4,3.9-7.4,6.3-6.8
				C445.4,222.3,446.4,226.3,445.3,230.7z"/>
			<path class="st11" d="M400.8,228.3c0,0-6.7,4.5-13.1-3.2h-2.3l2.3,1C387.7,226.1,394.6,235.3,400.8,228.3z"/>
			<path class="st6" d="M402.3,222.1c0,0-4.9-5.6-16.1-2.4c0,0,10.4-0.6,13.9,2.4C400.1,222.2,402.2,224,402.3,222.1z"/>
			<path class="st11" d="M417.5,229c0,0,6.7,4.5,13.1-3.2h2.3l-2.3,1C430.6,226.9,423.7,236,417.5,229z"/>
			<path class="st6" d="M416.1,222.9c0,0,4.9-5.6,16.1-2.4c0,0-10.4-0.6-13.9,2.4C418.3,222.9,416.1,224.7,416.1,222.9z"/>
			<g>
				<path class="st12" d="M406.8,237.4c0,0,3.4,3.6,5.5,0.4C412.3,237.8,410.1,242.1,406.8,237.4z"/>
				<path class="st12" d="M405.2,236.2c0,0-1.7,1.8,0.6,2.8C405.8,239,404.8,237.7,405.2,236.2z"/>
				<path class="st12" d="M414,236.3c0,0,1.7,1.8-0.6,2.8C413.4,239.1,414.4,237.8,414,236.3z"/>
			</g>
			<path class="st6" d="M392.4,196c0,0-14.9,23.6-7.9,40.8c0,0-1.4,3.2-2.5,1.7c-1.1-1.5-7.1-16.7-6-24.8
				C377.2,205.5,385.4,192.4,392.4,196z"/>
			<path class="st6" d="M435.7,212.8c0,0,0.6,23.5-1.3,30.8c0,0,0.8,1.8,2.2,0.6c1.4-1.3,5.5-25.4,4.2-30
				C439.5,209.6,436.8,210.9,435.7,212.8z"/>
			<path class="st10" d="M389.6,268.9c0,0,8.7,15.3,19,19.2c0,0,13.5-7.3,17.7-18.3c0,0,2.4-0.5,2.2,1.1
				c-0.2,1.5-8.3,16.4-19.9,20.3c0,0-9.6-2-22.7-21.9C385.9,269.3,388.7,267.3,389.6,268.9z"/>
			<path class="st13" d="M403.9,245c0,0,0.4,0.8,2.9-0.3c2.4-1,5.1-1.5,8.2,0.8c0,0,1,0.4,1.8-0.3c0,0-0.5,5-6.2,5.5
				C404.9,251.1,403.9,245,403.9,245z"/>
			<path class="st14" d="M407.1,246.2c0,0,5,0.4,6.6,0.1c0,0-0.2,2.2-3.3,2.1C407.2,248.3,407.1,246.2,407.1,246.2z"/>
			<path class="st15" d="M424.3,213.3c-6.1,0-11,5.1-11,11.3c0,0.4,0,0.8,0.1,1.2c-3-2.7-6.7-0.8-7.8-0.2c0-0.3,0.1-0.7,0.1-1.1
				c0-6.3-4.9-11.3-11-11.3c-6.1,0-11.1,5.1-11.1,11.3c0,6.3,4.9,11.3,11.1,11.3c5.4,0,9.9-4,10.8-9.2c4-2.5,7.1-0.8,8.1-0.2
				c0.9,5.3,5.4,9.4,10.9,9.4c6.1,0,11.1-5.1,11.1-11.3C435.3,218.3,430.4,213.3,424.3,213.3z M394.5,235.2
				c-5.7,0-10.3-4.7-10.3-10.6c0-5.8,4.6-10.6,10.3-10.6c5.7,0,10.3,4.7,10.3,10.6C404.8,230.4,400.2,235.2,394.5,235.2z
				 M424.3,235.2c-5.7,0-10.3-4.7-10.3-10.6c0-5.8,4.6-10.6,10.3-10.6c5.7,0,10.3,4.7,10.3,10.6
				C434.5,230.4,429.9,235.2,424.3,235.2z"/>
		</g>
		<g>
			<g>
				<g>
					<path class="st15" d="M480.1,435H333.2V348c0-2.7,2.2-4.9,4.9-4.9h137c2.7,0,4.9,2.2,4.9,4.9V435z"/>
					<path class="st16" d="M466.5,343.1c-2.3,24.5-11.6,48-31.8,63.7c-15.2,11.8-34,16.9-53.1,16.6c-16.3-0.3-32.3-3.5-48.5-5.4V435
						h146.9v-83.4c0-4.7-3.8-8.4-8.4-8.4H466.5z"/>
					<path class="st1" d="M410.7,389.1c0,3.3-2.5,6-5.6,6c-3.1,0-5.6-2.7-5.6-6c0-3.3,2.5-6,5.6-6
						C408.2,383.1,410.7,385.8,410.7,389.1z"/>
				</g>
				<path class="st17" d="M480.7,441.3H332.9c-2.7,0-3.3-1.6-3.3-3.5l0,0c0-1.9,0.6-3.5,3.3-3.5h147.7c2.7,0,3.3,1.6,3.3,3.5l0,0
					C484,439.8,483.4,441.3,480.7,441.3z"/>
			</g>
		</g>
	</g>
	<g>
		<path class="st18" d="M468.2,56.6c-8.6,0.1-15.6,7.4-15.4,16c0.1,3.5,1.3,6.8,3.4,9.4c3.1,3.9,4.9,8.6,5.1,13.5h14.2
			c0.2-4.9,2.1-9.6,5.1-13.5c2.1-2.7,3.4-6.1,3.4-9.7C484,63.5,476.9,56.5,468.2,56.6z"/>
		<g>
			<path class="st19" d="M465.6,96.6c-0.6,0-1.1-0.5-1.1-1.1V85l-1.3-1.3c-0.4-0.4-0.4-1.1,0-1.5c0.4-0.4,1.1-0.4,1.5,0l1.6,1.6
				c0.2,0.2,0.3,0.5,0.3,0.8v10.9C466.7,96.1,466.2,96.6,465.6,96.6L465.6,96.6z"/>
			<path class="st19" d="M471.2,96.6c-0.6,0-1.1-0.5-1.1-1.1V84.6c0-0.3,0.1-0.6,0.3-0.8l1.6-1.6c0.4-0.4,1.1-0.4,1.5,0
				c0.4,0.4,0.4,1.1,0,1.5l-1.3,1.3v10.5C472.3,96.1,471.8,96.6,471.2,96.6z"/>
		</g>
		<path class="st20" d="M476.3,108.4h-15.7c-0.6,0-1.1-0.5-1.1-1.1V96.6c0-0.6,0.5-1.1,1.1-1.1h15.7c0.6,0,1.1,0.5,1.1,1.1v10.7
			C477.4,107.9,476.9,108.4,476.3,108.4z"/>
		<path class="st21" d="M474.9,108.4c0,3.6-2.9,6.5-6.5,6.5s-6.5-2.9-6.5-6.5H474.9z"/>
		<path class="st22" d="M474.1,111.5c0.5-0.9,0.8-2,0.8-3.1h-13c0,1.1,0.3,2.2,0.8,3.1H474.1z"/>
		<path class="st23" d="M452.2,68.5"/>
		<path class="st24" d="M484.7,68.3c-0.7-3-2.3-5.7-4.5-8c-3.2-3.2-7.5-4.9-12-4.8c-4.5,0.1-8.7,1.9-11.8,5.1
			c-2.1,2.2-3.5,4.8-4.2,7.6c0,0.1-0.1,0.3-0.1,0.4l-0.4,2.3c0,0,0,0,0,0c0,0.6-0.1,1.1,0,1.7c0.1,3.7,1.3,7.1,3.6,10
			c2.7,3.4,4.4,7.4,4.8,11.6c0,0.1-0.1,0.2-0.1,0.2c-0.9,0.2-1.6,1.1-1.6,2.1v1.7c0,0.1,0,0.1-0.1,0.2c-0.4,0.2-0.7,0.5-0.7,1
			s0.3,0.8,0.7,1c0.1,0,0.1,0.1,0.1,0.2v2.3c0,0.1,0,0.1-0.1,0.2c-0.4,0.2-0.7,0.5-0.7,1s0.3,0.8,0.7,1c0.1,0,0.1,0.1,0.1,0.2v1.9
			c0,1.3,1.1,2.4,2.4,2.4l0,0c0.1,0,0.2,0.1,0.2,0.1c0.6,3.6,3.7,6.4,7.5,6.4s6.9-2.8,7.5-6.4c0-0.1,0.1-0.1,0.2-0.1l0,0
			c1.3,0,2.4-1.1,2.4-2.4v-1.9c0-0.1,0-0.1,0.1-0.2c0.4-0.2,0.7-0.5,0.7-1c0-0.5-0.3-0.8-0.7-1c-0.1,0-0.1-0.1-0.1-0.2v-2.3
			c0-0.1,0-0.1,0.1-0.2c0.4-0.2,0.7-0.5,0.7-1c0-0.5-0.3-0.8-0.7-1c-0.1,0-0.1-0.1-0.1-0.2v-1.7c0-1-0.7-1.9-1.6-2.1
			c-0.1,0-0.1-0.1-0.1-0.2c0.4-4.2,2.1-8.2,4.8-11.6c2.4-3,3.6-6.6,3.6-10.4c0-0.5,0-1-0.1-1.4C485.1,70.7,484.7,68.4,484.7,68.3z
			 M476.3,100.7l0,2.1c0,0.1-0.1,0.2-0.2,0.2h-15.4c-0.1,0-0.2-0.1-0.2-0.2v-2.1c0-0.1,0.1-0.2,0.2-0.2h15.4
			C476.2,100.5,476.3,100.6,476.3,100.7z M460.6,98.1v-1.4c0-0.1,0.1-0.2,0.2-0.2h0.6h14.2h0.6c0.1,0,0.2,0.1,0.2,0.2l0,1.4
			c0,0.1-0.1,0.2-0.2,0.2h-15.4C460.6,98.3,460.6,98.2,460.6,98.1z M468.4,113.8c-2.5,0-4.7-1.8-5.3-4.1c0-0.1,0.1-0.2,0.2-0.2h10.2
			c0.1,0,0.2,0.1,0.2,0.2C473.1,112,471,113.8,468.4,113.8z M474.9,107.3h-13h-1.2c-0.1,0-0.2-0.1-0.2-0.2v-1.8
			c0-0.1,0.1-0.2,0.2-0.2h15.4c0.1,0,0.2,0.1,0.2,0.2l0,1.8c0,0.1-0.1,0.2-0.2,0.2H474.9z M479.8,81.3c-3,3.8-4.8,8.2-5.3,12.9
			c0,0.1-0.1,0.2-0.2,0.2h-11.8c-0.1,0-0.2-0.1-0.2-0.2c-0.5-4.7-2.3-9.1-5.3-12.9c-2-2.5-3.1-5.5-3.2-8.7
			c-0.1-3.9,1.4-7.6,4.1-10.4c2.7-2.8,6.4-4.4,10.2-4.5c3.9,0,7.6,1.4,10.4,4.2c2.8,2.8,4.3,6.4,4.3,10.3
			C483,75.6,481.9,78.7,479.8,81.3z"/>
	</g>
	<g>
		<g>
			<g>
				<g>
					<path class="st19" d="M294.1,437.8l2.4,4H213c-2,0-3.6-1.6-3.6-3.5v-6.9c0-1.9,1.6-3.5,3.6-3.5h83.5l-2.4,4V437.8z"/>
					<polygon class="st25" points="294.1,437.8 296.5,441.7 262.6,441.7 262.6,427.9 296.5,427.9 294.1,431.7 					"/>
					<rect x="266.6" y="431.7" class="st14" width="27.6" height="6"/>
				</g>
				<g>
					<path class="st25" d="M211.3,406.8l-2,3.4h73.5c1.8,0,3.2-1.4,3.2-3.1v-6c0-1.7-1.5-3.1-3.2-3.1h-73.5l2,3.4V406.8z"/>
					<polygon class="st19" points="211.3,406.8 209.3,410.3 239.2,410.3 239.2,398 209.3,398 211.3,401.5 					"/>
					<rect x="211.3" y="401.5" class="st26" width="24.4" height="5.4"/>
				</g>
				<g>
					<path class="st27" d="M215.6,424.1l-2.1,3.8H292c1.9,0,3.4-1.5,3.4-3.3v-10.9c0-1.8-1.5-3.3-3.4-3.3h-78.6l2.1,3.8V424.1z"/>
					<polygon class="st28" points="215.6,424.1 213.4,427.9 268.4,427.9 268.4,410.3 213.4,410.3 215.6,414 					"/>
					<rect x="215.6" y="414" class="st26" width="49" height="10.1"/>
					<polygon class="st29" points="258.4,427.3 254.4,424.3 250.6,427.3 250.6,419.7 258.4,419.7 					"/>
				</g>
				<g>
					<g>
						<g>
							<path class="st24" d="M290.8,384.4l2-3.4h-73.5c-1.8,0-3.2,1.4-3.2,3.1v10.8c0,1.7,1.5,3.1,3.2,3.1h73.5l-2-3.4V384.4z"/>
							<path class="st14" d="M290.8,384.4h-69.7c-1,0-1.7,0.8-1.7,1.7v6.7c0,1,0.8,1.7,1.7,1.7h69.7L290.8,384.4L290.8,384.4z"/>
						</g>
						<rect x="244.1" y="384.4" class="st26" width="46.7" height="10.2"/>
					</g>
				</g>
			</g>
		</g>
	</g>
	<path class="st25" d="M106.2,389.9c-1.5,0.4-3.1,0.1-4.4-0.7c-2.8-1.7-3.7-5.3-2-8.1c1.7-2.8,5.3-3.7,8.1-2c2.8,1.7,3.7,5.3,2,8.1
		C109,388.5,107.7,389.5,106.2,389.9z M104.4,382.3c-0.5,0.1-0.9,0.4-1.2,0.8c-0.5,0.9-0.3,2,0.6,2.5c0.4,0.3,0.9,0.3,1.4,0.2
		s0.9-0.4,1.2-0.8c0.5-0.9,0.3-2-0.6-2.5C105.4,382.2,104.8,382.2,104.4,382.3z"/>
	<path class="st24" d="M93.1,360.7l-1.3,0.3l-0.3-1.3c-0.3-1.1-1.3-1.8-2.4-1.5s-1.8,1.3-1.5,2.4L88,362l-1.3,0.3
		c-1.1,0.3-1.8,1.3-1.5,2.4s1.3,1.8,2.4,1.5l1.3-0.3l0.3,1.3c0.3,1.1,1.3,1.8,2.4,1.5s1.8-1.3,1.5-2.4l-0.3-1.3l1.3-0.3
		c1.1-0.3,1.8-1.3,1.5-2.4S94.2,360.5,93.1,360.7z"/>
	<path class="st25" d="M138.6,120.2c-0.8-1-1.2-2.3-1-3.6c0.3-2.7,2.8-4.6,5.5-4.3c2.7,0.3,4.6,2.8,4.3,5.5
		c-0.3,2.7-2.8,4.6-5.5,4.3C140.6,121.9,139.4,121.2,138.6,120.2z M143.7,116.2c-0.2-0.3-0.6-0.6-1-0.6c-0.8-0.1-1.6,0.5-1.7,1.3
		c-0.1,0.4,0.1,0.8,0.3,1.1c0.3,0.3,0.6,0.5,1,0.6c0.8,0.1,1.6-0.5,1.7-1.3C144.1,116.9,144,116.5,143.7,116.2z"/>
	<path class="st24" d="M162.8,97.8l-0.8-1l1-0.8c0.9-0.7,1.1-1.9,0.4-2.8s-1.9-1.1-2.8-0.4l-1,0.8l-0.8-1c-0.7-0.9-1.9-1.1-2.8-0.4
		c-0.9,0.7-1.1,1.9-0.4,2.8l0.8,1l-1,0.8c-0.9,0.7-1.1,1.9-0.4,2.8c0.7,0.9,1.9,1.1,2.8,0.4l1-0.8l0.8,1c0.7,0.9,1.9,1.1,2.8,0.4
		S163.5,98.7,162.8,97.8z"/>
	<path class="st25" d="M649.5,386.4c0-1.5,0.6-2.8,1.6-3.8c2.1-2.1,5.6-2.1,7.7,0c2.1,2.1,2.1,5.6,0,7.7c-2.1,2.1-5.6,2.1-7.7,0
		C650.1,389.2,649.5,387.9,649.5,386.4z M656.7,386.4c0-0.4-0.1-0.9-0.5-1.2c-0.7-0.7-1.7-0.7-2.4,0c-0.3,0.3-0.5,0.7-0.5,1.2
		c0,0.5,0.2,0.9,0.5,1.2c0.7,0.7,1.7,0.7,2.4,0C656.5,387.3,656.7,386.8,656.7,386.4z"/>
	<path class="st25" d="M404.1,57.7c0-1.5,0.6-2.8,1.6-3.8c2.1-2.1,5.6-2.1,7.7,0c2.1,2.1,2.1,5.6,0,7.7c-2.1,2.1-5.6,2.1-7.7,0
		C404.7,60.5,404.1,59.1,404.1,57.7z M411.2,57.7c0-0.4-0.1-0.9-0.5-1.2c-0.7-0.7-1.7-0.7-2.4,0c-0.3,0.3-0.5,0.7-0.5,1.2
		s0.2,0.9,0.5,1.2c0.7,0.7,1.7,0.7,2.4,0C411.1,58.6,411.2,58.1,411.2,57.7z"/>
	<path class="st25" d="M249.3,238.8c0-1.2,0.5-2.3,1.3-3.1c1.7-1.7,4.5-1.7,6.2,0c1.7,1.7,1.7,4.5,0,6.2c-1.7,1.7-4.5,1.7-6.2,0
		C249.8,241.1,249.3,240,249.3,238.8z M255.1,238.8c0-0.4-0.1-0.7-0.4-1c-0.5-0.5-1.4-0.5-2,0c-0.3,0.3-0.4,0.6-0.4,1s0.2,0.7,0.4,1
		c0.5,0.5,1.4,0.5,2,0C255,239.5,255.1,239.2,255.1,238.8z"/>
	<path class="st24" d="M678.5,381v-1.2h1.2c1,0,1.9-0.8,1.9-1.9s-0.8-1.9-1.9-1.9h-1.2v-1.2c0-1-0.8-1.9-1.9-1.9
		c-1,0-1.9,0.8-1.9,1.9v1.2h-1.2c-1,0-1.9,0.8-1.9,1.9s0.8,1.9,1.9,1.9h1.2v1.2c0,1,0.8,1.9,1.9,1.9
		C677.6,382.9,678.5,382,678.5,381z"/>
	<path class="st24" d="M363.6,98.3v-1.2h1.2c1,0,1.9-0.8,1.9-1.9c0-1-0.8-1.9-1.9-1.9h-1.2v-1.2c0-1-0.8-1.9-1.9-1.9
		s-1.9,0.8-1.9,1.9v1.2h-1.2c-1,0-1.9,0.8-1.9,1.9c0,1,0.8,1.9,1.9,1.9h1.2v1.2c0,1,0.8,1.9,1.9,1.9S363.6,99.4,363.6,98.3z"/>
	<path class="st24" d="M610.1,143.1v-1.2h1.2c1,0,1.9-0.8,1.9-1.9c0-1-0.8-1.9-1.9-1.9h-1.2V137c0-1-0.8-1.9-1.9-1.9
		c-1,0-1.9,0.8-1.9,1.9v1.2h-1.2c-1,0-1.9,0.8-1.9,1.9c0,1,0.8,1.9,1.9,1.9h1.2v1.2c0,1,0.8,1.9,1.9,1.9
		C609.3,145,610.1,144.2,610.1,143.1z"/>
	<path class="st24" d="M321.1,280v-1.2h1.2c1,0,1.9-0.8,1.9-1.9c0-1-0.8-1.9-1.9-1.9h-1.2v-1.2c0-1-0.8-1.9-1.9-1.9
		c-1,0-1.9,0.8-1.9,1.9v1.2h-1.2c-1,0-1.9,0.8-1.9,1.9c0,1,0.8,1.9,1.9,1.9h1.2v1.2c0,1,0.8,1.9,1.9,1.9
		C320.2,281.8,321.1,281,321.1,280z"/>
	<path class="st24" d="M478.5,211.7v-1.2h1.2c1,0,1.9-0.8,1.9-1.9s-0.8-1.9-1.9-1.9h-1.2v-1.2c0-1-0.8-1.9-1.9-1.9
		c-1,0-1.9,0.8-1.9,1.9v1.2h-1.2c-1,0-1.9,0.8-1.9,1.9s0.8,1.9,1.9,1.9h1.2v1.2c0,1,0.8,1.9,1.9,1.9
		C477.7,213.5,478.5,212.7,478.5,211.7z"/>
	<path class="st25" d="M483.3,185.2c0-1.1,0.4-2.2,1.2-2.9c1.6-1.6,4.3-1.6,5.9,0c1.6,1.6,1.6,4.3,0,5.9c-1.6,1.6-4.3,1.6-5.9,0
		C483.7,187.4,483.3,186.3,483.3,185.2z M488.8,185.2c0-0.3-0.1-0.7-0.4-0.9c-0.5-0.5-1.3-0.5-1.9,0c-0.3,0.3-0.4,0.6-0.4,0.9
		s0.1,0.7,0.4,0.9c0.5,0.5,1.3,0.5,1.9,0C488.7,185.9,488.8,185.5,488.8,185.2z"/>
	<g>
		<path class="st30" d="M582.8,282.7H599c1.7,0,3,1.4,3,3V302c0,1.7-1.4,3-3,3h-16.2c-1.7,0-3-1.4-3-3v-16.2
			C579.7,284.1,581.1,282.7,582.8,282.7z"/>
		<path class="st30" d="M582.8,310.8H599c1.7,0,3,1.4,3,3v16.2c0,1.7-1.4,3-3,3h-16.2c-1.7,0-3-1.4-3-3v-16.2
			C579.7,312.2,581.1,310.8,582.8,310.8z"/>
		<path class="st30" d="M582.8,339H599c1.7,0,3,1.4,3,3v16.2c0,1.7-1.4,3-3,3h-16.2c-1.7,0-3-1.4-3-3V342
			C579.7,340.3,581.1,339,582.8,339z"/>
		<path class="st30" d="M582.8,367.1H599c1.7,0,3,1.4,3,3v16.2c0,1.7-1.4,3-3,3h-16.2c-1.7,0-3-1.4-3-3v-16.2
			C579.7,368.4,581.1,367.1,582.8,367.1z"/>
		<path class="st31" d="M580.3,280.6h16.2c1.7,0,3,1.4,3,3v16.2c0,1.7-1.4,3-3,3h-16.2c-1.7,0-3-1.4-3-3v-16.2
			C577.2,281.9,578.6,280.6,580.3,280.6z"/>
		<path class="st31" d="M580.3,308.7h16.2c1.7,0,3,1.4,3,3V328c0,1.7-1.4,3-3,3h-16.2c-1.7,0-3-1.4-3-3v-16.2
			C577.2,310.1,578.6,308.7,580.3,308.7z"/>
		<path class="st31" d="M580.3,336.8h16.2c1.7,0,3,1.4,3,3v16.2c0,1.7-1.4,3-3,3h-16.2c-1.7,0-3-1.4-3-3v-16.2
			C577.2,338.2,578.6,336.8,580.3,336.8z"/>
		<path class="st31" d="M580.3,364.9h16.2c1.7,0,3,1.4,3,3v16.2c0,1.7-1.4,3-3,3h-16.2c-1.7,0-3-1.4-3-3V368
			C577.2,366.3,578.6,364.9,580.3,364.9z"/>
		<path class="st32" d="M582.1,294.2c-0.5-0.5-0.5-1.4,0-1.9c0.5-0.5,1.4-0.5,1.9,0l2.4,2.5l6.3-9.1c0.4-0.6,1.2-0.8,1.8-0.3
			c0.6,0.4,0.8,1.2,0.3,1.9l-7.2,10.4c-0.1,0.1-0.1,0.2-0.2,0.2c-0.5,0.5-1.4,0.5-1.9,0L582.1,294.2z"/>
		<path class="st33" d="M585.3,325.6c-0.5,0.6-1.3,0.6-1.9,0.2c-0.6-0.5-0.6-1.3-0.2-1.9l3.4-4l-3.4-4c-0.5-0.6-0.4-1.4,0.2-1.9
			c0.6-0.5,1.4-0.4,1.9,0.2l3.1,3.6l3.1-3.6c0.5-0.6,1.3-0.6,1.9-0.2c0.6,0.5,0.6,1.3,0.2,1.9l-3.4,4l3.4,4c0.5,0.6,0.4,1.4-0.2,1.9
			c-0.6,0.5-1.4,0.4-1.9-0.2l-3.1-3.6L585.3,325.6z"/>
		<path class="st32" d="M582.1,350.4c-0.5-0.5-0.5-1.4,0-1.9c0.5-0.5,1.4-0.5,1.9,0l2.4,2.5l6.3-9.1c0.4-0.6,1.2-0.8,1.8-0.3
			c0.6,0.4,0.8,1.2,0.3,1.8l-7.2,10.4c-0.1,0.1-0.1,0.2-0.2,0.2c-0.5,0.5-1.4,0.5-1.9,0L582.1,350.4z"/>
	</g>
	<g>
		<path class="st34" d="M468.4,50.8c0.8,0,1.4-0.6,1.4-1.4v-3.7c0-0.8-0.6-1.4-1.4-1.4s-1.4,0.6-1.4,1.4v3.7
			C467,50.2,467.7,50.8,468.4,50.8z"/>
		<path class="st34" d="M442,73.6h3.7c0.8,0,1.4-0.6,1.4-1.4c0-0.8-0.6-1.4-1.4-1.4H442c-0.8,0-1.4,0.6-1.4,1.4
			C440.6,73,441.2,73.6,442,73.6z"/>
		<path class="st34" d="M451.3,57.1c0.3,0.3,0.6,0.4,1,0.4c0.4,0,0.7-0.1,1-0.4c0.5-0.5,0.5-1.4,0-2l-2.6-2.6c-0.5-0.5-1.4-0.5-2,0
			c-0.5,0.5-0.5,1.4,0,2L451.3,57.1z"/>
		<path class="st34" d="M448.7,93.3c0.4,0,0.7-0.1,1-0.4l2.6-2.6c0.5-0.5,0.5-1.4,0-2c-0.5-0.5-1.4-0.5-2,0l-2.6,2.6
			c-0.5,0.5-0.5,1.4,0,2C448,93.1,448.4,93.3,448.7,93.3z"/>
		<path class="st34" d="M484.5,57.5c0.4,0,0.7-0.1,1-0.4l2.6-2.6c0.5-0.5,0.5-1.4,0-2c-0.5-0.5-1.4-0.5-2,0l-2.6,2.6
			c-0.5,0.5-0.5,1.4,0,2C483.8,57.3,484.2,57.5,484.5,57.5z"/>
		<path class="st34" d="M484.5,88.3c-0.5,0.5-0.5,1.4,0,2l2.6,2.6c0.3,0.3,0.6,0.4,1,0.4c0.4,0,0.7-0.1,1-0.4c0.5-0.5,0.5-1.4,0-2
			l-2.6-2.6C485.9,87.7,485,87.7,484.5,88.3z"/>
		<path class="st34" d="M491.2,73.6h3.7c0.8,0,1.4-0.6,1.4-1.4c0-0.8-0.6-1.4-1.4-1.4h-3.7c-0.8,0-1.4,0.6-1.4,1.4
			C489.8,73,490.4,73.6,491.2,73.6z"/>
	</g>
	<g>
		<path class="st30" d="M523.4,165.9h86.1c2.5,0,4.5,2,4.5,4.5v65.7c0,2.5-2,4.5-4.5,4.5h-86.1c-2.5,0-4.5-2-4.5-4.5v-65.7
			C519,167.9,521,165.9,523.4,165.9z"/>
		<path class="st31" d="M521.1,163.5h86.1c2.5,0,4.5,2,4.5,4.5v65.7c0,2.5-2,4.5-4.5,4.5h-86.1c-2.5,0-4.5-2-4.5-4.5V168
			C516.7,165.6,518.7,163.5,521.1,163.5z"/>
		<path class="st34" d="M521.1,163.5h86.1c2.5,0,4.5,2,4.5,4.5v6.2c0,0.7-0.6,1.2-1.2,1.2h-92.5c-0.7,0-1.2-0.6-1.2-1.2V168
			C516.7,165.6,518.7,163.5,521.1,163.5z"/>
		<path class="st30" d="M523.9,180.4H548c0.5,0,0.9,0.4,0.9,0.9l0,0c0,0.5-0.4,0.9-0.9,0.9h-24.1c-0.5,0-0.9-0.4-0.9-0.9l0,0
			C523,180.8,523.4,180.4,523.9,180.4z"/>
		<path class="st30" d="M548,184.5h-10.8c-0.5,0-0.9,0.4-0.9,0.9l0,0c0,0.5,0.4,0.9,0.9,0.9H548c0.5,0,0.9-0.4,0.9-0.9l0,0
			C548.9,184.9,548.5,184.5,548,184.5z"/>
		<path class="st30" d="M532.5,184.5h0.9c0.5,0,0.9,0.4,0.9,0.9l0,0c0,0.5-0.4,0.9-0.9,0.9h-0.9c-0.5,0-0.9-0.4-0.9-0.9l0,0
			C531.6,184.9,532,184.5,532.5,184.5z"/>
		<path class="st30" d="M523.9,184.5h5.4c0.5,0,0.9,0.4,0.9,0.9l0,0c0,0.5-0.4,0.9-0.9,0.9h-5.4c-0.5,0-0.9-0.4-0.9-0.9l0,0
			C523,184.9,523.4,184.5,523.9,184.5z"/>
		<path class="st30" d="M523.9,189.3H548c0.5,0,0.9,0.4,0.9,0.9v0c0,0.5-0.4,0.9-0.9,0.9h-24.1c-0.5,0-0.9-0.4-0.9-0.9v0
			C523,189.8,523.4,189.3,523.9,189.3z"/>
		<path class="st30" d="M523.9,193.4h10.8c0.5,0,0.9,0.4,0.9,0.9l0,0c0,0.5-0.4,0.9-0.9,0.9h-10.8c-0.5,0-0.9-0.4-0.9-0.9l0,0
			C523,193.8,523.4,193.4,523.9,193.4z"/>
		<path class="st30" d="M539.4,193.4h-0.9c-0.5,0-0.9,0.4-0.9,0.9l0,0c0,0.5,0.4,0.9,0.9,0.9h0.9c0.5,0,0.9-0.4,0.9-0.9l0,0
			C540.3,193.8,539.9,193.4,539.4,193.4z"/>
		<path class="st30" d="M548,193.4h-5.4c-0.5,0-0.9,0.4-0.9,0.9l0,0c0,0.5,0.4,0.9,0.9,0.9h5.4c0.5,0,0.9-0.4,0.9-0.9l0,0
			C548.9,193.8,548.5,193.4,548,193.4z"/>
		<path class="st30" d="M523.9,198.3H548c0.5,0,0.9,0.4,0.9,0.9v0c0,0.5-0.4,0.9-0.9,0.9h-24.1c-0.5,0-0.9-0.4-0.9-0.9v0
			C523,198.7,523.4,198.3,523.9,198.3z"/>
		<path class="st30" d="M548,202.4h-10.8c-0.5,0-0.9,0.4-0.9,0.9l0,0c0,0.5,0.4,0.9,0.9,0.9H548c0.5,0,0.9-0.4,0.9-0.9l0,0
			C548.9,202.8,548.5,202.4,548,202.4z"/>
		<path class="st30" d="M532.5,202.4h0.9c0.5,0,0.9,0.4,0.9,0.9l0,0c0,0.5-0.4,0.9-0.9,0.9h-0.9c-0.5,0-0.9-0.4-0.9-0.9l0,0
			C531.6,202.8,532,202.4,532.5,202.4z"/>
		<path class="st30" d="M523.9,202.4h5.4c0.5,0,0.9,0.4,0.9,0.9l0,0c0,0.5-0.4,0.9-0.9,0.9h-5.4c-0.5,0-0.9-0.4-0.9-0.9l0,0
			C523,202.8,523.4,202.4,523.9,202.4z"/>
		<path class="st30" d="M523.9,207.2H548c0.5,0,0.9,0.4,0.9,0.9l0,0c0,0.5-0.4,0.9-0.9,0.9h-24.1c-0.5,0-0.9-0.4-0.9-0.9l0,0
			C523,207.6,523.4,207.2,523.9,207.2z"/>
		<path class="st30" d="M523.9,211.3h10.8c0.5,0,0.9,0.4,0.9,0.9l0,0c0,0.5-0.4,0.9-0.9,0.9h-10.8c-0.5,0-0.9-0.4-0.9-0.9l0,0
			C523,211.7,523.4,211.3,523.9,211.3z"/>
		<path class="st30" d="M547.2,211.3h0.9c0.5,0,0.9,0.4,0.9,0.9l0,0c0,0.5-0.4,0.9-0.9,0.9h-0.9c-0.5,0-0.9-0.4-0.9-0.9l0,0
			C546.2,211.7,546.6,211.3,547.2,211.3z"/>
		<path class="st30" d="M538.5,211.3h5.4c0.5,0,0.9,0.4,0.9,0.9l0,0c0,0.5-0.4,0.9-0.9,0.9h-5.4c-0.5,0-0.9-0.4-0.9-0.9l0,0
			C537.6,211.7,538,211.3,538.5,211.3z"/>
		<path class="st30" d="M523.9,216.2H548c0.5,0,0.9,0.4,0.9,0.9v0c0,0.5-0.4,0.9-0.9,0.9h-24.1c-0.5,0-0.9-0.4-0.9-0.9v0
			C523,216.6,523.4,216.2,523.9,216.2z"/>
		<path class="st30" d="M539.4,220.3h-10.8c-0.5,0-0.9,0.4-0.9,0.9v0c0,0.5,0.4,0.9,0.9,0.9h10.8c0.5,0,0.9-0.4,0.9-0.9v0
			C540.3,220.7,539.9,220.3,539.4,220.3z"/>
		<path class="st30" d="M523.9,220.3h0.9c0.5,0,0.9,0.4,0.9,0.9v0c0,0.5-0.4,0.9-0.9,0.9h-0.9c-0.5,0-0.9-0.4-0.9-0.9v0
			C523,220.7,523.4,220.3,523.9,220.3z"/>
		<path class="st30" d="M548,220.3h-5.4c-0.5,0-0.9,0.4-0.9,0.9v0c0,0.5,0.4,0.9,0.9,0.9h5.4c0.5,0,0.9-0.4,0.9-0.9v0
			C548.9,220.7,548.5,220.3,548,220.3z"/>
		<path class="st30" d="M523.9,225.1H548c0.5,0,0.9,0.4,0.9,0.9v0c0,0.5-0.4,0.9-0.9,0.9h-24.1c-0.5,0-0.9-0.4-0.9-0.9v0
			C523,225.5,523.4,225.1,523.9,225.1z"/>
		<path class="st30" d="M523.9,229.2h10.8c0.5,0,0.9,0.4,0.9,0.9l0,0c0,0.5-0.4,0.9-0.9,0.9h-10.8c-0.5,0-0.9-0.4-0.9-0.9l0,0
			C523,229.6,523.4,229.2,523.9,229.2z"/>
		<path class="st30" d="M539.4,229.2h-0.9c-0.5,0-0.9,0.4-0.9,0.9l0,0c0,0.5,0.4,0.9,0.9,0.9h0.9c0.5,0,0.9-0.4,0.9-0.9l0,0
			C540.3,229.6,539.9,229.2,539.4,229.2z"/>
		<path class="st30" d="M548,229.2h-5.4c-0.5,0-0.9,0.4-0.9,0.9l0,0c0,0.5,0.4,0.9,0.9,0.9h5.4c0.5,0,0.9-0.4,0.9-0.9l0,0
			C548.9,229.6,548.5,229.2,548,229.2z"/>
		<path class="st30" d="M563.5,180.4h40.8c0.5,0,0.9,0.4,0.9,0.9l0,0c0,0.5-0.4,0.9-0.9,0.9h-40.8c-0.5,0-0.9-0.4-0.9-0.9l0,0
			C562.5,180.8,562.9,180.4,563.5,180.4z"/>
		<path class="st30" d="M604.3,184.5h-18.9c-0.5,0-0.9,0.4-0.9,0.9l0,0c0,0.5,0.4,0.9,0.9,0.9h18.9c0.5,0,0.9-0.4,0.9-0.9l0,0
			C605.2,184.9,604.8,184.5,604.3,184.5z"/>
		<path class="st30" d="M577.7,184.5h2.6c0.5,0,0.9,0.4,0.9,0.9l0,0c0,0.5-0.4,0.9-0.9,0.9h-2.6c-0.5,0-0.9-0.4-0.9-0.9l0,0
			C576.7,184.9,577.1,184.5,577.7,184.5z"/>
		<path class="st30" d="M563.5,184.5h10.1c0.5,0,0.9,0.4,0.9,0.9l0,0c0,0.5-0.4,0.9-0.9,0.9h-10.1c-0.5,0-0.9-0.4-0.9-0.9l0,0
			C562.5,184.9,562.9,184.5,563.5,184.5z"/>
		<path class="st30" d="M563.5,189.3h40.8c0.5,0,0.9,0.4,0.9,0.9v0c0,0.5-0.4,0.9-0.9,0.9h-40.8c-0.5,0-0.9-0.4-0.9-0.9v0
			C562.5,189.8,562.9,189.3,563.5,189.3z"/>
		<path class="st30" d="M563.5,193.4h18.9c0.5,0,0.9,0.4,0.9,0.9l0,0c0,0.5-0.4,0.9-0.9,0.9h-18.9c-0.5,0-0.9-0.4-0.9-0.9l0,0
			C562.5,193.8,562.9,193.4,563.5,193.4z"/>
		<path class="st30" d="M590.1,193.4h-2.6c-0.5,0-0.9,0.4-0.9,0.9l0,0c0,0.5,0.4,0.9,0.9,0.9h2.6c0.5,0,0.9-0.4,0.9-0.9l0,0
			C591,193.8,590.6,193.4,590.1,193.4z"/>
		<path class="st30" d="M604.3,193.4h-10.1c-0.5,0-0.9,0.4-0.9,0.9l0,0c0,0.5,0.4,0.9,0.9,0.9h10.1c0.5,0,0.9-0.4,0.9-0.9l0,0
			C605.2,193.8,604.8,193.4,604.3,193.4z"/>
		<path class="st30" d="M563.5,198.3h40.8c0.5,0,0.9,0.4,0.9,0.9v0c0,0.5-0.4,0.9-0.9,0.9h-40.8c-0.5,0-0.9-0.4-0.9-0.9v0
			C562.5,198.7,562.9,198.3,563.5,198.3z"/>
		<path class="st30" d="M604.3,202.4h-18.9c-0.5,0-0.9,0.4-0.9,0.9l0,0c0,0.5,0.4,0.9,0.9,0.9h18.9c0.5,0,0.9-0.4,0.9-0.9l0,0
			C605.2,202.8,604.8,202.4,604.3,202.4z"/>
		<path class="st30" d="M577.7,202.4h2.6c0.5,0,0.9,0.4,0.9,0.9l0,0c0,0.5-0.4,0.9-0.9,0.9h-2.6c-0.5,0-0.9-0.4-0.9-0.9l0,0
			C576.7,202.8,577.1,202.4,577.7,202.4z"/>
		<path class="st30" d="M563.5,202.4h10.1c0.5,0,0.9,0.4,0.9,0.9l0,0c0,0.5-0.4,0.9-0.9,0.9h-10.1c-0.5,0-0.9-0.4-0.9-0.9l0,0
			C562.5,202.8,562.9,202.4,563.5,202.4z"/>
		<path class="st30" d="M563.5,207.2h40.8c0.5,0,0.9,0.4,0.9,0.9l0,0c0,0.5-0.4,0.9-0.9,0.9h-40.8c-0.5,0-0.9-0.4-0.9-0.9l0,0
			C562.5,207.6,562.9,207.2,563.5,207.2z"/>
		<path class="st30" d="M563.5,211.3h18.9c0.5,0,0.9,0.4,0.9,0.9l0,0c0,0.5-0.4,0.9-0.9,0.9h-18.9c-0.5,0-0.9-0.4-0.9-0.9l0,0
			C562.5,211.7,562.9,211.3,563.5,211.3z"/>
		<path class="st30" d="M601.7,211.3h2.6c0.5,0,0.9,0.4,0.9,0.9l0,0c0,0.5-0.4,0.9-0.9,0.9h-2.6c-0.5,0-0.9-0.4-0.9-0.9l0,0
			C600.7,211.7,601.2,211.3,601.7,211.3z"/>
		<path class="st30" d="M587.5,211.3h10.1c0.5,0,0.9,0.4,0.9,0.9l0,0c0,0.5-0.4,0.9-0.9,0.9h-10.1c-0.5,0-0.9-0.4-0.9-0.9l0,0
			C586.5,211.7,587,211.3,587.5,211.3z"/>
		<path class="st30" d="M563.5,216.2h40.8c0.5,0,0.9,0.4,0.9,0.9v0c0,0.5-0.4,0.9-0.9,0.9h-40.8c-0.5,0-0.9-0.4-0.9-0.9v0
			C562.5,216.6,562.9,216.2,563.5,216.2z"/>
		<path class="st30" d="M590.1,220.3h-18.9c-0.5,0-0.9,0.4-0.9,0.9v0c0,0.5,0.4,0.9,0.9,0.9h18.9c0.5,0,0.9-0.4,0.9-0.9v0
			C591,220.7,590.6,220.3,590.1,220.3z"/>
		<path class="st30" d="M563.5,220.3h2.6c0.5,0,0.9,0.4,0.9,0.9v0c0,0.5-0.4,0.9-0.9,0.9h-2.6c-0.5,0-0.9-0.4-0.9-0.9v0
			C562.5,220.7,562.9,220.3,563.5,220.3z"/>
		<path class="st30" d="M604.3,220.3h-10.1c-0.5,0-0.9,0.4-0.9,0.9v0c0,0.5,0.4,0.9,0.9,0.9h10.1c0.5,0,0.9-0.4,0.9-0.9v0
			C605.2,220.7,604.8,220.3,604.3,220.3z"/>
		<path class="st30" d="M563.5,225.1h40.8c0.5,0,0.9,0.4,0.9,0.9v0c0,0.5-0.4,0.9-0.9,0.9h-40.8c-0.5,0-0.9-0.4-0.9-0.9v0
			C562.5,225.5,562.9,225.1,563.5,225.1z"/>
		<path class="st30" d="M563.5,229.2h18.9c0.5,0,0.9,0.4,0.9,0.9l0,0c0,0.5-0.4,0.9-0.9,0.9h-18.9c-0.5,0-0.9-0.4-0.9-0.9l0,0
			C562.5,229.6,562.9,229.2,563.5,229.2z"/>
		<path class="st30" d="M590.1,229.2h-2.6c-0.5,0-0.9,0.4-0.9,0.9l0,0c0,0.5,0.4,0.9,0.9,0.9h2.6c0.5,0,0.9-0.4,0.9-0.9l0,0
			C591,229.6,590.6,229.2,590.1,229.2z"/>
		<path class="st30" d="M604.3,229.2h-10.1c-0.5,0-0.9,0.4-0.9,0.9l0,0c0,0.5,0.4,0.9,0.9,0.9h10.1c0.5,0,0.9-0.4,0.9-0.9l0,0
			C605.2,229.6,604.8,229.2,604.3,229.2z"/>
		<path class="st32" d="M588.8,171.6c1.2,0,2.1-1,2.1-2.1c0-1.2-1-2.1-2.1-2.1c-1.2,0-2.1,1-2.1,2.1
			C586.6,170.7,587.6,171.6,588.8,171.6z"/>
		<path class="st35" d="M596.5,171.6c1.2,0,2.1-1,2.1-2.1c0-1.2-1-2.1-2.1-2.1c-1.2,0-2.1,1-2.1,2.1
			C594.3,170.7,595.3,171.6,596.5,171.6z"/>
		<path class="st33" d="M604.2,171.6c1.2,0,2.1-1,2.1-2.1c0-1.2-1-2.1-2.1-2.1c-1.2,0-2.1,1-2.1,2.1
			C602.1,170.7,603,171.6,604.2,171.6z"/>
		<path class="st31" d="M513.1,152.7c0.8,0,1.4-0.6,1.4-1.4c0-0.8-0.6-1.4-1.4-1.4c-0.8,0-1.4,0.6-1.4,1.4
			C511.7,152,512.3,152.7,513.1,152.7z"/>
	</g>
	<g>
		<g>
			<path class="st36" d="M536.9,436.7h-5.1c-5.6,0-10.1-4.6-10.1-10.1v-4.6c0-5.6,4.6-10.1,10.1-10.1h5.1c5.6,0,10.1,4.6,10.1,10.1
				v4.6C547.1,432.1,542.5,436.7,536.9,436.7z M531.9,415.4c-3.6,0-6.5,2.9-6.5,6.5v4.6c0,3.6,2.9,6.5,6.5,6.5h5.1
				c3.6,0,6.5-2.9,6.5-6.5v-4.6c0-3.6-2.9-6.5-6.5-6.5H531.9z"/>
		</g>
		<path class="st37" d="M523,402.6c-8.9,0-16.1,2.1-16.1,4.8l3.4,31.1c0.2,1.5,1.4,2.6,2.9,2.6l18.5,0c1.5,0,2.7-1.1,2.9-2.5
			l4.4-31.1C539.2,404.8,531.9,402.6,523,402.6z"/>
		<g>
			<path class="st10" d="M534.8,438.5l0.9-6.3c-4-2.7-8.4-4.9-12.1-8c-4.7-4.1-8.1-9.8-9.2-15.9c-0.3-1.6-0.5-3.2-0.5-4.8
				c-4.2,0.9-7,2.3-7,3.9l3.4,31.1c0.2,1.5,1.4,2.6,2.9,2.6l18.5,0C533.3,441.1,534.6,440,534.8,438.5z"/>
		</g>
		<g>
			<path class="st36" d="M536.8,408.5c0,2-6.2,3.7-13.8,3.7s-13.8-1.7-13.8-3.7c0-2,6.2-3.7,13.8-3.7S536.8,406.5,536.8,408.5z"/>
			<path class="st16" d="M510.4,410c2.1,1.3,7,2.2,12.6,2.2s10.5-0.9,12.6-2.2c-2.1-1.3-7-2.2-12.6-2.2S512.5,408.7,510.4,410z"/>
		</g>
	</g>
	<g>
		<path class="st38" d="M256.9,191.8l-83.5-0.1c-2.2,0-4-1.8-4-4l0.1-67.6c0-2.2,1.8-4,4-4l83.5,0.1c2.2,0,4,1.8,4,4l-0.1,67.6
			C260.9,190,259.1,191.8,256.9,191.8z"/>
		<path class="st14" d="M254.3,189.1l-83.5-0.1c-2.2,0-4-1.8-4-4l0.1-67.6c0-2.2,1.8-4,4-4l83.5,0.1c2.2,0,4,1.8,4,4l-0.1,67.6
			C258.2,187.3,256.4,189.1,254.3,189.1z"/>
		<path class="st18" d="M250.7,156.1l-76.1-0.1c-1.5,0-2.7-1.2-2.7-2.7l0-31c0-1.5,1.2-2.7,2.7-2.7l76.1,0.1c1.5,0,2.7,1.2,2.7,2.7
			l0,31C253.4,154.9,252.2,156.1,250.7,156.1z"/>
		<polygon class="st14" points="222.2,138.8 208.9,131.1 208.8,146.5 		"/>
		<rect x="171.3" y="162.3" class="st39" width="80.9" height="3.7"/>
		<rect x="171.3" y="169.7" class="st39" width="80.9" height="3.7"/>
		<rect x="171.3" y="177.1" class="st39" width="80.9" height="3.7"/>
	</g>
	<g>
		
			<ellipse transform="matrix(0.7345 -0.6786 0.6786 0.7345 -163.6171 203.4476)" class="st25" cx="178.2" cy="310.8" rx="30.5" ry="30.5"/>
		
			<ellipse transform="matrix(0.6645 -0.7473 0.7473 0.6645 -172.4923 237.4482)" class="st14" cx="178.2" cy="310.8" rx="27.3" ry="27.3"/>
		<g>
			
				<rect x="195" y="324.1" transform="matrix(-0.6645 0.7473 -0.7473 -0.6645 569.1405 396.5784)" class="st24" width="1.2" height="4"/>
			
				<rect x="160.1" y="293" transform="matrix(-0.6645 0.7473 -0.7473 -0.6645 487.9142 371.0185)" class="st24" width="1.2" height="4"/>
		</g>
		<g>
			
				<rect x="162" y="326" transform="matrix(-0.7473 -0.6645 0.6645 -0.7473 66.1703 681.1198)" class="st24" width="1.2" height="4"/>
			
				<rect x="193" y="291.1" transform="matrix(-0.7473 -0.6645 0.6645 -0.7473 143.534 640.7911)" class="st24" width="1.2" height="4"/>
		</g>
		<g>
			
				<rect x="154.2" y="307.1" transform="matrix(6.429475e-02 -0.9979 0.9979 6.429475e-02 -163.5294 443.6733)" class="st24" width="1.2" height="4"/>
			
				<rect x="200.8" y="310.1" transform="matrix(6.422617e-02 -0.9979 0.9979 6.422617e-02 -122.9323 492.981)" class="st24" width="1.2" height="4"/>
		</g>
		<g>
			
				<rect x="156" y="299.6" transform="matrix(0.3847 -0.923 0.923 0.3847 -182.0143 330.0706)" class="st24" width="1.2" height="4"/>
			
				<rect x="199.1" y="317.5" transform="matrix(0.3849 -0.923 0.923 0.3849 -172.0945 380.8183)" class="st24" width="1.2" height="4"/>
		</g>
		<g>
			
				<rect x="154.8" y="313.7" transform="matrix(-0.2221 -0.975 0.975 -0.2221 -117.9693 537.3312)" class="st24" width="1.2" height="4"/>
			
				<rect x="200.3" y="303.4" transform="matrix(-0.2221 -0.975 0.975 -0.2221 -52.2475 569.0253)" class="st24" width="1.2" height="4"/>
		</g>
		<g>
			
				<rect x="157.2" y="319.9" transform="matrix(-0.4879 -0.8729 0.8729 -0.4879 -46.3014 616.6899)" class="st24" width="1.2" height="4"/>
			
				<rect x="197.9" y="297.2" transform="matrix(-0.4881 -0.8728 0.8728 -0.4881 34.2519 618.394)" class="st24" width="1.2" height="4"/>
		</g>
		<g>
			
				<rect x="173.3" y="285.6" transform="matrix(-0.9836 0.1805 -0.1805 -0.9836 396.8425 539.0717)" class="st24" width="1.2" height="4"/>
			
				<rect x="181.7" y="331.5" transform="matrix(-0.9836 0.1803 -0.1803 -0.9836 421.7963 628.6358)" class="st24" width="1.2" height="4"/>
		</g>
		<g>
			
				<rect x="166.1" y="288.2" transform="matrix(-0.8718 0.4899 -0.4899 -0.8718 454.1516 461.529)" class="st24" width="1.2" height="4"/>
			
				<rect x="189" y="328.9" transform="matrix(-0.8717 0.49 -0.49 -0.8717 516.9177 526.4242)" class="st24" width="1.2" height="4"/>
		</g>
		<g>
			
				<rect x="180" y="285.4" transform="matrix(-0.9943 -0.1067 0.1067 -0.9943 329.5228 592.3007)" class="st24" width="1.2" height="4"/>
			
				<rect x="175" y="331.8" transform="matrix(-0.9943 -0.1067 0.1067 -0.9943 314.6126 684.3219)" class="st24" width="1.2" height="4"/>
		</g>
		<g>
			
				<rect x="186.5" y="287" transform="matrix(-0.9239 -0.3826 0.3826 -0.9239 249.2716 627.5375)" class="st24" width="1.2" height="4"/>
			
				<rect x="168.6" y="330.1" transform="matrix(-0.9239 -0.3828 0.3828 -0.9239 198.3704 703.6628)" class="st24" width="1.2" height="4"/>
		</g>
		<g>
			<polygon class="st24" points="178.5,294.8 179.4,294.8 179,310.3 187.8,318.1 187.2,318.8 178.1,310.7 			"/>
		</g>
	</g>
</g>
</svg>
