<svg xmlns="http://www.w3.org/2000/svg" xmlns:xlink="http://www.w3.org/1999/xlink" viewBox="0 0 795.47 365.43"><defs><style>.cls-1,.cls-10{opacity:0.34;}.cls-10,.cls-2{fill:#e1d7ff;}.cls-3{fill:#1bbb9a;}.cls-4{fill:#00d3c5;}.cls-13,.cls-20,.cls-5,.cls-7{fill:none;stroke-miterlimit:10;}.cls-20,.cls-5,.cls-7{stroke:#422b7f;}.cls-5{stroke-width:0.37px;}.cls-5,.cls-7{opacity:0.39;}.cls-10,.cls-17,.cls-20,.cls-5,.cls-7{isolation:isolate;}.cls-6{fill:#00b59c;}.cls-7{stroke-width:0.5px;}.cls-8{fill:#3597da;}.cls-9{fill:#2a80b8;}.cls-11{fill:#fff;}.cls-12{fill:#9a58b4;}.cls-13{stroke:#4f4f4f;stroke-width:0.8px;}.cls-14{fill:#425260;}.cls-15{fill:#2c3e50;}.cls-16{fill:#ffdcdc;}.cls-17{fill:#ff8479;opacity:0.47;}.cls-18{fill:#169f85;}.cls-19{fill:#ff2d29;}.cls-20{stroke-width:0.82px;opacity:0.4;}.cls-21{fill:url(#Degradado_sin_nombre);}.cls-22{fill:#1d2933;}</style><linearGradient id="Degradado_sin_nombre" x1="381.19" y1="111" x2="381.19" y2="386.52" gradientTransform="matrix(1, 0, 0, -1, 0, 465.83)" gradientUnits="userSpaceOnUse"><stop offset="0" stop-color="#fff"/><stop offset="0.09" stop-color="#fff" stop-opacity="0.91"/><stop offset="1" stop-color="#fff" stop-opacity="0"/></linearGradient></defs><title>Recurso 2</title><g id="Capa_2" data-name="Capa 2"><g id="Capa_1-2" data-name="Capa 1"><g class="cls-1"><path class="cls-2" d="M42.27,363.14a89.23,89.23,0,0,1,29.31-145c11.6-4.83,24.16-7.18,35.55-12.5,39.74-18.56,54.55-66,77-103.69,32.66-54.76,90.64-95,154.1-101.19s130.41,24.3,163.2,79c17.69,29.51,25.56,64.67,46.84,91.7a113.89,113.89,0,0,0,59.36,39.19c20.47,5.52,42.1,5.19,62.81,9.77,32,7.09,62.22,27.62,74.88,57.86s3.78,69.79-24,87.15Z"/></g><g class="cls-1"><path class="cls-2" d="M102.63,363.32A67.78,67.78,0,0,1,124.89,253.2c8.81-3.67,18.35-5.45,27-9.49,30.19-14.1,41.43-50.15,58.5-78.76,24.81-41.59,68.85-72.18,117.05-76.86s99.05,18.46,124,60c13.44,22.42,19.42,49.12,35.58,69.65a86.56,86.56,0,0,0,45.08,29.77c15.55,4.19,32,3.94,47.71,7.42,24.31,5.38,47.26,21,56.87,43.94s2.87,53-18.26,66.2Z"/></g><path class="cls-3" d="M390.12,362.58a1.28,1.28,0,0,1-1.29-1.23,1.18,1.18,0,0,1,1.17-1.23v1.23l.05-1.23c1.66,0,3.24,0,4.82-.07a1.22,1.22,0,0,1,1.27,1.19,1.24,1.24,0,0,1-1.19,1.27C393.34,362.56,391.73,362.58,390.12,362.58Zm-12.36-.47h-.09c-1.64-.13-3.28-.27-4.91-.44a1.22,1.22,0,0,1-1.09-1.36,1.2,1.2,0,0,1,1.35-1.09c1.6.17,3.21.31,4.83.43a1.23,1.23,0,0,1-.09,2.46Zm29.37-.42a1.23,1.23,0,0,1-.12-2.45c1.62-.17,3.23-.36,4.84-.58a1.24,1.24,0,0,1,1.38,1.06,1.22,1.22,0,0,1-1.06,1.38c-1.63.22-3.27.42-4.91.59Zm-46.36-1.76a.82.82,0,0,1-.22,0c-1.62-.29-3.23-.61-4.84-1a1.24,1.24,0,0,1-.95-1.46,1.26,1.26,0,0,1,1.46-.95c1.58.34,3.17.65,4.77.94a1.23,1.23,0,0,1-.22,2.44Zm63.31-.91a1.22,1.22,0,0,1-1.2-1,1.23,1.23,0,0,1,.95-1.46c1.59-.34,3.17-.69,4.74-1.08a1.23,1.23,0,0,1,.59,2.39c-1.6.39-3.21.76-4.82,1.09A.77.77,0,0,1,424.08,359Zm-80-3a1.07,1.07,0,0,1-.35-.06q-2.37-.69-4.71-1.45a1.23,1.23,0,0,1,.76-2.34q2.31.75,4.64,1.44a1.23,1.23,0,0,1-.34,2.41Zm96.55-1.4a1.21,1.21,0,0,1-1.16-.85,1.23,1.23,0,0,1,.79-1.55c1.54-.49,3.07-1,4.6-1.57a1.23,1.23,0,0,1,.83,2.32c-1.55.55-3.11,1.09-4.68,1.59A1.21,1.21,0,0,1,440.65,354.59Zm-112.73-4.27a1.14,1.14,0,0,1-.47-.1q-2.28-.93-4.53-1.94a1.23,1.23,0,1,1,1-2.24c1.48.66,3,1.29,4.47,1.91a1.23,1.23,0,0,1-.47,2.37Zm128.75-1.86a1.23,1.23,0,0,1-.5-2.36q2.22-1,4.41-2a1.23,1.23,0,1,1,1.07,2.22c-1.48.71-3,1.4-4.48,2.07A1.25,1.25,0,0,1,456.67,348.46ZM312.42,343a1.25,1.25,0,0,1-.58-.15q-2.16-1.17-4.31-2.41a1.23,1.23,0,0,1,1.23-2.13c1.41.82,2.82,1.61,4.25,2.38a1.22,1.22,0,0,1,.5,1.66A1.24,1.24,0,0,1,312.42,343ZM472,340.68a1.21,1.21,0,0,1-1.06-.61,1.23,1.23,0,0,1,.45-1.68q2.1-1.22,4.17-2.5a1.23,1.23,0,1,1,1.3,2.1c-1.41.86-2.82,1.7-4.25,2.52A1.13,1.13,0,0,1,472,340.68Zm-174.17-6.6a1.23,1.23,0,0,1-.7-.22c-1.35-.93-2.7-1.87-4-2.84a1.23,1.23,0,1,1,1.44-2c1.32,1,2.64,1.89,4,2.8a1.23,1.23,0,0,1-.69,2.25Zm188.55-2.73a1.2,1.2,0,0,1-1-.51,1.22,1.22,0,0,1,.27-1.71q2-1.42,3.89-2.91a1.23,1.23,0,0,1,1.51,1.95c-1.31,1-2.62,2-3.95,2.95A1.22,1.22,0,0,1,486.33,331.35Zm-202.2-7.66a1.2,1.2,0,0,1-.79-.3c-1.25-1.06-2.5-2.14-3.72-3.25a1.23,1.23,0,1,1,1.65-1.82q1.8,1.62,3.66,3.2a1.23,1.23,0,0,1-.8,2.17Zm215.53-3.11a1.21,1.21,0,0,1-.91-.41,1.22,1.22,0,0,1,.09-1.74q1.8-1.62,3.57-3.3a1.23,1.23,0,0,1,1.69,1.78c-1.19,1.14-2.39,2.25-3.62,3.35A1.23,1.23,0,0,1,499.66,320.58Zm-228-8.66a1.25,1.25,0,0,1-.89-.37c-1.13-1.2-2.25-2.4-3.36-3.63a1.23,1.23,0,0,1,1.83-1.64q1.63,1.8,3.31,3.56a1.24,1.24,0,0,1,0,1.75A1.23,1.23,0,0,1,271.65,311.92Zm240.14-3.45a1.22,1.22,0,0,1-.91-2.05c1.08-1.2,2.14-2.42,3.2-3.66a1.23,1.23,0,0,1,1.87,1.6c-1.07,1.25-2.15,2.49-3.25,3.7A1.18,1.18,0,0,1,511.79,308.47Zm-251.32-9.55a1.23,1.23,0,0,1-1-.48q-1.51-1.95-3-4a1.23,1.23,0,1,1,2-1.44q1.44,2,2.92,3.9a1.22,1.22,0,0,1-.22,1.72A1.18,1.18,0,0,1,260.47,298.92Zm262.11-3.75a1.24,1.24,0,0,1-1-2q1.42-2,2.79-4a1.23,1.23,0,0,1,2,1.39q-1.39,2-2.84,4A1.24,1.24,0,0,1,522.58,295.17ZM250.71,284.81a1.21,1.21,0,0,1-1.05-.58q-1.28-2.07-2.5-4.19a1.25,1.25,0,0,1,.44-1.71,1.19,1.19,0,0,1,1.65.41l.05.09c.79,1.37,1.62,2.75,2.45,4.1a1.22,1.22,0,0,1-.4,1.69A1.16,1.16,0,0,1,250.71,284.81ZM533.08,280l-1.15-.47-1-.75q1.18-2,2.29-4.11a1.23,1.23,0,0,1,2.17,1.17C534.65,277.27,533.87,278.66,533.08,280Zm-1.15-.47h0Zm-289.46-9.81a1.23,1.23,0,0,1-1.11-.7q-1.08-2.22-2.08-4.48a1.24,1.24,0,0,1,.63-1.62,1.22,1.22,0,0,1,1.62.62q1,2.22,2,4.41a1.23,1.23,0,0,1-1.1,1.77Zm297.26-4.23a1.22,1.22,0,0,1-1.12-1.73q1-2.22,1.92-4.47a1.23,1.23,0,1,1,2.27.94c-.63,1.52-1.27,3-1.95,4.54A1.24,1.24,0,0,1,539.73,265.53Zm6.16-16a1.31,1.31,0,0,1-.38-.06,1.23,1.23,0,0,1-.79-1.55c.51-1.54,1-3.1,1.45-4.65a1.21,1.21,0,0,1,1.52-.83,1.23,1.23,0,0,1,.83,1.53c-.46,1.57-.95,3.15-1.46,4.71A1.23,1.23,0,0,1,545.89,249.53ZM550.35,233l-.26,0a1.23,1.23,0,0,1-.94-1.47c.33-1.58.65-3.17.94-4.77a1.21,1.21,0,0,1,1.44-1,1.23,1.23,0,0,1,1,1.43c-.3,1.62-.61,3.23-1,4.84A1.22,1.22,0,0,1,550.35,233Zm2.7-16.93h-.13a1.22,1.22,0,0,1-1.09-1.35c.16-1.62.31-3.23.43-4.85a1.23,1.23,0,0,1,2.46.19c-.13,1.64-.27,3.28-.45,4.92A1.23,1.23,0,0,1,553.05,216Zm.91-17.21a1.16,1.16,0,0,1-1.23-1.14v-.18c0-1.56,0-3.13-.06-4.69a1.23,1.23,0,0,1,1.19-1.26,1.21,1.21,0,0,1,1.27,1.19c0,1.58.06,3.17.06,4.76A1.31,1.31,0,0,1,554,198.83Zm-.87-17a1.23,1.23,0,0,1-1.23-1.1q-.24-2.41-.57-4.83a1.23,1.23,0,0,1,2.44-.33c.22,1.63.41,3.27.58,4.91a1.24,1.24,0,0,1-1.1,1.35ZM228.92,169.43a.9.9,0,0,1-.23,0,1.22,1.22,0,0,1-1-1.43c.29-1.61.61-3.23.95-4.84a1.23,1.23,0,1,1,2.4.51c-.33,1.59-.65,3.18-.94,4.78A1.22,1.22,0,0,1,228.92,169.43Zm321.5-4.58a1.24,1.24,0,0,1-1.2-1c-.33-1.59-.69-3.17-1.07-4.74a1.23,1.23,0,1,1,2.39-.59c.38,1.61.75,3.21,1.09,4.82a1.24,1.24,0,0,1-1,1.46A1.14,1.14,0,0,1,550.42,164.85Zm-317.56-12.1a1.33,1.33,0,0,1-.34-.05,1.23,1.23,0,0,1-.84-1.53q.69-2.37,1.46-4.72a1.23,1.23,0,1,1,2.34.76q-.76,2.32-1.44,4.65A1.24,1.24,0,0,1,232.86,152.75ZM546,148.29a1.22,1.22,0,0,1-1.17-.85q-.75-2.31-1.57-4.61a1.23,1.23,0,0,1,2.31-.83q.84,2.34,1.6,4.68a1.24,1.24,0,0,1-.8,1.55A1.19,1.19,0,0,1,546,148.29ZM238.53,136.56a1.31,1.31,0,0,1-.47-.09,1.23,1.23,0,0,1-.67-1.61c.63-1.51,1.27-3,1.94-4.54a1.23,1.23,0,0,1,2.25,1q-1,2.22-1.92,4.47A1.21,1.21,0,0,1,238.53,136.56Zm301.35-4.28a1.22,1.22,0,0,1-1.12-.73q-1-2.22-2-4.42a1.23,1.23,0,0,1,2.23-1.06q1.06,2.24,2.06,4.48a1.22,1.22,0,0,1-.62,1.62A1.25,1.25,0,0,1,539.88,132.28Zm-294-11.22a1.19,1.19,0,0,1-.58-.15,1.23,1.23,0,0,1-.51-1.66c.78-1.44,1.57-2.86,2.39-4.28l2.14,1.21,0,.07c-.77,1.35-1.56,2.75-2.32,4.16A1.21,1.21,0,0,1,245.86,121.06ZM531,116.37l-.1-.17c-.77-1.35-1.58-2.69-2.39-4a1.23,1.23,0,0,1,2.1-1.29c.82,1.35,1.63,2.7,2.43,4.07l-1,.79Zm-276.28-10a1.24,1.24,0,0,1-1-1.93c.93-1.35,1.87-2.7,2.84-4a1.24,1.24,0,0,1,1.72-.26,1.22,1.22,0,0,1,.27,1.71q-1.43,2-2.8,4A1.21,1.21,0,0,1,254.76,106.41Zm268-3.82a1.24,1.24,0,0,1-1-.51c-.95-1.32-1.93-2.62-2.91-3.9a1.23,1.23,0,1,1,1.94-1.51q1.51,2,3,4a1.23,1.23,0,0,1-1,2ZM472.2,56.94a1.22,1.22,0,0,1-.61-.17c-1.41-.81-2.82-1.6-4.25-2.37a1.23,1.23,0,0,1,1.17-2.16c1.45.78,2.88,1.58,4.31,2.4a1.23,1.23,0,0,1-.62,2.3Zm-15.26-7.81a1.16,1.16,0,0,1-.51-.1q-2.22-1-4.47-1.92a1.21,1.21,0,0,1-.66-1.6,1.23,1.23,0,0,1,1.6-.67c1.52.63,3,1.27,4.54,1.95a1.22,1.22,0,0,1,.61,1.62A1.2,1.2,0,0,1,456.94,49.13ZM334.83,44.5a1.23,1.23,0,0,1-.42-2.38q2.32-.84,4.68-1.6a1.23,1.23,0,0,1,.76,2.34c-1.55.5-3.08,1-4.61,1.57A1.14,1.14,0,0,1,334.83,44.5ZM441,43a1.06,1.06,0,0,1-.39-.06c-1.54-.5-3.08-1-4.64-1.44a1.22,1.22,0,0,1,.69-2.35c1.58.46,3.15.94,4.71,1.46A1.22,1.22,0,0,1,441,43Zm-89.69-3.4a1.23,1.23,0,0,1-.3-2.43c1.6-.39,3.21-.75,4.82-1.1a1.23,1.23,0,0,1,.51,2.41c-1.58.33-3.17.7-4.74,1.08A1,1,0,0,1,351.26,39.57Zm73.14-1a1.15,1.15,0,0,1-.26,0c-1.58-.34-3.17-.65-4.77-1a1.22,1.22,0,0,1,.44-2.41c1.63.29,3.24.61,4.84,1a1.22,1.22,0,0,1,1,1.45A1.24,1.24,0,0,1,424.4,38.52Zm-56.3-2.14a1.23,1.23,0,0,1-.16-2.45c1.63-.22,3.27-.42,4.91-.59a1.23,1.23,0,1,1,.26,2.44c-1.62.17-3.23.37-4.84.59Zm39.38-.56h-.13c-1.61-.17-3.22-.32-4.83-.44a1.24,1.24,0,0,1-1.14-1.32,1.26,1.26,0,0,1,1.32-1.13c1.64.12,3.27.27,4.91.44a1.23,1.23,0,0,1-.13,2.46ZM385.2,35a1.23,1.23,0,0,1,0-2.46c1.65,0,3.3-.07,4.95-.07h.25a1.23,1.23,0,1,1,0,2.45h-.25c-1.63,0-3.26,0-4.88.08Z"/><path class="cls-3" d="M305.45,32.88H293.37a1.38,1.38,0,0,0,0,2.74h12.08a1.38,1.38,0,0,0,0-2.74Z"/><path class="cls-3" d="M313.91,32.88H312.7a1.38,1.38,0,0,0,0,2.74h1.21a1.38,1.38,0,0,0,0-2.74Z"/><path class="cls-3" d="M300.91,98.66h-3a3.58,3.58,0,0,0-3.33,3.78v.66a3.57,3.57,0,0,0,3.33,3.78h3a3.57,3.57,0,0,0,3.33-3.78v-.66A3.58,3.58,0,0,0,300.91,98.66Zm.91,4.44a1,1,0,0,1-.91,1h-3a1,1,0,0,1-.91-1v-.66a1,1,0,0,1,.91-1h3a1,1,0,0,1,.91,1Z"/><path class="cls-3" d="M315.59,28.77H283.23c-2.4,0-4.36,2.22-4.36,5V106c0,2.73,2,4.95,4.36,4.95h32.35A4.69,4.69,0,0,0,320,106V33.73C320,31,318,28.77,315.59,28.77Zm2,77.27a2.1,2.1,0,0,1-2,2.21H283.23a2.1,2.1,0,0,1-2-2.21V33.73a2.1,2.1,0,0,1,2-2.21h32.35a2.1,2.1,0,0,1,2,2.21V106Z"/><path class="cls-3" d="M318.75,37H280.08a1.29,1.29,0,0,0-1.21,1.36V95.92a1.3,1.3,0,0,0,1.21,1.37h38.67a1.29,1.29,0,0,0,1.2-1.37V38.36A1.29,1.29,0,0,0,318.75,37Zm-1.21,57.55H281.28V39.73h36.26Z"/><path class="cls-3" d="M495.91,83.2a1.26,1.26,0,1,1-1.78,0A1.25,1.25,0,0,1,495.91,83.2Z"/><path class="cls-3" d="M462.7,90.7l3.51,3.51c5.37,5.38,13,5.05,20.11,2.45s15.08-8,22.15-15.06C515.38,74.69,520.63,67,523.26,60c3.06-8.17,2.33-14.83-2.1-19.27L517.44,37h0l-1-1a6.29,6.29,0,0,0-9.73,1l-6.88,9.57a.21.21,0,0,0,0,.06,6.24,6.24,0,0,0,.85,7.81l5.2,5.21a1.23,1.23,0,0,1,.28,1.36,1.29,1.29,0,0,0-.08.26,25,25,0,0,1-3.91,7,34,34,0,0,1-14.34,10.87,1.25,1.25,0,0,1-1.37-.27l-5.2-5.2a6.24,6.24,0,0,0-7.81-.86l-.14.11L463.69,81A6.27,6.27,0,0,0,462.7,90.7Zm16.71-15.27L481,77,464.74,89.19l-.26-.26a3.77,3.77,0,0,1,.64-5.85l.14-.1,9.53-8.11A3.75,3.75,0,0,1,479.41,75.43Zm35.21-37.65.3.29-11,16.17-1.54-1.54a3.74,3.74,0,0,1-.53-4.66l6.89-9.56a.21.21,0,0,1,0-.06A3.76,3.76,0,0,1,514.62,37.78ZM468,92.43,466.54,91l16.25-12.17,1.82,1.83a3.77,3.77,0,0,0,4.11.81,37,37,0,0,0,15.66-12,27.83,27.83,0,0,0,4.06-7.49,3.75,3.75,0,0,0-.86-4l-1.85-1.86,11-16.17,2.66,2.66c4.66,4.65,3.4,11.6,1.52,16.61-2.5,6.67-7.54,14-14.21,20.67-6.82,6.83-14.36,12-21.23,14.48C480.24,96.2,473,97.43,468,92.43Z"/><path class="cls-3" d="M498.27,80.19c1.32-1.16,3.62-3.16,4.83-4.4A83.21,83.21,0,0,0,511,66.38a1.26,1.26,0,0,1,2.07,1.43,85.71,85.71,0,0,1-8.19,9.73c-1.28,1.31-3.59,3.33-5,4.54a1.25,1.25,0,0,1-1.77-.11A1.26,1.26,0,0,1,498.27,80.19Z"/><path class="cls-3" d="M273.94,178H219.21a1.24,1.24,0,1,0,0,2.47h54.73a5.45,5.45,0,0,1,5.44,5.44v44a5.45,5.45,0,0,1-5.44,5.44H206.62a5.45,5.45,0,0,1-5.44-5.44v-44a5.45,5.45,0,0,1,5.44-5.44h7.65a1.24,1.24,0,0,0,0-2.47h-7.65a7.92,7.92,0,0,0-7.91,7.91v44a7.91,7.91,0,0,0,7.91,7.9h19.85l-2.41,7.91h-4.54a4.2,4.2,0,1,0,0,8.39H261a4.2,4.2,0,1,0,0-8.39h-4.53l-2.42-7.91h19.85a7.91,7.91,0,0,0,7.91-7.9v-44A7.92,7.92,0,0,0,273.94,178Zm-11.17,71.87a1.74,1.74,0,0,1-1.73,1.73H219.52a1.73,1.73,0,1,1,0-3.46H261A1.73,1.73,0,0,1,262.77,249.88Zm-8.85-4.2H226.64l2.42-7.9h22.45Z"/><path class="cls-3" d="M274,218.21a1.23,1.23,0,0,0,1.24-1.24V185.92a1.33,1.33,0,0,0-1.33-1.32H206.62a1.33,1.33,0,0,0-1.33,1.32v40.25a1.24,1.24,0,0,0,1.24,1.24H274a1.25,1.25,0,0,0,1.24-1.24v-4.25a1.24,1.24,0,1,0-2.47,0v3h-65V187.07h65V217A1.23,1.23,0,0,0,274,218.21Z"/><path class="cls-3" d="M241.31,230.45a1.24,1.24,0,1,0-.18,1.58A1.26,1.26,0,0,0,241.31,230.45Z"/><path class="cls-4" d="M252.24,329c-3.27,4.63-8.37,6.65-11.4,4.52s-2.84-7.63.42-12.27,13.34-13.2,16.37-11.06S255.51,324.35,252.24,329Z"/><line class="cls-5" x1="253.1" y1="316.11" x2="240.84" y2="333.5"/><path class="cls-4" d="M212.61,332.45c4.55,3.38,10,3.71,12.24.73s.32-8.14-4.23-11.52-16.8-8.37-19-5.39S208.05,329.07,212.61,332.45Z"/><line class="cls-5" x1="207.77" y1="320.49" x2="224.85" y2="333.18"/><path class="cls-6" d="M246.59,323.67c-2.25,7.32-8,12.06-12.75,10.59s-6.85-8.6-4.6-15.92,11.57-22.56,16.36-21.08S248.83,316.35,246.59,323.67Z"/><line class="cls-7" x1="242.28" y1="306.79" x2="233.84" y2="334.26"/><path class="cls-6" d="M232,317.76c3.65,6.73,3,14.13-1.36,16.52s-10.94-1.13-14.6-7.86-8-24.06-3.59-26.44S228.36,311,232,317.76Z"/><line class="cls-7" x1="216.94" y1="309.02" x2="230.65" y2="334.28"/><path class="cls-4" d="M240,320.74c0,7.66-4.06,13.87-9.07,13.87s-9.08-6.21-9.08-13.87,4.44-24.95,9.46-24.95S240,313.09,240,320.74Z"/><line class="cls-7" x1="230.97" y1="305.87" x2="230.97" y2="334.61"/><path class="cls-8" d="M214.56,335.58a18.62,18.62,0,1,0,31.18,0Z"/><path class="cls-9" d="M248.75,345.14a18.53,18.53,0,0,0-3-9.56H214.56a18.63,18.63,0,0,0-3,9.56Z"/><path class="cls-8" d="M248.36,338.7H211.12a2.91,2.91,0,0,1-2.9-2.9h0a2.91,2.91,0,0,1,2.9-2.89h37.24a2.91,2.91,0,0,1,2.9,2.89h0A2.91,2.91,0,0,1,248.36,338.7Z"/><path class="cls-10" d="M621.59,180.34c0,6.85-5.28,12.41-11.79,12.41S598,187.19,598,180.34s5.27-12.41,11.79-12.41S621.59,173.48,621.59,180.34Z"/><circle class="cls-10" cx="574.42" cy="170.41" r="6.21"/><ellipse class="cls-10" cx="100.23" cy="176.62" rx="11.79" ry="12.41"/><path class="cls-10" d="M120.09,145.58a6.21,6.21,0,1,1-6.21-6.2A6.21,6.21,0,0,1,120.09,145.58Z"/><circle class="cls-10" cx="127.54" cy="169.17" r="6.21"/><ellipse class="cls-11" cx="580.93" cy="275.11" rx="11.49" ry="12.13"/><path class="cls-12" d="M630.79,355H612.92V274.47a16.6,16.6,0,0,0,2.55-13.06l3.68-2.08a4.78,4.78,0,1,0-4.7-8.33l-3.68,2.07A16.56,16.56,0,0,0,585,256.6l-.22-.39-18.63,1.13,22.55,40L599.33,282l-.22-.4a16.47,16.47,0,0,0,8.32-2.12l.38-.24V355H587.39a4.47,4.47,0,0,0,0,8.94h43.4a4.47,4.47,0,1,0,0-8.94Z"/><line class="cls-13" y1="364.1" x2="795.47" y2="364.1"/><path class="cls-14" d="M443.2,175.66c-7-2.54-11.23-17-17.78-47.54-6.44-30.07-36-26-36.92-25.9-.95-.13-30.48-4.16-36.93,25.9-6.55,30.56-10.76,45-17.78,47.54s-15,21.65,7,34.81c10.1,6,28.67,9.65,46.91,9.71h1.55c18.23-.06,36.82-3.67,46.92-9.71C458.18,197.31,450.23,178.21,443.2,175.66Z"/><path class="cls-15" d="M416.62,175.54c-12.69-18.9-10.19-41-10.8-62.61-8.43-3.94-19.41-3-28.46-2.37a130.49,130.49,0,0,1,.93,29.43c-1,13-4,27.66-12.7,37.9-5.18,6.07-12.29,8.5-19.22,11.9-5.15,2.53-9.05,7.06-11.7,12.1a30.4,30.4,0,0,0-1.32,2.85,38.19,38.19,0,0,0,7.46,5.73c10.1,6,28.68,9.65,46.91,9.71h1.55c18.11-.06,36.55-3.62,46.69-9.59a20.27,20.27,0,0,0-2-11.2C429.76,190.32,422.11,183.72,416.62,175.54Z"/><path class="cls-16" d="M374.76,176.21s.1,17.31-3.24,19.9c0,0,6.2,8.55,19.66,7.88,0,0,10.37-.92,13.26-4.69,0,0-1-20.89-.88-25.33C403.56,174,378.57,167.56,374.76,176.21Z"/><path class="cls-17" d="M374.3,186.23c5.71,4.21,12.19,6.57,19.71,4.56a29.2,29.2,0,0,0,9.83-4.87c-.19-5-.35-10-.28-11.95,0,0-25-6.41-28.8,2.24C374.76,176.21,374.79,181.2,374.3,186.23Z"/><path class="cls-3" d="M435,207.53c-.58-2.34-25.24-10.51-30.45-12.2a27.39,27.39,0,0,1-19.16,5.08c-5.35-.49-10.81-2.57-14.17-6.64l-.25,0s-32.68,10.46-33.34,13.08,18.3,54.9,17,68.62-11.11,25.49-9.15,32c0,0,16.16,2.44,31.4,3.36l-.05.56c15.69,2,50.33-3.27,50.33-3.27,2-6.54-7.85-18.3-9.15-32S435.69,210.14,435,207.53Z"/><path class="cls-18" d="M427.22,234.57A82.34,82.34,0,0,1,405,247.21c-13.89,5.31-32.86,4.41-45.8-3.1A48.33,48.33,0,0,1,344.27,230c5.09,16.68,11.14,37.6,10.39,45.55-1.31,13.73-11.12,25.49-9.15,32,0,0,16.15,2.44,31.4,3.36l-.05.56c15.69,2,50.33-3.27,50.33-3.27,2-6.53-7.85-18.3-9.15-32C417.34,268.82,422.43,250.46,427.22,234.57Z"/><path class="cls-11" d="M373.7,192.7l-2.7,1.1s6.27,14.42,18.05,19.43c0,0,14.75-7.91,17.13-17.74l-2-1.44S390.93,202.34,373.7,192.7Z"/><path class="cls-3" d="M338.88,205.67s-49.05,60.21-42.4,72.92,42.36,30.86,51.44,30.86l12.71-9.08S326.74,272.54,328,267.09s27.83-35.7,27.83-35.7S348.58,199.3,338.88,205.67Z"/><path class="cls-18" d="M328,267.09c1.07-4.8,21.85-28.84,26.78-34.49-14,7-25.86,18.38-32.33,32.68-5.09,11.24-5.5,22.61-1.85,33.08,11.12,6.34,22.73,11.09,27.37,11.09l12.71-9.08S326.74,272.54,328,267.09Z"/><path class="cls-12" d="M357.6,328.81s-78.06-63.53-91.37-41.15,25.42,62.93,82.29,70.8Z"/><path class="cls-3" d="M436,207.48s49,60.22,42.38,72.92S436.05,311.26,427,311.26l-12.7-9.08s33.88-27.83,32.67-33.27-27.83-35.7-27.83-35.7S426.3,201.11,436,207.48Z"/><path class="cls-18" d="M469.33,285.05c-8.1-14.39-18.2-26.89-31.56-36.73-4.74-3.5-9.36-7.15-14-10.73l-2.35-1.78c6.45,7.44,24.58,28.63,25.57,33.1,1.21,5.45-32.67,33.28-32.67,33.28l12.7,9.07c7.46,0,32.9-12.26,45.43-23.69A5.49,5.49,0,0,1,469.33,285.05Z"/><path class="cls-12" d="M419.71,328.81s78.06-63.53,91.37-41.15-25.41,62.93-82.29,70.8Z"/><path class="cls-16" d="M418.17,135.94l-.1-.06c-1.1-15-14.1-26.89-30-26.89-16.64,0-30.13,13-30.13,28.93a27.66,27.66,0,0,0,.88,6.85c1.34,12,7.11,37,31.82,41.69C390.62,186.46,420.56,181.77,418.17,135.94Z"/><path class="cls-14" d="M371.92,123.69S394.11,137.4,409,139s8.07,11.29,8.87,12.5,8.47-17.35-3.62-35.5-38.33-12.5-48.81,0A31,31,0,0,0,371.92,123.69Z"/><path class="cls-14" d="M374.74,123.29S357,134.18,359.41,156.77c0,0-14.92-29.05,9.28-44.38C368.69,112.39,381.2,113.61,374.74,123.29Z"/><path class="cls-16" d="M363.37,155.37c1.59,4,1.07,8-1.14,8.91s-5.31-1.72-6.89-5.77-1.07-8,1.15-8.91S361.79,151.32,363.37,155.37Z"/><ellipse class="cls-16" cx="420.37" cy="156.59" rx="7.88" ry="4.31" transform="translate(164.34 524.93) rotate(-75.63)"/><path class="cls-14" d="M381.52,155.29s-6.53,4.31-12.69-3.09h-2.22l2.22,1S375.48,162.07,381.52,155.29Z"/><path class="cls-14" d="M382.92,149.36S378.18,144,367.34,147c0,0,10-.56,13.45,2.33C380.79,149.37,382.86,151.12,382.92,149.36Z"/><path class="cls-14" d="M397.65,156s6.54,4.31,12.7-3.08h2.22l-2.22,1S403.69,162.8,397.65,156Z"/><path class="cls-14" d="M396.26,150.09s4.74-5.41,15.58-2.32c0,0-10-.56-13.46,2.33C398.39,150.1,396.32,151.86,396.26,150.09Z"/><path class="cls-14" d="M387.34,164.16s3.29,3.53,5.3.38C392.64,164.54,390.48,168.64,387.34,164.16Z"/><path class="cls-14" d="M385.74,162.93a1.58,1.58,0,0,0,.61,2.71A3.41,3.41,0,0,1,385.74,162.93Z"/><path class="cls-14" d="M394.3,163.05a1.58,1.58,0,0,1-.61,2.71A3.41,3.41,0,0,0,394.3,163.05Z"/><path class="cls-14" d="M373.39,124.1s-14.42,22.8-7.65,39.45c0,0-1.35,3.08-2.46,1.6s-6.9-16.15-5.8-24S366.61,120.52,373.39,124.1Z"/><path class="cls-14" d="M415.28,140.35s.61,22.71-1.25,29.8c0,0,.77,1.79,2.15.56s5.29-24.59,4-29.06S416.35,138.52,415.28,140.35Z"/><path class="cls-18" d="M370.64,194.61s8.45,14.8,18.41,18.62c0,0,13.08-7.12,17.13-17.74,0,0,2.36-.46,2.15,1s-8.05,15.87-19.27,19.68c0,0-9.32-1.9-22-21.17C367,195,369.76,193.11,370.64,194.61Z"/><path class="cls-19" d="M384.48,171.5s.44.74,2.81-.25,4.95-1.48,8,.74a2,2,0,0,0,1.76-.28,6.11,6.11,0,0,1-6,5.29C385.42,177.41,384.48,171.5,384.48,171.5Z"/><path class="cls-11" d="M387.55,172.62a45,45,0,0,0,6.4.1s-.18,2.1-3.2,2S387.55,172.62,387.55,172.62Z"/><path class="cls-14" d="M404.19,140.6c-5.91,0-10.69,5.61-10.69,12.53,0,.46,0,.91.06,1.36-2.93-3-6.52-.9-7.55-.2,0-.38.05-.77.05-1.16,0-6.92-4.79-12.53-10.69-12.53s-10.7,5.61-10.7,12.53,4.79,12.54,10.7,12.54c5.21,0,9.55-4.38,10.5-10.17,3.88-2.73,6.88-.92,7.79-.23.87,5.91,5.25,10.4,10.53,10.4,5.91,0,10.7-5.61,10.7-12.54S410.1,140.6,404.19,140.6Zm-28.82,24.2c-5.5,0-10-5.23-10-11.67s4.46-11.66,10-11.66,9.95,5.22,9.95,11.66S380.86,164.8,375.37,164.8Zm28.82,0c-5.49,0-9.95-5.23-9.95-11.67s4.46-11.66,9.95-11.66,9.95,5.22,9.95,11.66S409.69,164.8,404.19,164.8Z"/><path class="cls-20" d="M291.17,304.66s24.29,11.33,30,21"/><path class="cls-20" d="M477.39,305.46s-22.67,12.15-28.34,22.68"/><polygon class="cls-21" points="317.05 352.61 220.24 79.31 542.14 79.31 458.84 354.83 317.05 352.61"/><rect class="cls-14" x="316.05" y="266.48" width="142.19" height="88.95"/><path class="cls-15" d="M445.12,266.48c-2.18,23.73-11.22,46.5-30.79,61.7-14.73,11.44-32.89,16.37-51.36,16-15.78-.29-31.28-3.43-46.92-5.18v16.39H458.24V266.48Z"/><path class="cls-22" d="M460.46,364.51H315.85a4.85,4.85,0,0,1-4.84-4.84h0a4.86,4.86,0,0,1,4.84-4.84H460.46a4.85,4.85,0,0,1,4.84,4.84h0A4.85,4.85,0,0,1,460.46,364.51Z"/></g></g></svg>