<?xml version="1.0" encoding="utf-8"?>
<!-- Generator: Adobe Illustrator 24.0.3, SVG Export Plug-In . SVG Version: 6.00 Build 0)  -->
<svg version="1.1" id="Capa_1" xmlns="http://www.w3.org/2000/svg" xmlns:xlink="http://www.w3.org/1999/xlink" x="0px" y="0px"
	 viewBox="0 0 592.9 406.8" style="enable-background:new 0 0 592.9 406.8;" xml:space="preserve">
<style type="text/css">
	.st0{opacity:0.34;fill:#DFD5EB;enable-background:new    ;}
	.st1{fill:#32B196;}
	.st2{fill:#8F599F;}
	.st3{fill:#A092C6;}
	.st4{fill:#FFFFFF;}
	.st5{fill:#E8514E;}
	.st6{fill:#F5ED80;}
	.st7{fill:#EBE8EC;}
	.st8{fill:#FFC9C9;}
	.st9{fill:#241F47;}
	.st10{fill:#FFA6A6;}
	.st11{fill:#FED976;}
	.st12{fill:#412B7F;}
	.st13{fill:#654DA8;}
	.st14{fill:#3F2A3F;}
	.st15{fill:#48B9B6;}
	.st16{fill:#F2B10F;}
	.st17{fill:#FFB0B0;}
	.st18{fill:#542917;}
	.st19{fill:#FF7878;}
	.st20{fill:#F1EEF2;}
	.st21{fill:#88CBCA;}
	.st22{fill:none;stroke:#A092C6;stroke-width:1.41;stroke-linecap:round;stroke-miterlimit:10;stroke-dasharray:5.54,5.54;}
</style>
<title>enDesarrollo_3</title>
<g id="Capa_2_1_">
	<g id="Capa_1-2">
		<path class="st0" d="M545.2,41.7c6.7,0,12.2,5.7,12.2,12.8s-5.5,12.8-12.2,12.8S533,61.6,533,54.5S538.5,41.7,545.2,41.7z"/>
		<path class="st0" d="M524.7,22.3c0-3.5,2.9-6.4,6.4-6.4c3.5,0,6.4,2.9,6.4,6.4s-2.9,6.4-6.4,6.4C527.6,28.8,524.7,25.9,524.7,22.3
			C524.7,22.3,524.7,22.3,524.7,22.3z"/>
		<path class="st0" d="M510.6,46.7c0-3.5,2.9-6.4,6.4-6.4c3.5,0,6.4,2.9,6.4,6.4c0,3.5-2.9,6.4-6.4,6.4S510.6,50.3,510.6,46.7
			C510.6,46.7,510.6,46.7,510.6,46.7z"/>
		<path class="st1" d="M512.8,240.1C512.8,240.1,512.8,240.1,512.8,240.1c-1.7-2.8-0.8-6.4,2-8.1c2.8-1.7,6.4-0.8,8.1,2
			c1.7,2.8,0.8,6.4-2,8.1c-1.3,0.8-3,1.1-4.5,0.7C514.9,242.5,513.5,241.5,512.8,240.1z M516.8,235.5c-0.9,0.6-1.1,1.7-0.6,2.6
			c0.3,0.4,0.7,0.7,1.2,0.8c0.5,0.1,1,0.1,1.4-0.2c0.9-0.6,1.1-1.7,0.6-2.6c-0.3-0.4-0.7-0.7-1.2-0.8
			C517.8,235.1,517.3,235.2,516.8,235.5z"/>
		<path class="st2" d="M529.4,213.7c-1.1-0.2-2.1,0.4-2.4,1.5c0,0,0,0,0,0c-0.2,1.1,0.4,2.1,1.5,2.4l1.3,0.3l-0.3,1.3l0,0
			c-0.2,1.1,0.4,2.2,1.5,2.4c1.1,0.2,2.2-0.4,2.4-1.5l0.3-1.3l1.3,0.3c1.1,0.2,2.2-0.4,2.4-1.5s-0.4-2.2-1.5-2.4l-1.3-0.3l0.3-1.3
			c0.2-1.1-0.4-2.2-1.5-2.4c-1.1-0.2-2.2,0.4-2.4,1.5l-0.3,1.3L529.4,213.7C529.4,213.7,529.4,213.7,529.4,213.7z"/>
		<path class="st2" d="M22.7,276.4c-0.1,1.1,0.8,2,1.9,2.1l0,0c1,0,1.9-0.9,1.9-1.9v-1.2h1.2c1,0,1.9-0.8,1.9-1.9
			c0-1-0.8-1.9-1.9-1.9h-1.2v-1.2c0,0,0-0.1,0-0.1c0-1-0.9-1.8-1.9-1.8l0,0c-1,0-1.9,0.9-1.9,1.9v1h-1.2c0,0,0,0,0,0
			c-1,0-1.9,0.9-1.9,1.9c0,1,0.9,1.9,1.9,1.9h1.2L22.7,276.4C22.7,276.4,22.7,276.4,22.7,276.4z"/>
		<path class="st2" d="M78.7,28.8L78.7,28.8c1.4,0,2.5-1.1,2.5-2.5v-1.6h1.6c1.4,0,2.5-1.1,2.5-2.5c0-1.4-1.1-2.5-2.5-2.5h-1.6v-1.6
			c0,0,0-0.1,0-0.1c0-1.3-1.1-2.4-2.5-2.3l0,0c-1.4,0-2.5,1.1-2.5,2.5v1.3h-1.6c-1.4,0-2.5,1.1-2.5,2.5c0,1.4,1.1,2.5,2.5,2.5h1.6
			v1.6C76.2,27.5,77.3,28.8,78.7,28.8z"/>
		<path class="st1" d="M7.1,262.5c-1.6,1.6-4.3,1.6-5.9,0c-1.6-1.6-1.6-4.3,0-5.9c1.6-1.6,4.3-1.6,5.9,0c0.8,0.8,1.2,1.8,1.2,2.9
			C8.3,260.6,7.9,261.7,7.1,262.5z M3.2,260.4c0.5,0.5,1.4,0.5,1.9,0c0.3-0.2,0.4-0.6,0.4-0.9c0-0.3-0.1-0.7-0.4-0.9
			c-0.5-0.5-1.4-0.5-1.9,0c-0.3,0.2-0.4,0.6-0.4,0.9C2.8,259.9,3,260.2,3.2,260.4z"/>
		<path class="st3" d="M250.4,3.7v101c0,1.1-0.9,2-2,2H110.7c-1.1,0-2-0.9-2-2V3.7c0-1.1,0.9-2,2-2h137.6
			C249.5,1.6,250.4,2.5,250.4,3.7z"/>
		<path class="st4" d="M251.8,2v101c0,1.1-0.9,2-2,2H112.2c-1.1,0-2-0.9-2-2V2c0-1.1,0.9-2,2-2l137.6,0C250.9,0,251.8,0.9,251.8,2z"
			/>
		<path class="st2" d="M112.1,0c-1.1,0-2,0.9-2,2v5h141.7V2.1c0,0,0,0,0-0.1c0-1.1-0.9-2-2-2L112.1,0z"/>
		<path class="st5" d="M118.3,3.5C118.3,3.5,118.3,3.5,118.3,3.5c0,0.9-0.7,1.5-1.5,1.5c-0.8,0-1.5-0.7-1.5-1.5
			c0-0.8,0.7-1.5,1.5-1.5C117.6,1.9,118.3,2.6,118.3,3.5L118.3,3.5z"/>
		<path class="st6" d="M123.1,3.5C123.1,3.5,123.1,3.5,123.1,3.5c0,0.9-0.7,1.5-1.5,1.5c-0.8,0-1.5-0.7-1.5-1.5
			c0-0.8,0.7-1.5,1.5-1.5C122.4,1.9,123.1,2.6,123.1,3.5L123.1,3.5z"/>
		<path class="st1" d="M127.8,3.5C127.8,3.5,127.8,3.5,127.8,3.5c0,0.8-0.7,1.5-1.5,1.5c-0.8,0-1.5-0.7-1.5-1.5
			c0-0.8,0.7-1.5,1.5-1.5S127.8,2.7,127.8,3.5L127.8,3.5z"/>
		<rect x="121.2" y="14.1" class="st3" width="119.6" height="28.8"/>
		<rect x="121.2" y="48" class="st3" width="26.8" height="17"/>
		<rect x="121.2" y="75.4" class="st3" width="119.1" height="2.4"/>
		<rect x="121.2" y="89.6" class="st3" width="119.1" height="2.4"/>
		<rect x="121.2" y="95.3" class="st3" width="119.1" height="2.4"/>
		<rect x="121.2" y="69.4" class="st3" width="119.1" height="2.4"/>
		<rect x="152.1" y="48" class="st3" width="26.8" height="17"/>
		<rect x="182.9" y="48" class="st3" width="26.8" height="17"/>
		<rect x="213.8" y="48" class="st3" width="26.8" height="17"/>
		<ellipse class="st3" cx="295.7" cy="393.5" rx="197.3" ry="13.3"/>
		<path class="st7" d="M373.6,391.2c13.9,2.2,27.8,3.3,41.9,3.5c13.3-0.1,26.5-1.3,39.6-3.5l-1.6-3.5c-7-15.4-33.2-9.5-39.2-25.3
			l0,0c-5,15.9-32.2,9.9-39.2,25.3L373.6,391.2z"/>
		<rect x="409.3" y="271.6" class="st7" width="10.9" height="102.4"/>
		<polygon class="st8" points="412.4,365.5 407.6,355.1 397.2,359 400.1,369.7 		"/>
		<path class="st9" d="M412.4,365.4l2.5,8.5l-11.1,3.5c0,0-25,10.5-29.6,5.6c-2.1-2.2,6-4.4,11.2-7.9c5.2-3.5,13.4-8.3,13.4-8.3
			C403.4,366.9,408,366.5,412.4,365.4z"/>
		<polygon class="st8" points="357.2,381 355.5,369.6 344.4,370.4 344.2,381.5 		"/>
		<path class="st9" d="M357.2,380.8v8.9l-11.6,0.2c0,0-26.9,3-30-3c-1.3-2.7,7-2.5,13-4.4s15.3-4.2,15.3-4.2
			C348.2,379.8,352.6,380.6,357.2,380.8z"/>
		<path class="st10" d="M256.6,185.2l15.4-5.1l13.6,3.4c7.7-2,10.2-1.9,25.9-5.9c9.7-2.7,19.2-6.1,28.4-10.2l11.2-18.9
			c7.3,0.7,22.6,8.6,22.6,8.6s-20.9,28.5-26.9,30.5c-6,2-46.2,6.9-61.5,5.1c-4.8-0.6-14.3-5.7-14.3-5.7l-12.2,2l-9.4,6.3l-1.5-1.3
			l3.8-4.1L256.6,185.2z"/>
		<path class="st11" d="M362.7,112.6c0,0,19.6,3.2,19.2,20.8c-0.2,11.4-15.9,32.8-15.9,32.8s-8.6-11.9-19.2-15.2
			c0,0,6.9-20.3,9-26.5C357.2,120,359.6,115.9,362.7,112.6z"/>
		<rect x="395.4" y="268.6" class="st7" width="38.8" height="20.9"/>
		<path class="st7" d="M400.5,187.4c-1.9-25.2-3.2-50.5-4-75.9c24-10.7,77.4-5.9,82.4,9.9c5.3,16.8-14.8,64.6-14.8,82.5
			s6.9,30.8,7.9,38.8c0.5,5-0.9,9.9-4,13.9h-61.4C405.1,233.5,402.3,210.4,400.5,187.4z"/>
		<path class="st4" d="M400.5,187.4c-2-26.3-3.4-52.7-4.2-79.1c26.3-6.2,68.2-0.8,72.6,13.1c5.3,16.8-14.8,64.6-14.8,82.5
			s6.9,30.8,7.9,38.8c0.5,5-0.9,9.9-4,13.9h-51.3C405.1,233.5,402.3,210.4,400.5,187.4z"/>
		<path class="st4" d="M457.2,275.5H352.6v-18.9h115.3v8.1C467.9,270.7,463.1,275.5,457.2,275.5z"/>
		<path class="st12" d="M374.5,213.2c0,0-55.2,32.8-58.4,46.3c-3.9,16.2,22.5,111.8,22.5,111.8c6.2,4.2,17.8,2.8,22.1-1
			c0,0-21.3-81.8-18.9-87.3c5.7-13.4,54-29.4,69.3-43.9s16.6-28.5,16.6-28.5L374.5,213.2z"/>
		<path class="st13" d="M437.6,198.5c0,0,18.8,39.2,1.9,55.1c-7.7,7.3-54,0.7-56.7,8l27.9,92.8c0,0-4.9,3-14.9,8
			c0,0-58-102.5-52.2-115.7c5.9-13.2,46-20.9,48-28.2c1.5-6.3,2.6-12.8,3.3-19.2L437.6,198.5z"/>
		<path class="st8" d="M357.8,92.3c1.2,4.5,3.3,9.5,7.8,11c4.1,1.4,8.5-0.8,12.2-3.1c4.4-2.6,8.8-5.4,11.6-9.7
			c4.2-6.4,7.7-14.3,7.2-22c-0.2-2.7-4.2-6.1-5.8-8.2c-1.3-1.5-2.9-2.6-4.7-3.3c-4.1-2-8.5-3.3-13-4.1c-7.5-1.3-15.9,0.5-17.4,8.7
			C353.9,71.5,355.3,82.7,357.8,92.3z"/>
		<path class="st14" d="M368.9,74.8C368.9,74.8,368.9,74.8,368.9,74.8c0,1.2,0.9,2.1,2.1,2.1s2.1-0.9,2.1-2.1c0-1.1-0.9-2.1-2.1-2.1
			l0,0C369.8,72.7,368.9,73.6,368.9,74.8z"/>
		<path class="st14" d="M357.1,74.8c0,1.1,0.9,2.1,2.1,2.1c1.1,0,2.1-0.9,2.1-2.1s-0.9-2.1-2.1-2.1l0,0c0,0,0,0,0,0
			C358.1,72.7,357.2,73.6,357.1,74.8L357.1,74.8z"/>
		<path class="st15" d="M365.6,75.1C365.6,75.1,365.6,75.1,365.6,75.1c0-4,3.2-7.2,7.2-7.2c4,0,7.2,3.2,7.2,7.2s-3.2,7.2-7.2,7.2
			C368.8,82.3,365.6,79,365.6,75.1z M378.6,75.1C378.6,75.1,378.6,75.1,378.6,75.1c0-3.2-2.6-5.9-5.9-5.9c-3.2,0-5.9,2.6-5.9,5.9
			s2.6,5.9,5.9,5.9S378.6,78.3,378.6,75.1L378.6,75.1L378.6,75.1z"/>
		<path class="st15" d="M362,71.2l-1.1-0.8c0.9-1.1,2.2-1.8,3.6-1.9c1.6-0.1,3.2,0.6,4.4,1.8l-1,0.9c-0.9-0.9-2-1.4-3.3-1.4
			C363.6,69.9,362.6,70.4,362,71.2z"/>
		<path class="st15" d="M356.9,82.3c-4,0-7.2-3.2-7.2-7.2c0-4,3.2-7.2,7.2-7.2c4,0,7.2,3.2,7.2,7.2C364.1,79,360.9,82.3,356.9,82.3
			C356.9,82.3,356.9,82.3,356.9,82.3z M362.8,75.1c0-3.2-2.6-5.9-5.8-5.9c0,0,0,0,0,0c-3.2,0-5.9,2.6-5.9,5.9c0,3.2,2.6,5.9,5.9,5.9
			C360.1,80.9,362.8,78.3,362.8,75.1L362.8,75.1L362.8,75.1z"/>
		<path class="st8" d="M411,104.8c0,0-0.1-1.5-5.4-2.8c-1.5-0.4-3.4-0.4-4.6-1.4c-4.5-4.4-7.8-9.9-9.7-15.9
			c-0.3-0.7-0.4-1.6-0.2-2.3c-3.6,3-7.1,6.2-10.4,9.5c-1.1,1.1-8,0.5-7.2,2c0.2,0.4,2,4.4,3.7,8.3c-3.3,2.2-7,5.1-7,5.1l-4.6,25.8
			l13.6,7.6c0,0,15.2-3.2,25.2-8.6C414.2,126.6,411,104.8,411,104.8z"/>
		<path class="st16" d="M405.6,101.9c-3.3,5.2-8.2,9.3-13.9,11.6c-9.9,4.3-18.9-8.6-18.9-8.6l-10,7.7c0,0-0.9,35.2,3.4,54.4
			s8.3,46.2,8.3,46.2s4.4,6.5,10.1,6.9c6.9,0.5,16.5-5,31.6-2.2c9.7,1.8,19.6,2,29.3,0.4c0,0-12.9-63-15.9-75.6
			c-3-12.6-10.7-38.4-10.7-38.4C414.5,103.2,410.1,102.4,405.6,101.9z"/>
		<path class="st7" d="M230.1,195.7C230.1,195.7,230.1,195.7,230.1,195.7c-2.3,0-4.1-1.8-4-4v-0.9h62v5L230.1,195.7z"/>
		<path class="st7" d="M248.4,133.7c1.7,0,3.3,1.1,3.9,2.7l19.7,54.4l-1.2,0.5l0.3,0.9l-45.1-1.5l-19.2-51.5c-0.2-0.5-0.3-1-0.3-1.5
			c0-2.2,1.9-4,4.1-4L248.4,133.7z"/>
		<path class="st4" d="M233.1,165.9c1.3,5.1,4,9.2,5.9,9.1s2.3-4.3,1-9.5s-4-9.2-5.9-9.1C232.2,156.6,231.7,160.8,233.1,165.9z"/>
		<path class="st17" d="M364.6,70.3c0,4-1.5,7-3.2,10.4c-0.9,1.6-1.2,3.5-0.8,5.3c0.1,0.3,0.3,0.4,0.6,0.4c1.7-0.3,3.2-0.9,4.7-1.7
			c0.6-0.2,0.2-1.2-0.4-1c-0.6,0.2-1.4,0.6-2,0.8c-1.4,0.4-1.7,0.6-1.7-0.9c-0.1-1.9,1.6-3.9,2.3-5.6c1-2.4,1.4-5.1,1.2-7.7
			c0-0.2-0.1-0.3-0.3-0.3S364.6,70.1,364.6,70.3L364.6,70.3z"/>
		<path class="st18" d="M369.9,66.6c0.8,0.2,1.7,0.3,2.5,0.3c0.9,0.1,1.8,0.2,2.7,0.3c1.1,0.2,1.4-1.8,0.3-2
			c-1.8-0.4-3.6-0.5-5.4-0.3c0,0,0,0,0,0c-0.5,0.1-0.7,0.6-0.6,1.1C369.5,66.3,369.8,66.6,369.9,66.6L369.9,66.6z"/>
		<path class="st18" d="M356.7,66.6c1.4,0.1,2.8,0.1,4.3,0.1c1.4,0.1,1.4-1.9,0-2c-1.5-0.3-3.1,0-4.4,0.8
			C356.2,65.8,356.1,66.6,356.7,66.6L356.7,66.6z"/>
		<path class="st15" d="M379.4,73.8c1.4-0.2,2.7-0.6,4.1-1.1c1.4-0.3,2.7-0.8,4-1.4c0.1-0.1,0.2-0.2,0.2-0.4c0-0.3-0.2-0.5-0.5-0.5
			c-1.4,0.1-2.8,0.5-4.1,1c-1.4,0.4-2.7,0.9-3.9,1.6C378.8,73.2,378.9,73.8,379.4,73.8L379.4,73.8z"/>
		<path class="st18" d="M369,63.3c-6.4-0.4-13.2-0.5-18.9-3.4c-2.7-1.4-5.2-3.7-5.7-6.6c-0.5-3,1.5-5.9,4.5-6.4h0.2
			c0.6,0,1.3-0.1,1.9-0.3c0.7-0.4,0.8-1.3,0.9-2.1c0.7-5.1,5-10.3,10.6-10.1c4.5,0.1,8.8,3.6,13.1,2.5c1.3-0.4,2.6-1,3.9-1.7
			c3.8-1.8,8-2.4,12.1-1.7c4.4,0.8,9,4.2,7.9,8.2c-0.4,1.3-1.4,2.5-1.5,3.8c-0.9,4.8,6.8,7.2,8.3,11.9c1.4,4.3-2.8,8.6-2.5,13
			c0.2,2.5,1.6,5.4-0.3,7.1c-1,0.9-2.7,1.2-3.4,2.3c-0.9,1.6,0.8,3.4,1,5.2c0.2,2.2-2.4,4.1-4.8,3.9c-2.4-0.3-4.4-1.9-5.3-4.1
			c-0.8-2.1-1.2-4.4-1-6.6c4.1-1.1,6.6-7.8,2.7-9.5c-2.1-0.9-4.2,1.3-5,3.2C383.7,65.8,377.3,63.4,369,63.3z"/>
		<path class="st18" d="M385.4,73.7l-4.1,9.2c-0.5,1.3-1.2,2.4-2.1,3.4c-1.7,1.2-3.9,1.6-5.9,1c-2-0.4-5.9-1.5-7.9-1.3
			c-4.7,0.4-8.1,2.7-8.4,3.2c-0.6,1.1,0.3,2.9,0.3,4.2c0.1,1.4-0.2,2.7-0.9,3.9c-0.5,0.8-1.1,1.5-1.8,2.1c-1.6,1.8-3.1,4.1-3,6.4
			c0.2,3.3,3.2,5.6,6,7.5c2.8,2.4,6.4,3.4,10,2.7c3-0.1,5.9-0.6,8.8-1.3c2.9-0.8,5.5-2.5,7.4-4.8c1.4-2.1,2.4-4.5,3-7
			c1.3-3.9,2.1-7.9,2.4-12c-0.1-3.8-0.4-7.7-1-11.5c-0.3-3.3-0.4-6.7-0.2-10.1c0-0.4,0.1-1.3-0.5-1.5c-0.6-0.1-0.4,0.9-0.5,1.3
			C386.5,70.7,386,72.2,385.4,73.7z"/>
		<path class="st8" d="M360.7,91.3c-0.6,1.4-0.3,3.1,0.8,4.2c0.5,0.5,1.2,0.8,1.9,0.8c0.7,0,1.3-0.6,1.3-1.3c0-0.3-0.1-0.5,0-0.8
			c0.2-0.2,0.4-0.3,0.6-0.2c0.9,0,2,0,2.5,0.8c0.1,0.2,0.2,0.5,0.3,0.8c0.5,0.5,1.1,0.7,1.8,0.6c1-0.1,1.9-0.3,2.8-0.6
			c0.5-0.1,0.9-0.4,1.2-0.7c0.4-0.3,0.5-0.9,0.4-1.3c-0.2-0.4-0.5-0.7-0.8-0.9C370.6,90.4,363,86.3,360.7,91.3z"/>
		<path class="st19" d="M362.2,91.2c1.9,1,4.2,1,6.1-0.1c0,0,0,0,0,0c0.2-0.1,0.3-0.4,0.2-0.6c-0.1-0.1-0.2-0.2-0.4-0.2
			c-1,0-1.9,0.4-2.8,0.4s-1.9-0.1-2.9-0.1c0,0,0,0,0,0c-0.2,0-0.3,0.2-0.3,0.4C362,91.1,362.1,91.2,362.2,91.2z"/>
		<path class="st4" d="M402.7,262.3c0,0-1.9-53.5,10-57s38.2-2.5,38.2-2.5l2.4,9.6c0,0-34.4-2.5-39.2,4.1c-4.8,6.6,0,46.4,0,46.4
			L402.7,262.3z"/>
		<path class="st8" d="M306.4,183.6l15.4-5.1l13.6,3.4c7.7-2,10.2-1.9,25.9-5.9c9.7-2.7,19.2-6.2,28.4-10.2l17.2-25.8
			c7.3,0.7,16.6,15.5,16.6,15.5S402.6,184,396.6,186s-51.5,7.2-66.8,5.5c-4.8-0.6-13.4-5.8-13.4-5.8l-7.8,1.9l-9.5,6.4l-1.6-1.4
			l3.8-4.1L306.4,183.6z"/>
		<path class="st11" d="M418.9,104.2c0,0,20.5,3.3,20.3,20.9c-0.2,11.4-16,32.8-16,32.8s-8.6-11.9-19.2-15.2c0,0,8.3-16.2,8.9-22.9
			C413.6,113.1,418.9,104.2,418.9,104.2z"/>
		<path class="st7" d="M276.1,195.7c-2.2,0-4-1.8-4-4v-0.9h62v5L276.1,195.7z"/>
		<rect x="307.6" y="192.4" class="st3" width="20.7" height="1.6"/>
		<rect x="301.4" y="192.4" class="st3" width="3.1" height="1.6"/>
		<polygon class="st15" points="177.2,174.8 174.5,154.2 175.5,150.5 177.7,153.6 180.3,174.5 		"/>
		<polygon class="st15" points="190.7,176.1 193.7,155.6 195.7,152.3 196.9,155.9 193.7,176.7 		"/>
		<polygon class="st15" points="181.3,177.7 181.6,156.7 183.4,153.4 184.9,156.7 184.6,177.7 		"/>
		<polygon class="st11" points="193.8,198 177.9,198 175,171.6 195.9,171.6 		"/>
		<polygon class="st20" points="399.1,397.3 402.9,397.3 360,210.7 351.9,210.7 		"/>
		<polygon class="st20" points="282.9,395.4 286.7,395.4 314.3,210.7 306.2,210.7 		"/>
		<polygon class="st20" points="225,396.5 228.9,396.5 198.5,210.7 190.4,210.7 		"/>
		<polygon class="st20" points="118.2,394.5 122,394.5 158.5,210.7 150.4,210.7 		"/>
		<rect x="298.6" y="200.3" class="st1" width="84.3" height="10.4"/>
		<rect x="117" y="202.3" class="st15" width="185.6" height="8.4"/>
		<rect x="186.1" y="195.3" class="st15" width="215.2" height="11.2"/>
		<rect x="88.8" y="195.3" class="st21" width="199.6" height="11.2"/>
		<path class="st22" d="M263.2,154.9c15.7,2.4,31.1-9.7,36.7-24.6s3.3-31.7-1.6-46.8c-2.9-8.9-6.6-18-5.4-27.2s10-18.3,19-15.8
			c2.3,0.7,4.6,2.2,5.3,4.5c0.8,2.8-0.9,5.8-3.3,7.4s-5.4,2-8.3,2.2c-19.6,1.2-38.8-5.4-53.6-18.3"/>
		<path class="st0" d="M74.7,307.4c6.7,0,12.2,5.7,12.2,12.8S81.4,333,74.7,333s-12.2-5.7-12.2-12.8C62.5,313.2,68,307.4,74.7,307.4
			z"/>
		<path class="st0" d="M104.9,310c0-3.5,2.9-6.4,6.4-6.4l0,0c3.5,0,6.4,2.9,6.4,6.4c0,3.5-2.9,6.4-6.4,6.4
			C107.8,316.4,104.9,313.5,104.9,310C104.9,310,104.9,310,104.9,310z"/>
		<path class="st1" d="M591.6,336c-0.8,0.8-1.9,1.3-3.1,1.3c-2.4,0-4.4-2-4.4-4.4c0-2.4,2-4.4,4.4-4.4c2.4,0,4.4,2,4.4,4.4
			C592.9,334,592.5,335.2,591.6,336z M587.5,333.9c0.6,0.5,1.4,0.5,2,0c0.2-0.3,0.4-0.6,0.4-1c0-0.4-0.1-0.7-0.4-1
			c-0.6-0.5-1.4-0.5-2,0c-0.3,0.3-0.4,0.6-0.4,1C587.1,333.2,587.2,333.6,587.5,333.9z"/>
	</g>
</g>
</svg>
