<?xml version="1.0" encoding="utf-8"?>
<!-- Generator: Adobe Illustrator 24.0.1, SVG Export Plug-In . SVG Version: 6.00 Build 0)  -->
<svg version="1.1" id="Capa_1" xmlns="http://www.w3.org/2000/svg" xmlns:xlink="http://www.w3.org/1999/xlink" x="0px" y="0px"
	 viewBox="0 0 609.1 445.8" style="enable-background:new 0 0 609.1 445.8;" xml:space="preserve">
<style type="text/css">
	.st0{fill:#A092C6;}
	.st1{fill:#159E84;}
	.st2{fill:#32B196;}
	.st3{fill:#FFFFFF;}
	.st4{fill:#CFE1E9;}
	.st5{fill:#5C3289;}
	.st6{fill:#472680;}
	.st7{fill:#E8514E;}
	.st8{fill:#8F599F;}
	.st9{opacity:0.34;fill:#DFD5EB;enable-background:new    ;}
	.st10{fill:none;stroke:#A092C6;stroke-width:2.58;stroke-linecap:round;stroke-miterlimit:10;}
	.st11{fill:none;stroke:#A092C6;stroke-width:2.58;stroke-linecap:round;stroke-miterlimit:10;stroke-dasharray:10.1373,10.1373;}
	.st12{fill:none;stroke:#32B196;stroke-width:11.6504;stroke-linecap:round;stroke-linejoin:round;stroke-miterlimit:10;}
	.st13{fill:#5F2811;}
	.st14{opacity:0.43;fill:#5F2811;enable-background:new    ;}
	.st15{fill:#FCCBB9;}
	.st16{opacity:0.47;fill:#F0817A;enable-background:new    ;}
	.st17{fill:#48B9B6;}
	.st18{fill:#65270F;}
	.st19{fill:#863B15;}
	.st20{fill:#BF2685;}
	.st21{fill:#412B7F;}
	.st22{opacity:0.36;fill:#412B7F;enable-background:new    ;}
	.st23{fill:#DFD5EB;}
	.st24{fill:#241F47;}
	.st25{fill:#60BCA6;}
	.st26{fill:#B79FCC;}
	.st27{fill:#EEE9F5;}
	.st28{fill:#DAC9E4;}
	.st29{fill:#4E368B;}
	.st30{fill-rule:evenodd;clip-rule:evenodd;fill:#A092C6;}
	.st31{fill-rule:evenodd;clip-rule:evenodd;fill:#FFFFFF;}
	.st32{fill-rule:evenodd;clip-rule:evenodd;fill:#32B196;}
	.st33{fill-rule:evenodd;clip-rule:evenodd;fill:#E8514E;}
	.st34{fill-rule:evenodd;clip-rule:evenodd;fill:#8F599F;}
	.st35{fill-rule:evenodd;clip-rule:evenodd;fill:#F5ED80;}
	.st36{fill:#6158A1;}
	.st37{fill:#88CBCA;}
	.st38{opacity:0.5;fill:#CAC9E6;enable-background:new    ;}
	.st39{fill:#F5ED80;}
	.st40{fill:#EBE8EC;}
	.st41{fill:#ECD0A1;}
	.st42{fill:#1E2322;}
	.st43{fill:#DDBB8A;}
	.st44{fill:#FED976;}
	.st45{fill:#28243F;}
	.st46{fill:#333049;}
	.st47{fill:#3F2A3F;}
	.st48{fill:#F2B10F;}
	
		.st49{opacity:0.83;fill:none;stroke:#DEDFE0;stroke-width:13.7855;stroke-linecap:round;stroke-linejoin:round;stroke-miterlimit:10;enable-background:new    ;}
	.st50{opacity:0.34;fill:#E1D7FF;enable-background:new    ;}
	.st51{fill:#004051;}
	.st52{opacity:0.3;fill:#061719;}
	.st53{fill:#00314E;}
	.st54{fill:#BDC2C6;}
	.st55{fill:#FDD7C8;}
	.st56{fill:#D57A7A;}
	.st57{fill:#AC5555;}
	.st58{fill:#008B91;}
	.st59{fill:#00A0A0;}
	.st60{fill:#F2BFB1;}
	.st61{fill:#162D3A;}
	.st62{fill:#E3BCAF;}
	.st63{fill:#13384F;stroke:#000000;stroke-width:0.3613;stroke-linecap:round;stroke-linejoin:round;stroke-miterlimit:10;}
	.st64{fill:#FFC2C2;}
	.st65{fill:#F9C4B7;}
	.st66{fill:#FFD4D4;}
	.st67{fill:#CAC0E0;fill-opacity:0.65;}
	
		.st68{fill:none;stroke:#32B196;stroke-width:0.7572;stroke-linecap:round;stroke-linejoin:round;stroke-miterlimit:10;stroke-dasharray:3.0286;}
	.st69{fill:none;stroke:#32B196;stroke-width:0.7572;stroke-linecap:round;stroke-linejoin:round;}
	.st70{fill:none;stroke:#32B196;stroke-width:0.7572;stroke-linecap:round;stroke-linejoin:round;stroke-dasharray:3.0362,3.0362;}
	.st71{fill:none;stroke:#32B196;stroke-width:0.7572;stroke-linecap:round;stroke-linejoin:round;stroke-dasharray:3.0414,3.0414;}
</style>
<g>
	<line class="st49" x1="22.2" y1="413.8" x2="579.3" y2="413.8"/>
	<g>
		<path class="st50" d="M35.3,203.7c-5.1,5.1-13.2,5.3-18.1,0.5c-4.9-4.9-4.7-13,0.5-18.1c5.1-5.1,13.2-5.3,18.1-0.5
			C40.6,190.4,40.4,198.5,35.3,203.7z"/>
		<path class="st50" d="M12.1,165.6c-2.6,2.6-6.7,2.6-9.3,0c-2.6-2.6-2.6-6.7,0-9.3c2.6-2.6,6.7-2.6,9.3,0
			C14.6,158.9,14.6,163,12.1,165.6z"/>
	</g>
	<g>
		<ellipse class="st50" cx="554.7" cy="207.7" rx="12.5" ry="13.1"/>
		<path class="st50" d="M575.7,174.9c0,3.6-2.9,6.6-6.6,6.6c-3.6,0-6.6-2.9-6.6-6.6c0-3.6,2.9-6.6,6.6-6.6
			C572.8,168.3,575.7,171.3,575.7,174.9z"/>
		<circle class="st50" cx="583.6" cy="199.8" r="6.6"/>
	</g>
	<path class="st2" d="M599,367.3c-1.1-1.1-1.5-2.4-1.5-3.8c0-3,2.5-5.4,5.4-5.4c3,0,5.4,2.5,5.4,5.4c0,3-2.5,5.4-5.4,5.4
		C601.4,368.9,600,368.3,599,367.3z M604,362.3c-0.3-0.3-0.7-0.6-1.2-0.5c-1,0-1.8,0.8-1.7,1.7c0,0.4,0.1,0.8,0.5,1.2
		c0.4,0.4,0.8,0.5,1.2,0.5c1,0,1.8-0.8,1.7-1.7C604.5,363,604.3,362.5,604,362.3z"/>
	<path class="st2" d="M474.5,321.5c-1.1-1.1-1.5-2.4-1.5-3.8c0-3,2.5-5.4,5.4-5.4c3,0,5.4,2.5,5.4,5.4c0,3-2.5,5.4-5.4,5.4
		C476.9,323,475.5,322.5,474.5,321.5z M479.6,316.4c-0.3-0.3-0.7-0.6-1.2-0.5c-1,0-1.8,0.8-1.7,1.7c0,0.4,0.1,0.8,0.5,1.2
		s0.8,0.5,1.2,0.5c1,0,1.8-0.8,1.7-1.7C480.1,317.2,479.9,316.7,479.6,316.4z"/>
	<path class="st8" d="M589.4,229.9l-0.8-0.8l0.8-0.8c0.7-0.7,0.8-1.9,0-2.7s-1.9-0.8-2.7,0l-0.8,0.8l-0.8-0.8
		c-0.7-0.7-1.9-0.8-2.7,0c-0.7,0.7-0.8,1.9,0,2.7l0.8,0.8l-0.8,0.8c-0.7,0.7-0.8,1.9,0,2.7c0.8,0.8,1.9,0.8,2.7,0l0.8-0.8l0.8,0.8
		c0.7,0.7,1.9,0.8,2.7,0C590.1,231.9,590.1,230.6,589.4,229.9z"/>
	<path class="st2" d="M37.1,109.9c1.1,1,1.7,2.3,1.8,3.7c0.2,3-2.2,5.5-5.1,5.7c-3,0.2-5.5-2.2-5.7-5.1c-0.2-3,2.2-5.5,5.1-5.7
		C34.7,108.4,36.1,108.9,37.1,109.9z M32.4,115.2c0.3,0.3,0.7,0.5,1.2,0.4c1-0.1,1.7-0.9,1.6-1.8c0-0.4-0.2-0.8-0.6-1.2
		s-0.8-0.4-1.2-0.4c-1,0.1-1.7,0.9-1.6,1.8C31.8,114.4,32.1,114.9,32.4,115.2z"/>
	<path class="st8" d="M58.2,126.4l0.9,0.8l-0.8,0.9c-0.7,0.7-0.7,1.9,0.1,2.7c0.8,0.7,1.9,0.7,2.7-0.1l0.8-0.9l0.9,0.8
		c0.7,0.7,1.9,0.7,2.7-0.1c0.7-0.7,0.7-1.9-0.1-2.7l-0.9-0.8l0.8-0.9c0.7-0.7,0.7-1.9-0.1-2.7c-0.8-0.7-1.9-0.7-2.7,0.1l-0.8,0.9
		l-0.9-0.8c-0.7-0.7-1.9-0.7-2.7,0.1C57.4,124.5,57.5,125.7,58.2,126.4z"/>
	<path class="st8" d="M40.7,364l-0.8-0.8l0.8-0.8c0.7-0.7,0.8-1.9,0-2.7c-0.8-0.8-1.9-0.8-2.7,0l-0.8,0.8l-0.8-0.8
		c-0.7-0.7-1.9-0.8-2.7,0c-0.7,0.7-0.8,1.9,0,2.7l0.8,0.8l-0.8,0.8c-0.7,0.7-0.8,1.9,0,2.7c0.8,0.8,1.9,0.8,2.7,0l0.8-0.8l0.8,0.8
		c0.7,0.7,1.9,0.8,2.7,0C41.4,365.9,41.4,364.7,40.7,364z"/>
	<path class="st8" d="M492.7,290.1l-0.8-0.8l0.8-0.8c0.7-0.7,0.8-1.9,0-2.7c-0.8-0.8-1.9-0.8-2.7,0l-0.8,0.8l-0.8-0.8
		c-0.7-0.7-1.9-0.8-2.7,0c-0.7,0.7-0.8,1.9,0,2.7l0.8,0.8l-0.8,0.8c-0.7,0.7-0.8,1.9,0,2.7c0.8,0.8,1.9,0.8,2.7,0l0.8-0.8l0.8,0.8
		c0.7,0.7,1.9,0.8,2.7,0C493.4,292.1,493.4,290.8,492.7,290.1z"/>
	<g>
		<g>
			<rect x="263.8" y="324.8" class="st51" width="137.7" height="10.3"/>
			<rect x="263.8" y="324.8" class="st52" width="137.7" height="10.3"/>
			<rect x="328.6" y="287.2" class="st53" width="11.6" height="124"/>
			<rect x="328.6" y="291.1" class="st52" width="11.6" height="17.3"/>
			<rect x="393.8" y="287.2" class="st53" width="11.6" height="127.6"/>
			<rect x="393.8" y="291.1" class="st52" width="11.6" height="17.3"/>
			<rect x="257.5" y="287.2" class="st53" width="11.6" height="127.6"/>
			<rect x="257.5" y="291.1" class="st52" width="11.6" height="17.3"/>
			<rect x="184.3" y="65.6" class="st54" width="286.5" height="234.3"/>
			<rect x="193.1" y="74.1" class="st3" width="271.5" height="216"/>
			<rect x="241.9" y="63.4" class="st53" width="176.1" height="12.9"/>
			<rect x="298.4" y="58.8" class="st53" width="63" height="10.1"/>
		</g>
	</g>
	<path class="st2" d="M480.4,72.3c-1.1-1.1-1.5-2.4-1.5-3.8c0-3,2.5-5.4,5.4-5.4c3,0,5.4,2.5,5.4,5.4c0,3-2.5,5.4-5.4,5.4
		C482.7,73.8,481.3,73.2,480.4,72.3z M485.4,67.2c-0.3-0.3-0.7-0.6-1.2-0.5c-1,0-1.8,0.8-1.7,1.7c0,0.4,0.1,0.8,0.5,1.2
		c0.4,0.4,0.8,0.5,1.2,0.5c1,0,1.8-0.8,1.7-1.7C485.9,68,485.7,67.5,485.4,67.2z"/>
	<path class="st8" d="M463.8,50.9l-0.8-0.8l0.8-0.8c0.7-0.7,0.8-1.9,0-2.7c-0.8-0.8-1.9-0.8-2.7,0l-0.8,0.8l-0.8-0.8
		c-0.7-0.7-1.9-0.8-2.7,0c-0.7,0.7-0.8,1.9,0,2.7l0.8,0.8l-0.8,0.8c-0.7,0.7-0.8,1.9,0,2.7c0.8,0.8,1.9,0.8,2.7,0l0.8-0.8l0.8,0.8
		c0.7,0.7,1.9,0.8,2.7,0C464.5,52.9,464.5,51.7,463.8,50.9z"/>
	<path class="st8" d="M490.8,43.1l-0.8-0.8l0.8-0.8c0.7-0.7,0.8-1.9,0-2.7c-0.8-0.8-1.9-0.8-2.7,0l-0.8,0.8l-0.8-0.8
		c-0.7-0.7-1.9-0.8-2.7,0c-0.7,0.7-0.8,1.9,0,2.7l0.8,0.8l-0.8,0.8c-0.7,0.7-0.8,1.9,0,2.7c0.8,0.8,1.9,0.8,2.7,0l0.8-0.8l0.8,0.8
		c0.7,0.7,1.9,0.8,2.7,0C491.5,45.1,491.5,43.8,490.8,43.1z"/>
	<path class="st2" d="M164.6,46.9c-1.1-1.1-1.5-2.4-1.5-3.8c0-3,2.5-5.4,5.4-5.4c3,0,5.4,2.5,5.4,5.4c0,3-2.5,5.4-5.4,5.4
		C167,48.4,165.6,47.9,164.6,46.9z M169.7,41.8c-0.3-0.3-0.7-0.6-1.2-0.5c-1,0-1.8,0.8-1.7,1.7c0,0.4,0.1,0.8,0.5,1.2
		s0.8,0.5,1.2,0.5c1,0,1.8-0.8,1.7-1.7C170.2,42.6,170,42.1,169.7,41.8z"/>
	<g>
		<g>
			<g>
				<polygon class="st55" points="159.7,379.8 166.5,404.9 176.3,406.7 170.2,379.7 				"/>
				<path class="st56" d="M175.4,394.1c0,0,5.3,4.3,12.2,4.9c6.9,0.6,13.3,1.8,13.5,5.5c0,0-9,6.1-25.9,4.2l0.3,1.5l-10.5,1.5
					l-2.3-12.6l8.8-1l-0.9-1.1L175.4,394.1z"/>
				<g>
					<path class="st57" d="M182.1,407.6c14.9,0.7,17.8-3.6,18.6-4c0.1,0.3,0.2,0.6,0.3,0.9c0,0-9,6.1-25.9,4.2l0.3,1.5l-10.5,1.5
						l-0.5-2.5C168.2,408.7,171.2,407.1,182.1,407.6z"/>
				</g>
				<g>
					<path class="st57" d="M175.2,401.7c0.1,0,0.3-0.1,0.3-0.3c1.6-3.3,3.9-4.5,3.9-4.5c0.2-0.1,0.3-0.4,0.2-0.6
						c-0.1-0.2-0.4-0.3-0.6-0.1c-0.1,0.1-2.5,1.4-4.3,4.9c-0.1,0.2,0,0.5,0.2,0.6C175.1,401.7,175.2,401.7,175.2,401.7z"/>
				</g>
				<g>
					<path class="st57" d="M177.8,402.2c0.1,0,0.3-0.1,0.3-0.3c1.6-3.3,3.9-4.5,3.9-4.5c0.2-0.1,0.3-0.4,0.2-0.6
						c-0.1-0.2-0.4-0.3-0.6-0.1c-0.1,0.1-2.5,1.4-4.3,4.9c-0.1,0.2,0,0.5,0.2,0.6C177.6,402.2,177.7,402.2,177.8,402.2z"/>
				</g>
			</g>
			<g>
				<polygon class="st55" points="97.4,382.1 99.1,408 108.4,411.7 107.7,384 				"/>
				<path class="st56" d="M110,399.2c0,0,4.3,5.3,11,7.2c6.7,2,12.7,4.4,12.1,8c0,0-10.1,4.2-26.2-1l0,1.5l-10.6-0.6l0.3-12.8
					l8.8,0.7l-0.6-1.3L110,399.2z"/>
				<g>
					<path class="st57" d="M113.9,413.7c14.4,3.7,18.2,0,19.1-0.3c0.1,0.3,0.1,0.6,0.1,1c0,0-10.1,4.2-26.2-1l0,1.5l-10.6-0.6
						l0.1-2.5C100.1,412.1,103.3,411,113.9,413.7z"/>
				</g>
				<g>
					<path class="st57" d="M108.3,406.6c0.2,0,0.3-0.1,0.4-0.2c2.2-2.9,4.7-3.7,4.7-3.7c0.2-0.1,0.4-0.3,0.3-0.5
						c-0.1-0.2-0.3-0.3-0.6-0.3c-0.1,0-2.8,0.9-5.2,4c-0.1,0.2-0.1,0.5,0.1,0.6C108.2,406.5,108.2,406.6,108.3,406.6z"/>
				</g>
				<g>
					<path class="st57" d="M110.7,407.6c0.2,0,0.3-0.1,0.4-0.2c2.2-2.9,4.7-3.7,4.7-3.7c0.2-0.1,0.4-0.3,0.3-0.5
						c-0.1-0.2-0.3-0.3-0.6-0.3c-0.1,0-2.8,0.9-5.2,4c-0.1,0.2-0.1,0.5,0.1,0.6C110.6,407.6,110.7,407.6,110.7,407.6z"/>
				</g>
			</g>
			<g>
				<path class="st58" d="M90.2,229.6c0,0-1.2,133.9,5.2,160.4c0,0,11.2,5.8,18.7-1.2c0,0,1.5-106.4,1.6-121h9.9
					c0,0,29.8,113,32.6,118.2c0,0,10.2,1.2,17.6-4.9l-30.4-157L90.2,229.6z"/>
				<g>
					<path class="st57" d="M105.4,238.3c4.8,0.9,10.2,1.7,16,2c5.8,0.3,10.7,0,14.6-0.5c0.2,1.5,0.4,3,0.6,4.5
						c-4.7,0.6-10.3,1.1-16.1,0.9c-5.4-0.1-11-1-15.9-2.1C104.8,241.5,105,239.9,105.4,238.3z"/>
					<path class="st57" d="M100.3,237.3c-0.3,1.5-0.6,3.1-0.7,4.7c-5.9-1.6-10-3.1-10-3.1l-0.3-4.6
						C89.3,234.2,93.6,235.7,100.3,237.3z"/>
					<path class="st57" d="M141.1,238.9c4.5-1,6.9-2.1,6.9-2.1l1.2,5.2c0,0-2.9,0.7-7.4,1.5C141.5,242,141.3,240.4,141.1,238.9z"/>
				</g>
				<path class="st59" d="M116.2,390c0,0-9.8,6.4-23.1,0.9l-0.6-8.1c0,0,11.3,3.5,24,0.6L116.2,390z"/>
				<path class="st59" d="M179,383.5c0,0-7.3,8.7-21,7l-2.8-7.6c0,0,11.3,0.3,22.2-5.8L179,383.5z"/>
			</g>
		</g>
		<g>
			<path class="st13" d="M100,112.8c0,0,2.5,10.7,6.6,12.7c4.1,1.9,0.3-13.2,0.3-13.2L100,112.8z"/>
			<polygon class="st60" points="108.3,116.9 108.4,143.3 120.1,161.4 128.2,143.2 127.3,123.3 			"/>
			<path class="st15" d="M116.8,78.7c-12.8,2.7-12.6,11.2-12.6,11.2s-0.8,4.9-0.7,12.7c-1.2-1.6-3.2-2.3-5.2-1.4
				c-4.4,1.8-1.3,15,5.3,13.9c0.2,3.7,1.8,8.2,2.3,9.2c1.8,3.8,9.9,9.6,17.2,10.5c7.2,1,16.7-3.8,17.5-12
				c1.1-11.4-0.7-39.8-0.7-39.8S138,74.3,116.8,78.7z"/>
			<path class="st61" d="M120.3,104.3c0,1.7-0.6,3-1.4,3c-0.8,0-1.3-1.4-1.3-3.1c0-1.7,0.6-3,1.4-3
				C119.7,101.2,120.3,102.6,120.3,104.3z"/>
			<path class="st61" d="M134.9,104c0,1.7-0.6,3-1.4,3c-0.8,0-1.3-1.4-1.3-3.1c0-1.7,0.6-3,1.4-3C134.3,100.9,134.9,102.3,134.9,104
				z"/>
			<path class="st13" d="M111.4,85.6c-3.3,0-8.6-0.2-12-0.3c0,0,0,0,0,0.1c0.5,1.4,0.4,15.6,0.4,15.6c3.3,0.2,3.1,3.1,3.1,3.1l0.4,6
				l3.3-0.3l0.3-12.7c2.3-1.2,3-3.2,3-3.2S110.9,87.8,111.4,85.6z"/>
			<g>
				<path class="st62" d="M129.1,99.3c1.1,2.8,1.9,5.6,2.7,8.5c0.3,1.4,0.7,2.9,1,4.3c0.3,1.4,0.6,2.9,0.8,4.4l0.1,0.5l-0.4,0.2
					c-1.5,0.7-3,1.4-4.7,2c1.3-1.1,2.6-2.1,4-3.1l-0.3,0.7c-0.4-1.4-0.8-2.9-1.1-4.3c-0.3-1.4-0.6-2.9-0.9-4.3
					C129.7,105.2,129.3,102.3,129.1,99.3z"/>
			</g>
			<g>
				<path class="st13" d="M113.2,96.5c0.4-1.1,1.2-1.9,2.1-2.5c0.9-0.6,2-0.9,3.2-0.9c1.1,0,2.3,0.3,3.3,1c1,0.6,1.6,1.6,1.9,2.7
					c-1.2-0.1-2.1-0.2-2.9-0.2c-0.8-0.1-1.5-0.1-2.3-0.1c-0.7,0-1.5,0-2.4,0.1C115.3,96.5,114.4,96.5,113.2,96.5z"/>
			</g>
			<g>
				<path class="st13" d="M130.7,97c0.1-1.1,0.7-2,1.5-2.6c0.8-0.7,1.9-1.1,3.1-1.1c1.1,0,2.3,0.5,3,1.3c0.4,0.3,0.7,0.8,0.9,1.3
					c0.2,0.5,0.3,1,0.3,1.5c-0.6-0.1-1-0.2-1.4-0.3c-0.4-0.1-0.8-0.2-1.1-0.2c-0.7-0.2-1.2-0.2-1.8-0.2c-0.5,0-1.1,0-1.9,0.1
					L130.7,97z"/>
			</g>
			<path class="st3" d="M133.5,122.1l-15.4-1.9C118.1,120.2,124.1,130.9,133.5,122.1z"/>
			<path class="st13" d="M96.4,73.4c4-4.5,8.7-3.4,11.3-2.2c0.6-0.7,1.2-1.4,1.9-2.2c9.4-9.9,19.5,1.7,25.3,3.3
				c5.8,1.7,9.9-4.1,9.9-4.1c3,8.5-3.6,12.9-3.6,12.9l4.4,0.3c-12.1,7.7-25.3,4.4-25.3,4.4l4.4,2.8c-7.4,1.9-14.3-1.9-14.3-1.9
				l-7.2,16c-5.2-4.1-6.3,0-6.3,0S90.6,80,96.4,73.4z"/>
		</g>
		<g>
			<g>
				<path class="st15" d="M217,166.4c0,0-1.9-4.2-5.3-0.5c-3.4,3.6-2.5,7.4-2.5,7.4L217,166.4z"/>
				<path class="st15" d="M176.4,186c0,0,16.4-5.2,26.8-11.8l0-0.1c0,0,10.7-8.5,13.4-9.9c5.3-2.7,5.6,1.1,5.6,1.1s-0.1,8.5-2.7,10
					c-1.2,0.7-4.2,2.7-7.1,4.6c-6.9,5.3-30.8,23.4-41,26.7c0,0-11.8-8.7-19.7-27.7C149.8,174.1,176.4,186,176.4,186z"/>
				<polygon class="st63" points="207.8,174.7 274.5,119.3 275.4,120 208.5,175.5 				"/>
				<path class="st15" d="M215.2,163.1c0,0,3.6-0.4,4.1,3.6c0.5,4.1-4.2-0.9-4.2-0.9s2.2,0.6-1.9,4.2c-4,3.6-3.6-0.9-3.6-0.9
					l0.6-1.2"/>
				<path class="st64" d="M155.2,148.5c0,0,13.2,17.6,21.5,36.6c0,0-2.2,12.1-10.6,17.6l-19.3-26.4L155.2,148.5z"/>
				<path class="st65" d="M175.4,185.6c0.6,0.3,1,0.5,1,0.5s0.9-0.3,2.4-0.8c0,6.8-1.5,13.4-3.8,19.9c-1.3,0.6-2.5,1.1-3.6,1.5
					c0,0-2.8-2.1-6.6-6.4C168.4,195.3,171.9,190.4,175.4,185.6z"/>
				<path class="st66" d="M178.8,184.4c0,0-5.1,16.9-12.7,21.4c0,0-4.5-5.4-6.6-9.8l15.1-17.3C174.6,178.7,177.9,181.7,178.8,184.4z
					"/>
			</g>
			<g>
				<path class="st64" d="M89,230.7c0,0,30.1,14.5,58.7,4.3c0,0,5.9-54.4,7.5-86.6c0,0-12.2-3.5-27.2-5.2l-2.6-1.9l-4.9,11.3
					l-6.9-11.6c0,0-1.1,1.5-2,1.5c-9.1,0.5-20,2.7-28.7,5C82.8,147.6,85.3,206.3,89,230.7z"/>
				<polygon class="st66" points="101.4,144 111.2,153.5 113.6,141.1 106.5,135.4 				"/>
				<polygon class="st66" points="136.1,146.1 130.7,154.4 125.4,141.4 131.6,138.9 				"/>
				<path class="st66" d="M118.6,157.7c0,0.8,0.6,1.4,1.4,1.4s1.4-0.6,1.4-1.4c0-0.8-0.6-1.4-1.4-1.4S118.6,156.9,118.6,157.7z"/>
				<path class="st66" d="M119.9,176.7c0,0.8,0.6,1.4,1.4,1.4s1.4-0.6,1.4-1.4c0-0.8-0.6-1.4-1.4-1.4S119.9,175.9,119.9,176.7z"/>
				<path class="st66" d="M120.9,195.7c0,0.8,0.6,1.4,1.4,1.4s1.4-0.6,1.4-1.4c0-0.8-0.6-1.4-1.4-1.4S120.9,194.9,120.9,195.7z"/>
				<path class="st66" d="M120.7,214.6c0,0.8,0.6,1.4,1.4,1.4c0.8,0,1.4-0.6,1.4-1.4c0-0.8-0.6-1.4-1.4-1.4
					C121.4,213.2,120.7,213.9,120.7,214.6z"/>
				<path class="st66" d="M120.4,233.6c0,0.8,0.6,1.4,1.4,1.4c0.8,0,1.4-0.6,1.4-1.4c0-0.8-0.6-1.4-1.4-1.4
					C121,232.2,120.4,232.8,120.4,233.6z"/>
			</g>
			<g>
				<path class="st15" d="M51.6,202.9c0,0,2.1-11.7,4.8-16C59,182.6,69.5,200,69.5,200c11.8,17.4,13.1,22,18.2,28.8
					c1.2-1.5,4.4-5.1,6.8-4.2c0,0,16.1,10,1.3,3.1c0,0,9.9,14-2.1,0.9c0,0,7.8,16.8-2.1,1.8c0,0,8.4,16-1.1,3.2c0,0-0.2,5.9-4.9,4
					c-1.2-0.5-3.2-1.9-5.5-3.8C73.7,229,54.5,213,51.6,202.9z"/>
				<path class="st65" d="M51.7,203.4c-0.1-0.2-0.1-0.3-0.2-0.5c0,0,2.1-11.7,4.8-16C59,182.6,69.5,200,69.5,200
					c1,1.5,1.9,2.9,2.8,4.2C68.5,205.1,60.7,206.4,51.7,203.4z"/>
				<path class="st64" d="M75,149.6c0,0-14.8,24.4-21.2,40.2c0,0,9.3,8.8,18.1,9.9l19.5-26.9l-7.9-25.5L75,149.6z"/>
				<path class="st66" d="M71.7,203.4c0,0-14.2,2.7-20.4-3.7c0,0-0.6-9.1,3.3-12.1l20.8,9.5C75.4,197.1,74.1,201.9,71.7,203.4z"/>
			</g>
		</g>
	</g>
	<g>
		<g>
			<circle class="st67" cx="243.2" cy="228.7" r="27.4"/>
			<g>
				<g>
					<g>
						<path class="st8" d="M263.3,207.4h-32.7c-0.4,0-0.7,0.3-0.7,0.7c0,0.4,0.3,0.7,0.7,0.7h32.7c1.8,0,3.3,1.5,3.3,3.3v26.3
							c0,1.8-1.5,3.3-3.3,3.3H223c-1.8,0-3.3-1.5-3.3-3.3v-26.3c0-1.8,1.5-3.3,3.3-3.3h4.6c0.4,0,0.7-0.3,0.7-0.7
							c0-0.4-0.3-0.7-0.7-0.7H223c-2.6,0-4.7,2.1-4.7,4.7v26.3c0,2.6,2.1,4.7,4.7,4.7h11.9l-1.4,4.7h-2.7c-1.4,0-2.5,1.1-2.5,2.5
							c0,1.4,1.1,2.5,2.5,2.5h24.8c1.4,0,2.5-1.1,2.5-2.5c0-1.4-1.1-2.5-2.5-2.5h-2.7l-1.4-4.7h11.9c2.6,0,4.7-2.1,4.7-4.7v-26.3
							C268,209.6,265.9,207.4,263.3,207.4z M256.6,250.4c0,0.6-0.5,1-1,1h-24.8c-0.6,0-1-0.5-1-1c0-0.6,0.5-1,1-1h24.8
							C256.2,249.4,256.6,249.9,256.6,250.4z M251.3,247.9H235l1.4-4.7h13.4L251.3,247.9z"/>
						<path class="st8" d="M263.4,231.5c0.4,0,0.7-0.3,0.7-0.7v-18.6c0-0.4-0.4-0.8-0.8-0.8H223c-0.4,0-0.8,0.4-0.8,0.8v24.1
							c0,0.4,0.3,0.7,0.7,0.7h40.4c0.4,0,0.7-0.3,0.7-0.7v-2.5c0-0.4-0.3-0.7-0.7-0.7c-0.4,0-0.7,0.3-0.7,0.7v1.8h-38.9v-22.7h38.9
							v17.9C262.6,231.2,262.9,231.5,263.4,231.5z"/>
						<path class="st8" d="M243.8,238.8c-0.2-0.2-0.5-0.4-0.8-0.3c-0.3,0.1-0.6,0.3-0.6,0.7c-0.1,0.7,0.8,1.1,1.2,0.6
							C243.9,239.5,244,239.1,243.8,238.8z"/>
					</g>
				</g>
			</g>
		</g>
		<g>
			<circle class="st67" cx="328.1" cy="228.7" r="27.4"/>
			<g>
				<g>
					<g>
						<path class="st8" d="M326.4,238.8c-0.3,0.3-0.3,0.8,0,1.1c0.3,0.3,0.8,0.3,1.1,0c0.3-0.3,0.3-0.8,0-1.1
							C327.2,238.5,326.7,238.5,326.4,238.8z"/>
						<path class="st8" d="M345.7,237.5l-5.7-4.9c0,0-0.1,0-0.1-0.1c-1.5-1-3.4-0.7-4.7,0.5l-3.1,3.1c-0.2,0.2-0.5,0.3-0.8,0.2
							c-3.5-1.5-6.4-3.6-8.6-6.5c-1.7-2.2-2.3-3.9-2.3-4.2c0-0.1,0-0.1,0-0.2c-0.1-0.3-0.1-0.6,0.2-0.8l3.1-3.1
							c1.3-1.3,1.5-3.2,0.5-4.7c0,0,0,0,0,0l-4.1-5.7c-1.3-2-4.1-2.3-5.8-0.6l-0.6,0.6c0,0,0,0,0,0l-2.2,2.2
							c-2.7,2.7-3.1,6.6-1.3,11.5c1.6,4.2,4.7,8.8,8.8,12.9c4.2,4.2,8.9,7.4,13.3,9c4.3,1.6,8.8,1.8,12-1.5l2.1-2.1
							C347.9,241.6,347.6,238.8,345.7,237.5z M339,233.8l5.7,4.8c0,0,0.1,0,0.1,0.1c1.2,0.8,1.4,2.5,0.4,3.5l-0.2,0.2l-9.7-7.3
							l0.9-0.9C337,233.4,338.1,233.3,339,233.8z M318.7,212C318.7,212,318.7,212,318.7,212l4.1,5.8c0.6,0.9,0.4,2-0.3,2.8l-0.9,0.9
							l-6.6-9.7l0.2-0.2C316.2,210.6,317.9,210.8,318.7,212z M332.6,245.4c-4.1-1.5-8.6-4.6-12.7-8.7c-4-4-7-8.4-8.5-12.4
							c-1.1-3-1.9-7.2,0.9-9.9l1.6-1.6l6.6,9.7l-1.1,1.1c-0.6,0.6-0.8,1.6-0.5,2.4c0.2,1,1.3,3,2.4,4.5c1.6,2.2,4.6,5.2,9.4,7.2
							c0.8,0.4,1.8,0.2,2.5-0.5l1.1-1.1l9.7,7.3l-0.9,0.9C340.1,247.3,335.8,246.6,332.6,245.4z"/>
						<path class="st8" d="M325,237c-0.8-0.7-2.2-1.9-2.9-2.6c-1.8-1.8-3.6-4-4.7-5.6c-0.2-0.3-0.7-0.4-1-0.2
							c-0.3,0.2-0.4,0.7-0.2,1c1.4,2,3.4,4.3,4.9,5.8c0.8,0.8,2.1,2,3,2.7c0.3,0.3,0.8,0.2,1.1-0.1C325.3,237.7,325.3,237.3,325,237
							z"/>
					</g>
				</g>
			</g>
		</g>
		<g>
			<circle class="st67" cx="413.1" cy="228.7" r="27.4"/>
			<g>
				<g>
					<g>
						<g>
							<g>
								<g>
									<path class="st8" d="M416.4,208.5h-6.6c-0.4,0-0.7,0.3-0.7,0.7c0,0.4,0.3,0.7,0.7,0.7h6.6c0.4,0,0.7-0.3,0.7-0.7
										C417,208.8,416.8,208.5,416.4,208.5z"/>
								</g>
							</g>
							<g>
								<g>
									<path class="st8" d="M421,208.5h-0.7c-0.4,0-0.7,0.3-0.7,0.7c0,0.4,0.3,0.7,0.7,0.7h0.7c0.4,0,0.7-0.3,0.7-0.7
										C421.7,208.8,421.4,208.5,421,208.5z"/>
								</g>
							</g>
							<g>
								<g>
									<path class="st8" d="M413.3,245.3h-1c-0.6,0-1.1,0.6-1.1,1.3v0.2c0,0.7,0.5,1.3,1.1,1.3h1c0.6,0,1.1-0.6,1.1-1.3v-0.2
										C414.4,245.8,413.9,245.3,413.3,245.3z M413.6,246.8c0,0.2-0.1,0.4-0.3,0.4h-1c-0.2,0-0.3-0.2-0.3-0.4v-0.2
										c0-0.2,0.1-0.4,0.3-0.4h1c0.2,0,0.3,0.2,0.3,0.4V246.8z"/>
								</g>
							</g>
							<g>
								<g>
									<path class="st8" d="M421.9,206.3h-17.6c-1.3,0-2.4,1.2-2.4,2.7v39.4c0,1.5,1.1,2.7,2.4,2.7h17.6c1.3,0,2.4-1.2,2.4-2.7
										V209C424.3,207.5,423.2,206.3,421.9,206.3z M423,248.4c0,0.7-0.5,1.2-1.1,1.2h-17.6c-0.6,0-1.1-0.5-1.1-1.2V209
										c0-0.7,0.5-1.2,1.1-1.2h17.6c0.6,0,1.1,0.5,1.1,1.2L423,248.4L423,248.4z"/>
								</g>
							</g>
							<g>
								<g>
									<path class="st8" d="M423.6,210.8h-21.1c-0.4,0-0.7,0.3-0.7,0.7v31.4c0,0.4,0.3,0.7,0.7,0.7h21.1c0.4,0,0.7-0.3,0.7-0.7
										v-31.4C424.3,211.1,424,210.8,423.6,210.8z M423,242.1h-19.8v-29.9H423V242.1z"/>
								</g>
							</g>
						</g>
					</g>
					<path class="st8" d="M419.6,220.3c0.2,0,0.4-0.1,0.5-0.2c0.3-0.3,0.3-0.8,0-1.1l-1.5-1.5c-0.3-0.3-0.8-0.3-1.1,0
						c-0.3,0.3-0.3,0.8,0,1.1l1.5,1.5C419.2,220.2,419.4,220.3,419.6,220.3L419.6,220.3z M419.6,220.3"/>
					<path class="st8" d="M413.1,217c-0.3,0.3-0.3,0.8,0,1.1l6.1,6.1c0.1,0.1,0.3,0.2,0.5,0.2s0.4-0.1,0.5-0.2
						c0.3-0.3,0.3-0.8,0-1.1l-6.1-6.1C413.9,216.7,413.4,216.7,413.1,217L413.1,217z M413.1,217"/>
				</g>
			</g>
		</g>
		<g>
			<circle class="st67" cx="327.4" cy="138.2" r="30.8"/>
			<g>
				<g>
					<g>
						<g>
							<path class="st8" d="M351.1,138.2h-0.9v-18.4c0-2.4-2-4.4-4.4-4.4H309c-2.4,0-4.4,2-4.4,4.4V133h-0.9c-1.5,0-2.6,1.2-2.6,2.6
								v22.8c0,1.5,1.2,2.6,2.6,2.6h33.4c0.5,0,0.9-0.4,0.9-0.9c0-2.4-2-4.4-4.4-4.4h-2.6v-5.3h10.5v7.9c0,1.5,1.2,2.6,2.6,2.6h7
								c1.5,0,2.6-1.2,2.6-2.6v-17.6C353.8,139.4,352.6,138.2,351.1,138.2z M320.4,158.4c0,0.5-0.4,0.9-0.9,0.9h-15.8
								c-0.5,0-0.9-0.4-0.9-0.9v-0.9h17.6V158.4z M320.4,155.8h-17.6v-20.2c0-0.5,0.4-0.9,0.9-0.9h15.8c0.5,0,0.9,0.4,0.9,0.9V155.8
								z M333.6,157.6c1.1,0,2.1,0.7,2.5,1.8H322c0.1-0.3,0.2-0.6,0.2-0.9v-0.9H333.6z M322.2,155.8v-5.3h1.8v5.3H322.2z
								 M325.7,155.8v-5.3h3.5v5.3H325.7z M341.5,148.8h-19.3v-5.3h19.3V148.8z M341.5,140.9v0.9h-19.3v-6.1c0-0.4-0.1-0.8-0.3-1.2
								c0,0,0,0,0,0l8.7-8.7c0.3-0.4,0.3-0.9,0-1.2c-0.3-0.3-0.9-0.3-1.2,0l-8.7,8.7c0,0,0,0.1,0,0.1c-0.3-0.2-0.7-0.2-1.1-0.2
								h-13.2v-13.2c0-1.5,1.2-2.6,2.6-2.6h36.9c1.5,0,2.6,1.2,2.6,2.6v18.4h-4.4C342.7,138.2,341.5,139.4,341.5,140.9z M352,158.4
								c0,0.5-0.4,0.9-0.9,0.9h-7c-0.5,0-0.9-0.4-0.9-0.9v-0.9h8.8V158.4z M352,155.8h-8.8v-14.9c0-0.5,0.4-0.9,0.9-0.9h7
								c0.5,0,0.9,0.4,0.9,0.9V155.8z"/>
						</g>
					</g>
					<g>
						<g>
							<path class="st8" d="M311.6,143.7c-0.3-0.3-0.9-0.3-1.2,0l-3.7,3.7c-0.4,0.3-0.4,0.9,0,1.2c0.3,0.4,0.9,0.4,1.2,0
								c0,0,0,0,0,0l3.7-3.7C311.7,144.6,311.4,144.1,311.6,143.7z"/>
						</g>
					</g>
					<g>
						<g>
							<path class="st8" d="M316.8,143.7c-0.3-0.3-0.9-0.3-1.2,0l-3.7,3.7c-0.4,0.3-0.4,0.9,0,1.2c0.3,0.4,0.9,0.4,1.2,0
								c0,0,0,0,0,0l3.7-3.7C317.2,144.6,317.2,144,316.8,143.7z"/>
						</g>
					</g>
					<g>
						<g>
							<path class="st8" d="M335.9,124.4c-0.3-0.3-0.9-0.3-1.2,0l-8.7,8.7c-0.4,0.3-0.4,0.9,0,1.2s0.9,0.4,1.2,0c0,0,0,0,0,0
								l8.7-8.7C336.3,125.3,336.3,124.8,335.9,124.4z"/>
						</g>
					</g>
					<g>
						<g>
							<path class="st8" d="M349.5,146c-0.3-0.3-0.9-0.3-1.2,0l-2.5,2.5c-0.4,0.3-0.4,0.9,0,1.2c0.3,0.4,0.9,0.4,1.2,0c0,0,0,0,0,0
								l2.5-2.5C349.8,146.9,349.8,146.4,349.5,146z"/>
						</g>
					</g>
					<g>
						<g>
							<path class="st8" d="M327.5,145.3L327.5,145.3c-0.5,0-0.9,0.4-0.9,0.9c0,0.5,0.4,0.9,0.9,0.9c0.5,0,0.9-0.4,0.9-0.9
								C328.3,145.7,327.9,145.3,327.5,145.3z"/>
						</g>
					</g>
					<g>
						<g>
							<path class="st8" d="M329.2,118.9h-3.5c-0.5,0-0.9,0.4-0.9,0.9s0.4,0.9,0.9,0.9h3.5c0.5,0,0.9-0.4,0.9-0.9
								S329.7,118.9,329.2,118.9z"/>
						</g>
					</g>
				</g>
			</g>
		</g>
		<line class="st68" x1="327.4" y1="172.8" x2="327.4" y2="195.8"/>
		<g>
			<g>
				<line class="st69" x1="288.7" y1="137.7" x2="287.2" y2="137.7"/>
				<path class="st70" d="M284.2,137.7h-33.8c-3.9,0-7,3.2-7,7v44.7"/>
				<line class="st69" x1="243.3" y1="191" x2="243.3" y2="192.5"/>
			</g>
		</g>
		<g>
			<g>
				<line class="st69" x1="366.9" y1="137.7" x2="368.5" y2="137.7"/>
				<path class="st71" d="M371.5,137.7h34.2c3.7,0,6.7,3,6.7,6.7v45.1"/>
				<line class="st69" x1="412.3" y1="191" x2="412.3" y2="192.5"/>
			</g>
		</g>
	</g>
</g>
</svg>
