<?xml version="1.0" encoding="utf-8"?>
<!-- Generator: Adobe Illustrator 24.0.3, SVG Export Plug-In . SVG Version: 6.00 Build 0)  -->
<svg version="1.1" id="Capa_1" xmlns="http://www.w3.org/2000/svg" xmlns:xlink="http://www.w3.org/1999/xlink" x="0px" y="0px"
	 viewBox="0 0 512 512" style="enable-background:new 0 0 512 512;" xml:space="preserve">
<style type="text/css">
	.st0{opacity:0.5;fill:#1BBB9A;}
	.st1{opacity:0.1;fill:#590BB2;enable-background:new    ;}
	.st2{fill:#1BBB9A;}
	.st3{fill:#E2CCFF;}
	.st4{fill:#8E44AC;}
	.st5{fill:#FFFFFF;}
	.st6{fill:#F7F3FF;}
	.st7{fill:#FFA052;}
	.st8{fill:#F29B11;}
	.st9{fill:#D3D3D3;}
	.st10{fill:#F0C30F;}
	.st11{fill:#9A58B4;}
</style>
<path class="st0" d="M361.2,275.7c-56.8,0-102.8-46-102.8-102.8v-65.2C258.5,48.2,210.2,0,150.8,0S43.1,48.2,43.1,107.7v86.2
	C43.1,369.6,185.5,512,361.2,512c59.5,0,107.7-48.2,107.7-107.7v-20.9C468.9,323.9,420.7,275.7,361.2,275.7z"/>
<path class="st1" d="M482,392v25.2c0,5.5-4.5,10-10,10H40c-5.5,0-10-4.5-10-10V392c0-5.5,4.5-10,10-10h136c1.5,0,2.8,0.6,3.8,1.7
	l12.9,14.9h126.7l12.9-14.9c1-1.1,2.3-1.7,3.8-1.7h136C477.5,382,482,386.4,482,392z"/>
<path class="st2" d="M452,378.6H60V128.9c0-9.5,7.7-17.2,17.2-17.2h357.7c9.5,0,17.2,7.7,17.2,17.2L452,378.6L452,378.6z"/>
<path class="st3" d="M482,365v25.2c0,5.5-4.5,10-10,10H40c-5.5,0-10-4.5-10-10V365c0-5.5,4.5-10,10-10h136c1.5,0,2.8,0.6,3.8,1.7
	l12.9,14.9h126.7l12.9-14.9c1-1.1,2.3-1.7,3.8-1.7h136C477.5,355,482,359.4,482,365z"/>
<g>
	<path class="st4" d="M182.3,116.7h252.5c6.7,0,12.2,5.5,12.2,12.2v195.4c0,2.8,2.2,5,5,5s5-2.2,5-5V128.9c0-12.2-10-22.2-22.2-22.2
		H182.3c-2.8,0-5,2.2-5,5S179.5,116.7,182.3,116.7L182.3,116.7z"/>
	<path class="st4" d="M472,350H336c-2.9,0-5.7,1.3-7.6,3.5L317,366.5H195l-11.4-13.1c-1.9-2.2-4.7-3.5-7.6-3.5H65V128.9
		c0-6.7,5.5-12.2,12.2-12.2h74.5c2.8,0,5-2.2,5-5s-2.2-5-5-5H77.2c-12.2,0-22.2,10-22.2,22.2v221.1H40c-8.3,0-15,6.7-15,15v25.2
		c0,8.3,6.7,15,15,15h432c8.3,0,15-6.7,15-15v-25.2C487,356.7,480.3,350,472,350L472,350z M477,390.2c0,2.8-2.2,5-5,5H40
		c-2.8,0-5-2.2-5-5V365c0-2.8,2.2-5,5-5h136l12.9,14.9c0.9,1.1,2.3,1.7,3.8,1.7h126.7c1.5,0,2.8-0.6,3.8-1.7L336,360h136
		c2.8,0,5,2.2,5,5V390.2z"/>
</g>
<path class="st5" d="M423.8,331H88.2c-2.8,0-5-2.2-5-5V141.5c0-2.8,2.2-5,5-5h335.7c2.8,0,5,2.2,5,5V326
	C428.8,328.7,426.6,331,423.8,331z"/>
<path class="st6" d="M148.4,216.8l-13.3-9.1l-13.3,9.1c-3.3,2.3-7.8-0.1-7.8-4.1V151h42.3v61.6C156.2,216.7,151.7,219,148.4,216.8
	L148.4,216.8z"/>
<path class="st7" d="M148.4,202.3l-13.3-9.1l-13.3,9.1c-3.3,2.3-7.8-0.1-7.8-4.1v-61.6h42.3v61.6
	C156.2,202.2,151.7,204.6,148.4,202.3L148.4,202.3z"/>
<g>
	<g>
		<g>
			<path class="st8" d="M400.5,203.6H225c-2.8,0-5-2.2-5-5s2.2-5,5-5h175.5c2.8,0,5,2.2,5,5S403.3,203.6,400.5,203.6z"/>
		</g>
		<g>
			<path class="st8" d="M400.5,223.1H225c-2.8,0-5-2.2-5-5s2.2-5,5-5h175.5c2.8,0,5,2.2,5,5S403.3,223.1,400.5,223.1z"/>
		</g>
		<g>
			<path class="st8" d="M400.5,242.6H225c-2.8,0-5-2.2-5-5s2.2-5,5-5h175.5c2.8,0,5,2.2,5,5S403.3,242.6,400.5,242.6z"/>
		</g>
		<g>
			<path class="st8" d="M400.5,262.1H225c-2.8,0-5-2.2-5-5s2.2-5,5-5h175.5c2.8,0,5,2.2,5,5C405.5,259.9,403.3,262.1,400.5,262.1z"
				/>
		</g>
		<g>
			<path class="st8" d="M400.5,281.6H225c-2.8,0-5-2.2-5-5s2.2-5,5-5h175.5c2.8,0,5,2.2,5,5S403.3,281.6,400.5,281.6z"/>
		</g>
		<g>
			<path class="st8" d="M400.5,291.1c2.8,0,5,2.2,5,5s-2.2,5-5,5H225c-2.8,0-5-2.2-5-5s2.2-5,5-5H400.5z"/>
		</g>
	</g>
	<g>
		<g>
			<g>
				<path class="st9" d="M161,248.6h-49.5c-2.8,0-5-2.2-5-5s2.2-5,5-5H161c2.8,0,5,2.2,5,5S163.7,248.6,161,248.6z"/>
			</g>
			<g>
				<path class="st9" d="M188,266.1h-76.5c-2.8,0-5-2.2-5-5s2.2-5,5-5H188c2.8,0,5,2.2,5,5S190.7,266.1,188,266.1z"/>
			</g>
		</g>
		<g>
			<g>
				<path class="st9" d="M188,283.6h-76.5c-2.8,0-5-2.2-5-5s2.2-5,5-5H188c2.8,0,5,2.2,5,5S190.7,283.6,188,283.6z"/>
			</g>
			<g>
				<path class="st9" d="M188,301.1h-76.5c-2.8,0-5-2.2-5-5s2.2-5,5-5H188c2.8,0,5,2.2,5,5S190.7,301.1,188,301.1z"/>
			</g>
		</g>
		<g>
			<circle class="st9" cx="113" cy="225.6" r="5"/>
			<circle class="st9" cx="129.3" cy="225.6" r="5"/>
		</g>
	</g>
</g>
<g>
	<path class="st8" d="M236,172.1c-1.3,0-2.6-0.5-3.5-1.5l-2.3-2.3l-2.3,2.3c-2,2-5.1,2-7.1,0c-2-2-2-5.1,0-7.1l5.8-5.8
		c0.9-0.9,2.2-1.5,3.5-1.5c1.3,0,2.6,0.5,3.5,1.5l5.8,5.8c2,2,2,5.1,0,7.1C238.6,171.6,237.3,172.1,236,172.1L236,172.1z"/>
</g>
<path class="st8" d="M282.3,68.8h-3v-3c0-2.8-2.2-5-5-5s-5,2.2-5,5v3h-3c-2.8,0-5,2.2-5,5s2.2,5,5,5h3v3c0,2.8,2.2,5,5,5s5-2.2,5-5
	v-3h3c2.8,0,5-2.2,5-5S285.1,68.8,282.3,68.8z"/>
<path class="st10" d="M209,50h-3v-3c0-2.8-2.2-5-5-5s-5,2.2-5,5v3h-3c-2.8,0-5,2.2-5,5s2.2,5,5,5h3v3c0,2.8,2.2,5,5,5s5-2.2,5-5v-3
	h3c2.8,0,5-2.2,5-5S211.7,50,209,50z"/>
<path class="st10" d="M172.2,444.2h-3v-3c0-2.8-2.2-5-5-5s-5,2.2-5,5v3h-3c-2.8,0-5,2.2-5,5s2.2,5,5,5h3v3c0,2.8,2.2,5,5,5
	s5-2.2,5-5v-3h3c2.8,0,5-2.2,5-5S175,444.2,172.2,444.2z"/>
<g>
	<path class="st11" d="M336.5,45.2c-1.3,0-2.6-0.5-3.5-1.5l-4.5-4.5l-4.5,4.5c-2,2-5.1,2-7.1,0c-2-2-2-5.1,0-7.1l8-8
		c0.9-0.9,2.2-1.5,3.5-1.5s2.6,0.5,3.5,1.5l8,8c2,2,2,5.1,0,7.1C339.1,44.7,337.8,45.2,336.5,45.2L336.5,45.2z"/>
	<path class="st11" d="M228,466.2c-1.3,0-2.6-0.5-3.5-1.5l-4.5-4.5l-4.5,4.5c-2,2-5.1,2-7.1,0c-2-2-2-5.1,0-7.1l8-8
		c0.9-0.9,2.2-1.5,3.5-1.5s2.6,0.5,3.5,1.5l8,8c2,2,2,5.1,0,7.1C230.6,465.7,229.3,466.2,228,466.2L228,466.2z"/>
</g>
</svg>
