<?xml version="1.0" encoding="utf-8"?>
<!-- Generator: Adobe Illustrator 24.0.3, SVG Export Plug-In . SVG Version: 6.00 Build 0)  -->
<svg version="1.1" id="Capa_1" xmlns="http://www.w3.org/2000/svg" xmlns:xlink="http://www.w3.org/1999/xlink" x="0px" y="0px"
	 viewBox="0 0 512 512" style="enable-background:new 0 0 512 512;" xml:space="preserve">
<style type="text/css">
	.st0{opacity:0.5;fill:#1BBB9A;enable-background:new    ;}
	.st1{opacity:0.1;fill:#0000CC;enable-background:new    ;}
	.st2{fill:#9A58B4;}
	.st3{fill:#AD80C1;}
	.st4{fill:#AF82C4;}
	.st5{fill:#8E44AC;}
	.st6{fill:#2A80B8;}
	.st7{fill:#F29B11;}
</style>
<path class="st0" d="M428.4,171.9c-8.4-8.4-18-14.9-28.7-19.8c-28-12.7-50.1-35.4-62.4-63.6C314.3,36.4,262.3,0,201.7,0
	C122.4-0.1,56.5,63.2,53.5,142.4c-1.3,33.9,8.9,65.4,26.9,91c22.9,32.4,28.8,73.8,17,111.7C80.6,399,86.5,450,118.4,481.9
	c55.9,55.9,170.6,31.8,256.2-53.8S484.3,227.8,428.4,171.9z"/>
<g>
	<path class="st1" d="M186.2,126.4c1.3,0,2.6-0.5,3.5-1.5l6.1-6.1c2-2,2-5.1,0-7.1s-5.1-2-7.1,0l-6.1,6.1c-2,2-2,5.1,0,7.1
		C183.6,125.9,184.9,126.4,186.2,126.4z"/>
	<path class="st1" d="M168.4,116.1c0.3,0,0.5,0.1,0.8,0.1c2.4,0,4.5-1.8,4.9-4.2l1.7-10.5c0.4-2.7-1.4-5.3-4.1-5.7
		c-2.7-0.4-5.3,1.4-5.7,4.1l-1.7,10.5C163.8,113.1,165.7,115.7,168.4,116.1z"/>
	<path class="st1" d="M191.4,139.2c0.4,2.5,2.5,4.2,4.9,4.2c0.3,0,0.5,0,0.8-0.1l10.5-1.7c2.7-0.4,4.6-3,4.1-5.7s-3-4.6-5.7-4.1
		l-10.5,1.7C192.9,133.9,191,136.5,191.4,139.2L191.4,139.2z"/>
	<path class="st1" d="M398.5,321.5l-6.1,6.1c-2,2-2,5.1,0,7.1c1,1,2.3,1.5,3.5,1.5s2.6-0.5,3.5-1.5l6.1-6.1c2-2,2-5.1,0-7.1
		C403.6,319.5,400.5,319.5,398.5,321.5z"/>
	<path class="st1" d="M378.9,325.9c2.4,0,4.5-1.8,4.9-4.2l1.7-10.5c0.4-2.7-1.4-5.3-4.1-5.7c-2.7-0.4-5.3,1.4-5.7,4.1l-1.7,10.5
		c-0.4,2.7,1.4,5.3,4.1,5.7C378.4,325.9,378.7,325.9,378.9,325.9z"/>
	<path class="st1" d="M401.2,348.9c0.4,2.5,2.5,4.2,4.9,4.2c0.3,0,0.5,0,0.8-0.1l10.5-1.7c2.7-0.4,4.6-3,4.1-5.7s-3-4.6-5.7-4.1
		l-10.5,1.7C402.6,343.7,400.7,346.2,401.2,348.9L401.2,348.9z"/>
	<path class="st1" d="M421.7,402.1l-97.3-97.4c-3.9-3.9-10.2-3.9-14.1,0L280,335c-3.9,3.9-3.9,10.2,0,14.1l11.9,11.9l-19.1,19.1
		L137.3,244.6l19.1-19.1l11.9,11.9c3.9,3.9,10.2,3.9,14.1,0l30.2-30.2c3.9-3.9,3.9-10.2,0-14.1l-97.3-97.3c-3.9-3.9-10.2-3.9-14.1,0
		L71,126c-3.9,3.9-3.9,10.2,0,14.1L82.9,152l-22.4,22.4c-19.9,19.9-21.2,51.5-3.9,72.9c-0.2,0.1,7.3,8,7.3,7.7l198.5,198.5
		c-0.2,0,7,6.4,7.6,7.5c0-0.1,53.2,15.8,73.1-4.1l22.4-22.4l11.9,11.9c3.9,3.9,10.2,3.9,14.1,0l30.2-30.2
		C425.6,412.3,425.6,406,421.7,402.1z"/>
</g>
<path class="st2" d="M380,398.9l-37,37c-21.3,21.3-55.9,21.3-77.3,0L60.5,230.6c-21.3-21.3-21.3-55.9,0-77.3l37-37l73.5,73.5
	l-33.7,33.7L272.8,359l33.7-33.7L380,398.9z"/>
<path class="st2" d="M72,141.8l25.5-25.5l73.5,73.5l-25.5,25.5L72,141.8z"/>
<path class="st2" d="M281,350.8l25.5-25.5l73.5,73.5l-25.5,25.5L281,350.8z"/>
<path class="st3" d="M212.6,186.1l-30.2,30.2c-3.9,3.9-10.2,3.9-14.1,0L70.9,119c-3.9-3.9-3.9-10.2,0-14.1l30.2-30.2
	c3.9-3.9,10.2-3.9,14.1,0l97.3,97.3C216.5,175.8,216.5,182.2,212.6,186.1z"/>
<path class="st4" d="M421.7,395.1l-30.2,30.2c-3.9,3.9-10.2,3.9-14.1,0L280,328.1c-3.9-3.9-3.9-10.2,0-14.1l30.2-30.2
	c3.9-3.9,10.2-3.9,14.1,0l97.3,97.3C425.6,384.9,425.6,391.2,421.7,395.1z"/>
<path class="st5" d="M425,377.3l-97.1-97.1c-2.8-2.8-6.6-4.4-10.6-4.4s-7.8,1.6-10.6,4.4l-30.2,30.2c-2.8,2.8-4.4,6.6-4.4,10.6
	s1.6,7.8,4.4,10.6l8.3,8.3l-12,12L144.3,223.5l12-12l8.3,8.3c2.9,2.9,6.8,4.4,10.6,4.4s7.7-1.5,10.6-4.4l30.2-30.2
	c5.8-5.8,5.8-15.4,0-21.2l-97.3-97.3c-2.8-2.8-6.6-4.4-10.6-4.4s-7.8,1.6-10.6,4.4l-30.2,30.2c-5.8,5.9-5.8,15.4,0,21.2l8.3,8.3
	l-18.8,18.8c-22.3,22.3-23.2,57.9-2.8,81.3l202,202.2l0,0c0.7,0.5,9.1,8.9,9.1,8.9c11.2,9.7,25.2,14.6,39.2,14.6
	c15.3,0,30.5-5.8,42.2-17.4l18.8-18.8l8.3,8.3c2.9,2.9,6.8,4.4,10.6,4.4c3.8,0,7.7-1.5,10.6-4.4l30.2-30.2
	C430.8,392.7,430.8,383.1,425,377.3z M339.5,432.3c-19.4,19.4-50.9,19.4-70.2,0L64,227c-19.4-19.4-19.4-50.9,0-70.2l22.3-22.3
	c2-2,2-5.1,0-7.1l-11.9-11.9c-1.9-1.9-1.9-5.1,0-7.1l30.2-30.2c0.9-0.9,2.2-1.5,3.5-1.5s2.6,0.5,3.5,1.5l97.3,97.3
	c1.9,2,2,5.1,0,7.1l-30.2,30.2c-2,1.9-5.1,1.9-7.1,0l-61.2-61.2c-2-2-5.1-2-7.1,0s-2,5.1,0,7.1l45.8,45.8L133.7,220
	c-2,2-2,5.1,0,7.1l135.5,135.5c0.9,0.9,2.2,1.5,3.5,1.5s2.6-0.5,3.5-1.5l15.6-15.6l66.5,66.5L339.5,432.3z M418.1,391.6l-30.2,30.2
	c-2,2-5.1,1.9-7.1,0l-97.3-97.3c-0.9-0.9-1.5-2.2-1.5-3.5s0.5-2.6,1.5-3.5l30.2-30.2c0.9-0.9,2.2-1.5,3.5-1.5s2.6,0.5,3.5,1.5
	l97.3,97.3C420.1,386.5,420.1,389.7,418.1,391.6z"/>
<path class="st6" d="M186.2,105.4c1.3,0,2.6-0.5,3.5-1.5l6.1-6.1c2-2,2-5.1,0-7.1s-5.1-2-7.1,0l-6.1,6.1c-2,2-2,5.1,0,7.1
	C183.6,104.9,184.9,105.4,186.2,105.4z"/>
<path class="st6" d="M168.4,95.1c0.3,0,0.5,0.1,0.8,0.1c2.4,0,4.5-1.8,4.9-4.2l1.7-10.5c0.4-2.7-1.4-5.3-4.1-5.7
	c-2.7-0.4-5.3,1.4-5.7,4.1l-1.7,10.5C163.8,92.1,165.7,94.7,168.4,95.1z"/>
<path class="st6" d="M191.4,118.2c0.4,2.5,2.5,4.2,4.9,4.2c0.3,0,0.5,0,0.8-0.1l10.5-1.7c2.7-0.4,4.6-3,4.1-5.7s-3-4.6-5.7-4.1
	l-10.5,1.7C192.9,112.9,191,115.5,191.4,118.2L191.4,118.2z"/>
<path class="st6" d="M405.6,300.5c-2-2-5.1-2-7.1,0l-6.1,6.1c-2,2-2,5.1,0,7.1c1,1,2.3,1.5,3.5,1.5s2.6-0.5,3.5-1.5l6.1-6.1
	C407.5,305.6,407.5,302.4,405.6,300.5z"/>
<path class="st6" d="M375.7,288.6l-1.7,10.5c-0.4,2.7,1.4,5.3,4.1,5.7c0.3,0,0.5,0.1,0.8,0.1c2.4,0,4.5-1.8,4.9-4.2l1.7-10.5
	c0.4-2.7-1.4-5.3-4.1-5.7C378.7,284,376.1,285.9,375.7,288.6z"/>
<path class="st6" d="M406.1,332.2c0.3,0,0.5,0,0.8-0.1l10.5-1.7c2.7-0.4,4.6-3,4.1-5.7s-3-4.6-5.7-4.1l-10.5,1.7
	c-2.7,0.4-4.6,3-4.1,5.7C401.6,330.4,403.7,332.2,406.1,332.2z"/>
<path class="st7" d="M467.5,205.9c-1.3,0-2.6-0.5-3.5-1.5l-6.5-6.5l-6.5,6.5c-2,2-5.1,2-7.1,0s-2-5.1,0-7.1l10-10c2-2,5.1-2,7.1,0
	l10,10c2,2,2,5.1,0,7.1C470.1,205.4,468.8,205.9,467.5,205.9z"/>
<path class="st6" d="M26.1,322.1c-3.7,0-7.5-1.4-10.3-4.3c-5.7-5.7-5.7-15,0-20.7s15-5.7,20.6,0c2.8,2.8,4.3,6.4,4.3,10.3
	s-1.5,7.6-4.3,10.3l0,0C33.5,320.6,29.8,322.1,26.1,322.1z M26.1,302.9c-1.2,0-2.4,0.4-3.3,1.3c-1.8,1.8-1.8,4.7,0,6.5
	s4.7,1.8,6.5,0l0,0c0.9-0.9,1.3-2,1.3-3.3s-0.5-2.4-1.3-3.3C28.4,303.3,27.2,302.9,26.1,302.9L26.1,302.9z"/>
<path class="st2" d="M142.9,419.3h-3.2v-3.2c0-2.8-2.2-5-5-5s-5,2.2-5,5v3.2h-3.2c-2.8,0-5,2.2-5,5s2.2,5,5,5h3.2v3.2
	c0,2.8,2.2,5,5,5s5-2.2,5-5v-3.2h3.2c2.8,0,5-2.2,5-5S145.6,419.3,142.9,419.3z"/>
<path class="st6" d="M437.6,101h-3.2v-3.2c0-2.8-2.2-5-5-5s-5,2.2-5,5v3.2h-3.2c-2.8,0-5,2.2-5,5s2.2,5,5,5h3.2v3.2c0,2.8,2.2,5,5,5
	s5-2.2,5-5V111h3.2c2.8,0,5-2.2,5-5S440.4,101,437.6,101z"/>
</svg>
