<?xml version="1.0" encoding="utf-8"?>
<!-- Generator: Adobe Illustrator 24.1.1, SVG Export Plug-In . SVG Version: 6.00 Build 0)  -->
<svg version="1.1" id="Capa_1" xmlns="http://www.w3.org/2000/svg" xmlns:xlink="http://www.w3.org/1999/xlink" x="0px" y="0px"
	 viewBox="0 0 512 512" style="enable-background:new 0 0 512 512;" xml:space="preserve">
<style type="text/css">
	.st0{opacity:0.63;fill:#E1D7FF;}
	.st1{fill:#9A58B4;}
	.st2{fill:#C182F9;}
	.st3{fill:#D6B0FF;}
	.st4{fill:#FFE783;}
	.st5{fill:#1BBB9A;}
	.st6{fill:#00D3C5;}
	.st7{fill:#6C02AA;}
	.st8{fill:#C182F9;stroke:#6C02AA;stroke-width:5;stroke-miterlimit:10;}
	.st9{fill:#1BBB9A;stroke:#6C02AA;stroke-width:5;stroke-miterlimit:10;}
	.st10{fill:none;stroke:#1BBB9A;stroke-width:6;stroke-miterlimit:10;}
</style>
<path class="st0" d="M289.1,46.7c-24.7,24.7-64.7,24.7-89.4,0C153.9,0.9,79.5,0.9,33.7,46.7s-45.9,120.2,0,166.1
	c24.7,24.7,24.7,64.7,0,89.4c-45.9,45.9-45.9,120.2,0,166.1s120.2,45.9,166.1,0c24.7-24.7,64.7-24.7,89.4,0
	c45.9,45.9,120.2,45.9,166.1,0s45.9-120.2,0-166.1c-24.7-24.7-24.7-64.7,0-89.4c45.9-45.9,45.9-120.2,0-166.1S335,0.9,289.1,46.7
	L289.1,46.7z"/>
<path class="st1" d="M345.3,119.3h-3.2v-3.2c0-2.9-2.4-5.3-5.3-5.3c-2.9,0-5.3,2.4-5.3,5.3v3.2h-3.2c-2.9,0-5.3,2.4-5.3,5.3
	c0,2.9,2.4,5.3,5.3,5.3h3.2v3.2c0,2.9,2.4,5.3,5.3,5.3c2.9,0,5.3-2.4,5.3-5.3v-3.2h3.2c2.9,0,5.3-2.4,5.3-5.3
	C350.5,121.7,348.2,119.3,345.3,119.3z"/>
<g>
	<path class="st2" d="M125.7,222h18.5c3.1,0,5.7-2.5,5.7-5.7c0-3.1-2.5-5.7-5.7-5.7h-18.5c-3.1,0-5.7,2.5-5.7,5.7
		C120.1,219.5,122.6,222,125.7,222z"/>
	<g>
		<g>
			<g>
				<g>
					<path class="st2" d="M64.1,193.6h-15c-6.6,0-12-5.4-12-12v-48.9c0-6.6,5.4-12,12-12h15c2.4,0,4.4,2,4.4,4.4v64.1
						C68.5,191.6,66.5,193.6,64.1,193.6L64.1,193.6z"/>
				</g>
				<g>
					<path class="st3" d="M64.1,120.6h-6.2v73h6.2c2.4,0,4.4-2,4.4-4.4V125C68.5,122.6,66.5,120.6,64.1,120.6L64.1,120.6z"/>
				</g>
				<circle class="st4" cx="57.9" cy="178.7" r="5.3"/>
				<path class="st5" d="M41.2,154.6h-5.8c-1.2,0-2.2-1-2.2-2.2v-13.4c0-1.2,1-2.2,2.2-2.2h5.8c1.2,0,2.2,1,2.2,2.2v13.4
					C43.4,153.6,42.4,154.6,41.2,154.6z"/>
			</g>
			<g>
				<g>
					<path class="st2" d="M180.3,193.6h15c6.6,0,12-5.4,12-12v-48.9c0-6.6-5.4-12-12-12h-15c-2.4,0-4.4,2-4.4,4.4v64.1
						C175.9,191.6,177.8,193.6,180.3,193.6L180.3,193.6z"/>
				</g>
				<g>
					<path class="st3" d="M180.3,120.6h6.2v73h-6.2c-2.4,0-4.4-2-4.4-4.4V125C175.9,122.6,177.8,120.6,180.3,120.6L180.3,120.6z"/>
				</g>
				<circle class="st4" cx="186.5" cy="178.7" r="5.3"/>
				<path class="st5" d="M203.1,154.6h5.8c1.2,0,2.2-1,2.2-2.2v-13.4c0-1.2-1-2.2-2.2-2.2h-5.8c-1.2,0-2.2,1-2.2,2.2v13.4
					C200.9,153.6,201.9,154.6,203.1,154.6z"/>
			</g>
		</g>
		<g>
			<g>
				<path class="st6" d="M181.5,120.6h12.7c0.7-4.2,1.1-8.4,1.1-12.7c0-17.4-6.2-34.1-17.4-47.3c-0.8-0.9-2.1-1-3-0.2l-6.2,5.6
					c-0.8,0.7-0.9,2-0.2,2.9c9.2,10.9,14.3,24.7,14.3,39.1C182.8,112.2,182.3,116.5,181.5,120.6L181.5,120.6z"/>
			</g>
			<g>
				<path class="st6" d="M62.9,120.6c-0.9-4.1-1.3-8.4-1.3-12.7c0-14.4,5.1-28.2,14.3-39.1c0.7-0.9,0.6-2.1-0.2-2.9l-6.2-5.6
					c-0.9-0.8-2.2-0.7-3,0.2c-11.2,13.2-17.4,29.9-17.4,47.3c0,4.3,0.4,8.5,1.1,12.7H62.9z"/>
			</g>
		</g>
		<path class="st7" d="M209.5,134.5v-1.9c0-7.4-5.6-13.5-12.8-14.2c0.5-3.5,0.7-7,0.7-10.5c0-17.9-6.4-35.2-17.9-48.8
			c-0.8-0.9-1.8-1.4-3-1.5c-1.2-0.1-2.3,0.3-3.2,1.1l-1.4,1.3c-13-13.5-31-21.2-49.8-21.2c-18.7,0-36.8,7.7-49.8,21.2L71,58.8
			c-0.9-0.8-2-1.2-3.2-1.1c-1.2,0.1-2.2,0.6-3,1.5c-11.6,13.6-17.9,30.9-17.9,48.8c0,3.5,0.3,7,0.7,10.5
			c-7.2,0.7-12.8,6.8-12.8,14.2v1.9c-2.1,0.3-3.8,2.2-3.8,4.4v13.4c0,2.2,1.7,4.1,3.8,4.4v24.8c0,7.9,6.4,14.3,14.3,14.3h15
			c3.7,0,6.6-3,6.6-6.6v-35.8c0-1.2-1-2.2-2.2-2.2c-1.2,0-2.2,1-2.2,2.2v35.8c0,1.2-1,2.2-2.2,2.2h-15c-5.4,0-9.8-4.4-9.8-9.8v-24.8
			h2c2.4,0,4.4-2,4.4-4.4v-13.4c0-2.4-2-4.4-4.4-4.4h-2v-1.8c0-5.4,4.4-9.8,9.8-9.8h1.2c0,0,0,0,0,0h12.7c0,0,0,0,0,0h1.2
			c1.2,0,2.2,1,2.2,2.2v14.8c0,1.2,1,2.2,2.2,2.2c1.2,0,2.2-1,2.2-2.2V125c0-3.4-2.6-6.3-6-6.6c-0.6-3.5-0.9-7-0.9-10.5
			c0-13.8,4.9-27.1,13.8-37.7c1.5-1.8,1.3-4.4-0.4-6L75.7,63c12.1-12.6,29-19.7,46.5-19.7c17.5,0,34.3,7.2,46.5,19.7l-1.4,1.3
			c-1.7,1.6-1.9,4.2-0.4,6c8.9,10.5,13.8,23.9,13.8,37.7c0,3.5-0.3,7-0.9,10.5c-3.4,0.3-6,3.2-6,6.6v14.8c0,1.2,1,2.2,2.2,2.2
			c1.2,0,2.2-1,2.2-2.2V125c0-1.2,1-2.2,2.2-2.2h1.2c0,0,0,0,0,0h12.7c0,0,0,0,0,0h1.2c5.4,0,9.8,4.4,9.8,9.8v1.8h-2
			c-2.4,0-4.4,2-4.4,4.4v13.4c0,2.4,2,4.4,4.4,4.4h2v24.8c0,5.4-4.4,9.8-9.8,9.8h-8.8c0,0,0,0,0,0c0,0,0,0,0,0h-6.2
			c-1.2,0-2.2-1-2.2-2.2v-35.8c0-1.2-1-2.2-2.2-2.2c-1.2,0-2.2,1-2.2,2.2v35.8c0,3.7,3,6.6,6.6,6.6h4v3.4c0,8.3-6.7,15-15,15h-17.8
			c-0.9-3.1-3.7-5.3-7.1-5.3h-16.9c-4.1,0-7.4,3.3-7.4,7.4s3.3,7.4,7.4,7.4h16.9c3.2,0,6-2.1,7-5h17.9c10.7,0,19.5-8.7,19.5-19.5
			v-3.4h6.6c7.9,0,14.3-6.4,14.3-14.3v-24.8c2.1-0.3,3.8-2.2,3.8-4.4v-13.4C213.3,136.7,211.7,134.8,209.5,134.5L209.5,134.5z
			 M41.2,152.4h-5.8v-13.4h5.8L41.2,152.4z M59.3,107.9c0,3.5,0.3,7,0.9,10.5h-8.1c-0.5-3.5-0.8-7-0.8-10.5c0-16.8,6-33,16.8-45.8
			l5.9,5.4C64.6,78.8,59.3,93.2,59.3,107.9z M170.3,67.5l5.9-5.4c10.8,12.8,16.8,29,16.8,45.8c0,3.5-0.3,7-0.8,10.5h-8.1
			c0.6-3.5,0.9-7,0.9-10.5C185,93.2,179.8,78.8,170.3,67.5z M144.3,219.3h-16.9c-1.6,0-3-1.3-3-3c0-1.6,1.3-3,3-3h16.9
			c1.6,0,3,1.3,3,3C147.3,218,146,219.3,144.3,219.3z M203.1,138.9h5.8v13.4h-5.8V138.9z"/>
	</g>
</g>
<g>
	<path class="st2" d="M384.6,468.4h18.5c3.1,0,5.7-2.5,5.7-5.7c0-3.1-2.5-5.7-5.7-5.7h-18.5c-3.1,0-5.7,2.5-5.7,5.7
		C379,465.8,381.5,468.4,384.6,468.4z"/>
	<g>
		<g>
			<g>
				<g>
					<path class="st2" d="M322.9,440h-15c-6.6,0-12-5.4-12-12V379c0-6.6,5.4-12,12-12h15c2.4,0,4.4,2,4.4,4.4v64.1
						C327.4,438,325.4,440,322.9,440L322.9,440z"/>
				</g>
				<g>
					<path class="st3" d="M322.9,367h-6.2v73h6.2c2.4,0,4.4-2,4.4-4.4v-64.1C327.4,369,325.4,367,322.9,367L322.9,367z"/>
				</g>
				<circle class="st4" cx="316.8" cy="425" r="5.3"/>
				<path class="st5" d="M300.1,400.9h-5.8c-1.2,0-2.2-1-2.2-2.2v-13.4c0-1.2,1-2.2,2.2-2.2h5.8c1.2,0,2.2,1,2.2,2.2v13.4
					C302.3,400,301.3,400.9,300.1,400.9z"/>
			</g>
			<g>
				<g>
					<path class="st2" d="M439.2,440h15c6.6,0,12-5.4,12-12V379c0-6.6-5.4-12-12-12h-15c-2.4,0-4.4,2-4.4,4.4v64.1
						C434.7,438,436.7,440,439.2,440L439.2,440z"/>
				</g>
				<g>
					<path class="st3" d="M439.2,367h6.2v73h-6.2c-2.4,0-4.4-2-4.4-4.4v-64.1C434.7,369,436.7,367,439.2,367L439.2,367z"/>
				</g>
				<circle class="st4" cx="445.3" cy="425" r="5.3"/>
				<path class="st5" d="M462,400.9h5.8c1.2,0,2.2-1,2.2-2.2v-13.4c0-1.2-1-2.2-2.2-2.2H462c-1.2,0-2.2,1-2.2,2.2v13.4
					C459.8,400,460.8,400.9,462,400.9z"/>
			</g>
		</g>
		<g>
			<g>
				<path class="st6" d="M440.3,367H453c0.7-4.2,1.1-8.4,1.1-12.7c0-17.4-6.2-34.1-17.4-47.3c-0.8-0.9-2.1-1-3-0.2l-6.2,5.6
					c-0.8,0.7-0.9,2-0.2,2.9c9.2,10.9,14.3,24.7,14.3,39.1C441.7,358.6,441.2,362.8,440.3,367L440.3,367z"/>
			</g>
			<g>
				<path class="st6" d="M321.8,367c-0.9-4.1-1.3-8.4-1.3-12.7c0-14.4,5.1-28.2,14.3-39.1c0.7-0.9,0.6-2.1-0.2-2.9l-6.2-5.6
					c-0.9-0.8-2.2-0.7-3,0.2c-11.2,13.2-17.4,29.9-17.4,47.3c0,4.3,0.4,8.5,1.1,12.7H321.8z"/>
			</g>
		</g>
		<path class="st7" d="M468.4,380.9V379c0-7.4-5.6-13.5-12.8-14.2c0.5-3.5,0.7-7,0.7-10.5c0-17.9-6.4-35.2-17.9-48.8
			c-0.8-0.9-1.8-1.4-3-1.5c-1.2-0.1-2.3,0.3-3.2,1.1l-1.4,1.3c-13-13.5-31-21.2-49.8-21.2c-18.7,0-36.8,7.7-49.8,21.2l-1.4-1.3
			c-0.9-0.8-2-1.2-3.2-1.1c-1.2,0.1-2.2,0.6-3,1.5c-11.6,13.6-17.9,30.9-17.9,48.8c0,3.5,0.3,7,0.7,10.5
			c-7.2,0.7-12.8,6.8-12.8,14.2v1.9c-2.1,0.3-3.8,2.2-3.8,4.4v13.4c0,2.2,1.7,4.1,3.8,4.4v24.8c0,7.9,6.4,14.3,14.3,14.3h15
			c3.7,0,6.6-3,6.6-6.6v-35.8c0-1.2-1-2.2-2.2-2.2c-1.2,0-2.2,1-2.2,2.2v35.8c0,1.2-1,2.2-2.2,2.2h-15c-5.4,0-9.8-4.4-9.8-9.8v-24.8
			h2c2.4,0,4.4-2,4.4-4.4v-13.4c0-2.4-2-4.4-4.4-4.4h-2V379c0-5.4,4.4-9.8,9.8-9.8h1.2c0,0,0,0,0,0h12.7c0,0,0,0,0,0h1.2
			c1.2,0,2.2,1,2.2,2.2v14.8c0,1.2,1,2.2,2.2,2.2c1.2,0,2.2-1,2.2-2.2v-14.8c0-3.4-2.6-6.3-6-6.6c-0.6-3.5-0.9-7-0.9-10.5
			c0-13.8,4.9-27.1,13.8-37.7c1.5-1.8,1.3-4.4-0.4-6l-1.4-1.3c12.1-12.6,29-19.7,46.5-19.7c17.5,0,34.3,7.2,46.5,19.7l-1.4,1.3
			c-1.7,1.6-1.9,4.2-0.4,6c8.9,10.5,13.8,23.9,13.8,37.7c0,3.5-0.3,7-0.9,10.5c-3.4,0.3-6,3.2-6,6.6v14.8c0,1.2,1,2.2,2.2,2.2
			c1.2,0,2.2-1,2.2-2.2v-14.8c0-1.2,1-2.2,2.2-2.2h1.2c0,0,0,0,0,0H453c0,0,0,0,0,0h1.2c5.4,0,9.8,4.4,9.8,9.8v1.8h-2
			c-2.4,0-4.4,2-4.4,4.4v13.4c0,2.4,2,4.4,4.4,4.4h2v24.8c0,5.4-4.4,9.8-9.8,9.8h-8.8c0,0,0,0,0,0s0,0,0,0h-6.2
			c-1.2,0-2.2-1-2.2-2.2v-35.8c0-1.2-1-2.2-2.2-2.2s-2.2,1-2.2,2.2v35.8c0,3.7,3,6.6,6.6,6.6h4v3.4c0,8.3-6.7,15-15,15h-17.8
			c-0.9-3.1-3.7-5.3-7.1-5.3h-16.9c-4.1,0-7.4,3.3-7.4,7.4c0,4.1,3.3,7.4,7.4,7.4h16.9c3.2,0,6-2.1,7-5h17.9
			c10.7,0,19.5-8.7,19.5-19.5v-3.4h6.6c7.9,0,14.3-6.4,14.3-14.3v-24.8c2.1-0.3,3.8-2.2,3.8-4.4v-13.4
			C472.2,383.1,470.6,381.2,468.4,380.9L468.4,380.9z M300.1,398.7h-5.8v-13.4h5.8L300.1,398.7z M318.2,354.3c0,3.5,0.3,7,0.9,10.5
			H311c-0.5-3.5-0.8-7-0.8-10.5c0-16.8,6-33,16.8-45.8l5.9,5.4C323.4,325.2,318.2,339.5,318.2,354.3z M429.2,313.9l5.9-5.4
			c10.8,12.8,16.8,29,16.8,45.8c0,3.5-0.3,7-0.8,10.5H443c0.6-3.5,0.9-7,0.9-10.5C443.9,339.5,438.7,325.2,429.2,313.9z
			 M403.2,465.7h-16.9c-1.6,0-3-1.3-3-3c0-1.6,1.3-3,3-3h16.9c1.6,0,3,1.3,3,3C406.2,464.3,404.8,465.7,403.2,465.7z M462,385.3h5.8
			v13.4H462V385.3z"/>
	</g>
</g>
<g>
	<path class="st8" d="M292.3,312.3c3.5,0,6.3-2.8,6.3-6.3l0-41.3c0-5.6-6.7-8.4-10.7-4.4l-6,6l-25.4-25.4c-2.4-2.4-6.4-2.4-8.8,0
		l-20.4,20.4c-2.4,2.4-2.4,6.4,0,8.8l25.4,25.4l-6,6c-3.9,3.9-1.2,10.7,4.4,10.7H292.3L292.3,312.3z"/>
	<path class="st9" d="M219.7,199.7c-3.5,0-6.3,2.8-6.3,6.3v41.3c0,5.6,6.7,8.4,10.7,4.4l6-6l25.4,25.4c2.4,2.4,6.4,2.4,8.8,0
		l20.4-20.4c2.4-2.4,2.4-6.4,0-8.8l-25.4-25.4l6-6c3.9-3.9,1.2-10.7-4.4-10.7H219.7L219.7,199.7z"/>
</g>
<circle class="st10" cx="413.6" cy="91.6" r="8.1"/>
<path class="st1" d="M134.2,375.6H131v-3.2c0-2.9-2.4-5.3-5.3-5.3s-5.3,2.4-5.3,5.3v3.2h-3.2c-2.9,0-5.3,2.4-5.3,5.3
	s2.4,5.3,5.3,5.3h3.2v3.2c0,2.9,2.4,5.3,5.3,5.3s5.3-2.4,5.3-5.3v-3.2h3.2c2.9,0,5.3-2.4,5.3-5.3S137.1,375.6,134.2,375.6z"/>
<path class="st1" d="M475.3,240.7h-3.2v-3.2c0-2.9-2.4-5.3-5.3-5.3s-5.3,2.4-5.3,5.3v3.2h-3.2c-2.9,0-5.3,2.4-5.3,5.3
	s2.4,5.3,5.3,5.3h3.2v3.2c0,2.9,2.4,5.3,5.3,5.3s5.3-2.4,5.3-5.3v-3.2h3.2c2.9,0,5.3-2.4,5.3-5.3S478.2,240.7,475.3,240.7z"/>
<circle class="st10" cx="185.9" cy="385.7" r="8.1"/>
<circle class="st10" cx="26.7" cy="254.1" r="8.1"/>
</svg>
