<?xml version="1.0" encoding="utf-8"?>
<!-- Generator: Adobe Illustrator 24.0.3, SVG Export Plug-In . SVG Version: 6.00 Build 0)  -->
<svg version="1.1" id="Capa_1" xmlns="http://www.w3.org/2000/svg" xmlns:xlink="http://www.w3.org/1999/xlink" x="0px" y="0px"
	 viewBox="0 0 512 512" style="enable-background:new 0 0 512 512;" xml:space="preserve">
<style type="text/css">
	.st0{opacity:0.5;fill:#1BBB9A;}
	.st1{opacity:0.1;fill:#590BB2;enable-background:new    ;}
	.st2{fill:#AFABC6;}
	.st3{fill:#8E8CA8;}
	.st4{fill:#F5F4F9;}
	.st5{fill:#E8E6ED;}
	.st6{fill:#CECAE0;}
	.st7{fill:#9A58B4;}
	.st8{fill:#F29B11;}
	.st9{fill:#F0C30F;}
	.st10{fill:#FFA052;}
	.st11{fill:#FDD250;}
	.st12{fill:#C182F9;}
	.st13{fill:#FFBE92;}
	.st14{fill:#8E44AC;}
</style>
<path class="st0" d="M483,143.7c-34.9-35.9-89.5-40.9-129.8-14.9c-11.5,7.4-25.4,9.9-38.7,6.9c-31.6-7-64.6-2.2-92.7,13
	c-18.9,10.3-41.9,8.5-59.6-3.8c-11.7-8.2-25.3-14-40.3-16.8C66.4,118,12.5,154.8,1.9,210.1c-10.9,56.6,26.6,111,83.2,121.1
	c13.8,2.5,27.5,2,40.4-0.8c20.9-4.6,42.8,3.1,56.3,19.8c8.5,10.5,18.8,19.9,30.8,27.7c61.7,40.3,144.4,22.9,184.7-38.8
	c0-0.1,0.1-0.1,0.1-0.2c7.4-11.3,18.9-19.4,32.1-22.1c19.4-3.9,37.8-13.4,52.8-28.5C521.6,248.5,522,183.8,483,143.7z"/>
<path class="st1" d="M456,98.5v254.2c0,8.3-6.7,15-15,15H71c-8.3,0-15-6.7-15-15V98.5c0-8.3,6.7-15,15-15h370
	C449.3,83.5,456,90.3,456,98.5z"/>
<path class="st2" d="M312.7,461.5H199.3l22.7-89.9H290L312.7,461.5z"/>
<path class="st3" d="M297.9,402.9h-83.9l7.9-31.3H290L297.9,402.9z"/>
<path class="st4" d="M456,119.5v254.3c0,8.3-6.7,15-15,15H71c-8.3,0-15-6.7-15-15V119.5c0-8.3,6.7-15,15-15h370
	C449.3,104.5,456,111.3,456,119.5L456,119.5z"/>
<path class="st5" d="M395.3,152.7c0,76.9-62.4,139.3-139.3,139.3s-139.3-62.4-139.3-139.3L395.3,152.7z"/>
<path class="st6" d="M224.9,338.4c0-17.2,13.9-31.1,31.1-31.1s31.1,13.9,31.1,31.1H224.9z"/>
<path class="st7" d="M456,152.7v-33.2c0-8.3-6.7-15-15-15H71c-8.3,0-15,6.7-15,15v33.2H456z"/>
<path class="st6" d="M56,338.4v35.4c0,8.3,6.7,15,15,15h370c8.3,0,15-6.7,15-15v-35.4H56z"/>
<path class="st8" d="M340.4,338.4c0-46.6-37.8-84.4-84.4-84.4s-84.4,37.8-84.4,84.4h-31.9c0-64.2,52.1-116.3,116.3-116.3
	s116.3,52.1,116.3,116.3H340.4z"/>
<path class="st9" d="M256,254c-46.6,0-84.4,37.8-84.4,84.4h-31.9c0-64.2,52.1-116.3,116.3-116.3V254z"/>
<path class="st10" d="M342.9,261.1l-22.6,22.6C304.8,265.5,281.7,254,256,254v-31.9C290.5,222.1,321.6,237.1,342.9,261.1z"/>
<path class="st11" d="M256,222.1V254c-25.7,0-48.8,11.5-64.2,29.7l-22.6-22.6C190.4,237.1,221.5,222.1,256,222.1z"/>
<path class="st2" d="M285.4,288.8l-0.1-0.1l1.6-2.4c1.6-2.3,1-5.4-1.3-6.9c-2.3-1.6-5.4-1-6.9,1.3l-1.6,2.4l-0.1-0.1
	c-2.3-1.6-5.4-1-6.9,1.3c-1.6,2.3-1,5.4,1.3,6.9l0.1,0.1L251.9,320c-1.6,2.3-1,5.4,1.3,6.9c0.9,0.6,1.8,0.9,2.8,0.9
	c1.6,0,3.2-0.8,4.1-2.2l19.5-28.6l0.1,0.1c0.9,0.6,1.8,0.9,2.8,0.9c1.6,0,3.2-0.8,4.1-2.2C288.3,293.5,287.7,290.4,285.4,288.8z"/>
<path class="st6" d="M161,182.8H94.4c-2.8,0-5.1-2.3-5.1-5.1s2.3-5.1,5.1-5.1H161c2.8,0,5.1,2.3,5.1,5.1
	C166.1,180.5,163.8,182.8,161,182.8z"/>
<path class="st12" d="M143,201.8h-30.6c-2.8,0-5.1-2.3-5.1-5.1s2.3-5.1,5.1-5.1H143c2.8,0,5.1,2.3,5.1,5.1
	C148.1,199.5,145.8,201.8,143,201.8z"/>
<path class="st6" d="M417.6,182.8H351c-2.8,0-5.1-2.3-5.1-5.1s2.3-5.1,5.1-5.1h66.6c2.8,0,5.1,2.3,5.1,5.1S420.5,182.8,417.6,182.8z
	"/>
<path class="st12" d="M399.6,201.8H369c-2.8,0-5.1-2.3-5.1-5.1s2.3-5.1,5.1-5.1h30.6c2.8,0,5.1,2.3,5.1,5.1S402.5,201.8,399.6,201.8
	z"/>
<path class="st13" d="M134.5,251.8h-13.7c-1.7,0-3-1.3-3-3v-24.5c0-1.7,1.3-3,3-3h13.7c1.7,0,3,1.3,3,3v24.5
	C137.5,250.5,136.2,251.8,134.5,251.8z"/>
<path class="st13" d="M391.2,251.8h-13.7c-1.7,0-3-1.3-3-3v-24.5c0-1.7,1.3-3,3-3h13.7c1.7,0,3,1.3,3,3v24.5
	C394.2,250.5,392.8,251.8,391.2,251.8z"/>
<circle class="st7" cx="272.9" cy="196.7" r="5.6"/>
<circle class="st7" cx="256" cy="196.7" r="5.6"/>
<circle class="st7" cx="239.1" cy="196.7" r="5.6"/>
<path class="st7" d="M124.4,454.3c-1.3,0-2.6-0.5-3.5-1.5l-11-11c-0.9-0.9-1.5-2.2-1.5-3.5s0.5-2.6,1.5-3.5l11-11c2-2,5.1-2,7.1,0
	l11,11c0.9,0.9,1.5,2.2,1.5,3.5s-0.5,2.6-1.5,3.5l-11,11C127,453.8,125.7,454.3,124.4,454.3z M120.5,438.3l3.9,3.9l3.9-3.9l-3.9-3.9
	L120.5,438.3z"/>
<path class="st8" d="M345.1,89.5c-2.8,0-5-2.2-5-5c0-3.3-2.7-6-6-6c-2.8,0-5-2.2-5-5s2.2-5,5-5c3.3,0,6-2.7,6-6c0-2.8,2.2-5,5-5
	s5,2.2,5,5c0,3.3,2.7,6,6,6c2.8,0,5,2.2,5,5s-2.2,5-5,5c-3.3,0-6,2.7-6,6C350.1,87.3,347.9,89.5,345.1,89.5z"/>
<path class="st8" d="M362,438.5c-2.8,0-5-2.2-5-5c0-3.3-2.7-6-6-6c-2.8,0-5-2.2-5-5s2.2-5,5-5c3.3,0,6-2.7,6-6c0-2.8,2.2-5,5-5
	s5,2.2,5,5c0,3.3,2.7,6,6,6c2.8,0,5,2.2,5,5s-2.2,5-5,5c-3.3,0-6,2.7-6,6C367,436.3,364.8,438.5,362,438.5z"/>
<path class="st9" d="M402.5,77.5c-1.3,0-2.6-0.5-3.5-1.5l-11-11c-2-2-2-5.1,0-7.1l11-11c2-2,5.1-2,7.1,0l11,11c2,2,2,5.1,0,7.1
	l-11,11C405,77.1,403.8,77.5,402.5,77.5z M398.5,61.5l3.9,3.9l3.9-3.9l-3.9-3.9L398.5,61.5z"/>
<g>
	<path class="st14" d="M94.1,123.6c-2.8,0-5,2.2-5,5v0.1c0,2.8,2.2,5,5,5s5-2.2,5-5v-0.1C99.1,125.8,96.8,123.6,94.1,123.6z"/>
	<path class="st14" d="M113.4,123.6c-2.8,0-5,2.2-5,5v0.1c0,2.8,2.2,5,5,5s5-2.2,5-5v-0.1C118.4,125.8,116.2,123.6,113.4,123.6z"/>
	<path class="st14" d="M132.7,123.6c-2.8,0-5,2.2-5,5v0.1c0,2.8,2.2,5,5,5s5-2.2,5-5v-0.1C137.7,125.8,135.5,123.6,132.7,123.6z"/>
	<path class="st14" d="M441,99.5H71c-11,0-20,9-20,20v254.2c0,11,9,20,20,20h140.2l-15.8,62.7h-15.3c-2.8,0-5,2.2-5,5s2.2,5,5,5
		h151.9c2.8,0,5-2.2,5-5s-2.2-5-5-5h-15.3l-15.8-62.7H441c11,0,20-9,20-20v-35.4c0-2.8-2.2-5-5-5c-0.1,0-0.2,0-0.3,0
		c-0.1,0-0.2,0-0.3,0H61V157.7h390v153.1c0,2.8,2.2,5,5,5s5-2.2,5-5V119.5C461,108.5,452,99.5,441,99.5L441,99.5z M306.3,456.5
		H205.7l15.8-62.7h68.9L306.3,456.5z M451,343.4v30.4c0,5.5-4.5,10-10,10H71c-5.5,0-10-4.5-10-10v-30.4H451z M61,147.7v-28.2
		c0-5.5,4.5-10,10-10h370c5.5,0,10,4.5,10,10v28.2L61,147.7L61,147.7z"/>
</g>
</svg>
